<svg width="139" height="46" viewBox="0 0 139 46" fill="none" xmlns="http://www.w3.org/2000/svg">
<g clip-path="url(#clip0_5_12257)">
<g clip-path="url(#clip1_5_12257)">
<g clip-path="url(#clip2_5_12257)">
<g clip-path="url(#clip3_5_12257)">
<path d="M1.68544 32.8053C7.34648 32.9238 11.3693 32.931 13.7539 32.8269C14.3135 32.8025 14.7446 32.6252 15.0471 32.2951C15.3729 31.9395 15.5236 31.482 15.4991 30.9223L15.3398 27.2725L8.44153 27.5736C5.88663 27.6852 4.00024 27.1946 2.78235 26.102C1.58774 24.984 0.934655 23.1475 0.823106 20.5926L0.791235 19.8627C0.679685 17.3078 1.17076 15.4335 2.26445 14.24C3.38141 13.021 5.21734 12.3558 7.77223 12.2442L8.50221 12.2124L7.9938 8.94343L13.4686 8.7044L13.247 12.0052L19.0868 11.7502L19.3099 16.86L9.45528 17.2903C7.99533 17.354 7.29723 18.1159 7.36098 19.5758L7.39285 20.3058C7.45659 21.7657 8.21843 22.4638 9.67837 22.4001L14.7517 22.1786C17.1362 22.0745 18.9126 22.5576 20.0808 23.628C21.2489 24.6985 21.8851 26.426 21.9892 28.8105L22.0689 30.6355C22.173 33.02 21.6898 34.7964 20.6194 35.9646C19.5733 37.1317 17.858 37.7673 15.4734 37.8714L14.4514 37.916L14.8869 41.1881L9.41207 41.4272L9.62567 37.9439C7.04943 37.9281 4.47382 37.8577 1.90057 37.7326L1.68544 32.8053ZM24.521 11.513L39.8504 10.8437C42.4053 10.7321 44.2801 11.2354 45.4747 12.3534C46.6926 13.446 47.3573 15.2698 47.4688 17.8247L47.6282 21.4745C47.7397 24.0294 47.237 25.9164 46.1201 27.1353C45.0264 28.3289 43.2021 28.9814 40.6472 29.093L31.8875 29.4754L32.2063 36.7751L25.6365 37.062L24.521 11.513ZM40.8991 18.1115C40.8354 16.6516 40.0735 15.9535 38.6136 16.0172L31.3139 16.3359L31.6644 24.3656L38.9642 24.0469C40.4241 23.9832 41.1222 23.2213 41.0585 21.7614L40.8991 18.1115ZM58.642 30.8671C59.9316 30.8107 61.381 30.5037 62.99 29.9459L62.8944 27.7559L57.6021 27.987C57.2371 28.0029 56.9383 28.1379 56.7056 28.3918C56.4729 28.6458 56.3645 28.9552 56.3804 29.3202L56.3963 29.6852C56.4123 30.0502 56.5472 30.349 56.8012 30.5817C57.0551 30.8144 57.3646 30.9228 57.7296 30.9069L58.642 30.8671ZM51.2673 16.9275C55.6989 16.2464 59.7031 15.8278 63.2799 15.6716C64.9346 15.5994 66.2824 16.0403 67.3236 16.9944C68.3648 17.9484 68.9215 19.2528 68.9938 20.9074L69.6153 35.1418L63.958 35.3888L63.5133 33.5798C62.4535 34.3572 61.2854 34.975 60.0463 35.4133C58.8688 35.806 57.8665 36.0205 57.0392 36.0566L55.7617 36.1124C54.1071 36.1846 52.7592 35.7437 51.7181 34.7896C50.6769 33.8355 50.1202 32.5312 50.0479 30.8766L49.9762 29.2342C49.904 27.5796 50.3449 26.2317 51.2989 25.1905C52.253 24.1493 53.5574 23.5926 55.212 23.5203L62.6942 23.1937L62.6304 21.7337C62.6145 21.3687 62.4795 21.0699 62.2256 20.8372C61.9716 20.6045 61.6622 20.4961 61.2972 20.512C59.7156 20.5811 57.9668 20.7306 56.051 20.9605C54.1594 21.1894 52.6313 21.3658 51.4665 21.4898L51.2673 16.9275ZM83.0276 20.1118C81.738 20.1681 80.2887 20.4752 78.6796 21.033L79.2772 34.72L72.89 34.9988L72.0454 15.6546L77.7027 15.4076L78.1473 17.2166C79.258 16.4123 80.4021 15.8139 81.5795 15.4212C82.7802 15.0031 83.7942 14.7759 84.6215 14.7398L86.2639 14.6681C87.9185 14.5959 89.2664 15.0368 90.3076 15.9909C91.3488 16.9449 91.9055 18.2493 91.9777 19.9039L92.5992 34.1383L86.212 34.4172L85.6383 21.2777C85.6223 20.9127 85.4874 20.6139 85.2335 20.3812C84.9795 20.1485 84.67 20.0401 84.3051 20.056L83.0276 20.1118ZM109.567 33.3975L109.122 31.5885C108.063 32.3659 106.894 32.9836 105.655 33.422C104.478 33.8147 103.475 34.0291 102.648 34.0652L101.006 34.137C99.3512 34.2092 98.0033 33.7683 96.9621 32.8142C95.9209 31.8601 95.3642 30.5558 95.2919 28.9012L94.9254 20.5065C94.8457 18.6816 95.2946 17.2359 96.2719 16.1693C97.2725 15.0773 98.6853 14.4915 100.51 14.4118L107.992 14.0851L107.722 7.88036L114.109 7.60148L115.224 33.1505L109.567 33.3975ZM104.242 28.6933C105.532 28.637 106.981 28.3299 108.59 27.7721L108.208 19.0124L102.733 19.2515C101.759 19.2939 101.294 19.8018 101.337 20.7751L101.631 27.5274C101.647 27.8924 101.782 28.1912 102.036 28.4239C102.29 28.6566 102.6 28.765 102.965 28.749L104.242 28.6933ZM125.691 17.5177C124.718 17.5602 124.252 18.0681 124.295 19.0414L124.382 21.0488L130.587 20.7779L130.499 18.7705C130.457 17.7972 129.949 17.3318 128.976 17.3743L125.691 17.5177ZM136.738 31.8455C132.064 32.5372 127.816 32.9664 123.996 33.1332C122.341 33.2054 120.993 32.7645 119.952 31.8104C118.911 30.8564 118.354 29.552 118.282 27.8974L117.9 19.1378C117.82 17.3129 118.269 15.8671 119.246 14.8005C120.247 13.7085 121.659 13.1227 123.484 13.043L130.784 12.7243C132.609 12.6446 134.055 13.1056 135.123 14.1073C136.214 15.0836 136.799 16.4842 136.879 18.3091L137.174 25.0614L124.582 25.6111L124.645 27.0711C124.661 27.4361 124.796 27.7349 125.05 27.9676C125.304 28.2003 125.614 28.3087 125.978 28.2928C128.387 28.1876 131.908 27.851 136.539 27.2831L136.738 31.8455Z" fill="white"/>
</g>
</g>
</g>
</g>
<defs>
<clipPath id="clip0_5_12257">
<rect width="137" height="39.9979" fill="white" transform="translate(0 5.97587) rotate(-2.5)"/>
</clipPath>
<clipPath id="clip1_5_12257">
<rect width="137" height="39.9979" fill="white" transform="translate(0 5.97587) rotate(-2.5)"/>
</clipPath>
<clipPath id="clip2_5_12257">
<rect width="137" height="39.9979" fill="white" transform="translate(0 5.97587) rotate(-2.5)"/>
</clipPath>
<clipPath id="clip3_5_12257">
<rect width="137" height="33.4889" fill="white" transform="translate(0.14209 9.22834) rotate(-2.5)"/>
</clipPath>
</defs>
</svg>
