<svg width="142" height="43" viewBox="0 0 142 43" fill="none" xmlns="http://www.w3.org/2000/svg">
<path d="M1.92364 33.2167C7.72065 33.2091 11.8383 33.1249 14.2767 32.9641C14.8489 32.9263 15.2861 32.7351 15.5882 32.3903C15.9136 32.019 16.0574 31.5472 16.0196 30.9749L15.7735 27.2428L8.7197 27.708C6.1072 27.8804 4.16523 27.4212 2.89381 26.3306C1.64562 25.2134 0.935365 23.3486 0.763038 20.7361L0.713802 19.9897C0.541474 17.3772 1.00145 15.4477 2.09372 14.2011C3.20923 12.928 5.07323 12.2053 7.68574 12.033L8.43217 11.9838L7.83739 8.64946L13.4356 8.28019L13.284 11.6637L19.2554 11.2699L19.6001 16.4949L9.52325 17.1596C8.03039 17.258 7.3332 18.0537 7.43167 19.5466L7.48091 20.293C7.57938 21.7858 8.37505 22.483 9.86791 22.3846L15.0556 22.0424C17.4939 21.8815 19.3231 22.3356 20.5431 23.4047C21.7632 24.4737 22.4536 26.2274 22.6144 28.6657L22.7375 30.5318C22.8984 32.9701 22.4443 34.7993 21.3752 36.0193C20.3311 37.2377 18.5898 37.9273 16.1515 38.0882L15.1065 38.1571L15.6266 41.4963L10.0284 41.8656L10.1677 38.2954C7.27171 38.3365 4.63445 38.3231 2.25599 38.2551L1.92364 33.2167ZM24.8128 10.9033L40.4878 9.86931C43.1003 9.69698 45.0307 10.1694 46.2789 11.2865C47.5503 12.3772 48.2722 14.2287 48.4445 16.8412L48.6907 20.5734C48.863 23.1859 48.3914 25.1287 47.2759 26.4018C46.1836 27.6483 44.3313 28.3577 41.7187 28.5301L32.7616 29.1209L33.254 36.5852L26.5361 37.0283L24.8128 10.9033ZM41.7266 17.2844C41.6282 15.7915 40.8325 15.0943 39.3396 15.1928L31.8753 15.6852L32.4169 23.8959L39.8812 23.4035C41.3741 23.305 42.0713 22.5094 41.9728 21.0165L41.7266 17.2844ZM60.1771 29.9364C61.4958 29.8494 62.9723 29.5021 64.6065 28.8945L64.4588 26.6552L59.0472 27.0122C58.674 27.0368 58.3711 27.1817 58.1387 27.447C57.9063 27.7122 57.8025 28.0314 57.8271 28.4046L57.8517 28.7778C57.8763 29.151 58.0212 29.4538 58.2865 29.6862C58.5517 29.9186 58.8709 30.0225 59.2441 29.9979L60.1771 29.9364ZM52.3126 15.8364C56.833 15.0385 60.9219 14.5188 64.5794 14.2776C66.2713 14.166 67.661 14.5866 68.7484 15.5394C69.8358 16.4923 70.4353 17.8146 70.5469 19.5065L71.507 34.0619L65.7222 34.4435L65.2259 32.6021C64.1074 33.4505 62.9384 34.1024 61.7189 34.5576C60.5228 34.9864 59.5017 35.2287 58.6557 35.2845L57.3495 35.3706C55.6576 35.4822 54.2679 35.0616 53.1805 34.1088C52.0931 33.156 51.4936 31.8336 51.382 30.1417L51.2712 28.4622C51.1596 26.7703 51.5802 25.3806 52.533 24.2932C53.4859 23.2058 54.8082 22.6063 56.5001 22.4947L64.1511 21.99L64.0526 20.4972C64.028 20.124 63.883 19.8212 63.6178 19.5888C63.3526 19.3564 63.0334 19.2525 62.6602 19.2771C61.0429 19.3838 59.2564 19.5766 57.3006 19.8555C55.3698 20.1328 53.8097 20.3482 52.6203 20.5016L52.3126 15.8364ZM84.8932 18.3728C83.5745 18.4598 82.098 18.8071 80.4638 19.4147L81.387 33.4102L74.8558 33.841L73.551 14.0606L79.3358 13.6791L79.8321 15.5205C80.9507 14.6721 82.108 14.0335 83.3042 13.6047C84.5236 13.1494 85.5563 12.8939 86.4023 12.8381L88.0818 12.7273C89.7737 12.6157 91.1633 13.0363 92.2507 13.9892C93.3382 14.942 93.9377 16.2644 94.0493 17.9563L95.0094 32.5117L88.4781 32.9425L87.5919 19.5067C87.5672 19.1335 87.4223 18.8307 87.1571 18.5983C86.8919 18.3659 86.5727 18.262 86.1994 18.2866L84.8932 18.3728ZM112.359 31.3672L111.863 29.5257C110.745 30.3742 109.576 31.0261 108.356 31.4813C107.16 31.9101 106.139 32.1524 105.293 32.2082L103.614 32.3189C101.922 32.4305 100.532 32.0099 99.4446 31.0571C98.3572 30.1043 97.7577 28.7819 97.6461 27.09L97.0798 18.506C96.9568 16.64 97.3832 15.15 98.3593 14.036C99.3586 12.8956 100.791 12.2638 102.657 12.1407L110.308 11.636L109.89 5.29138L116.421 4.86057L118.144 30.9856L112.359 31.3672ZM106.802 26.6735C108.121 26.5865 109.597 26.2392 111.231 25.6316L110.641 16.6744L105.042 17.0437C104.047 17.1094 103.582 17.6398 103.648 18.635L104.103 25.5395C104.128 25.9127 104.273 26.2155 104.538 26.4479C104.803 26.6803 105.123 26.7842 105.496 26.7596L106.802 26.6735ZM132.137 10.1962L139.415 9.71611L134.096 20.0002L140.906 29.4842L133.628 29.9643L129.876 24.2144L126.911 30.4074L119.633 30.8874L125.138 20.591L118.515 11.0947L125.792 10.6147L129.359 16.3769L132.137 10.1962Z" fill="white"/>
</svg>
