<svg width="1920" height="631" viewBox="0 0 1920 631" fill="none" xmlns="http://www.w3.org/2000/svg">
<mask id="mask0_5_2297" style="mask-type:alpha" maskUnits="userSpaceOnUse" x="0" y="-173" width="1920" height="804">
<path d="M0 -172.447H1920V630.22H0V-172.447Z" fill="#D9D9D9"/>
</mask>
<g mask="url(#mask0_5_2297)">
<g filter="url(#filter0_i_5_2297)">
<path d="M-17.3333 586.921C-17.3346 594.285 4.09742 621.352 29.4747 607.185C60.5054 589.865 78.1374 615.696 112.991 603.457C154.575 588.853 149.495 525.756 231.859 535.73C314.221 545.705 443.327 629.585 749.036 549.297C1054.75 469.01 1076.93 512.925 1173.17 519.853C1246.27 525.116 1277.71 526.734 1374.87 519.853C1394.19 514.63 1444.55 528.372 1589.17 526.713C1630.03 523.394 1668.8 523.652 1732.29 510.933C1795.77 498.213 1900.65 510.933 1936.81 605.948" stroke="#72A314" stroke-width="33.3333"/>
</g>
<path d="M1919.75 -867.947V555.884C1901.53 522.481 1867.92 504.885 1829.88 497.127C1791.17 489.234 1747.81 491.508 1711.2 497.718C1647.41 508.537 1625.51 504.713 1584.58 508.029C1512.31 508.856 1466.38 505.959 1436.11 503.507C1420.98 502.282 1409.73 501.165 1401.07 500.681C1392.45 500.199 1386.32 500.341 1381.41 501.655C1284.33 508.517 1242.22 502.514 1168.91 501.651C1150.64 501.436 1134.38 498.259 1115.44 494.85C1096.51 491.443 1074.93 487.812 1046.08 486.716C988.386 484.524 901.657 492.472 748.796 532.547C596.024 572.599 486.309 571.627 404.51 559.408C363.607 553.298 329.675 544.374 300.812 536.352C271.966 528.335 248.135 521.202 227.499 518.708C206.834 516.209 190.912 518.904 178.124 524.476C165.339 530.046 155.722 538.477 147.644 547.397C143.606 551.856 139.949 556.44 136.476 560.85C133 565.265 129.712 569.499 126.397 573.278C119.763 580.843 113.094 586.498 104.768 588.08L104.749 588.083L104.73 588.088C89.6874 592.191 78.2461 589.205 66.9353 586.703C55.6161 584.198 44.4447 582.186 30.157 588.474C23.5293 591.391 18.2545 593.099 14.1033 593.793C9.94642 594.489 6.97168 594.158 4.89722 593.071C2.84418 591.994 1.59273 590.133 0.963623 587.571C0.330815 584.994 0.337524 581.738 0.797607 577.954L0.801514 577.923V577.894L1.41479 -867.947H1919.75Z" fill="url(#paint0_linear_5_2297)" stroke="black"/>
</g>
<defs>
<filter id="filter0_i_5_2297" x="-34" y="479.655" width="1986.39" height="148.251" filterUnits="userSpaceOnUse" color-interpolation-filters="sRGB">
<feFlood flood-opacity="0" result="BackgroundImageFix"/>
<feBlend mode="normal" in="SourceGraphic" in2="BackgroundImageFix" result="shape"/>
<feColorMatrix in="SourceAlpha" type="matrix" values="0 0 0 0 0 0 0 0 0 0 0 0 0 0 0 0 0 0 127 0" result="hardAlpha"/>
<feOffset dy="-5.33333"/>
<feGaussianBlur stdDeviation="5.33333"/>
<feComposite in2="hardAlpha" operator="arithmetic" k2="-1" k3="1"/>
<feColorMatrix type="matrix" values="0 0 0 0 0 0 0 0 0 0 0 0 0 0 0 0 0 0 0.32 0"/>
<feBlend mode="normal" in2="shape" result="effect1_innerShadow_5_2297"/>
</filter>
<linearGradient id="paint0_linear_5_2297" x1="960.113" y1="-868.447" x2="960.113" y2="594.657" gradientUnits="userSpaceOnUse">
<stop stop-color="#C5FF9E"/>
<stop offset="0.236" stop-color="#EEFFE3"/>
<stop offset="0.51" stop-color="#F5FFEE"/>
<stop offset="1" stop-color="#D6FFBA"/>
</linearGradient>
</defs>
</svg>
