<svg version="1.2" xmlns="http://www.w3.org/2000/svg" viewBox="0 0 16 18" width="16" height="18">
	<title>bnb</title>
	<style>
		.s0 { fill: #3bb489 } 
	</style>
	<path class="s0" d="m3.1 2.8l4.9-2.8 4.9 2.8-1.8 1-3.1-1.8-3.1 1.8zm9.8 3.5l-1.8-1.1-3.1 1.8-3.1-1.8-1.8 1.1v2l3.1 1.7v3.5l1.8 1 1.8-1v-3.5l3.1-1.7zm1.3 6.2l-3.1 1.8v2l4.9-2.8v-5.5l-1.8 1zm-1.3-0.7v-2l-1.8 1v2zm-0.5-7.2l1.8 1v2l1.8-1v-2l-1.8-1c0 0-1.8 1-1.8 1zm-6.2 10.4v2.1l1.8 1 1.8-1v-2.1l-1.8 1.1c0 0-1.8-1.1-1.8-1.1zm-4.4-5.9l-1.8-1v5.5l4.9 2.7v-2l-3.1-1.7c0 0 0-3.5 0-3.5zm4.4-4.5l1.8 1 1.8-1-1.8-1c0 0-1.8 1-1.8 1zm-4.4 1l1.8-1-1.8-1-1.8 1v2l1.8 1zm1.3 6.3l1.8 1v-2l-1.8-1.1c0 0 0 2.1 0 2.1z"/>
</svg>