<svg width="173" height="174" viewBox="0 0 173 174" fill="none" xmlns="http://www.w3.org/2000/svg">
<g clip-path="url(#clip0_5_2711)">
<g clip-path="url(#clip1_5_2711)">
<g clip-path="url(#clip2_5_2711)">
<g clip-path="url(#clip3_5_2711)">
<mask id="mask0_5_2711" style="mask-type:luminance" maskUnits="userSpaceOnUse" x="-58" y="-1" width="231" height="175">
<path d="M-57.6001 -0.00317383H172.79V173.21H-57.6001V-0.00317383Z" fill="white"/>
</mask>
<g mask="url(#mask0_5_2711)">
<path d="M172.406 73.9805C172.679 81.4202 171.058 88.8869 167.992 95.6304C166.466 99.0029 164.593 102.207 162.404 105.192C161.354 106.706 160.129 108.093 158.943 109.496C157.662 110.814 156.422 112.173 155.031 113.381C152.334 115.837 149.403 118.086 146.283 119.959C143.162 121.846 139.918 123.541 136.511 124.789C133.117 126.05 129.63 127.064 126.073 127.676C122.865 128.202 119.62 128.466 116.37 128.467C117.475 127.505 118.451 126.404 119.272 125.191C120.744 122.985 121.726 120.445 121.971 117.864C120.69 120.099 119.328 122.139 117.691 123.901C116.07 125.65 114.23 127.12 112.186 128.174C110.123 129.21 107.868 129.805 105.563 129.923C103.145 130.05 100.729 129.637 98.4899 128.716C100.262 130.604 102.851 131.686 105.509 131.978C108.208 132.248 110.927 131.737 113.344 130.507L113.876 130.216C111.545 136.364 108.18 142.082 103.804 146.883C99.2265 151.935 93.5576 155.972 87.2731 158.347C81.0055 160.691 74.1107 161.261 67.4865 160.109C60.8641 158.999 54.4871 156.265 49.1579 152.073L48.9527 151.906C49.1579 151.866 49.3479 151.839 49.5396 151.795C53.014 151.005 56.2159 149.242 58.7922 146.896C60.9087 144.991 62.619 142.679 63.8205 140.097C65.9682 138.857 67.8046 137.143 69.1901 135.086C70.6632 132.88 71.6436 130.34 71.8757 127.759C70.6077 130.007 69.2321 132.047 67.6093 133.796C65.9881 135.545 64.1484 137.015 62.1035 138.071C60.0457 139.119 57.7878 139.715 55.481 139.82C53.063 139.946 50.647 139.534 48.4079 138.612C50.1804 140.499 52.7685 141.581 55.4137 141.873C57.6 142.087 59.8061 141.792 61.8596 141.012C60.3596 142.4 58.8191 143.663 57.1711 144.732C54.5544 146.452 51.7342 147.729 48.7896 148.41C45.8736 149.076 42.7944 149.116 39.7825 148.507C36.6453 147.896 33.6841 146.592 31.1152 144.69C32.7767 147.688 35.7751 149.908 39.0594 151.131C41.6627 152.088 44.5114 152.421 47.3047 152.143L47.1416 152.421C44.2794 157.222 40.6822 161.566 36.3351 164.966C32.0014 168.353 26.8504 170.684 21.385 171.128C15.933 171.614 10.3599 170.462 5.29131 168.213C0.370716 166.036 -4.05882 162.815 -8.03767 159.095C-6.5617 159.502 -5.02011 159.616 -3.50051 159.428C-1.5649 159.179 0.288315 158.498 1.84219 157.36C-0.0110207 157.75 -1.81042 157.972 -3.56777 157.888C-5.29145 157.847 -6.99411 157.5 -8.59599 156.862C-10.2286 156.177 -11.6972 155.154 -12.9049 153.86C-14.1126 152.565 -15.0319 151.029 -15.6019 149.353C-15.765 151.282 -15.0974 153.295 -13.9521 154.931C-12.7942 156.591 -11.187 157.886 -9.31911 158.665C-12.3176 160.997 -15.5195 163.064 -18.9383 164.662C-22.374 166.216 -26.04 167.285 -29.7868 167.672C-31.6535 167.853 -33.5487 167.922 -35.4154 167.727C-37.2881 167.585 -39.1367 167.217 -40.9212 166.631C-41.8209 166.369 -42.6651 165.98 -43.5379 165.632C-44.3687 165.188 -45.228 164.813 -45.9915 164.271C-47.5857 163.301 -49.0168 162.052 -50.2697 160.649C-51.5511 159.262 -52.5736 157.666 -53.4312 155.988C-54.3175 154.308 -54.9447 152.503 -55.4072 150.657C-56.3383 146.956 -56.5326 143.109 -55.979 139.334C-55.4745 135.559 -54.2082 131.923 -52.4508 128.549C-50.7052 125.178 -48.4568 122.068 -45.9494 119.224L-45.487 118.683L-45.8956 118.086C-49.14 113.223 -50.9095 107.526 -50.9911 101.681C-51.0601 95.8961 -49.3296 90.1498 -46.4001 85.1805C-45.5051 83.6606 -44.493 82.2128 -43.3731 80.8501V80.8367C-40.8656 77.7416 -37.8637 75.0823 -34.4888 72.9664C-29.6792 69.9428 -24.1868 68.0828 -18.5583 67.3328C-18.643 67.429 -18.7206 67.5313 -18.7903 67.6389C-20.6839 70.3867 -21.7871 73.6475 -22.115 76.8948C-22.4143 80.1422 -22.0192 83.4467 -20.7798 86.361C-20.7125 83.1961 -20.4115 80.1842 -19.6749 77.3253C-18.9535 74.4816 -17.8082 71.7893 -16.214 69.4568C-14.6084 67.1137 -12.5344 65.129 -10.123 63.6281C-7.61269 62.0515 -4.78183 61.0557 -1.83733 60.7137C-4.82063 59.7283 -8.24116 60.1167 -11.2261 61.3797C-13.4251 62.3259 -15.4057 63.7147 -17.0447 65.4594C-15.6153 56.4961 -12.2486 47.8354 -7.07071 40.4798C-1.79528 32.9845 5.38549 26.9338 13.4945 22.881C21.6019 18.8281 30.6931 16.8034 39.6867 17.2474C47.932 17.6913 56.0528 20.2576 63.2218 24.4786C60.6993 24.672 58.2474 25.38 56.0259 26.5033C53.1637 27.9748 50.6445 30.0702 48.872 32.6936C51.5425 31.0691 54.1996 29.7372 56.9659 28.8493C59.7188 27.9479 62.5542 27.5174 65.3474 27.6418C68.1637 27.778 70.9187 28.5118 73.4296 29.7944C75.7722 30.9581 77.8978 32.6246 79.7527 34.7755C79.056 35.0651 78.3896 35.4228 77.7632 35.8434C76.1404 36.9398 74.7648 38.3978 73.892 40.1048C75.377 38.9242 76.8905 37.9118 78.4998 37.1769C80.0924 36.4269 81.7556 35.9409 83.4591 35.8148C85.1646 35.6804 86.8791 35.9126 88.4873 36.4959C90.1354 37.0794 91.6623 38.0094 93.0262 39.3413C92.33 37.5368 90.8316 36.0384 89.1011 35.1085C87.3269 34.1554 85.3182 33.7267 83.3094 33.8724C82.1926 33.9786 81.0961 34.2407 80.052 34.6511C79.1523 31.8595 77.1629 29.3908 74.7093 27.6418C72.68 26.181 70.3533 25.1859 67.8952 24.7275C73.4279 17.6224 80.4203 11.6945 88.378 7.71225C96.5274 3.64595 105.795 1.95418 114.816 3.28607C119.341 3.84103 123.729 5.22841 127.83 7.22793C131.944 9.28207 135.645 12.0766 138.746 15.4715C144.852 22.2436 148.545 31.0691 150.262 40.1872C149.316 38.8743 148.116 37.7653 146.732 36.9264C145.056 35.9275 143.162 35.317 141.267 35.2615C142.957 36.1074 144.524 37.0374 145.873 38.1893C147.223 39.3278 148.395 40.6446 149.253 42.1446C150.137 43.6923 150.689 45.4071 150.875 47.1798C151.06 48.9526 150.874 50.7445 150.329 52.4415C151.624 51.0273 152.278 49.0008 152.347 47.0013C152.384 46.0022 152.282 45.0029 152.046 44.0315C151.796 43.027 151.411 42.0608 150.903 41.1592C154.028 42.3791 156.929 44.1096 159.488 46.2799C162.134 48.5303 164.422 51.1699 166.275 54.1081C167.724 56.374 168.925 58.7887 169.859 61.3107C170.145 62.0742 170.404 62.8242 170.636 63.5995C171.685 66.946 172.257 70.4422 172.448 73.9536L172.406 73.9805Z" fill="white" fill-opacity="0.2"/>
<path d="M172.406 73.9805C172.679 81.4186 171.058 88.8852 167.992 95.6304C166.466 99.0029 164.593 102.207 162.404 105.192C161.354 106.706 160.128 108.093 158.943 109.494C157.661 110.813 156.422 112.173 155.031 113.381C152.334 115.836 149.403 118.086 146.283 119.959C143.162 121.846 139.918 123.54 136.511 124.789C133.117 126.05 129.63 127.064 126.073 127.675C122.856 128.203 119.613 128.465 116.369 128.465C117.475 127.504 118.451 126.404 119.272 125.191C120.744 122.985 121.726 120.445 121.971 117.864C120.69 120.097 119.328 122.137 117.691 123.901C116.07 125.65 114.23 127.12 112.185 128.174C110.123 129.21 107.868 129.805 105.563 129.923C103.145 130.05 100.729 129.637 98.4899 128.716C100.262 130.604 102.85 131.686 105.509 131.978C108.208 132.248 110.927 131.737 113.344 130.507L113.876 130.214C111.545 136.362 108.18 142.08 103.804 146.883C99.2264 151.935 93.5575 155.972 87.2731 158.345C81.0055 160.691 74.1106 161.26 67.4864 160.108C60.864 158.998 54.4871 156.265 49.1578 152.073L48.9527 151.906C49.1578 151.864 49.3478 151.837 49.5396 151.795C53.0139 151.005 56.2158 149.242 58.7922 146.896C60.9088 144.991 62.6191 142.678 63.8204 140.096C65.9679 138.856 67.8043 137.142 69.19 135.086C70.6631 132.88 71.6435 130.34 71.8756 127.759C70.6076 130.007 69.232 132.047 67.6092 133.796C65.9881 135.545 64.1483 137.015 62.1034 138.069C60.0456 139.117 57.7878 139.713 55.4809 139.818C53.0629 139.945 50.6469 139.532 48.4078 138.611C50.1803 140.499 52.7684 141.581 55.4137 141.873C57.5999 142.087 59.806 141.792 61.8595 141.012C60.3595 142.4 58.8191 143.663 57.171 144.732C54.5543 146.452 51.7342 147.729 48.7895 148.408C45.8281 149.079 42.7578 149.112 39.7825 148.506C36.6452 147.894 33.684 146.59 31.1151 144.688C32.7766 147.687 35.775 149.908 39.0593 151.129C41.6626 152.088 44.5113 152.419 47.3046 152.142L47.1415 152.421C44.2793 157.222 40.6822 161.566 36.335 164.966C32.0013 168.351 26.8503 170.684 21.3849 171.128C15.9329 171.614 10.3598 170.462 5.29122 168.213C0.370628 166.034 -4.05891 162.815 -8.03776 159.095C-6.56178 159.502 -5.02019 159.616 -3.50059 159.428C-1.56498 159.178 0.288231 158.498 1.8421 157.36C-0.0111084 157.748 -1.8105 157.972 -3.56786 157.888C-5.29153 157.847 -6.99417 157.5 -8.59608 156.862C-10.2286 156.177 -11.6972 155.154 -12.9049 153.86C-14.1126 152.565 -15.0319 151.029 -15.6019 149.353C-15.7651 151.282 -15.0974 153.294 -13.9522 154.931C-12.7943 156.591 -11.1871 157.886 -9.3192 158.665C-12.3176 160.997 -15.5196 163.064 -18.9384 164.66C-22.3741 166.216 -26.0401 167.283 -29.7869 167.672C-31.6536 167.852 -33.5488 167.922 -35.4155 167.727C-37.2882 167.585 -39.1368 167.217 -40.9213 166.631C-41.821 166.367 -42.6652 165.978 -43.538 165.632C-44.3687 165.188 -45.2281 164.813 -45.9916 164.272C-47.5858 163.3 -49.0169 162.052 -50.2698 160.649C-51.5512 159.262 -52.5737 157.666 -53.4313 155.986C-54.3176 154.308 -54.9448 152.503 -55.4073 150.657C-56.3386 146.956 -56.5329 143.108 -55.9791 139.332C-55.4746 135.559 -54.2083 131.921 -52.4509 128.549C-50.7053 125.178 -48.4569 122.068 -45.9495 119.223L-45.4871 118.683L-45.8957 118.086C-49.1401 113.223 -50.9096 107.526 -50.9912 101.681C-51.0602 95.8945 -49.3297 90.1482 -46.4002 85.1805C-45.5051 83.6607 -44.493 82.2129 -43.3732 80.8502C-45.6771 89.3998 -44.1787 99.1132 -38.3315 105.747C-28.2885 117.127 -8.07812 116.434 1.21483 104.416C5.61747 115.948 20.8114 119.736 32.2586 115.6C43.7075 111.438 52.1832 101.71 60.1274 92.3562C66.0974 104.331 79.8871 111.729 92.9841 109.967C106.054 108.191 117.488 97.3928 120.172 84.2371C134.236 88.4968 150.425 84.486 161.001 74.1335C164.708 70.4843 167.691 66.1119 169.818 61.3376C170.104 62.1011 170.363 62.8512 170.594 63.6281C171.643 66.973 172.216 70.4692 172.406 73.9805Z" fill="white" fill-opacity="0.2"/>
<path d="M170.989 63.5037C169.974 60.1118 168.517 56.8685 166.655 53.8576C164.809 50.8409 162.526 48.1144 159.881 45.767C157.307 43.4917 154.349 41.6738 151.2 40.2982C149.756 30.9312 146.268 21.6484 140.054 14.3045C136.92 10.6132 133.077 7.54748 128.837 5.22844C124.573 2.98004 119.967 1.35722 115.197 0.607186C105.684 -1.00218 95.695 0.62064 86.9738 4.77271C78.6612 8.65738 71.4922 14.6946 65.7005 21.8148C57.9194 16.9985 49.0065 14.0573 39.8767 13.5998C30.2272 13.1273 20.5121 15.2916 11.9272 19.6926C3.34053 24.0767 -4.22367 30.5579 -9.75639 38.5795C-15.0705 46.2681 -18.491 55.2063 -19.976 64.4202C-25.618 65.3922 -31.1255 67.4052 -35.9754 70.5415C-41.1854 73.9207 -45.5158 78.4921 -48.6082 83.8772C-51.6605 89.2636 -53.3909 95.5077 -53.1874 101.767C-52.9687 107.763 -51.0906 113.58 -47.7623 118.572C-52.6157 124.414 -56.4314 131.437 -57.3445 139.181C-57.5873 141.156 -57.6464 143.148 -57.5211 145.134C-57.4118 147.118 -57.1259 149.089 -56.608 151.02C-56.1245 152.951 -55.4156 154.819 -54.4958 156.585C-53.5826 158.347 -52.4778 160.025 -51.1291 161.468C-49.7938 162.94 -48.282 164.245 -46.5919 165.257C-45.7746 165.812 -44.8749 166.216 -44.0021 166.673C-43.0889 167.035 -42.1892 167.45 -41.2492 167.699C-39.3825 168.297 -37.4604 168.657 -35.513 168.81C-33.5774 168.99 -31.6283 168.963 -29.6944 168.783C-25.8232 168.422 -22.0343 167.368 -18.4776 165.772C-15.0974 164.231 -11.9358 162.247 -8.97945 160.025C-4.93165 163.856 -0.434845 167.27 4.63541 169.685C9.85366 172.155 15.674 173.529 21.5195 173.154C24.4355 172.974 27.3381 172.293 30.0792 171.225C32.8035 170.142 35.3799 168.657 37.7359 166.924C42.0427 163.717 45.6684 159.65 48.6382 155.196C54.0213 159.277 60.373 161.996 66.982 163.162C74.0686 164.383 81.5369 163.87 88.3225 161.261C95.0677 158.638 101.134 154.294 105.862 148.825C108.246 146.1 110.338 143.133 112.103 139.971C112.552 139.181 112.947 138.375 113.371 137.572C113.738 136.737 114.148 135.934 114.488 135.099L116.111 130.784C119.585 130.7 123.046 130.313 126.439 129.646C130.105 128.897 133.662 127.745 137.11 126.329C140.572 124.942 143.841 123.109 146.976 121.098C150.111 119.085 153.013 116.712 155.699 114.117C157.075 112.854 158.287 111.438 159.542 110.051C160.7 108.579 161.913 107.163 162.949 105.61C165.128 102.583 166.941 99.2814 168.439 95.8524C171.424 88.9979 173.074 81.4909 172.746 73.9805C172.583 70.4423 172.025 66.9175 170.989 63.5306V63.5037ZM168.004 95.617C166.463 98.9888 164.61 102.209 162.404 105.166C161.354 106.693 160.127 108.066 158.941 109.467C157.66 110.786 156.42 112.146 155.03 113.352C152.319 115.824 149.403 118.057 146.282 119.932C143.16 121.806 139.918 123.498 136.511 124.747C133.117 126.01 129.628 127.024 126.071 127.634C122.864 128.168 119.619 128.432 116.368 128.425C117.481 127.471 118.458 126.369 119.272 125.151C120.744 122.943 121.724 120.403 121.97 117.822C120.702 120.07 119.326 122.11 117.691 123.859C116.068 125.622 114.229 127.08 112.186 128.12C110.125 129.162 107.868 129.758 105.561 129.869C103.143 129.996 100.727 129.583 98.4882 128.662C100.261 130.549 102.851 131.645 105.494 131.923C108.192 132.199 110.911 131.693 113.329 130.465L113.86 130.174C111.545 136.335 108.178 142.04 103.804 146.841C99.2248 151.893 93.5559 155.932 87.2731 158.305C81.0055 160.651 74.1089 161.219 67.4865 160.067C60.8624 158.957 54.4703 156.21 49.1562 152.032L48.9527 151.864C49.1562 151.824 49.3479 151.797 49.5514 151.755C53.0274 150.964 56.2293 149.2 58.8174 146.856C60.9313 144.926 62.6752 142.608 63.8473 140.055C66.015 138.834 67.8396 137.07 69.2035 135.044C70.6749 132.838 71.657 130.298 71.9009 127.717C70.6346 129.965 69.2573 132.005 67.6227 133.754C66.0015 135.517 64.1618 136.975 62.1169 138.015C60.0567 139.057 57.8002 139.653 55.4944 139.764C53.0764 139.891 50.6604 139.478 48.4213 138.557C50.1921 140.444 52.7819 141.54 55.4255 141.818C57.6119 142.039 59.8196 141.744 61.8714 140.957C60.4146 142.325 58.8463 143.569 57.1828 144.677C54.5678 146.397 51.746 147.673 48.803 148.354C45.887 149.02 42.8062 149.061 39.7943 148.465C36.7689 147.882 33.8394 146.632 31.1134 144.635C32.7901 147.633 35.7751 149.866 39.0594 151.075C41.6946 152.035 44.5139 152.381 47.303 152.088L47.1398 152.365C44.2642 157.166 40.6805 161.51 36.3199 164.911C31.9862 168.297 26.8218 170.628 21.3698 171.072C15.9195 171.558 10.3447 170.406 5.27613 168.158C0.368996 165.994 -4.074 162.76 -8.05285 159.055C-6.57634 159.462 -5.03415 159.575 -3.514 159.388C-1.58007 159.137 0.286598 158.458 1.81356 157.319C-0.0396461 157.694 -1.82391 157.916 -3.59641 157.848C-5.32605 157.807 -7.03406 157.453 -8.63807 156.805C-10.2222 156.138 -11.6513 155.151 -12.8355 153.906C-14.0901 152.588 -15.0477 151.017 -15.6439 149.298C-15.8071 151.227 -15.1394 153.24 -13.9942 154.876C-12.8332 156.533 -11.227 157.827 -9.3612 158.609C-12.3579 160.942 -15.5615 163.01 -18.9804 164.606C-22.4161 166.174 -26.0821 167.241 -29.8155 167.616C-31.6821 167.798 -33.5774 167.88 -35.444 167.687C-37.3148 167.531 -39.1619 167.163 -40.9498 166.591C-41.8495 166.34 -42.7072 165.938 -43.5665 165.592C-44.3973 165.146 -45.2566 164.773 -46.0184 164.23C-47.6098 163.238 -49.0472 162.018 -50.2848 160.609C-51.5512 159.221 -52.5887 157.624 -53.4464 155.946C-54.3192 154.266 -54.9599 152.476 -55.4224 150.631C-56.3759 146.952 -56.539 143.052 -55.9941 139.292C-55.4896 135.517 -54.2099 131.881 -52.4643 128.509C-50.7204 125.136 -48.472 122.028 -45.9646 119.182L-45.487 118.654L-45.8957 118.044C-49.1422 113.183 -50.9124 107.486 -50.9928 101.641C-51.0601 95.839 -49.3313 90.1078 -46.4019 85.1385C-43.4515 80.1806 -39.3699 75.9911 -34.4905 72.9127C-29.6809 69.8856 -24.1734 68.0408 -18.56 67.279C-18.6272 67.39 -18.7097 67.4859 -18.7904 67.5834C-20.6856 70.3447 -21.7753 73.5921 -22.1033 76.8411C-22.4161 80.0867 -22.0074 83.3912 -20.7798 86.3055C-20.7125 83.1406 -20.4132 80.1287 -19.6632 77.2699C-18.94 74.4245 -17.7965 71.7473 -16.2023 69.4013C-14.5961 67.0581 -12.5216 65.0734 -10.1095 63.5726C-7.59736 61.9976 -4.7679 60.9978 -1.82391 60.6448C-4.80889 59.6728 -8.22943 60.0478 -11.2144 61.3242C-13.4191 62.274 -15.4044 63.668 -17.0465 65.4191C-15.617 56.4541 -12.2503 47.7934 -7.07075 40.4378C-1.81046 32.9442 5.37031 26.8935 13.4794 22.8407C21.6019 18.8013 30.6779 16.7614 39.6715 17.2205C47.9168 17.6645 56.0393 20.2307 63.2066 24.4517C60.6976 24.6531 58.2526 25.3456 56.0107 26.4899C53.1502 27.9614 50.6142 30.0567 48.8568 32.6785C51.5274 31.0557 54.1861 29.7103 56.9524 28.8358C59.7053 27.9479 62.539 27.504 65.3322 27.6284C68.0986 27.7528 70.865 28.4894 73.4144 29.781C75.7587 30.9447 77.8843 32.6112 79.7375 34.7755C79.0382 35.0686 78.3677 35.4261 77.7346 35.8434C76.1118 36.9399 74.7496 38.4113 73.8769 40.1182C75.3635 38.9394 76.8753 37.9253 78.4846 37.1753C80.0789 36.4269 81.7538 35.9409 83.4456 35.8165C85.1509 35.6825 86.8652 35.9141 88.4738 36.4959C90.1777 37.0979 91.7271 38.0696 93.011 39.3413C92.3165 37.5369 90.8299 36.0519 89.086 35.0951C87.3132 34.139 85.3021 33.715 83.2943 33.8742C82.1762 33.9716 81.0786 34.2334 80.0368 34.6511C79.1237 31.8477 77.1343 29.3908 74.6958 27.6284C72.6601 26.1788 70.336 25.1848 67.8817 24.7141C73.4144 17.6224 80.4051 11.681 88.3645 7.71228C96.4988 3.64766 105.78 1.93908 114.802 3.27265C119.312 3.8276 123.713 5.21499 127.817 7.21282C131.931 9.27232 135.631 12.0713 138.732 15.4699C144.85 22.2437 148.53 31.0843 150.233 40.1872C149.292 38.8709 148.09 37.7612 146.704 36.9264C145.014 35.9275 143.133 35.317 141.24 35.2615C142.928 36.1074 144.482 37.0374 145.846 38.1893C147.208 39.3278 148.367 40.6446 149.224 42.1312C150.111 43.6779 150.665 45.3927 150.851 47.1658C151.036 48.939 150.85 50.7313 150.302 52.4281C151.596 50.9987 152.25 48.9874 152.332 46.9744C152.397 44.9296 151.892 42.907 150.874 41.1323C153.967 42.3532 156.898 44.0601 159.446 46.253C162.086 48.5127 164.377 51.15 166.246 54.0795C168.14 57.009 169.571 60.2278 170.607 63.5726C171.656 66.9175 172.228 70.4154 172.42 73.9116C172.692 81.3496 171.069 88.8163 168.017 95.5615L168.004 95.617Z" fill="#141414" fill-opacity="0.2"/>
</g>
</g>
</g>
</g>
</g>
<defs>
<clipPath id="clip0_5_2711">
<rect width="230.39" height="173.201" fill="white" transform="translate(-57.6001)"/>
</clipPath>
<clipPath id="clip1_5_2711">
<rect width="230.39" height="173.21" fill="white" transform="translate(-57.6001)"/>
</clipPath>
<clipPath id="clip2_5_2711">
<rect width="230.39" height="173.21" fill="white" transform="translate(-57.6001)"/>
</clipPath>
<clipPath id="clip3_5_2711">
<rect width="230.39" height="173.213" fill="white" transform="translate(-57.6001 -0.00317383)"/>
</clipPath>
</defs>
</svg>
