<svg width="306" height="344" viewBox="0 0 306 344" fill="none" xmlns="http://www.w3.org/2000/svg">
<g clip-path="url(#clip0_488_7)">
<path d="M59.2875 53.5111L153 0L246.712 53.5111L212.288 72.6222L153 38.2222L93.7125 72.6222L59.2875 53.5111ZM246.712 120.4L212.288 99.3778L153 133.778L93.7125 99.3778L59.2875 120.4V158.622L118.575 191.111V258L153 277.111L187.425 258V191.111L246.712 158.622V120.4ZM271.575 238.889L212.288 273.289V311.511L306 258V152.889L271.575 172V238.889ZM246.712 225.511V187.289L212.288 206.4V244.622L246.712 225.511ZM237.15 87.9111L271.575 107.022V145.244L306 126.133V87.9111L271.575 68.8L237.15 87.9111ZM118.575 286.667V326.8L153 345.911L187.425 326.8V286.667L153 307.689L118.575 286.667ZM34.425 173.911L0 154.8V259.911L93.7125 311.511V273.289L34.425 240.8V173.911ZM118.575 87.9111L153 107.022L187.425 87.9111L153 68.8L118.575 87.9111ZM34.425 107.022L68.85 87.9111L34.425 68.8L0 87.9111V126.133L34.425 145.244V107.022ZM59.2875 227.422L93.7125 246.533V208.311L59.2875 187.289V227.422Z" fill="black"/>
</g>
<defs>
<clipPath id="clip0_488_7">
<rect width="306" height="344" fill="white"/>
</clipPath>
</defs>
</svg>
