<svg width="75" height="75" viewBox="0 0 75 75" fill="none" xmlns="http://www.w3.org/2000/svg">
<g clip-path="url(#clip0_5_8123)">
<g clip-path="url(#clip1_5_8123)">
<path d="M26.452 18.7348C25.9056 24.3187 20.9773 28.4061 15.4452 27.8651C14.1272 27.735 12.8481 27.3451 11.6818 26.7178C10.5155 26.0904 9.48501 25.2382 8.65 24.2103C6.95435 22.1225 6.15101 19.45 6.4145 16.7734C6.96105 11.188 11.8894 7.09917 17.4244 7.64108C18.7401 7.7698 20.0171 8.15842 21.1833 8.7868C22.3506 9.4152 23.3822 10.2681 24.2188 11.2965C25.0583 12.3289 25.687 13.5159 26.0693 14.7905C26.4524 16.0661 26.5828 17.4068 26.452 18.7348Z" fill="white"/>
<path opacity="0.3" d="M26.4542 18.735C25.9078 24.3189 20.9795 28.4063 15.4467 27.8652C13.0204 27.6293 10.7644 26.5136 9.10418 24.7287C11.6727 19.53 16.1016 13.7346 23.6273 10.6305C24.6599 11.6914 25.4475 12.9657 25.9347 14.3638C26.4233 15.7658 26.6006 17.2575 26.4542 18.735Z" fill="#AFAFAF"/>
<path opacity="0.6" d="M16.6382 9.41868C18.1455 9.56471 19.5998 10.0531 20.8932 10.8461C22.1884 11.6413 23.2871 12.7191 24.107 13.9988C24.9302 15.2831 25.4548 16.7358 25.642 18.2497C25.8299 19.7662 25.6763 21.3056 25.1924 22.755C26.0206 21.2807 26.4709 19.6243 26.5031 17.9336C26.5353 16.2429 26.1484 14.5706 25.377 13.0658C24.6083 11.5675 23.4772 10.285 22.0866 9.33511C20.7005 8.38873 19.0984 7.80672 17.428 7.64277C12.6668 7.17703 8.35767 10.139 6.89528 14.5319C8.80032 11.1435 12.5543 9.01861 16.6383 9.41795L16.6382 9.41868Z" fill="white"/>
<path d="M15.3748 28.5797C9.45971 28.0012 5.12285 22.6731 5.70771 16.7034C6.29186 10.7336 11.579 6.34775 17.494 6.92705C23.4083 7.50559 27.7452 12.8337 27.161 18.8027C26.5769 24.7724 21.2898 29.1583 15.3748 28.5797ZM17.3539 8.35577C12.2199 7.853 7.63007 11.6597 7.1228 16.8413C6.61622 22.0236 10.38 26.6482 15.5141 27.151C20.6489 27.6531 25.2394 23.8464 25.746 18.6641C26.2526 13.4817 22.4888 8.85786 17.3539 8.35577Z" fill="#5B5BAC"/>
<path d="M51.1493 21.1518C50.6028 26.7357 54.645 31.7008 60.1778 32.2433C61.4959 32.3712 62.8262 32.2365 64.0919 31.8472C65.3576 31.4579 66.5336 30.8216 67.552 29.9751C69.6203 28.2559 70.9267 25.7901 71.1876 23.1132C71.7341 17.5271 67.692 12.5606 62.157 12.0187C60.8404 11.8899 59.5113 12.024 58.2469 12.4132C56.9797 12.8035 55.8022 13.4405 54.7822 14.2876C53.7585 15.1375 52.9116 16.1802 52.2896 17.3564C51.666 18.5352 51.2786 19.8245 51.1493 21.1518Z" fill="white"/>
<path opacity="0.3" d="M51.1492 21.1518C50.602 26.7357 54.6442 31.7008 60.177 32.2433C62.6031 32.4822 65.0328 31.8249 67.0077 30.3955C65.4951 24.7976 62.2751 18.2535 55.4933 13.7488C54.2746 14.5895 53.2549 15.687 52.5061 16.9642C51.755 18.2449 51.2919 19.6739 51.1492 21.1518Z" fill="#AFAFAF"/>
<path opacity="0.6" d="M62.5838 13.915C61.0761 13.7677 59.5547 13.9653 58.1346 14.4929C56.7104 15.0223 55.4243 15.8667 54.3724 16.9631C53.3164 18.063 52.5204 19.3858 52.0431 20.834C51.5648 22.285 51.4169 23.8246 51.6101 25.3402C51.0836 23.7333 50.9631 22.0211 51.2593 20.3564C51.5555 18.6916 52.2592 17.1261 53.3076 15.7994C54.3524 14.4784 55.7109 13.4395 57.2595 12.7773C58.8025 12.1181 60.4865 11.858 62.1565 12.021C66.9192 12.4868 70.5728 16.228 71.1546 20.8213C69.9394 17.1271 66.6707 14.3152 62.5838 13.915Z" fill="white"/>
<path d="M60.1096 32.9576C54.1952 32.3791 49.8584 27.051 50.4425 21.0812C51.0267 15.1115 56.3145 10.7264 62.2288 11.3049C68.1431 11.8842 72.4807 17.2116 71.8958 23.1813C71.3124 29.1503 66.0246 33.5369 60.1096 32.9576ZM62.0894 12.7344C56.9546 12.2316 52.3656 16.0383 51.8583 21.2199C51.351 26.4022 55.1155 31.0268 60.2496 31.5289C65.3837 32.0317 69.9735 28.225 70.4808 23.0427C70.9873 17.8603 67.2235 13.2364 62.0894 12.7344Z" fill="#5B5BAC"/>
<path d="M66.1445 41.1698C66.1445 41.1698 68.2255 13.4974 39.7048 10.7052C11.1848 7.91458 7.86009 35.4654 7.86009 35.4654C-6.51305 60.3829 34.5106 63.7786 34.5106 63.7786C34.5106 63.7786 75.4134 68.4021 66.1445 41.1698Z" fill="white"/>
<path d="M34.7037 63.8964C34.5742 63.8829 34.5037 63.8765 34.4972 63.8762C34.4439 63.8707 28.7629 63.386 22.4528 61.5406C16.6189 59.8349 9.03592 56.5842 6.04326 50.7881C3.81043 46.4611 4.39145 41.2947 7.76695 35.4333C7.82198 35.018 8.76404 28.2955 13.007 21.9848C15.5683 18.1743 18.8136 15.2565 22.6536 13.3108C27.4501 10.8811 33.1891 9.97212 39.7124 10.6108C46.2356 11.2488 51.6904 13.2535 55.9247 16.5675C59.3133 19.221 61.9306 22.712 63.7057 26.9471C66.6439 33.9606 66.2655 40.7374 66.2385 41.1562C68.4145 47.5618 67.9819 52.7406 64.9525 56.552C60.8929 61.6589 52.8238 63.3775 46.7701 63.9189C40.924 64.4451 35.7812 64.0019 34.7037 63.8964ZM34.5159 63.6862C34.5756 63.692 40.2259 64.3162 46.7562 63.7309C52.7729 63.1913 60.7877 61.4881 64.8043 56.4333C67.7942 52.6728 68.2148 47.5484 66.0533 41.2007L66.048 41.1621C66.0557 41.0931 66.5321 34.1779 63.5274 27.0143C60.7587 20.4113 54.3776 12.2371 39.6937 10.8001C25.0105 9.36311 17.1632 16.1442 13.1669 22.0852C8.83208 28.531 7.9606 35.4073 7.95071 35.4763L7.93878 35.5133C4.58829 41.3217 4.00721 46.4303 6.21032 50.6994C9.17114 56.4368 16.7033 59.6618 22.5008 61.3571C28.7953 63.1967 34.459 63.6813 34.5159 63.6862Z" fill="#000072"/>
<path d="M25.2055 41.6508C25.2055 41.6508 27.2647 36.663 30.6663 33.3877C32.5082 31.6162 33.0629 28.8206 31.8764 26.5525C31.1225 25.1104 29.6743 23.8738 26.9695 23.6091C19.7617 22.9037 13.7704 31.5748 13.0739 37.2093C12.3767 42.843 15.4327 45.8209 17.6714 46.2429C19.9101 46.6633 23.5343 46.3351 25.2055 41.6508ZM47.9292 43.8752C47.9292 43.8752 46.8761 38.5826 44.1741 34.7093C42.7108 32.6149 42.7085 29.7646 44.3118 27.7696C45.3314 26.5011 46.9926 25.5691 49.6967 25.8337C56.9045 26.5391 61.1007 36.2076 60.6914 41.8698C60.2828 47.5321 56.7076 49.8617 54.4298 49.84C52.152 49.819 48.6606 48.7941 47.9292 43.8752Z" fill="#5B5BAC"/>
<path opacity="0.3" d="M34.5106 63.7814C34.5106 63.7814 -5.54271 60.465 7.37023 36.3469C-0.234073 56.6443 34.9161 59.6327 34.9161 59.6327C34.9161 59.6327 70.592 63.5218 66.2159 41.3851C75.1964 68.3785 34.5106 63.7814 34.5106 63.7814Z" fill="#000072"/>
<path opacity="0.3" d="M43.6656 42.4177C43.6294 42.3602 43.5776 42.3143 43.5163 42.2851C43.455 42.256 43.3866 42.2449 43.3192 42.2532C43.2517 42.2618 43.1881 42.2895 43.1359 42.3331C43.0836 42.3767 43.0449 42.4343 43.0244 42.4992C42.7184 43.4338 41.9713 44.9572 40.3869 44.777C38.12 44.5164 38.8384 41.0816 38.8384 41.0816L34.6566 40.6724C34.6566 40.6724 34.6946 44.1826 32.4205 43.9969C30.8315 43.8671 30.3946 42.2272 30.2753 41.2508C30.2669 41.1834 30.2396 41.1197 30.1966 41.067C30.1537 41.0144 30.0967 40.975 30.0324 40.9532C29.9681 40.9315 29.8989 40.9288 29.8331 40.9453C29.7672 40.9619 29.7076 40.997 29.6611 41.0464C29.0458 41.6947 28.201 42.9096 28.5945 44.4303C29.188 46.7287 31.9382 47.4548 31.9382 47.4548L36.3295 45.1506L40.1897 48.2612C40.1897 48.2612 43.0277 48.0818 44.0573 45.9423C44.7361 44.5276 44.1429 43.1722 43.6656 42.4177Z" fill="#000072"/>
<path d="M41.2659 38.0798C39.8244 37.0474 37.1467 36.8347 37.1467 36.8347C37.1467 36.8347 34.4795 36.5227 32.8641 37.2573C32.3271 37.5016 32.0596 38.1213 32.219 38.6925C32.5567 39.89 33.5793 41.9462 36.6175 42.243C39.6556 42.5406 41.0564 40.7223 41.6205 39.613C41.8901 39.0837 41.7459 38.4251 41.2659 38.0798Z" fill="#5B5BAC"/>
<path d="M37.516 41.3671C37.5174 41.4699 37.5151 41.532 37.5127 41.6114L37.5004 41.8343C37.4903 41.9803 37.476 42.126 37.4573 42.2711C37.4177 42.5621 37.361 42.8508 37.2863 43.135C37.1333 43.7061 36.9035 44.2784 36.5494 44.805C36.3675 45.0724 36.1563 45.3187 35.9197 45.5393C35.6768 45.7633 35.4043 45.9526 35.1097 46.1022C34.8192 46.2479 34.5119 46.3575 34.1948 46.4284C33.8907 46.4928 33.5805 46.5237 33.2696 46.5206C32.6836 46.5111 32.1016 46.4218 31.5397 46.2552C31.2496 46.1695 30.9692 46.0537 30.7032 45.9098C30.423 45.7629 30.1647 45.5774 29.936 45.3588C29.4682 44.9143 29.1347 44.2948 29.0696 43.6733C29.036 43.371 29.0541 43.0652 29.1233 42.769C29.1877 42.4799 29.3072 42.2058 29.4752 41.9618C29.4958 41.9327 29.5246 41.9104 29.5579 41.8979C29.5913 41.8853 29.6276 41.8831 29.6623 41.8914C29.6973 41.8998 29.7288 41.9187 29.7527 41.9456C29.7766 41.9725 29.7917 42.0061 29.796 42.0418L29.7984 42.0651C29.8624 42.5759 29.9447 43.0529 30.0885 43.4534C30.2324 43.8538 30.4337 44.1877 30.7481 44.4287C30.9084 44.5537 31.0857 44.6549 31.2736 44.7299C31.4735 44.8127 31.6801 44.8764 31.8921 44.9207C32.3314 45.016 32.7824 45.0518 33.232 45.0282C33.438 45.0144 33.6429 44.981 33.8435 44.9301C34.41 44.773 34.8943 44.4038 35.1957 43.8991C35.42 43.5294 35.5871 43.128 35.6915 42.7084C35.7496 42.4879 35.7953 42.2644 35.8284 42.0389C35.8448 41.9254 35.8612 41.8119 35.8718 41.6982L35.8887 41.5305L35.8959 41.3841L35.8991 41.3336C35.9095 41.1208 36.0017 40.9199 36.1571 40.7749C36.2723 40.6661 36.4168 40.5935 36.5729 40.5661C36.7289 40.5387 36.8896 40.5577 37.0349 40.6208C37.1803 40.6839 37.3039 40.7883 37.3904 40.921C37.4769 41.0537 37.5226 41.209 37.5217 41.3674L37.516 41.3671Z" fill="white"/>
<path d="M37.4988 41.5406L37.4787 41.6857L37.4618 41.8534C37.4505 41.9671 37.4449 42.0818 37.4378 42.1957C37.4274 42.4237 37.4293 42.6516 37.4434 42.8794C37.4643 43.3115 37.5504 43.738 37.6991 44.1431C37.8968 44.6969 38.3003 45.1534 38.8258 45.4175C39.0123 45.5062 39.207 45.5786 39.4068 45.6325C39.8426 45.7428 40.2921 45.7944 40.7416 45.786C40.9576 45.784 41.173 45.7619 41.3849 45.7199C41.5835 45.6818 41.7754 45.6167 41.9556 45.5257C42.3106 45.35 42.5727 45.062 42.7917 44.6966C43.0113 44.3313 43.1839 43.879 43.3459 43.3908L43.3527 43.3695C43.3641 43.3354 43.3855 43.3056 43.414 43.2838C43.4425 43.262 43.4769 43.2492 43.5127 43.2471C43.5484 43.2451 43.5839 43.254 43.6144 43.2727C43.6449 43.2914 43.6689 43.3189 43.6833 43.3517C43.8002 43.6235 43.864 43.9159 43.8712 44.2128C43.8817 44.5163 43.8408 44.8195 43.7493 45.1094C43.5646 45.7064 43.1171 46.2501 42.5723 46.5944C42.305 46.7651 42.0151 46.897 41.7127 46.9863C41.424 47.0762 41.1266 47.1356 40.8254 47.1635C40.2418 47.2182 39.6535 47.193 39.0767 47.0888C38.7708 47.0315 38.4721 46.941 38.1859 46.8189C37.889 46.6877 37.6094 46.5205 37.3532 46.3211C37.0932 46.1174 36.8625 45.8788 36.6676 45.6121C36.4785 45.3497 36.3191 45.0671 36.1924 44.7695C35.9462 44.1839 35.8327 43.5781 35.7935 42.9882C35.7758 42.6951 35.7755 42.4012 35.7925 42.108C35.8008 41.9616 35.8151 41.8156 35.8356 41.6704L35.8666 41.4506C35.8791 41.3717 35.8894 41.31 35.9102 41.209C35.9529 41.0014 36.074 40.8171 36.2484 40.6976C36.4224 40.5776 36.6366 40.5307 36.8449 40.567C37.0531 40.6033 37.2388 40.7199 37.362 40.8917C37.486 41.0633 37.5384 41.2771 37.5086 41.4883L37.4995 41.5406L37.4988 41.5406Z" fill="white"/>
<path d="M36.5999 42.4469C36.5783 42.6672 36.5499 42.8784 36.5177 43.0779C36.5231 42.866 36.5364 42.6543 36.5574 42.4434L36.5999 42.4469Z" fill="#222A66"/>
<path d="M36.4221 43.0746C36.4281 42.8623 36.4415 42.6467 36.4621 42.4329L36.4718 42.3394L36.7021 42.3615L36.6924 42.4565C36.6731 42.658 36.6456 42.8657 36.6092 43.0925L36.4221 43.0746Z" fill="#000072"/>
<path d="M35.5641 52.992L35.544 52.9896C33.1486 52.7553 31.9288 51.5385 31.329 50.1531C30.4104 48.0268 30.949 45.5009 30.949 45.5009C30.949 45.5009 35.7136 47.6295 36.5487 42.725C36.4153 47.6985 41.5008 46.5334 41.5008 46.5334C41.5008 46.5334 41.6153 53.5678 35.5641 52.992Z" fill="white"/>
<path d="M36.0505 48.0414C32.8929 47.7322 31.3317 50.1531 31.3317 50.1531C31.9322 51.5385 33.1513 52.7553 35.5467 52.9896L35.5877 52.9937C37.9831 53.2281 39.4156 52.2712 40.2734 51.028C40.2719 51.0279 39.2081 48.3506 36.0512 48.0415L36.0505 48.0414Z" fill="white"/>
<path d="M35.4755 53.7035C33.6149 53.5214 32.2012 52.7789 31.2731 51.4961C29.4936 49.0341 30.2248 45.5001 30.2567 45.3498C30.2792 45.2459 30.3242 45.1482 30.3888 45.0637C30.4533 44.9792 30.5356 44.91 30.63 44.8611C30.724 44.8128 30.8276 44.7862 30.9333 44.7833C31.0389 44.7803 31.1439 44.801 31.2405 44.8439C31.2589 44.852 33.2143 45.6984 34.5549 44.9048C35.2125 44.5153 35.6436 43.7596 35.8401 42.6548C35.8463 42.4685 35.8586 42.2774 35.8783 42.0817C35.9014 41.8897 35.9974 41.7151 36.1465 41.5944C36.2951 41.4739 36.4852 41.4169 36.6755 41.4355C36.8658 41.4542 37.0412 41.547 37.1636 41.694C37.2866 41.841 37.3474 42.0313 37.3329 42.2237C37.3139 42.4202 37.2894 42.61 37.2595 42.7936C37.2379 43.9157 37.5143 44.7407 38.0845 45.251C39.2451 46.2891 41.3263 45.8362 41.3481 45.8329C41.5038 45.7976 41.6668 45.816 41.8106 45.8852C41.9544 45.9543 42.0706 46.0701 42.1402 46.2137C42.1872 46.3093 42.2124 46.414 42.2142 46.5204C42.2168 46.6738 42.2486 50.2828 40.0247 52.3523C38.8669 53.4311 37.3361 53.8856 35.4755 53.7035ZM31.54 46.454C31.4515 47.4939 31.4665 49.3302 32.4266 50.6536C33.1055 51.5887 34.1781 52.1343 35.6148 52.2748C37.0522 52.4152 38.2101 52.0885 39.0563 51.3033C40.2556 50.1904 40.6263 48.3925 40.7407 47.3538C39.778 47.4152 38.2553 47.319 37.1458 46.3311C36.796 46.0189 36.511 45.6411 36.307 45.219C36.0248 45.5936 35.6718 45.909 35.2679 46.1474C33.9857 46.9005 32.4731 46.7021 31.54 46.454ZM36.9957 38.3388C38.3395 38.4696 39.446 38.3979 39.4676 38.1769C39.4893 37.9559 38.4177 37.6699 37.0746 37.5391C35.7308 37.4076 34.6244 37.4801 34.6027 37.7003C34.5811 37.9213 35.6526 38.208 36.9957 38.3388Z" fill="#5B5BAC"/>
<path d="M36.9872 38.434C36.7281 38.4083 34.4615 38.173 34.5081 37.6937C34.5547 37.2143 36.8248 37.4208 37.0833 37.4457C37.3416 37.4714 39.609 37.7066 39.5615 38.1881C39.5142 38.6689 37.2463 38.4589 36.9872 38.434ZM34.701 37.7125C34.7849 37.8301 35.5325 38.1003 37.0051 38.2446C38.4778 38.3883 39.2634 38.2669 39.3686 38.1693C39.2848 38.0509 38.5379 37.7794 37.0646 37.635C35.592 37.4906 34.8086 37.6114 34.7018 37.7104L34.701 37.7125Z" fill="white"/>
<path d="M34.641 64.516L34.4424 64.4961C34.1615 64.4723 28.5251 63.9637 22.2848 62.1391C13.6309 59.6084 7.98388 55.8868 5.50134 51.0761C3.17796 46.5747 3.74098 41.244 7.1767 35.2308C7.32703 34.1533 8.36432 27.7906 12.5012 21.6374C15.1219 17.7373 18.4457 14.751 22.3786 12.7549C27.2819 10.2711 33.1348 9.3409 39.7768 9.99119C46.4173 10.6414 51.9792 12.6882 56.3068 16.0755C59.7798 18.7939 62.4609 22.3704 64.2775 26.7038C67.1418 33.543 66.9258 39.9856 66.8654 41.0718C69.0662 47.637 68.5873 52.9762 65.4362 56.9415C62.0671 61.1789 55.8056 63.7358 46.8259 64.5398C40.9276 65.0686 35.7307 64.6228 34.641 64.516ZM34.5824 63.0667L34.5933 63.0672C34.8119 63.0924 56.8489 65.456 64.3288 56.0419C67.1763 52.4602 67.5611 47.5345 65.4744 41.403C65.4431 41.3108 65.4306 41.2133 65.4378 41.1163C65.4447 41.0486 65.907 34.2434 62.947 27.2166C59.0088 17.863 51.1659 12.5479 39.6375 11.4192C28.109 10.2913 19.3836 13.9847 13.7058 22.3971C9.44061 28.7191 8.57529 35.4843 8.56771 35.5505C8.55573 35.6475 8.52441 35.7407 8.47617 35.8252C5.24024 41.4352 4.66324 46.3422 6.7613 50.408C12.2753 61.0941 34.3512 63.0489 34.5709 63.0654L34.5824 63.0667Z" fill="#5B5BAC"/>
<path d="M26.8228 33.8686C27.3197 31.3978 26.275 29.099 24.4869 28.7353C22.6996 28.3723 20.847 30.081 20.3493 32.5525C19.8517 35.0232 20.8972 37.3214 22.6845 37.6858C24.4726 38.0481 26.3244 36.34 26.8228 33.8686Z" fill="#000072"/>
<path d="M25.1113 31.5525C25.268 30.7726 24.8402 30.0277 24.1556 29.8887C23.4703 29.7496 22.7875 30.268 22.6308 31.0479C22.474 31.8278 22.9019 32.5727 23.5865 32.7117C24.2718 32.8508 24.9539 32.3317 25.1113 31.5525Z" fill="white"/>
<path opacity="0.3" d="M22.3577 34.2354C22.1789 34.1989 21.9933 34.2167 21.8247 34.2868C21.6561 34.3568 21.5124 34.4757 21.4121 34.6282C21.3102 34.7807 21.2554 34.9599 21.2545 35.1433C21.2537 35.3268 21.3068 35.5064 21.4072 35.6599C21.5074 35.8121 21.6505 35.9312 21.8184 36.002C21.9863 36.0727 22.1714 36.0921 22.3504 36.0576C22.5293 36.0222 22.6934 35.934 22.8227 35.8044C22.9407 35.6858 23.0246 35.5375 23.0656 35.3753C23.1065 35.213 23.103 35.0427 23.0555 34.8823C23.0079 34.7219 22.918 34.5772 22.7952 34.4635C22.6724 34.3498 22.5214 34.2706 22.3577 34.2354Z" fill="white"/>
<path d="M50.8352 40.4375C52.6596 40.4276 54.1312 38.3755 54.1214 35.8546C54.1124 33.3338 52.6266 31.2984 50.8022 31.3082C48.9785 31.3181 47.507 33.3702 47.516 35.891C47.5251 38.4118 49.0115 40.4481 50.8352 40.4375Z" fill="#000072"/>
<path d="M50.9157 35.3825C51.6145 35.3784 52.1792 34.7305 52.1762 33.9355C52.1731 33.1399 51.6042 32.4987 50.9054 32.5022C50.2066 32.5063 49.6419 33.1542 49.645 33.9491C49.648 34.7448 50.2169 35.3859 50.9157 35.3825Z" fill="white"/>
<path opacity="0.3" d="M51.8226 37.1199C52.0051 37.1187 52.1837 37.1722 52.3355 37.2734C52.4873 37.3747 52.6053 37.5191 52.6742 37.6881C52.7445 37.8575 52.7635 38.0439 52.7287 38.224C52.6939 38.4041 52.6069 38.5701 52.4786 38.7011C52.3509 38.8309 52.1875 38.9199 52.0092 38.9568C51.8309 38.9936 51.6456 38.9767 51.4769 38.9082C51.3081 38.8386 51.1638 38.7202 51.0625 38.5682C50.9864 38.4544 50.9363 38.3252 50.9158 38.1898C50.8952 38.0544 50.9047 37.9161 50.9436 37.7848C50.9824 37.6535 51.0497 37.5324 51.1406 37.43C51.2316 37.3276 51.3439 37.2465 51.4697 37.1924C51.582 37.1451 51.7018 37.1205 51.8226 37.1199Z" fill="white"/>
</g>
</g>
<defs>
<clipPath id="clip0_5_8123">
<rect width="70.7846" height="70.7946" fill="white" transform="translate(3.4583) rotate(2.8)"/>
</clipPath>
<clipPath id="clip1_5_8123">
<rect width="70.7846" height="70.7946" fill="white" transform="translate(3.4583) rotate(2.8)"/>
</clipPath>
</defs>
</svg>
