<svg width="261" height="310" viewBox="0 0 261 310" fill="none" xmlns="http://www.w3.org/2000/svg">
<g clip-path="url(#clip0_5_4153)">
<g clip-path="url(#clip1_5_4153)">
<g clip-path="url(#clip2_5_4153)">
<g clip-path="url(#clip3_5_4153)">
<mask id="mask0_5_4153" style="mask-type:luminance" maskUnits="userSpaceOnUse" x="0" y="0" width="262" height="310">
<path d="M0.685791 0.0162354H261.065V309.216H0.685791V0.0162354Z" fill="white"/>
</mask>
<g mask="url(#mask0_5_4153)">
<path d="M195.254 225.218C197.786 213.81 213.389 205.452 220.345 219.838C226.376 232.313 212.883 243.65 200.593 243.92C196.154 244.017 192.13 239.274 195.254 225.218Z" fill="#5F5F82"/>
<path opacity="0.2" d="M200.589 243.918C212.877 243.65 226.371 232.313 220.343 219.84C217.805 214.591 214.12 212.37 210.335 212.224C210.496 212.51 210.507 212.936 210.797 213.114C224.726 221.652 216.096 239.073 202.312 226.583C198.895 230.167 199.35 235.996 194.323 236.868C195.038 242.035 197.729 243.983 200.589 243.918Z" fill="#000072"/>
<path d="M200.462 245.858C199.365 245.865 198.282 245.623 197.293 245.149C196.305 244.676 195.437 243.983 194.756 243.124C191.916 239.625 191.452 233.457 193.376 224.795C195.02 217.385 201.479 211.182 208.402 210.362C214.109 209.68 219.088 212.829 222.065 218.987C224.519 224.064 224.259 229.531 221.329 234.378C217.357 240.956 208.844 245.677 200.631 245.856L200.462 245.858ZM197.129 225.643C194.963 235.4 196.577 239.246 197.734 240.67C198.066 241.097 198.495 241.439 198.986 241.668C199.477 241.896 200.015 242.003 200.556 241.982C207.533 241.829 214.73 237.872 218.06 232.361C219.634 229.757 221.007 225.618 218.623 220.687C216.34 215.965 212.961 213.726 208.857 214.212C203.565 214.839 198.416 219.859 197.132 225.643H197.129Z" fill="#000072"/>
<path opacity="0.3" d="M202.068 221.353C202.149 219.522 206.379 215.462 210.919 216.505C215.868 217.639 211.554 219.185 208.709 220.443C205.803 221.729 201.987 223.184 202.068 221.353Z" fill="white"/>
<path d="M178.23 245.739C178.23 245.739 195.166 252.979 198.359 263.497C200.867 271.762 194.602 281.536 188.113 287.742C181.415 294.148 172.764 296.865 165.802 295.9C135.103 291.649 151.558 268.569 159.061 262.565" fill="#5F5F82"/>
<path opacity="0.2" d="M178.23 245.739C178.23 245.739 195.166 252.979 198.359 263.497C200.867 271.762 194.602 281.536 188.113 287.742C181.415 294.148 172.764 296.865 165.802 295.9C135.103 291.649 151.558 268.569 159.061 262.565" fill="#000072"/>
<path d="M168.642 298.03C167.605 298.031 166.57 297.961 165.543 297.82C154.598 296.305 148.166 292.282 146.422 285.862C143.815 276.247 153.191 264.794 157.87 261.046C158.067 260.888 158.294 260.771 158.536 260.702C158.779 260.632 159.033 260.611 159.284 260.64C159.535 260.669 159.777 260.748 159.998 260.872C160.218 260.995 160.411 261.161 160.567 261.36C160.884 261.763 161.03 262.275 160.972 262.785C160.914 263.295 160.657 263.761 160.258 264.083C155.885 267.587 148.161 277.59 150.127 284.838C151.424 289.619 156.786 292.69 166.064 293.981C172.927 294.93 180.87 292.002 186.795 286.332C192.691 280.693 198.776 271.478 196.525 264.06C193.635 254.54 177.644 247.589 177.482 247.519C177.133 247.366 176.837 247.113 176.63 246.793C176.423 246.473 176.314 246.099 176.318 245.718C176.321 245.337 176.436 244.965 176.648 244.649C176.861 244.333 177.161 244.085 177.513 243.938C177.984 243.746 178.512 243.75 178.982 243.951C179.706 244.257 196.781 251.674 200.196 262.926C202.961 272.028 196.45 282.44 189.436 289.146C183.542 294.783 175.822 298.03 168.642 298.03Z" fill="#000072"/>
<path d="M116.94 149.531C104.912 155.964 69.971 175.22 68.4495 197.382C66.8319 221.019 101.01 210.044 101.01 210.044L128.021 179.561" fill="#5F5F82"/>
<path opacity="0.2" d="M92.8992 164.374C101.041 170.901 112.39 175.382 126.908 176.509L116.945 149.531C111.713 152.33 102.159 157.544 92.8992 164.374Z" fill="#000072"/>
<path d="M159.348 159.036L167.322 170.784C177.867 166.381 185.851 159.746 189.85 151.549C172.782 153.765 159.348 159.036 159.348 159.036Z" fill="#545468"/>
<path d="M100.121 169.15C108.009 173.421 117.936 176.158 129.894 176.696C149.071 177.559 166.148 173.188 177.639 165.199C176.46 162.177 175.573 159.048 174.993 155.856C174.993 155.856 130.208 145.36 117.163 148.634C107.578 151.038 102.266 162.979 100.121 169.15Z" fill="#545468"/>
<path d="M85.1187 214.523C80.1943 214.523 75.1559 213.62 71.5513 210.76C67.8133 207.804 66.1289 203.252 66.539 197.25C67.6245 181.435 84.2806 164.805 116.044 147.819C116.266 147.699 116.511 147.626 116.762 147.601C117.014 147.577 117.267 147.603 117.509 147.678C117.75 147.753 117.974 147.875 118.168 148.037C118.362 148.199 118.521 148.398 118.638 148.623C118.875 149.077 118.924 149.606 118.775 150.096C118.626 150.586 118.29 150.998 117.84 151.243C79.833 171.569 71.0468 187.626 70.3698 197.517C70.0476 202.227 71.2096 205.561 73.9208 207.714C80.344 212.808 94.4142 210.027 99.9375 208.354L126.595 178.268C126.763 178.079 126.966 177.925 127.193 177.815C127.421 177.705 127.667 177.641 127.919 177.627C128.172 177.613 128.424 177.649 128.662 177.733C128.9 177.817 129.119 177.948 129.307 178.117C129.688 178.461 129.918 178.941 129.946 179.454C129.975 179.966 129.799 180.469 129.458 180.853L102.444 211.337C102.216 211.594 101.924 211.786 101.597 211.892C101.08 212.058 93.2555 214.523 85.1187 214.523Z" fill="#000072"/>
<path d="M98.9805 172.854C96.6468 186.072 86.5344 226.847 106.061 250.039C124.449 271.871 158.765 270.076 178.246 262.283C191.75 256.878 208.034 236.359 202.764 212.606C197.088 187.032 179.348 179.565 174.992 155.853" fill="white"/>
<path d="M106.061 250.04C124.447 271.87 158.765 270.078 178.25 262.283C191.752 256.877 208.037 236.361 202.763 212.606C200.668 203.161 196.929 196.181 192.821 189.945C185.805 179.299 177.742 170.805 174.993 155.851L98.9837 172.851C98.4906 175.64 97.6542 179.65 96.8161 184.465C93.6997 202.487 90.6516 231.736 106.061 250.04Z" fill="white"/>
<path d="M97.1497 232.911V232.915C97.3457 233.596 97.5578 234.272 97.786 234.943C99.6136 240.414 102.278 245.559 106.053 250.037C124.441 271.868 158.76 270.075 178.24 262.275C191.326 257.044 207.017 237.614 203.186 214.808V214.803C203.063 214.065 202.919 213.331 202.756 212.601C200.662 203.157 196.922 196.174 192.813 189.937C185.801 179.292 177.734 170.799 174.987 155.848L98.9789 172.853C98.4891 175.642 97.6477 179.652 96.8145 184.469C94.5492 197.528 92.3262 216.494 97.1497 232.911Z" fill="white"/>
<path opacity="0.2" d="M97.7876 234.945C99.6135 240.414 102.279 245.559 106.055 250.037C124.442 271.868 158.76 270.075 178.241 262.275C191.327 257.044 207.018 237.614 203.187 214.808C203.197 215.278 203.692 246.626 183.358 230.372L137.458 236.782C137.458 236.782 127.363 246.696 114.525 247.477C103.869 248.131 99.3092 239.096 97.7876 234.945Z" fill="#000072"/>
<path d="M96.8145 184.465C112.079 200.62 152.48 204.269 175.615 198.448C183.823 196.383 189.252 193.115 192.823 189.945C185.807 179.299 177.743 170.805 174.995 155.851C174.995 155.851 130.21 145.355 117.163 148.629C104.115 151.903 98.9854 172.851 98.9854 172.851C98.489 175.64 97.6509 179.65 96.8145 184.465Z" fill="#5F5F82"/>
<path opacity="0.2" d="M100.121 169.15C108.009 173.421 117.936 176.158 129.894 176.696C149.071 177.559 166.148 173.188 177.639 165.199C176.46 162.177 175.573 159.048 174.993 155.856C174.993 155.856 130.208 145.36 117.163 148.634C107.578 151.038 102.266 162.979 100.121 169.15Z" fill="#000072"/>
<path d="M99.926 173.023C97.8381 190.213 94.4255 207.779 97.4524 225.026C102.533 257.814 131.453 269.173 161.278 264.774C169.563 263.357 178.022 261.502 184.775 256.214C195.728 247.586 202.665 233.488 201.785 219.389L201.601 217.291L201.311 215.208L200.906 213.141C200.121 209.688 199.08 206.23 197.708 202.975C193.321 192.083 185.181 183.546 179.355 173.277C176.375 168.003 174.17 162.188 173.096 156.198C172.692 153.721 176.311 152.943 176.871 155.493C178.772 167.085 185.633 176.433 192.357 185.844C198.85 194.912 204.065 205.568 205.41 216.85C206.94 229.892 202.221 243.186 193.726 252.971C189.721 257.544 184.949 261.569 179.146 264.001C167.961 268.426 155.945 270.075 143.998 269.419C121.915 268.125 102.253 256.807 95.5337 234.569C89.5108 214.37 92.6988 192.625 98.035 172.685C98.3637 171.549 100.02 171.826 99.9243 173.025L99.926 173.023Z" fill="#000072"/>
<path d="M159.348 158.696C159.348 158.696 218.835 135.361 247.353 165.438C255.392 173.917 255.732 185.898 250.241 192.176C245.043 198.121 231.569 200.689 225.242 193.824C211.3 190.908 199.425 189.577 182.212 192.366L159.348 158.696Z" fill="#686779"/>
<path d="M159.348 158.696L182.159 192.288L182.214 192.37C199.423 189.582 211.294 190.915 225.24 193.831C231.569 200.69 245.04 198.127 250.241 192.181C254.137 187.727 255.097 180.397 252.453 173.491C251.3 170.497 249.566 167.762 247.351 165.442C218.833 135.366 159.348 158.696 159.348 158.696Z" fill="#5F5F82"/>
<path opacity="0.3" d="M159.348 158.696L160.066 159.759C176.938 154.497 222.179 143.627 246.342 169.116C248.677 171.564 250.505 174.448 251.721 177.604C252.8 180.386 253.332 183.352 253.284 186.34C254.357 182.452 254.134 177.881 252.45 173.491C251.297 170.497 249.563 167.76 247.348 165.44C218.833 135.366 159.348 158.696 159.348 158.696Z" fill="white"/>
<path opacity="0.2" d="M182.157 192.288L182.212 192.37C199.422 189.582 211.292 190.915 225.237 193.831C231.567 200.69 245.039 198.126 250.24 192.181C254.136 187.727 255.096 180.397 252.451 173.491C252.451 173.491 253.478 189.372 241.51 191.134C231.795 192.562 224.841 183.66 220.794 184.57C219.561 184.846 216.509 185.95 205.7 185.95C196.759 185.95 185.835 187.964 182.157 192.288ZM159.348 159.036L167.322 170.784C177.867 166.381 185.851 159.746 189.85 151.549C172.782 153.765 159.348 159.036 159.348 159.036Z" fill="#000072"/>
<path d="M158.653 156.895C176.533 150.519 195.627 146.789 214.634 148.639C232.667 150.289 257.107 161.863 255.803 183.318C255.175 190.947 250.619 196.423 243.369 198.729C236.903 200.891 228.708 200.565 223.743 195.235L224.825 195.847C214.377 193.603 203.776 192.311 193.098 192.964C189.547 193.086 185.988 193.294 182.357 193.323C181.27 193.323 181.001 191.745 182.054 191.409C185.561 190.298 189.179 189.626 192.832 189.235C200.149 188.536 207.583 188.879 214.856 189.857C218.493 190.368 222.086 191.056 225.648 191.802C226.063 191.888 226.441 192.101 226.729 192.414C230.486 196.423 237.081 196.523 242.117 194.879C247.904 193.069 251.382 189.058 251.916 182.957C252.433 177.246 250.173 171.367 246.314 167.168C233.694 153.401 213.624 150.825 195.911 152.41C183.726 153.518 171.535 156.299 160.036 160.499C157.665 161.393 156.241 157.899 158.646 156.886L158.653 156.893V156.895Z" fill="#000072"/>
<path d="M185.246 257.263C185.246 257.263 191.684 247.716 187.754 236.872C181.208 218.805 154.921 212.897 139.092 233.492C122.929 254.517 129.336 286.521 129.336 286.521C129.336 286.521 117.837 290.658 122.18 299.54C124.032 303.33 129.336 307.039 140.426 307.265C152.635 307.514 159.057 303.857 163.644 301.379C174.691 295.411 166.324 273.141 185.246 257.263Z" fill="#686779"/>
<path d="M122.182 299.538C124.034 303.327 129.336 307.042 140.428 307.267C152.638 307.517 159.058 303.859 163.649 301.377C174.694 295.411 166.326 273.141 185.244 257.261C185.244 257.261 191.685 247.72 187.753 236.875C187.29 235.594 186.718 234.354 186.043 233.171C177.48 218.093 153.785 214.377 139.09 233.493C122.927 254.517 129.336 286.523 129.336 286.523C129.336 286.523 122.843 288.856 121.461 293.79C121.007 295.416 121.109 297.332 122.182 299.538Z" fill="#686779"/>
<path d="M122.182 299.538C124.034 303.327 129.336 307.042 140.428 307.267C152.638 307.517 159.058 303.859 163.649 301.377C174.088 295.737 167.184 275.531 182.373 259.923C186.377 255.811 188.899 250.398 189.021 244.636C189.083 241.993 188.654 239.361 187.753 236.875C187.29 235.594 186.718 234.354 186.043 233.171C177.48 218.093 153.785 214.377 139.09 233.493C122.927 254.517 129.336 286.523 129.336 286.523C129.336 286.523 122.843 288.856 121.461 293.79C121.007 295.416 121.109 297.332 122.182 299.538Z" fill="#5F5F82"/>
<path opacity="0.3" d="M122.182 299.538C122.758 300.723 123.674 301.898 124.999 302.966C123.967 300.917 122.743 298.536 123.062 297.102C124.341 291.426 128.734 288.858 139.279 286.723C129.922 285.794 129.922 254.242 142.36 237.82C155.253 220.8 175.411 221.848 185.81 232.777C177.067 218.032 153.66 214.547 139.092 233.492C122.927 254.516 129.336 286.521 129.336 286.521C129.336 286.521 122.843 288.855 121.463 293.789C121.007 295.416 121.108 297.332 122.182 299.538Z" fill="white"/>
<path opacity="0.2" d="M122.182 299.538C124.034 303.327 129.336 307.042 140.428 307.265C152.636 307.517 159.058 303.859 163.647 301.376C174.088 295.737 167.184 275.531 182.373 259.923C186.377 255.811 188.899 250.398 189.02 244.634C189.083 241.992 188.654 239.36 187.753 236.875C187.29 235.594 186.718 234.354 186.043 233.171C186.115 234.25 186.58 244.594 179.895 252.53C171.966 261.954 166.952 268.574 164.716 286.64C163.218 298.767 147.011 301.989 136.669 301.447C128.966 301.04 123.866 297.939 121.463 293.79C121.007 295.416 121.108 297.332 122.182 299.538Z" fill="#000072"/>
<path d="M141.58 309.218C141.188 309.218 140.791 309.218 140.386 309.205C126.656 308.923 122.006 303.568 120.457 300.399C119.083 297.59 118.906 294.876 119.926 292.331C121.407 288.643 125.087 286.386 127.18 285.356C126.093 278.545 122.921 251.37 137.575 232.307C145.395 222.133 156.799 217.12 168.075 218.894C178.024 220.46 186.253 227.094 189.557 236.209C190.536 238.919 191.005 241.79 190.938 244.673C190.81 250.747 188.253 256.647 183.737 261.289C176.046 269.191 174.334 278.267 172.826 286.274C171.434 293.647 170.233 300.017 164.552 303.086L164.189 303.28C159.799 305.66 153.224 309.218 141.58 309.218ZM163.455 222.408C154.868 222.408 146.713 226.741 140.609 234.683C125.188 254.742 131.154 285.828 131.214 286.14C131.305 286.597 131.23 287.07 131.002 287.476C130.775 287.883 130.41 288.192 129.977 288.349C129.928 288.365 124.9 290.236 123.477 293.797C122.882 295.291 123.02 296.889 123.897 298.684C124.833 300.599 128.324 305.081 140.461 305.33C151.847 305.566 157.932 302.271 162.372 299.869L162.734 299.672C166.8 297.476 167.792 292.215 169.049 285.553C170.583 277.427 172.49 267.315 180.993 258.576C184.823 254.641 186.989 249.676 187.096 244.593C187.153 242.192 186.763 239.8 185.947 237.54C183.124 229.749 176.046 224.072 167.481 222.725C166.15 222.514 164.804 222.407 163.455 222.406V222.408Z" fill="#000072"/>
<path d="M97.1482 39.7159C97.1482 39.7159 92.31 12.8725 73.4912 12.4787C58.3241 12.163 46.6494 23.8052 49.8016 38.694C53.8537 57.8448 72.5847 61.1451 72.5847 61.1451" fill="#5F5F82"/>
<path opacity="0.3" d="M49.4809 36.7704C50.6119 24.8532 61.3119 16.342 74.5684 16.6203C85.5141 16.8481 91.9162 25.675 95.4297 33.418C92.7266 25.4569 86.3945 12.7472 73.4927 12.4787C58.988 12.1743 47.6745 22.8173 49.4809 36.7704Z" fill="white"/>
<path d="M67.1622 61.342C66.9067 61.342 66.6529 61.2899 66.4169 61.1906C60.7488 58.7756 50.8104 52.6974 47.93 39.0991C46.4149 31.9501 48.0032 25.0549 52.3987 19.6846C57.3004 13.6959 65.0027 10.3614 73.5383 10.5404C89.2863 10.8692 95.9292 27.9891 98.0513 35.3334C98.1572 35.701 98.153 36.0916 98.0394 36.4569C97.9257 36.8221 97.7075 37.1461 97.4117 37.3888C97.1656 37.5882 96.8738 37.7234 96.5625 37.7822C96.2512 37.8411 95.9302 37.8217 95.6282 37.7259C95.3262 37.6301 95.0528 37.4608 94.8323 37.2332C94.6119 37.0057 94.4515 36.727 94.3653 36.4221C92.4808 29.8963 86.6679 14.6935 73.4536 14.4201C66.1028 14.2687 59.5038 17.0857 55.354 22.1566C51.7218 26.5944 50.4166 32.3244 51.6794 38.2919C54.0733 49.5777 61.8245 55.0294 67.9092 57.6186C68.316 57.7927 68.6545 58.1035 68.8612 58.499C69.0681 58.8949 69.133 59.3498 69.045 59.7879C68.9571 60.2259 68.7216 60.6205 68.3779 60.9058C68.0353 61.1885 67.6064 61.3428 67.1622 61.342Z" fill="#000072"/>
<path d="M125.352 167.818C150.121 169.653 188.897 165.455 198.771 128.679C202.711 113.996 204.429 79.3375 187.89 52.8374C171.011 25.7906 144.016 21.5936 139.544 18.0654C134.486 14.0882 132.688 7.48103 130.903 3.99358C129.028 0.322241 121.969 0.480094 116.761 14.0882C109.42 13.0922 104.051 -1.07241 98.1082 4.34672C96.5834 5.7365 94.2692 12.4771 96.2042 19.5984C92.7379 20.9524 78.3487 27.5384 68.1516 40.1228C55.9659 55.1597 55.8894 73.7312 51.4385 89.4516C48.288 100.581 45.58 106.933 45.8078 116.088C46.4262 141.106 76.5619 164.21 125.352 167.818Z" fill="white"/>
<path opacity="0.2" d="M45.8323 116.69C46.9177 141.472 76.959 164.239 125.357 167.817C150.124 169.653 188.902 165.451 198.774 128.679C201.905 117.024 203.117 93.0887 195.617 70.2161C199.161 88.6102 199.104 108.409 196.982 117.916C188.814 154.515 146.129 161.594 121.425 159.056C72.3616 154.011 55.0692 135.884 45.8323 116.69Z" fill="#000072"/>
<path d="M126.924 124.865C126.924 124.865 109.098 120.057 115.119 99.3541C121.14 78.6507 126.14 77.9086 136.783 79.811C147.426 81.715 162.589 93.8291 167.223 101.93C171.854 110.033 170.97 123.299 167.667 127.88C164.959 131.639 157.426 133.143 146.967 131.073C136.508 129.001 130.76 126.546 126.924 124.865ZM76.3357 113.307C76.3357 113.307 89.4246 113.722 91.2391 95.2043C93.0553 76.6848 89.9698 74.8492 82.4253 73.8044C74.8808 72.758 61.5039 79.0103 56.1921 84.5418C50.8788 90.0732 47.7526 101.211 48.6477 105.794C49.3832 109.55 53.9252 112.637 61.3965 113.499C68.8661 114.362 73.3413 113.75 76.3357 113.307ZM164.822 68.989C165.74 67.6269 159.18 52.5965 147.849 55.0929C144.718 55.7829 145.081 58.94 146.638 61.0539C149.47 64.875 163.903 70.3511 164.822 68.989ZM69.7611 58.7724C69.1297 57.5681 75.1542 45.5939 84.095 49.1009C87.3709 50.3865 85.8119 52.3426 84.5442 54.1132C81.9762 57.713 70.3909 59.9799 69.7611 58.7724Z" fill="#5F5F82"/>
<path d="M110.846 117.935C109.349 121.89 106.118 123.215 102.748 122.7C97.4428 121.892 97.0115 117.079 96.8146 116.456C96.3703 117.393 94.3817 120.777 90.5021 120.396C87.4019 120.09 85.6444 116.941 86.5069 114.134L99.7894 103.206L110.844 117.934L110.846 117.935Z" fill="white"/>
<path d="M90.4971 120.396C94.3767 120.777 96.3637 117.395 96.8113 116.458C97.0131 117.083 97.4394 121.888 102.746 122.699C106.118 123.218 109.342 121.883 110.842 117.934L110.826 117.913L99.791 103.203L86.5051 114.131C86.46 114.282 86.422 114.436 86.3912 114.591C85.8379 117.273 87.5662 120.11 90.4971 120.396Z" fill="white"/>
<path d="M90.4988 120.396C94.3801 120.777 96.3671 117.395 96.813 116.458C97.0148 117.083 97.4428 121.888 102.748 122.699C106.12 123.218 109.345 121.883 110.844 117.934L110.828 117.913C109.113 118.749 106.688 119.527 104.305 118.933C98.5901 117.519 98.7057 111.74 98.7057 111.74L95.4184 111.2C95.4184 111.2 94.2337 116.179 90.7039 116.975C88.3393 117.504 86.9609 115.634 86.3881 114.593C85.8413 117.273 87.5696 120.11 90.4988 120.396Z" fill="#D2DADB"/>
<path d="M111.516 118.194C111.142 119.909 110.175 121.66 108.579 122.819C105.34 125.102 100.582 124.717 97.7698 121.935C96.4126 120.555 95.7031 118.752 95.4346 116.881C95.4248 116.926 98.1034 117.066 98.1148 117.084C97.7913 117.84 97.3641 118.546 96.8455 119.184C94.7397 121.971 90.4044 123.034 87.493 120.883C85.3367 119.402 84.3001 116.098 85.8217 113.917C86.2334 113.306 87.1919 113.628 87.1952 114.349C87.6574 119.905 92.9919 120.188 95.5176 115.828C96.0058 114.578 97.8821 114.728 98.1881 116.015C98.2043 116.08 98.2532 116.219 98.2646 116.284C98.5542 117.525 99.0603 118.84 99.9668 119.724C101.684 121.459 105.059 121.812 107.241 120.678C108.426 120.087 109.396 118.985 110.183 117.657C110.598 116.951 111.697 117.397 111.516 118.194Z" fill="#000072"/>
<path d="M98.9822 107.035C98.2548 109.309 98.175 111.764 98.1702 114.145C98.1783 114.939 98.2011 115.76 98.2564 116.52C98.2772 116.807 98.2134 117.094 98.0728 117.346C97.9323 117.597 97.7212 117.802 97.4655 117.935C97.2954 118.023 97.1097 118.075 96.9191 118.089C96.7286 118.104 96.537 118.08 96.3557 118.02C96.1743 117.96 96.0068 117.864 95.8629 117.738C95.719 117.612 95.6016 117.459 95.5176 117.288C95.4317 117.116 95.3803 116.929 95.3662 116.738C95.4134 115.756 95.6917 114.817 95.8707 113.883C96.4533 111.426 97.1238 108.936 98.4387 106.762C98.6275 106.456 99.1092 106.697 98.9806 107.034L98.9822 107.035Z" fill="#000072"/>
<path d="M107.791 106.983C107.192 112.326 97.6054 113.538 97.6054 113.538C97.6054 113.538 89.908 109.585 90.7737 104.816C91.2668 102.103 98.7804 103.053 98.7804 103.053C98.7804 103.053 108.099 104.239 107.791 106.983Z" fill="#000072"/>
<path opacity="0.5" d="M102.587 105.777C102.432 107.161 100.053 107.488 98.3524 107.271C96.6518 107.053 94.4126 106.137 94.5655 104.754C94.6453 104.039 98.6567 104.557 98.6567 104.557C98.6567 104.557 102.667 105.066 102.587 105.777Z" fill="white"/>
<path d="M134.29 120.831C140.628 120.407 145.326 113.306 144.783 104.967C144.239 96.6283 138.658 90.21 132.317 90.6314C125.977 91.0546 121.279 98.1548 121.824 106.493C122.368 114.834 127.949 121.252 134.29 120.831Z" fill="#000072"/>
<path d="M132.931 102.15C132.95 99.11 131.391 96.6364 129.447 96.6234C127.502 96.6104 125.909 99.0645 125.889 102.103C125.87 105.141 127.43 107.616 129.373 107.629C131.318 107.642 132.911 105.188 132.931 102.15Z" fill="white"/>
<path opacity="0.5" d="M140.195 113.31C141.047 111.229 140.957 109.216 139.992 108.814C139.027 108.41 137.556 109.773 136.703 111.852C135.85 113.934 135.941 115.947 136.906 116.349C137.87 116.752 139.344 115.39 140.195 113.31Z" fill="white"/>
<path d="M84.1684 98.4297C85.4996 90.8787 81.9275 83.9217 76.1861 82.8884C70.4464 81.8566 64.7132 87.1407 63.3804 94.6917C62.0492 102.243 65.6212 109.2 71.3626 110.233C77.1023 111.265 82.8356 105.981 84.1684 98.4297Z" fill="#000072"/>
<path d="M80.9004 94.0131C81.1852 91.2384 79.9793 88.838 78.2039 88.6525C76.43 88.467 74.7587 90.5647 74.4739 93.3377C74.1875 96.1108 75.395 98.5095 77.1689 98.6966C78.9427 98.8838 80.614 96.7861 80.9004 94.0131Z" fill="white"/>
<path opacity="0.5" d="M69.4291 105.888C70.3502 105.619 70.6333 103.792 70.0638 101.807C69.4958 99.8211 68.2899 98.4297 67.3688 98.6983C66.4494 98.9684 66.1646 100.794 66.7342 102.78C67.3038 104.765 68.5096 106.156 69.4291 105.888Z" fill="white"/>
<path d="M134.828 170.109C131.619 170.107 128.411 169.988 125.21 169.751C101.622 168.006 81.3008 161.725 66.4397 151.586C52.2213 141.887 44.2147 129.294 43.8892 116.132C43.7021 108.576 45.3831 103.006 47.7103 95.2987C48.3157 93.2938 48.9406 91.2189 49.5931 88.9145C50.8055 84.6215 51.6827 80.1577 52.6087 75.4318C55.0448 62.9906 57.564 50.123 66.6642 38.8925C76.2983 27.0046 89.4832 20.4381 93.9682 18.4413C92.6826 11.6536 94.6615 4.87886 96.821 2.90486C101.576 -1.43045 106.003 3.10828 109.558 6.7487C111.544 8.78779 113.585 10.8741 115.62 11.761C119.977 1.53787 125.095 0.136703 127.165 0.0244148C129.489 -0.10252 131.578 1.08058 132.615 3.10828C133.054 3.97078 133.487 4.98626 133.943 6.06521C135.403 9.50384 137.219 13.7822 140.726 16.5455C141.52 17.1704 143.801 18.0426 146.444 19.0516C156.827 23.0191 176.152 30.4025 189.514 51.8057C198.881 66.81 201.977 83.5947 202.925 95.0302C203.936 107.273 203.08 120.043 200.624 129.194C196.079 146.131 185.212 158.024 168.332 164.543C157.092 168.877 144.968 170.109 134.828 170.109ZM100.946 5.07739C100.4 5.07739 99.9049 5.31662 99.3955 5.78204C98.5867 6.53552 96.2465 12.4396 98.0545 19.0809C98.181 19.5442 98.1323 20.0378 97.9178 20.4674C97.705 20.8953 97.3408 21.2288 96.8959 21.4032C96.2335 21.6619 80.531 27.9029 69.6374 41.3466C61.1442 51.8268 58.7211 64.2094 56.3744 76.1836C55.4387 80.9876 54.5452 85.5312 53.2856 89.9805C52.6217 92.319 51.9919 94.4069 51.3816 96.4265C49.1603 103.789 47.5573 109.105 47.7266 116.036C48.0195 127.911 55.4289 139.389 68.5894 148.374C82.894 158.135 102.569 164.19 125.492 165.886C128.447 166.104 131.696 166.247 135.124 166.247C157.738 166.247 188.364 160.026 196.917 128.173C201.073 112.703 201.855 78.846 186.264 53.8708C173.589 33.5661 155.048 26.4805 145.084 22.6741C141.79 21.4162 139.616 20.5846 138.363 19.5984C134.078 16.2216 131.961 11.2354 130.413 7.58842C129.984 6.57945 129.578 5.62419 129.201 4.88374C128.852 4.20024 128.202 3.85036 127.37 3.8943C125.074 4.02123 121.55 6.94561 118.55 14.7846C118.397 15.1915 118.11 15.5332 117.738 15.7546C117.367 15.9767 116.932 16.0662 116.504 16.0084C112.701 15.4926 109.578 12.2915 106.823 9.46966C103.908 6.48181 102.271 5.07739 100.946 5.07739Z" fill="#000072"/>
<path d="M172.341 59.2655C162.716 49.0538 164.798 37.1496 168.791 31.5791C173.835 24.5424 182.038 16.8937 193.083 18.9426C208.823 21.8653 218.441 36.401 212.05 51.1091C208.234 59.8986 201.864 64.4763 196.138 66.8572C189.703 69.5342 179.6 66.9792 172.341 59.2655Z" fill="#5F5F82"/>
<path opacity="0.3" d="M164.51 38.6126C169.633 30.8208 178.676 21.216 191.217 23.5497C204.335 25.9907 213.394 36.1211 213.188 47.9228C217.012 34.3587 207.681 21.6603 193.083 18.9475C177.953 16.137 168.158 31.527 164.51 38.6126Z" fill="white"/>
<path d="M163.839 37.8038C166.567 29.0909 174.424 20.3357 183.166 17.4699C187.946 15.8978 193.168 16.3486 197.871 17.9971C209.927 21.9419 218.48 34.1927 215.272 47.1042C213.499 54.2158 209.035 60.5186 203.057 64.6196C199.14 67.321 194.59 68.9907 189.942 69.7475C188.73 69.9134 188.392 68.1526 189.57 67.8467C193.832 66.7808 197.921 64.9581 201.414 62.2941C204.895 59.6838 207.611 56.2077 209.557 52.3216C213.609 44.5753 212.952 35.3481 206.997 28.8094C202.817 24.1307 196.572 21.2763 190.409 20.7702C184.038 20.3829 178.365 23.7369 173.942 28.3749C170.866 31.615 168.386 35.2228 165.537 38.7119C164.887 39.5549 163.517 38.8242 163.839 37.8055V37.8038ZM104.971 18.0964C102.17 19.1045 99.4124 20.2273 96.704 21.4618C93.9 22.5424 92.7397 18.2152 95.7032 17.7205C98.7279 17.4022 101.764 17.2078 104.805 17.1379C105.352 17.12 105.489 17.9272 104.971 18.0931V18.0964Z" fill="#000072"/>
<path d="M57.0741 152.873C56.9281 152.872 56.7843 152.837 56.6543 152.771L47.5361 148.284C38.6924 143.932 30.383 138.569 22.7741 132.303C22.5821 132.146 22.4578 131.921 22.4266 131.674C22.3955 131.428 22.4598 131.179 22.6064 130.979L22.8896 130.585C22.9783 130.462 23.0949 130.362 23.2298 130.292C23.3648 130.223 23.5142 130.187 23.6659 130.186C23.8725 130.186 24.0727 130.251 24.2387 130.377L26.3396 131.957C32.7216 136.759 39.5467 140.943 46.7224 144.45L58.6901 150.289C58.8458 150.365 58.9781 150.482 59.0732 150.627C59.1683 150.772 59.2226 150.939 59.2304 151.113C59.2388 151.286 59.201 151.458 59.1209 151.611C59.0408 151.765 58.9213 151.894 58.7747 151.986L57.577 152.73C57.4254 152.824 57.2523 152.873 57.0741 152.873Z" fill="#52BF2E"/>
<path d="M23.6659 131.166L25.7652 132.744C32.1955 137.582 39.0731 141.794 46.3042 145.324L58.2703 151.163L57.0725 151.905L47.9544 147.418C39.1774 143.1 30.9311 137.778 23.3811 131.558L23.6643 131.164M23.6643 129.228C23.3607 129.227 23.0615 129.3 22.7915 129.438C22.5215 129.577 22.2884 129.778 22.1118 130.025L21.827 130.419C21.5386 130.82 21.4133 131.316 21.4764 131.807C21.5396 132.297 21.7864 132.745 22.1671 133.06C29.833 139.373 38.2047 144.775 47.1147 149.16L56.2312 153.648C56.5212 153.791 56.8428 153.857 57.1657 153.841C57.4886 153.825 57.8021 153.727 58.0766 153.557L59.2744 152.815C59.5697 152.632 59.8104 152.373 59.9711 152.065C60.1318 151.758 60.2065 151.412 60.1873 151.065C60.1693 150.719 60.0596 150.385 59.8694 150.095C59.6792 149.806 59.4154 149.572 59.1051 149.418L47.1375 143.579C40.018 140.103 33.2463 135.955 26.9142 131.194L24.8132 129.615C24.4825 129.366 24.0799 129.231 23.6659 129.231L23.6643 129.228Z" fill="#000072"/>
<path d="M23.8401 146.543C19.7684 146.543 15.01 145.941 9.69827 144.758C9.48239 144.704 9.29137 144.578 9.15692 144.401C9.02248 144.224 8.95269 144.006 8.95915 143.783C8.96561 143.561 9.04794 143.348 9.19245 143.178C9.33696 143.009 9.53497 142.895 9.7536 142.854C9.92122 142.826 26.6961 140.128 30.7987 139.591C31.3081 139.524 31.8207 139.49 32.335 139.488C35.7606 139.488 36.9486 141.184 37.0722 141.376C37.1747 141.536 37.2284 141.721 37.227 141.911C37.2255 142.101 37.1689 142.286 37.0641 142.444C36.9518 142.613 34.2195 146.543 23.8401 146.543Z" fill="#52BF2E"/>
<path d="M32.3365 140.46C35.3406 140.46 36.2682 141.907 36.2682 141.907C36.2682 141.907 33.8271 145.578 23.8416 145.578C20.2516 145.578 15.6852 145.103 9.90645 143.814C9.90645 143.814 26.7888 141.096 30.9207 140.559C31.3895 140.497 31.8619 140.465 32.3348 140.463M32.3348 138.526C31.7797 138.528 31.2253 138.565 30.6749 138.637C26.5593 139.174 10.2921 141.789 9.60051 141.9C9.16112 141.972 8.75753 142.196 8.46135 142.535C8.24145 142.788 8.09077 143.094 8.02391 143.423C7.95706 143.752 7.97629 144.092 8.07976 144.412C8.18323 144.731 8.36741 145.018 8.61446 145.245C8.86151 145.472 9.16305 145.632 9.48985 145.708C14.8699 146.907 19.6983 147.514 23.8351 147.514C34.5432 147.511 37.5603 143.449 37.863 142.99C38.0729 142.675 38.1862 142.304 38.1891 141.925C38.192 141.546 38.0843 141.174 37.8793 140.855C37.6303 140.466 36.1885 138.526 32.3365 138.526H32.3348Z" fill="#000072"/>
<path d="M12.3313 143.881C16.1491 143.91 19.962 143.77 23.7473 143.3C27.5325 142.829 31.295 142.053 35.1193 141.872L32.2893 142.351C29.4545 142.806 26.6619 143.428 23.8042 143.77C19.9962 144.196 16.1442 144.281 12.3313 143.872V143.881Z" fill="#B6F29E"/>
<path d="M23.2592 140.23C19.4511 140.23 12.6927 138.961 2.13267 132.912C1.94662 132.807 1.8009 132.642 1.71843 132.445C1.63595 132.247 1.62138 132.028 1.677 131.822C1.73122 131.617 1.85138 131.435 2.01898 131.305C2.18658 131.174 2.39234 131.103 2.6046 131.101C2.6518 131.101 2.69736 131.104 2.7413 131.111C2.91055 131.133 19.731 133.539 23.8043 134.247C28.3772 135.042 29.2023 137.534 29.2821 137.817C29.3331 137.999 29.3301 138.193 29.2735 138.374C29.2169 138.554 29.1091 138.715 28.9631 138.836C28.7873 138.977 27.1388 140.23 23.2592 140.23Z" fill="#30A010"/>
<path d="M2.60457 132.069C2.60457 132.069 19.5308 134.487 23.6383 135.202C27.7474 135.916 28.356 138.081 28.356 138.081C28.356 138.081 26.9077 139.262 23.2559 139.262C19.2932 139.262 12.7333 137.871 2.60457 132.069ZM2.60457 130.133C2.18145 130.133 1.7681 130.272 1.43286 130.534C1.18332 130.732 0.985711 130.987 0.857207 131.278C0.728704 131.569 0.673187 131.887 0.695477 132.205C0.717768 132.522 0.817192 132.829 0.985115 133.099C1.15304 133.369 1.38439 133.595 1.65907 133.755C10.2841 138.696 17.5503 141.199 23.2575 141.199C27.3813 141.199 29.2365 139.854 29.5652 139.584C29.8597 139.344 30.0774 139.023 30.1911 138.661C30.3048 138.298 30.3095 137.91 30.2047 137.545C30.1071 137.203 29.1193 134.18 23.967 133.286C19.8775 132.572 3.56797 130.243 2.87634 130.146C2.78639 130.132 2.69555 130.125 2.60457 130.124V130.133Z" fill="#000072"/>
<path d="M5.33203 133.099C8.96106 133.963 12.6926 135.192 16.3054 136.081C19.98 137.011 23.7669 137.257 27.5391 137.498C23.7441 137.612 19.9051 137.435 16.1963 136.541C12.5022 135.623 8.92201 134.367 5.33203 133.099Z" fill="#B6F29E"/>
<path d="M24.8636 133.856C24.8168 133.856 24.77 133.853 24.7237 133.846C24.2306 133.773 12.66 131.817 10.0334 112.305C10.0033 112.078 10.0536 111.848 10.1755 111.655C10.2974 111.462 10.4832 111.317 10.7007 111.247C10.9183 111.179 11.1532 111.191 11.3626 111.282C11.572 111.372 11.7419 111.535 11.8414 111.74C11.874 111.805 15.1206 118.243 23.6692 126.977C27.0313 130.414 25.7896 133.187 25.731 133.299C25.6537 133.465 25.5312 133.604 25.3777 133.703C25.2242 133.801 25.046 133.854 24.8636 133.856Z" fill="#80D362"/>
<path d="M10.9904 112.175C10.9904 112.175 14.2093 118.684 22.9906 127.659C25.9199 130.653 24.8686 132.888 24.8686 132.888C24.8686 132.888 13.5551 131.19 10.9904 112.175ZM10.9904 110.236C10.7157 110.236 10.4442 110.295 10.1945 110.409C9.9448 110.523 9.72277 110.69 9.54366 110.899C9.36306 111.107 9.22902 111.352 9.15045 111.617C9.07188 111.881 9.05059 112.16 9.08799 112.433C11.8041 132.661 24.0598 134.731 24.5805 134.805C24.9874 134.867 25.4056 134.793 25.7685 134.598C26.1314 134.403 26.4244 134.094 26.6017 133.719C26.7677 133.364 28.1168 130.15 24.356 126.297C15.9392 117.696 12.7366 111.369 12.704 111.306C12.5442 110.986 12.2991 110.717 11.9957 110.529C11.6923 110.34 11.3426 110.24 10.9855 110.238L10.9904 110.236Z" fill="#000072"/>
<path d="M11.7227 114.352C13.2198 117.206 15.0832 121.398 16.9579 123.968C19.0735 126.943 21.6805 129.524 24.2892 132.063C21.4185 129.788 18.7496 127.223 16.5722 124.248C14.4518 121.215 13.0848 117.769 11.7227 114.355V114.352Z" fill="#B6F29E"/>
<path d="M28.5545 134.165H28.4015C28.1851 134.146 27.9809 134.056 27.8205 133.91C27.7196 133.807 25.2379 131.431 25.2753 126.936C25.3193 121.547 28.8523 115.616 35.7816 109.325C35.903 109.214 36.0511 109.136 36.2115 109.099C36.3719 109.062 36.5391 109.068 36.6968 109.114C36.8546 109.161 36.9976 109.248 37.1118 109.367C37.226 109.485 37.3077 109.631 37.3488 109.79C37.4066 110.004 37.39 110.232 37.3016 110.435C37.2576 110.537 32.9451 120.531 32.561 129.267C32.3495 134.028 28.9418 134.165 28.5545 134.165Z" fill="#30A010"/>
<path d="M36.4213 110.039C36.4213 110.039 31.9948 120.188 31.5994 129.224C31.4334 133.016 29.0232 133.202 28.5546 133.202H28.4748C28.4748 133.202 19.8595 125.106 36.4213 110.044M36.4213 108.108C35.9477 108.108 35.4888 108.287 35.1356 108.606C28.0029 115.092 24.3625 121.257 24.3136 126.93C24.2746 131.845 27.0476 134.509 27.1664 134.619C27.5473 134.961 28.0431 135.145 28.5546 135.137C30.3007 135.137 33.3146 133.913 33.518 129.306C33.8923 120.756 38.1365 110.921 38.1788 110.822C38.372 110.377 38.3927 109.876 38.2369 109.417C38.0811 108.958 37.7599 108.573 37.3358 108.337C37.0553 108.184 36.7408 108.104 36.4213 108.104V108.108Z" fill="#000072"/>
<path d="M35.2657 111.909C30.6652 119.013 29.1794 124.062 28.8214 132.517C28.4064 124.572 30.273 118.111 35.2657 111.909Z" fill="#B6F29E"/>
<path d="M109.409 241.558C109.409 241.558 112.611 241.127 118.989 237.169C125.368 233.212 127.194 230.523 127.194 230.523L61.2858 122.289C61.2858 122.289 56.2019 124.067 51.7836 126.809C47.3652 129.55 43.5002 133.325 43.5002 133.325L109.409 241.558Z" fill="#30A010"/>
<path d="M43.5002 133.329L109.409 241.558C109.409 241.558 111.934 241.218 116.953 238.377C118.574 237.458 120.151 236.462 121.677 235.394C122.795 234.613 123.707 233.902 124.444 233.282C124.955 232.85 125.381 232.466 125.734 232.125C126.799 231.104 127.194 230.523 127.194 230.523L61.2858 122.289C61.2858 122.289 60.5144 122.559 59.3134 123.049C58.8447 123.242 58.3093 123.465 57.7267 123.724C56.7747 124.144 55.6974 124.648 54.5875 125.224C52.9275 126.073 51.3312 127.041 49.8112 128.121C47.5873 129.706 45.4784 131.446 43.5002 133.329Z" fill="#30A010"/>
<path d="M49.8113 128.123L116.953 238.377C118.575 237.46 120.152 236.464 121.677 235.394C122.795 234.613 123.707 233.902 124.444 233.282C124.955 232.85 125.381 232.466 125.735 232.125L59.3135 123.052C57.7075 123.707 56.1312 124.433 54.5892 125.228C52.9292 126.077 51.3329 127.045 49.8129 128.124L49.8113 128.123Z" fill="#52BF2E"/>
<path d="M54.5925 125.226L121.682 235.394C122.799 234.613 123.71 233.902 124.447 233.282L57.7317 123.727C56.7797 124.147 55.7024 124.65 54.5925 125.226Z" fill="#80D362"/>
<path d="M109.409 243.498C109.08 243.498 108.756 243.412 108.47 243.251C108.183 243.089 107.943 242.856 107.773 242.574L41.8648 134.343C41.6358 133.966 41.541 133.523 41.5956 133.086C41.6503 132.649 41.8513 132.243 42.1658 131.934C42.3286 131.775 46.2342 127.979 50.7795 125.161C55.3231 122.341 60.4412 120.536 60.6576 120.461C61.0711 120.315 61.5222 120.317 61.9347 120.465C62.3472 120.614 62.6957 120.9 62.9213 121.276L128.831 229.508C129.025 229.828 129.124 230.197 129.114 230.572C129.105 230.946 128.989 231.31 128.779 231.62C128.568 231.926 126.533 234.764 119.996 238.82C113.459 242.877 110.035 243.43 109.664 243.48C109.58 243.492 109.494 243.498 109.409 243.498ZM45.9625 133.675L110.3 239.327C111.672 238.88 114.24 237.842 117.978 235.521C121.716 233.2 123.796 231.353 124.81 230.32L60.4753 124.669C58.7048 125.376 55.5835 126.726 52.786 128.461C49.9886 130.198 47.388 132.399 45.9625 133.675Z" fill="#000072"/>
<path d="M107.285 243.044C108.699 245.158 111.251 244.58 111.251 244.58C111.251 244.58 114.875 243.56 120.683 239.951C126.493 236.343 129.035 233.544 129.035 233.544C129.035 233.544 130.7 231.505 129.468 229.278C128.255 227.09 125.502 227.74 125.502 227.74C125.502 227.74 122.016 230.787 116.999 233.9C111.983 237.015 107.718 238.777 107.718 238.777C107.718 238.777 105.898 240.963 107.285 243.044Z" fill="#52BF2E"/>
<path d="M107.285 243.044C108.699 245.158 111.251 244.58 111.251 244.58C111.251 244.58 114.875 243.56 120.683 239.951C126.493 236.343 129.035 233.544 129.035 233.544C129.035 233.544 130.7 231.505 129.468 229.278C128.255 227.09 125.502 227.74 125.502 227.74C125.502 227.74 122.016 230.787 116.999 233.9C111.983 237.015 107.718 238.777 107.718 238.777C107.718 238.777 105.898 240.963 107.285 243.044Z" fill="#52BF2E"/>
<path d="M106.859 240.549C114.444 237.578 121.424 233.247 127.455 227.77C126.813 227.622 126.147 227.612 125.502 227.74C125.502 227.74 122.016 230.787 116.999 233.9C111.982 237.013 107.716 238.777 107.716 238.777C107.309 239.301 107.016 239.905 106.859 240.549Z" fill="#80D362"/>
<path d="M107.282 243.044C108.698 245.158 111.248 244.58 111.248 244.58C111.248 244.58 114.874 243.555 120.682 239.951C126.491 236.348 129.033 233.544 129.033 233.544C129.033 233.544 130.698 231.505 129.466 229.28C129.188 228.762 128.761 228.339 128.241 228.066C128.332 229.615 127.362 230.8 127.362 230.8C127.362 230.8 124.822 233.604 119.012 237.207C113.202 240.811 109.578 241.835 109.578 241.835C109.578 241.835 108.092 242.174 106.763 241.394C106.771 241.983 106.95 242.558 107.282 243.044Z" fill="#30A010"/>
<path d="M110.457 246.602C108.961 246.602 106.986 246.068 105.694 244.13C103.962 241.531 105.228 238.761 106.248 237.534C106.449 237.295 106.704 237.106 106.991 236.987C113.224 234.258 119.035 230.652 124.247 226.279C124.482 226.074 124.763 225.931 125.064 225.859C126.61 225.493 129.629 225.602 131.144 228.336C132.625 231.007 131.447 233.64 130.517 234.78L130.452 234.857C130.342 234.979 127.661 237.902 121.692 241.606C115.721 245.311 111.928 246.405 111.77 246.45C111.34 246.552 110.899 246.603 110.457 246.602ZM108.883 241.962C109.466 242.834 110.53 242.737 110.803 242.693C111.308 242.532 114.642 241.423 119.681 238.299C124.731 235.165 127.215 232.658 127.578 232.282C127.717 232.087 128.311 231.161 127.793 230.227C127.468 229.64 126.758 229.568 126.312 229.589C121.047 233.937 115.218 237.553 108.984 240.34C108.769 240.727 108.507 241.401 108.883 241.962Z" fill="#000072"/>
<path d="M85.4246 207.146C86.8388 209.26 89.3889 208.681 89.3889 208.681C89.3889 208.681 93.0131 207.662 98.8228 204.052C104.632 200.443 107.174 197.646 107.174 197.646C107.174 197.646 108.839 195.605 107.606 193.38C106.393 191.191 103.64 191.842 103.64 191.842C103.64 191.842 100.154 194.889 95.1384 198.002C90.1229 201.115 85.8559 202.879 85.8559 202.879C85.8559 202.879 84.0365 205.065 85.4246 207.146Z" fill="#52BF2E"/>
<path d="M84.9216 205.138C87.3692 204.017 91.5532 202.215 96.0187 199.442C100.484 196.671 103.968 193.72 106.063 192.02C104.883 191.549 103.643 191.844 103.643 191.844C103.643 191.844 100.157 194.889 95.1415 198.002C90.1243 201.115 85.8574 202.879 85.8574 202.879C85.8574 202.879 85.0437 203.865 84.9216 205.138Z" fill="#80D362"/>
<path d="M85.4247 207.146C86.8405 209.26 89.3906 208.682 89.3906 208.682C89.3906 208.682 93.0147 207.657 98.8228 204.052C104.633 200.448 107.176 197.645 107.176 197.645C107.176 197.645 108.841 195.606 107.607 193.38C107.543 193.266 107.473 193.156 107.396 193.05C107.233 193.683 106.95 194.277 106.559 194.796C106.559 194.796 103.786 197.855 97.4461 201.787C91.1075 205.719 87.153 206.84 87.153 206.84C86.517 206.957 85.864 206.946 85.2327 206.806C85.2896 206.923 85.3547 207.037 85.4247 207.146Z" fill="#30A010"/>
<path d="M88.5962 210.699C87.1007 210.699 85.1251 210.165 83.8329 208.227C82.0998 205.628 83.3659 202.858 84.3862 201.631C84.5869 201.393 84.8412 201.205 85.1283 201.084C91.3615 198.355 97.1725 194.75 102.385 190.376C102.619 190.171 102.901 190.028 103.204 189.956C104.748 189.59 107.768 189.699 109.283 192.433C110.761 195.104 109.586 197.737 108.657 198.877L108.592 198.954C108.479 199.076 105.801 201.999 99.83 205.703C93.8591 209.408 90.0658 210.502 89.9079 210.547L89.807 210.572C89.4092 210.658 89.0032 210.7 88.5962 210.699ZM87.0177 206.064C87.6003 206.935 88.663 206.837 88.938 206.793C89.4425 206.633 92.777 205.525 97.8153 202.401C102.924 199.231 105.36 196.754 105.71 196.383C105.846 196.194 106.447 195.261 105.928 194.326C105.599 193.73 104.886 193.665 104.45 193.685C99.1841 198.035 93.3542 201.653 87.1186 204.441C86.9021 204.829 86.6418 205.502 87.0177 206.064Z" fill="#232333"/>
<path d="M63.5626 171.246C64.9784 173.36 67.5285 172.783 67.5285 172.783C67.5285 172.783 71.4667 170.971 76.702 167.726C81.9356 164.481 85.3124 161.746 85.3124 161.746C85.3124 161.746 86.9772 159.707 85.7452 157.482C84.5329 155.29 81.7777 155.943 81.7777 155.943L72.9281 161.529L63.9938 166.979C63.9938 166.979 62.1744 169.163 63.5626 171.246Z" fill="#52BF2E"/>
<path d="M63.0402 169.573L73.8247 163.005L84.5003 156.258C83.2407 155.598 81.7728 155.944 81.7728 155.944L72.9232 161.529L63.9889 166.979C63.9889 166.979 63.0272 168.14 63.0402 169.573Z" fill="#80D362"/>
<path d="M63.5625 171.245C64.9784 173.36 67.5284 172.783 67.5284 172.783C67.5284 172.783 71.4667 170.973 76.7019 167.726C81.9355 164.48 85.3123 161.746 85.3123 161.746C85.3123 161.746 86.9771 159.707 85.7452 157.482C85.6555 157.317 85.5503 157.16 85.4311 157.015C85.2622 157.487 85.0236 157.932 84.7232 158.333C84.7232 158.333 80.9314 161.398 75.0664 165.038C69.1997 168.678 64.7798 170.708 64.7798 170.708C64.2903 170.799 63.7897 170.814 63.2957 170.752C63.3689 170.924 63.4584 171.09 63.5625 171.245Z" fill="#30A010"/>
<path d="M66.7358 174.799C65.2386 174.799 63.2646 174.267 61.9725 172.329C60.2377 169.73 61.5038 166.96 62.5258 165.733C62.6615 165.572 62.8225 165.434 63.0026 165.324L71.9369 159.874L80.7621 154.304C80.9411 154.19 81.1364 154.109 81.3414 154.06C82.8874 153.695 85.9062 153.804 87.4229 156.538C88.9006 159.207 87.7256 161.843 86.7964 162.983C86.7117 163.085 86.6174 163.178 86.5148 163.261C86.3733 163.376 82.9786 166.11 77.7091 169.38C72.4381 172.651 68.4885 174.473 68.3241 174.55C68.2037 174.605 68.08 174.648 67.9498 174.675C67.5509 174.761 67.1438 174.803 66.7358 174.799ZM65.1572 170.164C65.678 170.942 66.5779 170.949 66.9636 170.909C69.9578 169.452 72.8732 167.838 75.6977 166.075C78.536 164.325 81.2797 162.427 83.9175 160.389C84.1128 160.076 84.5229 159.254 84.0705 158.426C83.7125 157.78 82.8891 157.759 82.4627 157.798L73.9467 163.173L65.3232 168.433C65.1035 168.791 64.7455 169.546 65.1556 170.166L65.1572 170.164Z" fill="#000072"/>
<path d="M41.7006 135.348C43.1164 137.462 45.6665 136.883 45.6665 136.883C45.6665 136.883 49.9627 133.335 54.1678 130.725C58.3746 128.116 63.4503 125.848 63.4503 125.848C63.4503 125.848 65.1168 123.809 63.8848 121.584C62.6724 119.392 59.9173 120.044 59.9173 120.044C59.9173 120.044 55.6211 121.13 50.3272 124.416C45.0318 127.701 42.1318 131.081 42.1318 131.081C42.1318 131.081 40.314 133.265 41.7006 135.348Z" fill="#52BF2E"/>
<path d="M41.5588 135.112C41.65 133.734 42.545 132.655 42.545 132.655C42.545 132.655 45.5768 129.127 51.105 125.695C56.6331 122.264 61.1214 121.128 61.1214 121.128C61.1214 121.128 62.4803 120.808 63.7382 121.35C62.4672 119.439 59.9172 120.044 59.9172 120.044C59.9172 120.044 55.6209 121.13 50.3255 124.416C45.03 127.7 42.1317 131.081 42.1317 131.081C42.1317 131.081 40.4457 133.104 41.5588 135.112Z" fill="#80D362"/>
<path d="M42.7305 136.37C44.0893 137.241 45.6662 136.88 45.6662 136.88C45.6662 136.88 49.9625 133.332 54.1692 130.722C58.376 128.11 63.4518 125.843 63.4518 125.843C63.4518 125.843 64.4802 124.583 64.3224 122.967C63.6389 123.241 57.7316 125.641 52.9064 128.64C48.0813 131.638 43.2805 135.879 42.7305 136.37Z" fill="#30A010"/>
<path d="M44.8723 138.901C43.3784 138.901 41.4011 138.367 40.109 136.43C38.3775 133.832 39.6436 131.06 40.6656 129.835C40.8104 129.665 43.8389 126.163 49.3232 122.765C54.8074 119.367 59.2664 118.212 59.4535 118.165C61.0256 117.792 64.046 117.901 65.561 120.638C67.0403 123.307 65.8637 125.94 64.9345 127.08C64.7446 127.312 64.5027 127.498 64.2282 127.62C64.1778 127.643 59.2159 129.869 55.1736 132.377C51.1328 134.884 46.9228 138.349 46.8805 138.383C46.6494 138.575 46.376 138.709 46.0847 138.774C45.6864 138.86 45.2798 138.903 44.8723 138.901ZM43.2938 134.264C43.7348 134.925 44.4606 135.029 44.8951 135.023C46.1156 134.038 49.6438 131.262 53.1638 129.073C56.6854 126.886 60.7408 124.964 62.155 124.31C62.3568 123.922 62.5927 123.226 62.2054 122.528C61.7498 121.703 60.5325 121.898 60.3535 121.931C59.9792 122.033 56.0556 123.135 51.3297 126.066C46.6038 128.998 43.8682 132.025 43.5997 132.328C43.4891 132.474 42.7698 133.48 43.2905 134.264H43.2938Z" fill="#000072"/>
<path d="M76.4953 191.751C78.2822 187.089 87.4492 177.412 95.9619 179.155C106.898 181.4 117.682 198.907 102.927 213.335C88.2775 227.651 61.3153 219.312 69.444 192.093" fill="#5F5F82"/>
<path opacity="0.3" d="M76.9363 190.772C80.5246 189.924 88.9495 181.821 95.7389 183.212C102.582 184.615 109.371 191.997 109.873 200.864C111.614 190.28 103.825 180.765 95.957 179.155C88.0089 177.526 79.4831 185.867 76.9363 190.772Z" fill="white"/>
<path opacity="0.2" d="M102.922 213.333C109.2 207.198 110.855 200.502 109.843 194.658C108.847 198.075 106.803 201.554 103.407 204.874C91.1968 216.806 70.4202 212.995 68.565 195.619C63.691 220.014 88.9348 227.011 102.922 213.333Z" fill="#000072"/>
<path d="M75.5969 191.401C76.5978 185.902 81.667 181.629 86.305 178.989C88.8893 177.616 91.8234 176.706 94.8324 176.936C103.658 177.853 110.434 185.94 111.887 194.448C113.433 203.123 108.654 211.634 101.97 216.78C93.1985 223.789 78.9021 224.512 71.011 215.667C65.1167 209.169 65.1427 199.467 67.6017 191.538C68.4088 189.102 71.9256 190.166 71.2811 192.641C69.2193 199.385 68.9247 207.582 73.8638 213.073C78.6433 218.447 86.7314 219.47 93.332 217.075C97.8561 215.493 101.762 212.339 104.538 208.415C111.319 199.278 107.842 186.511 97.6543 181.847C92.1098 179.362 86.3522 182.941 82.3635 186.804C80.6239 188.495 78.9086 190.257 77.387 192.101C76.7979 192.936 75.4667 192.407 75.5969 191.401ZM240.344 183.935C243.88 187.912 244.731 194.321 240.096 197.886C238.638 199.016 236.883 199.698 235.045 199.849C234.782 199.879 234.516 199.853 234.264 199.774C234.012 199.695 233.779 199.564 233.58 199.39C233.38 199.215 233.217 199.001 233.102 198.761C232.987 198.522 232.922 198.261 232.911 197.995C232.896 197.596 233.004 197.202 233.219 196.865C233.435 196.529 233.748 196.266 234.117 196.113C234.361 196.013 234.625 195.966 234.889 195.974C237.201 196.093 239.554 194.77 240.41 192.549C241.32 190.221 240.287 187.134 238.848 185.146C238.148 184.158 239.532 183.035 240.34 183.932L240.344 183.935ZM248.142 178.555C249.372 179.761 250.336 181.211 250.971 182.812C251.607 184.413 251.9 186.129 251.833 187.85C251.767 189.573 251.34 191.263 250.58 192.811C249.823 194.354 248.749 195.721 247.429 196.822C245.484 198.462 243.025 195.65 244.887 193.907C247.068 192.392 248.692 190.182 248.983 187.47C249.301 184.843 248.479 181.954 246.772 179.914C245.963 178.996 247.247 177.723 248.142 178.555ZM221.525 186.503C224.314 188.093 225.453 191.784 227.788 193.58C229.941 195.447 227.009 198.49 225.102 196.362C223.866 194.855 223.181 193.216 222.553 191.753C221.995 190.488 221.49 189.034 220.527 188.16C219.567 187.445 220.472 185.958 221.525 186.503Z" fill="#000072"/>
<path d="M102.123 181.007C101.251 184.936 98.992 188.596 95.4558 190.557C94.4257 191.087 93.516 189.647 94.4208 188.924C96.839 186.986 98.2028 183.64 98.3102 180.579C98.4599 177.73 102.595 178.185 102.128 181.004L102.123 181.007ZM109.832 188.951C109.51 192.641 105.471 197.304 102.224 198.851C101.166 199.338 100.323 197.847 101.269 197.175C103.42 195.646 106.079 191.579 105.986 188.884C105.886 186.042 110.027 186.109 109.832 188.951ZM140.781 288.072C137.134 287.434 133.225 287.436 129.647 288.438C126.957 289.017 126.246 285.012 128.975 284.617C133.177 284.173 137.359 284.82 141.33 286.213C142.453 286.635 141.948 288.336 140.781 288.072ZM128.874 294.023C127.884 294.974 126.921 296.178 126.514 297.483C126.008 299.265 126.449 301.756 127.974 302.634C130.197 304.163 127.899 307.408 125.751 305.783C122.532 303.148 122.337 297.8 125.058 294.791C125.838 293.886 126.745 293.099 127.751 292.453C127.957 292.314 128.209 292.262 128.454 292.308C128.698 292.353 128.915 292.492 129.058 292.695C129.203 292.898 129.266 293.148 129.232 293.396C129.198 293.643 129.069 293.867 128.874 294.023ZM139.206 296.572C136.983 298.096 135.811 301.875 137.234 304.191C137.642 304.748 138.234 305.14 138.903 305.294C141.32 305.804 140.721 309.54 138.104 309.076C132.98 307.49 132.446 301.428 135.211 297.532C135.823 296.607 138.763 293.525 139.634 295.304C139.732 295.531 139.743 295.786 139.663 296.02C139.584 296.254 139.421 296.451 139.206 296.572Z" fill="#000072"/>
<path d="M218.82 79.6613C218.037 75.2344 218.72 70.6729 220.766 66.67C225.919 56.5738 238.204 52.5965 248.21 57.7976C258.215 62.9987 262.15 75.4008 256.998 85.5003C251.846 95.6014 239.561 99.5738 229.556 94.3727C226.86 92.9725 224.512 90.9862 222.685 88.5597L213.134 87.0788L218.82 79.6613Z" fill="white"/>
<path opacity="0.5" d="M246.415 61.3062C237.068 56.4485 225.733 59.5975 220.081 68.2665C220.343 67.583 220.639 66.9125 220.97 66.2599C226.122 56.1653 238.407 52.1881 248.414 57.3875C258.419 62.5886 262.355 74.9907 257.203 85.0902C256.868 85.744 256.499 86.3801 256.098 86.9958C259.812 77.3163 255.765 66.1672 246.415 61.3062Z" fill="white"/>
<path d="M238.861 98.4688C235.576 98.459 232.335 97.7162 229.373 96.2947C226.404 94.8681 223.789 92.8004 221.715 90.2408L212.861 88.8673C212.551 88.819 212.26 88.6903 212.016 88.4941C211.771 88.2979 211.583 88.0411 211.469 87.7493C211.353 87.4572 211.314 87.1399 211.357 86.8284C211.401 86.5169 211.524 86.2219 211.715 85.9723L216.929 79.1666C216.283 74.5987 217.067 69.9428 219.173 65.8385C224.77 54.8667 238.166 50.5347 249.032 56.1833C253.459 58.4977 256.981 62.2312 259.034 66.7856C261.096 71.3569 261.579 76.4842 260.407 81.3603C259.241 86.2258 256.48 90.5612 252.565 93.6762C248.669 96.7748 243.839 98.4639 238.861 98.4688ZM216.411 85.7574L222.957 86.7762C223.416 86.8478 223.829 87.0951 224.109 87.4678C225.796 89.7027 227.966 91.5287 230.456 92.8105C232.938 94.0865 235.677 94.7828 238.467 94.8468C241.257 94.9108 244.025 94.3408 246.563 93.1799C249.108 92.0145 251.357 90.2901 253.143 88.135C254.936 85.9715 256.222 83.4344 256.907 80.7093C257.594 77.9802 257.664 75.1307 257.11 72.3707C256.559 69.6144 255.399 67.0162 253.714 64.766C252.035 62.5254 249.873 60.6916 247.388 59.4006C238.277 54.6649 227.048 58.2956 222.358 67.4935C220.485 71.1417 219.861 75.3038 220.582 79.3407C220.627 79.5889 220.619 79.8435 220.559 80.0884C220.499 80.3333 220.389 80.5631 220.236 80.763L216.411 85.7574Z" fill="#000072"/>
<path opacity="0.3" d="M218.783 79.4318C220.645 82.9215 223.352 85.889 226.656 88.0634C229.945 90.2309 233.729 91.5306 237.656 91.8417C241.583 92.1527 245.524 91.4648 249.114 89.8421C252.713 88.2151 255.846 85.7092 258.224 82.5547C257.891 83.5645 257.482 84.5471 256.998 85.4938C251.846 95.5899 239.561 99.5672 229.556 94.3662C226.86 92.9661 224.512 90.9798 222.685 88.5532L213.134 87.0723L218.818 79.6613L218.783 79.4302V79.4318Z" fill="#000072"/>
<path d="M232.255 70.2698C234.018 68.4894 236.877 68.8084 238.641 70.5871L238.916 70.8638L239.19 70.5871C240.954 68.8084 243.813 68.4878 245.575 70.2698C246.425 71.127 246.9 72.2853 246.899 73.492C246.9 74.6986 246.425 75.8569 245.575 76.7141L245.302 76.9924L239.758 82.5889C239.647 82.6999 239.516 82.7879 239.372 82.848C239.227 82.9081 239.072 82.939 238.915 82.939C238.759 82.939 238.604 82.9081 238.459 82.848C238.315 82.7879 238.184 82.6999 238.073 82.5889L232.529 76.9924L232.255 76.7158C231.406 75.858 230.93 74.6998 230.93 73.4928C230.93 72.2858 231.406 71.1275 232.255 70.2698Z" fill="#FF0068"/>
</g>
</g>
</g>
</g>
</g>
<defs>
<clipPath id="clip0_5_4153">
<rect width="260.39" height="309.2" fill="white"/>
</clipPath>
<clipPath id="clip1_5_4153">
<rect width="260.39" height="309.21" fill="white"/>
</clipPath>
<clipPath id="clip2_5_4153">
<rect width="260.39" height="309.21" fill="white"/>
</clipPath>
<clipPath id="clip3_5_4153">
<rect width="262.006" height="309.2" fill="white" transform="translate(-0.808105)"/>
</clipPath>
</defs>
</svg>
