<svg width="490" height="489" viewBox="0 0 490 489" fill="none" xmlns="http://www.w3.org/2000/svg">
<g clip-path="url(#clip0_138_171)">
<path d="M243.616 132.142C302.311 132.142 349.896 179.727 349.896 238.423C349.896 297.119 302.311 344.703 243.616 344.703C184.919 344.703 137.335 297.119 137.335 238.423C137.335 179.727 184.919 132.142 243.616 132.142ZM243.616 129.727C183.688 129.727 134.92 178.495 134.92 238.423C134.92 298.351 183.688 347.119 243.616 347.119C303.543 347.119 352.312 298.351 352.312 238.423C352.312 178.495 303.543 129.727 243.616 129.727Z" fill="#F5F2EB"/>
<path d="M243.618 344.703C302.315 344.703 349.898 297.12 349.898 238.423C349.898 179.726 302.315 132.142 243.618 132.142C184.92 132.142 137.337 179.726 137.337 238.423C137.337 297.12 184.92 344.703 243.618 344.703Z" fill="#F5F2EB"/>
<mask id="mask0_138_171" style="mask-type:luminance" maskUnits="userSpaceOnUse" x="137" y="132" width="213" height="213">
<path d="M243.618 344.703C302.315 344.703 349.898 297.12 349.898 238.423C349.898 179.726 302.315 132.142 243.618 132.142C184.92 132.142 137.337 179.726 137.337 238.423C137.337 297.12 184.92 344.703 243.618 344.703Z" fill="white"/>
</mask>
<g mask="url(#mask0_138_171)">
<path d="M197.749 119.871L-72.228 389.872M208.498 119.871L-61.5035 389.872M219.225 119.871L-50.7522 389.872M229.974 119.871L-40.0287 389.872M240.697 119.871L-29.3041 389.872M251.444 119.871L-18.5558 389.872M262.169 119.871L-7.83224 389.872M272.92 119.871L2.91901 389.872M283.645 119.871L13.6426 389.872M294.367 119.871L24.3909 389.872M305.117 119.871L35.1144 389.872M315.843 119.871L45.8667 389.872M326.591 119.871L56.5902 389.872M337.316 119.871L67.3138 389.872M348.063 119.871L78.0611 389.872M358.788 119.871L88.7857 389.872M369.539 119.871L99.5369 389.872M380.263 119.871L110.261 389.872M390.986 119.871L121.009 389.872M401.735 119.871L131.733 389.872M412.462 119.871L142.485 389.872M423.21 119.871L153.209 389.872M433.934 119.871L163.933 389.872M444.681 119.871L174.68 389.872M455.406 119.871L185.405 389.872M466.157 119.871L196.156 389.872M476.882 119.871L206.88 389.872M487.604 119.871L217.628 389.872M498.352 119.871L228.351 389.872M509.08 119.871L239.102 389.872M519.828 119.871L249.827 389.872M530.553 119.871L260.552 389.872" stroke="black" stroke-width="1.20809" stroke-miterlimit="10"/>
</g>
<path d="M243.618 344.703C302.315 344.703 349.898 297.12 349.898 238.423C349.898 179.726 302.315 132.142 243.618 132.142C184.92 132.142 137.337 179.726 137.337 238.423C137.337 297.12 184.92 344.703 243.618 344.703Z" stroke="black" stroke-width="1.20809" stroke-linecap="round" stroke-linejoin="round"/>
<path d="M243.619 333.714C291.804 333.714 330.866 294.652 330.866 246.467C330.866 198.282 291.804 159.22 243.619 159.22C195.433 159.22 156.372 198.282 156.372 246.467C156.372 294.652 195.433 333.714 243.619 333.714Z" fill="black" stroke="black" stroke-width="1.20809" stroke-linecap="round" stroke-linejoin="round"/>
<path d="M243.619 325.669C291.804 325.669 330.866 286.608 330.866 238.424C330.866 190.238 291.804 151.177 243.619 151.177C195.433 151.177 156.372 190.238 156.372 238.424C156.372 286.608 195.433 325.669 243.619 325.669Z" fill="white" stroke="black" stroke-width="1.20809" stroke-linecap="round" stroke-linejoin="round"/>
</g>
<g clip-path="url(#clip1_138_171)">
<g clip-path="url(#clip2_138_171)">
<g clip-path="url(#clip3_138_171)">
<g clip-path="url(#clip4_138_171)">
<mask id="mask1_138_171" style="mask-type:luminance" maskUnits="userSpaceOnUse" x="158" y="169" width="173" height="230">
<path d="M158.347 169.926H330.327V398.013H158.347V169.926Z" fill="white"/>
</mask>
<g mask="url(#mask1_138_171)">
<path opacity="0.2" d="M249.717 398.013C283.197 398.013 310.338 392.447 310.338 385.583C310.338 378.717 283.197 373.151 249.718 373.151C216.237 373.151 189.097 378.717 189.097 385.583C189.097 392.447 216.238 398.013 249.717 398.013Z" fill="#000072"/>
<path d="M213.854 296.384L212.415 302.558L207.017 325.731L206.993 325.845C205.484 325.498 203.982 325.117 202.49 324.704L202.16 324.613C163.317 313.794 156.291 288.302 162.445 280.067C164.365 277.494 166.695 276.109 169.01 275.432C171.184 274.802 173.494 274.814 175.661 275.468C178.23 276.245 180.502 277.785 182.175 279.883C187.993 287.106 199.062 291.779 206.449 294.249C210.785 295.697 213.854 296.384 213.854 296.384Z" fill="#60547B"/>
<path opacity="0.3" d="M206.563 303.518C203.224 312.807 202.163 324.614 202.163 324.614C163.316 313.794 156.29 288.303 162.444 280.067C163.38 297.126 179.187 308.065 189.526 313.427C193.68 315.582 198.804 313.868 200.771 309.592C202.296 306.28 204.101 304.104 205.455 302.794C205.536 302.712 205.637 302.652 205.749 302.62C205.86 302.589 205.977 302.586 206.09 302.613C206.202 302.641 206.306 302.696 206.39 302.775C206.475 302.854 206.538 302.954 206.572 303.064C206.621 303.212 206.617 303.372 206.563 303.518Z" fill="#000072"/>
<path d="M206.989 327.574C206.86 327.574 206.732 327.559 206.605 327.53C172.54 319.64 162.869 302.206 160.293 295.08C158.003 288.749 158.296 282.746 161.076 279.023C163.022 276.414 165.53 274.647 168.529 273.771C173.903 272.2 179.78 274.171 183.5 278.79C192.242 289.647 214.001 294.643 214.22 294.693C214.442 294.742 214.652 294.835 214.838 294.967C215.023 295.099 215.18 295.267 215.299 295.461C215.42 295.655 215.502 295.871 215.539 296.097C215.576 296.322 215.568 296.553 215.515 296.775L208.654 326.239C208.567 326.617 208.355 326.955 208.052 327.198C207.751 327.441 207.376 327.573 206.989 327.574ZM172.258 276.7C171.32 276.699 170.386 276.832 169.486 277.095C167.212 277.757 165.303 279.107 163.811 281.105C161.765 283.846 161.65 288.747 163.51 293.894C165.019 298.067 168.502 304.346 176.534 310.564C184.079 316.405 193.888 320.84 205.716 323.764L211.797 297.654C206.29 296.218 188.947 291.034 180.846 280.974C178.635 278.232 175.46 276.7 172.258 276.7Z" fill="#000072"/>
<path d="M295.838 358.509C293.094 368.448 285.399 376.272 275.551 379.044C269.428 380.763 261.107 382.072 249.972 382.072C238.837 382.072 230.518 380.763 224.392 379.044C214.544 376.272 206.847 368.448 204.105 358.509C200.82 346.638 200.963 334.5 202.157 324.616C203.679 311.969 206.93 303.013 206.93 303.013V291.923H292.59L293.015 303.013C293.015 303.013 296.264 311.969 297.786 324.616C298.982 334.5 299.123 346.641 295.838 358.509Z" fill="white"/>
<path d="M297.787 324.62C288.078 326.632 278.254 328.041 268.37 328.84C238.959 331.247 216.449 327.675 207.012 325.729C205.496 325.421 203.986 325.078 202.485 324.702L202.157 324.61C202.912 318.301 204.189 312.064 205.974 305.966C206.46 304.33 206.722 302.635 206.753 300.928C206.767 300.454 206.759 299.979 206.734 299.505L206.44 294.244L206.314 291.917H292.587L292.595 292.184L292.938 301.066L293.012 303.007C293.012 303.007 296.265 311.969 297.787 324.62Z" fill="#60547B"/>
<path opacity="0.3" d="M295.842 348.628C293.097 358.568 285.401 366.393 275.555 369.164C269.432 370.883 261.109 372.193 249.975 372.193C238.84 372.193 230.52 370.883 224.396 369.164C214.547 366.393 206.85 358.568 204.107 348.628C202.578 343.099 201.797 337.512 201.514 332.121C201.098 340.337 201.614 349.498 204.107 358.509C206.854 368.448 214.548 376.272 224.396 379.044C230.519 380.763 238.84 382.072 249.975 382.072C261.111 382.072 269.429 380.763 275.555 379.044C285.401 376.272 293.1 368.448 295.842 358.509C298.335 349.498 298.852 340.341 298.434 332.122C298.152 337.514 297.373 343.099 295.842 348.628Z" fill="#000072"/>
<path d="M293.479 302.843C294.622 304.969 295.471 307.189 296.217 309.45C296.959 311.71 297.569 314.012 298.041 316.343C298.974 321.014 299.612 325.74 299.95 330.492C300.617 339.994 300.034 349.686 297.531 359.007C296.217 363.832 293.771 368.273 290.397 371.963C287.037 375.639 282.843 378.454 278.168 380.172C275.794 381.012 273.516 381.554 271.167 382.053C268.819 382.553 266.481 382.91 264.127 383.202C259.416 383.78 254.688 384.021 249.971 384.037C245.254 384.027 240.525 383.801 235.813 383.232C233.449 382.952 231.097 382.574 228.765 382.099C226.427 381.616 224.136 381.068 221.755 380.232C217.058 378.523 212.844 375.704 209.472 372.016C206.093 368.315 203.639 363.868 202.311 359.037C199.791 349.703 199.194 339.997 199.85 330.481C200.008 328.095 200.26 325.724 200.577 323.361C200.894 320.999 201.266 318.643 201.765 316.314C202.264 313.985 202.897 311.687 203.661 309.432C204.045 308.305 204.46 307.188 204.934 306.091C205.392 304.983 205.915 303.902 206.499 302.855C206.553 302.76 206.639 302.687 206.742 302.649C206.844 302.61 206.957 302.609 207.06 302.644C207.165 302.681 207.253 302.753 207.309 302.848C207.366 302.943 207.387 303.055 207.369 303.164V303.176C206.641 307.824 205.823 312.394 205.055 316.958C204.267 321.517 203.628 326.104 203.363 330.715C202.8 339.921 203.463 349.223 205.909 358.022C207.117 362.256 209.302 366.146 212.289 369.381C215.247 372.61 218.942 375.075 223.059 376.566C225.074 377.278 227.333 377.819 229.541 378.276C231.77 378.728 234.018 379.086 236.277 379.35C240.807 379.89 245.389 380.105 249.978 380.108C254.568 380.112 259.151 379.911 263.683 379.379C265.944 379.12 268.194 378.768 270.426 378.322C272.633 377.869 274.896 377.334 276.917 376.626C281.049 375.14 284.761 372.677 287.736 369.447C290.735 366.201 292.93 362.298 294.147 358.05C296.614 349.242 297.292 339.924 296.74 330.708C296.468 326.091 295.87 321.49 295.043 316.932L293.8 310.082C293.382 307.796 292.948 305.495 292.557 303.187V303.17C292.537 303.053 292.559 302.933 292.618 302.83C292.678 302.728 292.772 302.65 292.884 302.61C292.996 302.572 293.118 302.574 293.227 302.618C293.337 302.661 293.428 302.742 293.483 302.847L293.479 302.843Z" fill="#000072"/>
<path d="M201.87 339.903C201.87 339.903 211.796 338.393 219.142 350.202C223.347 356.961 222.948 364.963 221.787 370.692C221.332 372.926 220.347 375.018 218.913 376.791C217.486 378.557 215.651 379.949 213.567 380.85L202.169 385.783C195.192 388.803 186.993 387.144 181.937 381.428C179.125 378.25 176.516 373.538 176.05 366.461C174.537 343.454 201.87 339.903 201.87 339.903Z" fill="#60547B"/>
<path d="M192.117 381.323C198.202 381.06 202.848 374.098 202.493 365.774C202.14 357.451 196.919 350.917 190.833 351.182C184.749 351.445 180.103 358.406 180.458 366.729C180.812 375.054 186.032 381.587 192.117 381.323Z" fill="white"/>
<path opacity="0.3" d="M219.145 350.202C216.272 345.582 213.004 343.006 210.09 341.578C210.795 342.438 211.443 343.344 212.029 344.289C215.762 350.291 215.408 357.397 214.377 362.487C213.973 364.471 213.098 366.329 211.824 367.903C210.557 369.471 208.928 370.708 207.077 371.508L196.954 375.889C190.757 378.57 183.476 377.098 178.985 372.022C177.885 370.778 176.945 369.403 176.186 367.927C176.891 374.199 179.326 378.479 181.94 381.433C186.996 387.149 195.194 388.807 202.172 385.787L213.57 380.855C215.654 379.954 217.489 378.561 218.916 376.796C220.349 375.023 221.334 372.931 221.788 370.697C222.951 364.962 223.35 356.961 219.145 350.202Z" fill="#000072"/>
<path opacity="0.6" d="M177.517 369.425C176.005 346.416 203.335 342.866 203.335 342.866C203.335 342.866 213.262 341.357 220.609 353.167C220.673 353.27 220.727 353.376 220.79 353.481C220.336 352.342 219.785 351.245 219.141 350.202C211.796 338.393 201.87 339.903 201.87 339.903C201.87 339.903 174.536 343.454 176.05 366.461C176.371 371.331 177.706 375.081 179.424 377.98C178.444 375.6 177.74 372.782 177.517 369.425Z" fill="white"/>
<path d="M195.002 389.006C189.605 389.006 184.366 386.764 180.662 382.583C176.886 378.317 174.761 372.932 174.344 366.578C173.679 356.459 178.247 348.32 187.557 343.05C194.324 339.216 201.184 338.254 201.64 338.193C202.337 338.092 212.844 336.823 220.595 349.286C225.135 356.586 224.663 365.147 223.467 371.044C222.957 373.55 221.851 375.897 220.243 377.886C218.642 379.868 216.583 381.432 214.244 382.443L202.846 387.376C200.37 388.45 197.701 389.005 195.002 389.006ZM202.092 341.617C202.028 341.625 195.43 342.527 189.152 346.108C181.017 350.749 177.184 357.56 177.763 366.346C178.126 371.911 179.963 376.598 183.217 380.277C187.742 385.394 195.09 386.968 201.496 384.195L212.894 379.261C214.723 378.47 216.333 377.248 217.586 375.699C218.844 374.143 219.71 372.308 220.11 370.347C221.18 365.069 221.63 357.45 217.694 351.122C211.083 340.493 202.478 341.562 202.118 341.613H202.094L202.092 341.617Z" fill="#000072"/>
<path d="M298.074 339.903C298.074 339.903 288.149 338.393 280.802 350.202C276.597 356.961 276.996 364.963 278.157 370.692C278.612 372.926 279.598 375.018 281.031 376.791C282.459 378.557 284.294 379.95 286.38 380.85L297.778 385.783C304.755 388.803 312.952 387.144 318.008 381.428C320.821 378.25 323.43 373.538 323.894 366.461C325.408 343.454 298.074 339.903 298.074 339.903Z" fill="#60547B"/>
<path d="M319.454 366.704C319.807 358.38 315.161 351.418 309.076 351.155C302.991 350.891 297.772 357.425 297.417 365.749C297.063 374.072 301.709 381.033 307.794 381.298C313.879 381.561 319.099 375.027 319.454 366.704Z" fill="white"/>
<path opacity="0.3" d="M280.802 350.202C283.675 345.582 286.943 343.006 289.857 341.578C289.151 342.438 288.504 343.344 287.917 344.289C284.184 350.291 284.538 357.397 285.569 362.487C285.973 364.471 286.848 366.328 288.121 367.903C289.389 369.471 291.018 370.708 292.869 371.508L302.993 375.889C309.19 378.57 316.471 377.098 320.961 372.022C322.061 370.778 323.001 369.402 323.76 367.925C323.055 374.198 320.62 378.476 318.007 381.431C312.951 387.146 304.753 388.805 297.775 385.786L286.377 380.85C284.293 379.95 282.458 378.557 281.031 376.791C279.597 375.018 278.612 372.926 278.157 370.692C276.995 364.962 276.598 356.961 280.802 350.202Z" fill="#000072"/>
<path opacity="0.6" d="M322.424 369.425C323.936 346.416 296.606 342.866 296.606 342.866C296.606 342.866 286.679 341.357 279.333 353.167C279.27 353.27 279.216 353.376 279.151 353.481C279.605 352.342 280.157 351.245 280.8 350.202C288.146 338.393 298.073 339.903 298.073 339.903C298.073 339.903 325.407 343.454 323.892 366.461C323.572 371.331 322.237 375.081 320.519 377.98C321.497 375.6 322.205 372.782 322.424 369.425Z" fill="white"/>
<path d="M304.949 389.006C302.25 389.004 299.58 388.447 297.105 387.372L285.706 382.439C283.367 381.429 281.309 379.865 279.708 377.882C278.1 375.893 276.994 373.546 276.484 371.04C275.288 365.144 274.816 356.583 279.355 349.284C287.107 336.818 297.614 338.089 298.311 338.189C298.765 338.25 305.626 339.213 312.394 343.046C321.703 348.32 326.272 356.456 325.607 366.575C325.189 372.928 323.061 378.313 319.289 382.58C315.587 386.764 310.345 389.006 304.949 389.006ZM296.877 341.562C294.402 341.562 287.663 342.429 282.257 351.122C278.321 357.453 278.77 365.068 279.841 370.347C280.24 372.308 281.106 374.143 282.363 375.699C283.617 377.248 285.227 378.471 287.055 379.262L298.455 384.195C304.862 386.967 312.207 385.392 316.732 380.277C319.987 376.598 321.823 371.911 322.187 366.346C322.767 357.527 318.907 350.702 310.715 346.061C304.434 342.503 297.923 341.625 297.858 341.618H297.829C297.513 341.578 297.195 341.559 296.877 341.562Z" fill="#000072"/>
<path d="M303.582 337.701C297.128 350.905 282.472 366.695 269.211 357.54C259.882 351.094 263.451 338.027 268.369 328.844C270.445 324.976 272.755 321.8 274.443 320.095C280.147 314.34 280.725 305.478 280.725 305.478L280.44 304.218L278.634 296.269L292.598 292.193L298.345 290.518C300.773 292.415 302.74 294.44 304.325 296.565C314.35 310.008 308.716 327.189 303.582 337.701Z" fill="#60547B"/>
<path opacity="0.6" d="M280.405 307.774C280.405 307.774 283.462 315.838 276.644 322.261C276.644 322.261 265.961 336.712 265.508 350.016C265.508 350.016 261.871 338.547 271.871 321.573C271.871 321.573 280.305 315.078 280.405 307.774Z" fill="white"/>
<path opacity="0.3" d="M298.349 290.513L294.757 291.561C307.318 303.643 301.896 320.658 296.987 330.7C291.355 342.22 278.57 355.995 267.004 348.007C265.419 346.913 264.264 345.599 263.459 344.135C263.095 349.387 264.523 354.301 269.214 357.539C282.473 366.695 297.124 350.907 303.578 337.701C309.532 325.53 316.144 304.424 298.349 290.513Z" fill="#000072"/>
<path d="M281.082 305.503C281.356 307.208 281.275 308.903 281.017 310.586C280.747 312.282 280.258 313.935 279.563 315.505C278.85 317.104 277.93 318.603 276.828 319.963C276.285 320.596 275.728 321.216 275.157 321.824C274.672 322.388 274.187 322.972 273.734 323.595C271.899 326.073 270.312 328.81 268.966 331.625C267.644 334.451 266.538 337.388 265.898 340.375C265.261 343.347 265.038 346.409 265.699 349.162C266.312 351.882 267.93 354.271 270.231 355.847C271.389 356.653 272.66 357.282 274.002 357.712C275.32 358.125 276.701 358.302 278.081 358.235C280.856 358.117 283.621 357.006 286.143 355.439C288.667 353.872 290.983 351.809 293.082 349.548C295.186 347.254 297.081 344.776 298.744 342.145C299.585 340.832 300.371 339.485 301.1 338.108C301.827 336.715 302.506 335.299 303.136 333.861C304.412 330.993 305.474 328.035 306.312 325.01C307.122 321.998 307.708 318.934 307.882 315.861C308.056 312.79 307.85 309.721 307.129 306.784C306.794 305.307 306.27 303.888 305.68 302.503C305.093 301.118 304.317 299.815 303.504 298.545C301.777 296.03 299.688 293.784 297.305 291.879L297.295 291.872C296.947 291.584 296.725 291.173 296.676 290.724C296.626 290.276 296.752 289.826 297.028 289.469C297.301 289.113 297.704 288.879 298.149 288.818C298.593 288.758 299.044 288.875 299.403 289.146C302.076 291.201 304.512 293.642 306.505 296.455C307.458 297.891 308.352 299.375 309.057 300.959C309.76 302.543 310.373 304.17 310.784 305.847C311.652 309.198 311.928 312.665 311.77 316.069C311.613 319.47 311.036 322.826 310.171 326.069C309.293 329.293 308.176 332.448 306.831 335.507C306.168 337.036 305.454 338.543 304.69 340.024C303.916 341.51 303.076 342.96 302.171 344.371C300.372 347.203 298.325 349.87 296.053 352.339C293.758 354.801 291.213 357.085 288.265 358.909C286.78 359.841 285.199 360.612 283.55 361.208C281.849 361.821 280.066 362.173 278.26 362.251C276.423 362.324 274.588 362.073 272.837 361.511C271.114 360.947 269.486 360.127 268.007 359.079C264.934 356.93 262.783 353.703 261.982 350.039C261.589 348.285 261.442 346.486 261.545 344.692C261.643 342.958 261.89 341.236 262.288 339.547C262.672 337.89 263.167 336.262 263.77 334.672C264.357 333.097 265.023 331.553 265.764 330.045C267.254 327.045 268.966 324.18 271.016 321.49C271.523 320.816 272.078 320.161 272.658 319.513C273.32 318.821 273.748 318.357 274.248 317.796C275.194 316.672 275.964 315.394 276.688 314.073C278.127 311.419 279.247 308.506 280.382 305.455L280.392 305.431C280.421 305.357 280.473 305.294 280.54 305.252C280.608 305.21 280.687 305.191 280.766 305.198C280.846 305.207 280.92 305.241 280.978 305.296C281.037 305.351 281.075 305.423 281.088 305.502L281.082 305.503Z" fill="#000072"/>
<path opacity="0.3" d="M304.329 296.562C300.721 298.35 296.874 299.837 292.944 301.071C288.839 302.352 284.666 303.403 280.443 304.218C264.316 307.39 250.08 307.177 250.08 307.177C250.08 307.177 231.279 307.459 212.415 302.559C210.515 302.072 208.63 301.53 206.761 300.933C192.735 296.437 179.724 288.721 175.661 275.468C178.23 276.245 180.502 277.785 182.176 279.883C187.994 287.106 199.063 291.779 206.448 294.249L206.322 291.923H292.595L292.604 292.19L298.351 290.515C300.776 292.416 302.745 294.433 304.329 296.562Z" fill="#000072"/>
<path d="M220.188 196.131C220.188 209.647 209.332 220.605 195.94 220.605C192.75 220.602 189.592 219.967 186.649 218.737C183.706 217.506 181.036 215.705 178.793 213.437C174.238 208.83 171.684 202.611 171.687 196.133C171.687 182.612 182.544 171.654 195.941 171.654C199.125 171.654 202.279 172.288 205.221 173.518C208.167 174.751 210.841 176.554 213.088 178.824C215.343 181.101 217.129 183.799 218.345 186.765C219.563 189.738 220.189 192.92 220.188 196.133V196.131Z" fill="#60547B"/>
<path opacity="0.3" d="M220.192 196.131C220.192 209.647 209.335 220.604 195.944 220.604C190.072 220.607 184.401 218.462 180.002 214.572C184.941 201.507 194.199 186.574 211.513 177.365C214.238 179.666 216.425 182.537 217.92 185.775C219.421 189.021 220.196 192.556 220.192 196.133V196.131Z" fill="#000072"/>
<path opacity="0.6" d="M194.471 176.1C198.121 176.098 201.724 176.928 205.006 178.525C208.298 180.127 211.185 182.453 213.451 185.328C215.726 188.214 217.324 191.574 218.128 195.159C218.934 198.75 218.927 202.478 218.107 206.065C219.747 202.336 220.438 198.259 220.118 194.199C219.799 190.138 218.48 186.219 216.277 182.793C214.083 179.381 211.07 176.572 207.514 174.622C203.969 172.678 199.991 171.659 195.948 171.658C184.422 171.658 174.786 179.769 172.312 190.644C176.085 182.075 184.586 176.1 194.471 176.1Z" fill="white"/>
<path d="M195.94 222.333C181.624 222.333 169.977 210.579 169.977 196.129C169.977 181.68 181.625 169.926 195.94 169.926C210.256 169.926 221.904 181.681 221.904 196.129C221.904 210.578 210.256 222.333 195.94 222.333ZM195.94 173.384C183.513 173.384 173.403 183.588 173.403 196.129C173.403 208.671 183.515 218.877 195.94 218.877C208.366 218.877 218.478 208.672 218.478 196.129C218.478 183.587 208.368 173.384 195.94 173.384Z" fill="#000072"/>
<path d="M279.961 196.131C279.961 209.647 290.817 220.605 304.209 220.605C307.399 220.602 310.557 219.967 313.5 218.737C316.443 217.506 319.113 215.705 321.356 213.437C325.911 208.83 328.465 202.611 328.462 196.133C328.462 182.612 317.606 171.654 304.209 171.654C301.025 171.654 297.871 172.288 294.929 173.518C291.982 174.751 289.309 176.554 287.061 178.824C284.807 181.101 283.021 183.8 281.806 186.765C280.587 189.738 279.96 192.92 279.961 196.133V196.131Z" fill="#60547B"/>
<path opacity="0.3" d="M279.961 196.131C279.961 209.647 290.817 220.604 304.209 220.604C310.081 220.607 315.752 218.462 320.151 214.572C315.211 201.507 305.956 186.574 288.64 177.365C285.915 179.666 283.728 182.537 282.233 185.775C280.732 189.021 279.957 192.556 279.961 196.133V196.131Z" fill="#000072"/>
<path opacity="0.6" d="M305.677 176.1C302.03 176.1 298.43 176.929 295.146 178.528C291.855 180.132 288.969 182.458 286.704 185.333C284.43 188.219 282.833 191.577 282.029 195.162C281.223 198.752 281.229 202.478 282.048 206.066C280.409 202.337 279.718 198.26 280.038 194.2C280.357 190.139 281.677 186.22 283.879 182.794C286.074 179.382 289.087 176.573 292.644 174.622C296.189 172.678 300.166 171.659 304.208 171.658C315.735 171.658 325.371 179.769 327.845 190.644C324.066 182.075 315.567 176.1 305.677 176.1Z" fill="white"/>
<path d="M304.214 222.333C289.899 222.333 278.251 210.579 278.251 196.129C278.251 181.68 289.899 169.926 304.214 169.926C318.53 169.926 330.178 181.681 330.178 196.129C330.178 210.578 318.53 222.333 304.214 222.333ZM304.214 173.384C291.788 173.384 281.678 183.588 281.678 196.129C281.678 208.671 291.788 218.877 304.214 218.877C316.641 218.877 326.751 208.672 326.751 196.129C326.751 183.587 316.641 173.384 304.214 173.384Z" fill="#000072"/>
<path d="M320.611 240.605C320.611 240.605 319.107 173.773 250.076 173.773C181.045 173.773 179.539 240.605 179.539 240.605C150.929 303.718 250.076 302.232 250.076 302.232C250.076 302.232 349.223 303.718 320.611 240.605Z" fill="white"/>
<path d="M250.57 302.467H250.07C249.941 302.467 236.208 302.638 220.647 299.695C206.259 296.974 187.318 290.962 178.784 277.766C172.415 267.918 172.595 255.394 179.313 240.55C179.346 239.541 180.028 223.205 188.719 207.08C193.967 197.344 201.062 189.585 209.809 184.021C220.741 177.068 234.285 173.543 250.073 173.543C265.863 173.543 279.411 177.068 290.34 184.021C299.087 189.585 306.182 197.344 311.431 207.08C320.121 223.204 320.804 239.54 320.838 240.55C327.556 255.396 327.734 267.914 321.366 277.763C312.832 290.959 293.891 296.973 279.505 299.691C265.611 302.325 253.179 302.467 250.57 302.467ZM250.07 302.009C250.214 302.009 263.906 302.178 279.426 299.243C293.723 296.537 312.539 290.573 320.984 277.512C327.267 267.796 327.074 255.411 320.402 240.701L320.383 240.61C320.383 240.442 319.902 223.752 311.019 207.283C302.831 192.1 285.614 174.002 250.073 174.002C214.533 174.002 197.313 192.1 189.125 207.283C180.246 223.752 179.769 240.442 179.762 240.61L179.742 240.701C173.073 255.411 172.879 267.796 179.162 277.512C187.606 290.573 206.422 296.537 220.719 299.243C236.239 302.176 249.933 302.008 250.07 302.006V302.009Z" fill="#000072"/>
<path d="M222.576 251.365C222.576 251.365 226.343 238.924 233.729 230.274C237.729 225.594 238.402 218.762 235.027 213.603C232.88 210.322 229.118 207.698 222.573 207.698C205.127 207.698 192.797 229.892 192.448 243.562C192.099 257.233 200.125 263.656 205.592 264.14C211.057 264.625 219.668 262.988 222.576 251.365ZM277.579 251.365C277.579 251.365 273.813 238.924 266.426 230.274C262.426 225.594 261.751 218.762 265.128 213.603C267.275 210.322 271.037 207.698 277.582 207.698C295.029 207.698 307.357 229.892 307.705 243.562C308.054 257.233 300.031 263.656 294.564 264.14C289.097 264.625 280.486 262.988 277.579 251.365Z" fill="#60547B"/>
<path opacity="0.3" d="M250.074 302.237C250.074 302.237 153.273 303.685 178.574 242.834C165.103 293.282 250.074 292.196 250.074 292.196C250.074 292.196 336.517 293.149 320.832 241.106C348.696 303.71 250.074 302.237 250.074 302.237Z" fill="#000072"/>
<path opacity="0.3" d="M267.015 248.872C266.915 248.743 266.781 248.645 266.627 248.589C266.474 248.534 266.308 248.523 266.148 248.558C265.988 248.594 265.841 248.675 265.726 248.792C265.61 248.909 265.531 249.056 265.497 249.217C264.982 251.53 263.548 255.358 259.708 255.296C254.213 255.205 255.129 246.801 255.129 246.801H245.007C245.007 246.801 245.922 255.208 240.427 255.296C236.587 255.357 235.154 251.53 234.639 249.216C234.603 249.056 234.523 248.91 234.407 248.794C234.292 248.678 234.146 248.597 233.987 248.56C233.828 248.523 233.662 248.533 233.508 248.589C233.355 248.644 233.22 248.742 233.121 248.871C231.795 250.569 230.056 253.679 231.355 257.233C233.318 262.603 240.083 263.7 240.083 263.7L250.07 257.145L260.054 263.696C260.054 263.696 266.814 262.6 268.781 257.229C270.077 253.68 268.338 250.571 267.015 248.872Z" fill="#000072"/>
<path d="M260.245 239.035C256.545 236.897 250.077 237.016 250.077 237.016C250.077 237.016 243.609 236.894 239.908 239.035C238.678 239.747 238.181 241.294 238.698 242.627C239.79 245.419 242.723 250.107 250.077 250.107C257.431 250.107 260.362 245.419 261.455 242.627C261.977 241.294 261.477 239.748 260.245 239.035Z" fill="#000072"/>
<path d="M252.021 247.795C252.048 248.042 252.058 248.191 252.07 248.383L252.093 248.919C252.102 249.273 252.105 249.626 252.093 249.977C252.065 250.684 251.996 251.388 251.886 252.087C251.652 253.492 251.235 254.919 250.51 256.265C250.137 256.949 249.688 257.589 249.173 258.173C248.643 258.767 248.034 259.284 247.363 259.712C246.701 260.129 245.991 260.464 245.247 260.709C244.532 260.935 243.795 261.082 243.049 261.148C241.641 261.263 240.225 261.185 238.839 260.917C238.124 260.779 237.425 260.567 236.754 260.285C236.047 259.998 235.384 259.614 234.784 259.143C233.558 258.188 232.616 256.782 232.313 255.307C232.161 254.591 232.133 253.854 232.229 253.127C232.315 252.419 232.537 251.734 232.883 251.109C232.925 251.034 232.989 250.974 233.066 250.935C233.144 250.897 233.23 250.883 233.316 250.895C233.401 250.908 233.481 250.946 233.544 251.005C233.607 251.064 233.651 251.14 233.669 251.225L233.682 251.28C233.955 252.49 234.265 253.615 234.704 254.541C235.143 255.467 235.704 256.221 236.514 256.724C236.927 256.987 237.375 257.188 237.844 257.323C238.342 257.475 238.853 257.579 239.37 257.634C240.447 257.76 241.537 257.74 242.609 257.578C243.1 257.496 243.583 257.37 244.052 257.2C245.373 256.691 246.448 255.692 247.052 254.411C247.503 253.471 247.808 252.471 247.961 251.439C248.049 250.898 248.107 250.35 248.133 249.801C248.145 249.527 248.157 249.252 248.157 248.976V248.569L248.141 248.217L248.136 248.096C248.112 247.583 248.286 247.079 248.623 246.693C248.958 246.308 249.431 246.07 249.94 246.031C250.449 245.992 250.953 246.154 251.343 246.484C251.733 246.813 251.982 247.285 252.035 247.796H252.022L252.021 247.795Z" fill="#000072"/>
<path d="M252.024 248.216L252.009 248.569V248.976C252.009 249.25 252.021 249.526 252.034 249.801C252.06 250.35 252.118 250.897 252.204 251.438C252.357 252.47 252.663 253.471 253.114 254.409C253.719 255.69 254.793 256.689 256.115 257.199C256.583 257.37 257.066 257.495 257.558 257.577C258.63 257.74 259.718 257.76 260.795 257.633C261.312 257.578 261.824 257.474 262.322 257.323C262.789 257.187 263.234 256.985 263.644 256.723C264.454 256.219 265.015 255.467 265.454 254.54C265.894 253.613 266.203 252.488 266.475 251.28L266.487 251.226C266.507 251.142 266.551 251.066 266.614 251.007C266.677 250.949 266.756 250.91 266.841 250.897C266.926 250.884 267.013 250.897 267.091 250.935C267.168 250.972 267.233 251.033 267.275 251.108C267.62 251.732 267.842 252.418 267.928 253.126C268.025 253.852 267.997 254.59 267.846 255.306C267.542 256.781 266.599 258.187 265.374 259.142C264.774 259.613 264.111 259.997 263.404 260.284C262.732 260.566 262.033 260.778 261.318 260.915C259.932 261.184 258.515 261.262 257.108 261.147C256.362 261.081 255.625 260.934 254.911 260.708C254.167 260.464 253.457 260.129 252.795 259.712C252.123 259.284 251.514 258.766 250.985 258.172C250.47 257.587 250.021 256.947 249.648 256.263C248.921 254.918 248.505 253.491 248.273 252.086C248.162 251.387 248.093 250.683 248.065 249.976C248.05 249.623 248.05 249.271 248.065 248.918L248.088 248.382C248.1 248.19 248.108 248.04 248.135 247.795C248.188 247.286 248.436 246.817 248.827 246.487C249.216 246.159 249.718 245.996 250.226 246.034C250.734 246.072 251.206 246.308 251.542 246.691C251.879 247.075 252.055 247.575 252.034 248.088L252.024 248.216Z" fill="#000072"/>
<path d="M250.077 250.6C250.077 251.133 250.057 251.647 250.028 252.131C249.991 251.622 249.973 251.111 249.973 250.6H250.077Z" fill="#222A66"/>
<path d="M249.799 252.147C249.763 251.632 249.745 251.116 249.745 250.6V250.371H250.303V250.6C250.303 251.088 250.285 251.593 250.253 252.144L249.799 252.147Z" fill="#000072"/>
<path d="M250.073 276.123H250.025C244.226 276.123 241.017 273.492 239.253 270.311C236.553 265.43 237.253 259.247 237.253 259.247C237.253 259.247 249.175 263.233 250.025 251.278C250.872 263.232 262.793 259.247 262.793 259.247C262.793 259.247 264.716 276.083 250.073 276.123Z" fill="#000072"/>
<path d="M250.076 264.14C242.433 264.14 239.257 270.312 239.257 270.312C241.023 273.492 244.232 276.123 250.029 276.123H250.127C255.927 276.123 259.136 273.492 260.899 270.311C260.897 270.311 257.72 264.14 250.076 264.14Z" fill="#FF4379"/>
<path d="M250.028 277.85C245.525 277.85 241.961 276.402 239.437 273.544C234.593 268.058 235.516 259.415 235.556 259.048C235.585 258.793 235.671 258.549 235.805 258.331C235.94 258.113 236.122 257.928 236.337 257.788C236.551 257.65 236.794 257.562 237.047 257.53C237.299 257.499 237.556 257.524 237.798 257.605C237.843 257.618 242.73 259.191 245.757 256.973C247.243 255.884 248.098 253.97 248.311 251.277C248.281 250.816 248.267 250.355 248.268 249.893C248.278 249.429 248.468 248.987 248.797 248.661C249.125 248.337 249.567 248.156 250.028 248.156C250.489 248.156 250.931 248.337 251.259 248.661C251.588 248.987 251.778 249.429 251.788 249.893C251.788 250.368 251.775 250.83 251.745 251.276C251.956 253.972 252.813 255.884 254.301 256.972C257.327 259.191 262.209 257.615 262.262 257.603C262.503 257.523 262.76 257.498 263.013 257.531C263.265 257.563 263.507 257.652 263.721 257.79C263.936 257.929 264.117 258.114 264.252 258.331C264.387 258.548 264.471 258.793 264.5 259.047C264.541 259.415 265.464 268.06 260.619 273.544C258.094 276.402 254.532 277.85 250.028 277.85ZM238.892 261.392C238.925 263.907 239.392 268.306 242.005 271.254C243.85 273.337 246.551 274.392 250.029 274.392C253.507 274.392 256.206 273.337 258.051 271.255C260.664 268.307 261.131 263.909 261.162 261.392C258.869 261.766 255.196 261.891 252.304 259.783C251.392 259.117 250.62 258.278 250.032 257.314C249.443 258.278 248.671 259.117 247.758 259.783C244.861 261.891 241.189 261.77 238.893 261.394L238.892 261.392Z" fill="#000072"/>
<path d="M250.068 240.657C253.32 240.657 255.956 240.224 255.956 239.69C255.956 239.156 253.32 238.721 250.068 238.721C246.817 238.721 244.18 239.154 244.18 239.69C244.18 240.224 246.817 240.657 250.068 240.657Z" fill="white"/>
<path d="M250.067 240.888C249.442 240.888 243.952 240.853 243.952 239.694C243.952 238.535 249.44 238.496 250.067 238.496C250.692 238.496 256.182 238.53 256.182 239.695C256.182 240.858 250.693 240.888 250.067 240.888ZM244.419 239.694C244.648 239.957 246.502 240.428 250.066 240.428C253.631 240.428 255.485 239.952 255.716 239.694C255.485 239.431 253.633 238.954 250.067 238.954C246.501 238.954 244.652 239.426 244.419 239.69V239.694Z" fill="#000072"/>
<path d="M250.561 303.968H250.08C249.4 303.976 235.767 304.08 220.377 301.17C199.038 297.132 184.627 289.535 177.545 278.584C170.92 268.339 171.02 255.427 177.843 240.203C177.953 237.585 178.946 222.088 187.419 206.365C192.786 196.4 200.055 188.459 209.015 182.752C220.188 175.646 234.002 172.043 250.077 172.043C266.152 172.043 279.965 175.646 291.135 182.752C300.099 188.454 307.367 196.4 312.738 206.362C321.211 222.086 322.204 237.583 322.312 240.201C329.132 255.424 329.237 268.336 322.611 278.582C315.529 289.532 301.119 297.131 279.778 301.167C265.761 303.818 253.197 303.968 250.561 303.968ZM250.08 300.506H250.104C250.636 300.516 304.021 301.011 319.746 276.686C325.731 267.431 325.499 255.533 319.057 241.322C318.96 241.108 318.908 240.877 318.903 240.642C318.903 240.479 318.414 224.054 309.67 207.903C298.034 186.403 277.982 175.501 250.08 175.501C222.176 175.501 202.125 186.404 190.487 207.904C181.742 224.059 181.257 240.483 181.253 240.644C181.248 240.878 181.195 241.109 181.098 241.323C174.657 255.533 174.425 267.432 180.409 276.688C196.136 301.014 249.521 300.517 250.051 300.507L250.08 300.506Z" fill="#000072"/>
<path d="M224.626 232.328C225.24 226.286 222.194 221.022 217.823 220.57C213.453 220.118 209.412 224.65 208.799 230.691C208.186 236.733 211.231 241.998 215.603 242.449C219.973 242.9 224.014 238.37 224.626 232.328Z" fill="#000072"/>
<path d="M219.983 227.177C220.176 225.27 218.975 223.585 217.301 223.412C215.626 223.238 214.111 224.643 213.919 226.549C213.725 228.455 214.925 230.141 216.601 230.314C218.275 230.487 219.789 229.082 219.983 227.177Z" fill="white"/>
<path opacity="0.3" d="M214.009 234.256C213.573 234.211 213.133 234.298 212.746 234.505C212.359 234.712 212.04 235.029 211.832 235.42C211.624 235.809 211.535 236.251 211.576 236.691C211.617 237.131 211.787 237.549 212.063 237.893C212.342 238.237 212.712 238.49 213.132 238.619C213.551 238.75 214 238.752 214.42 238.625C214.841 238.498 215.214 238.248 215.491 237.908C215.7 237.653 215.851 237.354 215.932 237.034C216.013 236.714 216.023 236.38 215.96 236.056C215.898 235.732 215.764 235.426 215.57 235.159C215.376 234.892 215.125 234.671 214.836 234.512C214.58 234.373 214.299 234.286 214.009 234.256Z" fill="white"/>
<path d="M283.737 242.442C288.107 241.99 291.152 236.726 290.54 230.683C289.927 224.642 285.886 220.111 281.515 220.563C277.144 221.015 274.098 226.279 274.712 232.322C275.324 238.363 279.365 242.894 283.737 242.442Z" fill="#000072"/>
<path d="M282.741 230.304C284.416 230.131 285.617 228.445 285.423 226.54C285.231 224.634 283.716 223.229 282.041 223.402C280.366 223.575 279.165 225.261 279.359 227.167C279.553 229.072 281.067 230.477 282.741 230.304Z" fill="white"/>
<path opacity="0.3" d="M285.326 234.256C285.761 234.211 286.201 234.298 286.588 234.505C286.878 234.662 287.131 234.881 287.327 235.146C287.523 235.411 287.658 235.716 287.723 236.04C287.789 236.363 287.782 236.697 287.703 237.018C287.625 237.338 287.477 237.638 287.27 237.894C287.065 238.151 286.805 238.359 286.509 238.503C286.213 238.646 285.889 238.721 285.56 238.722C285.231 238.723 284.906 238.651 284.609 238.51C284.312 238.369 284.051 238.163 283.844 237.908C283.516 237.508 283.336 237.007 283.334 236.49C283.332 235.973 283.507 235.471 283.832 235.068C284.203 234.611 284.74 234.319 285.326 234.256Z" fill="white"/>
</g>
</g>
</g>
</g>
</g>
<defs>
<clipPath id="clip0_138_171">
<rect width="487.39" height="487.39" fill="white"/>
</clipPath>
<clipPath id="clip1_138_171">
<rect width="172.686" height="228.576" fill="white" transform="translate(158.347 169.735)"/>
</clipPath>
<clipPath id="clip2_138_171">
<rect width="172.98" height="228.92" fill="white" transform="translate(158.347 169.735)"/>
</clipPath>
<clipPath id="clip3_138_171">
<rect width="171.98" height="227.92" fill="white" transform="translate(158.347 169.735)"/>
</clipPath>
<clipPath id="clip4_138_171">
<rect width="171.98" height="229.307" fill="white" transform="translate(158.347 169.041)"/>
</clipPath>
</defs>
</svg>
