<svg width="317" height="301" viewBox="0 0 317 301" fill="none" xmlns="http://www.w3.org/2000/svg">
<g clip-path="url(#clip0_5_3982)">
<g clip-path="url(#clip1_5_3982)">
<g clip-path="url(#clip2_5_3982)">
<g clip-path="url(#clip3_5_3982)">
<mask id="mask0_5_3982" style="mask-type:luminance" maskUnits="userSpaceOnUse" x="0" y="-1" width="317" height="302">
<path d="M0 -0.00390625H316.19V300.054H0V-0.00390625Z" fill="white"/>
</mask>
<g mask="url(#mask0_5_3982)">
<path d="M177.816 147.515C177.243 147.515 176.689 147.305 176.26 146.924C176.055 146.744 175.889 146.524 175.771 146.278C175.652 146.033 175.584 145.766 175.569 145.494L169.553 3.53872C169.542 3.25861 169.589 2.97918 169.691 2.71813C169.793 2.45708 169.949 2.22013 170.147 2.02229C170.568 1.60738 171.128 1.36447 171.718 1.3412C172.309 1.31792 172.886 1.51595 173.338 1.89646C173.778 2.27557 174.04 2.80148 174.066 3.36126L180.083 145.314C180.094 145.594 180.047 145.874 179.945 146.135C179.842 146.396 179.687 146.633 179.489 146.831C179.072 147.249 178.511 147.493 177.921 147.513L177.816 147.515Z" fill="#0A0000"/>
<path d="M237.665 232.67C237.491 238.552 234.116 244.277 228.702 247.708C224.779 250.209 219.794 251.495 214.19 250.748L178.601 210.138L188.211 182.505L189.306 179.355C190.469 179.313 191.632 179.298 192.795 179.31C195.706 179.299 198.613 179.533 201.484 180.01C214.07 182.197 225.074 190.378 226.421 216.257C234.544 220.277 237.846 226.559 237.665 232.67Z" fill="#5F5F82"/>
<path opacity="0.5" d="M190.556 182.396C193.467 182.386 196.373 182.62 199.245 183.096C211.83 185.285 222.833 193.464 224.18 219.343C232.303 223.37 235.605 229.65 235.424 235.761C235.318 238.696 234.476 241.557 232.976 244.082C235.844 240.846 237.539 236.801 237.67 232.678C237.851 226.569 234.558 220.285 226.424 216.257C225.079 190.396 214.074 182.205 201.489 180.01C198.617 179.533 195.711 179.299 192.8 179.31C191.632 179.295 190.471 179.31 189.311 179.355L188.248 182.409C189.015 182.396 189.783 182.388 190.556 182.396Z" fill="white"/>
<path d="M217.355 253.177C216.196 253.176 215.038 253.098 213.889 252.945C213.345 252.872 212.845 252.605 212.481 252.193L176.89 211.584C176.635 211.293 176.462 210.94 176.387 210.561C176.313 210.181 176.34 209.789 176.466 209.424L187.17 178.639C187.318 178.213 187.594 177.842 187.962 177.574C188.332 177.306 188.773 177.155 189.23 177.14C206.417 176.566 226.342 180.373 228.61 214.883C237.81 219.974 241.888 228.897 239.035 237.929C236.52 245.876 228.436 253.177 217.355 253.177ZM215.332 248.646C225.267 249.585 232.574 243.398 234.721 236.613C236.541 230.862 235.052 223.012 225.408 218.23C225.054 218.057 224.753 217.793 224.535 217.465C224.316 217.138 224.188 216.758 224.164 216.365C222.565 185.777 207.43 181.263 190.929 181.533L181.151 209.654L215.332 248.646Z" fill="#000072"/>
<path opacity="0.2" d="M237.665 232.67C237.491 238.552 234.116 244.277 228.702 247.708C224.779 250.209 219.794 251.495 214.19 250.748L178.601 210.138L188.211 182.505L192.795 179.31C195.706 179.299 198.613 179.533 201.484 180.011C198.682 196.005 210.713 216.105 222.136 235.998C227.308 239.697 232.487 237.272 237.665 232.67Z" fill="#000072"/>
<path d="M202.846 268.871C199.252 268.903 195.672 268.423 192.214 267.444C181.398 264.286 176.279 256.526 177.484 250.746C170.672 256.341 163.632 260.5 156.566 263.329C135.752 271.666 114.783 268.42 99.2304 256.116C83.6887 243.811 73.5448 222.452 74.3611 194.524C74.4901 190.105 74.8692 185.696 75.5016 181.32L147.478 167.567L163.782 173.88C167.424 175.277 170.386 178.027 172.049 181.555L172.369 182.243L176.439 190.922C177.304 192.765 178.499 194.434 179.965 195.847C180.343 196.219 180.738 196.571 181.153 196.902C183.752 198.979 186.911 200.235 190.227 200.511C206.971 201.872 219.208 213.989 214.858 243.332C228.517 248.794 225.087 268.871 202.846 268.871Z" fill="white"/>
<path d="M202.849 268.871C196.715 268.871 191.645 267.632 187.68 265.699C179.985 261.968 176.463 255.645 177.489 250.746C170.676 256.341 163.636 260.498 156.57 263.329C148.143 243.654 158.216 221.234 181.153 196.895C183.751 198.975 186.911 200.232 190.228 200.504C206.97 201.866 219.21 213.983 214.859 243.327C218.95 244.955 221.512 247.917 222.488 251.243C224.775 259.025 218.423 268.871 202.849 268.871Z" fill="#5F5F82"/>
<path opacity="0.5" d="M222.486 252.066C221.512 248.691 218.96 245.69 214.857 244.029C219.215 214.241 206.974 201.941 190.227 200.559C186.902 200.279 183.739 199.001 181.152 196.894C177.718 200.577 174.443 204.405 171.334 208.367C173.712 205.624 176.281 202.855 179.038 200.056C181.667 202.056 184.818 203.254 188.112 203.506C204.855 204.806 217.095 216.388 212.744 244.437C216.834 246.002 219.395 248.825 220.37 252.006C222.652 259.441 216.306 268.849 200.73 268.849C195.488 268.849 191.027 267.98 187.363 266.575C187.471 266.63 187.571 266.689 187.68 266.743C191.642 268.706 196.715 269.961 202.847 269.961C218.423 269.959 224.775 259.966 222.486 252.066Z" fill="white"/>
<path d="M172.359 182.236C171.003 186.45 169.441 190.596 167.681 194.658C152.881 228.924 125.921 252.809 99.2304 256.116C83.6887 243.811 73.5448 222.452 74.3611 194.524C74.4901 190.105 74.8692 185.696 75.5016 181.32L147.477 167.567L163.782 173.88C167.424 175.277 170.386 178.027 172.049 181.555L172.359 182.236Z" fill="#5F5F82"/>
<path d="M202.847 271.086C192.505 271.086 183.708 267.638 178.713 261.627C177.132 259.773 175.996 257.58 175.395 255.218C169.633 259.495 163.606 262.908 157.425 265.383C136.336 273.83 114.656 271.11 97.9235 257.925C97.8857 257.899 97.8486 257.872 97.8122 257.844C77.5277 241.785 68.5808 213.781 73.2655 181.012C73.3301 180.555 73.5398 180.129 73.8624 179.794C74.1851 179.46 74.6077 179.231 75.0691 179.144L147.041 165.389C147.463 165.311 147.899 165.35 148.299 165.504L164.604 171.816C168.792 173.412 172.195 176.573 174.096 180.631L178.486 189.999C179.439 192.016 180.838 193.791 182.579 195.187C184.82 196.985 187.549 198.071 190.414 198.305C199.111 199.012 206.204 202.469 210.932 208.306C217.103 215.922 219.25 227.263 217.321 242.023C223.13 245.066 226.164 250.928 224.932 257.093C223.641 263.541 217.082 271.086 202.847 271.086ZM177.49 248.53C177.824 248.53 178.153 248.603 178.455 248.744C178.757 248.885 179.025 249.09 179.239 249.346C179.45 249.599 179.601 249.897 179.681 250.217C179.761 250.536 179.768 250.87 179.702 251.193C179.212 253.531 180.13 256.312 182.216 258.825C186.349 263.8 193.868 266.652 202.847 266.652C214.34 266.652 219.537 261.038 220.499 256.233C221.426 251.59 218.876 247.329 214.004 245.379C213.54 245.193 213.15 244.859 212.897 244.427C212.648 243.999 212.551 243.498 212.623 243.008C214.743 228.703 212.984 217.959 207.395 211.055C203.407 206.133 197.569 203.316 190.041 202.706C186.27 202.403 182.676 200.978 179.722 198.615C177.449 196.794 175.622 194.478 174.379 191.844L169.986 182.477C168.575 179.467 166.05 177.123 162.944 175.94L147.257 169.869L77.5196 183.196C73.5672 213.649 81.9188 239.5 100.55 254.316L100.655 254.397C116.082 266.614 136.153 269.117 155.719 261.28C162.747 258.467 169.586 254.358 176.05 249.051C176.453 248.717 176.963 248.533 177.49 248.53Z" fill="#000072"/>
<path d="M175.945 249.126C179.747 246.1 183.264 242.499 185.06 237.979C185.565 236.671 187.573 237.264 187.267 238.624C186.021 243.903 182.714 248.467 179.029 252.366C176.758 254.582 173.533 251.207 175.945 249.126Z" fill="#000072"/>
<path opacity="0.2" d="M222.485 249.897C218.286 262.653 201.381 261.588 189.306 251.324C184.244 230.728 177.303 215.1 188.412 198.891L179.964 194.477L167.687 193.304L150.447 191.646L163.773 172.516L143.121 162.755L117.634 188.492L102.97 187.082L74.3546 193.167C73.5415 221.095 83.6903 242.448 99.2255 254.761C114.787 267.075 135.741 270.31 156.559 261.971C163.627 259.143 170.668 254.982 177.483 249.391C176.457 254.277 179.993 260.59 187.673 264.331V264.344C187.772 264.391 187.88 264.433 187.98 264.479C188.554 264.748 189.137 264.997 189.727 265.228C190.019 265.341 190.277 265.431 190.556 265.542C190.909 265.67 191.277 265.786 191.643 265.899C191.835 265.96 192.013 266.028 192.206 266.084C195.66 267.067 199.242 267.553 202.837 267.522C218.419 267.512 224.772 257.668 222.485 249.897Z" fill="#000072"/>
<path d="M74.3886 85.3609C59.3695 70.4629 81.7706 47.3568 104.156 64.2714C105.624 65.3857 106.856 66.7801 107.782 68.374C108.708 69.9679 109.308 71.7296 109.549 73.557C110.192 78.416 110 83.0363 107.526 86.9951L74.3886 85.3609Z" fill="#5F5F82"/>
<path opacity="0.5" d="M102.586 63.1647C80.7428 48.449 59.7194 70.8226 74.3883 85.3625L77.2244 85.5013C68.0742 72.2826 84.0128 55.1906 102.586 63.1647Z" fill="white"/>
<path d="M107.537 88.9697H107.435L74.2917 87.3307C73.7945 87.3071 73.3235 87.1009 72.9689 86.7515C66.0998 79.9389 65.7094 70.2806 72.03 63.2583C78.67 55.8795 91.9371 52.5627 105.382 62.7211C107.055 63.9938 108.461 65.5843 109.518 67.4014C110.576 69.2186 111.264 71.2265 111.544 73.3102C112.064 77.2174 112.388 82.9944 109.242 88.0308C109.062 88.3183 108.812 88.5549 108.514 88.7181C108.215 88.883 107.879 88.9696 107.537 88.9697ZM75.2935 83.4445L106.391 84.9802C107.843 82.099 108.206 78.5951 107.574 73.8168C107.365 72.2463 106.848 70.7325 106.052 69.3623C105.257 67.992 104.199 66.7921 102.939 65.8314C91.5273 57.2152 80.4784 59.8044 75.0322 65.8572C71.0443 70.2935 69.657 77.3723 75.2935 83.4445Z" fill="#000072"/>
<path d="M64.046 196.713C-17.6794 153.908 51.6469 39.586 131.536 90.5958C136.552 93.7658 142.065 96.0699 147.844 97.4117C208.405 111.726 139.911 230.331 64.046 196.713Z" fill="white"/>
<path d="M131.754 149.049C132.803 147.929 133.59 146.416 134.077 144.758C135.115 141.222 134.778 137.005 132.582 134.436C136.126 136.187 140.771 134.201 143.307 130.828L143.36 130.749C143.563 130.478 143.75 130.195 143.92 129.903L144.315 129.316C153.142 136.401 141.645 156.32 131.754 149.049Z" fill="#000072"/>
<path d="M91.4933 204.834C81.9108 204.834 72.3348 202.817 63.1136 198.725C63.0701 198.704 63.0233 198.684 62.9797 198.659C38.6799 185.932 25.237 165.875 25.1257 142.196C25.0708 130.41 28.4295 118.574 34.8437 107.985C41.2562 97.3955 50.287 88.7584 60.9455 83.0524C83.0175 71.2421 108.524 73.2538 132.766 88.7309C137.564 91.7646 142.839 93.9669 148.37 95.2451C161.344 98.3118 169.644 106.129 172.373 117.849C177.145 138.387 163.189 167.983 139.888 186.697C124.959 198.696 108.217 204.834 91.4933 204.834ZM65.0398 194.713C97.4412 209.035 124.045 193.695 137.033 183.27C159.1 165.554 172.401 137.86 167.976 118.845C165.653 108.867 158.509 102.205 147.319 99.5588C141.288 98.1618 135.537 95.7566 130.307 92.4446C107.521 77.895 83.6595 75.9478 63.1088 86.9451C42.9952 97.7214 29.5378 119.919 29.6427 142.175C29.7443 164.141 42.3161 182.796 65.0398 194.713Z" fill="#000072"/>
<path d="M135.291 141.404C138.954 140.012 142.534 139.571 145.902 141.477C144.641 146.6 141.188 150.209 137.372 150.53C136.542 150.601 135.123 150.562 133.374 149.704C133.405 146.831 134.059 143.999 135.291 141.404Z" fill="#E43841"/>
<path d="M130.393 122.596C132.261 125.196 132.438 127.914 131.514 130.71C130.883 132.567 129.555 134.105 127.81 135C125.155 136.355 122.395 136.629 119.471 135.25C118 134.551 117.605 132.649 118.565 131.129C120.63 127.859 123.172 124.915 126.105 122.394C127.475 121.216 129.451 121.287 130.393 122.596Z" fill="#000072"/>
<path d="M128.675 129.376L133.174 132.904C134.148 133.827 134.786 135.066 135.249 136.23C137.607 141.912 134.66 151.604 127.602 152.114C126.605 152.14 123.398 151.656 124.061 150.312C124.143 150.171 124.267 150.06 124.416 149.993C124.565 149.927 124.731 149.91 124.89 149.944C130.493 151.106 132.269 144.079 131.843 139.862C131.741 138.281 131.27 136.756 130.391 135.709L130.675 135.984L126.177 132.454C124.161 130.792 126.571 127.814 128.678 129.384L128.675 129.376Z" fill="#000072"/>
<path d="M129.344 129.376L133.842 132.904L133.492 132.685C134.08 132.955 134.722 133.091 135.37 133.081C137.591 132.99 139.658 131.801 141.318 130.276C143.695 128.014 144.623 124.73 143.073 121.649C142.697 120.9 143.75 120.21 144.318 120.823C147.538 124.065 147.015 129.405 144.194 132.728C141.418 136.431 135.636 138.521 131.345 135.974L126.849 132.446C124.83 130.778 127.242 127.809 129.338 129.378L129.344 129.376Z" fill="#000072"/>
<path d="M136.239 151.95C134.26 151.95 132.34 151.232 130.57 149.81C130.298 149.591 130.124 149.272 130.086 148.925C130.068 148.753 130.084 148.579 130.135 148.414C130.185 148.248 130.268 148.094 130.378 147.962C130.49 147.827 130.628 147.715 130.783 147.633C130.938 147.551 131.107 147.5 131.282 147.484C131.633 147.451 131.984 147.555 132.261 147.775C134.189 149.322 136.252 149.706 138.391 148.912C141.934 147.599 145.191 143.103 145.965 138.453C146.304 136.437 146.425 132.699 143.476 130.331C143.34 130.224 143.227 130.09 143.144 129.939C143.06 129.787 143.008 129.62 142.99 129.448C142.972 129.276 142.989 129.102 143.039 128.936C143.09 128.77 143.173 128.617 143.284 128.484C143.511 128.213 143.835 128.042 144.187 128.006C144.539 127.971 144.89 128.075 145.167 128.295C148.122 130.668 149.343 134.424 148.6 138.868C147.669 144.458 143.77 149.709 139.332 151.354C138.345 151.736 137.297 151.937 136.239 151.95Z" fill="#000072"/>
<path opacity="0.6" d="M125.856 127.387C126.929 126.335 127.454 125.148 127.028 124.728C126.602 124.309 125.39 124.825 124.317 125.877C123.245 126.929 122.724 128.116 123.149 128.522C123.575 128.931 124.787 128.439 125.856 127.387Z" fill="white"/>
<path d="M74.3416 139.749C77.1373 116.982 95.5037 107.178 109.848 133.735C110.265 134.509 110.729 135.262 111.216 135.995C117.103 144.837 115.107 160.085 103.32 168.735C98.0026 172.639 91.1577 174.067 84.8307 172.087C81.5257 171.059 78.5431 169.192 76.1725 166.67C74.0492 164.427 72.8365 161.474 72.7703 158.386C72.6251 152.603 72.8187 147.391 73.6979 143.335C73.956 142.149 74.1915 140.954 74.3416 139.749Z" fill="#5F5F82"/>
<path d="M101.452 148.788C106.364 145.642 107.396 138.657 103.759 133.181C100.121 127.708 93.1889 125.82 88.2766 128.966C83.3644 132.112 82.3303 139.1 85.9697 144.572C89.6075 150.046 96.5379 151.933 101.452 148.788Z" fill="#000072"/>
<path d="M94.0955 131.346C92.2274 131.972 91.4434 134.18 92.3484 136.28C93.2518 138.379 95.5039 139.571 97.3736 138.942C99.2417 138.316 100.024 136.109 99.1207 134.009C98.2157 131.91 95.9636 130.716 94.0955 131.346Z" fill="white"/>
<path opacity="0.35" d="M93.1244 144.769C92.9808 145.815 94.1617 146.931 95.7652 147.263C97.3687 147.597 98.7803 147.02 98.9239 145.974C99.0658 144.93 97.8866 143.813 96.2814 143.48C94.6779 143.148 93.2679 143.721 93.1244 144.769Z" fill="white"/>
<path d="M127.984 94.203C111.142 87.6372 98.1075 103.834 116.426 113.716C117.437 114.273 118.399 114.914 119.3 115.635C132.43 125.917 160.57 107.451 140.424 98.2909C138.698 97.0915 136.722 96.3004 134.645 95.9775C132.369 95.6195 130.137 95.0248 127.984 94.203Z" fill="#5F5F82"/>
<path opacity="0.2" d="M66.2514 183.133C58.0369 178.832 51.355 173.805 46.054 168.298C44.4243 166.62 43.2437 164.559 42.6211 162.305C42.0024 160.06 41.9647 157.696 42.5114 155.433C45.0376 145.174 45.9991 135.619 45.6894 126.632L34.3743 151.103C30.8297 143.066 29.2169 134.31 29.6653 125.538C22.6882 150.535 31.0688 179.445 64.0429 196.713C119.05 221.087 170.18 165.436 171.052 127.538C160.631 163.557 114.958 204.716 66.2514 183.133Z" fill="#000072"/>
<path d="M115.693 101.498C113.806 105.299 115.693 110.254 119.92 112.555C124.15 114.855 129.102 113.645 130.99 109.845C132.877 106.042 130.99 101.088 126.761 98.7861C122.533 96.4857 117.581 97.6972 115.693 101.498Z" fill="#000072"/>
<path d="M121.177 100.58C120.004 101.395 119.931 103.109 121.012 104.389C122.093 105.668 123.917 106.037 125.093 105.216C126.271 104.394 126.339 102.687 125.258 101.408C124.177 100.128 122.349 99.7572 121.177 100.58Z" fill="white"/>
<path opacity="0.35" d="M123.379 110.159C123.503 110.919 124.569 111.456 125.76 111.359C126.95 111.263 127.813 110.567 127.689 109.808C127.565 109.049 126.5 108.511 125.31 108.607C124.119 108.706 123.256 109.401 123.379 110.159Z" fill="white"/>
<path d="M43.0277 144.969C38.643 161.303 7.19012 161.84 2.75055 140.659C1.3406 133.938 3.30227 127.187 6.59 121.123C14.8255 105.949 44.6054 101.467 45.7008 127.94" fill="#5F5F82"/>
<path opacity="0.2" d="M44.3069 120.158L42.7163 130.318C40.4739 144.629 24.4321 152.822 11.4813 145.89C7.22583 143.669 3.95173 139.94 2.29885 135.433C2.2424 137.187 2.39403 138.941 2.75055 140.659C7.19495 161.837 38.6446 161.303 43.0325 144.969L45.6975 127.94C45.6208 125.292 45.1522 122.669 44.3069 120.158Z" fill="#000072"/>
<path opacity="0.5" d="M5.86241 144.589C4.45246 137.869 6.41412 131.117 9.70186 125.054C15.7724 113.87 33.5355 108.496 42.8986 117.033C35.1068 103.298 13.4203 108.524 6.59158 121.124C3.30223 127.187 1.34056 133.93 2.75213 140.659C3.64424 144.921 5.63494 148.304 8.27577 150.854C7.1297 148.914 6.31413 146.796 5.86241 144.589Z" fill="white"/>
<path d="M44.0374 145.231C41.1772 157.096 26.0824 161.005 15.4061 157.359C8.26279 155.1 2.54395 149.256 0.832328 142.025C-1.08094 135.056 0.732308 127.567 3.94422 121.284C4.91077 119.313 6.13815 117.481 7.59331 115.838C15.7255 106.807 31.9641 102.887 41.4111 112.082C43.5519 114.212 44.9795 116.878 45.8668 119.589C46.7541 122.299 47.0977 125.119 47.1413 127.879C47.1494 128.068 47.1194 128.258 47.0528 128.435C46.9863 128.613 46.8847 128.775 46.7541 128.913C46.4891 129.196 46.1223 129.363 45.7345 129.376C45.3473 129.391 44.9695 129.254 44.6811 128.995C44.5406 128.868 44.4266 128.714 44.3458 128.542C44.265 128.37 44.2188 128.185 44.21 127.995C43.9874 125.462 43.5164 122.973 42.6533 120.681C37.862 107.48 20.9669 109.137 12.2394 117.462C10.488 119.127 9.04789 121.091 7.98693 123.262C5.23479 128.719 3.54091 134.998 5.08315 140.978C7.66429 152.432 20.6603 157.42 31.4463 154.181C36.2553 152.842 40.4835 149.444 41.9935 144.693C42.4097 143.43 44.3101 143.929 44.031 145.218L44.0374 145.231Z" fill="#000072"/>
<path d="M185.279 205.56C184.994 204.137 184.671 202.722 184.31 201.317C179.586 183.114 168.983 173.092 153.476 169.884L154.767 169.355L165.279 165.038L167.534 164.115C157.919 149.657 169.036 128.163 188.281 138.223C194.121 141.53 197.843 149.299 198.919 158.98C200.493 173.06 196.483 191.189 185.279 205.56Z" fill="#5F5F82"/>
<path opacity="0.5" d="M198.911 158.978C197.836 149.299 194.115 141.53 188.273 138.223C178.2 132.957 170.359 136.342 166.545 142.83C170.836 139.215 177.239 138.178 184.945 142.207C190.787 145.514 194.51 153.284 195.583 162.961C196.998 175.604 193.907 191.504 185.155 205.021C185.194 205.202 185.234 205.378 185.271 205.56C196.475 191.189 200.485 173.058 198.911 158.978Z" fill="white"/>
<path d="M185.276 207.778C184.972 207.78 184.671 207.721 184.391 207.604C184.111 207.487 183.857 207.315 183.645 207.097C183.345 206.791 183.141 206.404 183.058 205.983C179.223 186.543 169.396 175.436 153.007 172.057C152.537 171.962 152.11 171.72 151.786 171.366C151.545 171.104 151.371 170.788 151.28 170.444C151.189 170.1 151.182 169.739 151.262 169.392C151.341 169.046 151.504 168.723 151.736 168.453C151.967 168.183 152.262 167.974 152.592 167.843L164.296 163.034C160.16 154.9 161.134 144.781 166.934 138.557C172.422 132.664 180.798 131.805 189.34 136.269L189.409 136.305C194.802 139.359 198.745 145.8 200.494 154.428C203.947 171.423 198.679 192.023 187.068 206.909C186.855 207.18 186.583 207.4 186.273 207.55C185.962 207.701 185.621 207.779 185.276 207.778ZM160.286 169.495C173.385 174.202 182.125 184.503 186.352 200.223C196.933 184.245 198.311 166.362 196.062 155.297C194.57 147.967 191.419 142.585 187.183 140.165C180.498 136.685 174.337 137.189 170.275 141.549C165.264 146.926 164.9 156.105 169.423 162.902C169.603 163.173 169.721 163.481 169.768 163.803C169.814 164.125 169.789 164.454 169.692 164.765C169.593 165.078 169.427 165.365 169.204 165.606C168.981 165.847 168.708 166.036 168.403 166.159L160.286 169.495Z" fill="#000072"/>
<path d="M169.112 162.524C173.556 167.475 179.425 169.326 185.67 166.583C186.959 166.049 187.875 167.87 186.658 168.548C181.785 171.418 175.519 171.666 170.528 168.856C168.895 167.975 167.364 166.916 165.964 165.699C163.66 163.578 166.893 160.316 169.118 162.524H169.112Z" fill="#000072"/>
<path opacity="0.2" d="M184.31 201.317C179.586 183.114 168.983 173.092 153.476 169.884L154.767 169.355L165.279 165.038C168.789 166.748 176.75 169.674 185.195 166.373C190.314 164.37 193.431 160.924 194.926 158.978C196.344 171.702 193.211 187.739 184.31 201.317Z" fill="#000072"/>
<path d="M113.431 232.407L102.975 205.339C108.653 201.414 116.861 201.009 125.797 200.073C133.845 199.234 142.485 197.975 150.395 193.338C153.529 191.47 155.972 188.637 157.359 185.262C161.263 175.93 168.089 171.397 175.89 171.037C180.541 170.832 184.811 173.571 186.636 177.777C187.654 180.116 188.395 182.567 188.843 185.079C194.855 219.098 140.29 245.977 113.431 232.407Z" fill="#5F5F82"/>
<path opacity="0.5" d="M104.275 204.942C110.195 201.382 118.415 201.48 127.392 201.111C135.484 200.777 144.183 200.062 152.376 195.929C155.623 194.26 158.243 191.585 159.845 188.305C164.346 179.234 171.452 175.138 179.262 175.272C182.148 175.324 184.901 176.497 186.938 178.543C186.836 178.29 186.746 178.037 186.636 177.782C184.819 173.578 180.541 170.832 175.89 171.042C168.089 171.403 161.263 175.93 157.359 185.269C155.972 188.643 153.528 191.476 150.395 193.345C142.485 197.981 133.843 199.249 125.797 200.078C116.86 201.016 108.653 201.42 102.975 205.344L104.275 204.942Z" fill="white"/>
<path d="M130.315 237.942C123.729 237.942 117.598 236.721 112.51 234.154C112.047 233.915 111.697 233.503 111.537 233.007C111.459 232.763 111.43 232.506 111.453 232.251C111.475 231.995 111.547 231.747 111.667 231.52C111.909 231.06 112.325 230.712 112.825 230.552C113.325 230.391 113.872 230.429 114.341 230.66C129.736 238.436 157.008 232.023 173.887 216.652C181.219 209.985 192.379 196.161 184.787 178.545C184.061 176.846 182.834 175.409 181.269 174.427C179.691 173.434 177.851 172.938 175.989 173.002C168.431 173.346 162.631 177.843 159.214 186.009C157.601 189.865 154.906 192.982 151.419 195.024C142.192 200.432 132.083 201.432 123.164 202.314C115.441 203.079 108.772 203.74 104.131 206.944C103.695 207.243 103.16 207.36 102.639 207.271C102.118 207.181 101.652 206.893 101.34 206.467C101.189 206.256 101.081 206.017 101.023 205.764C100.966 205.511 100.959 205.249 101.005 204.994C101.05 204.739 101.146 204.495 101.288 204.277C101.429 204.06 101.613 203.873 101.828 203.727C107.325 199.93 114.824 199.189 122.762 198.405C131.269 197.562 140.908 196.611 149.367 191.651C152.105 190.047 154.228 187.577 155.51 184.524C159.503 174.978 166.714 169.497 175.801 169.084C181.228 168.832 186.329 172.024 188.48 177.025C194.721 191.506 190.398 207.004 176.621 219.547C163.772 231.225 145.789 237.942 130.315 237.942Z" fill="#000072"/>
<path opacity="0.2" d="M113.431 232.407L102.975 205.339C108.653 201.414 116.861 201.009 125.797 200.072C124.432 201.395 123.206 202.855 122.14 204.429C117.634 211.2 120.952 220.284 128.778 222.833C151.861 230.368 178.688 209.248 188.849 185.078C194.855 219.098 140.291 245.977 113.431 232.407Z" fill="#000072"/>
<path d="M178.192 218.456C178.052 228.944 175.18 240.246 165.498 246.181C155.591 253.003 142.364 264.844 140.482 277.03C139.478 284.541 142.694 292.219 147.188 298.249C147.295 298.387 147.373 298.544 147.417 298.713C147.462 298.881 147.472 299.057 147.447 299.23C147.422 299.402 147.363 299.568 147.273 299.717C147.182 299.866 147.063 299.996 146.922 300.098C146.636 300.308 146.279 300.398 145.927 300.349C145.576 300.3 145.257 300.116 145.039 299.836C142.473 296.575 140.432 292.934 138.99 289.044C135.834 280.712 136.973 272.429 141.771 264.913C147.122 256.157 154.878 249.03 163.185 243.046C168.052 239.859 171.001 235.295 172.39 229.708C173.338 226.075 173.646 222.229 173.674 218.385C173.77 215.459 178.171 215.475 178.192 218.459V218.456Z" fill="#000072"/>
</g>
</g>
</g>
</g>
</g>
<defs>
<clipPath id="clip0_5_3982">
<rect width="316.19" height="300.05" fill="white"/>
</clipPath>
<clipPath id="clip1_5_3982">
<rect width="316.19" height="300.05" fill="white"/>
</clipPath>
<clipPath id="clip2_5_3982">
<rect width="316.19" height="300.05" fill="white"/>
</clipPath>
<clipPath id="clip3_5_3982">
<rect width="316.19" height="300.058" fill="white" transform="translate(0 -0.00390625)"/>
</clipPath>
</defs>
</svg>
