<svg width="172" height="229" viewBox="0 0 172 229" fill="none" xmlns="http://www.w3.org/2000/svg">
<path opacity="0.2" d="M90.9555 228.087C124.435 228.087 151.577 222.521 151.577 215.657C151.577 208.791 124.435 203.225 90.9567 203.225C57.4755 203.225 30.3356 208.791 30.3356 215.657C30.3356 222.521 57.4767 228.087 90.9555 228.087Z" fill="#000072"/>
<path d="M55.0922 126.458L53.6529 132.632L48.2557 155.805L48.2313 155.919C46.722 155.572 45.2206 155.192 43.7281 154.778L43.3988 154.687C4.55571 143.868 -2.47108 118.376 3.68361 110.142C5.60344 107.568 7.9331 106.184 10.2481 105.507C12.4221 104.876 14.7321 104.889 16.8992 105.542C19.4681 106.319 21.7401 107.859 23.4137 109.957C29.2318 117.181 40.3007 121.853 47.6873 124.323C52.0234 125.771 55.0922 126.458 55.0922 126.458Z" fill="#60547B"/>
<path opacity="0.3" d="M47.8007 133.592C44.4624 142.881 43.4012 154.688 43.4012 154.688C4.55446 143.868 -2.47233 118.377 3.68236 110.142C4.61788 127.201 20.4254 138.139 30.7637 143.501C34.9181 145.656 40.0421 143.942 42.0095 139.666C43.5342 136.355 45.3393 134.179 46.6932 132.869C46.7745 132.786 46.8756 132.726 46.9868 132.695C47.0981 132.663 47.2156 132.661 47.328 132.688C47.4404 132.715 47.5439 132.771 47.6285 132.849C47.713 132.928 47.7757 133.028 47.8105 133.138C47.8587 133.286 47.8553 133.446 47.8007 133.592Z" fill="#000072"/>
<path d="M48.2276 157.648C48.0983 157.648 47.9703 157.634 47.8434 157.604C13.778 149.714 4.10683 132.281 1.53079 125.154C-0.758619 118.824 -0.465887 112.82 2.31385 109.098C4.26051 106.489 6.76825 104.721 9.76753 103.845C15.1416 102.274 21.0182 104.245 24.7383 108.865C33.48 119.721 55.2398 124.717 55.4581 124.767C55.6805 124.816 55.8907 124.909 56.0762 125.041C56.2617 125.173 56.4186 125.342 56.5376 125.536C56.6587 125.729 56.7402 125.945 56.7773 126.171C56.8143 126.396 56.8062 126.627 56.7534 126.849L49.8925 156.313C49.805 156.691 49.5928 157.029 49.29 157.273C48.9894 157.515 48.6138 157.648 48.2276 157.648ZM13.4962 106.774C12.558 106.773 11.6245 106.906 10.7238 107.169C8.45024 107.831 6.54138 109.182 5.04967 111.18C3.00299 113.92 2.88833 118.821 4.7484 123.968C6.25719 128.141 9.7407 134.42 17.7725 140.638C25.3177 146.479 35.1267 150.914 46.9542 153.838L53.0357 127.729C47.5287 126.292 30.1856 121.108 22.0842 111.048C19.8729 108.306 16.698 106.774 13.4962 106.774Z" fill="#000072"/>
<path d="M137.077 188.583C134.332 198.522 126.637 206.347 116.789 209.118C110.666 210.838 102.345 212.146 91.2104 212.146C80.0757 212.146 71.756 210.838 65.6305 209.118C55.7826 206.347 48.0849 198.522 45.343 188.583C42.0583 176.713 42.201 164.574 43.3951 154.691C44.9173 142.043 48.1679 133.087 48.1679 133.087V121.997H133.829L134.253 133.087C134.253 133.087 137.502 142.043 139.025 154.691C140.22 164.574 140.361 176.715 137.077 188.583Z" fill="white"/>
<path d="M139.026 154.694C129.316 156.706 119.492 158.116 109.609 158.914C80.1976 161.321 57.6878 157.75 48.2508 155.803C46.734 155.495 45.2245 155.153 43.7232 154.776L43.3951 154.684C44.1507 148.375 45.4277 142.139 47.2129 136.04C47.6983 134.404 47.9605 132.709 47.991 131.002C48.0057 130.528 47.9971 130.053 47.9727 129.579L47.6788 124.318L47.5519 121.991H133.825L133.833 122.258L134.176 131.14L134.251 133.081C134.251 133.081 137.504 142.043 139.026 154.694Z" fill="#60547B"/>
<path opacity="0.3" d="M137.08 178.702C134.335 188.643 126.64 196.467 116.793 199.238C110.67 200.957 102.348 202.267 91.2128 202.267C80.0781 202.267 71.7584 200.957 65.6342 199.238C55.785 196.467 48.0886 188.643 45.3454 178.702C43.8159 173.173 43.0353 167.587 42.7523 162.195C42.3364 170.411 42.8523 179.573 45.3454 188.583C48.0922 198.522 55.7862 206.347 65.6342 209.118C71.7572 210.838 80.0781 212.146 91.2128 212.146C102.349 212.146 110.667 210.838 116.793 209.118C126.64 206.347 134.338 198.522 137.08 188.583C139.573 179.573 140.091 170.415 139.672 162.197C139.39 167.588 138.611 173.173 137.08 178.702Z" fill="#000072"/>
<path d="M134.718 132.917C135.861 135.043 136.71 137.263 137.455 139.525C138.198 141.784 138.807 144.086 139.279 146.417C140.212 151.089 140.85 155.814 141.188 160.566C141.856 170.069 141.273 179.761 138.77 189.082C137.455 193.906 135.009 198.347 131.636 202.037C128.275 205.714 124.081 208.529 119.407 210.246C117.032 211.087 114.755 211.628 112.405 212.127C110.058 212.627 107.719 212.984 105.365 213.276C100.655 213.854 95.9259 214.096 91.2093 214.111C86.4926 214.102 81.7638 213.875 77.0508 213.306C74.6869 213.027 72.3357 212.649 70.0033 212.173C67.6651 211.69 65.3744 211.143 62.9936 210.306C58.2968 208.597 54.0825 205.778 50.7098 202.09C47.3315 198.39 44.8775 193.942 43.5488 189.111C41.0289 179.778 40.4325 170.071 41.0887 160.555C41.246 158.169 41.4985 155.798 41.8156 153.435C42.1328 151.073 42.5048 148.718 43.0036 146.388C43.5024 144.059 44.1353 141.762 44.8991 139.506C45.2833 138.379 45.698 137.262 46.1725 136.165C46.6298 135.057 47.1531 133.976 47.7373 132.93C47.7916 132.835 47.8774 132.761 47.9798 132.723C48.0823 132.684 48.195 132.683 48.2984 132.719C48.4029 132.755 48.4912 132.827 48.5477 132.922C48.6042 133.017 48.6252 133.129 48.607 133.238V133.25C47.8788 137.899 47.0616 142.468 46.2932 147.032C45.5053 151.591 44.8661 156.179 44.6015 160.789C44.038 169.996 44.7015 179.297 47.147 188.096C48.3551 192.33 50.5405 196.221 53.5273 199.455C56.4852 202.684 60.1804 205.149 64.2974 206.641C66.3124 207.352 68.5713 207.893 70.779 208.351C73.0085 208.803 75.256 209.161 77.5155 209.424C82.0455 209.964 86.6268 210.179 91.2166 210.183C95.8064 210.186 100.389 209.985 104.921 209.453C107.183 209.195 109.432 208.842 111.664 208.396C113.872 207.943 116.134 207.408 118.155 206.7C122.288 205.214 125.999 202.751 128.974 199.521C131.973 196.276 134.169 192.372 135.385 188.124C137.852 179.317 138.531 169.998 137.978 160.782C137.706 156.165 137.108 151.564 136.281 147.006L135.039 140.156C134.62 137.871 134.186 135.569 133.796 133.261V133.244C133.775 133.127 133.797 133.007 133.857 132.905C133.917 132.802 134.011 132.724 134.123 132.684C134.234 132.646 134.356 132.649 134.466 132.692C134.575 132.735 134.666 132.817 134.721 132.921L134.718 132.917Z" fill="#000072"/>
<path d="M43.1085 169.977C43.1085 169.977 53.0345 168.467 60.3809 180.276C64.5853 187.035 64.1864 195.038 63.0252 200.767C62.5707 203.001 61.5851 205.092 60.1516 206.865C58.7243 208.631 56.8898 210.024 54.8056 210.924L43.4073 215.857C36.4305 218.877 28.2316 217.218 23.1759 211.502C20.3632 208.324 17.7542 203.612 17.2883 196.535C15.7759 173.528 43.1085 169.977 43.1085 169.977Z" fill="#60547B"/>
<path d="M33.3556 211.398C39.4407 211.134 44.0866 204.172 43.7317 195.849C43.378 187.525 38.1576 180.991 32.0712 181.256C25.9873 181.519 21.3414 188.48 21.6963 196.804C22.05 205.128 27.2704 211.661 33.3556 211.398Z" fill="white"/>
<path opacity="0.3" d="M60.3833 180.276C57.5097 175.656 54.2421 173.08 51.3282 171.652C52.0335 172.512 52.6814 173.418 53.2675 174.363C56.9998 180.366 56.6461 187.472 55.6155 192.561C55.2114 194.545 54.3358 196.403 53.0626 197.977C51.7951 199.545 50.1662 200.782 48.3155 201.582L38.1918 205.964C31.9957 208.645 24.714 207.172 20.223 202.096C19.1236 200.853 18.1833 199.477 17.4237 198.001C18.1287 204.273 20.5645 208.553 23.1783 211.507C28.2341 217.223 36.4318 218.882 43.4098 215.862L54.808 210.929C56.8922 210.029 58.7267 208.636 60.154 206.87C61.5868 205.097 62.572 203.005 63.0265 200.771C64.1888 195.036 64.5877 187.035 60.3833 180.276Z" fill="#000072"/>
<path opacity="0.6" d="M18.7556 199.499C17.2432 176.491 44.5733 172.94 44.5733 172.94C44.5733 172.94 54.5006 171.431 61.847 183.242C61.9116 183.344 61.9653 183.45 62.0287 183.555C61.5748 182.417 61.023 181.32 60.3796 180.276C53.0345 168.467 43.1085 169.977 43.1085 169.977C43.1085 169.977 15.7746 173.528 17.2883 196.535C17.6091 201.406 18.9447 205.155 20.662 208.054C19.6826 205.675 18.9788 202.856 18.7556 199.499Z" fill="white"/>
<path d="M36.2402 219.081C30.843 219.081 25.6043 216.839 21.9 212.658C18.1238 208.391 15.999 203.006 15.5819 196.652C14.9172 186.534 19.485 178.394 28.7951 173.124C35.5621 169.291 42.4218 168.328 42.8779 168.267C43.5756 168.166 54.0822 166.897 61.8335 179.36C66.3733 186.661 65.9013 195.222 64.7048 201.118C64.1948 203.624 63.0891 205.971 61.481 207.96C59.8799 209.943 57.8214 211.506 55.4825 212.517L44.0842 217.45C41.6085 218.524 38.9389 219.079 36.2402 219.081ZM43.3304 171.691C43.2658 171.699 36.6684 172.601 30.3905 176.182C22.255 180.823 18.4226 187.634 19.0008 196.421C19.3642 201.985 21.2011 206.672 24.4553 210.351C28.9805 215.468 36.328 217.042 42.734 214.269L54.1322 209.335C55.9612 208.545 57.5713 207.322 58.8245 205.773C60.0826 204.218 60.9481 202.382 61.3481 200.421C62.4178 195.144 62.8679 187.524 58.9318 181.196C52.321 170.568 43.7159 171.636 43.3561 171.687H43.3317L43.3304 171.691Z" fill="#000072"/>
<path d="M139.312 169.977C139.312 169.977 129.388 168.467 122.04 180.276C117.836 187.035 118.234 195.038 119.396 200.767C119.85 203.001 120.836 205.092 122.269 206.865C123.697 208.631 125.532 210.024 127.618 210.924L139.016 215.857C145.993 218.877 154.191 217.218 159.246 211.502C162.059 208.324 164.668 203.612 165.133 196.535C166.646 173.528 139.312 169.977 139.312 169.977Z" fill="#60547B"/>
<path d="M160.692 196.778C161.045 188.455 156.399 181.493 150.314 181.229C144.229 180.966 139.01 187.5 138.655 195.823C138.301 204.146 142.947 211.107 149.032 211.372C155.117 211.635 160.337 205.101 160.692 196.778Z" fill="white"/>
<path opacity="0.3" d="M122.04 180.276C124.914 175.656 128.181 173.08 131.095 171.652C130.39 172.512 129.742 173.418 129.156 174.363C125.422 180.366 125.776 187.472 126.808 192.561C127.212 194.545 128.087 196.403 129.359 197.977C130.627 199.545 132.257 200.782 134.108 201.582L144.231 205.964C150.429 208.645 157.709 207.172 162.199 202.096C163.299 200.852 164.24 199.476 164.998 197.999C164.293 204.272 161.859 208.551 159.245 211.505C154.189 217.22 145.992 218.879 139.014 215.861L127.615 210.924C125.531 210.024 123.696 208.631 122.269 206.865C120.836 205.092 119.85 203.001 119.396 200.767C118.233 195.036 117.837 187.035 122.04 180.276Z" fill="#000072"/>
<path opacity="0.6" d="M163.663 199.499C165.174 176.491 137.844 172.94 137.844 172.94C137.844 172.94 127.918 171.431 120.571 183.242C120.508 183.344 120.454 183.45 120.39 183.555C120.844 182.417 121.395 181.32 122.039 180.276C129.384 168.467 139.311 169.977 139.311 169.977C139.311 169.977 166.645 173.528 165.13 196.535C164.81 201.406 163.475 205.155 161.758 208.054C162.736 205.675 163.443 202.856 163.663 199.499Z" fill="white"/>
<path d="M146.187 219.081C143.488 219.078 140.818 218.522 138.343 217.446L126.944 212.514C124.605 211.503 122.547 209.939 120.946 207.957C119.338 205.968 118.232 203.621 117.722 201.114C116.526 195.218 116.054 186.657 120.593 179.358C128.345 166.893 138.853 168.163 139.549 168.264C140.003 168.324 146.864 169.287 153.632 173.12C162.941 178.394 167.51 186.53 166.845 196.649C166.427 203.002 164.299 208.387 160.527 212.654C156.825 216.839 151.583 219.081 146.187 219.081ZM138.115 171.636C135.64 171.636 128.901 172.503 123.495 181.196C119.559 187.528 120.008 195.142 121.079 200.421C121.478 202.382 122.344 204.217 123.601 205.773C124.855 207.323 126.465 208.545 128.293 209.336L139.693 214.269C146.1 217.041 153.445 215.467 157.97 210.351C161.225 206.672 163.061 201.985 163.425 196.421C164.006 187.601 160.145 180.777 151.953 176.136C145.672 172.578 139.161 171.699 139.096 171.692H139.067C138.751 171.652 138.433 171.633 138.115 171.636Z" fill="#000072"/>
<path d="M144.821 167.776C138.366 180.979 123.71 196.77 110.449 187.614C101.121 181.168 104.689 168.101 109.607 158.918C111.683 155.05 113.993 151.874 115.682 150.169C121.385 144.414 121.963 135.552 121.963 135.552L121.678 134.292L119.873 126.343L133.836 122.267L139.583 120.592C142.012 122.489 143.978 124.515 145.563 126.639C155.588 140.082 149.954 157.263 144.821 167.776Z" fill="#60547B"/>
<path opacity="0.6" d="M121.644 137.849C121.644 137.849 124.7 145.912 117.882 152.335C117.882 152.335 107.2 166.786 106.746 180.09C106.746 180.09 103.109 168.621 113.109 151.647C113.109 151.647 121.544 145.152 121.644 137.849Z" fill="white"/>
<path opacity="0.3" d="M139.587 120.587L135.995 121.635C148.557 133.718 143.134 150.733 138.226 160.774C132.593 172.295 119.808 186.069 108.243 178.081C106.657 176.987 105.502 175.673 104.697 174.21C104.333 179.462 105.762 184.375 110.453 187.613C123.711 196.77 138.362 180.982 144.816 167.776C150.77 155.604 157.382 134.498 139.587 120.587Z" fill="#000072"/>
<path d="M122.321 135.578C122.594 137.283 122.513 138.977 122.255 140.66C121.985 142.356 121.496 144.009 120.801 145.579C120.088 147.178 119.169 148.677 118.066 150.037C117.523 150.67 116.966 151.291 116.395 151.899C115.91 152.462 115.425 153.046 114.972 153.67C113.137 156.147 111.55 158.884 110.204 161.699C108.882 164.525 107.777 167.462 107.136 170.449C106.5 173.422 106.276 176.483 106.937 179.236C107.55 181.957 109.169 184.345 111.469 185.921C112.627 186.728 113.898 187.356 115.24 187.786C116.558 188.2 117.939 188.377 119.319 188.31C122.094 188.191 124.859 187.08 127.381 185.513C129.905 183.947 132.221 181.883 134.32 179.623C136.424 177.328 138.319 174.85 139.982 172.219C140.823 170.906 141.609 169.559 142.339 168.182C143.065 166.79 143.744 165.373 144.374 163.935C145.65 161.067 146.712 158.109 147.55 155.084C148.36 152.072 148.946 149.008 149.12 145.935C149.295 142.864 149.088 139.795 148.368 136.858C148.032 135.381 147.508 133.963 146.919 132.577C146.331 131.193 145.555 129.889 144.743 128.619C143.015 126.104 140.926 123.858 138.543 121.953L138.533 121.946C138.186 121.658 137.964 121.247 137.914 120.799C137.864 120.35 137.99 119.9 138.266 119.543C138.539 119.187 138.942 118.953 139.387 118.893C139.832 118.832 140.282 118.95 140.641 119.22C143.314 121.275 145.75 123.716 147.743 126.53C148.696 127.965 149.59 129.45 150.295 131.033C150.999 132.617 151.611 134.244 152.022 135.922C152.89 139.272 153.166 142.74 153.009 146.143C152.851 149.545 152.274 152.9 151.41 156.143C150.531 159.368 149.414 162.522 148.069 165.581C147.406 167.111 146.692 168.617 145.928 170.098C145.154 171.584 144.314 173.035 143.409 174.445C141.61 177.277 139.563 179.944 137.291 182.413C134.996 184.875 132.452 187.159 129.503 188.983C128.018 189.915 126.437 190.686 124.788 191.282C123.088 191.895 121.304 192.247 119.498 192.325C117.661 192.398 115.826 192.148 114.075 191.586C112.353 191.021 110.724 190.201 109.245 189.154C106.172 187.004 104.021 183.777 103.22 180.113C102.827 178.36 102.68 176.56 102.783 174.766C102.881 173.033 103.128 171.31 103.526 169.621C103.91 167.965 104.405 166.336 105.008 164.746C105.595 163.172 106.261 161.628 107.002 160.119C108.493 157.119 110.204 154.254 112.254 151.564C112.762 150.89 113.317 150.235 113.896 149.587C114.558 148.896 114.986 148.431 115.486 147.87C116.432 146.747 117.203 145.468 117.926 144.147C119.365 141.493 120.485 138.581 121.62 135.529L121.63 135.506C121.659 135.431 121.711 135.368 121.778 135.326C121.846 135.284 121.925 135.265 122.005 135.273C122.084 135.281 122.158 135.316 122.217 135.371C122.275 135.425 122.313 135.498 122.327 135.576L122.321 135.578Z" fill="#000072"/>
<path opacity="0.3" d="M145.567 126.636C141.959 128.424 138.112 129.911 134.182 131.145C130.077 132.427 125.904 133.477 121.681 134.292C105.554 137.464 91.3177 137.251 91.3177 137.251C91.3177 137.251 72.517 137.533 53.6529 132.633C51.753 132.146 49.8677 131.604 47.9995 131.007C33.9728 126.511 20.962 118.795 16.8992 105.542C19.4681 106.319 21.74 107.859 23.4137 109.957C29.2317 117.181 40.3006 121.853 47.686 124.323L47.5604 121.997H133.833L133.842 122.264L139.589 120.59C142.014 122.49 143.983 124.507 145.567 126.636Z" fill="#000072"/>
<path d="M61.4262 26.2056C61.4262 39.7213 50.5707 50.6792 37.1783 50.6792C33.9883 50.6764 30.8306 50.0414 27.8875 48.8111C24.9444 47.5807 22.2743 45.7793 20.0315 43.5109C15.4762 38.9039 12.9226 32.6857 12.9254 26.2068C12.9254 12.6863 23.7821 1.72833 37.1795 1.72833C40.3629 1.72833 43.5171 2.36259 46.4591 3.59206C49.4055 4.82492 52.0791 6.62807 54.3263 8.89783C56.5815 11.1754 58.3676 13.8736 59.5832 16.8394C60.8017 19.8121 61.4278 22.9941 61.4262 26.2068V26.2056Z" fill="#60547B"/>
<path opacity="0.3" d="M61.4299 26.2056C61.4299 39.7213 50.5732 50.678 37.1819 50.678C31.3098 50.6815 25.6394 48.5361 21.2402 44.6465C26.1789 31.5809 35.4377 16.6479 52.7516 7.43906C55.4761 9.74056 57.6632 12.6112 59.1588 15.849C60.6592 19.0957 61.4342 22.6302 61.4299 26.2068V26.2056Z" fill="#000072"/>
<path opacity="0.6" d="M35.7097 6.1742C39.3598 6.17267 42.9623 7.00187 46.2444 8.599C49.5364 10.2012 52.4235 12.5271 54.6897 15.4026C56.9642 18.2886 58.5622 21.648 59.3661 25.2335C60.1724 28.8243 60.165 32.5518 59.3454 36.139C60.985 32.4102 61.676 28.3336 61.3568 24.2728C61.0375 20.2121 59.718 16.2935 57.5158 12.8668C55.3213 9.45531 52.3087 6.64655 48.7522 4.69591C45.2071 2.75243 41.2296 1.73312 37.1868 1.73199C25.6605 1.73199 16.0247 9.84311 13.5499 20.7181C17.3237 12.1496 25.8239 6.1742 35.7097 6.1742Z" fill="white"/>
<path d="M37.1782 52.4076C22.8624 52.4076 11.2153 40.6531 11.2153 26.2032C11.2153 11.7544 22.8636 0 37.1782 0C51.494 0 63.1423 11.7556 63.1423 26.2032C63.1423 40.6519 51.494 52.4076 37.1782 52.4076ZM37.1782 3.4579C24.7517 3.4579 14.6415 13.662 14.6415 26.2032C14.6415 38.7455 24.753 48.9509 37.1782 48.9509C49.6047 48.9509 59.7161 38.7467 59.7161 26.2032C59.7161 13.6608 49.6059 3.4579 37.1782 3.4579Z" fill="#000072"/>
<path d="M121.2 26.2056C121.2 39.7213 132.055 50.6792 145.448 50.6792C148.637 50.6763 151.795 50.0413 154.738 48.811C157.681 47.5806 160.351 45.7792 162.594 43.5109C167.15 38.9039 169.703 32.6857 169.7 26.2068C169.7 12.6863 158.844 1.72833 145.448 1.72833C142.263 1.72833 139.109 2.36259 136.167 3.59206C133.22 4.82498 130.547 6.62812 128.3 8.89783C126.045 11.1757 124.259 13.8739 123.044 16.8394C121.825 19.8119 121.198 22.994 121.2 26.2068V26.2056Z" fill="#60547B"/>
<path opacity="0.3" d="M121.2 26.2056C121.2 39.7213 132.055 50.678 145.448 50.678C151.32 50.6811 156.99 48.5358 161.389 44.6465C156.449 31.5809 147.194 16.6479 129.878 7.43906C127.154 9.74072 124.967 12.6113 123.471 15.849C121.971 19.0957 121.196 22.6303 121.2 26.2068V26.2056Z" fill="#000072"/>
<path opacity="0.6" d="M146.915 6.1742C143.268 6.1742 139.669 7.00361 136.384 8.60266C133.093 10.206 130.207 12.5322 127.942 15.4075C125.669 18.2929 124.071 21.6514 123.267 25.2359C122.461 28.8267 122.468 32.5523 123.287 36.1402C121.647 32.4113 120.957 28.3347 121.276 24.2739C121.596 20.2132 122.915 16.2947 125.117 12.868C127.312 9.45597 130.325 6.64677 133.882 4.69591C137.427 2.75254 141.404 1.73322 145.446 1.73199C156.973 1.73199 166.61 9.84311 169.083 20.7181C165.305 12.1496 156.806 6.1742 146.915 6.1742Z" fill="white"/>
<path d="M145.452 52.4076C131.137 52.4076 119.49 40.6531 119.49 26.2032C119.49 11.7544 131.137 0 145.452 0C159.768 0 171.416 11.7556 171.416 26.2032C171.416 40.6519 159.768 52.4076 145.452 52.4076ZM145.452 3.4579C133.026 3.4579 122.916 13.662 122.916 26.2032C122.916 38.7455 133.026 48.9509 145.452 48.9509C157.879 48.9509 167.989 38.7467 167.989 26.2032C167.989 13.6608 157.879 3.4579 145.452 3.4579Z" fill="#000072"/>
<path d="M161.849 70.6789C161.849 70.6789 160.345 3.84698 91.3141 3.84698C22.2831 3.84698 20.778 70.6789 20.778 70.6789C-7.83294 133.792 91.3141 132.306 91.3141 132.306C91.3141 132.306 190.461 133.792 161.849 70.6789Z" fill="white"/>
<path d="M91.8081 132.542H91.308C91.1787 132.542 77.4459 132.712 61.8848 129.769C47.497 127.048 28.556 121.036 20.0217 107.84C13.6535 97.992 13.8328 85.468 20.551 70.624C20.584 69.6153 21.2658 53.2796 29.9575 37.1538C35.2047 27.418 42.2998 19.6594 51.0476 14.095C61.9787 7.14266 75.5236 3.61768 91.3116 3.61768C107.101 3.61768 120.649 7.14266 131.578 14.095C140.325 19.6594 147.42 27.418 152.669 37.1538C161.359 53.2784 162.042 69.6141 162.076 70.624C168.794 85.4704 168.972 97.9883 162.604 107.838C154.07 121.034 135.129 127.047 120.743 129.766C106.85 132.399 94.417 132.542 91.8081 132.542ZM91.308 132.083C91.4519 132.083 105.144 132.253 120.664 129.317C134.962 126.611 153.777 120.647 162.222 107.586C168.505 97.87 168.312 85.485 161.64 70.7753L161.621 70.6838C161.621 70.5167 161.14 53.8261 152.257 37.3575C144.069 22.1744 126.852 4.07629 91.3116 4.07629C55.7716 4.07629 38.5516 22.1744 30.3636 37.3575C21.4841 53.8261 21.0072 70.5167 20.9999 70.6838L20.9804 70.7753C14.311 85.485 14.117 97.87 20.3998 107.586C28.8439 120.647 47.6604 126.611 61.9567 129.317C77.4776 132.25 91.1714 132.082 91.308 132.081V132.083Z" fill="#000072"/>
<path d="M63.8144 81.4392C63.8144 81.4392 67.5809 68.9981 74.9675 60.3479C78.9669 55.6678 79.6402 48.8362 76.2652 43.6768C74.1185 40.3958 70.3557 37.7722 63.8107 37.7722C46.3651 37.7722 34.035 59.9661 33.6862 73.6367C33.3373 87.3073 41.3631 93.7303 46.8298 94.2145C52.2954 94.6988 60.9066 93.0619 63.8144 81.4392ZM118.817 81.4392C118.817 81.4392 115.051 68.9981 107.664 60.3479C103.664 55.6678 102.989 48.8362 106.367 43.6768C108.513 40.3958 112.275 37.7722 118.82 37.7722C136.267 37.7722 148.596 59.9661 148.943 73.6367C149.292 87.3073 141.269 93.7303 135.802 94.2145C130.335 94.6988 121.724 93.0619 118.817 81.4392Z" fill="#60547B"/>
<path opacity="0.3" d="M91.3116 132.311C91.3116 132.311 -5.48873 133.759 19.8118 72.9085C6.3413 123.356 91.3116 122.27 91.3116 122.27C91.3116 122.27 177.755 123.223 162.07 71.1802C189.934 133.785 91.3116 132.311 91.3116 132.311Z" fill="#000072"/>
<path opacity="0.3" d="M108.254 78.9461C108.154 78.817 108.019 78.719 107.865 78.6635C107.712 78.608 107.546 78.5973 107.386 78.6327C107.226 78.6686 107.079 78.7497 106.964 78.8665C106.849 78.9832 106.769 79.1307 106.735 79.2913C106.22 81.6039 104.786 85.4326 100.946 85.3704C95.4514 85.2789 96.3674 76.8751 96.3674 76.8751H86.245C86.245 76.8751 87.1597 85.2826 81.6649 85.3704C77.8252 85.4314 76.3921 81.6039 75.8774 79.2901C75.8411 79.1305 75.7607 78.9843 75.6453 78.8683C75.5299 78.7523 75.3842 78.671 75.2248 78.6339C75.0658 78.5976 74.8998 78.6076 74.7463 78.6628C74.5929 78.7179 74.4584 78.8158 74.3588 78.9449C73.033 80.6428 71.2937 83.753 72.5927 87.3073C74.5564 92.6777 81.321 93.7742 81.321 93.7742L91.308 87.2195L101.293 93.7706C101.293 93.7706 108.052 92.674 110.02 87.3036C111.315 83.7543 109.576 80.6452 108.254 78.9461Z" fill="#000072"/>
<path d="M101.483 69.1091C97.7835 66.971 91.3153 67.0905 91.3153 67.0905C91.3153 67.0905 84.8472 66.9685 81.1465 69.1091C79.9158 69.8214 79.4194 71.368 79.9366 72.7012C81.0282 75.4931 83.9616 80.1817 91.3153 80.1817C98.669 80.1817 101.6 75.4931 102.693 72.7012C103.215 71.368 102.715 69.8227 101.483 69.1091Z" fill="#000072"/>
<path d="M93.2595 77.8691C93.2864 78.1167 93.2961 78.2655 93.3083 78.457L93.3315 78.9937C93.34 79.3474 93.3437 79.6999 93.3315 80.0512C93.3034 80.7586 93.2339 81.4624 93.1242 82.1613C92.89 83.5664 92.4728 84.9935 91.7483 86.3388C91.375 87.0228 90.9267 87.6631 90.4115 88.2477C89.8816 88.841 89.2725 89.3586 88.6014 89.7857C87.9395 90.2036 87.2288 90.5387 86.4852 90.7835C85.7708 91.0095 85.0338 91.1567 84.2873 91.2226C82.8798 91.3372 81.4637 91.2592 80.0768 90.9908C79.3619 90.8533 78.6633 90.6415 77.9923 90.359C77.2856 90.0724 76.6226 89.6881 76.0225 89.2174C74.7967 88.2623 73.8539 86.856 73.5514 85.3814C73.3997 84.6649 73.3712 83.9278 73.4672 83.2017C73.5536 82.4931 73.7756 81.8078 74.121 81.1831C74.1634 81.1082 74.2274 81.0478 74.3046 81.0097C74.3818 80.9717 74.4687 80.9577 74.554 80.9696C74.6394 80.9822 74.7189 81.0204 74.7821 81.0792C74.8453 81.1381 74.8891 81.2147 74.9077 81.299L74.9199 81.3539C75.1931 82.5638 75.5029 83.6896 75.942 84.6154C76.3811 85.5411 76.9422 86.2949 77.7521 86.7987C78.1655 87.0609 78.6132 87.2622 79.0828 87.3975C79.5804 87.5488 80.0915 87.6537 80.6086 87.7086C81.6857 87.8342 82.7749 87.8147 83.847 87.6525C84.3385 87.5706 84.8215 87.4441 85.2899 87.2744C86.6115 86.7648 87.686 85.7658 88.2904 84.4849C88.7417 83.5457 89.0466 82.5455 89.1991 81.5136C89.2869 80.9721 89.3455 80.4244 89.3711 79.8756C89.3833 79.6011 89.3955 79.3267 89.3955 79.0498V78.6436L89.3796 78.2911L89.3747 78.1704C89.3503 77.6569 89.5248 77.1532 89.8614 76.7677C90.1963 76.3825 90.6694 76.1445 91.1784 76.1052C91.6874 76.0659 92.1913 76.2286 92.5814 76.5579C92.9717 76.8873 93.2205 77.3593 93.273 77.8703H93.2608L93.2595 77.8691Z" fill="#000072"/>
<path d="M93.262 78.2899L93.2473 78.6437V79.0498C93.2473 79.3243 93.2595 79.5999 93.2717 79.8756C93.2985 80.4244 93.3559 80.9709 93.4425 81.5124C93.5949 82.5443 93.9011 83.5457 94.3524 84.4836C94.9568 85.7646 96.0313 86.7636 97.3529 87.2731C97.8212 87.4439 98.3043 87.5695 98.7958 87.6513C99.8679 87.8147 100.956 87.8342 102.033 87.7074C102.55 87.6518 103.062 87.5481 103.56 87.3975C104.027 87.2608 104.472 87.0588 104.882 86.7975C105.692 86.2937 106.253 85.5411 106.692 84.6142C107.133 83.6872 107.441 82.5626 107.713 81.3539L107.725 81.3002C107.745 81.2164 107.789 81.1402 107.852 81.0816C107.915 81.0229 107.994 80.9844 108.079 80.9709C108.164 80.9579 108.251 80.9712 108.329 81.0089C108.407 81.0465 108.471 81.1069 108.513 81.1819C108.859 81.8065 109.08 82.4919 109.166 83.2005C109.263 83.9262 109.235 84.6642 109.084 85.3801C108.78 86.8548 107.838 88.2611 106.612 89.2162C106.012 89.687 105.349 90.0713 104.642 90.3578C103.971 90.6405 103.272 90.8522 102.556 90.9896C101.171 91.258 99.7533 91.336 98.3457 91.2214C97.5997 91.1552 96.8631 91.008 96.149 90.7823C95.4055 90.5379 94.6948 90.2033 94.0328 89.7858C93.3616 89.3582 92.7526 88.8402 92.2227 88.2465C91.7079 87.6616 91.2595 87.0214 90.8859 86.3376C90.159 84.9923 89.7431 83.5652 89.5113 82.1601C89.4003 81.4614 89.3307 80.7568 89.3027 80.05C89.2882 79.6976 89.2882 79.3448 89.3027 78.9925L89.3259 78.4558C89.3381 78.2643 89.3467 78.1143 89.3735 77.8691C89.426 77.3602 89.674 76.8915 90.0651 76.5616C90.4541 76.233 90.9565 76.0703 91.4643 76.1083C91.972 76.1464 92.4445 76.3823 92.7802 76.7653C93.1168 77.1495 93.2937 77.6496 93.2717 78.1619L93.262 78.2899Z" fill="#000072"/>
<path d="M91.3153 80.6745C91.3153 81.2075 91.2958 81.721 91.2666 82.2052C91.23 81.6958 91.2117 81.1852 91.2117 80.6745H91.3153Z" fill="#222A66"/>
<path d="M91.0372 82.2211C91.0015 81.7063 90.9836 81.1905 90.9835 80.6745V80.4452H91.5409V80.6745C91.5409 81.1624 91.5239 81.6673 91.4909 82.2186L91.0372 82.2211Z" fill="#000072"/>
<path d="M91.3116 106.197H91.2628C85.4643 106.197 82.2552 103.566 80.4915 100.385C77.7911 95.5038 78.4912 89.3211 78.4912 89.3211C78.4912 89.3211 90.4127 93.3071 91.2628 81.3526C92.1105 93.3059 104.031 89.3211 104.031 89.3211C104.031 89.3211 105.954 106.157 91.3116 106.197Z" fill="#000072"/>
<path d="M91.3141 94.2146C83.6714 94.2146 80.4952 100.386 80.4952 100.386C82.2614 103.566 85.4705 106.197 91.2678 106.197H91.3654C97.1651 106.197 100.374 103.566 102.138 100.385C102.135 100.385 98.9581 94.2146 91.3141 94.2146Z" fill="#FF4379"/>
<path d="M91.2665 107.924C86.7634 107.924 83.1993 106.476 80.6758 103.619C75.831 98.1323 76.7544 89.4894 76.7946 89.1222C76.8239 88.8677 76.909 88.6228 77.044 88.4049C77.1789 88.1871 77.3603 88.0018 77.5752 87.8623C77.7896 87.7244 78.0321 87.6363 78.285 87.6047C78.5379 87.573 78.7947 87.5985 79.0365 87.6793C79.0816 87.6927 83.969 89.2649 86.9951 87.0475C88.4819 85.9583 89.337 84.0446 89.5492 81.3514C89.52 80.8905 89.5058 80.4289 89.5065 79.9671C89.5163 79.5036 89.7065 79.0608 90.0359 78.7351C90.3638 78.4117 90.8059 78.2304 91.2665 78.2304C91.7272 78.2304 92.1693 78.4117 92.4972 78.7351C92.8266 79.0608 93.0168 79.5036 93.0266 79.9671C93.0266 80.4427 93.0132 80.9038 92.9839 81.3502C93.1949 84.0458 94.0512 85.9583 95.5392 87.0463C98.5653 89.2649 103.448 87.6891 103.5 87.6769C103.742 87.5971 103.999 87.5725 104.251 87.605C104.504 87.6375 104.745 87.7263 104.959 87.8647C105.174 88.0032 105.356 88.1878 105.49 88.405C105.625 88.6223 105.71 88.8669 105.738 89.121C105.78 89.4894 106.702 98.1347 101.857 103.619C99.3325 106.476 95.771 107.924 91.2665 107.924ZM80.1305 91.4665C80.1635 93.9816 80.6306 98.3799 83.2433 101.328C85.0887 103.411 87.7891 104.466 91.2678 104.466C94.7452 104.466 97.4444 103.411 99.2898 101.329C101.902 98.3811 102.37 93.9828 102.4 91.4665C100.107 91.8398 96.4345 91.9654 93.5425 89.8577C92.6306 89.1913 91.8585 88.352 91.2702 87.3878C90.6815 88.3521 89.909 89.1914 88.9967 89.8577C86.0998 91.9654 82.4273 91.8446 80.1318 91.4678L80.1305 91.4665Z" fill="#000072"/>
<path d="M91.3068 70.7313C94.5585 70.7313 97.1943 70.2983 97.1943 69.7641C97.1943 69.2299 94.5585 68.7957 91.3068 68.7957C88.055 68.7957 85.418 69.2287 85.418 69.7641C85.418 70.2983 88.055 70.7313 91.3068 70.7313Z" fill="white"/>
<path d="M91.3056 70.9619C90.6799 70.9619 85.1899 70.9277 85.1899 69.7678C85.1899 68.609 90.6787 68.57 91.3056 68.57C91.9301 68.57 97.42 68.6042 97.42 69.769C97.42 70.9326 91.9313 70.9619 91.3056 70.9619ZM85.6571 69.7678C85.8864 70.0312 87.7404 70.502 91.3044 70.502C94.8696 70.502 96.7236 70.0264 96.9541 69.7678C96.7236 69.5055 94.8708 69.0286 91.3056 69.0286C87.7391 69.0286 85.8901 69.5007 85.6571 69.7641V69.7678Z" fill="#000072"/>
<path d="M91.7996 134.042H91.3178C90.6384 134.05 77.0056 134.154 61.6153 131.244C40.2763 127.207 25.8654 119.609 18.7837 108.658C12.1582 98.4128 12.2582 85.5009 19.0813 70.2776C19.1911 67.6589 20.1839 52.1624 28.6573 36.439C34.0241 26.4739 41.2936 18.5336 50.2536 12.8265C61.4262 5.72047 75.2407 2.11743 91.3154 2.11743C107.39 2.11743 121.203 5.72047 132.373 12.8265C141.337 18.5287 148.605 26.4739 153.976 36.4366C162.449 52.16 163.442 67.6577 163.551 70.2752C170.37 85.4985 170.475 98.4104 163.849 108.656C156.768 119.607 142.357 127.205 121.017 131.241C107 133.892 94.4354 134.042 91.7996 134.042ZM91.3178 130.58H91.3422C91.874 130.59 145.26 131.085 160.984 106.761C166.969 97.5053 166.738 85.607 160.295 71.3961C160.199 71.1823 160.146 70.9512 160.142 70.7167C160.142 70.5533 159.652 54.1286 150.908 37.9771C139.272 16.4772 119.22 5.57533 91.3178 5.57533C63.4143 5.57533 43.3634 16.4784 31.7249 37.9783C22.9807 54.1335 22.4953 70.5569 22.4916 70.7179C22.4862 70.9525 22.4335 71.1836 22.3367 71.3973C15.8954 85.607 15.6637 97.5066 21.6476 106.762C37.3746 131.088 90.7592 130.591 91.2897 130.582L91.3178 130.58Z" fill="#000072"/>
<path d="M65.8647 62.4019C66.4782 56.3607 63.4326 51.0964 59.0612 50.6438C54.6909 50.1925 50.65 54.7238 50.0377 60.765C49.4242 66.8075 52.4698 72.0718 56.8413 72.5231C61.2115 72.9744 65.2524 68.4444 65.8647 62.4019Z" fill="#000072"/>
<path d="M61.2212 57.251C61.4139 55.3446 60.2137 53.659 58.5391 53.4858C56.8644 53.3126 55.3495 54.7177 55.1568 56.6229C54.9628 58.5293 56.163 60.215 57.8389 60.3882C59.5136 60.5614 61.0273 59.1562 61.2212 57.251Z" fill="white"/>
<path opacity="0.3" d="M55.247 64.3303C54.8108 64.2855 54.3712 64.3722 53.9846 64.5791C53.5968 64.7865 53.2784 65.1036 53.0698 65.4939C52.862 65.8836 52.7732 66.3257 52.8144 66.7655C52.8556 67.2052 53.025 67.6232 53.3016 67.9675C53.5797 68.3114 53.9505 68.5639 54.3701 68.6932C54.7893 68.8239 55.2381 68.826 55.6585 68.6993C56.079 68.5725 56.4518 68.3227 56.729 67.9821C56.9384 67.7269 57.089 67.4287 57.1701 67.1087C57.2512 66.7887 57.2609 66.4547 57.1983 66.1306C57.1358 65.8064 57.0027 65.5 56.8083 65.2331C56.614 64.9663 56.3633 64.7455 56.074 64.5864C55.818 64.4471 55.5369 64.3601 55.247 64.3303Z" fill="white"/>
<path d="M124.975 72.5158C129.345 72.0645 132.39 66.8002 131.778 60.7577C131.165 54.7165 127.124 50.1852 122.754 50.6377C118.382 51.089 115.336 56.3533 115.95 62.3958C116.562 68.4371 120.603 72.9683 124.975 72.5158Z" fill="#000072"/>
<path d="M123.979 60.3784C125.654 60.2052 126.855 58.5195 126.662 56.6144C126.469 54.7079 124.954 53.3028 123.279 53.476C121.605 53.6492 120.403 55.3349 120.597 57.2413C120.791 59.1465 122.305 60.5516 123.979 60.3784Z" fill="white"/>
<path opacity="0.3" d="M126.564 64.3303C126.999 64.2851 127.44 64.3718 127.826 64.5791C128.117 64.736 128.369 64.9549 128.565 65.2201C128.761 65.4854 128.897 65.7906 128.962 66.1141C129.027 66.4376 129.02 66.7714 128.941 67.0919C128.863 67.4124 128.715 67.7118 128.508 67.9687C128.303 68.2257 128.043 68.4335 127.747 68.5768C127.451 68.72 127.127 68.795 126.798 68.7963C126.469 68.7976 126.145 68.7251 125.848 68.5842C125.551 68.4433 125.289 68.2375 125.082 67.9821C124.754 67.5821 124.574 67.0816 124.572 66.5645C124.57 66.0475 124.746 65.5454 125.07 65.1426C125.441 64.6848 125.978 64.3928 126.564 64.3303Z" fill="white"/>
</svg>
