<svg width="317" height="410" viewBox="0 0 317 410" fill="none" xmlns="http://www.w3.org/2000/svg">
<g clip-path="url(#clip0_5_4037)">
<g clip-path="url(#clip1_5_4037)">
<g clip-path="url(#clip2_5_4037)">
<g clip-path="url(#clip3_5_4037)">
<mask id="mask0_5_4037" style="mask-type:luminance" maskUnits="userSpaceOnUse" x="-1" y="0" width="316" height="408">
<path d="M-0.0976562 0.0653076H314.848V407.737H-0.0976562V0.0653076Z" fill="white"/>
</mask>
<g mask="url(#mask0_5_4037)">
<path d="M139.11 246.529C139.11 246.529 159.724 253.317 153.51 272.177C153.51 272.177 151.438 290.615 156.616 299.919C161.224 308.206 166.418 318.154 160.445 326.954C152.984 337.948 128.13 352.808 95.5005 354.635C61.7277 356.528 48.1882 341.758 51.4032 331.344C54.6199 320.93 56.1674 313.664 53.1299 306.893C50.0923 300.124 38.2618 285.555 52.8789 273.905C67.4959 262.255 139.11 246.529 139.11 246.529Z" fill="#52BF2E"/>
<path d="M139.11 246.529C139.11 246.529 159.724 253.317 153.51 272.177C153.51 272.177 151.438 290.615 156.616 299.919C161.224 308.206 166.418 318.154 160.445 326.954C152.984 337.948 128.13 352.808 95.5005 354.635C61.7277 356.528 48.1882 341.758 51.4032 331.344C54.6199 320.93 56.1674 313.664 53.1299 306.893C50.0923 300.124 38.2618 285.555 52.8789 273.905C67.4959 262.255 139.11 246.529 139.11 246.529Z" fill="#52BF2E"/>
<path opacity="0.5" d="M75.1441 344.858C67.6797 344.25 58.1897 338.439 59.0451 332.762C60.599 322.364 63.1729 316.399 58.5926 306.059C53.4512 294.449 55.0882 289.474 57.659 291.47C60.2297 293.467 64.057 296.703 74.5829 300.848C84.893 304.906 72.8164 309.612 75.5693 324.783C77.7212 336.637 82.6053 345.465 75.1441 344.858Z" fill="white"/>
<path d="M134.14 254.323C134.14 254.323 151.725 260.113 146.424 276.199C146.424 276.199 144.656 291.929 149.072 299.868C153.001 306.938 157.434 315.424 152.339 322.933C145.973 332.311 124.771 344.989 96.9313 346.549C68.1193 348.162 117.916 336.413 109.962 313.238C104.05 296.014 48.0986 287.605 60.5702 277.665C73.0401 267.725 134.14 254.323 134.14 254.323Z" fill="#469B19"/>
<path d="M89.6077 357.097C65.3041 357.097 55.4912 348.173 52.2842 344.1C48.9333 339.846 47.8366 335.074 49.1987 330.664C52.4616 320.092 53.6399 313.656 51.0212 307.816C50.5912 306.86 49.9501 305.697 49.2083 304.351C45.1316 296.948 37.5473 283.168 51.4305 272.104C66.2985 260.254 135.665 244.935 138.611 244.288C139.016 244.2 139.438 244.222 139.833 244.352C140.061 244.427 145.518 246.254 150.208 250.599C154.662 254.718 159.22 261.886 155.775 272.647C155.571 274.719 154.16 290.776 158.621 298.808C162.872 306.45 169.292 317.999 162.346 328.233C153.812 340.807 127.531 355.129 95.6188 356.923C93.6172 357.039 91.6127 357.098 89.6077 357.097ZM138.955 248.913C131.753 250.523 67.6254 265.076 54.3114 275.68C44.2778 283.677 48.0828 292.762 53.2498 302.148C54.0396 303.582 54.7206 304.821 55.2258 305.947C58.7478 313.796 56.6758 322.046 53.5999 332.007C52.6935 334.942 53.5136 338.233 55.9085 341.273C62.185 349.238 76.9347 353.369 95.3615 352.346C127.67 350.536 151.748 335.657 158.522 325.67C163.484 318.357 159.673 310.183 154.584 301.027C149.118 291.197 151.121 272.703 151.209 271.921C151.225 271.765 151.259 271.611 151.308 271.461C156.248 256.497 142.084 250.12 138.955 248.913Z" fill="#232333"/>
<path d="M126.397 196.897C126.397 196.897 134.69 220.798 141.698 225.196C148.546 229.495 155.096 236.844 141.142 254.15C128.822 269.427 96.2935 288.761 69.4751 285.656C46.508 282.996 41.7647 274.243 46.2522 260.591C46.2522 260.591 48.6839 236.985 40.3242 224.687C30.5801 208.935 36.6392 203.068 42.9141 196.377C54.2074 184.312 101.662 158.334 120.846 164.291C135.064 168.705 123.288 188.098 126.397 196.897Z" fill="#52BF2E"/>
<path d="M122.421 200.096C122.421 200.096 129.754 221.229 135.951 225.121C142.007 228.921 147.799 235.415 135.46 250.719C127.177 260.985 108.578 273.323 89.7162 277.45C83.7626 278.753 98.9808 257.872 94.0567 238.438C90.8018 225.6 68.7076 224.345 57.6877 219.442C49.1569 215.65 49.7756 209.885 52.511 209.543C113.499 201.943 107.823 167.908 117.85 168.178C128.049 168.453 119.671 192.321 122.421 200.096Z" fill="#469B19"/>
<path d="M75.36 288.273C73.3076 288.276 71.2568 288.16 69.2178 287.926C56.4217 286.446 48.4233 282.965 44.7687 277.291C41.9406 272.898 41.6848 267.28 43.9917 260.123C44.2075 257.691 45.7935 236.799 38.4282 225.971L38.3722 225.886C27.9263 208.998 34.4794 202.013 40.8183 195.26L41.2339 194.815C52.9461 182.307 101.35 155.832 121.54 162.106C132.607 165.54 130.711 176.304 129.189 184.951C128.444 189.182 127.673 193.556 128.586 196.147V196.158C131.692 205.106 138.335 220.379 142.939 223.268C146.148 225.28 150.528 228.627 151.499 234.39C152.491 240.291 149.695 247.224 142.957 255.587C131.508 269.76 101.966 288.273 75.36 288.273ZM42.2667 223.445C50.9621 236.289 48.652 259.824 48.5496 260.82C48.5337 260.983 48.4985 261.143 48.4473 261.299C46.5129 267.184 46.5768 271.608 48.6456 274.818C51.5073 279.263 58.4089 282.06 69.7422 283.373C96.1641 286.436 127.67 267.184 139.345 252.711C145.139 245.527 147.695 239.615 146.942 235.138C146.424 232.091 144.432 229.623 140.471 227.133C132.998 222.443 125.107 200.197 124.223 197.648C122.914 193.938 123.75 189.186 124.637 184.158C126.329 174.549 126.872 168.563 120.156 166.478C112.377 164.063 97.7004 167.406 79.8924 175.652C65.1379 182.488 50.2874 191.866 44.5976 197.936L44.1788 198.384C38.0941 204.873 33.6928 209.565 42.2667 223.445Z" fill="#232333"/>
<path d="M77.5389 300.137C77.5389 300.137 85.7243 314.22 75.7083 316.401C67.0945 318.274 44.8692 304.58 35.8749 291.968C29.5807 283.143 29.9676 276.874 36.3481 278.537C43.4671 280.391 51.6957 290.201 72.4582 295.881" fill="#52BF2E"/>
<path d="M77.5389 300.137C77.5389 300.137 85.7243 314.22 75.7083 316.401C67.0945 318.274 44.8692 304.58 35.8749 291.968C29.5807 283.143 29.9676 276.874 36.3481 278.537C43.4671 280.391 51.6957 290.201 72.4582 295.881L77.5389 300.137Z" fill="#52BF2E"/>
<path d="M77.5389 300.137C77.5389 300.137 85.7243 314.22 75.7083 316.401C67.0945 318.274 44.8692 304.58 35.8749 291.968C29.5807 283.143 29.9676 276.874 36.3481 278.537C43.4671 280.391 51.6957 290.201 72.4582 295.881L77.5389 300.137Z" fill="#52BF2E"/>
<path d="M77.0657 311.374C76.9074 311.98 76.602 312.661 74.9602 313.013C72.4374 313.561 66.1417 311.812 57.766 306.666C76.0553 305.19 39.9772 291.94 35.4624 281.892C37.5855 282.444 40.193 284.115 43.4943 286.23C49.5055 290.081 57.6989 295.328 70.7843 299.019C70.7843 299.019 79.0241 306.489 77.0657 311.374Z" fill="#469B19"/>
<path d="M78.2983 299.7C81.0161 303.689 83.5917 309.117 81.6364 313.966C79.969 317.905 74.8803 318.891 71.1393 318.098C58.93 315.568 45.4128 305.787 37.1123 296.684C35.2842 294.618 33.6588 292.382 32.2587 290.006C30.8102 287.411 29.5408 284.871 29.4113 281.707C29.2627 278.26 31.8606 275.916 35.309 276.398C38.9796 276.89 42.1994 279.112 45.0036 280.864C50.5207 284.519 55.95 287.814 61.9227 290.442C65.4527 292.107 69.093 293.486 72.6869 295.037C73.6461 295.434 73.2448 296.877 72.22 296.724C66.9123 295.913 61.7357 294.236 56.8884 291.937C52.0123 289.667 47.4096 286.797 42.9956 283.995C40.6503 282.593 35.859 279.37 33.6048 280.417C32.5144 282.27 34.6279 286.217 35.6671 288.044C39.5871 294.578 45.3745 299.755 51.5055 304.319C55.9787 307.755 76.7668 321.162 78.9442 311.139C79.4078 307.611 78.0329 303.953 76.7732 300.572C76.3511 299.609 77.6876 298.863 78.2967 299.696L78.2983 299.7Z" fill="#232333"/>
<path d="M33.6033 289.395C34.182 291.052 30.1661 299.736 18.4507 299.926C8.50832 300.086 1.80492 295.972 2.01276 291.549C2.23498 286.962 12.617 283.032 18.9831 283.253C27.1717 283.538 33.023 287.741 33.6033 289.395Z" fill="#52BF2E"/>
<path opacity="0.5" d="M9.09007 292.214C9.20997 294.808 14.0924 296.493 10.8119 296.124C7.69439 295.772 5.56491 293.624 5.78233 291.796C6.01095 289.886 9.56808 287.707 11.3554 287.876C13.2163 288.052 8.97816 289.737 9.09007 292.214Z" fill="white"/>
<path d="M28.692 290.076C28.5641 293.163 21.3971 298.465 14.3979 296.602C19.3315 295.248 21.8959 292.025 21.7536 290.313C21.6784 289.422 19.6641 287.688 14.3547 286.823C18.6553 284.912 28.7911 287.793 28.692 290.076Z" fill="#469B19"/>
<path d="M17.8926 302.03C11.1621 302.03 5.32837 300.143 2.20769 296.939C0.612173 295.298 -0.183985 293.4 -0.089661 291.448C0.233279 284.77 12.676 280.94 19.0661 281.154C27.6512 281.451 34.596 285.825 35.6016 288.705C36.353 290.85 34.4553 293.798 33.8558 294.65C32.3338 296.818 27.7871 301.871 18.4906 302.023C18.2891 302.027 18.0941 302.03 17.8926 302.03ZM18.3882 285.342C12.0861 285.342 4.24444 289.136 4.12294 291.648C4.07498 292.612 4.70487 293.467 5.23884 294.017C7.10454 295.931 11.5442 297.926 18.4122 297.825C27.5441 297.678 31.1763 291.732 31.5153 289.991C30.5129 288.748 25.6672 285.584 18.911 285.349C18.7384 285.345 18.5657 285.343 18.393 285.342H18.3882Z" fill="#232333"/>
<path d="M44.5272 265.141C45.9213 271.624 45.2146 279.02 40.8661 279.093C36.5176 279.168 30.0892 273.115 29.3027 262.804C28.6232 253.936 32.9046 251.557 34.5832 251.402C37.9885 251.087 42.305 254.801 44.5272 265.141Z" fill="#52BF2E"/>
<path d="M42.9444 265.14C44.0267 270.174 43.4784 275.918 40.0987 275.977C36.7174 276.035 31.7278 271.333 31.1155 263.323C30.588 256.435 33.9149 254.588 35.2178 254.467C37.8669 254.22 41.2178 257.108 42.9444 265.14Z" fill="#52BF2E"/>
<path opacity="0.5" d="M32.9253 257.59C33.2835 258.105 33.2771 260.422 33.4018 262.078C33.9309 269.044 36.9349 273.016 36.6551 273.502C36.3738 273.987 32.0668 269.375 31.5041 263.455C31.1684 259.947 32.564 257.076 32.9253 257.59Z" fill="white"/>
<path d="M41.3201 265.571C41.9675 268.518 41.9883 274.394 40.7445 275.624C40.1786 276.187 38.9812 275.434 38.2713 274.455C40.8612 269.394 37.3888 255.653 33.8589 255.925C35.7773 252.895 39.3249 256.972 41.3201 265.571Z" fill="#469B19"/>
<path d="M40.7781 281.194C34.8692 281.194 28.0348 273.918 27.197 262.964C26.3881 252.387 32.1147 249.523 34.388 249.312C36.4344 249.117 43.3616 249.675 46.5926 264.703C47.6206 269.486 47.782 275.769 45.1474 279.066C44.0602 280.43 42.591 281.163 40.9028 281.192L40.7781 281.194ZM34.9876 253.482C34.9172 253.482 34.8485 253.482 34.7797 253.491C33.926 253.571 30.8501 255.355 31.4064 262.646C32.1275 272.107 37.8684 276.997 40.7845 276.997H40.8292C41.1362 276.997 41.4687 276.922 41.8428 276.457C43.1937 274.765 43.4543 270.193 42.4631 265.581C40.6694 257.202 37.376 253.482 34.9876 253.482Z" fill="#232333"/>
<path opacity="0.5" d="M69.4336 277.076C64.9652 279.24 48.2075 275.779 51.2435 266.152C54.337 256.327 53.2386 245.068 51.6783 236.91C50.3562 229.989 45.4305 221.883 46.7607 220.344C48.0892 218.806 52.7079 226.572 64.5751 230.756C76.1801 234.847 66.3129 244.11 65.9052 254.89C65.4304 267.287 76.2009 273.798 69.4336 277.076Z" fill="white"/>
<path d="M45.074 204.787C45.074 204.787 88.2488 205.191 108.218 170.497C108.218 170.497 89.71 172.975 72.5798 182.959C65.0179 187.367 71.854 189.952 70.121 194.883C67.4879 202.36 45.074 204.787 45.074 204.787Z" fill="#469B19"/>
<path d="M45.074 204.787C64.6997 201.349 84.1097 194.48 98.7955 180.756C102.214 177.573 105.222 174.146 108.221 170.497C107.054 173.448 105.583 176.27 103.831 178.916C91.5085 197.565 67.0179 207.178 45.074 204.782V204.787Z" fill="#232333"/>
<path d="M197.794 210.093L199.062 227.05L201.159 255.111L201.236 256.153C242.543 254.738 277.538 242.794 298.134 220.472C301.397 216.942 304.313 213.106 306.842 209.018C307.957 207.222 308.927 205.339 309.745 203.389C320.14 178.697 300.075 154.928 273.832 177.482C271.293 179.665 268.683 181.766 266.008 183.78C255.814 191.463 244.147 198.243 231.022 203.033C220.335 206.946 209.148 209.323 197.794 210.093Z" fill="#60567C"/>
<path d="M231.241 202.958C222.272 212.27 210.947 218.315 198.688 222.018L197.794 210.093C209.147 209.323 220.334 206.947 231.02 203.038L231.241 202.958Z" fill="#777782"/>
<path opacity="0.25" d="M231.241 202.958C222.272 212.27 210.947 218.315 198.688 222.018L197.794 210.093C209.147 209.323 220.334 206.947 231.02 203.038L231.241 202.958Z" fill="#181558"/>
<path d="M149.331 219.971L145.878 226.332C134.862 225.381 124.727 223.541 116.565 221.508C122.432 218.264 129.579 215.421 138.282 213.461L149.331 219.971Z" fill="#5E5E68"/>
<path d="M214.849 215.341C186.765 230.655 148.53 228.264 123.269 223.031C121.587 211.416 122.087 185.989 158.771 185.989C192.338 185.989 208.342 204.476 214.849 215.341Z" fill="#5E5E68"/>
<path opacity="0.25" d="M201.161 255.112L201.236 256.155C242.545 254.738 277.538 242.796 298.135 220.472C301.399 216.942 304.314 213.107 306.842 209.018C307.957 207.222 308.928 205.339 309.747 203.389C309.488 203.746 270.484 249.423 220.304 234.66C211.773 243.944 205.706 249.29 201.161 255.112Z" fill="#181558"/>
<path d="M295.018 204.293C295.918 203.4 296.632 202.339 297.119 201.169C297.607 200 297.857 198.745 297.857 197.478C297.857 196.211 297.607 194.956 297.119 193.787C296.632 192.617 295.918 191.556 295.018 190.664C293.196 188.855 290.732 187.84 288.164 187.84C285.597 187.84 283.133 188.855 281.311 190.664C280.411 191.556 279.698 192.618 279.211 193.787C278.723 194.957 278.473 196.211 278.473 197.478C278.473 198.745 278.723 199.999 279.211 201.169C279.698 202.339 280.411 203.4 281.311 204.293C283.134 206.1 285.597 207.115 288.164 207.115C290.732 207.115 293.195 206.1 295.018 204.293ZM284.815 185.89C285.298 185.891 285.777 185.798 286.223 185.614C286.67 185.431 287.076 185.161 287.419 184.82C287.761 184.48 288.034 184.075 288.22 183.629C288.406 183.183 288.502 182.705 288.503 182.222C288.502 181.739 288.406 181.261 288.22 180.816C288.034 180.37 287.761 179.965 287.419 179.625C287.076 179.284 286.67 179.014 286.223 178.831C285.777 178.647 285.298 178.553 284.815 178.555C284.332 178.553 283.854 178.647 283.407 178.831C282.96 179.014 282.554 179.284 282.211 179.625C281.869 179.965 281.597 180.37 281.411 180.816C281.225 181.261 281.128 181.739 281.127 182.222C281.128 182.705 281.225 183.183 281.411 183.629C281.597 184.075 281.869 184.48 282.211 184.82C282.554 185.161 282.96 185.431 283.407 185.614C283.854 185.798 284.332 185.891 284.815 185.89ZM303.251 196.867C303.734 196.868 304.213 196.774 304.66 196.591C305.107 196.407 305.513 196.138 305.855 195.797C306.198 195.456 306.47 195.052 306.656 194.606C306.842 194.16 306.938 193.682 306.94 193.199C306.938 192.716 306.842 192.238 306.656 191.792C306.47 191.347 306.198 190.942 305.855 190.601C305.513 190.261 305.107 189.991 304.66 189.807C304.213 189.624 303.734 189.53 303.251 189.532C302.768 189.53 302.29 189.624 301.843 189.807C301.396 189.99 300.989 190.26 300.646 190.601C300.304 190.941 300.032 191.346 299.845 191.792C299.659 192.238 299.563 192.716 299.562 193.199C299.563 193.682 299.659 194.16 299.845 194.606C300.032 195.052 300.304 195.457 300.646 195.798C300.989 196.138 301.396 196.408 301.843 196.591C302.29 196.775 302.768 196.868 303.251 196.867ZM298.614 187.434C299.135 187.122 299.589 186.709 299.951 186.22C300.312 185.732 300.573 185.176 300.719 184.586C300.864 183.996 300.892 183.383 300.8 182.782C300.708 182.182 300.498 181.605 300.182 181.086C299.539 180.036 298.507 179.282 297.311 178.99C296.114 178.698 294.851 178.891 293.797 179.527C293.275 179.839 292.821 180.252 292.459 180.74C292.098 181.229 291.837 181.785 291.691 182.375C291.545 182.965 291.518 183.578 291.61 184.179C291.702 184.78 291.912 185.356 292.228 185.875C292.872 186.925 293.904 187.678 295.1 187.97C296.296 188.262 297.559 188.069 298.614 187.434Z" fill="white"/>
<path d="M201.23 258.451C200.625 258.451 200.045 258.214 199.613 257.792C199.182 257.372 198.934 256.798 198.924 256.196C198.913 255.594 199.142 255.013 199.559 254.578C199.975 254.144 200.547 253.888 201.151 253.867C250.764 252.161 287.6 235.818 304.871 207.827C313.475 193.885 310.695 180.091 303.707 174.19C296.596 168.184 285.987 170.063 275.33 179.22C251.942 199.317 225.907 210.475 197.946 212.382C197.335 212.424 196.734 212.222 196.274 211.823C195.929 211.525 195.68 211.132 195.56 210.693C195.44 210.254 195.454 209.789 195.6 209.358C195.746 208.927 196.017 208.549 196.379 208.273C196.741 207.997 197.177 207.835 197.631 207.808C224.572 205.971 249.699 195.185 272.316 175.752C284.844 164.987 297.694 163.097 306.692 170.697C311.374 174.652 314.239 180.734 314.759 187.829C315.304 195.279 313.242 203.023 308.799 210.221C299.61 225.113 285.221 236.886 266.032 245.21C247.744 253.146 225.968 257.6 201.306 258.444L201.23 258.451Z" fill="#232333"/>
<path d="M170.579 291.382C170.977 306.607 172.186 315.747 172.633 325.878C173.876 343.305 169.682 382.3 172.154 395.326C173.279 401.263 179.909 405.428 206.216 405.428C219.146 405.428 225.76 405.949 228.021 396.869C230.646 386.315 219.538 381.638 219.538 381.638C219.538 381.638 233.097 340.025 235.904 306.682" fill="#686779"/>
<path d="M234.107 321.393C229.487 351.104 219.541 381.644 219.541 381.644C219.541 381.644 227.732 385.092 228.387 392.745C228.496 394.132 228.375 395.527 228.027 396.873C225.767 405.952 219.153 405.434 206.222 405.434C179.909 405.434 173.283 401.27 172.159 395.331C169.689 382.301 173.877 343.307 172.64 325.881C172.189 315.79 170.993 306.685 170.584 291.582V291.386L235.911 306.685C235.481 311.607 234.879 316.513 234.107 321.393Z" fill="#686779"/>
<path d="M234.107 321.393C229.487 351.104 219.541 381.644 219.541 381.644C219.541 381.644 227.732 385.092 228.387 392.745C228.496 394.132 228.375 395.527 228.027 396.873C225.767 405.952 219.153 405.434 206.222 405.434C179.909 405.434 173.283 401.27 172.159 395.331C169.689 382.301 173.877 343.307 172.64 325.881C172.189 315.79 170.993 306.685 170.584 291.582V291.386L235.911 306.685C235.481 311.607 234.879 316.513 234.107 321.393Z" fill="#60567C"/>
<path d="M132.047 324.241C132.047 324.241 126.404 345.87 106.824 342.653C89.3694 339.785 83.9258 319.587 93.315 309.451C104.313 297.574 124.866 298.289 132.047 324.241Z" fill="#777782"/>
<path d="M132.042 324.239C132.042 324.239 126.394 345.873 106.816 342.651C96.7602 341 90.6851 333.585 89.1455 325.665C88.0168 319.841 89.3293 313.74 93.3069 309.451C100.426 301.766 111.548 299.354 120.464 305.657C125.312 309.075 129.513 315.088 132.042 324.239Z" fill="#60567C"/>
<path opacity="0.25" d="M132.047 324.239C132.047 324.239 126.399 345.873 106.819 342.651C96.7635 341 90.6884 333.585 89.1504 325.665C92.1991 330.564 97.8586 336.88 105.708 333.951C117.142 329.687 103.16 315.058 120.469 305.652C125.316 309.075 129.518 315.088 132.047 324.239Z" fill="#181558"/>
<path d="M110.719 345.081C109.299 345.077 107.882 344.958 106.482 344.725C97.7227 343.285 90.7971 337.518 87.953 329.301C85.2864 321.596 86.746 313.445 91.7627 308.027C97.7963 301.513 106.418 298.641 114.26 300.532C123.531 302.767 130.567 310.989 134.087 323.683C134.185 324.037 134.187 324.411 134.093 324.767C134.037 324.986 128.568 345.081 110.719 345.081ZM109.4 304.159C104.18 304.159 98.8658 306.557 94.869 310.874C90.9042 315.154 89.7835 321.692 91.9434 327.935C94.2743 334.672 99.9689 339.401 107.17 340.584C123.243 343.227 128.89 327.424 129.857 324.242C126.727 313.403 120.848 306.442 113.265 304.615C111.999 304.31 110.701 304.156 109.398 304.156L109.4 304.159Z" fill="#232333"/>
<path opacity="0.25" d="M182.792 353.74C179.793 358.888 172.861 393.214 188.525 396.157C209.848 400.167 223.656 396.589 228.387 392.741C228.497 394.128 228.375 395.523 228.027 396.87C225.767 405.949 219.153 405.431 206.222 405.431C179.909 405.431 173.283 401.267 172.159 395.327C169.689 382.298 173.877 343.304 172.64 325.878C172.189 315.785 170.993 306.682 170.584 291.579V291.382L235.911 306.682C235.481 311.604 234.88 316.51 234.107 321.39C220.31 345.771 188.782 343.454 182.792 353.74Z" fill="#181558"/>
<path d="M172.884 291.322C173.103 302.916 174.373 314.545 174.955 326.151C175.561 337.892 174.715 349.638 174.277 361.316C173.954 372.359 172.971 383.377 174.318 394.309C174.533 396.17 175.385 397.654 177.076 398.787C184.993 403.912 206.075 403.195 215.925 403.014C221.073 402.744 224.631 401.655 225.786 396.277C227.33 390.816 223.456 385.957 218.635 383.748C218.109 383.522 217.685 383.109 217.446 382.588C217.207 382.068 217.169 381.478 217.34 380.931C219.259 374.859 221.049 368.747 222.708 362.599C225.468 352.611 227.739 342.512 229.783 332.365C230.903 327.064 232.168 321.326 233.114 316.001C233.73 312.856 234.19 309.696 234.758 306.538C234.977 305.251 237.052 305.275 237.047 306.778C236.932 313.126 236.334 319.766 235.482 326.081C234.679 332.484 233.348 338.795 231.85 345.066C228.937 357.636 225.629 370.031 221.727 382.347L220.432 379.531C220.779 379.681 220.991 379.788 221.253 379.916C227.05 382.795 231.699 388.989 230.577 395.694C230.07 399.118 228.707 402.648 225.802 404.811C221.22 408.068 215.412 407.59 210.211 407.722C204.449 407.695 198.19 407.74 192.449 407.223C184.611 406.395 171.885 405.379 169.903 395.839C169.225 392.112 169.126 388.293 169.063 384.539C168.969 368.917 170.263 353.428 170.523 337.886C170.844 322.322 168.506 307.002 168.267 291.438C168.267 288.457 172.685 288.238 172.876 291.318L172.884 291.322Z" fill="#232333"/>
<path d="M194.728 380.77C200.853 378.773 207.308 377.986 213.733 378.453C215.92 378.581 218.096 378.99 220.281 379.465C223.249 380.208 222.304 384.531 219.287 383.97C217.274 383.238 215.309 382.338 213.164 381.845C212.323 381.588 211.07 381.356 210.2 381.163C205.114 380.247 199.874 380.05 194.728 380.77Z" fill="#232333"/>
<path d="M119.532 320.639C119.532 320.639 141.287 340.616 170.581 340.616C183.135 340.616 193.386 338.976 201.004 337.101C219.146 332.634 233.328 318.279 236.903 300.039C236.996 299.574 237.082 299.106 237.162 298.636C238.436 291.238 238.406 283.221 237.343 274.7C236.123 264.932 231.965 251.824 226.083 238.441C223.79 233.223 221.3 228.093 218.62 223.063C218.62 223.063 197.783 183.815 158.765 187.786C136.423 190.062 124.466 228.697 124.466 228.697C122.459 233.215 120.73 238.698 119.323 244.774C119.118 245.652 118.921 246.532 118.733 247.415C113.764 270.932 113.398 302.091 119.532 320.639Z" fill="white"/>
<path opacity="0.25" d="M119.532 320.639C119.532 320.639 141.287 340.616 170.581 340.616C183.135 340.616 193.386 338.976 201.004 337.101C219.146 332.634 233.328 318.279 236.903 300.039C236.996 299.574 237.082 299.106 237.162 298.636C237.162 298.636 222.363 330.383 179.86 325.334C140.269 320.632 133.316 303.517 132.049 291.138C130.781 278.757 139.889 249.186 135.185 244.204C132.068 240.9 126.009 241.915 119.323 244.777C119.118 245.655 118.921 246.536 118.733 247.418C113.764 270.932 113.398 302.091 119.532 320.639Z" fill="#181558"/>
<path opacity="0.25" d="M204.558 336.164L203.987 336.319C203.94 336.335 203.891 336.348 203.842 336.359C196.12 338.492 185.076 340.56 171.153 340.616H170.582C141.294 340.616 119.535 320.64 119.535 320.64C116.619 311.827 115.173 300.171 114.995 287.84C114.787 274.211 116.13 259.758 118.734 247.415C118.925 246.527 119.123 245.645 119.323 244.78C126.013 241.913 132.065 240.9 135.182 244.206C139.892 249.181 130.782 278.767 132.049 291.139C132.264 293.366 132.683 295.568 133.299 297.718C136.584 308.933 146.936 321.425 179.861 325.334C181.741 325.556 183.567 325.707 185.337 325.791L204.558 336.164Z" fill="#371A45"/>
<path d="M118.733 244.55C163.396 264.06 219.533 249.792 226.088 238.443C223.794 233.225 221.304 228.095 218.625 223.065C218.625 223.065 206.31 185.989 158.771 185.989C111.232 185.989 124.464 228.699 124.464 228.699C122.169 233.861 120.24 237.416 118.733 244.55Z" fill="#777782"/>
<path d="M118.733 244.55C163.396 264.06 219.533 249.792 226.088 238.443C223.794 233.225 221.304 228.095 218.625 223.065C218.625 223.065 206.31 185.989 158.771 185.989C111.232 185.989 124.464 228.699 124.464 228.699C122.169 233.861 120.24 237.416 118.733 244.55Z" fill="#60567C"/>
<path opacity="0.25" d="M214.849 215.341C186.765 230.655 148.53 228.264 123.269 223.031C121.587 211.416 122.087 185.989 158.771 185.989C192.338 185.989 208.342 204.476 214.849 215.341Z" fill="#181558"/>
<path d="M125.52 229.167C117.337 254.965 113.78 293.932 121.721 319.918C121.878 320.352 121.899 320.823 121.782 321.269C121.665 321.715 121.415 322.115 121.065 322.417C120.833 322.619 120.563 322.772 120.271 322.868C119.978 322.964 119.67 323 119.363 322.975C119.057 322.949 118.759 322.863 118.486 322.722C118.214 322.581 117.971 322.388 117.774 322.153C117.578 321.918 117.431 321.646 117.342 321.353C114.882 313.632 113.758 305.728 113.137 297.848C111.93 277.245 112.88 256.045 119.828 236.433C120.44 234.857 121.336 232.43 122.117 230.926C122.538 230.024 122.974 229.124 123.412 228.238C123.513 228.042 123.667 227.878 123.857 227.766C124.047 227.654 124.265 227.599 124.486 227.606C124.706 227.614 124.92 227.684 125.102 227.809C125.284 227.933 125.426 228.107 125.513 228.31C125.625 228.585 125.63 228.89 125.52 229.167ZM221.457 327.758C240.638 305.055 237.377 275.806 228.04 249.59C224.921 240.828 221.512 232.173 218.62 223.065C219.378 223.997 220.086 224.958 220.798 225.92C228.406 236.662 233.442 248.921 237.287 261.448C243.864 283.749 242.705 313.612 221.457 327.758ZM201.027 387.342C207.54 389.916 209.828 399.633 204.758 404.713C202.87 406.619 200.229 407.965 197.425 407.486C196.847 407.375 196.337 407.042 196.005 406.557C195.841 406.317 195.726 406.048 195.667 405.764C195.608 405.48 195.605 405.187 195.66 404.902C196.103 402.971 197.952 403.15 199.529 402.307C205.7 399.554 205.41 391.735 201.027 387.34V387.342ZM215.436 386.877C220.521 389.959 223.431 398.557 220.27 403.863C218.977 406.092 216.435 407.885 213.671 407.693C213.065 407.649 212.501 407.366 212.102 406.907C211.905 406.68 211.755 406.417 211.661 406.132C211.567 405.847 211.53 405.547 211.553 405.247C211.623 404.13 212.478 403.396 213.469 403.112C214.568 402.724 215.546 402.057 216.307 401.175C219.591 397.66 218.205 390.504 215.433 386.877H215.436Z" fill="#232333"/>
<path d="M114.982 287.835C114.223 303.683 114.034 353.697 115.136 379.628C115.455 387.163 114.639 391.466 116.16 395.791C119.118 404.186 127.128 406.01 150.478 405.313C162.934 404.94 166.68 399.927 167.753 395.661C169.489 388.761 165.781 381.985 165.781 381.985C165.781 381.985 170.499 340.484 171.302 340.29C172.565 339.977 187.075 340.805 204.564 336.183L114.982 287.835Z" fill="white"/>
<path d="M204.568 336.17C195.231 338.637 186.745 339.552 180.665 339.918C175.359 340.234 171.887 340.132 171.297 340.281C170.499 340.477 165.783 381.981 165.783 381.981C165.783 381.981 169.482 388.755 167.753 395.655C166.677 399.922 162.934 404.934 150.479 405.307C127.123 406.007 119.12 404.184 116.157 395.785C114.637 391.466 115.454 387.163 115.136 379.625C114.373 361.702 114.231 332.268 114.464 310.569C114.565 300.872 114.746 292.722 114.981 287.83L204.568 336.17Z" fill="white"/>
<path opacity="0.25" d="M204.568 336.169C204.371 336.221 204.179 336.274 203.986 336.319C203.933 336.337 203.887 336.348 203.84 336.359C194.793 338.685 186.585 339.563 180.665 339.918C175.359 340.233 171.888 340.13 171.3 340.279C171.26 340.29 171.209 340.407 171.15 340.616H170.579C141.291 340.616 119.532 320.639 119.532 320.639C116.618 311.825 115.171 300.171 114.992 287.84L148.303 270.692C151.588 281.907 135.344 321.507 185.334 325.796L204.557 336.169H204.568Z" fill="#181558"/>
<path d="M180.665 339.916C175.359 340.233 171.887 340.132 171.297 340.281C170.499 340.477 165.783 381.981 165.783 381.981C165.783 381.981 169.482 388.755 167.753 395.655C166.677 399.922 162.934 404.934 150.479 405.306C127.123 406.005 119.12 404.184 116.157 395.785C114.637 391.466 115.454 387.163 115.136 379.625C114.373 361.702 114.231 332.268 114.464 310.568C119.133 316.685 134.891 332.923 173.418 338.092C176.159 338.458 178.562 339.08 180.665 339.916Z" fill="#777782"/>
<path d="M180.668 339.924C175.361 340.241 171.89 340.137 171.303 340.285C171.107 340.337 170.669 342.899 170.128 346.731C168.462 358.434 165.786 381.993 165.786 381.993C165.786 381.993 169.487 388.765 167.757 395.67C166.681 399.935 162.94 404.948 150.485 405.321C127.128 406.021 119.126 404.199 116.164 395.799C114.642 391.484 115.46 387.177 115.137 379.639C114.602 367.029 114.372 348.711 114.36 331.405C114.36 324.122 114.396 317.016 114.464 310.586C119.133 316.701 134.891 332.941 173.418 338.11C175.901 338.413 178.338 339.022 180.668 339.924Z" fill="#60567C"/>
<path opacity="0.25" d="M180.662 339.924C175.356 340.241 171.885 340.137 171.297 340.285C171.102 340.337 170.664 342.899 170.122 346.733C138.838 349.448 122.207 339.07 114.36 331.39C114.36 324.108 114.396 317.002 114.464 310.572C119.133 316.687 134.891 332.926 173.418 338.097C175.901 338.404 178.334 339.018 180.662 339.924ZM116.167 395.793C119.121 404.189 127.128 406.008 150.483 405.307C162.937 404.934 166.683 399.922 167.757 395.655C168.438 392.952 168.275 390.264 167.839 387.997C167.815 388.119 167.788 388.239 167.757 388.359C166.683 392.624 162.937 397.634 150.483 398.01C127.128 398.71 119.121 396.891 116.167 388.496C115.505 386.614 115.288 384.739 115.224 382.597H115.212C115.28 388.367 114.856 392.074 116.167 395.793Z" fill="#181558"/>
<path d="M117.291 287.945C116.321 318.981 116.455 350.218 117.499 381.241C117.831 387.067 116.257 394.071 120.488 398.685C122.512 400.835 125.924 401.847 129.457 402.398C133.016 402.94 136.747 403.091 140.485 403.14C144.143 403.171 148.047 403.116 151.711 402.955C157.406 402.595 163.964 401.08 165.505 395.15C166.466 391.319 165.623 387.155 164.007 383.569C163.697 382.957 163.388 382.378 163.489 381.711C164.795 370.6 166.562 355.097 168.167 344.159C168.426 342.629 168.568 341.225 169.028 339.681C169.129 339.384 169.279 339.107 169.474 338.861C169.741 338.474 170.397 338.103 170.785 338.036L170.99 337.996L171.19 337.964C172.881 337.793 174.72 337.835 176.355 337.707C185.804 337.56 195.099 337.481 204.571 336.162C195.709 339.689 186.093 342.081 176.506 342.492C174.916 342.476 173.326 342.484 171.737 342.514L171.791 342.506C172.474 342.365 173.145 341.831 173.375 341.203C171.217 353.382 169.622 369.77 168.069 382.22L167.81 380.867C168.1 381.382 168.28 381.852 168.51 382.355C170.726 387.687 171.57 394.16 168.707 399.449C164.801 406.285 156.21 407.54 149.065 407.625C142.255 407.754 135.577 407.914 128.746 406.916C123.558 406.189 117.753 404.085 115.13 399.081C112.038 393.582 113.12 387.243 112.891 381.337C112.268 365.251 112.094 349.192 112.07 333.139C112.084 317.972 112.095 302.898 112.69 287.713C112.911 284.721 117.342 284.839 117.294 287.932L117.291 287.945Z" fill="#232333"/>
<path d="M123.651 382.25C125.953 379.948 129.134 378.632 132.242 377.764C141.62 375.284 152.447 376.814 160.103 382.929C153.98 381.398 148.087 380.22 141.854 380.087C135.702 379.98 129.606 380.3 123.647 382.25H123.651ZM152.921 386.656C155.865 391.139 157.393 396.995 155.251 402.192C154.52 404.02 153.332 405.668 151.945 407.075L149.008 403.542C150.232 402.758 151.348 401.799 152.189 400.594C155.001 396.611 154.573 391.096 152.921 386.656ZM135.958 387.833C137.924 393.07 139.141 399.244 136.496 404.525C136.045 405.365 135.493 406.148 134.854 406.856L131.785 403.441C132.818 402.762 133.669 401.839 134.263 400.755C136.341 396.923 136.453 392.133 135.964 387.833H135.958Z" fill="#232333"/>
<path d="M138.284 213.461C98.455 222.449 91.0433 249.88 91.0433 249.88C91.0433 249.88 81.9131 262.404 94.5381 278.922C109.142 298.038 122.92 268.674 122.92 268.674L149.334 219.974L138.284 213.461Z" fill="#60567C"/>
<path opacity="0.25" d="M149.331 219.971L145.878 226.332C134.862 225.381 124.727 223.541 116.565 221.508C122.432 218.264 129.579 215.421 138.282 213.461L149.331 219.971Z" fill="#181558"/>
<path d="M104.928 287.678C100.548 287.678 96.4389 285.203 92.6979 280.307C80.2423 264.004 87.419 251.224 88.9297 248.892C90.0408 245.288 99.1551 219.938 137.769 211.223C138.359 211.1 138.974 211.214 139.482 211.538C139.99 211.863 140.351 212.374 140.488 212.961C140.622 213.548 140.52 214.161 140.202 214.673C139.883 215.185 139.377 215.552 138.79 215.695C118.973 220.169 107.655 229.383 101.652 236.332C95.1487 243.854 93.2862 250.42 93.267 250.487C93.1933 250.755 93.072 251.008 92.9089 251.232C92.5892 251.683 85.0145 262.674 96.3685 277.544C99.4205 281.533 102.56 283.394 105.687 283.063C112.516 282.342 118.93 271.739 120.83 267.712C121.093 267.161 121.562 266.736 122.135 266.529C122.709 266.322 123.342 266.349 123.895 266.606C124.448 266.863 124.877 267.328 125.086 267.901C125.294 268.471 125.267 269.103 125.006 269.653C124.687 270.339 116.997 286.473 106.186 287.622C105.768 287.662 105.348 287.681 104.928 287.678Z" fill="#232333"/>
<path d="M136.693 217.765C146.485 229.124 172.544 295.808 113.785 312.367C113.785 312.367 108.503 303.987 113.663 296.31C120.058 286.796 145.294 274.679 129.563 235.261C127.441 229.944 123.024 221.14 118.079 220.7C118.079 220.7 117.097 213.811 124.717 213.811C132.338 213.811 136.693 217.765 136.693 217.765Z" fill="#52BF2E"/>
<path d="M113.783 312.365C113.783 312.365 108.504 303.988 113.662 296.308C120.06 286.796 145.292 274.681 129.564 235.261C128.606 232.86 127.179 229.747 125.443 227.015C123.345 223.696 120.784 220.94 118.077 220.7C118.077 220.7 117.097 213.811 124.717 213.811C132.336 213.811 136.693 217.765 136.693 217.765C138.104 219.404 139.858 222.19 141.639 225.811C152.239 247.312 164.075 298.199 113.783 312.365Z" fill="#52BF2E"/>
<path d="M150.405 272.893C148.135 289.685 138.412 305.425 113.779 312.365C113.779 312.365 108.498 303.988 113.655 296.308C117.863 290.055 130.202 282.674 133.702 267.157C135.529 259.071 134.947 248.767 129.561 235.261C128.602 232.86 127.174 229.747 125.44 227.015C123.342 223.696 120.779 220.94 118.073 220.7C118.073 220.7 117.094 213.811 124.712 213.811C132.332 213.811 136.69 217.765 136.69 217.765C138.101 219.404 139.855 222.19 141.635 225.811C147.04 236.778 152.774 255.403 150.405 272.893Z" fill="#52BF2E"/>
<path d="M150.405 272.893C148.135 289.685 138.412 305.425 113.779 312.365C113.779 312.365 108.498 303.988 113.655 296.308C117.863 290.055 130.202 282.674 133.702 267.157C139.846 267.678 146.089 269.237 150.405 272.893ZM141.636 225.811C135.59 221.989 128.687 225.095 125.441 227.015C123.344 223.696 120.781 220.94 118.074 220.7C118.074 220.7 117.094 213.811 124.714 213.811C132.333 213.811 136.691 217.765 136.691 217.765C138.103 219.404 139.855 222.19 141.636 225.811Z" fill="#469B19"/>
<path d="M113.782 314.466C113.424 314.467 113.073 314.377 112.76 314.205C112.447 314.033 112.183 313.784 111.993 313.481C111.748 313.096 106.052 303.849 111.903 295.141C113.246 293.144 115.224 291.17 117.511 288.88C126.384 280.008 139.796 266.599 127.596 236.035C124.531 228.358 120.631 223.038 117.889 222.791C117.416 222.748 116.971 222.547 116.626 222.22C116.281 221.893 116.057 221.46 115.988 220.99C115.932 220.603 115.508 217.076 117.85 214.393C119.404 212.611 121.719 211.707 124.717 211.707C133.059 211.707 137.917 216.024 138.117 216.211C138.181 216.269 138.242 216.331 138.298 216.395C144.853 224 158.586 255.587 150.675 281.664C145.724 297.979 133.505 308.989 114.36 314.385C114.172 314.437 113.977 314.465 113.782 314.466ZM120.21 219.089C125.492 221.181 129.492 229.408 131.521 234.494C144.739 267.616 129.571 282.785 120.506 291.848C118.372 293.98 116.53 295.822 115.416 297.481C112.205 302.257 113.791 307.445 114.862 309.867C131.58 304.733 142.264 294.847 146.63 280.46C154.104 255.829 140.635 225.754 135.192 219.257C134.584 218.764 130.803 215.91 124.709 215.91C122.987 215.91 121.751 216.329 121.032 217.153C120.527 217.73 120.306 218.459 120.21 219.089Z" fill="#232333"/>
<path d="M146.645 284.03C142.648 286.604 138.686 287.365 132.176 287.058C130.913 288.69 122.949 298.031 109.267 298.93C104.023 299.274 96.1287 298.046 90.7219 291.955C84.5701 285.027 81.8267 275.821 83.1072 265.801C84.626 253.918 91.7914 240.882 105.612 229.127L100.695 256.211C102.471 254.567 108.8 249.574 114.709 245.798C121.173 241.667 122.263 237.491 129.235 236.818C131.038 236.641 132.057 243.616 133.742 243.768C140.351 244.356 146.386 246.423 149.334 249.431C151.582 251.725 153.011 254.467 153.818 257.392C156.739 267.963 151.457 280.94 146.645 284.03Z" fill="#60567C"/>
<path opacity="0.25" d="M146.645 284.03C142.648 286.604 138.686 287.365 132.176 287.058C130.913 288.69 122.949 298.031 109.267 298.93C104.023 299.274 96.1287 298.046 90.7219 291.955C84.5701 285.028 81.8267 275.821 83.1072 265.801C83.8842 269.533 85.1072 273.472 86.8178 273.995C90.6052 275.154 94.1224 267.713 94.3254 267.283C94.1623 267.95 89.8602 285.414 103.312 289.545C114.672 293.031 126.098 288.111 123.775 280.016C123.775 280.016 132.6 282.412 139.436 280.7C148.191 278.502 153.598 266.118 153.818 257.392C156.739 267.963 151.457 280.94 146.645 284.03Z" fill="#181558"/>
<path d="M100.693 256.206C103.507 252.248 107.091 248.993 110.854 245.963C112.677 244.515 114.595 243.309 116.327 241.77C118.188 240.204 119.724 238.444 121.826 236.949C123.87 235.466 126.447 234.596 128.965 234.344C133.03 234.182 133.393 239.164 135.027 241.678C134.772 241.435 134.448 241.275 134.1 241.221C139.594 241.674 146.798 243.127 151.331 247.527C158.093 254.278 158.672 264.861 156.087 273.539C154.723 277.915 152.774 282.41 149.18 285.538C144.459 289.307 137.815 289.958 132.071 289.355C132.058 289.355 134.012 288.462 134.005 288.462C122.061 303.389 96.4228 307.318 85.6683 289.029C78.4294 277.705 79.4222 262.956 85.096 251.261C89.4876 241.982 96.3557 234.017 104.121 227.391C106.487 225.482 109.379 228.828 107.129 230.865C101.62 235.579 96.6579 240.901 92.7442 246.973C88.9393 252.921 86.0984 259.693 85.3454 266.689C84.2519 275.827 87.0864 285.478 93.8633 291.859C97.1247 294.786 101.569 296.362 106.105 296.649C115.313 297.163 124.557 292.705 130.352 285.67C130.582 285.378 130.878 285.145 131.215 284.99C131.552 284.835 131.922 284.762 132.293 284.778C134.581 284.786 136.832 284.687 138.894 284.314C141.735 283.729 144.656 282.677 146.552 280.438C151.849 273.398 153.887 261.403 149.176 253.718C146.071 248.422 139.26 247.095 133.524 246.329C129.965 245.814 129.703 241.499 128.26 239.029C128.194 238.902 128.1 238.838 128.276 238.986C128.472 239.133 128.702 239.232 128.945 239.277C129.116 239.307 129.289 239.315 129.462 239.301C129.148 239.335 128.83 239.359 128.525 239.41C124.555 239.917 122.525 242.732 119.281 245.301C118.29 246.093 117.244 246.817 116.154 247.467C111.067 250.447 106.036 253.429 100.699 256.219L100.693 256.206Z" fill="#232333"/>
<path d="M123.073 246.988C126.834 245.403 132.41 243.461 136.296 242.038L137.096 245.969C132.955 246.235 127.139 246.532 123.073 246.988Z" fill="#232333"/>
<path d="M201.238 206.536C201.238 206.536 226.086 235.926 237.159 273.382C237.159 273.382 230.916 220.094 210.691 203.391C195.396 190.76 201.238 206.536 201.238 206.536Z" fill="#52BF2E"/>
<path d="M237.159 273.379C230.163 249.714 217.668 229.266 209.42 217.423C204.601 210.516 201.236 206.534 201.236 206.534C201.236 206.534 195.398 190.764 210.694 203.393C213.732 205.904 216.457 209.237 218.891 213.095C232.652 234.905 237.159 273.379 237.159 273.379Z" fill="#52BF2E"/>
<path d="M218.891 213.095C214.9 212.556 211.132 215.72 209.42 217.423C204.601 210.516 201.236 206.534 201.236 206.534C201.236 206.534 195.398 190.764 210.694 203.393C213.732 205.904 216.457 209.237 218.891 213.095Z" fill="#469B19"/>
<path d="M237.158 275.132C236.779 275.13 236.412 275.007 236.109 274.781C235.806 274.555 235.584 274.237 235.476 273.875C224.641 237.224 200.143 207.952 199.896 207.661C199.766 207.508 199.663 207.334 199.591 207.146C198.945 205.383 197.041 199.469 200.015 197.38C202.312 195.765 205.952 197.207 211.821 202.053C232.35 219.007 238.652 270.983 238.911 273.186C238.939 273.432 238.914 273.681 238.838 273.917C238.763 274.152 238.638 274.369 238.472 274.553C238.306 274.737 238.103 274.884 237.877 274.983C237.65 275.083 237.405 275.134 237.158 275.132ZM202.792 205.661C204.777 208.075 220.51 227.611 231.949 254.021C228.259 237.292 221.3 214.427 209.567 204.734C204.131 200.248 202.328 200.21 202.043 200.24C201.665 200.878 202.023 203.449 202.792 205.661Z" fill="#232333"/>
<path d="M202.314 42.7989C206.09 30.3321 224.315 12.3674 245.282 18.6056C267.455 25.1986 278.097 46.7796 267.557 67.12C259.37 82.9073 243.642 87.1567 232.643 87.3917C232.643 87.3917 220.027 86.2966 211.73 77.2351C199.292 63.6364 202.314 42.7989 202.314 42.7989Z" fill="#686779"/>
<path d="M267.56 67.1104C260.366 80.992 247.335 85.9464 236.817 87.1039C235.373 87.2638 233.97 87.3597 232.648 87.3789C232.648 87.3789 220.029 86.2838 211.738 77.2239C199.29 63.6284 202.314 42.7972 202.314 42.7972C206.088 30.3321 224.325 12.3658 245.292 18.596C257.587 22.2554 266.35 30.5255 269.898 40.6422C272.753 48.762 272.256 58.0633 267.56 67.1104Z" fill="#60567C"/>
<path opacity="0.25" d="M267.56 67.1104C260.366 80.992 247.335 85.9464 236.817 87.1039C235.063 86.1575 233.829 84.7138 234.512 82.5124C236.547 75.9961 249.615 81.5388 259.149 64.3383C266.572 50.9539 259.69 41.5055 261.388 41.1729C262.588 40.9379 267.258 42.6949 269.898 40.6406C272.753 48.762 272.256 58.0649 267.56 67.1104Z" fill="#181558"/>
<path d="M201.211 42.4679C203.447 29.3473 217.581 17.9405 230.408 15.4673C240.916 13.3649 251.883 17.1059 260.2 23.5359C268.601 29.9947 274.048 40.2649 273.953 50.9011C274.043 64.8946 265.586 78.8258 252.715 84.6419C246.401 87.6155 239.445 88.8257 232.675 88.5267C231.25 88.434 231.209 86.3813 232.625 86.2374C245.215 85.1359 257.56 79.2734 264.102 68.3398C272.903 54.4998 270.467 37.3168 257.244 27.2897C239.984 14.4121 221.449 18.9253 208.542 35.2833C206.572 37.72 204.854 40.35 203.414 43.1329C202.862 44.3048 201.015 43.7548 201.204 42.4727L201.211 42.4679Z" fill="#232333"/>
<path d="M212.9 53.8331C213.714 47.8076 220.574 32.8804 236.772 35.4543C250.459 37.6318 257.242 49.9642 250.555 63.7068C245.095 74.9249 231.904 75.2814 227.153 74.0696C219.122 72.0216 211.756 62.2551 212.9 53.8331Z" fill="white"/>
<path d="M250.547 63.7068C249.909 65.0321 249.113 66.2749 248.176 67.4078C241.934 75.0016 231.314 75.1295 227.148 74.068C219.124 72.0185 211.748 62.2583 212.894 53.8315C213.709 47.8076 220.569 32.8804 236.769 35.4543C241.939 36.2777 246.121 38.543 248.965 41.7996H248.973C253.658 47.1553 254.708 55.1584 250.547 63.7068Z" fill="white"/>
<path opacity="0.25" d="M248.176 67.4078C241.934 75.0016 231.314 75.1295 227.148 74.068C219.124 72.0185 211.748 62.2583 212.894 53.8315C213.709 47.8076 220.569 32.8804 236.769 35.4543C241.939 36.2777 246.121 38.543 248.965 41.7996C234.006 32.7173 215.015 49.7292 227.157 64.6196C234.483 73.6076 242.942 70.7411 248.176 67.4078Z" fill="#181558"/>
<path d="M231.62 76.8498C229.648 76.8498 227.904 76.6292 226.572 76.2902C217.105 73.8746 209.345 62.8115 210.606 53.5246C211.086 49.9914 213.797 41.9739 220.62 36.9348C225.329 33.4592 230.881 32.1962 237.127 33.1906C244.478 34.3576 250.2 38.1898 253.231 43.9755C256.401 50.0234 256.184 57.3807 252.62 64.706C248.006 74.2103 238.44 76.8498 231.62 76.8498ZM215.183 54.1385C214.24 61.0881 220.569 70.0249 227.725 71.8506C230.603 72.5844 243.341 73.2655 248.476 62.714C251.391 56.7268 251.629 50.8276 249.151 46.1018C246.807 41.6318 242.281 38.6566 236.406 37.7213C231.436 36.9316 227.052 37.9052 223.378 40.6198C218.19 44.4439 215.634 50.8004 215.18 54.1385H215.183ZM202.294 55.3135C204.376 64.8994 209.332 73.5756 216.409 80.3558C217.397 81.3853 218.517 82.2486 219.516 83.2942C218.868 82.9904 218.221 82.6595 217.584 82.3222C208.043 77.1887 201.353 66.1992 202.298 55.3135H202.294Z" fill="#232333"/>
<path d="M159.193 217.188C107.15 222.379 74.9474 201.466 68.4982 162.725C62.8643 128.87 75.3055 87.2238 90.7986 62.7987C96.5588 53.7164 108.271 39.579 143.406 29.5711C172.478 22.1691 164.099 5.97572 167.383 3.62882C171.3 0.826277 193.106 2.72714 191.564 23.1779C203.805 23.1667 205.052 12.7958 212.238 15.7438C216.689 17.5664 222.278 27.0755 216.56 40.5191C224.694 44.615 229.89 49.4303 229.89 49.4303C253.479 67.0769 257.14 94.0567 261.987 114.507C265.435 129.048 273.439 143.813 267.603 165.43C260.185 192.905 234.083 207.004 191.871 213.225" fill="white"/>
<path d="M267.594 165.426C265.448 173.372 261.742 180.198 256.539 186.032C243.736 200.393 221.875 208.798 191.866 213.223L159.192 217.186C135.754 219.522 116.335 216.564 101.488 209.065C83.3679 199.928 72.0426 184.016 68.4999 162.72C62.8612 128.865 75.3072 87.2223 90.7955 62.7924C96.5572 53.7101 108.268 39.5743 143.406 29.5695C172.475 22.1707 164.101 5.96938 167.383 3.62247C171.3 0.821531 193.107 2.7224 191.565 23.1731C203.804 23.1667 205.054 12.7911 212.237 15.7407C216.688 17.5664 222.278 27.0756 216.558 40.5207C224.694 44.6182 229.88 49.4319 229.88 49.4319C253.468 67.0817 257.13 94.0583 261.977 114.511C265.424 129.054 273.434 143.807 267.594 165.426Z" fill="white"/>
<path opacity="0.25" d="M256.539 186.035C243.738 200.397 221.875 208.801 191.866 213.228C191.866 213.228 183.027 215.313 176.545 216C168.499 216.855 159.191 217.191 159.191 217.191C135.754 219.525 116.335 216.568 101.488 209.07C99.5468 207.508 136.691 217.765 194.747 207.957C228.267 202.296 256.527 185.816 256.539 186.035Z" fill="#181558"/>
<path d="M132.009 88.3205C131.189 86.9408 137.95 73.1248 147.368 76.1703C149.873 76.9777 151.492 81.7018 149.515 84.1479C146.05 88.4356 132.824 89.7002 132.009 88.3205ZM240.659 83.4908C241.357 82.3605 235.15 69.638 226.293 72.9713C223.628 73.9753 222.433 78.1687 225.415 80.4644C231.13 84.8689 239.962 84.6195 240.659 83.4908ZM161.051 169.625C163.534 169.017 182.159 165.377 179.366 136.643C177.076 113.094 166.423 109.737 151.782 108.583C133.758 107.166 113.903 122.173 108.519 135.335C97.5261 162.199 117.277 177.286 132.643 176.873C142.213 176.613 142.479 174.17 161.051 169.625ZM230.664 158.806C224.473 157.988 213.207 152.007 210.935 132.744C208.621 113.101 215.724 106.698 225.999 105.518C235.503 104.426 247.122 106.995 257.285 119.879C263.685 127.993 266.419 142.924 265.212 150.016C264.169 156.155 258.524 160.08 249.018 159.433C240.222 158.836 234.731 159.345 230.664 158.806Z" fill="#60567C"/>
<path d="M215.455 42.5318C210.627 39.6142 205.282 37.0866 199.751 35.8396C198.344 35.5455 198.646 33.4575 200.077 33.571C204.672 33.9787 209.087 35.2129 213.391 36.7749C214.83 37.3072 216.21 37.8492 217.671 38.5175C218.11 38.7107 218.478 39.0368 218.723 39.45C218.967 39.8631 219.076 40.3425 219.034 40.8208C218.992 41.299 218.801 41.752 218.488 42.116C218.175 42.4799 217.755 42.7367 217.289 42.85C216.978 42.9256 216.654 42.9364 216.339 42.8817C216.023 42.827 215.723 42.7079 215.455 42.5318Z" fill="#232333"/>
<path d="M180.689 164.061C182.94 168.769 186.109 171.479 191.322 171.884C196.977 172.323 200.243 167.677 202.021 164.267C203.103 167.02 206.4 168.984 209.564 168.458C215.979 167.39 216.91 158.602 216.91 158.602C216.91 158.602 210.956 149.809 197.988 151.823C185.02 153.836 180.689 164.061 180.689 164.061Z" fill="white"/>
<path d="M180.689 164.061C182.94 168.769 186.109 171.479 191.322 171.884C196.977 172.323 200.243 167.677 202.021 164.267C203.103 167.02 206.4 168.984 209.564 168.458C215.979 167.39 216.91 158.602 216.91 158.602C216.91 158.602 210.956 149.809 197.988 151.823C185.02 153.836 180.689 164.061 180.689 164.061Z" fill="white"/>
<path opacity="0.25" d="M193.908 168.285C196.974 167.594 200.01 161.49 199.086 158.686C198.4 156.593 194.603 155.391 194.784 157.113C196.048 169.135 183.949 165.06 183.949 165.06C183.949 165.06 189.463 169.287 193.908 168.285ZM209.856 165.041C205.992 166.368 203.756 160.111 203.105 157.235C202.619 155.086 204.234 154.218 204.795 155.858C208.729 167.318 214.902 158.936 214.902 158.936C214.902 158.936 213.585 163.754 209.856 165.041Z" fill="#181558"/>
<path d="M181.471 163.692C183.634 167.527 187.004 170.195 191.474 170.232C195.695 170.299 198.693 167.134 200.453 163.458L202.144 160.112L203.668 163.62C204.833 166.106 208.119 167.588 210.745 166.451C212.085 165.911 213.228 164.742 214.111 163.31C214.993 161.877 215.653 160.127 216.069 158.438C216.314 157.45 217.813 157.66 217.773 158.678C217.565 162.772 215.971 167.247 212.103 169.268C207.832 171.577 202.119 169.493 200.378 164.892L203.594 165.062C201.351 169.493 196.838 174.43 191.228 173.522C188.686 173.273 186.036 172.347 184.034 170.619C182.034 168.891 180.758 166.656 179.912 164.416C179.837 164.214 179.841 163.99 179.922 163.79C180.004 163.59 180.158 163.428 180.354 163.337C180.549 163.245 180.772 163.229 180.979 163.292C181.186 163.354 181.362 163.491 181.474 163.676L181.471 163.692Z" fill="#232333"/>
<path d="M201.501 156.032C203.191 155.722 202.35 160.467 203.946 164.012C204.563 165.38 198.569 167.207 199.633 164.784C201.991 159.412 199.1 156.474 201.501 156.032Z" fill="#232333"/>
<path d="M190.296 150.411C190.539 156.414 199.377 159.879 201.274 159.842C203.172 159.804 212.053 155.169 211.204 149.839C210.659 146.416 204.494 145.57 201.639 145.626C197.959 145.7 190.155 146.923 190.296 150.411Z" fill="#232333"/>
<path opacity="0.5" d="M196.565 149.605C196.624 151.354 199.617 152.004 201.8 151.901C203.986 151.801 206.924 150.872 206.865 149.129C206.835 148.227 201.688 148.469 201.688 148.469C201.688 148.469 196.534 148.709 196.565 149.605Z" fill="white"/>
<path d="M159.192 217.188C137.401 223.124 111.045 219.177 92.2951 206.478C79.1873 197.636 70.2377 183.381 66.8181 168.13C59.4144 133.789 69.6478 92.8816 87.2768 62.9794C98.1944 43.9467 119.16 33.9388 139.409 27.8477L142.207 27.0387C148.045 25.5455 154.456 23.4033 158.817 19.3282C161.933 16.516 163.435 12.6232 163.665 8.47451C163.903 4.92217 163.858 1.42419 168.384 0.476157C173.222 -0.535827 178.104 0.418603 182.515 2.39461C190.889 6.17396 194.776 14.62 193.863 23.3537L191.562 20.8885C195.393 20.9365 198.709 19.584 201.698 17.0932C203.556 15.6703 205.166 14.0044 207.712 13.2323C213.278 11.6016 218.109 16.6471 219.812 21.3393C222.381 27.8221 221.333 35.2593 218.684 41.408C218.684 41.4175 217.604 38.4727 217.604 38.4743C222.314 40.7733 228.067 44.6981 231.271 47.5998C251.552 62.5365 258.216 85.5883 263.071 108.942C265.819 122.627 272.045 135.58 271.963 149.81C271.693 185.983 245.894 204.419 212.728 210.884C205.847 212.226 198.87 213.009 191.863 213.226C213.525 207.212 236.945 202.032 253.274 185.835C262.694 176.406 267.428 163.016 267.352 149.842C267.397 136.101 261.193 123.297 258.571 109.941C252.563 82.1911 246.91 63.1584 222.218 46.4727C220.065 45.0402 217.83 43.7356 215.524 42.5654C215.005 42.3036 214.605 41.8546 214.404 41.3092C214.204 40.7638 214.218 40.1626 214.443 39.627C217.305 32.9827 218.13 24.0971 212.673 18.7254C211.717 17.8238 210.234 17.2754 209.007 17.6319C207.823 17.9437 206.275 19.3154 204.577 20.6743C201.127 23.6447 196.251 25.5871 191.569 25.4704C191.09 25.4748 190.622 25.3292 190.23 25.0539C189.838 24.7786 189.543 24.3876 189.385 23.9356C189.281 23.6365 189.242 23.3189 189.27 23.0036C189.5 19.552 189.011 16.1371 187.482 13.3042C184.446 7.52807 177.048 4.63121 170.706 5.24191C170.093 5.29255 169.494 5.44379 168.931 5.68955C168.894 5.70554 168.902 5.71353 168.893 5.71194C168.972 5.65918 169.044 5.59509 169.105 5.52169C169.208 5.40019 169.214 5.35702 169.204 5.39379C168.966 6.42176 168.969 7.6144 168.869 8.87898C168.381 21.8877 157.753 28.3401 146.459 31.5983C125.681 37.4272 103.441 46.5702 92.2472 65.9737C85.5486 77.0496 80.5654 89.1007 76.8356 101.478C68.1162 131.128 63.7933 171.206 86.9299 195.381C106.602 215.572 132.958 215.466 159.192 217.188Z" fill="#232333"/>
<path d="M111.531 51.6237C107.361 39.2817 88.5684 21.8973 67.8092 28.7877C45.8557 36.0731 35.9037 57.9738 47.0851 77.9705C55.7693 93.4908 71.6237 97.2477 82.6244 97.1374C82.6244 97.1374 95.1999 95.6474 103.203 86.327C115.209 72.3542 111.531 51.6237 111.531 51.6237Z" fill="#686779"/>
<path d="M47.0868 77.9721C54.7222 91.6203 67.9004 96.1654 78.4503 96.992C79.8971 97.1039 81.2976 97.1534 82.6261 97.1358C82.6261 97.1358 95.2032 95.6459 103.205 86.3254C115.214 72.3462 111.531 51.6221 111.531 51.6221C107.365 39.2785 88.5685 21.8957 67.8093 28.783C55.6271 32.8277 47.1443 41.3728 43.9085 51.5918C41.3186 59.7932 42.1084 69.0753 47.0868 77.9705V77.9721Z" fill="#60567C"/>
<path opacity="0.25" d="M47.0866 77.9721C54.7237 91.6203 67.9003 96.1654 78.4501 96.9919C80.1736 95.9895 81.3614 94.5091 80.6084 92.3301C78.3686 85.8809 65.4846 91.8313 55.4079 74.9361C47.5631 61.7915 54.1449 52.1321 52.4311 51.8587C51.2225 51.6589 46.607 53.5629 43.9068 51.5917C41.3201 59.7931 42.1083 69.0752 47.0882 77.9705L47.0866 77.9721Z" fill="#181558"/>
<path d="M110.434 51.9882C102.416 37.5646 85.2767 25.221 68.3192 31.197C62.4407 33.181 56.9715 36.4519 52.7589 40.9971C42.7446 51.7292 42.4185 67.1312 50.5783 79.088C57.4671 89.8089 69.9914 95.2829 82.6085 95.9895C84.0201 96.0695 84.0601 98.1638 82.6324 98.2821C75.8715 98.7969 68.8835 97.7977 62.4775 95.0255C56.0779 92.2885 50.3657 87.6091 46.5591 81.7162C36.2314 66.1448 38.4664 46.236 53.0579 34.1866C61.1633 27.4944 72.009 23.4145 82.5781 25.1874C94.4789 27.2258 105.874 35.4719 111.035 46.2728C111.779 47.8587 112.311 49.5342 112.618 51.2576C112.668 51.5316 112.617 51.8144 112.475 52.0538C112.333 52.2933 112.109 52.4733 111.844 52.5606C111.579 52.6486 111.292 52.6393 111.034 52.5344C110.775 52.4295 110.562 52.2358 110.434 51.9882Z" fill="#232333"/>
<path d="M101.299 62.9842C100.292 56.9938 92.9585 42.2745 76.8547 45.3632C63.2465 47.9691 56.8564 60.5078 63.9771 74.0345C69.7884 85.0752 82.9857 85.0176 87.6955 83.6587C95.6571 81.3597 102.709 71.3678 101.299 62.9842Z" fill="white"/>
<path d="M63.9786 74.036C64.6597 75.339 65.4942 76.5572 66.4662 77.6635C72.9474 85.0496 83.5676 84.8545 87.6923 83.6619C95.6507 81.3597 102.706 71.3742 101.299 62.9858C100.295 56.9938 92.9584 42.2745 76.8546 45.3632C71.7132 46.348 67.6077 48.7476 64.8659 52.0873H64.8579C60.3431 57.5869 59.5502 65.6204 63.9786 74.036Z" fill="white"/>
<path opacity="0.25" d="M66.4647 77.6635C72.9443 85.0496 83.5661 84.8545 87.6908 83.6619C95.6492 81.3597 102.703 71.3742 101.296 62.9858C100.292 56.9938 92.9569 42.2745 76.8531 45.3632C71.7117 46.348 67.6046 48.7476 64.8628 52.0873C79.5278 42.5414 99.048 58.9458 87.3838 74.2135C80.3495 83.4269 71.8028 80.8274 66.4647 77.6635Z" fill="#181558"/>
<path d="M82.4741 86.5907C75.7243 86.5907 66.658 84.0744 61.9322 75.096C58.1385 67.8906 57.6876 60.5381 60.6644 54.3975C63.5118 48.519 69.1088 44.5127 76.4197 43.1122C82.6323 41.9227 88.2182 43.0083 93.0367 46.3368C100.017 51.1617 102.981 59.0881 103.571 62.6069C105.123 71.849 97.7194 83.1503 88.3349 85.8617C86.8353 86.2934 84.7906 86.5907 82.4741 86.5907ZM81.1168 47.2369C79.8346 47.2417 78.554 47.368 77.2958 47.6142C71.4525 48.7333 67.0241 51.8491 64.8243 56.3879C62.495 61.1904 62.9218 67.0785 66.0233 72.9713C71.4909 83.3613 84.2023 82.2806 87.056 81.4653C94.1494 79.4157 100.191 70.2823 99.0303 63.3679C98.4708 60.0473 95.713 53.774 90.4101 50.1145C87.686 48.2141 84.4381 47.2084 81.1168 47.2369ZM111.941 64.132C113.236 74.9841 106.894 86.1751 97.5211 91.6059C96.8912 91.9656 96.2613 92.3157 95.6187 92.6355C96.5811 91.5611 97.6746 90.6595 98.6274 89.6027C105.486 82.6051 110.165 73.7755 111.941 64.132ZM234.628 118.891C241.256 118.966 246.492 126.781 246.324 136.344C246.155 145.909 240.644 153.602 234.017 153.527C227.389 153.452 222.152 145.638 222.321 136.074C222.491 126.509 228.002 118.818 234.628 118.891Z" fill="#232333"/>
<path d="M234.633 122.907C236.622 124.01 237.153 127.331 235.819 130.325C234.486 133.323 231.794 134.856 229.803 133.754C227.815 132.653 227.284 129.331 228.617 126.335C229.95 123.339 232.644 121.802 234.633 122.907Z" fill="white"/>
<path d="M239.34 144.04C240.246 144.88 240.163 146.669 239.156 148.029C238.149 149.391 236.599 149.831 235.693 148.988C234.786 148.143 234.87 146.36 235.877 144.998C236.884 143.636 238.435 143.201 239.34 144.04Z" fill="#B199C5"/>
<path d="M153.786 125.155C146.538 125.235 140.816 133.777 141 144.235C141.185 154.696 147.213 163.103 154.461 163.024C161.708 162.944 167.431 154.402 167.248 143.943C167.064 133.483 161.035 125.072 153.786 125.155Z" fill="#232333"/>
<path d="M153.788 129.543C151.614 130.749 151.032 134.381 152.493 137.652C153.957 140.921 156.894 142.605 159.07 141.398C161.246 140.192 161.828 136.563 160.365 133.292C158.902 130.02 155.956 128.339 153.788 129.543Z" fill="white"/>
<path d="M148.637 152.649C147.646 153.567 147.73 155.522 148.837 157.025C149.943 158.528 151.633 158.99 152.622 158.072C153.614 157.155 153.529 155.199 152.421 153.697C151.313 152.194 149.625 151.732 148.637 152.649Z" fill="#B199C5"/>
</g>
</g>
</g>
</g>
</g>
<defs>
<clipPath id="clip0_5_4037">
<rect width="316.19" height="409.27" fill="white"/>
</clipPath>
<clipPath id="clip1_5_4037">
<rect width="316.19" height="409.26" fill="white"/>
</clipPath>
<clipPath id="clip2_5_4037">
<rect width="316.19" height="409.26" fill="white"/>
</clipPath>
<clipPath id="clip3_5_4037">
<rect width="316.545" height="409.27" fill="white" transform="translate(-0.17749 -0.00500488)"/>
</clipPath>
</defs>
</svg>
