<svg width="284" height="424" viewBox="0 0 284 424" fill="none" xmlns="http://www.w3.org/2000/svg">
<g opacity="0.971902" clip-path="url(#clip0_5_12398)">
<g clip-path="url(#clip1_5_12398)">
<g clip-path="url(#clip2_5_12398)">
<g clip-path="url(#clip3_5_12398)">
<mask id="mask0_5_12398" style="mask-type:luminance" maskUnits="userSpaceOnUse" x="0" y="1" width="284" height="423">
<path d="M0.00634766 1.14307H283.956V423.146H0.00634766V1.14307Z" fill="white"/>
</mask>
<g mask="url(#mask0_5_12398)">
<path d="M84.7194 101.497C80.1275 94.4465 76.9382 69.3272 80.2562 65.4821C83.5726 61.637 86.3823 92.9091 96.7096 100.855" fill="#62CC40"/>
<path d="M84.7179 103.545C84.378 103.546 84.0433 103.462 83.7446 103.3C83.4458 103.138 83.1925 102.904 83.008 102.618C80.2689 98.4139 78.3644 89.4953 77.4937 82.5425C76.8034 77 76.0347 67.239 78.7095 64.1375C79.4311 63.3029 80.4069 62.9452 81.3796 63.1664C83.6261 63.67 84.4669 66.2977 86.7762 74.5276C89.0697 82.7072 92.5399 95.0661 97.9459 99.2218C98.2674 99.4683 98.5087 99.8044 98.6395 100.188C98.7703 100.571 98.7846 100.985 98.6808 101.376C98.5769 101.768 98.3595 102.12 98.056 102.388C97.7524 102.656 97.3762 102.829 96.9748 102.883C96.709 102.919 96.4388 102.901 96.1798 102.832C95.9208 102.762 95.6781 102.642 95.4657 102.479C88.9803 97.4898 85.4364 84.8596 82.8479 75.6367C82.291 73.6522 81.6604 71.3931 81.0846 69.6502C80.8211 72.0897 80.8038 76.1261 81.5427 82.0263C82.5499 90.0585 84.5109 97.4302 86.4216 100.369C86.5717 100.6 86.6738 100.859 86.7219 101.13C86.77 101.402 86.7631 101.68 86.7017 101.949C86.6402 102.218 86.5255 102.471 86.3642 102.695C86.2029 102.918 85.9984 103.107 85.7627 103.25C85.4472 103.44 85.0861 103.54 84.7179 103.541V103.545Z" fill="#000072"/>
<path d="M84.7302 399.904C84.7914 406.973 83.1285 415.792 76.4094 418.662C71.3046 420.84 60.5333 420.109 52.8212 420.344C45.1074 420.581 41.8491 420.258 39.0629 419.006C36.6109 417.898 34.7786 414.915 34.1762 411.669C33.831 409.747 33.9126 407.733 34.5495 405.968C36.84 399.653 42.384 397.94 44.1709 397.54C44.527 397.459 44.7419 397.434 44.7419 397.434C44.7419 397.434 36.294 373.133 46.7594 355.553C51.4438 347.694 58.1754 343.532 64.7612 341.409C75.7442 337.861 86.3241 339.964 86.3241 339.964L127.114 381.095C115.984 388.76 91.5937 391.075 83.5176 390.846C84.0698 392.266 84.6879 395.791 84.7302 399.904Z" fill="#5F5F82"/>
<path d="M84.7303 399.904C84.7915 406.973 83.1286 415.792 76.4095 418.662C71.3047 420.84 60.5334 420.109 52.8213 420.344C45.1076 420.581 41.8476 420.258 39.063 419.006C36.6095 417.898 34.7787 414.915 34.1763 411.669C36.1561 412.634 40.0592 413.572 47.7259 413.617C62.3516 413.7 70.936 411.35 71.0223 406.394C71.1102 401.437 56.6789 398.205 56.6789 398.205C56.6789 398.205 71.0019 399.647 72.875 394.691C74.7466 389.734 68.917 383.925 68.917 383.925C68.917 383.925 77.619 384.745 75.3898 377.326C73.4806 370.965 63.7071 353.468 64.7644 341.409C75.7459 337.861 86.3274 339.964 86.3274 339.964L127.116 381.095C115.985 388.76 91.5953 391.075 83.5208 390.846C84.0715 392.266 84.6896 395.791 84.7303 399.904Z" fill="#545477"/>
<path d="M48.725 422.468C43.5009 422.468 40.7713 422.018 38.233 420.874C33.3446 418.68 30.5726 410.949 32.6355 405.265C34.7848 399.349 39.3609 396.932 42.1581 395.979C40.3179 389.513 35.8939 369.815 45.0085 354.501C50.4365 345.383 59.3959 339.632 70.9186 337.867C79.5014 336.555 86.4323 337.895 86.721 337.953C87.1251 338.023 87.4985 338.214 87.7918 338.501C88.0851 338.788 88.2844 339.157 88.3635 339.56C88.4452 339.961 88.4052 340.378 88.2487 340.757C88.0923 341.136 87.8263 341.46 87.485 341.687C87.2584 341.837 87.004 341.94 86.737 341.989C86.4699 342.039 86.1955 342.034 85.9303 341.975C85.6762 341.927 60.0956 337.15 48.5101 356.608C38.6675 373.136 46.5867 396.521 46.6683 396.754C46.8178 397.189 46.818 397.661 46.6688 398.096C46.5196 398.531 46.2296 398.903 45.8447 399.155C45.5889 399.32 45.2995 399.426 44.9976 399.465C44.7544 399.498 38.7413 400.402 36.4649 406.672C35.0311 410.622 37.1772 415.912 39.8943 417.131C42.3526 418.236 45.4792 418.52 52.7615 418.295C54.713 418.236 56.8058 418.237 59.0209 418.239C65.18 418.239 72.1611 418.247 75.6093 416.774C84.6047 412.938 83.0484 395.295 81.6208 391.585C81.4387 391.11 81.4395 390.584 81.6229 390.109C81.8063 389.634 82.1594 389.244 82.6139 389.014C82.9143 388.863 83.2472 388.788 83.5834 388.796C91.7066 389.026 115.438 386.648 125.959 379.404C126.406 379.098 126.955 378.982 127.487 379.079C127.885 379.153 128.252 379.345 128.541 379.629C128.83 379.913 129.028 380.276 129.11 380.673C129.193 381.069 129.157 381.481 129.007 381.857C128.856 382.234 128.599 382.557 128.266 382.787C117.464 390.219 95.7179 392.639 86.128 392.887C87.4144 399.975 87.8175 416.017 77.2094 420.548C72.9957 422.349 65.8875 422.349 59.0209 422.338C56.8403 422.338 54.7774 422.338 52.887 422.393C51.3402 422.443 49.9612 422.468 48.725 422.468Z" fill="#000072"/>
<path d="M75.3884 387.993C78.2702 388.434 81.174 388.728 84.0857 388.876C84.4021 388.89 84.7112 388.977 84.9894 389.128C85.2677 389.279 85.508 389.492 85.6922 389.75C85.8765 390.008 86.0006 390.305 86.0555 390.617C86.1103 390.93 86.0944 391.251 86.009 391.557C85.879 392.016 85.597 392.418 85.2091 392.696C84.8213 392.974 84.3506 393.112 83.8739 393.088C83.5579 393.071 83.25 392.982 82.9734 392.828L82.9483 392.814C80.3482 391.335 77.826 389.726 75.3884 387.993ZM60.3422 399.177C57.756 398.723 55.1331 398.512 52.5077 398.547C51.2228 398.557 49.9411 398.637 48.6657 398.786C47.4248 398.933 46.1933 399.159 44.9791 399.462L44.9414 399.471C44.6782 399.534 44.4051 399.544 44.138 399.501C43.8709 399.458 43.615 399.362 43.3852 399.219C42.9205 398.928 42.5894 398.466 42.4636 397.933C42.3379 397.399 42.4278 396.838 42.7137 396.37C42.9024 396.064 43.1678 395.812 43.4837 395.64C43.7996 395.467 44.155 395.381 44.5147 395.388C45.9203 395.405 47.3228 395.513 48.7159 395.711C50.0751 395.902 51.4226 396.168 52.7524 396.508C55.362 397.157 57.9052 398.049 60.3484 399.172M54.0466 404.559C53.6262 406.049 53.3705 407.582 53.2842 409.129C53.2058 410.649 53.2999 412.169 53.6968 413.533C53.8819 414.191 54.1517 414.825 54.4969 415.415C54.8263 415.959 55.2436 416.446 55.7284 416.855C56.6587 417.663 57.8556 418.091 59.1169 418.33L57.9043 422.244C56.2366 421.527 54.5816 420.454 53.4536 418.91C52.8962 418.164 52.4614 417.334 52.1657 416.45C51.894 415.609 51.7316 414.737 51.6825 413.854C51.5774 412.138 51.855 410.503 52.2755 408.956C52.7015 407.429 53.295 405.953 54.0451 404.556M43.2612 404.559C42.8408 406.062 42.5867 407.604 42.4988 409.16C42.4204 410.691 42.5129 412.223 42.9067 413.598C43.0902 414.265 43.3569 414.907 43.7005 415.508C44.0315 416.057 44.4472 416.549 44.932 416.968C45.8638 417.789 47.0608 418.225 48.33 418.465L47.1189 422.38C45.4356 421.665 43.7711 420.575 42.6447 419.012C42.09 418.257 41.6575 417.42 41.363 416.53C41.0956 415.684 40.9364 414.808 40.8892 413.922C40.7888 412.197 41.0665 410.555 41.4901 408.997C41.9184 407.46 42.5098 405.973 43.2581 404.565" fill="#000072"/>
<path d="M185.738 366.223C184.504 370.865 181.429 375.125 176.44 376.757C164.974 380.511 156.805 370.767 156.805 370.767L159.852 351.007C161.447 352.598 164.793 351.699 168.649 350.803C173.329 349.711 178.759 348.626 182.723 351.995C186.137 354.898 187.185 360.824 185.738 366.227" fill="#5F5F82"/>
<path opacity="0.3" d="M175.417 353.263C180.145 351.522 184.147 358.691 182.153 360.674C180.823 361.999 179.772 358.83 176.886 356.565C175.133 355.189 174.295 353.675 175.417 353.263Z" fill="white"/>
<path opacity="0.2" d="M185.738 366.223C184.504 370.865 181.429 375.125 176.44 376.757C164.974 380.511 156.805 370.767 156.805 370.767L159.852 351.007C161.447 352.598 164.793 351.699 168.649 350.803C169.718 352.662 170.849 358.947 169.879 365.761C169.01 371.867 179.582 373.525 185.738 366.223Z" fill="#000072"/>
<path d="M171.1 379.681C161.734 379.681 155.55 372.455 155.239 372.088C154.891 371.672 154.722 371.135 154.767 370.594C154.813 370.053 155.07 369.552 155.483 369.2C155.687 369.027 155.923 368.895 156.178 368.813C156.434 368.731 156.703 368.7 156.97 368.722C157.508 368.767 158.007 369.026 158.357 369.442C158.656 369.799 165.821 378.072 175.806 374.809C179.971 373.445 183.046 369.624 184.025 364.586C184.904 360.068 183.852 355.64 181.413 353.564C178.051 350.709 172.973 351.9 168.492 352.949C164.503 353.883 160.735 354.766 158.422 352.472C158.038 352.089 157.82 351.568 157.817 351.025C157.814 350.482 158.026 349.959 158.407 349.572C158.595 349.38 158.819 349.228 159.066 349.124C159.313 349.02 159.578 348.965 159.846 348.964C160.114 348.963 160.38 349.014 160.628 349.116C160.876 349.217 161.102 349.367 161.292 349.556C162.004 350.262 165.217 349.509 167.565 348.958C172.714 347.753 179.121 346.25 184.047 350.433C187.644 353.487 189.21 359.353 188.035 365.377C186.767 371.897 182.67 376.883 177.075 378.713C175.148 379.352 173.13 379.678 171.1 379.681Z" fill="#000072"/>
<path d="M99.9917 276.484C83.954 258.794 72.7294 180.676 66.6582 172.158C60.587 163.639 48.5952 156.122 29.5046 158.999C19.3326 160.532 12.9869 180.352 26.7608 193.682C37.667 272.89 82.7382 315.868 82.7382 315.868" fill="#FFAD40"/>
<path d="M99.9946 276.487L82.738 315.868C82.738 315.868 37.8347 273.051 26.8218 194.116L26.7591 193.682C12.9914 180.352 19.334 160.532 29.5044 158.999C48.5997 156.123 60.5915 163.639 66.658 172.159C67.6086 173.498 68.6895 176.549 69.8928 180.808C76.3672 203.705 86.467 261.569 99.9899 276.487" fill="#FFAD40"/>
<path d="M99.9946 276.487L82.738 315.868C82.738 315.868 60.9946 295.132 44.0581 255.923C36.6565 238.79 30.1712 218.125 26.8218 194.116L26.7591 193.682C12.9914 180.352 19.334 160.532 29.5044 158.999C48.5997 156.123 60.5915 163.639 66.658 172.159C67.6086 173.498 68.6895 176.549 69.8928 180.808C74.938 198.655 82.1921 237.755 91.5483 261.193C94.1948 267.822 97.0077 273.195 99.9899 276.487" fill="#5F5F82"/>
<path opacity="0.2" d="M99.9897 276.487L82.7331 315.868C82.7331 315.868 60.9897 295.132 44.0547 255.923C55.8222 260.542 74.759 265.879 91.5465 261.193C94.1946 267.822 97.0075 273.195 99.9897 276.487ZM68.5638 176.461C59.1433 194.466 37.4815 193.989 26.7589 186.468C21.6446 182.874 19.6993 175.292 20.1433 168.126C21.9348 163.198 25.4128 159.615 29.5042 158.999C48.5979 156.123 60.5913 163.639 66.6578 172.159C67.2429 172.985 67.8751 174.456 68.556 176.461" fill="#000072"/>
<path d="M82.7378 317.92C82.2138 317.92 81.7118 317.719 81.3337 317.357C80.8662 316.91 69.7278 306.188 57.1023 285.553C45.5403 266.655 30.5914 235.581 24.8339 194.653C16.3233 186.037 15.6597 175.438 17.925 168.302C19.9064 162.061 24.2268 157.719 29.2014 156.969C52.9638 153.39 64.4755 165.558 68.3238 170.964C70.6848 174.279 73.2105 184.782 77.4635 203.053C83.4892 228.915 91.7426 264.335 101.499 275.097C101.864 275.499 102.055 276.03 102.03 276.573C102.005 277.116 101.765 277.627 101.364 277.994C101.166 278.175 100.934 278.314 100.682 278.405C100.43 278.496 100.162 278.536 99.8947 278.523C99.6271 278.51 99.3646 278.445 99.1222 278.331C98.8798 278.217 98.6623 278.056 98.4821 277.858C88.0105 266.308 79.9642 231.753 73.4913 203.988C70.1561 189.673 67.0076 176.163 65.0011 173.347C61.5905 168.559 51.3338 157.778 29.8023 161.019C26.3776 161.537 23.3138 164.803 21.8093 169.543C19.8734 175.644 20.5276 184.801 28.1707 192.199C28.5002 192.516 28.7135 192.936 28.7763 193.391C34.3565 233.885 49.103 264.609 60.4924 283.261C72.8466 303.487 84.0273 314.266 84.1387 314.374C84.4384 314.656 84.6465 315.021 84.7357 315.423C84.825 315.824 84.7913 316.243 84.6391 316.626C84.4883 317.007 84.2264 317.334 83.8874 317.565C83.5484 317.796 83.1479 317.919 82.7378 317.92Z" fill="#000072"/>
<path d="M137.831 358.015C134.781 367.796 128.343 375.179 116.834 377.901C83.9302 385.684 73.5245 361.471 73.5245 361.471C72.2489 358.941 71.2384 356.286 70.5093 353.549C75.5655 361.44 85.3845 369.279 104.371 368.289C112.881 367.843 126.648 365.052 137.831 358.015Z" fill="#F9D3B7"/>
<path d="M81.5773 379.881C91.0151 387.084 104.629 389.744 111.594 390.55C149.215 394.908 167.918 371.302 166.216 347.614C164.836 328.409 150.634 297.844 155.593 270.361L93.6303 273.73C77.2051 291.18 56.7999 331.76 70.9582 362.048L81.5773 379.881Z" fill="#C97043"/>
<path d="M155.42 377.888C154.72 378.604 153.987 379.31 153.222 379.981C151.388 381.587 149.413 383.024 147.32 384.275C146.07 385.023 144.782 385.709 143.462 386.325C142.536 386.762 141.593 387.164 140.637 387.532C139.449 387.994 138.242 388.408 137.019 388.772C136.335 388.976 135.642 389.166 134.939 389.347C128.209 391.043 120.42 391.565 111.591 390.539C104.627 389.736 91.0116 387.08 81.5738 379.871L70.9484 362.036C68.5168 356.821 67.1018 351.305 66.515 345.651C63.7006 318.464 80.0223 288.166 93.6236 273.718L155.586 270.35C153.393 282.5 154.947 295.254 157.478 307.357C158.18 310.655 158.936 313.94 159.748 317.212L160.085 318.585L160.452 320.063C160.785 321.385 161.116 322.687 161.447 323.979C161.558 324.421 161.671 324.862 161.778 325.303C162.004 326.176 162.223 327.047 162.437 327.911C162.784 329.306 163.125 330.679 163.446 332.028C163.574 332.552 163.692 333.07 163.814 333.578L163.952 334.188C164.05 334.593 164.141 334.998 164.227 335.398C164.258 335.517 164.283 335.644 164.308 335.768C164.44 336.377 164.573 336.982 164.696 337.581C164.89 338.515 165.074 339.433 165.237 340.333C165.319 340.791 165.4 341.241 165.474 341.689C165.546 342.114 165.617 342.523 165.679 342.944C165.714 343.169 165.744 343.395 165.775 343.615C165.816 343.893 165.857 344.164 165.894 344.435C165.923 344.65 165.949 344.872 165.974 345.088C166.017 345.414 166.051 345.738 166.083 346.054C166.138 346.568 166.184 347.083 166.221 347.598C167.011 358.647 163.364 369.685 155.426 377.871" fill="#C97043"/>
<path d="M155.42 377.888C154.714 378.614 153.981 379.312 153.222 379.981C151.388 381.587 149.413 383.024 147.32 384.275C146.07 385.023 144.782 385.709 143.463 386.325C142.545 386.757 141.605 387.161 140.637 387.532C139.449 387.994 138.242 388.408 137.02 388.772C136.336 388.976 135.642 389.166 134.939 389.347C128.209 391.043 120.42 391.565 111.591 390.539C104.627 389.736 91.0118 387.08 81.574 379.871L70.9486 362.036C68.517 356.821 67.102 351.305 66.5152 345.651C64.4335 325.549 72.8155 303.751 82.8243 287.914C86.3494 282.33 90.0784 277.486 93.6254 273.718L155.588 270.35C155.055 273.331 154.73 276.345 154.615 279.372C154.217 288.714 155.572 298.221 157.48 307.357C158.182 310.655 158.939 313.94 159.751 317.212C159.98 318.164 160.215 319.114 160.456 320.063C160.788 321.385 161.119 322.687 161.45 323.979C161.562 324.421 161.675 324.862 161.781 325.303C162.006 326.176 162.225 327.047 162.44 327.911C162.787 329.306 163.129 330.679 163.449 332.028C163.578 332.552 163.695 333.07 163.816 333.578L163.954 334.188C164.051 334.593 164.144 334.998 164.23 335.398C164.26 335.517 164.285 335.644 164.312 335.768C164.443 336.377 164.577 336.982 164.699 337.581C164.894 338.515 165.076 339.433 165.24 340.333C165.322 340.791 165.402 341.241 165.477 341.689C165.548 342.114 165.62 342.523 165.681 342.944C165.717 343.169 165.747 343.395 165.777 343.615C165.903 344.425 166.005 345.239 166.084 346.054C166.11 346.293 166.136 346.533 166.157 346.764C166.182 347.046 166.202 347.322 166.222 347.598C167.013 358.647 163.367 369.685 155.429 377.871" fill="white"/>
<path d="M155.42 377.888C154.714 378.614 153.981 379.312 153.222 379.981C151.388 381.587 149.413 383.024 147.32 384.275C146.07 385.023 144.782 385.709 143.463 386.325C142.545 386.757 141.605 387.161 140.637 387.532C139.449 387.994 138.242 388.408 137.02 388.772C136.336 388.976 135.642 389.166 134.939 389.347C128.209 391.043 120.42 391.565 111.591 390.539C104.627 389.736 91.0118 387.08 81.574 379.871L70.9486 362.036C68.517 356.821 67.102 351.305 66.5152 345.651C64.4335 325.549 72.8155 303.751 82.8243 287.914C86.3494 282.33 90.0784 277.486 93.6254 273.718L155.588 270.35C155.055 273.331 154.73 276.345 154.615 279.372C154.217 288.714 155.572 298.221 157.48 307.357C158.182 310.655 158.939 313.94 159.751 317.212C159.98 318.164 160.215 319.114 160.456 320.063C160.788 321.385 161.119 322.687 161.45 323.979C161.562 324.421 161.675 324.862 161.781 325.303C162.006 326.176 162.225 327.047 162.44 327.911C162.787 329.306 163.129 330.679 163.449 332.028C163.578 332.552 163.695 333.07 163.816 333.578L163.954 334.188C164.051 334.593 164.144 334.998 164.23 335.398C164.26 335.517 164.285 335.644 164.312 335.768C164.443 336.377 164.577 336.982 164.699 337.581C164.894 338.515 165.076 339.433 165.24 340.333C165.322 340.791 165.402 341.241 165.477 341.689C165.548 342.114 165.62 342.523 165.681 342.944C165.717 343.169 165.747 343.395 165.777 343.615C165.903 344.425 166.005 345.239 166.084 346.054C166.11 346.293 166.136 346.533 166.157 346.764C166.182 347.046 166.202 347.322 166.222 347.598C167.013 358.647 163.367 369.685 155.429 377.871" fill="white"/>
<path d="M155.426 377.887C154.242 379.104 152.981 380.243 151.65 381.297C150.274 382.386 148.829 383.383 147.323 384.284C145.195 385.561 142.959 386.651 140.642 387.541C139.454 388.003 138.247 388.416 137.026 388.78C136.342 388.986 135.647 389.176 134.944 389.354C128.215 391.052 120.426 391.574 111.596 390.548C104.633 389.742 91.0163 387.081 81.5801 379.879L70.9531 362.043C68.5215 356.83 67.108 351.308 66.5213 345.657C65.169 332.596 68.236 318.811 73.2953 306.421C75.928 299.987 79.1185 293.797 82.8304 287.92C86.3554 282.338 90.0829 277.494 93.6315 273.73L155.594 270.362C155.06 273.343 154.734 276.358 154.62 279.386C154.221 288.726 155.578 298.233 157.486 307.371C158.187 310.668 158.944 313.953 159.756 317.225C159.875 317.686 159.982 318.143 160.093 318.599C160.211 319.092 160.338 319.583 160.46 320.075C160.664 320.891 160.868 321.701 161.078 322.501C161.196 322.998 161.328 323.495 161.455 323.993C161.566 324.432 161.679 324.874 161.786 325.315C162.357 327.553 162.914 329.795 163.455 332.04C163.582 332.563 163.7 333.082 163.822 333.592L163.96 334.201C164.056 334.607 164.147 335.01 164.235 335.412C164.264 335.531 164.291 335.658 164.318 335.78C164.45 336.391 164.581 336.996 164.704 337.595C164.898 338.529 165.083 339.447 165.245 340.349C165.326 340.805 165.408 341.255 165.483 341.703C165.556 342.128 165.626 342.543 165.687 342.959C165.723 343.183 165.753 343.409 165.785 343.631C165.825 343.907 165.866 344.178 165.904 344.449L165.985 345.101C166.025 345.43 166.061 345.752 166.092 346.07C166.117 346.308 166.142 346.547 166.163 346.778C166.188 347.06 166.208 347.336 166.229 347.612C167.021 358.66 163.372 369.697 155.435 377.885" fill="white"/>
<path d="M161.074 322.499C158.821 323.848 156.356 324.805 153.784 325.329C142.626 328.082 110.113 304.692 73.2925 306.422C75.9249 299.989 79.1149 293.798 82.826 287.92C86.351 282.338 90.08 277.494 93.6286 273.73L155.591 270.362C155.058 273.343 154.73 276.358 154.617 279.386C154.218 288.726 155.574 298.233 157.483 307.371C157.784 308.791 158.093 310.2 158.41 311.596C158.845 313.493 159.293 315.369 159.753 317.225L160.089 318.599C160.208 319.092 160.333 319.583 160.457 320.075C160.66 320.891 160.864 321.701 161.074 322.501" fill="#5F5F82"/>
<path d="M155.26 376.285C154.078 377.502 152.817 378.639 151.485 379.689C150.109 380.776 148.665 381.772 147.16 382.671C145.031 383.949 142.795 385.039 140.477 385.928C139.289 386.391 138.083 386.805 136.861 387.169C136.177 387.373 135.484 387.564 134.779 387.743C128.049 389.439 120.262 389.961 111.431 388.936C104.467 388.132 90.8532 385.476 81.4154 378.268C78.927 375.873 76.8042 373.126 75.1151 370.113C73.4277 367.008 71.9818 363.778 70.79 360.451C68.3568 355.23 66.9418 349.714 66.3613 344.059C70.0856 353.092 77.8244 364.914 104.464 366.042C122.701 366.812 160.165 355.293 155.435 319.39C154.416 311.645 155.38 307.574 157.327 305.77C157.624 307.189 157.934 308.6 158.251 309.999C158.686 311.896 159.133 313.772 159.593 315.629L159.928 317.004L160.297 318.478L161.292 322.396C161.403 322.836 161.516 323.277 161.623 323.718C161.847 324.593 162.067 325.462 162.282 326.328C162.628 327.723 162.97 329.096 163.292 330.443C163.419 330.967 163.541 331.485 163.659 331.995L163.795 332.604C163.894 333.01 163.985 333.415 164.073 333.813C164.103 333.932 164.128 334.061 164.153 334.183C164.291 334.798 164.418 335.398 164.541 335.998C164.735 336.93 164.919 337.85 165.082 338.752C165.163 339.207 165.245 339.658 165.319 340.104C165.391 340.529 165.461 340.939 165.523 341.361C165.559 341.585 165.589 341.812 165.62 342.032C165.661 342.308 165.701 342.581 165.733 342.852C165.763 343.067 165.788 343.287 165.814 343.504C165.854 343.83 165.89 344.153 165.921 344.473C165.946 344.711 165.971 344.944 165.992 345.181C166.017 345.461 166.039 345.737 166.059 346.015C166.85 357.064 163.202 368.1 155.264 376.288" fill="#D6D6F2"/>
<path opacity="0.2" d="M155.593 270.364C155.058 273.345 154.732 276.36 154.617 279.386C138.523 293.146 105.773 298.021 90.943 294.079C87.8211 293.243 84.6443 290.515 82.8276 287.922C86.3527 282.338 90.0817 277.494 93.6287 273.726L155.593 270.364Z" fill="#000072"/>
<path d="M81.5801 379.88C85.0429 381.765 88.6821 383.307 92.4455 384.482C96.1536 385.655 99.9312 386.596 103.756 387.299C107.578 388.015 111.407 388.55 115.27 388.769C119.109 388.989 122.96 388.895 126.785 388.485C130.567 388.074 134.295 387.261 137.904 386.058C141.477 384.859 144.874 383.19 148.007 381.095C151.121 379.001 153.9 376.447 156.25 373.522C158.601 370.586 160.476 367.299 161.806 363.78C163.148 360.245 163.94 356.526 164.156 352.751C164.271 350.86 164.244 348.962 164.078 347.074C163.914 345.147 163.661 343.229 163.319 341.326C162.669 337.479 161.747 333.63 160.801 329.777L157.884 318.172C155.962 310.401 154.221 302.511 153.255 294.451C152.288 286.39 152.147 278.131 153.589 269.995L155.707 272.409L93.7461 275.781L95.1172 275.141C89.8163 280.801 85.3546 287.357 81.5394 294.208C77.7433 301.077 74.6668 308.321 72.3588 315.822C70.0449 323.285 68.4886 330.985 68.2204 338.739C68.0635 342.625 68.2047 346.519 68.6408 350.383C69.0644 354.273 69.8801 358.137 70.9532 362.043C68.6424 358.703 67.0124 354.887 65.8954 350.93C64.8165 346.942 64.2441 342.833 64.1917 338.701C64.0835 330.44 65.5252 322.24 67.9725 314.442C70.4198 306.643 73.857 299.198 77.8668 292.124C79.8741 288.584 82.065 285.152 84.4306 281.841C86.7932 278.523 89.3299 275.318 92.1459 272.317C92.4965 271.937 92.9808 271.709 93.4966 271.68H93.5186L155.481 268.312C155.788 268.296 156.094 268.35 156.377 268.469C156.661 268.588 156.913 268.77 157.117 269C157.321 269.23 157.47 269.503 157.554 269.798C157.638 270.094 157.654 270.404 157.602 270.707V270.724C156.256 278.322 156.377 286.185 157.304 293.96C158.231 301.736 159.942 309.469 161.849 317.182C163.737 324.904 165.893 332.594 167.377 340.604C167.756 342.626 168.041 344.664 168.229 346.712C168.825 353.007 168.017 359.356 165.862 365.3C163.013 373.23 157.56 380.221 150.599 384.94C147.138 387.326 143.323 389.15 139.38 390.476C135.437 391.802 131.339 392.589 127.244 392.988C123.15 393.385 119.033 393.327 114.972 392.988C110.915 392.628 106.871 392.012 102.942 390.987C99.014 389.965 95.1517 388.62 91.5027 386.813C89.6757 385.919 87.9166 384.892 86.2394 383.741C85.8174 383.462 85.408 383.155 84.9985 382.864C84.6 382.546 84.1953 382.246 83.8109 381.917C83.0302 381.278 82.2864 380.595 81.5833 379.871" fill="#000072"/>
<path d="M189.92 415.253C188.577 417.263 184.866 420.722 177.87 420.722C170.367 420.722 167.107 417.502 165.17 411.91C165.124 411.786 165.082 411.661 165.043 411.535C163.835 413.086 162.451 414.492 160.92 415.724C154.985 420.478 148.228 421.262 143.72 420.854C137.501 420.299 132.431 417.434 128.339 413.384C120.688 405.813 116.459 394.113 114.515 385.679L166.211 347.614C167.885 360.617 166.13 370.832 166.078 371.139C166.084 371.139 166.089 371.139 166.098 371.13C166.541 370.986 166.99 370.866 167.446 370.772C169.077 370.422 171.966 370.079 175.042 371.044C179.45 372.421 183.123 375.544 185.975 379.573C193.503 390.189 195.345 407.129 189.919 415.249" fill="#777782"/>
<path d="M189.92 415.254C188.577 417.263 184.866 420.722 177.87 420.722C170.367 420.722 167.107 417.502 165.17 411.91C165.124 411.786 165.082 411.661 165.043 411.536C163.835 413.087 162.451 414.492 160.92 415.724C154.985 420.478 148.228 421.262 143.72 420.854C137.501 420.299 132.431 417.434 128.339 413.384C120.688 405.813 116.459 394.113 114.515 385.679C114.515 385.679 128.355 374.531 146.73 371.147C156.795 369.293 166.13 370.832 166.08 371.141C166.086 371.141 166.09 371.141 166.1 371.13C166.542 370.986 166.991 370.866 167.447 370.772C169.079 370.422 171.967 370.08 175.044 371.044C179.452 372.421 183.124 375.544 185.976 379.573C193.505 390.191 195.347 407.129 189.919 415.249" fill="#5F5F82"/>
<path d="M165.403 370.92C165.057 372.416 164.661 373.963 164.217 375.56C151.01 371.145 117.521 387.975 117.609 395.844C117.526 395.64 117.449 395.44 117.377 395.24C117.259 394.933 117.152 394.625 117.041 394.323C116.931 394.021 116.826 393.712 116.724 393.41C116.654 393.2 116.583 392.992 116.511 392.784C115.737 390.448 115.071 388.077 114.515 385.68L114.609 385.608C114.845 385.418 115.557 384.871 116.68 384.086L116.724 384.05C121.332 380.83 132.713 373.731 146.73 371.147C155.183 369.588 163.125 370.432 165.4 370.915" fill="#5E5E68"/>
<path opacity="0.2" d="M160.921 415.724C154.987 420.478 148.23 421.262 143.72 420.854C137.503 420.3 132.431 417.436 128.341 413.385C128.482 411.939 129.408 410.555 131.769 409.549C143.389 404.612 163.431 408.536 160.921 415.724ZM185.976 379.578C173.718 373.348 161.489 382.918 161.205 383.145C163.372 379.096 164.98 374.768 166.101 371.133C166.544 370.99 166.994 370.87 167.449 370.775C169.081 370.426 171.967 370.082 175.045 371.045C179.453 372.424 183.126 375.548 185.976 379.578Z" fill="#000072"/>
<path d="M166.804 363.997C166.147 367.893 165.286 371.751 164.224 375.557C151.011 371.15 117.501 387.993 117.615 395.854C116.354 392.539 115.322 389.14 114.528 385.683L143.163 363.67L166.215 347.618C166.903 353.048 167.099 358.531 166.801 363.997" fill="#D6D6F2"/>
<path d="M165.403 370.92C165.057 372.416 164.661 373.963 164.217 375.56C151.01 371.145 117.521 387.975 117.609 395.846V395.855C117.53 395.651 117.449 395.446 117.377 395.24C117.259 394.933 117.152 394.626 117.041 394.323C116.931 394.022 116.826 393.712 116.724 393.411C116.654 393.202 116.583 392.993 116.511 392.784C115.736 390.448 115.07 388.078 114.515 385.68L114.609 385.608C114.609 385.608 124.03 372.733 145.624 368.375C155.467 366.389 162.796 367.605 165.4 370.915" fill="#545477"/>
<path opacity="0.2" d="M189.875 415.324C188.498 417.34 184.789 420.722 177.877 420.722C170.374 420.722 167.114 417.502 165.176 411.91C167.539 408.343 169.916 404.027 171.349 398.883C174.154 396.783 178.69 395.379 184.383 398.064C190.821 401.105 191.149 409.962 189.872 415.324" fill="#000072"/>
<path d="M114.521 385.682C117.063 391.344 119.507 396.822 122.491 401.922C123.972 404.465 125.577 406.919 127.448 409.101C129.249 411.284 131.34 413.211 133.664 414.827C135.964 416.386 138.488 417.55 141.164 418.167C143.862 418.799 146.656 418.92 149.4 418.526C152.16 418.14 154.817 417.213 157.219 415.799C159.61 414.383 161.701 412.477 163.446 410.26C163.616 410.043 163.828 409.862 164.07 409.729C164.312 409.596 164.579 409.514 164.853 409.488C165.128 409.461 165.405 409.491 165.668 409.575C165.931 409.66 166.174 409.796 166.382 409.978C166.662 410.219 166.87 410.531 166.986 410.883C167.543 412.566 168.249 414.133 169.22 415.354C170.172 416.564 171.457 417.468 172.918 417.953C174.413 418.473 176.123 418.669 177.883 418.669C179.574 418.673 181.256 418.416 182.869 417.903C184.427 417.365 185.882 416.56 187.039 415.473C187.321 415.208 187.586 414.926 187.834 414.628C187.951 414.486 188.063 414.339 188.168 414.188C188.272 414.044 188.383 413.853 188.491 413.688C188.921 412.972 189.285 412.218 189.58 411.437C190.793 408.235 191.132 404.562 190.967 400.949C190.781 397.297 190.109 393.687 188.968 390.213C187.834 386.746 186.246 383.426 184.154 380.53C182.062 377.636 179.436 375.193 176.365 373.748C175.608 373.391 174.821 373.1 174.013 372.881C173.225 372.666 172.417 372.534 171.602 372.485C170.356 372.416 169.106 372.513 167.885 372.774C167.686 372.815 167.489 372.862 167.292 372.915L167.008 372.997L166.784 373.067L166.717 373.089C166.38 373.196 166.023 373.214 165.677 373.142C165.332 373.07 165.012 372.91 164.746 372.678C164.48 372.447 164.279 372.15 164.161 371.818C164.042 371.486 164.012 371.129 164.072 370.782C164.214 369.919 164.335 368.935 164.439 367.999C164.734 365.133 164.885 362.254 164.892 359.373C164.903 355.528 164.669 351.686 164.192 347.871V347.83C164.128 347.291 164.28 346.748 164.614 346.32C164.863 345.999 165.201 345.761 165.586 345.634C165.971 345.507 166.385 345.498 166.775 345.608C167.165 345.719 167.513 345.942 167.775 346.252C168.037 346.561 168.2 346.941 168.245 347.344C168.481 349.344 168.695 351.349 168.805 353.357C169.053 357.375 169.039 361.405 168.761 365.421C168.696 366.425 168.604 367.431 168.5 368.436C168.396 369.463 168.26 370.485 168.092 371.503L165.38 369.218C165.579 369.147 165.691 369.114 165.836 369.068L166.241 368.949C166.506 368.88 166.773 368.814 167.038 368.759C168.62 368.422 170.239 368.297 171.854 368.388C172.946 368.452 174.029 368.631 175.083 368.918C176.118 369.199 177.126 369.57 178.096 370.027C181.964 371.85 185.078 374.815 187.461 378.114C189.855 381.432 191.602 385.114 192.852 388.928C194.107 392.751 194.846 396.725 195.05 400.745C195.221 404.769 194.895 408.908 193.395 412.902C193.012 413.914 192.539 414.889 191.982 415.817C191.828 416.055 191.699 416.275 191.524 416.52C191.35 416.766 191.169 416.996 190.992 417.224C190.629 417.663 190.239 418.079 189.823 418.468C188.184 420.005 186.218 421.078 184.171 421.781C182.142 422.436 180.023 422.766 177.891 422.76C175.842 422.76 173.702 422.553 171.583 421.82C170.501 421.446 169.476 420.924 168.536 420.269C167.595 419.603 166.753 418.805 166.037 417.9C164.622 416.11 163.767 414.107 163.118 412.163L166.657 412.786C162.58 418.075 156.655 421.627 150.069 422.732C146.796 423.311 143.444 423.257 140.192 422.575C136.928 421.866 133.836 420.52 131.093 418.615C128.355 416.752 126.036 414.398 124.039 411.879C122.092 409.351 120.415 406.626 119.035 403.748C117.688 400.915 116.624 397.956 115.86 394.914C115.1 391.886 114.612 388.798 114.526 385.682" fill="#000072"/>
<path d="M171.919 396.568C171.391 399.312 170.715 402.025 169.893 404.696C169.063 407.386 168.075 410.055 166.738 412.689C166.559 413.061 166.272 413.371 165.914 413.578C165.556 413.785 165.144 413.879 164.732 413.848C164.32 413.817 163.927 413.662 163.604 413.404C163.281 413.146 163.043 412.797 162.922 412.401C162.84 412.139 162.812 411.862 162.838 411.588C162.864 411.314 162.945 411.048 163.075 410.806C163.154 410.654 163.25 410.512 163.362 410.382C165.072 408.428 166.621 406.188 168.036 403.855C169.462 401.497 170.759 399.064 171.923 396.566M159.527 385.682C160.865 383.346 161.731 380.83 162.457 378.285C163.16 375.757 163.714 373.189 164.119 370.596C164.198 370.055 164.488 369.566 164.925 369.236C165.288 368.965 165.731 368.821 166.185 368.828C166.638 368.834 167.077 368.99 167.433 369.271C167.789 369.552 168.042 369.942 168.154 370.382C168.265 370.822 168.228 371.286 168.048 371.702C167.505 372.98 166.919 374.24 166.291 375.479C165.68 376.707 165.028 377.914 164.335 379.098C162.95 381.452 161.416 383.751 159.53 385.68M179.626 407.549C180.013 408.858 180.525 410.127 181.151 411.339C181.774 412.521 182.522 413.638 183.416 414.427C183.818 414.791 184.29 415.068 184.803 415.239C185.234 415.374 185.694 415.385 186.132 415.272C186.99 415.072 187.887 414.413 188.706 413.602L191.131 416.899C190.775 417.092 190.43 417.291 190.063 417.467C189.685 417.646 189.294 417.803 188.898 417.936C188.055 418.24 187.162 418.378 186.267 418.342C185.336 418.304 184.432 418.021 183.647 417.52C182.945 417.058 182.342 416.461 181.874 415.763C180.999 414.452 180.537 413.068 180.199 411.694C179.879 410.333 179.688 408.945 179.629 407.548M171.457 409.549C171.573 410.842 171.842 412.116 172.261 413.344C172.673 414.544 173.239 415.672 173.974 416.576C174.709 417.48 175.604 418.128 176.578 418.426C177.536 418.75 178.581 418.749 179.628 418.595V422.696C178.085 422.512 176.495 422.065 175.155 421.144C173.798 420.263 172.824 418.954 172.223 417.627C171.669 416.331 171.343 414.949 171.26 413.542C171.166 412.207 171.233 410.866 171.457 409.546M27.9528 192.019C28.0155 192.078 28.0814 192.135 28.1489 192.188C28.2226 192.251 28.3152 192.315 28.3999 192.379C28.5677 192.51 28.7466 192.637 28.9317 192.761C29.2878 193.02 29.6831 193.25 30.0675 193.49C30.8582 193.958 31.6739 194.381 32.5101 194.761C34.2154 195.537 35.9928 196.143 37.8173 196.568C38.2722 196.694 38.7429 196.753 39.2072 196.852C39.6732 196.949 40.1422 197.034 40.616 197.08L42.0405 197.254C42.5142 197.29 42.9896 197.305 43.4759 197.334C44.4391 197.415 45.3992 197.348 46.3719 197.342C47.3414 197.305 48.3046 197.18 49.282 197.103C48.3407 197.349 47.3994 197.644 46.4393 197.851C45.4745 198.029 44.5066 198.269 43.5214 198.36C43.0288 198.418 42.5346 198.487 42.0389 198.535L40.5454 198.617C40.0434 198.656 39.5445 198.648 39.0409 198.639C38.5389 198.629 38.0338 198.645 37.5333 198.598C34.4584 198.431 31.426 197.803 28.5379 196.734C28.0516 196.54 27.5606 196.355 27.0758 196.126C26.8374 196.016 26.5895 195.901 26.3448 195.776C26.2271 195.713 26.1016 195.657 25.973 195.583C25.8427 195.509 25.7345 195.453 25.5619 195.344L25.2592 195.15C25.0223 195.006 24.8168 194.816 24.6549 194.591C24.4929 194.366 24.3778 194.11 24.3163 193.84C24.2221 193.433 24.2514 193.007 24.4003 192.617C24.5492 192.226 24.8111 191.889 25.1525 191.648C25.4935 191.41 25.8984 191.279 26.3146 191.273C26.7308 191.267 27.1392 191.386 27.4868 191.615C27.6594 191.727 27.8163 191.862 27.9512 192.019" fill="#000072"/>
<path d="M3.23958 125.262C-1.29421 149.487 7.49412 171.491 22.8745 174.4C22.8745 174.4 34.1227 174.776 43.2812 176.384C54.7396 178.398 66.3706 182.623 74.0247 184.071C89.4066 186.98 105.549 169.692 110.086 145.467C114.623 121.241 105.835 99.2376 90.453 96.329C82.7974 94.8826 70.4322 94.572 59.0303 92.2612C49.9172 90.4147 39.3012 86.6544 39.3012 86.6544C23.9209 83.749 7.77651 101.035 3.23958 125.262Z" fill="#62CC40"/>
<path d="M58.1078 172.566C61.8729 173.609 52.2923 158.625 59.8429 139.599C63.6127 130.108 43.4899 139.395 35.0232 136.954C23.5475 133.644 11.8679 121.007 9.28412 129.016C6.70033 137.026 10.3336 165.506 23.5083 167.105C36.0209 168.62 44.4563 168.774 58.1141 172.564" fill="#43A31F"/>
<path d="M77.4778 186.446C76.1946 186.446 74.9141 186.327 73.6531 186.088C70.2489 185.444 66.0571 184.261 61.6253 183.006C55.86 181.377 49.326 179.529 42.9332 178.406C34.0209 176.84 22.9234 176.455 22.812 176.45L22.5014 176.415C14.3547 174.876 7.67634 168.542 3.69947 158.589C-0.151894 148.952 -1.02571 136.981 1.23962 124.885C3.50494 112.787 8.64742 101.955 15.7211 94.382C23.0253 86.5554 31.5344 83.1025 39.6842 84.6462L39.9839 84.7277C40.0906 84.7654 50.5763 88.4614 59.4368 90.2561C65.7998 91.5441 72.5566 92.2093 78.5179 92.7976C83.0988 93.2447 87.4302 93.6698 90.836 94.3099C98.9843 95.8488 105.661 102.182 109.638 112.134C113.489 121.775 114.363 133.744 112.098 145.841C109.832 157.938 104.692 168.771 97.6163 176.343C91.451 182.951 84.4213 186.446 77.4778 186.446ZM23.1132 172.357C24.5863 172.41 34.9387 172.834 43.6407 174.365C50.2359 175.523 56.8766 177.401 62.736 179.057C67.0815 180.286 71.1839 181.443 74.4124 182.057C88.657 184.749 103.769 168.167 108.091 145.087C112.412 122.008 104.331 101.038 90.0815 98.3432C86.8529 97.7345 82.6109 97.3172 78.121 96.8733C72.0655 96.2771 65.1958 95.5994 58.6305 94.2706C49.9708 92.5199 40.1737 89.1329 38.7822 88.645C32.0945 87.4417 24.9691 90.4726 18.6955 97.1886C12.1489 104.198 7.37357 114.304 5.251 125.642C3.12687 136.981 3.92381 148.138 7.48495 157.057C10.9018 165.606 16.4458 171.031 23.11 172.357H23.1132Z" fill="#000072"/>
<path d="M66.9545 137.309C61.2064 168.135 68.735 183.069 74.0407 184.071C79.5581 185.113 105.504 187.199 121.327 188.992C148.036 192.017 182.296 204.541 193.464 206.647C208.388 203.212 235.484 194.215 240.197 170.059C244.547 145.843 222.553 127.556 209.893 118.904C198.725 116.792 162.271 115.945 136.298 109.003C120.905 104.906 95.9801 97.3722 90.458 96.329C85.1508 95.3249 72.7433 106.488 66.9545 137.309Z" fill="#62CC40"/>
<path d="M66.9479 137.309C61.2015 168.14 68.7285 183.072 74.0341 184.073C79.5531 185.113 105.501 187.199 121.322 188.992C148.031 192.015 182.287 204.541 193.459 206.647C208.382 203.21 235.487 194.21 240.19 170.059C244.539 145.833 222.545 127.556 209.885 118.901C204.35 117.856 192.615 117.12 179.022 115.801C165.176 114.453 149.403 112.503 136.298 109C132.502 107.979 128.712 106.932 124.93 105.861C110.78 101.859 94.7546 97.1227 90.4609 96.3163C85.1505 95.3139 72.743 106.477 66.9479 137.298" fill="#62CC40"/>
<path opacity="0.5" d="M92.2132 106.877C90.0154 108.11 83.3496 114.274 85.9616 121.682C89.2137 130.899 116.123 126.47 135.253 131.606C154.383 136.741 156.933 142.754 164.404 138.805C168.693 136.538 168.619 128.285 178.992 121.364C184.387 117.765 142.711 122.004 119.436 112.392C103.174 105.674 98.8382 103.164 92.2085 106.881M29.9999 92.4822C22.6894 96.2677 17.7556 103.845 20.446 108.002C23.673 112.991 26.8231 107.803 46.2384 111.705C51.7652 112.818 60.8391 119.31 65.7933 116.149C69.8847 113.538 68.5136 108.203 75.5716 101.197C80.1775 96.6238 63.3444 99.4069 52.8822 98.3071C38.9263 96.8388 36.7488 88.9854 29.9999 92.4822Z" fill="white"/>
<path d="M169.335 189.686C166.276 183.006 163.41 170.838 167.234 159.397C171.756 145.882 144.36 155.747 128.015 154.482C104.659 152.675 80.6532 133.661 76.4724 135.856C71.5213 138.454 68.6379 172.65 78.2702 176.687C87.9026 180.723 116.439 179.512 136.488 184.128C154.648 188.302 172.394 196.362 169.335 189.686Z" fill="#43A31F"/>
<path d="M193.503 208.748L193.084 208.67C189.285 207.954 183.134 206.135 175.338 203.832C159.916 199.276 138.79 193.037 121.091 191.032C114.361 190.269 105.909 189.465 97.7337 188.687C86.5609 187.623 76.9128 186.704 73.6545 186.089C66.6891 184.776 59.1056 168.236 64.9414 136.931C70.8307 105.63 83.8751 92.9969 90.8421 94.31C94.0989 94.925 103.424 97.5935 114.212 100.684C122.111 102.943 130.277 105.282 136.822 107.028C154.034 111.625 175.966 113.528 191.983 114.918C200.078 115.62 206.472 116.174 210.263 116.891L210.682 116.97L211.038 117.21C227.585 128.516 246.423 146.927 242.203 170.423C237.633 193.884 213.424 204.156 193.919 208.646L193.503 208.748ZM68.9575 137.688C63.0228 169.522 71.4895 181.505 74.4169 182.057C77.4917 182.639 87.5162 183.593 98.1275 184.605C106.317 185.383 114.793 186.191 121.557 186.956C139.598 189.002 160.926 195.299 176.491 199.895C183.891 202.082 189.793 203.824 193.43 204.558C211.681 200.291 234.083 190.779 238.195 169.673C241.993 148.535 224.562 131.498 209.1 120.852C205.448 120.206 199.319 119.676 191.635 119.007C175.47 117.606 153.331 115.686 135.777 110.997C129.197 109.24 121.015 106.898 113.098 104.631C102.846 101.697 93.1639 98.9269 90.0906 98.3449C87.157 97.7849 74.944 105.859 68.9607 137.69L68.9575 137.688Z" fill="#000072"/>
<path d="M173.822 157.516C169.285 181.743 178.073 203.745 193.456 206.654C193.456 206.654 204.705 207.03 213.862 208.638C225.32 210.652 236.951 214.879 244.605 216.327C259.987 219.234 276.131 201.947 280.667 177.721C285.202 153.495 276.414 131.493 261.033 128.583C253.376 127.137 241.013 126.826 229.608 124.515C220.496 122.669 209.882 118.908 209.882 118.908C194.498 116 178.355 133.289 173.82 157.515" fill="#62CC40"/>
<path opacity="0.5" d="M200.698 123.86C193.754 126.365 190.4 134.392 191.875 136.314C194.691 139.985 203.065 135.084 213.565 140.081C218.659 142.503 223.345 148.96 228.301 145.799C232.392 143.189 231.241 138.415 240.755 131.601C246.029 127.829 230.739 130.5 219.081 128.053C214.251 127.038 207.847 121.282 200.698 123.856" fill="white"/>
<path d="M226.663 206.922C209.585 199.21 195.12 202.788 191.684 200.346C183.137 194.273 177.944 170.705 183.732 156.829C188.242 146.001 196.249 165.836 214.427 161.721C228.001 158.643 207 177.531 226.665 206.931" fill="#43A31F"/>
<path d="M224.978 167.197C220.443 191.425 229.233 213.424 244.61 216.333C259.987 219.242 276.133 201.957 280.668 177.727C285.205 153.497 276.415 131.498 261.038 128.591C245.661 125.682 229.515 142.961 224.978 167.197Z" fill="#E1FFD4"/>
<path d="M239.168 209.498C241.07 210.889 243.256 211.842 245.57 212.289C251.934 213.494 258.754 210.607 264.773 204.162C271.078 197.412 275.676 187.673 277.724 176.738C281.064 158.908 276.663 141.607 267.026 134.664C265.124 133.274 262.938 132.32 260.625 131.871C254.261 130.666 247.44 133.555 241.42 139.999C235.115 146.748 230.517 156.487 228.47 167.423C225.132 185.252 229.531 202.554 239.168 209.495" fill="#E1FFD4"/>
<path d="M229.102 164.409C228.865 165.402 228.663 166.406 228.47 167.425C225.132 185.255 229.531 202.556 239.166 209.496C241.068 210.887 243.253 211.842 245.565 212.293C251.931 213.498 258.754 210.609 264.772 204.164C267.811 200.91 270.454 196.963 272.606 192.514C270.913 195.429 268.905 198.149 266.618 200.626C260.44 207.242 253.442 210.204 246.914 208.968C244.541 208.509 242.299 207.531 240.347 206.105C230.726 199.174 226.194 182.176 229.109 164.413" fill="#BEE8AA"/>
<path d="M248.058 218.7C246.775 218.7 245.495 218.58 244.234 218.343C240.828 217.696 236.637 216.514 232.206 215.26C226.44 213.63 219.906 211.782 213.514 210.659C204.611 209.095 193.504 208.709 193.392 208.704L193.083 208.67C184.933 207.129 178.257 200.797 174.281 190.843C170.43 181.205 169.556 169.235 171.82 157.138C174.085 145.041 179.228 134.207 186.301 126.635C193.606 118.814 202.116 115.357 210.265 116.896L210.566 116.977C210.669 117.015 221.157 120.711 230.019 122.506C236.38 123.794 243.137 124.459 249.1 125.047C253.682 125.499 258.012 125.926 261.416 126.569C269.565 128.108 276.241 134.441 280.218 144.395C284.07 154.034 284.943 166.003 282.68 178.1C280.414 190.197 275.27 201.03 268.197 208.602C262.03 215.207 255.002 218.7 248.058 218.7ZM193.694 204.611C195.167 204.666 205.517 205.088 214.22 206.619C220.815 207.779 227.455 209.655 233.313 211.311C237.659 212.54 241.763 213.698 244.991 214.311C259.236 217.005 274.349 200.421 278.67 177.341C282.992 154.263 274.914 133.293 260.665 130.599C257.436 129.987 253.194 129.571 248.703 129.129C242.649 128.533 235.779 127.855 229.214 126.525C220.55 124.773 210.757 121.387 209.366 120.899C202.68 119.698 195.551 122.727 189.281 129.443C182.731 136.454 177.957 146.558 175.833 157.896C171.525 180.896 179.531 201.801 193.69 204.611H193.694Z" fill="#000072"/>
<path d="M233.313 145.118C231.889 148.629 230.574 152.084 229.477 155.598C228.377 159.094 227.456 162.644 226.716 166.234C225.976 169.826 225.414 173.453 225.035 177.101C224.646 180.764 224.462 184.457 224.34 188.249C223.196 184.627 222.705 180.811 222.631 176.998C222.528 169.327 224.101 161.727 227.239 154.727C228.825 151.26 230.8 147.961 233.313 145.118ZM228.295 201.985C229.363 203.272 230.39 204.528 231.46 205.709C232.505 206.87 233.617 207.967 234.794 208.991C235.926 209.98 237.136 210.876 238.412 211.671C239.656 212.429 240.973 213.053 242.345 213.538C245.068 214.47 247.986 214.678 250.813 214.143C253.648 213.651 256.365 212.413 258.884 210.816C261.413 209.135 263.714 207.134 265.729 204.862C267.795 202.595 269.607 200.049 271.21 197.379C272.817 194.689 274.195 191.868 275.33 188.947C278.791 180.111 280.25 170.618 279.603 161.151C279.381 158.035 278.881 154.944 278.111 151.916C277.732 150.416 277.281 148.935 276.761 147.478C276.48 146.762 276.226 146.034 275.907 145.339C275.618 144.624 275.289 143.942 274.958 143.253C273.592 140.536 271.926 137.991 269.869 135.872C268.849 134.822 267.73 133.873 266.527 133.039C265.323 132.238 264.027 131.583 262.668 131.087C259.96 130.067 256.994 129.741 253.98 130.047C250.967 130.353 247.914 131.305 244.867 132.577C247.23 130.135 250.169 128.327 253.414 127.319C256.825 126.277 260.467 126.256 263.89 127.259C265.613 127.764 267.262 128.494 268.796 129.432C270.311 130.368 271.721 131.465 272.999 132.706C275.526 135.185 277.523 138.103 279.057 141.188C280.57 144.261 281.715 147.502 282.468 150.843C283.229 154.137 283.693 157.496 283.856 160.875C284.212 167.599 283.569 174.32 282.113 180.846C280.623 187.363 278.343 193.743 274.991 199.612C273.309 202.537 271.403 205.363 269.136 207.925C268.008 209.219 266.801 210.441 265.52 211.585C264.219 212.734 262.836 213.787 261.38 214.733C259.9 215.688 258.334 216.504 256.704 217.171C255.046 217.844 253.316 218.324 251.549 218.602C247.987 219.204 244.254 218.751 240.911 217.446C239.242 216.797 237.674 215.915 236.253 214.827C234.867 213.756 233.622 212.514 232.549 211.13C230.452 208.449 228.997 205.323 228.295 201.993" fill="#000072"/>
<path d="M236.27 168.223C233.461 183.236 236.44 196.935 243.021 202.449C244.489 203.682 246.133 204.506 247.937 204.848C257.816 206.716 268.614 193.346 272.051 174.989C275.488 156.633 270.263 140.238 260.384 138.366C258.578 138.026 256.751 138.194 254.937 138.801C246.811 141.544 239.082 153.207 236.27 168.22" fill="#E1FFD4"/>
<path d="M236.278 168.223C233.464 183.235 236.449 196.933 243.024 202.449C244.495 203.681 246.136 204.506 247.942 204.85C257.824 206.715 268.623 193.346 272.056 174.991C272.089 174.81 272.125 174.627 272.155 174.443C275.386 156.31 270.168 140.216 260.389 138.369C259.06 138.125 257.697 138.14 256.374 138.415C255.89 138.514 255.412 138.642 254.943 138.799C246.817 141.544 239.086 153.208 236.278 168.223Z" fill="#E1FFD4"/>
<path d="M236.278 168.223C233.464 183.235 236.449 196.934 243.024 202.449C244.495 203.681 246.136 204.506 247.942 204.85C257.824 206.715 268.623 193.346 272.056 174.991C272.089 174.811 272.125 174.627 272.155 174.443C264.121 192.913 249.956 187.38 246.555 183.161C235.967 170.018 246.506 147.942 256.374 138.415C255.89 138.514 255.412 138.643 254.943 138.799C246.817 141.545 239.086 153.208 236.278 168.223Z" fill="#BEE8AA"/>
<path d="M249.824 207.076C249.065 207.076 248.307 207.004 247.561 206.862C245.449 206.464 243.482 205.507 241.712 204.023C234.361 197.862 231.368 183.323 234.267 167.844C237.166 152.364 245.209 139.919 254.289 136.859C256.479 136.124 258.655 135.955 260.762 136.353C271.919 138.463 277.758 155.601 274.056 175.363C272.333 184.57 268.76 192.889 263.994 198.789C259.628 204.202 254.673 207.076 249.824 207.076ZM258.525 140.246C257.524 140.252 256.53 140.422 255.583 140.748C247.987 143.309 240.865 154.765 238.276 168.603C235.688 182.44 238.173 195.716 244.33 200.874C245.559 201.907 246.899 202.564 248.317 202.834C252.325 203.59 256.766 201.238 260.828 196.21C265.172 190.831 268.447 183.16 270.046 174.61C273.216 157.686 268.623 142.012 260.009 140.384C259.52 140.291 259.023 140.245 258.525 140.246Z" fill="#000072"/>
<path d="M261.698 173.03C262.075 170.037 262.241 167.02 262.196 164.003C262.158 161.017 261.849 158.041 261.273 155.111C260.693 152.212 259.833 149.385 258.599 146.797C257.364 144.211 255.674 141.926 253.636 140.38L255.591 140.748C253.193 141.61 250.943 143.253 249.018 145.274C247.095 147.31 245.451 149.677 244.043 152.192C242.632 154.73 241.455 157.39 240.525 160.141C238.612 165.675 237.529 171.461 237.31 177.311C237.182 180.215 237.317 183.123 237.713 186.002C238.115 188.858 238.791 191.662 239.85 194.26C240.907 196.86 242.413 199.199 244.337 200.878L244.396 200.931C244.807 201.288 245.059 201.793 245.098 202.335C245.137 202.878 244.959 203.414 244.603 203.825C244.428 204.029 244.215 204.196 243.975 204.316C243.735 204.437 243.474 204.509 243.206 204.528C242.939 204.548 242.67 204.514 242.415 204.429C242.161 204.343 241.925 204.209 241.723 204.032C239.084 201.736 237.316 198.819 236.079 195.834C234.857 192.827 234.116 189.706 233.675 186.576C233.244 183.459 233.097 180.308 233.236 177.164C233.469 170.904 234.629 164.713 236.678 158.793C237.686 155.815 238.962 152.934 240.49 150.185C242.034 147.431 243.854 144.795 246.078 142.439C248.314 140.111 251.013 138.038 254.302 136.862L255.447 136.451L256.256 137.23C258.784 139.659 260.37 142.625 261.435 145.623C262.477 148.646 263.035 151.745 263.3 154.829C263.553 157.896 263.526 160.98 263.22 164.042C262.927 167.071 262.421 170.076 261.706 173.033" fill="#000072"/>
<path d="M102.172 148.952C101.199 138.903 90.1709 122.496 73.4461 124.098C55.7596 125.791 44.513 140.617 49.3982 157.67C53.1962 170.912 64.3957 176.503 72.6413 178.331" fill="#686779"/>
<path d="M102.172 148.954L86.5844 164.461L72.6505 178.328C64.5398 176.539 53.574 171.1 49.6019 158.326C49.536 158.109 49.4685 157.891 49.4058 157.668C44.5174 140.616 55.7641 125.791 73.449 124.096C90.1722 122.495 101.201 138.901 102.175 148.954" fill="#5F5F82"/>
<path opacity="0.2" d="M86.5831 164.465L72.6492 178.329C64.5385 176.539 53.5727 171.1 49.6006 158.327C53.4065 159.065 59.7067 158.983 61.3006 150.918C62.8129 143.237 76.9508 155.221 86.5831 164.465Z" fill="#000072"/>
<path d="M101.156 149.053C100.43 146.758 99.4998 144.533 98.3758 142.404C97.262 140.288 96.0258 138.23 94.559 136.343C91.6301 132.584 87.8697 129.476 83.5853 127.742C80.3777 126.422 76.8903 125.925 73.4416 126.299C72.2619 126.42 71.0884 126.605 69.9291 126.853C67.6187 127.334 65.3803 128.112 63.2696 129.167C62.2201 129.691 61.2066 130.284 60.2371 130.943C59.2864 131.627 58.3452 132.326 57.5074 133.139C57.0635 133.522 56.676 133.966 56.2665 134.375C55.8916 134.821 55.4806 135.238 55.137 135.709C54.4112 136.621 53.7571 137.588 53.1807 138.602C52.0353 140.636 51.2178 142.839 50.7585 145.128C49.8282 149.72 50.4542 154.581 52.0857 159.021C53.7157 163.472 56.4763 167.423 60.0959 170.484C63.7292 173.585 68.1532 175.827 72.8611 177.325H72.8737C73.0558 177.385 73.2178 177.494 73.3415 177.64C73.4651 177.786 73.5456 177.964 73.5737 178.154C73.6019 178.343 73.5767 178.537 73.501 178.713C73.4253 178.889 73.302 179.04 73.1451 179.15C72.9349 179.296 72.6771 179.358 72.4234 179.322C67.2449 178.596 62.1526 176.634 57.7945 173.422C55.5937 171.811 53.6393 169.888 51.9932 167.713C50.3372 165.522 49.0214 163.094 48.09 160.51C47.6224 159.228 47.2347 157.918 46.9291 156.588C46.6378 155.25 46.4314 153.896 46.311 152.532L46.231 151.508L46.1996 150.479C46.1636 149.792 46.2153 149.105 46.2247 148.417C46.2985 147.04 46.4757 145.67 46.7503 144.32C47.2868 141.601 48.2422 138.986 49.5835 136.565C50.2581 135.362 51.0252 134.212 51.8739 133.126C52.2834 132.57 52.7587 132.071 53.2027 131.542C53.6859 131.056 54.1408 130.533 54.657 130.08C55.6422 129.125 56.7356 128.292 57.8384 127.474C58.9605 126.693 60.1334 125.989 61.3494 125.364C63.7704 124.12 66.342 123.193 69.0004 122.608C70.3181 122.31 71.6516 122.09 72.9976 121.954C77.1518 121.499 81.353 122.09 85.2232 123.673C90.3641 125.791 94.6468 129.482 97.8534 133.814C99.4614 135.982 100.856 138.321 101.819 140.851C102.312 142.119 102.682 143.429 102.927 144.767C103.195 146.111 103.28 147.487 103.178 148.855C103.154 149.092 103.05 149.314 102.883 149.483C102.716 149.653 102.497 149.761 102.26 149.789C102.023 149.815 101.784 149.759 101.584 149.629C101.384 149.5 101.235 149.305 101.162 149.078L101.156 149.053Z" fill="#000072"/>
<path d="M92.5541 155.761C92.8428 151.059 89.9201 138.664 77.34 138.197C66.7099 137.803 59.754 146.169 62.7252 157.631C65.1506 166.984 75.0276 169.235 78.788 169.025C85.1416 168.667 92.1525 162.343 92.5572 155.762" fill="white"/>
<path d="M92.5477 155.762C92.1445 162.345 85.1336 168.672 78.7785 169.023C75.4888 169.207 67.5021 167.503 63.9409 160.801C63.411 159.795 63.0003 158.731 62.7173 157.629C61.2928 152.121 62.1525 147.325 64.6155 143.877C67.2762 140.148 71.8068 137.993 77.3289 138.198C89.9106 138.663 92.8332 151.062 92.543 155.762" fill="white"/>
<path d="M92.5477 155.762C92.1445 162.345 85.1336 168.672 78.7785 169.023C75.4872 169.207 67.5021 167.503 63.9409 160.801C73.8556 166.168 85.8412 154.26 80.1622 146.121C76.805 141.309 68.7916 142.726 64.6202 143.877C67.2777 140.148 71.8099 137.993 77.3321 138.198C89.9137 138.663 92.8379 151.062 92.5477 155.762Z" fill="#D6D6F2"/>
<path d="M78.2636 171.089C73.2498 171.089 63.3209 168.093 60.7403 158.147C59.1338 151.953 60.0955 146.235 63.4433 142.043C66.6483 138.027 71.6088 135.933 77.4055 136.148C82.3315 136.331 86.3883 138.153 89.4616 141.56C93.9028 146.486 94.7531 153.088 94.5821 155.888C94.1303 163.267 86.5107 170.647 78.8911 171.072C78.6821 171.084 78.4729 171.089 78.2636 171.089ZM76.6085 140.238C72.4167 140.238 68.8933 141.777 66.6248 144.613C64.1038 147.768 63.4198 152.207 64.6905 157.116C66.9276 165.74 76.4297 167.094 78.6652 166.979C84.2062 166.67 90.1801 160.946 90.5095 155.638C90.6664 153.077 89.7095 147.947 86.4385 144.318C84.1309 141.759 81.0419 140.39 77.2549 140.249C77.0399 140.236 76.8219 140.238 76.6085 140.238Z" fill="#000072"/>
<path d="M127.353 285.487C155.185 287.896 207.274 284.604 204.965 236.512C206.043 213.084 204.542 189.482 187.693 167.95C183.214 162.224 179.342 155.894 161.078 147.509C145.759 140.551 163.192 133.812 163.192 133.812C163.192 133.812 147.73 119.062 129.871 132.642C126.342 130.987 128.506 127.176 128.506 127.176C128.506 127.176 111.35 126.66 104.938 142.445C91.6974 144.175 83.2055 150.819 80.4586 152.735C55.5777 170.082 54.2285 199.61 50.3411 213.443C45.7869 223.634 44.9617 228.538 45.3257 235.504C46.3438 254.881 68.324 273.915 99.1758 281.591C99.1758 281.591 103.484 282.404 110.4 283.896C114.464 284.773 127.35 285.487 127.35 285.487" fill="white"/>
<path d="M204.966 236.506C206.367 265.758 187.647 278.437 166.5 283.337C152.883 286.497 138.249 286.426 127.352 285.485C127.352 285.485 114.465 284.768 110.405 283.893C103.486 282.398 99.1786 281.587 99.1786 281.587C87.7626 278.747 77.5607 274.351 69.1881 268.955C54.9279 259.779 45.9717 247.709 45.3301 235.501C44.974 228.532 45.7929 223.631 50.3439 213.439C54.2313 199.602 55.5821 170.081 80.4599 152.73C83.2052 150.822 91.6955 144.174 104.936 142.442C111.346 126.658 128.509 127.171 128.509 127.171C128.509 127.171 126.344 130.983 129.867 132.634C147.734 119.061 163.196 133.804 163.196 133.804C163.196 133.804 145.764 140.547 161.08 147.507C179.343 155.888 183.215 162.224 187.694 167.946C204.551 189.48 206.047 213.078 204.97 236.506" fill="white"/>
<path d="M166.564 283.229C166.545 283.268 166.524 283.306 166.5 283.342C152.883 286.502 138.248 286.431 127.353 285.49C127.353 285.49 114.465 284.774 110.405 283.898C106.672 283.084 102.93 282.315 99.1787 281.593C87.7627 278.752 77.5609 274.356 69.1883 268.96C68.2878 267.551 68.0807 266.238 69.0596 265.196C71.7077 262.363 90.3982 269.579 114.967 273.595C145.936 278.653 170.855 275.249 166.564 283.231" fill="#D6D6F2"/>
<path d="M133.018 247.168C129.566 245.454 123.194 239.117 125.895 227.239C129.315 212.22 147.808 205.723 157.847 213.859C168.411 222.426 173.179 245.991 162.658 253.67C154.705 259.473 144.437 252.836 133.018 247.168ZM81.8377 235.789C88.7011 236.683 97.7263 229.511 96.3709 216.437C94.7598 200.912 88.1536 198.507 77.169 201.682C64.3959 205.381 54.8766 220.191 59.0746 230.67C62.2232 238.524 68.0449 233.998 81.8377 235.794" fill="#5F5F82"/>
<path d="M127.346 285.487C136.216 285.436 145.014 285.032 153.67 283.857C162.297 282.632 170.836 280.703 178.638 277.189C182.527 275.431 186.199 273.241 189.426 270.547C192.658 267.88 195.396 264.665 197.515 261.05C199.617 257.448 201.034 253.455 201.831 249.318C202.231 247.24 202.491 245.136 202.61 243.023C202.719 240.891 202.719 238.756 202.61 236.625V236.401C203.046 225.862 202.979 215.323 201.202 205.091C199.465 194.872 195.941 185.022 190.462 176.309C189.101 174.125 187.631 172.012 186.055 169.979C184.409 167.859 182.864 165.759 181.195 163.914C177.871 160.197 173.795 157.181 169.357 154.575C168.807 154.241 168.249 153.923 167.681 153.621L165.987 152.686C164.829 152.101 163.692 151.484 162.52 150.923L158.91 149.164C157.622 148.5 156.331 147.732 155.09 146.641C154.413 146.049 153.825 145.361 153.344 144.6C153.074 144.154 152.856 143.679 152.692 143.184C152.521 142.646 152.427 142.086 152.414 141.521C152.383 140.365 152.742 139.29 153.198 138.443C153.63 137.667 154.169 136.956 154.8 136.331C155.961 135.17 157.199 134.331 158.452 133.586C159.707 132.852 161.015 132.215 162.366 131.68L161.616 135.473L161.285 135.178L160.898 134.854C160.084 134.198 159.233 133.59 158.349 133.032C157.163 132.284 155.922 131.628 154.637 131.068C152.099 129.948 149.382 129.29 146.613 129.124C143.856 128.975 141.098 129.365 138.491 130.273C135.863 131.173 133.388 132.577 131.089 134.281L131.02 134.331C130.732 134.545 130.39 134.674 130.032 134.705C129.675 134.735 129.315 134.666 128.995 134.504C128.251 134.161 127.584 133.669 127.037 133.059C126.441 132.372 126.043 131.535 125.887 130.638C125.755 129.847 125.778 129.037 125.955 128.254C126.069 127.726 126.237 127.211 126.455 126.716L126.574 126.465C126.622 126.368 126.645 126.316 126.728 126.167L128.44 129.233C128.245 129.233 127.925 129.233 127.658 129.248C127.39 129.264 127.094 129.277 126.808 129.302C125.082 129.451 123.373 129.76 121.703 130.224C119.491 130.836 117.374 131.751 115.413 132.944C114.451 133.544 113.533 134.215 112.667 134.949C110.082 137.197 108.076 140.033 106.817 143.218L106.811 143.234C106.673 143.565 106.451 143.855 106.167 144.073C105.883 144.291 105.546 144.431 105.19 144.478C97.5519 145.46 90.2351 148.414 83.8596 152.833C83.0579 153.383 82.2578 153.963 81.417 154.556C75.845 158.467 71.0506 163.381 67.2791 169.048C62.9336 175.515 59.9215 182.852 57.7503 190.453C56.6584 194.259 55.7721 198.137 54.9516 202.06C54.1123 205.987 53.4079 209.948 52.3003 213.996C52.2766 214.082 52.2472 214.166 52.2125 214.248L52.1984 214.28C50.5684 217.969 49.0326 221.692 48.1352 225.456C47.6813 227.324 47.4112 229.232 47.3289 231.153C47.2851 232.126 47.2778 233.101 47.3069 234.074C47.3257 234.564 47.343 235.069 47.3744 235.549C47.4057 236.028 47.4481 236.492 47.5046 236.964C47.9658 240.732 49.2647 244.41 51.1457 247.789C53.0283 251.166 55.4677 254.265 58.1833 257.093C63.6426 262.76 70.1719 267.435 77.1138 271.408C84.0745 275.399 91.5058 278.625 99.1725 281.587C91.0085 280.595 82.9826 278.217 75.4321 274.698C67.9019 271.157 60.7796 266.42 54.9328 260.22C52.0148 257.125 49.4326 253.659 47.4073 249.841C45.3804 246.024 43.9089 241.834 43.432 237.443C43.3723 236.895 43.3273 236.346 43.2971 235.795L43.2281 234.198C43.195 233.122 43.2028 232.044 43.2516 230.968C43.347 228.79 43.6528 226.627 44.1646 224.508C45.1796 220.288 46.8033 216.396 48.4756 212.604L48.3737 212.886C49.3965 209.157 50.115 205.173 50.959 201.219C51.8015 197.265 52.6957 193.267 53.8299 189.323C56.0733 181.45 59.2453 173.681 63.8952 166.761C67.9461 160.677 73.0948 155.4 79.0779 151.2C79.878 150.636 80.7048 150.035 81.5613 149.451C88.3855 144.72 96.3659 141.475 104.665 140.415L103.038 141.668C104.056 139.162 105.445 136.823 107.159 134.73C108.03 133.69 108.981 132.72 110.002 131.827C111.03 130.952 112.123 130.155 113.27 129.441C115.555 128.047 118.023 126.978 120.604 126.264C121.881 125.906 123.179 125.628 124.491 125.43C125.481 125.28 126.478 125.182 127.478 125.137C127.818 125.122 128.131 125.111 128.556 125.119C128.893 125.124 129.224 125.214 129.518 125.38C129.811 125.547 130.058 125.784 130.236 126.072C130.415 126.359 130.519 126.686 130.54 127.024C130.56 127.362 130.496 127.699 130.354 128.006L130.267 128.185L130.186 128.357C130.078 128.597 129.997 128.848 129.943 129.106C129.878 129.368 129.864 129.639 129.903 129.906C129.927 130.07 129.999 130.224 130.109 130.348C130.285 130.528 130.492 130.674 130.721 130.776L128.628 130.998C131.165 129.046 133.992 127.37 137.084 126.254C140.198 125.112 143.504 124.59 146.818 124.716C150.131 124.848 153.38 125.654 156.388 126.923C159.024 128.041 161.498 129.507 163.744 131.283L164.232 131.683C164.403 131.831 164.539 131.945 164.752 132.144C165.029 132.402 165.237 132.724 165.358 133.082C165.478 133.44 165.508 133.823 165.444 134.195C165.379 134.567 165.223 134.918 164.989 135.215C164.756 135.512 164.451 135.746 164.104 135.895L164.003 135.939C161.875 136.837 159.552 138.139 158.126 139.604C157.814 139.918 157.545 140.271 157.33 140.658C157.172 140.98 157.116 141.218 157.131 141.397C157.153 141.642 157.24 141.877 157.382 142.078C157.624 142.434 157.914 142.756 158.243 143.033C159.004 143.686 160.007 144.296 161.081 144.822L164.643 146.485C165.874 147.043 167.065 147.693 168.279 148.292L170.071 149.264C170.665 149.591 171.268 149.914 171.851 150.27C174.243 151.639 176.543 153.162 178.737 154.83C180.977 156.53 183.054 158.433 184.943 160.516C185.864 161.55 186.749 162.616 187.595 163.711L190.04 166.882C191.715 169.05 193.279 171.302 194.726 173.629C197.637 178.289 200.055 183.238 201.942 188.398C203.84 193.55 205.156 198.895 206.051 204.263C207.842 215.042 207.831 225.925 207.307 236.619V236.396C207.398 238.703 207.372 241.012 207.229 243.316C207.072 245.636 206.76 247.943 206.294 250.22C205.362 254.787 203.724 259.264 201.308 263.304C198.89 267.331 195.785 270.901 192.132 273.854C188.523 276.797 184.494 279.127 180.308 280.965C176.121 282.804 171.752 284.144 167.339 285.107C162.94 286.053 158.476 286.668 153.984 286.946C151.749 287.087 149.513 287.165 147.281 287.184C145.05 287.184 142.821 287.126 140.593 287.012C136.146 286.748 131.718 286.287 127.349 285.482" fill="#000072"/>
<path d="M169.816 156.664C173.006 147.087 187.412 133.583 203.351 138.906C220.206 144.536 227.868 161.518 219.304 177.038C212.657 189.087 200.491 192.017 192.048 191.942C192.048 191.942 182.393 190.8 176.242 183.579C167.013 172.749 169.816 156.664 169.816 156.664Z" fill="#686779"/>
<path d="M219.302 177.041C213.459 187.635 203.348 191.173 195.251 191.826C194.141 191.915 193.063 191.954 192.046 191.945C192.046 191.945 182.394 190.801 176.244 183.583C167.012 172.751 169.818 156.669 169.818 156.669C173.004 147.09 187.412 133.584 203.353 138.91C212.704 142.032 219.229 148.649 221.715 156.578C223.714 162.936 223.118 170.137 219.304 177.044" fill="#5F5F82"/>
<path opacity="0.2" d="M219.302 177.041C213.458 187.635 203.348 191.173 195.251 191.824C193.927 191.051 193.014 189.902 193.59 188.211C195.303 183.2 205.197 187.81 212.914 174.695C218.921 164.49 213.863 157.003 215.17 156.788C216.097 156.632 219.638 158.101 221.71 156.573C223.71 162.932 223.114 170.134 219.301 177.041" fill="#000072"/>
<path d="M168.845 156.341C169.052 154.986 169.442 153.663 170.002 152.413C170.538 151.164 171.192 149.97 171.955 148.847C173.458 146.594 175.339 144.63 177.389 142.883C181.479 139.387 186.474 136.755 191.957 135.845C196.083 135.171 200.31 135.539 204.259 136.918C205.539 137.354 206.792 137.868 208.01 138.456C210.471 139.624 212.771 141.105 214.853 142.861C215.899 143.744 216.885 144.695 217.804 145.71C218.7 146.748 219.585 147.806 220.327 148.965C220.728 149.523 221.053 150.134 221.417 150.717C221.731 151.331 222.084 151.925 222.357 152.561C224.136 156.327 224.993 160.463 224.857 164.626C224.826 166.005 224.693 167.379 224.457 168.736C224.316 169.409 224.208 170.092 224.02 170.752L223.762 171.748L223.455 172.73C222.625 175.335 221.445 177.814 219.945 180.099C218.461 182.408 216.637 184.479 214.535 186.242C212.446 187.994 210.113 189.431 207.61 190.509C202.648 192.657 197.247 193.424 192.038 192.968C191.781 192.946 191.542 192.828 191.369 192.638C191.195 192.447 191.1 192.198 191.103 191.94C191.102 191.682 191.199 191.434 191.373 191.244C191.548 191.055 191.788 190.939 192.045 190.919H192.056C196.98 190.519 201.79 189.325 206.022 187.124C210.233 184.956 213.805 181.727 216.384 177.755C218.965 173.796 220.658 169.199 220.777 164.515C220.84 162.177 220.534 159.844 219.872 157.604C219.536 156.487 219.116 155.397 218.614 154.344C218.384 153.809 218.077 153.309 217.81 152.793C217.497 152.302 217.224 151.782 216.877 151.312C216.24 150.33 215.478 149.435 214.707 148.555C213.908 147.695 213.052 146.889 212.145 146.143C210.322 144.638 208.312 143.376 206.165 142.387C205.091 141.883 203.99 141.438 202.868 141.053C199.591 139.914 196.082 139.614 192.66 140.18C188.099 140.904 183.741 143.087 180.047 146.091C178.197 147.597 176.534 149.329 174.976 151.139C173.407 152.959 172.005 154.92 170.786 156.992L170.773 157.014C170.684 157.17 170.555 157.3 170.4 157.391C170.244 157.482 170.068 157.531 169.888 157.533C169.708 157.535 169.531 157.489 169.374 157.401C169.217 157.313 169.085 157.186 168.993 157.032C168.867 156.825 168.817 156.581 168.85 156.341M165.523 184.51C166.274 183.436 161.689 171.701 153.876 173.588C151.796 174.089 150.183 177.845 151.628 179.975C154.154 183.704 164.773 185.58 165.523 184.507M78.6764 173.187C78.1853 172.217 84.0181 162.212 90.9709 165.505C93.0637 166.498 93.7602 170.002 91.2015 171.69C86.3007 174.922 79.169 174.155 78.6764 173.187Z" fill="#000072"/>
<path d="M177.679 165.467C178.447 160.815 184.057 149.398 196.422 151.773C206.868 153.781 211.786 163.503 206.335 174.003C201.886 182.573 191.758 182.543 188.142 181.492C182.028 179.716 176.606 171.973 177.679 165.467Z" fill="white"/>
<path d="M206.335 174.003C205.816 175.013 205.178 175.958 204.435 176.817C199.47 182.554 191.318 182.413 188.148 181.49C182.037 179.715 176.613 171.973 177.686 165.465C178.453 160.814 184.064 149.396 196.431 151.773C200.377 152.531 203.533 154.388 205.638 156.977H205.645C209.113 161.236 209.733 167.467 206.341 173.998" fill="white"/>
<path d="M204.429 176.817C199.463 182.554 191.312 182.413 188.142 181.49C182.031 179.715 176.606 171.973 177.679 165.465C178.446 160.814 184.058 149.396 196.425 151.773C200.37 152.531 203.527 154.388 205.632 156.977C194.368 149.581 179.399 162.332 188.371 174.163C193.78 181.304 200.334 179.278 204.429 176.817Z" fill="#D6D6F2"/>
<path d="M192.115 184.032C190.322 184.032 188.741 183.8 187.575 183.462C180.249 181.334 174.463 172.424 175.668 165.131C176.125 162.364 178.423 156.123 183.849 152.322C187.605 149.697 191.965 148.83 196.806 149.76C202.504 150.854 206.87 154.012 209.1 158.647C211.43 163.486 211.09 169.276 208.143 174.952C204.462 182.044 197.378 184.032 192.115 184.032ZM179.692 165.803C178.826 171.052 183.372 177.97 188.714 179.522C190.862 180.144 200.428 180.952 204.531 173.054C206.866 168.557 207.185 164.074 205.433 160.433C203.77 156.992 200.447 154.631 196.043 153.787C192.322 153.072 189.007 153.71 186.191 155.686C182.193 158.486 180.119 163.271 179.701 165.801L179.692 165.803ZM104.784 140.401C107.812 140.559 110.832 140.83 113.839 141.214C116.826 141.592 119.796 142.089 122.709 142.754C119.721 142.77 116.759 142.958 113.806 143.264C112.333 143.418 110.866 143.595 109.404 143.799C107.95 144.003 106.471 144.232 105.066 144.494H105.059C104.535 144.563 104.006 144.428 103.579 144.117C103.261 143.885 103.015 143.566 102.871 143.198C102.728 142.831 102.693 142.43 102.77 142.043C102.847 141.656 103.033 141.299 103.306 141.015C103.579 140.73 103.928 140.53 104.312 140.437C104.466 140.41 104.622 140.4 104.778 140.406M169.509 166.367C169.958 168.499 170.572 170.592 171.348 172.627C172.088 174.619 172.997 176.545 174.065 178.383C175.144 180.199 176.302 181.985 177.686 183.615C178.327 184.476 179.082 185.241 179.796 186.063C180.131 186.501 180.555 186.842 180.927 187.245C181.3 187.65 181.691 188.042 182.064 188.465C181.564 188.223 181.07 187.967 180.583 187.698C180.334 187.566 180.095 187.422 179.85 187.282C179.605 187.148 179.369 186.996 179.144 186.829C178.253 186.159 177.306 185.529 176.517 184.719C174.833 183.207 173.453 181.365 172.298 179.409C171.152 177.441 170.315 175.308 169.817 173.087C169.327 170.881 169.122 168.586 169.509 166.367Z" fill="#000072"/>
<path d="M120.919 244.943C118.947 248.614 116.332 250.652 112.191 250.763C107.701 250.883 105.307 247.037 104.041 244.239C103.071 246.394 100.385 247.83 97.9036 247.279C92.8756 246.164 92.4976 239.101 92.4976 239.101C92.4976 239.101 97.56 232.316 107.738 234.45C117.915 236.582 120.913 244.937 120.913 244.937" fill="white"/>
<path opacity="0.2" d="M106.254 240.237C106.254 240.237 106.897 245.812 110.223 247.583C114.151 249.674 118.699 245.897 118.699 245.897C118.699 245.897 113.386 247.793 111.944 244.532C110.557 241.388 112.42 237.557 112.42 237.557L106.254 240.237ZM103.689 236.845C103.689 236.845 103.377 243.577 99.1335 244.326C95.0139 245.054 93.478 239.449 93.478 239.449C93.478 239.449 96.2642 242.626 98.6393 240.88C101.353 238.877 99.6951 233.006 99.6951 233.006L103.689 236.845Z" fill="#000072"/>
<path d="M120.919 244.943C120.384 246.749 119.444 248.521 117.896 249.9C117.109 250.587 116.208 251.13 115.234 251.505C114.259 251.871 113.24 252.104 112.203 252.197C111.073 252.354 109.923 252.23 108.853 251.839C107.766 251.441 106.834 250.741 106.064 249.979C104.53 248.429 103.46 246.673 102.583 244.901H105.498C105.117 245.799 104.544 246.603 103.818 247.255C103.093 247.907 102.232 248.392 101.298 248.674C101.072 248.744 100.837 248.793 100.605 248.846C100.366 248.874 100.129 248.914 99.8924 248.926C99.4126 248.962 98.9302 248.936 98.457 248.849C97.5079 248.639 96.6419 248.35 95.8591 247.845C95.107 247.362 94.4612 246.73 93.9608 245.989C93.4918 245.299 93.1315 244.541 92.8925 243.741C92.6556 242.984 92.5056 242.202 92.4454 241.41C92.3761 240.64 92.3955 239.865 92.5034 239.099C92.927 240.503 93.5279 241.846 94.2919 243.097C95.0527 244.262 95.994 245.208 97.0655 245.624C97.5832 245.837 98.1762 245.982 98.7033 245.898C99.2335 245.851 99.7544 245.721 100.245 245.513C101.223 245.103 102.128 244.427 102.591 243.575L104.254 240.519L105.512 243.57C106.164 245.156 107.023 246.661 108.216 247.634C108.781 248.09 109.409 248.462 110.077 248.741C110.737 249.029 111.434 249.226 112.148 249.326C113.793 249.419 115.409 249.207 116.896 248.437C118.387 247.668 119.711 246.385 120.933 244.942" fill="#000072"/>
<path d="M104.787 237.677C103.463 237.36 104.047 240.645 102.643 243.702C102.141 244.793 106.486 246.487 105.793 244.491C104.075 239.561 106.668 238.127 104.787 237.677Z" fill="#000072"/>
<path d="M115.234 234.66C114.473 239.918 106.461 242.157 104.812 241.951C103.165 241.744 95.8576 236.853 97.0844 232.241C97.8719 229.279 103.319 229.098 105.797 229.411C108.996 229.812 115.676 231.602 115.234 234.66Z" fill="#000072"/>
<path opacity="0.5" d="M109.859 233.376C109.648 234.909 106.982 235.206 105.09 234.917C103.198 234.628 100.724 233.546 100.936 232.013C101.046 231.227 105.508 231.908 105.508 231.908C105.508 231.908 109.968 232.589 109.859 233.376Z" fill="white"/>
<path d="M157.883 240.519C157.238 238.332 156.675 236.294 155.956 234.412C155.238 232.529 154.413 230.833 153.415 229.484C152.417 228.135 151.294 227.164 150.003 226.502C149.33 226.16 148.624 225.889 147.896 225.693C147.126 225.468 146.337 225.32 145.538 225.25C143.968 225.101 142.383 225.285 140.888 225.788C139.225 226.362 137.657 227.184 136.238 228.228C134.655 229.394 133.172 230.691 131.807 232.106C130.37 233.569 129.005 235.179 127.555 236.878C127.665 234.639 128.214 232.448 129.031 230.331C129.879 228.163 131.062 226.141 132.538 224.34C134.064 222.51 135.981 220.847 138.317 219.697C140.705 218.509 143.362 217.968 146.024 218.126C147.333 218.197 148.629 218.426 149.882 218.812C151.188 219.194 152.432 219.759 153.578 220.492C155.879 221.989 157.653 224.167 158.653 226.723C159.623 229.136 159.853 231.607 159.685 233.927C159.6 235.077 159.407 236.215 159.107 237.328C158.821 238.433 158.41 239.501 157.883 240.513M66.2721 224.307C65.8172 222.295 65.9584 220.23 66.4164 218.224C66.8998 216.12 67.8249 214.144 69.1304 212.425C70.4953 210.645 72.4437 209.062 74.7749 208.205C75.9221 207.777 77.1253 207.517 78.3471 207.433C79.5831 207.341 80.826 207.425 82.0384 207.683C84.5015 208.216 86.7377 209.503 88.4375 211.363C89.9649 213.054 91.0735 215.08 91.6739 217.278C92.2386 219.278 92.4551 221.361 92.3155 223.437C92.2046 225.427 91.7596 227.385 90.9993 229.229C90.3561 227.351 89.7913 225.581 89.1011 223.923C88.473 222.343 87.7038 220.823 86.8028 219.381C85.9321 218.04 84.9485 216.909 83.9115 216.112C82.9658 215.364 81.8459 214.867 80.6563 214.669C79.5315 214.476 78.1431 214.568 76.9854 214.873C75.7993 215.177 74.6118 215.754 73.4085 216.625C72.2021 217.497 71.0004 218.628 69.8301 219.935C68.6598 221.24 67.5099 222.693 66.269 224.307" fill="#000072"/>
<path d="M257.057 221.62C254.517 228.634 248.767 235.436 238.602 238.764C237.911 238.991 237.213 239.198 236.51 239.385C223.414 277.045 186.869 311.003 160.329 322.805C158.194 323.762 156.009 324.605 153.784 325.328L138.25 288.733C171.942 268.96 187.211 220.862 210.448 206.779C213.758 204.776 217.233 203.458 220.945 203.017C225.353 196.358 230.011 193.06 236.377 192.63C246.445 191.954 256.2 197.095 258.301 208.754C258.985 212.557 258.674 217.13 257.05 221.615" fill="#5F5F82"/>
<path opacity="0.2" d="M257.054 221.62C254.514 228.634 248.764 235.436 238.598 238.764C237.925 238.985 237.226 239.195 236.506 239.385C223.411 277.045 186.865 311.003 160.325 322.805C152.814 322.943 151.912 315.355 156.289 310.743C167.961 298.439 194.867 287.338 207.409 268.668C224.564 243.133 212.958 223.518 212.958 223.518C212.958 223.518 223.651 209.098 233.384 215.67C242.873 222.078 252.101 227.547 257.049 221.62" fill="#000072"/>
<path d="M138.25 288.736C140.206 287.078 142.135 285.457 143.988 283.763C145.839 282.068 147.64 280.343 149.397 278.583C152.915 275.059 156.236 271.36 159.45 267.552C162.666 263.745 165.647 259.723 168.533 255.623C171.421 251.524 174.244 247.356 177.016 243.136L181.192 236.798C182.601 234.682 184.023 232.574 185.459 230.476C186.9 228.366 188.374 226.278 189.88 224.213C191.402 222.136 192.985 220.105 194.628 218.123C197.928 214.146 201.534 210.312 205.823 207.124C207.978 205.499 210.316 204.132 212.79 203.052C215.306 201.957 217.977 201.259 220.706 200.983L219.247 201.882C220.344 200.201 221.578 198.614 222.937 197.138C224.35 195.607 225.967 194.277 227.742 193.186C229.571 192.099 231.573 191.332 233.66 190.919C235.688 190.56 237.752 190.445 239.808 190.578C243.871 190.825 247.97 192.019 251.466 194.361C253.216 195.537 254.772 196.981 256.075 198.64C257.366 200.301 258.4 202.148 259.14 204.117C259.871 206.059 260.348 208.091 260.557 210.157C260.758 212.205 260.721 214.27 260.447 216.31C260.17 218.333 259.684 220.322 258.997 222.246C256.904 228.03 253.036 233.005 247.947 236.461C244.604 238.75 240.857 240.323 237.026 241.352L238.431 240.041C235.225 249.995 230.461 259.365 224.798 268.073C223.382 270.251 221.912 272.393 220.389 274.497C218.869 276.6 217.289 278.658 215.652 280.671C212.414 284.724 208.979 288.617 205.361 292.335C201.746 296.04 198.001 299.62 194.067 302.982C190.135 306.349 186.051 309.534 181.827 312.526C177.615 315.529 173.183 318.252 168.51 320.502C166.174 321.632 163.771 322.619 161.315 323.456C158.863 324.291 156.352 324.97 153.79 325.337C156.077 324.126 158.317 322.932 160.503 321.647C162.679 320.367 164.829 319.045 166.954 317.681C171.187 314.961 175.33 312.103 179.377 309.113C183.411 306.093 187.302 302.887 191.038 299.505C194.786 296.134 198.397 292.613 201.861 288.951C203.589 287.118 205.28 285.25 206.934 283.35C208.596 281.457 210.215 279.528 211.791 277.563C213.363 275.597 214.892 273.596 216.375 271.562C217.863 269.534 219.306 267.474 220.705 265.383C226.261 257.002 231.032 248.101 234.593 238.715V238.704C234.705 238.392 234.89 238.111 235.132 237.884C235.375 237.657 235.667 237.492 235.986 237.4C239.436 236.465 242.743 235.066 245.645 233.08C248.553 231.108 251.014 228.548 252.871 225.566C256.559 219.665 257.777 211.988 255.323 205.576C254.149 202.397 252.006 199.666 249.197 197.77C246.397 195.894 243.008 194.88 239.555 194.668C238.689 194.612 237.82 194.607 236.953 194.654C236.107 194.695 235.266 194.792 234.433 194.944C232.808 195.265 231.249 195.86 229.824 196.705C226.975 198.421 224.63 201.135 222.639 204.148C222.486 204.385 222.285 204.587 222.048 204.74C221.812 204.893 221.545 204.994 221.266 205.036L221.182 205.049C216.613 205.731 212.367 207.896 208.627 210.853C206.728 212.344 204.943 213.973 203.285 215.728C201.587 217.503 199.964 219.348 198.419 221.258C196.858 223.192 195.348 225.167 193.89 227.18C192.413 229.204 190.963 231.247 189.541 233.309L181.033 245.85C175.343 254.243 169.406 262.589 162.603 270.287C159.221 274.143 155.553 277.79 151.492 280.964C149.467 282.553 147.344 284.011 145.135 285.331C142.923 286.645 140.64 287.821 138.25 288.728" fill="#000072"/>
<path d="M217.823 231.615C220.856 234.316 224.571 236.136 228.564 236.88C232.452 237.617 236.408 237.262 240.054 236.122C240.571 235.968 241.128 236.025 241.604 236.279C242.08 236.534 242.436 236.966 242.595 237.482C242.758 237.999 242.709 238.558 242.461 239.039C242.213 239.52 241.785 239.884 241.27 240.052C241.166 240.085 241.06 240.109 240.953 240.124H240.934C236.554 240.732 232.058 240.35 228.018 238.855C223.977 237.36 220.407 234.845 217.823 231.612M235.406 190.625C236.603 190.76 237.775 191.055 238.893 191.502C240.036 191.964 241.082 192.634 241.979 193.479C243.781 195.181 244.729 197.55 244.858 199.809C244.986 202.031 244.449 204.241 243.314 206.155C242.247 207.986 240.638 209.442 238.71 210.32C240.387 209.199 241.677 207.585 242.399 205.701C243.104 203.879 243.257 201.885 242.832 200.095C242.407 198.306 241.408 196.755 240.03 195.857C238.661 194.935 236.968 194.642 235.25 194.729L235.406 190.625ZM251.224 194.22C252.993 195.862 254.134 197.992 254.694 200.134C255.234 202.234 255.337 204.421 254.998 206.563C254.694 208.633 253.978 210.62 252.891 212.408C251.814 214.153 250.281 215.655 248.444 216.412C250.126 215.345 251.277 213.694 251.985 211.939C252.677 210.182 253.009 208.303 252.962 206.415C252.924 204.561 252.54 202.738 251.807 201.154C251.075 199.569 249.986 198.254 248.671 197.418L251.224 194.22Z" fill="#000072"/>
<path d="M78.888 74.454C78.888 74.454 76.7937 64.5847 67.8657 57.1565C52.4728 44.3364 28.3324 48.18 14.3027 55.6129C14.3027 55.6129 28.072 54.4598 40.0622 62.4983C46.9774 67.1356 59.3221 86.9148 78.888 74.454Z" fill="#4FAD2B"/>
<path d="M66.3522 75.4358C58.3796 75.4358 52.0966 69.4007 47.0483 64.5485C45.081 62.6581 43.3805 61.0265 41.7615 59.9394C36.9657 56.7234 31.9095 54.8785 27.4604 53.8274C33.2759 54.5428 38.8498 55.3005 42.844 57.9627C49.061 62.1012 60.168 73.2991 62.4977 65.6419C68.2018 67.1479 68.7101 64.0904 65.9694 60.6108C71.6202 65.3219 74.193 69.9874 75.2613 73.0152C72.2038 74.6405 69.2717 75.4358 66.3522 75.4358Z" fill="#42841F"/>
<path d="M66.3865 80.5643C56.3321 80.5643 48.7 73.2224 43.5246 68.2556C41.7299 66.53 40.1783 65.0349 38.928 64.2003C27.7112 56.6764 14.5962 57.6397 14.4691 57.6522C13.9993 57.6917 13.5304 57.5666 13.1426 57.2985C12.7549 57.0303 12.4723 56.6357 12.3434 56.1823C12.2128 55.7295 12.2414 55.2457 12.4244 54.8114C12.6074 54.3772 12.9337 54.0189 13.349 53.7961C26.5378 46.8072 52.2831 41.5079 69.1663 55.5689C78.532 63.3657 80.791 73.5911 80.8804 74.0225C80.9667 74.4315 80.9266 74.8572 80.7655 75.2429C80.6044 75.6287 80.3299 75.9564 79.9784 76.1827C75.0446 79.3281 70.5139 80.5643 66.3865 80.5643ZM23.2402 54.0377C28.3748 54.808 34.9841 56.6262 41.1949 60.7882C42.737 61.8252 44.4109 63.43 46.3437 65.2875C53.375 72.0442 62.9257 81.2201 76.4941 73.4985C75.5795 70.659 72.8906 63.998 66.559 58.7268C54.1076 48.3572 36.1089 49.7 23.2402 54.0377Z" fill="#000072"/>
<path d="M83.5225 70.5319C83.5225 70.5319 80.5732 57.2788 85.3674 39.5907C88.4548 28.1841 96.7097 18.5737 96.7097 3.19336C96.7097 3.19336 112.649 19.8539 104.232 49.2403C98.6691 68.6619 83.5225 70.5381 83.5225 70.5381" fill="#62CC40"/>
<path d="M86.0417 66.6759C85.5256 61.8833 85.1396 52.1223 88.318 40.3988C89.3471 36.6008 90.0719 54.8426 96.7078 43.0783C97.3416 58.8163 106.18 31.3092 101.289 48.3839C97.7746 60.6518 90.2225 65.1103 86.0417 66.6759Z" fill="#43A31F"/>
<path d="M83.5175 72.5839C83.0527 72.5839 82.6019 72.4246 82.2402 72.1326C81.8785 71.8406 81.6278 71.4334 81.5299 70.979C81.4044 70.4189 78.5272 57.0231 83.3967 39.0542C84.5372 34.8452 86.2911 31.0064 88.1455 26.9432C91.3505 19.9276 94.6653 12.672 94.6653 3.1918C94.6657 2.78358 94.7875 2.38469 95.0151 2.04584C95.2428 1.707 95.5661 1.44351 95.9439 1.28887C96.3219 1.13566 96.7374 1.09981 97.1361 1.18599C97.5348 1.27217 97.8984 1.47639 98.1794 1.77205C98.8634 2.48742 114.832 19.6327 106.191 49.8004C100.324 70.2887 84.4447 72.4787 83.7717 72.5666C83.6873 72.577 83.6025 72.5828 83.5175 72.5839ZM98.3833 8.91473C97.3997 16.5202 94.5916 22.6698 91.8541 28.6563C90.0735 32.561 88.3855 36.2492 87.3313 40.1304C83.8078 53.1403 84.6094 63.772 85.182 68.0516C89.1714 66.8515 98.2657 62.6409 102.274 48.6662C107.914 28.9622 102.332 15.3844 98.3833 8.91473ZM32.7485 53.8965C34.8915 53.5529 37.0878 53.6016 39.2543 53.8024C41.429 54.0242 43.5798 54.4379 45.6816 55.0386C47.7916 55.6394 49.853 56.4018 51.8469 57.3164C53.833 58.2483 55.794 59.2664 57.6326 60.523C59.4728 61.7812 61.178 63.1931 62.8159 64.6364C64.4537 66.0797 66.0476 67.5339 67.7246 68.7937C69.4 70.055 71.1665 71.1045 73.0647 71.7947C74.9645 72.485 76.9616 72.8301 78.9947 72.9196H79.0026C79.3101 72.9263 79.6083 73.026 79.8581 73.2055C80.1079 73.385 80.2975 73.6359 80.4019 73.9252C80.4717 74.1169 80.5028 74.3206 80.4935 74.5244C80.4842 74.7282 80.4347 74.9282 80.3478 75.1128C80.2609 75.2974 80.1383 75.463 79.9871 75.6C79.836 75.7371 79.6592 75.8428 79.4669 75.9112C79.2746 75.9781 79.0709 76.0059 78.8677 75.9928L78.7782 75.9881C76.4941 75.7497 74.1974 75.2304 72.0685 74.2876C69.9319 73.362 68.0054 72.0473 66.3001 70.5899C64.5964 69.131 63.0606 67.5543 61.5247 66.0373C59.9873 64.5219 58.4374 63.055 56.7509 61.7608C55.0645 60.4666 53.2337 59.3574 51.3496 58.3377C49.4542 57.3303 47.4843 56.4697 45.4573 55.7633C43.4246 55.0524 41.3331 54.5222 39.2072 54.1789C37.0784 53.8541 34.9072 53.68 32.7485 53.8965Z" fill="#000072"/>
<path d="M99.6384 15.8801C99.7713 20.7464 99.6215 25.6162 99.1897 30.4651C98.7567 35.3189 98.0963 40.1633 97.053 44.9481C96.5427 47.3488 95.9245 49.7253 95.2003 52.0704C94.4859 54.4329 93.6347 56.7518 92.651 59.0154C90.6932 63.5586 88.0906 67.912 84.6031 71.6253C84.3957 71.8477 84.1266 72.0031 83.8303 72.0717C83.534 72.1402 83.224 72.1188 82.9399 72.0101C82.6559 71.9014 82.4107 71.7105 82.2358 71.4617C82.0609 71.2129 81.9642 70.9175 81.9582 70.6134C81.9463 70.2056 82.0963 69.8097 82.3755 69.5122L82.4288 69.4588L82.4476 69.44C85.7782 66.2475 88.4639 62.2989 90.5739 58.0443C91.6381 55.9054 92.5783 53.7071 93.3899 51.4602C94.2214 49.2121 94.932 46.9138 95.5658 44.5889C96.8428 39.9359 97.7511 35.1793 98.4335 30.3851C99.1175 25.5799 99.5207 20.7387 99.6415 15.8864" fill="#000072"/>
</g>
</g>
</g>
</g>
</g>
<defs>
<clipPath id="clip0_5_12398">
<rect width="283.95" height="423.57" fill="white"/>
</clipPath>
<clipPath id="clip1_5_12398">
<rect width="283.95" height="423.58" fill="white"/>
</clipPath>
<clipPath id="clip2_5_12398">
<rect width="283.95" height="423.58" fill="white"/>
</clipPath>
<clipPath id="clip3_5_12398">
<rect width="283.95" height="423.572" fill="white" transform="translate(0 -0.000488281)"/>
</clipPath>
</defs>
</svg>
