<svg width="155" height="157" viewBox="0 0 155 157" fill="none" xmlns="http://www.w3.org/2000/svg">
<g clip-path="url(#clip0_5_2634)">
<g clip-path="url(#clip1_5_2634)">
<g clip-path="url(#clip2_5_2634)">
<g clip-path="url(#clip3_5_2634)">
<mask id="mask0_5_2634" style="mask-type:luminance" maskUnits="userSpaceOnUse" x="4" y="0" width="152" height="156">
<path d="M4.06982 0.18335H155.089V155.164H4.06982V0.18335Z" fill="white"/>
</mask>
<g mask="url(#mask0_5_2634)">
<path d="M77.0025 86.1087L76.0375 90.3044L72.414 106.05L72.3974 106.128C71.3848 105.891 70.3772 105.633 69.375 105.353L69.1544 105.291C43.079 97.9392 38.3621 80.6171 42.4945 75.0225C43.7831 73.2739 45.3472 72.3328 46.9006 71.873C48.3614 71.4443 49.9089 71.4525 51.3655 71.8964C53.08 72.4176 54.6039 73.4632 55.7391 74.8971C59.6441 79.8055 67.0734 82.9806 72.0316 84.6588C74.9431 85.6428 77.0025 86.1087 77.0025 86.1087Z" fill="#60547B"/>
<path opacity="0.3" d="M72.1128 90.9569C69.8721 97.2683 69.1601 105.292 69.1601 105.292C43.0838 97.9392 38.3659 80.6181 42.4983 75.0225C43.126 86.6134 53.7365 94.0463 60.6766 97.6894C63.4655 99.1545 66.9037 97.9901 68.2256 95.0843C69.2484 92.834 70.4605 91.3556 71.3695 90.4654C71.4244 90.4095 71.4921 90.3688 71.5662 90.3473C71.6402 90.3258 71.7183 90.3241 71.7932 90.3425C71.8681 90.3608 71.9373 90.3985 71.9944 90.4521C72.0514 90.5057 72.0946 90.5734 72.1197 90.649C72.1519 90.7493 72.1494 90.8582 72.1128 90.9569Z" fill="#000072"/>
<path d="M72.4012 107.302C72.3149 107.302 72.2276 107.292 72.1433 107.273C49.2766 101.912 42.7847 90.0659 41.0549 85.2227C39.5182 80.921 39.7153 76.8426 41.5805 74.3129C42.8877 72.5409 44.5715 71.3387 46.5847 70.7443C50.1915 69.6768 54.1357 71.0165 56.6334 74.1549C62.5016 81.5318 77.1083 84.926 77.2544 84.9597C77.5526 85.0279 77.8129 85.2154 77.9791 85.4817C78.0595 85.6129 78.1139 85.7596 78.1388 85.913C78.1637 86.0664 78.1588 86.2235 78.1242 86.3749L73.5181 106.395C73.4586 106.654 73.3161 106.884 73.1141 107.047C72.9111 107.212 72.6601 107.302 72.4012 107.302ZM49.0873 72.7336C48.4577 72.7336 47.8311 72.8243 47.2261 73.0027C45.7002 73.4534 44.4185 74.37 43.4172 75.7281C42.0443 77.5899 41.9669 80.92 43.2152 84.4172C44.2272 87.2528 46.5661 91.5188 51.9577 95.7451C57.0227 99.7134 63.6068 102.726 71.5461 104.713L75.6285 86.9724C71.9314 85.9966 60.2902 82.4739 54.8516 75.6384C53.3678 73.7746 51.2359 72.7336 49.0873 72.7336Z" fill="#000072"/>
<path d="M132.041 128.321C130.199 135.075 125.033 140.392 118.423 142.276C114.312 143.443 108.727 144.332 101.253 144.332C93.7784 144.332 88.1936 143.443 84.0817 142.276C77.4722 140.392 72.3042 135.075 70.4635 128.321C68.259 120.256 68.3551 112.009 69.1563 105.293C70.1781 96.6993 72.3601 90.6133 72.3601 90.6133V83.0784H129.86L130.145 90.6133C130.145 90.6133 132.327 96.7003 133.348 105.293C134.151 112.009 134.246 120.258 132.041 128.321Z" fill="white"/>
<path d="M133.348 105.296C126.828 106.663 120.234 107.621 113.603 108.163C93.8607 109.798 78.7509 107.372 72.4159 106.048C71.3977 105.839 70.3841 105.607 69.3759 105.351L69.1562 105.289C69.664 100.998 70.5212 96.7599 71.7187 92.62C72.0442 91.5087 72.2208 90.3565 72.2414 89.1972C72.2512 88.875 72.2453 88.5528 72.2286 88.2306L72.0315 84.6549L71.9462 83.0745H129.857L129.864 83.256L130.094 89.29L130.144 90.6094C130.144 90.6094 132.327 96.6995 133.348 105.296Z" fill="#60547B"/>
<path opacity="0.3" d="M132.039 121.608C130.197 128.361 125.032 133.679 118.422 135.562C114.311 136.729 108.725 137.619 101.251 137.619C93.7774 137.619 88.1926 136.729 84.0808 135.562C77.4712 133.679 72.3032 128.361 70.4626 121.608C69.4358 117.85 68.9112 114.055 68.7219 110.392C68.4424 115.974 68.7896 122.2 70.4626 128.321C72.3062 135.075 77.4702 140.392 84.0808 142.275C88.1907 143.443 93.7764 144.333 101.251 144.333C108.726 144.333 114.31 143.443 118.422 142.275C125.032 140.392 130.2 135.075 132.039 128.321C133.713 122.2 134.06 115.977 133.78 110.392C133.591 114.055 133.067 117.85 132.039 121.608Z" fill="#000072"/>
<path d="M130.454 90.4992C131.221 91.9429 131.792 93.4519 132.292 94.9875C132.79 96.523 133.199 98.0871 133.517 99.6715C134.143 102.844 134.571 106.055 134.799 109.285C135.246 115.742 134.854 122.327 133.175 128.661C132.284 131.954 130.641 134.974 128.386 137.464C126.114 139.974 123.3 141.885 120.177 143.042C118.583 143.614 117.054 143.981 115.478 144.32C113.914 144.649 112.337 144.91 110.752 145.101C107.59 145.494 104.415 145.658 101.25 145.668C98.0842 145.661 94.9089 145.507 91.7453 145.122C90.1591 144.931 88.581 144.674 87.0147 144.352C85.4457 144.022 83.907 143.651 82.3096 143.082C79.1719 141.932 76.3445 140.018 74.0633 137.5C71.805 135.003 70.1567 131.978 69.2572 128.68C67.5656 122.339 67.1645 115.744 67.6058 109.277C67.7107 107.656 67.8803 106.045 68.0941 104.44C68.2985 102.833 68.5644 101.236 68.8914 99.6512C69.2263 98.0681 69.651 96.5071 70.1633 94.9762C70.4222 94.2105 70.6997 93.4499 71.0174 92.7056C71.3255 91.9517 71.6766 91.2177 72.0687 90.5073C72.0969 90.459 72.1366 90.4189 72.1839 90.391C72.2312 90.3631 72.2846 90.3481 72.339 90.3476C72.3934 90.3471 72.447 90.361 72.4948 90.3881C72.5425 90.4151 72.5829 90.4544 72.612 90.5022C72.649 90.5665 72.6629 90.6424 72.6512 90.7163V90.7245C72.1638 93.8832 71.6146 96.9879 71.0988 100.09C70.5693 103.187 70.1417 106.304 69.9642 109.437C69.5847 115.692 70.0309 122.013 71.6725 127.991C72.4903 130.881 73.9583 133.527 75.955 135.71C77.9559 137.914 80.435 139.588 83.1853 140.592C84.5376 141.076 86.0537 141.443 87.5354 141.754C89.0326 142.061 90.5411 142.304 92.0572 142.484C95.0972 142.851 98.1744 142.997 101.255 142.999C104.335 143.002 107.412 142.864 110.454 142.503C111.971 142.327 113.481 142.087 114.98 141.784C116.462 141.478 117.981 141.114 119.337 140.632C122.097 139.632 124.587 137.959 126.599 135.754C128.604 133.564 130.079 130.91 130.903 128.011C132.559 122.025 133.014 115.694 132.643 109.432C132.461 106.295 132.06 103.169 131.505 100.072L130.67 95.4167C130.39 93.8639 130.097 92.2998 129.836 90.7326V90.7204C129.822 90.6406 129.836 90.5584 129.877 90.489C129.918 90.4186 129.981 90.3657 130.056 90.3396C130.131 90.3134 130.212 90.3158 130.286 90.3462C130.359 90.3751 130.42 90.4301 130.457 90.5012L130.454 90.4992Z" fill="#000072"/>
<path d="M68.9642 115.679C68.9642 115.679 75.6276 114.654 80.5593 122.678C83.3806 127.27 83.1139 132.707 82.3343 136.601C82.0262 138.125 81.364 139.548 80.4053 140.745C79.4395 141.95 78.2084 142.896 76.8162 143.503L69.1652 146.854C64.4816 148.906 58.9783 147.779 55.5852 143.896C53.6965 141.736 51.9451 138.534 51.6332 133.726C50.6173 118.092 68.9642 115.679 68.9642 115.679Z" fill="#60547B"/>
<path d="M62.4162 143.824C66.5006 143.644 69.6191 138.914 69.3818 133.259C69.1435 127.603 65.6396 123.163 61.5552 123.343C57.4699 123.522 54.3514 128.252 54.5897 133.908C54.827 139.564 58.3328 144.003 62.4162 143.824Z" fill="white"/>
<path opacity="0.3" d="M80.5554 122.678C78.6264 119.539 76.4337 117.789 74.4773 116.817C74.951 117.402 75.3854 118.017 75.7786 118.66C78.2842 122.738 78.0478 127.567 77.3545 131.026C77.0812 132.379 76.4933 133.642 75.6423 134.705C74.7845 135.776 73.6913 136.617 72.4552 137.156L65.6594 140.132C61.4995 141.954 56.6119 140.954 53.5974 137.504C52.8615 136.662 52.2302 135.727 51.7185 134.722C52.1922 138.984 53.8269 141.892 55.5822 143.899C58.9753 147.782 64.4787 148.91 69.1622 146.858L76.8132 143.506C78.2054 142.9 79.4366 141.953 80.4024 140.748C81.3606 139.551 82.0225 138.128 82.3303 136.604C83.1099 132.707 83.3777 127.27 80.5554 122.678Z" fill="#000072"/>
<path opacity="0.6" d="M52.6176 135.739C51.6026 120.106 69.9476 117.693 69.9476 117.693C69.9476 117.693 76.6111 116.667 81.5427 124.693C81.5859 124.762 81.6212 124.835 81.6643 124.906C81.3594 124.131 80.9893 123.385 80.5582 122.678C75.6275 114.654 68.964 115.679 68.964 115.679C68.964 115.679 50.6161 118.092 51.633 133.726C51.8478 137.035 52.7441 139.582 53.8974 141.553C53.2403 139.936 52.7667 138.02 52.6176 135.739Z" fill="white"/>
<path d="M64.3491 149.045C60.7266 149.045 57.21 147.522 54.7231 144.68C52.1891 141.781 50.7613 138.122 50.4818 133.805C50.0356 126.93 53.1031 121.4 59.3517 117.818C63.8941 115.214 68.4982 114.559 68.8051 114.518C69.2739 114.45 76.3267 113.587 81.529 122.056C84.5769 127.015 84.2591 132.832 83.456 136.839C83.11 138.55 82.367 140.146 81.2917 141.489C80.2084 142.842 78.8276 143.904 77.2662 144.585L69.6152 147.937C67.9484 148.668 66.158 149.044 64.3491 149.045ZM69.1091 116.845C69.065 116.85 64.6374 117.463 60.4226 119.896C54.9604 123.049 52.3891 127.677 52.7765 133.648C53.0217 137.429 54.2543 140.613 56.4382 143.113C59.4763 146.59 64.4079 147.659 68.7081 145.775L76.3591 142.423C77.5808 141.891 78.6612 141.06 79.5089 140.002C80.3507 138.952 80.9324 137.704 81.2034 136.366C81.9213 132.78 82.2233 127.603 79.5815 123.303C75.144 116.081 69.368 116.807 69.1258 116.842H69.1091V116.845Z" fill="#000072"/>
<path d="M133.539 115.679C133.539 115.679 126.876 114.654 121.944 122.678C119.123 127.27 119.39 132.707 120.169 136.601C120.478 138.125 121.14 139.547 122.098 140.745C123.065 141.951 124.296 142.897 125.689 143.503L133.34 146.854C138.023 148.906 143.526 147.779 146.92 143.896C148.808 141.736 150.559 138.534 150.871 133.726C151.886 118.092 133.539 115.679 133.539 115.679Z" fill="#60547B"/>
<path d="M147.89 133.891C148.129 128.235 145.01 123.504 140.925 123.326C136.841 123.146 133.337 127.585 133.098 133.241C132.861 138.897 135.98 143.627 140.064 143.806C144.148 143.986 147.653 139.545 147.89 133.891Z" fill="white"/>
<path opacity="0.3" d="M121.948 122.678C123.877 119.539 126.07 117.789 128.026 116.817C127.554 117.401 127.119 118.016 126.725 118.66C124.219 122.738 124.457 127.567 125.149 131.026C125.422 132.379 126.01 133.642 126.861 134.705C127.72 135.776 128.813 136.616 130.049 137.155L136.844 140.132C141.004 141.954 145.892 140.954 148.905 137.504C149.642 136.662 150.273 135.727 150.784 134.721C150.312 138.983 148.677 141.891 146.922 143.897C143.528 147.781 138.026 148.909 133.342 146.856L125.69 143.503C124.299 142.896 123.068 141.95 122.102 140.745C121.144 139.548 120.481 138.125 120.173 136.601C119.393 132.707 119.126 127.27 121.948 122.678Z" fill="#000072"/>
<path opacity="0.6" d="M149.882 135.739C150.897 120.106 132.552 117.693 132.552 117.693C132.552 117.693 125.888 116.667 120.957 124.693C120.915 124.762 120.878 124.835 120.835 124.906C121.14 124.132 121.51 123.387 121.942 122.678C126.873 114.654 133.537 115.679 133.537 115.679C133.537 115.679 151.884 118.092 150.867 133.726C150.653 137.035 149.756 139.582 148.603 141.553C149.26 139.936 149.735 138.02 149.882 135.739Z" fill="white"/>
<path d="M138.153 149.044C136.344 149.043 134.554 148.666 132.888 147.934L125.236 144.582C123.674 143.901 122.294 142.839 121.21 141.487C120.134 140.144 119.391 138.547 119.046 136.836C118.243 132.83 117.926 127.012 120.973 122.053C126.176 113.584 133.23 114.448 133.697 114.515C134.002 114.557 138.608 115.21 143.15 117.816C149.399 121.398 152.466 126.927 152.02 133.803C151.739 138.119 150.312 141.778 147.779 144.678C145.294 147.522 141.775 149.044 138.153 149.044ZM132.734 116.806C131.073 116.806 126.55 117.395 122.921 123.303C120.278 127.605 120.58 132.779 121.299 136.365C121.569 137.703 122.151 138.952 122.992 140.002C123.84 141.06 124.921 141.89 126.143 142.423L133.794 145.774C138.095 147.658 143.025 146.589 146.062 143.113C148.247 140.613 149.48 137.429 149.724 133.648C150.114 127.655 147.523 123.018 142.023 119.865C137.807 117.446 133.437 116.85 133.394 116.845H133.374C133.161 116.818 132.948 116.805 132.734 116.806Z" fill="#000072"/>
<path d="M137.239 114.184C132.906 123.156 123.068 133.884 114.168 127.664C107.905 123.284 110.3 114.405 113.602 108.165C114.996 105.537 116.546 103.379 117.68 102.22C121.507 98.3103 121.895 92.2895 121.895 92.2895L121.704 91.433L120.493 86.0312L129.866 83.2619L133.723 82.124C135.353 83.4128 136.674 84.7893 137.738 86.233C144.467 95.3667 140.685 107.041 137.239 114.184Z" fill="#60547B"/>
<path opacity="0.6" d="M121.685 93.8496C121.685 93.8496 123.736 99.329 119.159 103.693C119.159 103.693 111.989 113.512 111.684 122.552C111.684 122.552 109.243 114.759 115.956 103.225C115.956 103.225 121.617 98.812 121.685 93.8496Z" fill="white"/>
<path opacity="0.3" d="M133.727 82.1201L131.316 82.8328C139.747 91.0417 136.107 102.603 132.813 109.427C129.033 117.255 120.45 126.614 112.686 121.186C111.623 120.443 110.848 119.55 110.306 118.556C110.062 122.124 111.022 125.463 114.17 127.663C123.07 133.885 132.904 123.157 137.237 114.184C141.234 105.914 145.672 91.5719 133.727 82.1201Z" fill="#000072"/>
<path d="M122.135 92.305C122.317 93.4643 122.264 94.6154 122.091 95.7594C121.909 96.9135 121.58 98.0374 121.114 99.1017C120.633 100.191 120.016 101.21 119.278 102.131C118.914 102.561 118.54 102.983 118.157 103.395C117.823 103.783 117.504 104.184 117.201 104.598C115.969 106.282 114.904 108.142 114.001 110.054C113.113 111.974 112.372 113.971 111.942 116.001C111.514 118.02 111.364 120.099 111.809 121.97C112.228 123.832 113.316 125.457 114.85 126.513C115.629 127.062 116.482 127.489 117.382 127.781C118.268 128.062 119.194 128.182 120.12 128.136C121.983 128.055 123.838 127.301 125.532 126.235C127.225 125.171 128.781 123.769 130.19 122.234C131.598 120.678 132.87 118.994 133.99 117.203C134.553 116.312 135.081 115.397 135.572 114.46C136.055 113.525 136.513 112.551 136.939 111.574C137.794 109.628 138.507 107.617 139.07 105.56C139.614 103.514 140.006 101.43 140.124 99.3433C140.24 97.2562 140.103 95.1711 139.619 93.1747C139.393 92.1724 139.041 91.2089 138.646 90.2668C138.252 89.3257 137.731 88.4406 137.186 87.5781C136.021 85.8629 134.618 84.3363 133.024 83.0479L133.017 83.0439C132.785 82.8517 132.636 82.5719 132.603 82.2657C132.569 81.9595 132.653 81.652 132.837 81.4105C133.025 81.1681 133.296 81.0101 133.592 80.9691C133.889 80.9281 134.19 81.0072 134.432 81.1902C136.227 82.5871 137.861 84.245 139.199 86.1577C139.838 87.1335 140.439 88.1419 140.912 89.2176C141.385 90.2943 141.796 91.3996 142.071 92.5395C142.655 94.8152 142.839 97.1726 142.733 99.484C142.628 101.795 142.241 104.075 141.66 106.28C141.07 108.473 140.32 110.616 139.419 112.692C138.973 113.732 138.494 114.755 137.981 115.761C137.459 116.781 136.894 117.756 136.29 118.715C135.079 120.644 133.705 122.456 132.183 124.13C130.643 125.802 128.935 127.354 126.956 128.593C125.956 129.228 124.896 129.752 123.791 130.156C122.648 130.573 121.451 130.812 120.24 130.864C119.008 130.914 117.777 130.744 116.6 130.362C115.447 129.98 114.354 129.423 113.357 128.71C111.309 127.27 109.863 125.074 109.313 122.567C109.05 121.376 108.951 120.153 109.02 118.933C109.085 117.754 109.252 116.584 109.519 115.437C109.777 114.311 110.109 113.204 110.513 112.125C110.907 111.055 111.355 110.005 111.852 108.981C112.853 106.942 114.001 104.996 115.377 103.169C115.718 102.71 116.091 102.266 116.479 101.824C116.925 101.355 117.212 101.039 117.547 100.658C118.181 99.8949 118.699 99.0262 119.184 98.129C120.15 96.3243 120.902 94.3462 121.664 92.2723L121.671 92.256C121.691 92.2051 121.726 92.1623 121.771 92.1339C121.817 92.1056 121.869 92.0931 121.922 92.0985C121.975 92.1039 122.024 92.1268 122.063 92.1638C122.102 92.2009 122.129 92.25 122.139 92.3039L122.135 92.305Z" fill="#000072"/>
<path opacity="0.3" d="M137.735 86.2311C135.314 87.4444 132.732 88.4549 130.094 89.294C127.336 90.1651 124.535 90.8792 121.702 91.4331C110.876 93.5876 101.32 93.4438 101.32 93.4438C101.32 93.4438 88.7006 93.6345 76.0385 90.3044C74.7636 89.9746 73.498 89.6067 72.2434 89.2012C62.8263 86.1455 54.0936 80.9026 51.3665 71.8975C53.081 72.4185 54.605 73.4641 55.7401 74.8982C59.6451 79.8055 67.0744 82.9806 72.0326 84.6589L71.9473 83.0785H129.859L129.865 83.26L133.722 82.1221C135.351 83.4129 136.672 84.7843 137.735 86.2311Z" fill="#000072"/>
<path d="M81.2603 17.9908C81.2603 27.1734 73.9731 34.6185 64.9835 34.6185C60.6816 34.6245 56.549 32.8757 53.4737 29.7479C51.9672 28.216 50.7695 26.3873 49.9505 24.3686C49.1315 22.3499 48.7077 20.1817 48.7039 17.9908C48.7039 8.80411 55.991 1.35791 64.9835 1.35791C67.1214 1.35791 69.2386 1.78818 71.2136 2.62426C73.1832 3.45644 74.9771 4.68122 76.4944 6.2296C78.002 7.76796 79.2013 9.60192 80.0227 11.6254C80.8398 13.64 81.2606 15.8043 81.2603 17.9908Z" fill="#60547B"/>
<path opacity="0.3" d="M81.2586 17.9908C81.2586 27.1733 73.9724 34.6185 64.9828 34.6185C61.059 34.6276 57.2623 33.1733 54.282 30.5197C57.5966 21.642 63.8109 11.4948 75.4345 5.23853C77.2546 6.79111 78.7229 8.74211 79.7346 10.9524C80.74 13.1514 81.2607 15.556 81.2586 17.9908Z" fill="#000072"/>
<path opacity="0.6" d="M63.996 4.37912C66.4447 4.37708 68.862 4.93991 71.0674 6.02579C73.2666 7.10589 75.204 8.68615 76.7366 10.6497C78.2579 12.599 79.3315 14.8834 79.8756 17.3292C80.4168 19.7678 80.4121 22.3032 79.8619 24.7397C80.9627 22.2118 81.4276 19.4346 81.2128 16.6687C80.998 13.9028 80.1107 11.2391 78.6341 8.92759C77.1475 6.59665 75.1252 4.68811 72.7502 3.37481C70.3606 2.05182 67.6947 1.36027 64.9874 1.36108C57.2511 1.36108 50.7818 6.87207 49.1206 14.2612C51.6546 8.4392 57.36 4.37912 63.996 4.37912Z" fill="white"/>
<path d="M64.9827 35.7942C55.3724 35.7942 47.5547 27.8066 47.5547 17.9888C47.5547 8.16994 55.3734 0.18335 64.9827 0.18335C74.593 0.18335 82.4107 8.17096 82.4107 17.9888C82.4107 27.8055 74.593 35.7942 64.9827 35.7942ZM64.9827 2.53355C56.6413 2.53355 49.8553 9.46688 49.8553 17.9888C49.8553 26.5106 56.6413 33.444 64.9827 33.444C73.3241 33.444 80.1111 26.5106 80.1111 17.9888C80.1111 9.46586 73.3251 2.53355 64.9827 2.53355Z" fill="#000072"/>
<path d="M121.383 17.9908C121.383 27.1734 128.67 34.6185 137.659 34.6185C141.976 34.6185 146.116 32.8658 149.169 29.7479C152.222 26.6299 153.938 22.4006 153.939 17.9908C153.939 8.80411 146.652 1.35791 137.659 1.35791C135.522 1.35791 133.404 1.78818 131.429 2.62426C129.46 3.45634 127.666 4.68114 126.149 6.2296C124.641 7.76788 123.442 9.60188 122.621 11.6254C121.804 13.64 121.383 15.8043 121.383 17.9908Z" fill="#60547B"/>
<path opacity="0.3" d="M121.383 17.9908C121.383 27.1733 128.67 34.6185 137.659 34.6185C141.583 34.6276 145.38 33.1733 148.36 30.5197C145.045 21.642 138.832 11.4948 127.209 5.23853C125.388 6.79112 123.92 8.7421 122.907 10.9524C121.902 13.1515 121.381 15.5559 121.383 17.9908Z" fill="#000072"/>
<path opacity="0.6" d="M138.645 4.37912C136.196 4.37912 133.78 4.94297 131.575 6.02885C129.377 7.10919 127.441 8.68944 125.909 10.6528C124.388 12.6019 123.315 14.8859 122.771 17.3312C122.23 19.7692 122.234 22.3037 122.784 24.7397C121.685 22.2134 121.22 19.4384 121.433 16.6746C121.65 13.9072 122.537 11.242 124.012 8.92759C125.499 6.59684 127.521 4.68831 129.895 3.37481C132.285 2.05186 134.952 1.36031 137.659 1.36108C145.395 1.36108 151.865 6.87207 153.525 14.2612C150.988 8.4392 145.284 4.37912 138.645 4.37912Z" fill="white"/>
<path d="M137.661 35.7942C128.052 35.7942 120.234 27.8066 120.234 17.9888C120.234 8.16994 128.052 0.18335 137.661 0.18335C147.271 0.18335 155.09 8.17096 155.09 17.9888C155.09 27.8055 147.272 35.7942 137.661 35.7942ZM137.661 2.53355C129.32 2.53355 122.534 9.46688 122.534 17.9888C122.534 26.5106 129.32 33.444 137.661 33.444C146.003 33.444 152.79 26.5106 152.79 17.9888C152.79 9.46586 146.004 2.53355 137.661 2.53355Z" fill="#000072"/>
<path d="M148.668 48.2089C148.668 48.2089 147.658 2.79663 101.32 2.79663C54.983 2.79663 53.9729 48.2079 53.9729 48.2079C34.767 91.0926 101.32 90.0832 101.32 90.0832C101.32 90.0832 167.874 91.0936 148.668 48.2089Z" fill="white"/>
<path d="M101.654 90.2432H101.319C101.231 90.2432 92.0133 90.3594 81.5674 88.359C71.9101 86.5104 59.195 82.4249 53.4661 73.4594C49.1914 66.7667 49.3121 58.2571 53.8221 48.1721C53.8446 47.486 54.3026 36.3855 60.1354 25.4288C63.6579 18.8136 68.4219 13.5422 74.293 9.76148C81.6302 5.03764 90.7228 2.64258 101.321 2.64258C111.918 2.64258 121.014 5.03764 128.349 9.76148C134.22 13.5422 138.983 18.8136 142.507 25.4288C148.341 36.3855 148.799 47.4849 148.821 48.1721C153.331 58.2591 153.451 66.7647 149.176 73.4564C143.447 82.4238 130.733 86.5094 121.076 88.3569C111.751 90.1463 103.404 90.2432 101.654 90.2432ZM101.319 89.9312C101.415 89.9312 110.606 90.0464 121.024 88.0521C130.62 86.2137 143.251 82.1608 148.919 73.2871C153.137 66.6852 153.008 58.2693 148.53 48.2741L148.516 48.2119C148.516 48.0987 148.193 36.7576 142.23 25.5664C136.735 15.251 125.178 2.95356 101.321 2.95356C77.4644 2.95356 65.9046 15.251 60.409 25.5674C54.4477 36.7576 54.128 48.0977 54.1231 48.2119L54.1104 48.2731C49.6337 58.2693 49.5033 66.6852 53.7201 73.2871C59.3882 82.1608 72.0189 86.2137 81.6165 88.0511C92.0349 90.0454 101.226 89.9312 101.319 89.9302V89.9312Z" fill="#000072"/>
<path d="M82.8587 55.5205C82.8587 55.5205 85.3868 47.0669 90.346 41.1889C93.03 38.0097 93.483 33.3675 91.2168 29.861C89.7752 27.6322 87.2501 25.8489 82.8568 25.8489C71.1459 25.8489 62.8702 40.9289 62.6359 50.2185C62.4005 59.5071 67.7882 63.8711 71.4578 64.2014C75.1273 64.5308 80.9073 63.4173 82.8587 55.5205ZM119.783 55.5205C119.783 55.5205 117.255 47.0669 112.297 41.1889C109.612 38.0097 109.159 33.3675 111.426 29.861C112.866 27.6322 115.392 25.8489 119.786 25.8489C131.496 25.8489 139.772 40.9289 140.006 50.2185C140.239 59.5071 134.854 63.8711 131.184 64.2014C127.515 64.5308 121.734 63.4173 119.783 55.5205Z" fill="#60547B"/>
<path opacity="0.3" d="M101.319 90.0861C101.319 90.0861 36.3409 91.0701 53.3237 49.7229C44.2822 84.0021 101.319 83.264 101.319 83.264C101.319 83.264 159.345 83.9114 148.816 48.5483C167.52 91.0864 101.319 90.0861 101.319 90.0861Z" fill="#000072"/>
<path opacity="0.3" d="M112.692 53.826C112.624 53.7371 112.533 53.67 112.43 53.6325C112.327 53.5949 112.216 53.5885 112.109 53.6139C112.003 53.6383 111.906 53.6931 111.828 53.772C111.751 53.8506 111.697 53.9508 111.673 54.0605C111.327 55.6317 110.365 58.2338 107.787 58.192C104.098 58.1298 104.713 52.4189 104.713 52.4189H97.9185C97.9185 52.4189 98.5334 58.1318 94.8442 58.192C92.2671 58.2327 91.3041 55.6328 90.9589 54.0605C90.9397 53.9783 90.9041 53.9013 90.8545 53.8343C90.8048 53.7674 90.7422 53.712 90.6706 53.6718C90.5991 53.6316 90.5202 53.6075 90.4391 53.6011C90.358 53.5946 90.2765 53.6059 90.1999 53.6343C90.0974 53.6715 90.007 53.7379 89.939 53.826C89.0506 54.9782 87.8826 57.0928 88.7544 59.5083C90.0724 63.1564 94.6128 63.9018 94.6128 63.9018L101.317 59.4481L108.019 63.8997C108.019 63.8997 112.558 63.1544 113.878 59.5052C114.746 57.0928 113.579 54.9782 112.692 53.826Z" fill="#000072"/>
<path d="M108.145 47.1413C105.662 45.6894 101.319 45.7699 101.319 45.7699C101.319 45.7699 96.9782 45.6873 94.4942 47.1413C94.0979 47.3773 93.7972 47.7546 93.6479 48.2034C93.4986 48.6522 93.5108 49.142 93.6822 49.5822C94.4138 51.4787 96.3829 54.665 101.319 54.665C106.256 54.665 108.223 51.4797 108.958 49.5822C109.129 49.142 109.141 48.652 108.992 48.2031C108.842 47.7542 108.541 47.377 108.145 47.1413Z" fill="#000072"/>
<path d="M102.629 53.0937C102.646 53.262 102.652 53.3639 102.661 53.4944L102.677 53.8584C102.682 54.0991 102.684 54.3377 102.677 54.5773C102.658 55.0565 102.611 55.5357 102.537 56.0108C102.38 56.9652 102.1 57.9348 101.614 58.8494C101.362 59.3153 101.061 59.7504 100.716 60.1464C100.359 60.5508 99.9503 60.9025 99.5013 61.1915C99.057 61.4759 98.5795 61.7033 98.0803 61.8695C97.6008 62.0224 97.1065 62.1224 96.6054 62.1672C95.6608 62.2451 94.7105 62.1923 93.7792 62.0102C93.2999 61.9171 92.831 61.7732 92.3798 61.581C91.9069 61.3873 91.4621 61.1265 91.0579 60.8061C90.2352 60.1566 89.6017 59.2002 89.3987 58.1989C89.297 57.7123 89.2781 57.2109 89.3428 56.7174C89.4006 56.2352 89.5487 55.7692 89.7811 55.3461C89.8098 55.2941 89.8531 55.2524 89.9051 55.2265C89.9571 55.2007 90.0154 55.1919 90.0724 55.2013C90.1288 55.2102 90.1814 55.2362 90.2237 55.2761C90.2659 55.316 90.2958 55.368 90.3097 55.4256L90.3185 55.4623C90.5009 56.2841 90.7088 57.0488 91.004 57.6779C91.2982 58.307 91.6748 58.8199 92.219 59.1614C92.4956 59.3399 92.7976 59.4775 93.1114 59.5693C93.4468 59.6712 93.789 59.7426 94.1362 59.7803C94.8589 59.865 95.5905 59.8517 96.3093 59.7426C96.639 59.6867 96.9632 59.6004 97.2782 59.4846C98.1585 59.1448 98.8797 58.4662 99.2924 57.5892C99.5943 56.9529 99.8001 56.2719 99.9024 55.5704C99.9612 55.2023 100 54.8312 100.018 54.458C100.026 54.2704 100.035 54.0838 100.035 53.8972V53.6209L100.025 53.3813L100.02 53.2997C100.003 52.9495 100.121 52.6068 100.347 52.3464C100.575 52.0832 100.892 51.9216 101.232 51.895C101.572 51.8684 101.909 51.9789 102.173 52.2036C102.435 52.4279 102.602 52.7471 102.637 53.0948L102.629 53.0937Z" fill="#000072"/>
<path d="M102.628 53.3805L102.617 53.6201V53.8954C102.617 54.083 102.625 54.2706 102.633 54.4572C102.651 54.8304 102.69 55.2015 102.749 55.5706C102.85 56.2711 103.056 56.9511 103.359 57.5894C103.772 58.466 104.493 59.1442 105.373 59.4838C105.687 59.5991 106.012 59.6857 106.342 59.7418C107.061 59.8519 107.792 59.8642 108.515 59.7795C108.862 59.7416 109.205 59.6709 109.539 59.5685C109.853 59.4757 110.152 59.3391 110.428 59.1606C110.971 58.8191 111.348 58.3072 111.643 57.6771C111.938 57.048 112.145 56.2833 112.328 55.4615L112.336 55.4258C112.349 55.3676 112.378 55.3149 112.421 55.2747C112.463 55.2346 112.517 55.209 112.573 55.2015C112.631 55.1926 112.689 55.2015 112.741 55.227C112.793 55.2525 112.836 55.2937 112.865 55.3453C113.096 55.7694 113.245 56.2344 113.303 56.7166C113.368 57.2101 113.349 57.7107 113.247 58.1981C113.044 59.1994 112.411 60.1558 111.588 60.8042C111.185 61.1244 110.74 61.3854 110.266 61.5791C109.815 61.7729 109.346 61.9156 108.867 62.0094C107.935 62.1915 106.985 62.2443 106.04 62.1664C105.54 62.1219 105.046 62.0221 104.565 61.8687C104.067 61.7031 103.59 61.4755 103.145 61.1907C102.695 60.9017 102.287 60.5501 101.929 60.1456C101.585 59.7494 101.284 59.3144 101.032 58.8486C100.544 57.934 100.265 56.9644 100.109 56.01C100.035 55.5355 99.9882 55.0568 99.9692 54.5765C99.9595 54.337 99.9595 54.0972 99.9692 53.8576L99.9849 53.4937C99.9927 53.3631 99.9996 53.2612 100.017 53.094C100.053 52.7473 100.219 52.4282 100.481 52.2059C100.744 51.9819 101.08 51.8714 101.419 51.8972C101.758 51.923 102.074 52.0832 102.303 52.3445C102.53 52.6045 102.648 52.9461 102.634 53.2928L102.628 53.3805Z" fill="#000072"/>
<path d="M101.321 55.0005C101.321 55.3624 101.309 55.7112 101.289 56.0405C101.265 55.6944 101.252 55.3475 101.253 55.0005H101.321Z" fill="#222A66"/>
<path d="M101.136 56.0507C101.112 55.704 101.1 55.3512 101.1 55.0005V54.8445H101.473V55.0005C101.473 55.3308 101.463 55.6744 101.44 56.0507H101.136Z" fill="#000072"/>
<path d="M101.322 72.342H101.289C97.396 72.342 95.2425 70.5547 94.0579 68.3931C92.2457 65.0763 92.7154 60.8755 92.7154 60.8755C92.7154 60.8755 100.717 63.5836 101.289 55.4614C101.858 63.5836 109.859 60.8755 109.859 60.8755C109.859 60.8755 111.151 72.3155 101.322 72.342Z" fill="#000072"/>
<path d="M101.321 64.2004C96.1908 64.2004 94.0588 68.3941 94.0588 68.3941C95.2435 70.5557 97.3979 72.342 101.29 72.342H101.356C105.248 72.342 107.401 70.5546 108.586 68.3941C108.584 68.3941 106.451 64.2004 101.321 64.2004Z" fill="#FF4379"/>
<path d="M101.29 73.5167C98.2676 73.5167 95.8749 72.5317 94.1803 70.5904C90.9285 66.8627 91.5483 60.9898 91.5757 60.741C91.595 60.5663 91.6522 60.3985 91.7429 60.2502C91.8336 60.1018 91.9555 59.9768 92.0994 59.8845C92.244 59.79 92.4068 59.7298 92.5763 59.7082C92.7457 59.6865 92.9177 59.7039 93.08 59.7591C93.1104 59.7693 96.3917 60.8368 98.4226 59.3309C99.4209 58.5906 99.9955 57.2906 100.138 55.4594C100.118 55.1556 100.108 54.8426 100.108 54.5193C100.115 54.2033 100.243 53.9035 100.463 53.6833C100.686 53.4618 100.982 53.3381 101.29 53.3381C101.598 53.3381 101.894 53.4618 102.117 53.6833C102.337 53.9035 102.465 54.2033 102.472 54.5193C102.472 54.8426 102.462 55.1556 102.443 55.4594C102.584 57.2906 103.159 58.5896 104.157 59.3309C106.189 60.8378 109.467 59.7673 109.502 59.7591C109.664 59.705 109.836 59.6883 110.005 59.7102C110.174 59.732 110.336 59.7918 110.481 59.8855C110.623 59.9787 110.744 60.1037 110.835 60.2514C110.926 60.3992 110.983 60.5661 111.004 60.74C111.032 60.9898 111.651 66.8637 108.399 70.5904C106.705 72.5317 104.313 73.5167 101.29 73.5167ZM93.8155 62.3336C93.8371 64.0425 94.1509 67.0309 95.9043 69.0345C97.1428 70.4497 98.956 71.1665 101.29 71.1665C103.625 71.1665 105.437 70.4497 106.676 69.0355C108.429 67.032 108.743 64.0435 108.763 62.3336C107.224 62.5865 104.759 62.6721 102.818 61.2406C102.208 60.7903 101.69 60.2197 101.292 59.5613C100.895 60.2198 100.377 60.7904 99.767 61.2406C97.8214 62.6721 95.3561 62.5895 93.8155 62.3336Z" fill="#000072"/>
<path d="M101.314 48.2445C103.496 48.2445 105.266 47.9488 105.266 47.5868C105.266 47.2228 103.496 46.9292 101.314 46.9292C99.1307 46.9292 97.3616 47.2228 97.3616 47.5868C97.3616 47.9498 99.1307 48.2445 101.314 48.2445Z" fill="white"/>
<path d="M101.317 48.4006C100.897 48.4006 97.2117 48.3782 97.2117 47.59C97.2117 46.8019 100.897 46.7764 101.317 46.7764C101.736 46.7764 105.422 46.7988 105.422 47.59C105.422 48.3812 101.737 48.4006 101.317 48.4006ZM97.5255 47.59C97.6794 47.7695 98.9239 48.0896 101.317 48.0896C103.709 48.0896 104.954 47.7664 105.109 47.59C104.954 47.4116 103.71 47.0873 101.317 47.0873C98.9239 47.0873 97.6824 47.4085 97.5255 47.587V47.59Z" fill="#000072"/>
<path d="M101.646 91.2618H101.322C100.866 91.2679 91.7151 91.3383 81.385 89.3613C67.0607 86.6185 57.3876 81.4552 52.6334 74.0152C48.1862 67.0533 48.2539 58.2796 52.8335 47.9356C52.907 46.1564 53.5729 35.6269 59.2616 24.9435C62.8645 18.1712 67.7432 12.7775 73.7585 8.89893C81.2585 4.07108 90.5305 1.62402 101.321 1.62402C112.112 1.62402 121.384 4.07108 128.882 8.89995C134.899 12.7745 139.777 18.1723 143.382 24.9425C149.07 35.6269 149.737 46.1564 149.809 47.9346C154.386 58.2785 154.458 67.0523 150.01 74.0141C145.256 81.4542 135.582 86.6175 121.259 89.3603C111.85 91.1619 103.416 91.2618 101.646 91.2618ZM101.322 88.9106H101.34C101.696 88.9167 137.532 89.2532 148.087 72.7254C152.104 66.4364 151.948 58.3519 147.625 48.6963C147.56 48.5513 147.525 48.3941 147.521 48.2344C147.521 48.1222 147.192 36.9636 141.323 25.9886C133.512 11.3796 120.053 3.97116 101.322 3.97116C82.5921 3.97116 69.1328 11.3796 61.32 25.9886C55.4508 36.9667 55.1253 48.1263 55.1223 48.2354C55.1194 48.3945 55.0831 48.5515 55.0194 48.6963C50.6947 58.3519 50.5388 66.4374 54.5555 72.7264C65.1131 89.2542 100.948 88.9177 101.304 88.9116L101.322 88.9106Z" fill="#000072"/>
<path d="M84.2376 42.5848C84.6495 38.4799 82.6048 34.9021 79.6707 34.5952C76.7367 34.2893 74.0252 37.3675 73.6133 41.4724C73.2014 45.5774 75.2461 49.1542 78.1802 49.4611C81.1143 49.769 83.8267 46.6898 84.2376 42.5848Z" fill="#000072"/>
<path d="M81.1231 39.0843C81.2535 37.7894 80.4464 36.6434 79.3226 36.5251C78.1988 36.4079 77.1818 37.3632 77.0524 38.6581C76.922 39.953 77.729 41.0981 78.8529 41.2153C79.9767 41.3336 80.9936 40.3792 81.1231 39.0843Z" fill="white"/>
<path opacity="0.3" d="M77.1084 43.895C76.8159 43.8641 76.5211 43.9225 76.2602 44.0633C76.0003 44.205 75.7865 44.4201 75.6473 44.6852C75.5075 44.9494 75.4476 45.2513 75.4754 45.5514C75.5032 45.8516 75.6174 46.136 75.8032 46.3676C75.9906 46.602 76.2403 46.774 76.521 46.8621C76.8017 46.9502 77.1011 46.9506 77.382 46.8631C77.6644 46.7775 77.9155 46.6082 78.1028 46.3757C78.2579 46.1843 78.3647 45.9557 78.4135 45.7105C78.4623 45.4654 78.4516 45.2115 78.3823 44.9717C78.2954 44.6819 78.1282 44.4251 77.9016 44.2335C77.675 44.042 77.3991 43.9242 77.1084 43.895Z" fill="white"/>
<path d="M123.915 49.457C126.849 49.1501 128.893 45.5723 128.482 41.4684C128.071 37.3635 125.358 34.2843 122.424 34.5912C119.49 34.8981 117.445 38.4759 117.857 42.5798C118.269 46.6857 120.982 49.7639 123.915 49.457Z" fill="#000072"/>
<path d="M123.249 41.2093C124.373 41.0921 125.18 39.9471 125.049 38.6511C124.92 37.3562 123.903 36.4019 122.779 36.5202C121.654 36.6374 120.848 37.7824 120.978 39.0773C121.108 40.3722 122.125 41.3276 123.249 41.2093Z" fill="white"/>
<path opacity="0.3" d="M124.987 43.8949C125.28 43.8643 125.575 43.9224 125.835 44.0631C126.094 44.2049 126.308 44.42 126.447 44.6851C126.586 44.9494 126.645 45.2508 126.618 45.5505C126.59 45.8501 126.477 46.1343 126.293 46.3664C126.106 46.5999 125.857 46.7712 125.576 46.8599C125.294 46.9482 124.994 46.9493 124.712 46.863C124.431 46.7775 124.181 46.608 123.992 46.3756C123.852 46.2031 123.751 45.9999 123.696 45.7812C123.642 45.5624 123.636 45.3338 123.678 45.1122C123.72 44.8906 123.81 44.6818 123.941 44.5013C124.071 44.3207 124.239 44.1731 124.432 44.0693C124.605 43.9742 124.793 43.9149 124.987 43.8949Z" fill="white"/>
<path d="M27.9288 45.8005C27.9288 45.8005 25.4988 61.1558 8.66211 64.6694C8.66211 64.6694 13.6173 48.7278 27.9288 45.8005Z" fill="#248943"/>
<path d="M8.43579 64.8754L8.51424 64.6225C8.56426 64.4594 13.6626 48.5627 27.8987 45.6476L28.1144 45.6038L28.0791 45.825C28.0722 45.8638 27.4348 49.7454 24.7351 54.0013C22.2452 57.9288 17.4391 62.9942 8.69174 64.8224L8.43579 64.8754ZM27.7349 46.0004C14.8325 48.7839 9.60766 62.4151 8.89179 64.4604C24.0918 61.1436 27.3456 47.8958 27.7349 46.0004Z" fill="#000072"/>
<path opacity="0.3" d="M27.9308 45.8005C26.006 46.193 24.1401 46.8503 22.3823 47.7551C21.5282 50.9343 18.4597 59.294 9.07496 63.5285C8.92553 63.9036 8.78816 64.2838 8.66309 64.6684C25.4988 61.1558 27.9308 45.8005 27.9308 45.8005Z" fill="#000072"/>
<path d="M28.6565 46.7783C26.5697 48.1975 24.5505 49.7212 22.6059 51.3441C21.6302 52.1598 20.6799 53.0061 19.7473 53.8789C18.817 54.7543 17.9226 55.6701 17.0663 56.6237C17.0606 56.6303 17.0536 56.6357 17.0459 56.6396C17.0381 56.6434 17.0297 56.6457 17.0212 56.6461C17.0036 56.6471 16.9863 56.6409 16.9731 56.6288C16.9615 56.6177 16.9541 56.6026 16.9523 56.5863C16.9505 56.57 16.9544 56.5536 16.9633 56.5401C17.6795 55.4587 18.4372 54.4076 19.2345 53.3895C20.0357 52.3699 20.8672 51.3727 21.7322 50.4051C22.5976 49.4348 23.4837 48.4846 24.3897 47.5553C25.3029 46.6177 26.2407 45.7065 27.2022 44.8227C27.4429 44.6122 27.7524 44.5064 28.0662 44.5273C28.3801 44.5481 28.6741 44.6942 28.887 44.9349C28.991 45.0532 29.0716 45.1917 29.1241 45.3424C29.1766 45.4931 29.2 45.6531 29.193 45.8132C29.186 45.9734 29.1487 46.1305 29.0832 46.2756C29.0178 46.4208 28.9254 46.551 28.8115 46.659C28.7683 46.6978 28.7232 46.7345 28.6742 46.7671L28.6565 46.7783Z" fill="#000072"/>
<path d="M8.66119 65.8982C8.47313 65.8976 8.28774 65.8519 8.1195 65.7645C7.95125 65.6771 7.80472 65.5505 7.69134 65.3945C7.5802 65.2394 7.50622 65.0589 7.47552 64.8681C7.44482 64.6774 7.4583 64.4817 7.51482 64.2974C7.73056 63.6184 12.8564 47.6319 27.6936 44.5965C27.8836 44.5578 28.0798 44.5665 28.266 44.622C28.4521 44.6775 28.623 44.7781 28.7644 44.9157C28.9031 45.0526 29.0076 45.2225 29.0689 45.4108C29.1303 45.5991 29.1466 45.8001 29.1165 45.9965C29.09 46.1637 28.4359 50.1412 25.6185 54.5846C23.0178 58.6845 18.0077 63.9711 8.90243 65.8727C8.82398 65.889 8.74161 65.8982 8.66119 65.8982ZM26.2638 47.4912C17.1369 50.3033 12.4102 58.8802 10.6411 62.9097C16.1857 61.2753 20.5192 58.0615 23.5444 53.3356C24.7022 51.5252 25.6178 49.5589 26.2638 47.4912Z" fill="#000072"/>
<path d="M28.7437 47.44C28.7437 47.44 13.6918 49.7688 5.26807 34.4675C5.26807 34.4675 21.6409 34.4145 28.7437 47.44Z" fill="#248943"/>
<path d="M26.5746 47.7214C24.3988 47.7177 22.2324 47.423 20.1289 46.8445C15.7061 45.621 9.51729 42.4959 5.13871 34.5439L5.01123 34.3125H5.27306C5.51822 34.3125 21.8313 34.4369 28.8801 47.3665L28.988 47.5633L28.7703 47.597C28.7526 47.599 27.9309 47.7214 26.5746 47.7214ZM5.53784 34.6296C13.2761 48.4004 26.6168 47.5154 28.5026 47.3156C21.9617 35.6105 7.66388 34.7 5.53784 34.6296Z" fill="#000072"/>
<path opacity="0.6" d="M25.8842 47.5573C27.6484 47.6113 28.7437 47.442 28.7437 47.442C21.6409 34.4145 5.26807 34.4675 5.26807 34.4675C5.4132 34.7316 5.5603 34.9896 5.70936 35.2424C7.48923 35.4831 19.7218 37.4835 25.8842 47.5573Z" fill="white"/>
<path d="M28.0583 48.4485C27.083 47.6501 26.0873 46.879 25.0722 46.136C24.0498 45.3844 23.01 44.6586 21.9538 43.9592C20.8942 43.2586 19.8157 42.5894 18.7196 41.9526C17.6168 41.3146 16.4891 40.7245 15.3393 40.1835C15.3315 40.18 15.3245 40.1749 15.3186 40.1685C15.3127 40.1621 15.3081 40.1546 15.305 40.1464C15.3019 40.1381 15.3004 40.1293 15.3006 40.1205C15.3007 40.1117 15.3026 40.1029 15.306 40.0948C15.3129 40.0802 15.3245 40.0684 15.3388 40.0615C15.3531 40.0547 15.3692 40.0531 15.3844 40.0571C16.6063 40.4242 17.8213 40.8361 19.0168 41.3041C20.2112 41.7731 21.3968 42.2768 22.5618 42.8223C23.73 43.3666 24.8864 43.9378 26.0303 44.5352C27.1824 45.1356 28.3181 45.7694 29.4361 46.4358C29.7127 46.601 29.9127 46.8722 29.9931 47.1882C30.0735 47.5043 30.0284 47.8408 29.8666 48.1222C29.7032 48.4053 29.4388 48.6097 29.1311 48.6911C28.9496 48.7396 28.7599 48.7441 28.5764 48.7044C28.393 48.6646 28.2208 48.5816 28.073 48.4617L28.0583 48.4485Z" fill="#000072"/>
<path d="M26.562 48.7982C24.2973 48.7922 22.0428 48.4824 19.8544 47.8765C15.2365 46.603 8.77993 43.3453 4.22385 35.0702C4.12144 34.8841 4.06839 34.673 4.07011 34.4586C4.07183 34.2441 4.12827 34.034 4.23366 33.8497C4.33859 33.6641 4.48863 33.5112 4.67103 33.4041C4.85245 33.2971 5.05838 33.241 5.26824 33.24H5.28589C6.2077 33.24 22.4864 33.4398 29.7971 46.8446C29.9399 47.1061 29.9842 47.4133 29.9216 47.7068C29.8589 48.0003 29.6936 48.2591 29.4578 48.4332C29.3009 48.5504 29.1185 48.6269 28.9273 48.6575C28.8508 48.6677 27.9761 48.7982 26.562 48.7982ZM7.52372 35.8594C10.7383 40.7504 15.0551 43.9826 20.3859 45.4804C22.4325 46.0521 24.5428 46.34 26.662 46.3369C21.2606 38.3421 11.8209 36.3529 7.5198 35.8594H7.52372Z" fill="#000072"/>
<path d="M46.6484 86.9621L27.5876 49.1938C26.7268 47.4915 26.5207 45.5127 27.0109 43.6583L28.1848 39.22C28.528 37.92 30.2598 37.7313 30.8619 38.9284L53.3266 83.4424C53.6666 84.1161 53.8037 84.8806 53.7199 85.6364C53.6361 86.3922 53.3354 87.1043 52.8568 87.6799C52.5368 88.0659 52.1469 88.3829 51.7095 88.6128C51.0483 88.9616 50.3035 89.1021 49.5666 89.0169C48.8297 88.9318 48.1328 88.6248 47.5613 88.1336C47.1848 87.8073 46.8749 87.4097 46.6493 86.9611L46.6484 86.9621Z" fill="#59E041"/>
<path d="M49.9885 89.1991C49.0654 89.1977 48.1713 88.8637 47.4584 88.2539C47.0672 87.9169 46.7448 87.5019 46.5102 87.0334L27.4494 49.2651C26.5694 47.529 26.3589 45.5093 26.861 43.6175L28.0338 39.1792C28.1182 38.861 28.2937 38.5776 28.5388 38.3635C28.7857 38.1498 29.0882 38.0172 29.4077 37.9825C29.7272 37.9478 30.0494 38.0126 30.3334 38.1687C30.6168 38.3247 30.8473 38.5654 30.9944 38.857L53.459 83.371C53.7651 83.9784 53.9135 84.6583 53.8894 85.3435C53.8653 86.0288 53.6696 86.6956 53.3217 87.2781C52.9713 87.8648 52.4821 88.3482 51.9008 88.6821C51.3153 89.0186 50.6575 89.1958 49.9885 89.197V89.1991ZM29.5754 38.285C29.2672 38.2805 28.9678 38.3916 28.732 38.598C28.5343 38.77 28.3928 39.0016 28.327 39.2607L27.1552 43.6991C26.673 45.5162 26.8754 47.456 27.721 49.1234L46.7808 86.8917C46.9956 87.3261 47.2917 87.7115 47.6536 88.0286C48.0145 88.3447 48.4342 88.5843 48.8863 88.7341C49.8009 89.0364 50.7931 88.9537 51.6497 88.5037C52.0715 88.2821 52.447 87.9762 52.7549 87.6034C53.0618 87.2312 53.2933 86.801 53.4355 86.3381C53.5787 85.8747 53.6306 85.386 53.5881 84.9013C53.5457 84.4165 53.4097 83.9457 53.1883 83.5168L30.7237 39.0028C30.6174 38.7838 30.4535 38.6006 30.2511 38.4746C30.0472 38.3472 29.8132 38.2816 29.5754 38.285Z" fill="#000072"/>
<path opacity="0.6" d="M29.6746 41.1265L52.1392 85.6395C52.4579 86.2706 52.5972 86.9782 52.5432 87.6859C53.0247 87.1057 53.3277 86.393 53.4121 85.6364C53.4968 84.8803 53.3601 84.1152 53.0198 83.4412L30.5532 38.9282C29.9482 37.7312 28.2193 37.9188 27.8751 39.2198L27.5015 40.6371C28.1644 40.115 29.2274 40.2404 29.6746 41.1265Z" fill="white"/>
<path opacity="0.3" d="M29.0734 48.0782L48.1342 85.8475C48.5681 86.7016 49.2925 87.3571 50.1661 87.6859C51.0451 88.0183 52.011 88.0038 52.8805 87.6451C53.4338 86.9604 53.7382 86.0954 53.7405 85.2011C52.8789 85.5284 51.9327 85.5222 51.0751 85.1838C50.2225 84.8495 49.5169 84.2025 49.0913 83.3648L30.0295 45.5965C29.1692 43.894 28.9634 41.9153 29.4538 40.061L29.952 38.1808C29.8579 38.1563 29.7616 38.1412 29.6647 38.136L28.4997 42.5437C28.0088 44.3975 28.2142 46.376 29.0743 48.0782H29.0734Z" fill="#000072"/>
<path d="M32.4322 56.85C31.8669 56.8478 31.3044 56.7683 30.7592 56.6134C30.5678 56.5606 30.4042 56.4312 30.3042 56.2535C30.2554 56.1662 30.224 56.0696 30.2117 55.9694C30.1994 55.8692 30.2065 55.7675 30.2326 55.6703C30.2591 55.5726 30.3039 55.4813 30.3645 55.4016C30.4251 55.322 30.5003 55.2556 30.5856 55.2063C30.7594 55.1054 30.9642 55.0791 31.1564 55.1329C34.9416 56.1933 36.9735 52.3392 37.0579 52.174C37.1512 51.9925 37.3099 51.8569 37.4992 51.7968C37.6892 51.7356 37.8946 51.7539 38.0719 51.8478C38.2484 51.9416 38.3818 52.1037 38.4416 52.2984C38.4711 52.3946 38.4818 52.4959 38.473 52.5964C38.4643 52.6969 38.4362 52.7946 38.3906 52.8837C37.6218 54.3978 35.5036 56.85 32.4322 56.85ZM40.3362 72.4602C39.7709 72.4581 39.2084 72.3786 38.6632 72.2236C38.4753 72.1674 38.3159 72.0372 38.219 71.8606C38.1715 71.7739 38.141 71.6782 38.1292 71.5792C38.1174 71.4802 38.1246 71.3797 38.1503 71.2835C38.2032 71.0884 38.3279 70.9228 38.4975 70.8227C38.6686 70.7217 38.8704 70.6929 39.0613 70.7421C42.8447 71.8025 44.8785 67.9484 44.9629 67.7842C45.0561 67.6024 45.2147 67.4664 45.4042 67.406C45.5942 67.3449 45.7996 67.3632 45.9768 67.4569C46.1534 67.5507 46.2877 67.7118 46.3475 67.9076C46.3773 68.0036 46.3883 68.1049 46.3799 68.2054C46.3715 68.3059 46.3438 68.4036 46.2985 68.4929C45.5258 70.008 43.4085 72.4602 40.3362 72.4602Z" fill="#000072"/>
<path d="M49.9915 90.2705C49.0824 90.2704 48.1902 90.0146 47.4095 89.5303C46.6341 89.0496 46.0007 88.3565 45.5786 87.5267L26.5188 49.7574C25.5174 47.7848 25.2771 45.4894 25.8471 43.339L27.0229 38.9006C27.1633 38.3722 27.4551 37.9006 27.8594 37.5486C28.2683 37.1945 28.7693 36.9746 29.2986 36.9169C29.828 36.8591 30.3619 36.9662 30.8327 37.2244C31.3034 37.4834 31.6849 37.881 31.929 38.3663L54.3937 82.8794C54.7824 83.6498 54.971 84.5124 54.9407 85.3819C54.9105 86.2513 54.6624 87.0975 54.2211 87.8367C53.7764 88.5811 53.1554 89.1944 52.4177 89.618C51.6748 90.0447 50.8402 90.2692 49.9915 90.2705ZM29.5853 39.3574H29.551C29.5017 39.3595 29.4544 39.3785 29.4166 39.4114C29.3796 39.444 29.354 39.4885 29.3441 39.5379L28.1702 43.9773C27.7569 45.5355 27.9305 47.1989 28.6556 48.6287L47.7155 86.398C48.0297 87.0164 48.5667 87.4801 49.209 87.6878C49.8545 87.8986 50.5537 87.839 51.1575 87.5216C51.4541 87.3663 51.7182 87.1515 51.9348 86.8898C52.1514 86.628 52.3161 86.3244 52.4196 85.9963C52.5218 85.6699 52.56 85.3256 52.5321 84.9835C52.5041 84.6415 52.4105 84.3088 52.2568 84.005L29.7922 39.492C29.7747 39.4508 29.7457 39.416 29.709 39.392C29.6723 39.368 29.6286 39.356 29.5853 39.3574Z" fill="#000072"/>
</g>
</g>
</g>
</g>
</g>
<defs>
<clipPath id="clip0_5_2634">
<rect width="154.112" height="156.23" fill="white"/>
</clipPath>
<clipPath id="clip1_5_2634">
<rect width="154.3" height="156.23" fill="white"/>
</clipPath>
<clipPath id="clip2_5_2634">
<rect width="158.3" height="156.23" fill="white"/>
</clipPath>
<clipPath id="clip3_5_2634">
<rect width="152" height="156" fill="white" transform="translate(3.1499 0.11499)"/>
</clipPath>
</defs>
</svg>
