<svg width="404" height="302" viewBox="0 0 404 302" fill="none" xmlns="http://www.w3.org/2000/svg">
<g clip-path="url(#clip0_5_1535)">
<g clip-path="url(#clip1_5_1535)">
<g clip-path="url(#clip2_5_1535)">
<g clip-path="url(#clip3_5_1535)">
<mask id="mask0_5_1535" style="mask-type:luminance" maskUnits="userSpaceOnUse" x="1" y="-1" width="402" height="302">
<path d="M1.50806 -0.118652H402.982V300.129H1.50806V-0.118652Z" fill="white"/>
</mask>
<g mask="url(#mask0_5_1535)">
<path d="M402.316 128.125C402.792 141.018 399.966 153.96 394.623 165.652C391.94 171.498 388.709 177.079 384.887 182.228C383.058 184.849 380.92 187.255 378.854 189.684C376.622 191.97 374.462 194.327 372.039 196.42C367.337 200.678 362.231 204.575 356.794 207.823C351.355 211.094 345.703 214.03 339.767 216.195C333.853 218.384 327.774 220.14 321.576 221.198C315.986 222.111 310.331 222.569 304.667 222.569C306.593 220.905 308.293 218.996 309.725 216.892C312.29 213.068 314.001 208.665 314.428 204.19C312.196 208.063 309.821 211.601 306.971 214.655C304.146 217.686 300.939 220.236 297.377 222.065C293.78 223.859 289.851 224.891 285.836 225.096C281.775 225.312 277.619 224.662 273.512 223.003C276.598 226.275 281.111 228.15 285.741 228.656C290.372 229.137 295.145 228.246 299.395 226.105L300.321 225.601C296.26 236.257 290.396 246.169 282.773 254.493C274.794 263.248 264.914 270.25 253.967 274.363C243.043 278.429 231.028 279.415 219.486 277.418C207.945 275.493 196.83 270.755 187.545 263.49L187.19 263.2C187.545 263.128 187.878 263.08 188.211 263.008C194.265 261.637 199.846 258.582 204.335 254.517C208.039 251.173 211.055 247.155 213.097 242.729C216.873 240.587 220.08 237.533 222.454 234.044C225.019 230.219 226.728 225.817 227.133 221.342C224.923 225.24 222.525 228.777 219.699 231.806C216.873 234.838 213.668 237.388 210.105 239.217C206.517 241.034 202.583 242.068 198.565 242.248C194.504 242.464 190.347 241.814 186.239 240.155C189.326 243.427 193.838 245.302 198.445 245.808C202.197 246.193 206.092 245.664 209.677 244.317C207.066 246.723 204.383 248.912 201.509 250.763C196.949 253.747 192.033 255.96 186.905 257.139C181.743 258.302 176.392 258.359 171.206 257.307C165.936 256.296 160.83 254.131 156.103 250.691C159.001 255.888 164.225 259.736 169.949 261.854C174.485 263.514 179.447 264.091 184.316 263.61L184.031 264.091C179.044 272.414 172.774 279.944 165.2 285.837C157.647 291.708 148.671 295.749 139.148 296.519C129.649 297.362 119.936 295.365 111.102 291.467C102.53 287.69 94.8112 282.109 87.8763 275.661C90.467 276.384 93.1727 276.552 95.7857 276.24C99.1571 275.806 102.386 274.627 105.093 272.656C101.864 273.328 98.7299 273.714 95.6673 273.568C92.6031 273.472 89.6349 272.896 86.9035 271.789C84.138 270.635 81.64 268.923 79.5655 266.76C77.3763 264.488 75.7144 261.761 74.698 258.774C74.4132 262.118 75.5765 265.606 77.5701 268.445C79.5927 271.325 82.3932 273.57 85.6442 274.917C80.4199 278.957 74.8404 282.541 68.8801 285.309C62.894 288.003 56.5064 289.855 49.9765 290.528C46.7235 290.842 43.4225 290.962 40.1695 290.626C36.9148 290.36 33.6842 289.759 30.5753 288.725C29.0072 288.267 27.5351 287.594 26.015 286.992C24.5669 286.223 23.0708 285.573 21.7412 284.635C18.9617 282.952 16.4688 280.786 14.2847 278.357C12.0509 275.951 10.27 273.184 8.77389 270.274C7.22975 267.363 6.13857 264.235 5.33047 261.035C3.69198 254.661 3.38315 247.901 4.33365 241.406C5.21209 234.862 7.42191 228.56 10.4844 222.713C13.5247 216.868 17.4416 211.479 21.8115 206.548L22.6179 205.609L21.9076 204.575C16.2801 196.252 13.1438 186.172 13.0254 176.14C12.9053 166.109 15.9232 156.149 21.0274 147.538C22.5871 144.903 24.3499 142.393 26.2998 140.032V140.008C30.6747 134.639 35.9066 130.031 41.784 126.368C50.1669 121.123 59.7371 117.901 69.5441 116.6C69.3965 116.767 69.2617 116.944 69.1409 117.131C65.8399 121.893 63.9166 127.547 63.3469 133.176C62.8237 138.805 63.5117 144.53 65.6734 149.583C65.7935 144.098 66.3151 138.877 67.5967 133.922C68.8561 128.99 70.8497 124.323 73.6292 120.282C76.4309 116.216 80.0454 112.775 84.2442 110.177C88.4717 107.531 93.2911 105.776 98.6818 105.126C93.4833 103.419 87.5212 104.091 82.3209 106.281C78.492 107.919 75.0407 110.327 72.1811 113.354C74.674 97.8135 80.54 82.8028 89.5629 70.0517C98.7556 57.0622 111.268 46.5724 125.4 39.5483C139.529 32.5242 155.369 29.0121 171.043 29.7825C185.411 30.5511 199.563 35.0017 212.054 42.3157C207.662 42.652 203.386 43.8787 199.515 45.8277C194.53 48.3773 190.136 52.0094 187.049 56.556C191.702 53.7423 196.333 51.4329 201.154 49.8922C205.951 48.3292 210.89 47.5829 215.76 47.7991C220.603 48.017 225.4 49.2917 229.84 51.529C233.925 53.5484 237.63 56.4359 240.86 60.1641C239.649 60.6703 238.462 61.2965 237.393 62.0171C234.567 63.9181 232.169 66.4436 230.648 69.4032C233.237 67.3581 235.873 65.6012 238.675 64.3264C241.454 63.0277 244.35 62.1852 247.32 61.9691C250.264 61.7289 253.256 62.1372 256.082 63.1478C259.048 64.1916 261.747 65.875 263.99 68.0787C262.778 64.9527 260.167 62.3534 257.151 60.7423C254.056 59.0903 250.557 58.348 247.057 58.6011C245.11 58.7693 243.211 59.2514 241.382 59.948C239.815 55.1131 236.348 50.8307 232.074 47.8008C228.534 45.267 224.48 43.542 220.2 42.7481C229.84 30.431 242.024 20.1591 255.892 13.2551C270.092 6.20703 286.241 3.27147 301.962 5.5808C309.847 6.54159 317.494 8.94872 324.642 12.4127C331.804 15.9702 338.252 20.814 343.663 26.7028C354.301 38.4416 360.736 53.7423 363.729 69.5473C362.079 67.2691 359.988 65.3464 357.58 63.8941C354.658 62.1612 351.357 61.1026 348.056 61.0066C351 62.4735 353.731 64.0862 356.083 66.0833C358.434 68.0564 360.476 70.34 361.972 72.9393C363.471 75.5511 364.425 78.4405 364.773 81.432C365.13 84.4859 364.87 87.6137 363.849 90.7877C366.105 88.3343 367.244 84.8222 367.362 81.3582C367.427 79.6267 367.252 77.8945 366.841 76.2111C366.402 74.4691 365.73 72.7939 364.846 71.2304C370.236 73.3476 375.342 76.3072 379.806 80.1075C384.365 83.9815 388.402 88.5522 391.633 93.6752C394.174 97.5973 396.24 101.808 397.878 106.16C398.377 107.483 398.828 108.782 399.232 110.131C401.061 115.928 402.057 121.989 402.39 128.077L402.318 128.125H402.316Z" fill="white" fill-opacity="0.2"/>
<path d="M402.316 128.125C402.792 141.019 399.966 153.96 394.623 165.653C391.94 171.498 388.709 177.079 384.887 182.228C383.058 184.85 380.92 187.255 378.854 189.685C376.622 191.97 374.462 194.327 372.039 196.42C367.337 200.679 362.231 204.575 356.794 207.823C351.355 211.095 345.703 214.03 339.767 216.196C333.853 218.385 327.774 220.14 321.576 221.199C315.986 222.111 310.331 222.569 304.667 222.569C306.593 220.905 308.293 218.996 309.725 216.892C312.29 213.068 314.001 208.665 314.428 204.191C312.196 208.063 309.821 211.601 306.971 214.655C304.146 217.686 300.939 220.236 297.377 222.065C293.78 223.859 289.851 224.891 285.836 225.097C281.775 225.313 277.619 224.663 273.512 223.003C276.598 226.275 281.111 228.151 285.741 228.657C290.372 229.137 295.145 228.247 299.395 226.105L300.321 225.601C296.26 236.257 290.396 246.169 282.773 254.493C274.794 263.249 264.914 270.25 253.967 274.363C243.043 278.429 231.028 279.416 219.486 277.419C207.945 275.494 196.83 270.755 187.545 263.491L187.19 263.201C187.545 263.129 187.878 263.081 188.211 263.008C194.265 261.638 199.846 258.582 204.335 254.517C208.039 251.174 211.055 247.155 213.097 242.729C216.873 240.588 220.08 237.534 222.454 234.044C225.019 230.22 226.728 225.817 227.133 221.343C224.923 225.241 222.525 228.777 219.699 231.807C216.873 234.838 213.668 237.388 210.105 239.217C206.517 241.034 202.583 242.068 198.565 242.248C194.504 242.465 190.347 241.814 186.239 240.155C189.326 243.427 193.838 245.302 198.445 245.809C202.197 246.193 206.092 245.664 209.677 244.318C207.066 246.723 204.383 248.912 201.509 250.764C196.949 253.747 192.033 255.96 186.905 257.139C181.743 258.302 176.392 258.359 171.206 257.307C165.936 256.297 160.83 254.131 156.103 250.691C159.001 255.888 164.225 259.737 169.949 261.854C174.485 263.515 179.447 264.091 184.316 263.611L184.031 264.091C179.044 272.414 172.774 279.944 165.2 285.838C157.647 291.709 148.671 295.749 139.148 296.52C129.649 297.362 119.936 295.365 111.102 291.467C102.53 287.691 94.8112 282.109 87.8763 275.662C90.467 276.384 93.1727 276.552 95.7857 276.24C99.1571 275.806 102.386 274.627 105.093 272.656C101.864 273.328 98.7299 273.714 95.6673 273.569C92.6031 273.473 89.6349 272.896 86.9035 271.789C84.138 270.635 81.64 268.923 79.5655 266.761C77.3759 264.488 75.714 261.762 74.698 258.774C74.4132 262.118 75.5765 265.606 77.5701 268.446C79.5927 271.325 82.3932 273.57 85.6442 274.917C80.4199 278.958 74.8404 282.542 68.8801 285.309C62.894 288.003 56.5064 289.856 49.9765 290.528C46.7235 290.842 43.4225 290.962 40.1695 290.626C36.9148 290.36 33.6842 289.76 30.5753 288.725C29.0072 288.267 27.5351 287.594 26.015 286.992C24.5669 286.224 23.0708 285.573 21.7412 284.635C18.9617 282.952 16.4688 280.787 14.2847 278.357C12.0509 275.952 10.27 273.184 8.77389 270.274C7.22975 267.363 6.13857 264.235 5.33047 261.035C3.69198 254.662 3.38315 247.902 4.33365 241.406C5.21209 234.862 7.42191 228.561 10.4844 222.713C13.5247 216.868 17.4416 211.479 21.8115 206.548L22.6179 205.61L21.9076 204.575C16.2801 196.252 13.1438 186.172 13.0254 176.141C12.9053 166.109 15.9232 156.149 21.0274 147.538C22.5956 144.891 24.3525 142.391 26.2998 140.032C22.2868 154.851 24.8998 171.69 35.0859 183.189C52.5878 202.916 87.806 201.713 104.002 180.88C111.671 200.871 138.15 207.439 158.098 200.27C178.047 193.052 192.817 176.189 206.661 159.975C217.064 180.735 241.095 193.559 263.918 190.503C286.69 187.423 306.615 168.708 311.293 145.902C335.8 153.288 364.013 146.336 382.44 128.389C388.9 122.062 394.1 114.484 397.806 106.209C398.303 107.532 398.755 108.832 399.16 110.179C400.987 115.976 401.985 122.038 402.316 128.125Z" fill="white" fill-opacity="0.2"/>
<path d="M399.848 109.961C398.067 104.093 395.548 98.4382 392.295 93.2431C389.09 87.9982 385.075 83.2834 380.493 79.2172C376.005 75.2711 370.851 72.1211 365.365 69.7397C362.849 53.5006 356.77 37.4073 345.94 24.6819C340.479 18.2823 333.781 12.9671 326.397 8.94891C318.963 5.05255 310.937 2.23709 302.626 0.936585C286.049 -1.85315 268.643 0.962321 253.443 8.15454C238.958 14.8904 226.467 25.3562 216.374 37.6972C202.815 29.3486 187.284 24.2495 171.373 23.4552C154.559 22.6368 137.628 26.389 122.667 34.0153C107.706 41.6176 94.5264 52.852 84.8842 66.7561C75.6228 80.0836 69.6625 95.5764 67.0752 111.55C57.2425 113.233 47.6483 116.721 39.195 122.158C30.1705 127.981 22.5476 135.943 17.1809 145.277C11.8622 154.61 8.84599 165.436 9.20286 176.285C9.55801 186.677 12.9053 196.854 18.6529 205.417C10.1997 215.545 3.54962 227.718 1.95917 241.142C1.55426 244.558 1.41186 248.022 1.65034 251.462C1.83907 254.902 2.33834 258.318 3.2408 261.662C4.08331 265.011 5.3186 268.248 6.92098 271.307C8.51315 274.363 10.4365 277.274 12.7887 279.776C15.1152 282.325 17.7505 284.587 20.6946 286.344C22.1187 287.306 23.6868 288.003 25.2069 288.797C26.7991 289.423 28.3655 290.144 30.004 290.578C33.257 291.611 36.6061 292.237 40.0014 292.501C43.3745 292.815 46.7699 292.766 50.1412 292.453C56.8857 291.829 63.4894 290 69.6865 287.234C75.5765 284.563 81.0856 281.123 86.2379 277.274C93.2911 283.914 101.128 289.832 109.963 294.018C119.056 298.299 129.197 300.68 139.385 300.032C144.467 299.719 149.525 298.541 154.298 296.688C159.047 294.811 163.535 292.237 167.645 289.229C175.149 283.672 181.466 276.624 186.642 268.902C196.022 275.976 207.089 280.69 218.606 282.712C230.956 284.827 243.969 283.938 255.796 279.416C267.55 274.869 278.117 267.339 286.357 257.861C290.51 253.14 294.156 247.995 297.235 242.513C298.017 241.142 298.707 239.745 299.443 238.35C300.085 236.907 300.797 235.513 301.39 234.068L304.216 226.587C310.261 226.438 316.283 225.778 322.217 224.614C328.605 223.316 334.802 221.319 340.81 218.865C346.843 216.46 352.542 213.284 358.003 209.796C363.466 206.308 368.524 202.194 373.203 197.695C375.601 195.506 377.715 193.052 379.899 190.647C381.917 188.097 384.031 185.644 385.835 182.949C389.636 177.705 392.794 171.978 395.406 166.037C400.608 154.154 403.48 141.139 402.91 128.125C402.625 121.99 401.653 115.88 399.848 110.011V109.961ZM394.646 165.629C391.962 171.474 388.733 177.055 384.887 182.178C383.058 184.826 380.92 187.207 378.854 189.636C376.622 191.922 374.46 194.279 372.04 196.372C367.313 200.655 362.231 204.527 356.792 207.775C351.355 211.023 345.704 213.958 339.765 216.123C333.853 218.313 327.773 220.068 321.576 221.126C315.987 222.051 310.332 222.509 304.667 222.497C306.605 220.845 308.307 218.935 309.725 216.82C312.29 212.996 314.001 208.593 314.428 204.119C312.218 208.015 309.82 211.553 306.972 214.583C304.144 217.638 300.939 220.164 297.377 221.969C293.784 223.774 289.852 224.806 285.836 224.999C281.775 225.217 277.619 224.566 273.51 222.907C276.598 226.177 281.109 228.078 285.717 228.561C290.348 229.041 295.145 228.174 299.371 226.033L300.297 225.529C296.26 236.209 290.394 246.097 282.772 254.421C274.794 263.177 264.915 270.177 253.967 274.291C243.043 278.357 231.026 279.344 219.484 277.347C207.945 275.422 196.806 270.659 187.545 263.417L187.188 263.128C187.545 263.056 187.878 263.008 188.233 262.936C194.289 261.565 199.871 258.51 204.381 254.445C208.063 251.101 211.102 247.083 213.145 242.657C216.921 240.54 220.102 237.486 222.477 233.972C225.042 230.148 226.752 225.745 227.179 221.27C224.971 225.169 222.573 228.705 219.723 231.735C216.897 234.79 213.691 237.316 210.129 239.121C206.536 240.927 202.604 241.959 198.587 242.152C194.526 242.368 190.371 241.718 186.263 240.059C189.35 243.331 193.862 245.23 198.469 245.712C202.221 246.097 206.116 245.592 209.702 244.22C207.089 246.627 204.405 248.792 201.531 250.667C196.973 253.651 192.057 255.864 186.927 257.043C181.766 258.202 176.419 258.267 171.23 257.235C165.958 256.225 160.852 254.059 156.103 250.595C159.025 255.792 164.225 259.664 169.949 261.758C174.543 263.422 179.456 264.022 184.316 263.514L184.029 263.995C179.02 272.318 172.774 279.848 165.174 285.741C157.623 291.611 148.623 295.653 139.124 296.423C129.625 297.264 119.912 295.269 111.078 291.371C102.528 287.618 94.7872 282.013 87.8524 275.59C90.4259 276.296 93.1128 276.493 95.7617 276.168C99.1331 275.734 102.386 274.555 105.047 272.584C101.816 273.232 98.7059 273.617 95.6193 273.496C92.5551 273.4 89.5869 272.824 86.8315 271.693C84.0733 270.538 81.5833 268.826 79.5175 266.665C77.4037 264.475 75.7429 261.806 74.626 258.678C74.3412 262.022 75.5045 265.51 77.4998 268.349C79.528 271.224 82.3268 273.467 85.5739 274.821C80.3496 278.861 74.7684 282.446 68.8081 285.213C62.8237 287.931 56.4344 289.784 49.9285 290.432C46.6755 290.746 43.3745 290.89 40.1215 290.554C36.8668 290.264 33.6362 289.664 30.5273 288.653C28.9592 288.219 27.4631 287.522 25.967 286.92C24.5189 286.151 23.0228 285.501 21.6932 284.563C18.9218 282.844 16.4172 280.729 14.259 278.285C12.0509 275.88 10.246 273.112 8.75163 270.201C7.2298 267.291 6.1146 264.187 5.3065 260.987C3.64399 254.613 3.35918 247.854 4.30968 241.334C5.18812 234.79 7.42025 228.488 10.4605 222.641C13.499 216.796 17.4176 211.407 21.7875 206.476L22.6197 205.562L21.9059 204.503C16.2784 196.18 13.1438 186.124 13.0254 176.069C12.9053 166.015 15.9215 156.077 21.0275 147.466C26.1574 138.853 33.3771 131.541 41.7823 126.272C50.1652 121.027 59.7595 117.827 69.5424 116.505C69.4257 116.697 69.2833 116.865 69.1392 117.035C65.8399 121.822 63.9406 127.451 63.3693 133.08C62.8237 138.709 63.5357 144.434 65.6735 149.487C65.7919 144.002 66.3134 138.781 67.6208 133.826C68.8784 128.894 70.8738 124.253 73.6515 120.186C76.4533 116.12 80.0677 112.68 84.2665 110.081C88.494 107.435 93.3152 105.68 98.7059 105.006C93.5056 103.323 87.5452 103.971 82.3432 106.185C78.5044 107.829 75.0447 110.245 72.1794 113.282C74.6723 97.7416 80.5383 82.7293 89.5629 69.9799C98.7299 56.9903 111.244 46.5005 125.375 39.4764C139.528 32.4763 155.343 28.9403 171.016 29.7329C185.383 30.505 199.538 34.9538 212.028 42.2678C207.636 42.6041 203.336 43.8549 199.49 45.8022C194.502 48.3534 190.086 51.9856 187.022 56.5322C191.676 53.7184 196.307 51.3851 201.128 49.8684C205.925 48.3294 210.865 47.5591 215.732 47.7753C220.553 47.9931 225.374 49.2679 229.815 51.5052C233.9 53.5246 237.604 56.4121 240.835 60.1643C239.623 60.6945 238.436 61.271 237.343 62.0173C234.517 63.9183 232.143 66.4678 230.623 69.4274C233.212 67.3823 235.847 65.6254 238.649 64.3266C241.428 63.0279 244.348 62.1854 247.293 61.9693C250.214 61.7291 253.231 62.1374 256.056 63.1479C258.906 64.1345 261.59 65.7695 263.964 68.0789C262.753 64.9529 260.164 62.3776 257.125 60.7185C254.033 59.0604 250.53 58.3255 247.032 58.6013C245.084 58.7455 243.161 59.2516 241.356 59.9482C239.766 55.0893 236.298 50.8309 232.047 47.7753C228.496 45.2612 224.448 43.5387 220.174 42.7242C229.815 30.4312 241.998 20.1353 255.866 13.2553C270.043 6.20722 286.215 3.24764 301.936 5.55697C309.797 6.51776 317.466 8.92489 324.616 12.3889C331.715 15.949 338.223 20.7615 343.636 26.703C354.299 38.4418 360.711 53.7665 363.679 69.5475C362.036 67.2638 359.943 65.34 357.53 63.8943C354.584 62.1614 351.307 61.1028 348.006 61.0068C350.952 62.4737 353.658 64.0864 356.034 66.0835C358.408 68.0566 360.426 70.3402 361.922 72.9154C363.425 75.5257 364.379 78.4158 364.724 81.4082C365.094 84.5569 364.779 87.7486 363.799 90.7639C366.055 88.2864 367.194 84.7984 367.337 81.3104C367.448 77.7638 366.568 74.2566 364.796 71.1826C370.187 73.2998 375.293 76.2593 379.733 80.0596C384.33 83.9734 388.323 88.5454 391.583 93.6274C394.884 98.7042 397.377 104.284 399.182 110.081C401.011 115.88 402.008 121.942 402.341 128.005C402.816 140.898 399.99 153.84 394.67 165.532L394.646 165.629Z" fill="#141414" fill-opacity="0.2"/>
<path d="M25.3288 220.212C20.5317 226.876 17.4915 235.128 18.394 243.307C19.2964 251.486 24.7112 259.376 32.5005 261.71C36.7503 262.984 41.3346 262.576 45.5844 261.325C49.8359 260.075 53.7786 257.981 57.6733 255.864C53.7916 254.705 50.1025 252.979 46.7254 250.741C42.3795 247.878 38.4848 244.029 36.5615 239.121C34.6382 234.238 35.0414 228.224 38.4608 224.254" fill="white" fill-opacity="0.2"/>
</g>
</g>
</g>
</g>
</g>
<defs>
<clipPath id="clip0_5_1535">
<rect width="403.19" height="301.52" fill="white"/>
</clipPath>
<clipPath id="clip1_5_1535">
<rect width="403.19" height="301.52" fill="white"/>
</clipPath>
<clipPath id="clip2_5_1535">
<rect width="403.19" height="301.52" fill="white"/>
</clipPath>
<clipPath id="clip3_5_1535">
<rect width="403.19" height="301.964" fill="white" transform="translate(0 -0.22168)"/>
</clipPath>
</defs>
</svg>
