<svg width="336" height="302" viewBox="0 0 336 302" fill="none" xmlns="http://www.w3.org/2000/svg">
<g clip-path="url(#clip0_5_2723)">
<g clip-path="url(#clip1_5_2723)">
<g clip-path="url(#clip2_5_2723)">
<g clip-path="url(#clip3_5_2723)">
<mask id="mask0_5_2723" style="mask-type:luminance" maskUnits="userSpaceOnUse" x="0" y="-1" width="404" height="304">
<path d="M0 -0.804199H403.19V302.324H0V-0.804199Z" fill="white"/>
</mask>
<g mask="url(#mask0_5_2723)">
<path d="M402.519 128.67C402.995 141.69 400.158 154.757 394.793 166.558C392.122 172.46 388.845 178.068 385.014 183.292C383.177 185.94 381.032 188.368 378.957 190.823C376.714 193.13 374.545 195.508 372.112 197.621C367.391 201.921 362.261 205.856 356.802 209.134C351.34 212.436 345.663 215.403 339.7 217.586C333.762 219.794 327.658 221.568 321.433 222.64C315.82 223.559 310.141 224.022 304.452 224.023C306.387 222.34 308.095 220.413 309.532 218.29C312.107 214.429 313.826 209.985 314.255 205.467C312.013 209.378 309.629 212.948 306.765 216.033C303.928 219.093 300.709 221.665 297.13 223.511C293.521 225.323 289.574 226.365 285.541 226.571C281.309 226.793 277.081 226.071 273.162 224.458C276.264 227.763 280.793 229.656 285.446 230.168C290.169 230.64 294.928 229.746 299.158 227.593L300.088 227.083C296.009 237.843 290.12 247.849 282.462 256.252C274.451 265.092 264.531 272.158 253.533 276.314C242.564 280.416 230.498 281.414 218.905 279.398C207.316 277.456 196.156 272.67 186.83 265.334L186.471 265.042C186.83 264.972 187.162 264.924 187.498 264.848C193.578 263.465 199.181 260.381 203.69 256.275C207.394 252.941 210.387 248.894 212.49 244.377C216.248 242.206 219.462 239.206 221.887 235.606C224.465 231.745 226.18 227.301 226.587 222.784C224.367 226.719 221.96 230.288 219.12 233.349C216.283 236.41 213.063 238.982 209.485 240.83C205.884 242.664 201.932 243.708 197.895 243.891C193.664 244.112 189.436 243.391 185.517 241.778C188.619 245.08 193.148 246.972 197.778 247.484C201.604 247.858 205.464 247.343 209.058 245.978C206.433 248.405 203.737 250.616 200.853 252.487C196.274 255.498 191.338 257.732 186.185 258.924C181.082 260.089 175.693 260.16 170.422 259.094C164.932 258.024 159.75 255.742 155.254 252.414C158.162 257.661 163.409 261.546 169.157 263.686C173.713 265.36 178.698 265.943 183.586 265.457L183.301 265.943C178.292 274.345 171.997 281.947 164.389 287.897C156.805 293.825 147.791 297.904 138.226 298.681C128.685 299.531 118.932 297.515 110.062 293.58C101.45 289.769 93.6986 284.133 86.7355 277.624C89.3185 278.336 92.0163 278.534 94.6757 278.206C98.0631 277.771 101.306 276.579 104.026 274.586C100.782 275.269 97.6334 275.658 94.558 275.51C91.5415 275.439 88.5618 274.831 85.7584 273.715C82.9014 272.517 80.3312 270.726 78.2177 268.461C76.1041 266.196 74.4955 263.508 73.4979 260.575C73.2125 263.95 74.3808 267.473 76.385 270.337C78.4115 273.241 81.2241 275.508 84.4929 276.87C79.2456 280.952 73.6421 284.569 67.659 287.365C61.6465 290.084 55.2308 291.956 48.6738 292.633C45.4071 292.951 42.0903 293.071 38.8236 292.73C35.5463 292.48 32.3111 291.836 29.1882 290.811C27.6137 290.352 26.1363 289.672 24.6089 289.063C23.1551 288.286 21.6512 287.63 20.3151 286.682C17.5251 284.984 15.0207 282.797 12.8281 280.343C10.5856 277.915 8.79623 275.122 7.29531 272.185C5.74435 269.245 4.64661 266.087 3.83729 262.856C2.20788 256.38 1.86789 249.647 2.83667 243.04C3.71957 236.433 5.93564 230.071 9.01107 224.167C12.0659 218.266 16.0007 212.825 20.3887 207.848L21.198 206.9L20.4829 205.856C14.8051 197.346 11.7084 187.376 11.5656 177.147C11.4449 167.023 14.4733 156.967 19.6 148.27C21.1664 145.61 22.9375 143.077 24.8973 140.692V140.668C29.2855 135.252 34.539 130.598 40.4452 126.895C48.8621 121.604 58.4739 118.349 68.3241 117.036C68.1758 117.205 68.0401 117.384 67.918 117.572C64.6042 122.381 62.6736 128.087 62.0997 133.77C61.5759 139.453 62.2675 145.236 64.4365 150.336C64.5542 144.797 65.081 139.527 66.37 134.523C67.6325 129.547 69.6367 124.835 72.4267 120.753C75.2365 116.653 78.8661 113.18 83.0862 110.553C87.4792 107.794 92.4333 106.051 97.5863 105.453C92.3655 103.728 86.3794 104.408 81.1556 106.618C77.3074 108.274 73.8412 110.704 70.9728 113.758C73.4744 98.0715 79.3663 82.9151 88.4277 70.0425C97.6599 56.9256 110.226 46.3367 124.418 39.2441C138.606 32.1514 154.516 28.6081 170.255 29.385C184.684 30.162 198.896 34.653 211.442 42.0399C207.027 42.3783 202.737 43.6173 198.849 45.5833C193.84 48.1584 189.431 51.8254 186.329 56.4164C191.003 53.5735 195.653 51.2426 200.494 49.6887C205.312 48.1113 210.274 47.3579 215.162 47.5757C220.09 47.814 224.912 49.0981 229.306 51.3427C233.405 53.3792 237.125 56.2958 240.372 60.0598C239.152 60.5666 237.986 61.1926 236.89 61.9286C234.05 63.8475 231.643 66.3991 230.115 69.3862C232.714 67.3202 235.363 65.5485 238.179 64.2624C240.966 62.9499 243.877 62.0993 246.858 61.8786C249.842 61.6433 252.843 62.0498 255.657 63.0705C258.542 64.0917 261.214 65.7192 263.601 68.0501C262.382 64.8922 259.76 62.27 256.732 60.6426C253.627 58.9746 250.111 58.2243 246.596 58.4795C244.641 58.6652 242.723 59.1239 240.895 59.8421C239.321 54.9567 235.839 50.6364 231.545 47.5757C227.994 45.0191 223.922 43.2777 219.62 42.4755C229.303 30.0413 241.54 19.6673 255.466 12.6983C269.728 5.5821 285.947 2.62145 301.733 4.9523C309.652 5.92349 317.331 8.35146 324.509 11.8507C331.708 15.4455 338.184 20.336 343.612 26.2772C354.298 38.1287 360.76 53.5735 363.765 69.5304C362.11 67.2328 360.009 65.2921 357.588 63.8239C354.654 62.0758 351.34 61.0075 348.023 60.9104C350.981 62.3907 353.724 64.0182 356.084 66.0341C358.447 68.0265 360.499 70.3309 361.999 72.956C363.547 75.6646 364.513 78.6655 364.837 81.7678C365.161 84.8702 364.837 88.0061 363.883 90.976C366.149 88.5009 367.294 84.9546 367.415 81.4554C367.478 79.707 367.301 77.9581 366.888 76.2581C366.45 74.5002 365.777 72.8094 364.887 71.2314C370.356 73.3665 375.433 76.3948 379.911 80.1929C384.541 84.1312 388.546 88.7505 391.788 93.8925C394.323 97.8579 396.426 102.084 398.06 106.497C398.56 107.833 399.013 109.146 399.42 110.503C401.256 116.359 402.257 122.478 402.592 128.623L402.519 128.67Z" fill="white" fill-opacity="0.2"/>
<path d="M402.519 128.67C402.996 141.687 400.159 154.754 394.794 166.558C392.123 172.46 388.845 178.068 385.014 183.292C383.178 185.94 381.032 188.368 378.957 190.82C376.715 193.127 374.546 195.508 372.112 197.621C367.391 201.918 362.262 205.856 356.802 209.134C351.34 212.436 345.663 215.4 339.701 217.586C333.762 219.794 327.658 221.568 321.434 222.637C315.804 223.561 310.13 224.02 304.452 224.02C306.387 222.338 308.095 220.412 309.532 218.29C312.107 214.429 313.826 209.985 314.256 205.467C312.013 209.376 309.629 212.945 306.766 216.033C303.929 219.093 300.709 221.665 297.13 223.511C293.521 225.323 289.574 226.365 285.541 226.571C281.309 226.793 277.081 226.071 273.163 224.458C276.264 227.763 280.794 229.656 285.447 230.168C290.169 230.64 294.929 229.746 299.158 227.593L300.088 227.081C296.009 237.84 290.12 247.846 282.462 256.252C274.452 265.092 264.531 272.158 253.533 276.311C242.564 280.416 230.498 281.411 218.906 279.395C207.316 277.453 196.156 272.67 186.83 265.334L186.471 265.042C186.83 264.969 187.162 264.922 187.498 264.848C193.578 263.465 199.182 260.381 203.69 256.275C207.395 252.941 210.388 248.893 212.49 244.374C216.248 242.204 219.462 239.205 221.887 235.606C224.465 231.745 226.181 227.301 226.587 222.784C224.368 226.719 221.96 230.288 219.12 233.349C216.283 236.41 213.064 238.982 209.485 240.827C205.884 242.661 201.933 243.705 197.896 243.888C193.664 244.109 189.436 243.388 185.517 241.775C188.619 245.08 193.149 246.972 197.778 247.484C201.604 247.858 205.465 247.343 209.058 245.978C206.433 248.405 203.737 250.616 200.853 252.487C196.274 255.498 191.339 257.732 186.185 258.921C181.003 260.095 175.63 260.153 170.423 259.092C164.932 258.021 159.75 255.739 155.255 252.411C158.162 257.658 163.41 261.546 169.157 263.683C173.713 265.36 178.698 265.94 183.587 265.454L183.301 265.943C178.292 274.345 171.997 281.947 164.39 287.898C156.805 293.822 147.791 297.904 138.226 298.681C128.685 299.531 118.932 297.515 110.062 293.58C101.451 289.766 93.6989 284.133 86.7358 277.624C89.3188 278.336 92.0166 278.534 94.676 278.206C98.0634 277.768 101.307 276.579 104.026 274.586C100.783 275.266 97.6337 275.658 94.5583 275.51C91.5418 275.439 88.5621 274.831 85.7587 273.715C82.9018 272.517 80.3316 270.726 78.2181 268.461C76.1046 266.196 74.4959 263.508 73.4982 260.575C73.2127 263.95 74.3811 267.47 76.3853 270.337C78.4117 273.241 81.2243 275.508 84.4932 276.87C79.2459 280.952 73.6424 284.569 67.6593 287.362C61.6468 290.084 55.231 291.953 48.6741 292.633C45.4073 292.948 42.0906 293.071 38.8239 292.73C35.5466 292.48 32.3114 291.836 29.1885 290.811C27.614 290.349 26.1366 289.669 24.6092 289.063C23.1554 288.286 21.6515 287.63 20.3154 286.682C17.5254 284.981 15.0209 282.797 12.8284 280.343C10.5858 277.915 8.79651 275.122 7.29558 272.182C5.74462 269.245 4.64689 266.087 3.83756 262.856C2.20776 256.379 1.86777 249.645 2.83695 243.037C3.71984 236.433 5.93592 230.068 9.01134 224.167C12.0662 218.266 16.001 212.825 20.389 207.845L21.1983 206.9L20.4831 205.856C14.8054 197.346 11.7087 187.376 11.5659 177.147C11.4452 167.02 14.4735 156.964 19.6002 148.27C21.1668 145.611 22.9379 143.077 24.8976 140.692C20.8657 155.654 23.4879 172.653 33.7207 184.263C51.2963 204.178 86.6651 202.966 102.928 181.932C110.633 202.115 137.223 208.743 157.256 201.506C177.292 194.222 192.124 177.197 206.027 160.828C216.475 181.785 240.607 194.731 263.527 191.647C286.4 188.539 306.41 169.642 311.107 146.619C335.719 154.074 364.051 147.055 382.56 128.938C389.046 122.551 394.267 114.9 397.99 106.544C398.49 107.881 398.943 109.193 399.346 110.553C401.183 116.406 402.186 122.525 402.519 128.67Z" fill="white" fill-opacity="0.2"/>
<path d="M400.038 110.335C398.263 104.399 395.713 98.7233 392.454 93.4541C389.223 88.1748 385.229 83.4034 380.599 79.2953C376.094 75.3134 370.917 72.1321 365.408 69.7247C362.88 53.3322 356.776 37.0869 345.901 24.2349C340.416 17.775 333.691 12.4099 326.272 8.35154C318.808 4.41676 310.747 1.57677 302.401 0.264195C285.753 -2.55225 268.271 0.287739 253.009 7.55399C238.462 14.3523 225.916 24.9176 215.78 37.3783C202.163 28.9495 186.565 23.8022 170.587 23.0018C153.701 22.1748 136.699 25.9624 121.675 33.6642C106.648 41.3366 93.4104 52.6789 83.7279 66.717C74.4281 80.1723 68.442 95.8143 65.8434 111.939C55.9696 113.64 46.3313 117.163 37.8437 122.651C28.7261 128.565 21.1479 136.565 15.736 145.989C10.3944 155.416 7.3661 166.343 7.7222 177.297C8.10505 187.79 11.3916 197.97 17.2163 206.706C8.72282 216.93 2.04516 229.22 0.44712 242.773C0.0223586 246.228 -0.0810889 249.716 0.138105 253.191C0.3294 256.664 0.829709 260.113 1.73615 263.491C2.58222 266.871 3.82288 270.14 5.43255 273.23C7.03059 276.314 8.96414 279.251 11.3244 281.776C13.6612 284.351 16.3069 286.635 19.2646 288.407C20.6949 289.378 22.2694 290.084 23.7968 290.885C25.3949 291.517 26.9694 292.244 28.6145 292.68C31.8812 293.728 35.2451 294.357 38.653 294.625C42.0404 294.94 45.4514 294.893 48.8358 294.578C55.6106 293.945 62.2411 292.1 68.4656 289.307C74.381 286.612 79.9138 283.139 85.0876 279.251C92.1714 285.955 100.041 291.929 108.914 296.156C118.046 300.479 128.232 302.883 138.462 302.227C143.565 301.912 148.644 300.72 153.442 298.851C158.209 296.956 162.718 294.357 166.841 291.323C174.378 285.711 180.723 278.595 185.92 270.799C195.341 277.941 206.457 282.7 218.023 284.74C230.424 286.876 243.494 285.979 255.369 281.414C267.173 276.823 277.789 269.221 286.065 259.651C290.237 254.882 293.897 249.688 296.986 244.156C297.772 242.773 298.463 241.363 299.205 239.956C299.847 238.497 300.565 237.09 301.159 235.63L303.999 228.078C310.079 227.931 316.136 227.254 322.075 226.086C328.491 224.776 334.715 222.76 340.748 220.282C346.808 217.854 352.529 214.646 358.015 211.127C363.501 207.604 368.58 203.451 373.28 198.91C375.688 196.7 377.809 194.222 380.005 191.794C382.033 189.219 384.154 186.741 385.967 184.022C389.781 178.724 392.954 172.947 395.576 166.946C400.8 154.951 403.687 141.813 403.113 128.67C402.828 122.478 401.851 116.309 400.038 110.382V110.335ZM394.814 166.534C392.118 172.435 388.875 178.071 385.014 183.245C383.177 185.917 381.029 188.321 378.954 190.773C376.712 193.08 374.543 195.461 372.109 197.571C367.365 201.897 362.262 205.806 356.799 209.087C351.337 212.366 345.663 215.326 339.701 217.513C333.762 219.723 327.655 221.498 321.431 222.566C315.819 223.499 310.138 223.962 304.449 223.949C306.397 222.28 308.107 220.352 309.532 218.219C312.107 214.355 313.823 209.911 314.253 205.394C312.034 209.329 309.626 212.898 306.766 215.959C303.926 219.043 300.706 221.595 297.13 223.417C293.524 225.24 289.574 226.282 285.538 226.477C281.306 226.699 277.078 225.977 273.16 224.364C276.261 227.666 280.794 229.585 285.42 230.071C290.141 230.554 294.901 229.668 299.131 227.519L300.061 227.01C296.009 237.793 290.117 247.776 282.462 256.178C274.449 265.019 264.528 272.088 253.533 276.24C242.564 280.346 230.495 281.341 218.905 279.325C207.313 277.382 196.127 272.573 186.827 265.263L186.471 264.969C186.827 264.898 187.162 264.851 187.518 264.777C193.602 263.394 199.205 260.307 203.734 256.204C207.434 252.826 210.486 248.771 212.537 244.303C216.33 242.166 219.523 239.079 221.91 235.533C224.485 231.672 226.204 227.228 226.631 222.71C224.415 226.645 222.004 230.215 219.144 233.276C216.307 236.36 213.087 238.911 209.508 240.733C205.903 242.556 201.954 243.599 197.919 243.794C193.687 244.015 189.459 243.293 185.541 241.681C188.64 244.983 193.172 246.902 197.798 247.387C201.625 247.774 205.488 247.258 209.079 245.88C206.529 248.275 203.785 250.452 200.874 252.39C196.297 255.401 191.359 257.635 186.209 258.827C181.106 259.992 175.714 260.063 170.443 259.021C165.149 258 160.022 255.813 155.251 252.317C158.186 257.564 163.409 261.472 169.157 263.588C173.769 265.268 178.703 265.874 183.584 265.36L183.298 265.846C178.266 274.248 171.994 281.85 164.363 287.8C156.779 293.728 147.741 297.807 138.2 298.584C128.662 299.434 118.906 297.418 110.035 293.483C101.448 289.696 93.6723 284.036 86.7092 277.553C89.2931 278.266 91.992 278.464 94.6523 278.136C98.0368 277.697 101.303 276.508 103.976 274.516C100.733 275.172 97.61 275.561 94.5081 275.44C91.4812 275.368 88.4921 274.75 85.685 273.615C82.9128 272.449 80.4118 270.721 78.3393 268.542C76.1438 266.236 74.4679 263.486 73.4245 260.478C73.139 263.853 74.3074 267.376 76.3116 270.24C78.3434 273.139 81.1544 275.404 84.4195 276.773C79.1751 280.855 73.5687 284.475 67.5856 287.268C61.5731 290.011 55.1573 291.879 48.6239 292.536C45.3572 292.854 42.0404 292.998 38.7737 292.659C35.4997 292.386 32.2673 291.742 29.1384 290.741C27.5639 290.302 26.0629 289.599 24.5591 288.992C23.1052 288.212 21.6014 287.559 20.2682 286.609C17.4832 284.873 14.9677 282.738 12.8018 280.272C10.5857 277.844 8.7699 275.048 7.26898 272.111C5.74156 269.171 4.62028 266.04 3.81096 262.811C2.14228 256.372 1.85681 249.547 2.81034 242.967C3.69324 236.36 5.93286 229.997 8.98768 224.096C12.0396 218.193 15.9743 212.754 20.3624 207.775L21.1982 206.85L20.483 205.782C14.8016 197.275 11.7035 187.305 11.5628 177.076C11.4451 166.923 14.4705 156.893 19.5972 148.197C24.7603 139.52 31.9033 132.189 40.4424 126.801C48.8593 121.504 58.4977 118.275 68.3214 116.942C68.2036 117.136 68.0594 117.304 67.9182 117.475C64.6014 122.307 62.6944 127.99 62.1205 133.676C61.5731 139.356 62.2882 145.139 64.4366 150.239C64.5543 144.7 65.0782 139.43 66.3908 134.426C67.6562 129.447 69.6575 124.762 72.4474 120.656C75.2582 116.555 78.8888 113.082 83.1099 110.456C87.5063 107.699 92.4579 105.95 97.61 105.332C92.3862 103.631 86.4002 104.287 81.1764 106.521C77.3181 108.183 73.8437 110.623 70.97 113.687C73.4716 97.998 79.3635 82.8416 88.4279 69.969C97.6336 56.855 110.2 46.2661 124.391 39.1735C138.606 32.1044 154.489 28.5346 170.228 29.338C184.658 30.115 198.873 34.606 211.416 41.9929C207.025 42.3453 202.746 43.5572 198.822 45.5598C193.816 48.1349 189.378 51.8019 186.303 56.39C190.976 53.55 195.629 51.1956 200.471 49.6653C205.288 48.1114 210.247 47.3344 215.135 47.5522C219.977 47.77 224.818 49.059 229.28 51.3192C233.382 53.3558 237.102 56.2723 240.345 60.0599C239.121 60.5728 237.948 61.1984 236.84 61.9287C234 63.8475 231.616 66.4227 230.089 69.4098C232.69 67.3468 235.336 65.5721 238.153 64.2596C240.943 62.9499 243.874 62.0994 246.834 61.8816C249.819 61.6472 252.819 62.0525 255.634 63.0706C258.616 64.1241 261.327 65.8246 263.574 68.0501C262.359 64.8923 259.757 62.2937 256.705 60.6191C253.603 58.9459 250.083 58.204 246.57 58.4825C244.613 58.6531 242.692 59.1112 240.869 59.8421C239.271 54.9362 235.789 50.6365 231.522 47.5522C227.96 45.0154 223.892 43.2758 219.597 42.452C229.28 30.0414 241.514 19.6438 255.443 12.6983C269.678 5.58512 285.92 2.59505 301.71 4.92884C309.603 5.90003 317.304 8.32799 324.485 11.8243C331.685 15.4285 338.161 20.3267 343.588 26.2744C354.295 38.1287 360.734 53.6001 363.715 69.5305C362.067 67.2269 359.965 65.2849 357.538 63.824C354.58 62.0759 351.29 61.0076 347.976 60.9104C350.931 62.3908 353.65 64.0182 356.037 66.0342C358.421 68.0266 360.449 70.331 361.95 72.9326C363.501 75.6393 364.471 78.6403 364.796 81.7433C365.12 84.8464 364.794 87.9831 363.836 90.9525C366.099 88.451 367.244 84.9312 367.388 81.4084C367.501 77.8298 366.618 74.2902 364.837 71.1844C370.249 73.321 375.379 76.3082 379.837 80.1458C384.457 84.1004 388.468 88.7158 391.739 93.8425C395.052 98.9692 397.557 104.602 399.37 110.456C401.206 116.309 402.207 122.431 402.542 128.549C403.019 141.566 400.179 154.633 394.838 166.437L394.814 166.534Z" fill="#141414" fill-opacity="0.2"/>
<path d="M23.9177 221.642C19.1 228.37 16.0481 236.701 16.9545 244.956C17.861 253.215 23.2996 261.181 31.1221 263.539C35.3895 264.825 39.9923 264.413 44.2626 263.15C48.5299 261.885 52.4912 259.774 56.4024 257.635C52.5016 256.464 48.7962 254.72 45.4074 252.461C41.0429 249.571 37.1317 245.686 35.1982 240.73C33.2676 235.801 33.6737 229.729 37.1082 225.721" fill="white" fill-opacity="0.2"/>
</g>
</g>
</g>
</g>
</g>
<defs>
<clipPath id="clip0_5_2723">
<rect width="403.19" height="301.522" fill="white"/>
</clipPath>
<clipPath id="clip1_5_2723">
<rect width="403.19" height="301.52" fill="white"/>
</clipPath>
<clipPath id="clip2_5_2723">
<rect width="403.19" height="301.52" fill="white"/>
</clipPath>
<clipPath id="clip3_5_2723">
<rect width="403.19" height="303.128" fill="white" transform="translate(0 -0.804199)"/>
</clipPath>
</defs>
</svg>
