<svg width="250" height="190" viewBox="0 0 250 190" fill="none" xmlns="http://www.w3.org/2000/svg">
<g clip-path="url(#clip0_5_1547)">
<g clip-path="url(#clip1_5_1547)">
<g clip-path="url(#clip2_5_1547)">
<g clip-path="url(#clip3_5_1547)">
<mask id="mask0_5_1547" style="mask-type:luminance" maskUnits="userSpaceOnUse" x="-1" y="0" width="250" height="190">
<path d="M-0.750732 0.0065918H248.824V189.227H-0.750732V0.0065918Z" fill="white"/>
</mask>
<g mask="url(#mask0_5_1547)">
<path d="M248.413 80.828C248.708 88.9547 246.951 97.1107 243.63 104.481C241.961 108.164 239.955 111.681 237.578 114.925C236.441 116.578 235.112 118.095 233.828 119.625C232.44 121.065 231.098 122.551 229.592 123.871C226.669 126.554 223.494 129.009 220.113 131.056C216.733 133.118 213.22 134.968 209.53 136.331C205.853 137.711 202.073 138.819 198.221 139.485C194.736 140.062 191.223 140.349 187.711 140.349C188.909 139.298 189.966 138.096 190.854 136.772C192.449 134.361 193.511 131.586 193.777 128.768C192.389 131.208 190.913 133.436 189.141 135.363C187.384 137.271 185.393 138.879 183.178 140.031C180.946 141.161 178.502 141.812 176.004 141.941C173.383 142.079 170.765 141.629 168.342 140.623C170.26 142.685 173.066 143.868 175.945 144.186C178.87 144.48 181.817 143.921 184.432 142.577L185.008 142.259C182.484 148.977 178.837 155.222 174.098 160.468C169.139 165.987 162.998 170.398 156.193 172.991C149.402 175.552 141.931 176.174 134.757 174.916C127.583 173.702 120.673 170.716 114.902 166.139L114.68 165.956C114.902 165.91 115.107 165.881 115.316 165.835C119.079 164.971 122.549 163.046 125.338 160.483C127.635 158.398 129.487 155.871 130.786 153.055C133.116 151.696 135.105 149.825 136.602 147.582C138.197 145.171 139.261 142.396 139.51 139.576C138.138 142.033 136.646 144.261 134.891 146.171C133.134 148.081 131.139 149.688 128.925 150.841C126.698 151.984 124.252 152.635 121.751 152.75C119.131 152.888 116.513 152.437 114.089 151.432C116.009 153.493 118.813 154.678 121.678 154.994C124.046 155.228 126.437 154.906 128.659 154.055C127.036 155.572 125.368 156.95 123.581 158.118C120.748 159.997 117.693 161.392 114.502 162.136C111.295 162.868 107.967 162.904 104.744 162.242C101.467 161.605 98.2928 160.24 95.3567 158.072C97.1575 161.348 100.405 163.773 103.963 165.108C106.782 166.153 109.868 166.517 112.894 166.214L112.716 166.517C109.617 171.763 105.718 176.508 101.01 180.222C96.3158 183.922 90.7338 186.468 84.8158 186.953C78.9108 187.484 72.8721 186.225 67.3815 183.77C62.0523 181.389 57.2533 177.872 52.9436 173.808C54.5418 174.253 56.2123 174.377 57.8585 174.172C59.9546 173.9 61.9626 173.158 63.646 171.915C61.6396 172.339 59.6903 172.582 57.7851 172.49C55.8814 172.43 54.0349 172.066 52.3368 171.368C50.6145 170.638 49.0617 169.559 47.776 168.2C46.4124 166.763 45.3797 165.045 44.7501 163.166C44.5723 165.274 45.2965 167.471 46.5363 169.261C47.7863 171.071 49.5278 172.486 51.5555 173.339C48.3078 175.887 44.8382 178.146 41.1321 179.888C37.4129 181.586 33.4426 182.754 29.3825 183.178C27.3598 183.375 25.3077 183.451 23.285 183.238C21.2559 183.083 19.2533 182.681 17.3213 182.041C16.3475 181.754 15.4324 181.328 14.4863 180.95C13.5859 180.465 12.6561 180.056 11.8291 179.464C10.1016 178.404 8.55198 177.038 7.19482 175.507C5.80666 173.991 4.69907 172.247 3.76928 170.414C2.81013 168.579 2.12992 166.608 1.62914 164.592C0.620129 160.548 0.409578 156.346 1.00928 152.221C1.5541 148.097 2.92758 144.125 4.83283 140.44C6.72177 136.757 9.15716 133.361 11.8731 130.252L12.3755 129.661L11.9335 129.009C8.43453 123.765 6.48524 117.411 6.41184 111.09C6.33843 104.768 8.21269 98.4907 11.387 93.0637C12.3553 91.4044 13.451 89.8229 14.6641 88.3332V88.3169C17.3761 84.9407 20.6281 82.0365 24.2882 79.7221C29.4999 76.4172 35.449 74.3864 41.5464 73.5675C41.4583 73.6736 41.3686 73.7796 41.2952 73.9003C39.2431 76.9017 38.0491 80.4643 37.6935 84.0138C37.3672 87.56 37.7963 91.1682 39.1404 94.3524C39.2138 90.8942 39.5384 87.6057 40.336 84.4836C41.119 81.3745 42.3587 78.4334 44.0862 75.8871C45.8215 73.3309 48.0683 71.1625 50.6844 69.5189C53.3994 67.7979 56.4668 66.7097 59.6593 66.3348C56.4263 65.2582 52.7218 65.6823 49.4887 67.0639C47.1035 68.0998 44.9577 69.617 43.1858 71.5204C44.7354 61.7266 48.3812 52.2656 53.9909 44.2303C59.705 36.0449 67.4842 29.4352 76.2683 25.0081C85.0523 20.581 94.8967 18.3675 104.641 18.852C113.572 19.3364 122.371 22.1421 130.137 26.7503C127.418 26.9679 124.768 27.7202 122.34 28.9638C119.241 30.5705 116.51 32.8608 114.592 35.7252C117.484 33.952 120.363 32.4954 123.36 31.5264C126.341 30.5412 129.411 30.0714 132.439 30.2068C135.45 30.3438 138.432 31.148 141.194 32.5574C143.732 33.8297 146.035 35.6501 148.045 38.0007C147.289 38.3171 146.567 38.7078 145.888 39.167C144.131 40.3659 142.64 41.9564 141.696 43.8225C143.304 42.5338 144.942 41.4262 146.684 40.6237C148.413 39.8048 150.212 39.273 152.059 39.1376C153.907 38.99 155.766 39.2432 157.507 39.8798C159.355 40.5405 161.033 41.6017 162.422 42.9873C161.668 41.0168 160.045 39.3791 158.17 38.3644C156.25 37.3245 154.073 36.8563 151.896 37.0154C150.686 37.1306 149.498 37.4162 148.368 37.8637C147.394 34.8166 145.239 32.1169 142.582 30.2068C140.387 28.613 137.866 27.526 135.201 27.0243C141.194 19.2614 148.766 12.7871 157.388 8.4367C166.216 3.99492 176.255 2.14513 186.027 3.60017C190.927 4.20698 195.682 5.72237 200.126 7.90656C204.588 10.1551 208.596 13.2076 211.95 16.9108C218.563 24.31 222.565 33.952 224.424 43.9122C223.402 42.48 222.102 41.2684 220.601 40.3496C218.785 39.2584 216.733 38.5912 214.681 38.5308C216.511 39.4557 218.209 40.472 219.671 41.7296C221.132 42.9726 222.402 44.413 223.331 46.0507C224.246 47.6574 224.852 49.4925 225.074 51.4011C225.305 53.3858 225.108 55.3969 224.498 57.2995C225.901 55.7531 226.608 53.5396 226.684 51.357C226.723 50.2653 226.614 49.1732 226.359 48.1109C226.086 47.0148 225.669 45.9599 225.118 44.9741C228.47 46.3084 231.642 48.1729 234.419 50.5691C237.287 53.031 239.766 55.9134 241.771 59.1183C243.341 61.5958 244.642 64.2337 245.653 66.9872C245.963 67.8208 246.243 68.6396 246.494 69.4879C247.631 73.1418 248.251 76.9637 248.457 80.7987L248.413 80.828Z" fill="white" fill-opacity="0.2"/>
<path d="M248.413 80.828C248.708 88.9547 246.951 97.1107 243.63 104.481C241.961 108.164 239.955 111.681 237.578 114.925C236.441 116.578 235.112 118.093 233.828 119.625C232.44 121.065 231.097 122.551 229.59 123.869C226.669 126.552 223.494 129.009 220.113 131.056C216.733 133.118 213.219 134.968 209.528 136.331C205.853 137.711 202.073 138.819 198.22 139.485C194.736 140.062 191.223 140.349 187.711 140.349C188.909 139.298 189.966 138.096 190.854 136.772C192.449 134.361 193.511 131.586 193.777 128.766C192.389 131.208 190.913 133.436 189.141 135.361C187.384 137.271 185.393 138.879 183.177 140.031C180.946 141.161 178.502 141.812 176.003 141.941C173.383 142.079 170.765 141.628 168.342 140.622C170.26 142.685 173.066 143.868 175.945 144.186C178.87 144.48 181.817 143.921 184.432 142.577L185.008 142.259C182.484 148.977 178.837 155.222 174.098 160.468C169.139 165.987 162.998 170.398 156.192 172.99C149.402 175.552 141.931 176.174 134.757 174.916C127.583 173.702 120.673 170.716 114.902 166.137L114.68 165.956C114.902 165.91 115.107 165.879 115.316 165.835C119.079 164.971 122.549 163.046 125.338 160.483C127.635 158.398 129.487 155.871 130.786 153.055C133.116 151.697 135.105 149.825 136.602 147.582C138.197 145.171 139.26 142.395 139.51 139.576C138.138 142.033 136.646 144.261 134.89 146.171C133.134 148.081 131.139 149.688 128.925 150.841C126.698 151.984 124.252 152.635 121.751 152.75C119.131 152.888 116.513 152.437 114.089 151.432C116.009 153.493 118.813 154.678 121.678 154.994C124.046 155.228 126.437 154.906 128.659 154.055C127.036 155.572 125.367 156.95 123.581 158.116C120.748 159.997 117.693 161.392 114.502 162.136C111.294 162.868 107.967 162.904 104.744 162.242C101.467 161.605 98.2927 160.24 95.3549 158.072C97.1574 161.346 100.405 163.773 103.963 165.106C106.782 166.153 109.868 166.517 112.894 166.214L112.716 166.517C109.617 171.763 105.718 176.508 101.01 180.222C96.3157 183.92 90.7337 186.468 84.8157 186.953C78.9107 187.484 72.872 186.225 67.3814 183.77C62.0522 181.389 57.2532 177.872 52.9435 173.808C54.5417 174.253 56.2122 174.377 57.8584 174.172C59.9545 173.9 61.9625 173.158 63.6459 171.915C61.6395 172.339 59.6902 172.58 57.785 172.49C55.9164 172.445 54.0711 172.065 52.3367 171.368C50.6139 170.638 49.0611 169.559 47.7759 168.199C46.412 166.762 45.3792 165.045 44.75 163.166C44.5722 165.274 45.2964 167.471 46.5362 169.261C47.7862 171.071 49.5277 172.486 51.5554 173.339C48.3077 175.887 44.8381 178.144 41.132 179.888C37.4128 181.586 33.4425 182.754 29.3824 183.178C27.3597 183.375 25.3076 183.451 23.2849 183.238C21.2558 183.083 19.2532 182.681 17.3213 182.041C16.3474 181.752 15.4323 181.328 14.4862 180.95C13.5858 180.464 12.656 180.054 11.829 179.464C10.1015 178.402 8.55188 177.038 7.19472 175.507C5.80656 173.991 4.69897 172.247 3.76918 170.412C2.81003 168.579 2.12982 166.608 1.62904 164.591C0.619823 160.546 0.409271 156.344 1.00918 152.219C1.554 148.097 2.92748 144.124 4.83273 140.44C6.72167 136.756 9.15706 133.361 11.873 130.252L12.3754 129.661L11.9334 129.009C8.43444 123.763 6.48514 117.411 6.41174 111.09C6.33833 104.768 8.21259 98.4907 11.3869 93.0637C12.3552 91.4044 13.4509 89.8229 14.664 88.3332C12.1683 97.6719 13.7929 108.285 20.1253 115.532C31.0054 127.962 52.8995 127.205 62.9673 114.075C67.7353 126.675 84.1958 130.813 96.5963 126.295C108.997 121.747 118.177 111.12 126.785 100.902C133.251 113.984 148.191 122.065 162.378 120.14C176.535 118.199 188.921 106.405 191.828 92.0328C207.063 96.6866 224.602 92.3052 236.056 80.996C240.072 77.0077 243.305 72.2332 245.609 67.0166C245.919 67.8518 246.199 68.669 246.45 69.5189C247.586 73.1728 248.207 76.9931 248.413 80.828Z" fill="white" fill-opacity="0.2"/>
<path d="M246.878 69.3835C245.78 65.6808 244.202 62.138 242.183 58.8459C240.187 55.5541 237.714 52.5759 234.846 50.008C232.057 47.522 228.853 45.5352 225.442 44.0345C223.878 33.8003 220.098 23.6575 213.366 15.6385C209.972 11.6061 205.809 8.25562 201.217 5.72399C196.596 3.26739 191.608 1.49264 186.44 0.675403C176.136 -1.08467 165.314 0.690083 155.866 5.22321C146.862 9.46761 139.097 16.0626 132.822 23.8402C124.394 18.5795 114.739 15.3661 104.847 14.8653C94.3959 14.3498 83.8697 16.7151 74.5702 21.5206C65.2691 26.3114 57.0771 33.3909 51.0825 42.1554C45.3243 50.5528 41.6215 60.3172 40.0115 70.3834C33.8993 71.4437 27.9356 73.6425 22.6799 77.0697C17.0265 80.7709 12.3352 85.7647 8.99405 91.638C5.6876 97.5218 3.81334 104.343 4.03518 111.18C4.26831 117.724 6.30073 124.078 9.90916 129.542C4.65504 135.922 0.521563 143.594 -0.468579 152.055C-0.731393 154.212 -0.795279 156.389 -0.659431 158.558C-0.552066 160.729 -0.220804 162.883 0.329081 164.985C0.85232 167.094 1.6204 169.134 2.61766 171.065C3.60618 172.991 4.80348 174.825 6.26341 176.402C7.71029 178.009 9.34966 179.434 11.1799 180.54C12.0656 181.147 13.0394 181.586 13.9855 182.087C14.9741 182.482 15.9479 182.937 16.9658 183.209C18.9885 183.862 21.0699 184.255 23.1807 184.421C25.2784 184.618 27.3892 184.589 29.4853 184.392C33.6775 183.997 37.7816 182.845 41.6345 181.102C45.2966 179.418 48.7205 177.25 51.9242 174.825C56.3088 179.009 61.1796 182.739 66.6719 185.377C72.3257 188.075 78.6286 189.576 84.9626 189.166C88.1223 188.971 91.2656 188.227 94.2328 187.06C97.1852 185.878 99.9746 184.255 102.531 182.359C107.196 178.857 111.122 174.415 114.341 169.549C120.171 174.006 127.051 176.978 134.21 178.252C141.887 179.586 149.976 179.025 157.328 176.174C164.636 173.309 171.205 168.564 176.328 162.591C178.913 159.611 181.179 156.369 183.089 152.918C183.576 152.053 184.005 151.174 184.461 150.295C184.861 149.386 185.303 148.507 185.672 147.597L187.429 142.882C191.187 142.788 194.931 142.371 198.619 141.638C202.591 140.821 206.443 139.561 210.179 138.016C213.927 136.499 217.47 134.498 220.867 132.299C224.261 130.102 227.406 127.508 230.315 124.673C231.806 123.293 233.119 121.747 234.477 120.231C235.732 118.625 237.047 117.078 238.167 115.38C240.529 112.075 242.493 108.467 244.118 104.722C247.351 97.2331 249.137 89.0297 248.781 80.8296C248.605 76.9637 248 73.1124 246.878 69.4128V69.3835ZM243.645 104.463C241.976 108.147 239.968 111.664 237.577 114.894C236.441 116.561 235.112 118.062 233.828 119.592C232.44 121.034 231.096 122.518 229.59 123.838C226.653 126.536 223.495 128.976 220.113 131.025C216.733 133.071 213.22 134.92 209.528 136.286C205.853 137.664 202.073 138.772 198.221 139.439C194.736 140.029 191.223 140.303 187.709 140.303C188.916 139.26 189.974 138.056 190.854 136.725C192.448 134.314 193.511 131.541 193.777 128.72C192.404 131.175 190.913 133.405 189.141 135.315C187.384 137.24 185.391 138.832 183.178 139.969C180.948 141.106 178.503 141.757 176.004 141.879C173.383 142.018 170.765 141.567 168.342 140.561C170.26 142.621 173.066 143.82 175.928 144.124C178.853 144.425 181.801 143.872 184.417 142.532L184.993 142.214C182.484 148.944 178.837 155.175 174.098 160.421C169.138 165.939 162.998 170.35 156.193 172.944C149.402 175.505 141.931 176.128 134.757 174.869C127.583 173.657 120.658 170.654 114.902 166.091L114.68 165.908C114.9 165.863 115.107 165.833 115.329 165.788C119.094 164.923 122.562 162.998 125.368 160.437C127.656 158.328 129.545 155.797 130.816 153.007C133.162 151.673 135.14 149.748 136.616 147.535C138.212 145.124 139.275 142.349 139.54 139.53C138.166 141.985 136.675 144.213 134.904 146.125C133.147 148.05 131.155 149.642 128.94 150.779C126.711 151.916 124.265 152.566 121.766 152.688C119.146 152.826 116.528 152.375 114.104 151.37C116.022 153.431 118.828 154.63 121.691 154.932C124.06 155.174 126.453 154.852 128.674 153.993C127.051 155.51 125.382 156.873 123.596 158.054C120.761 159.935 117.706 161.33 114.517 162.074C111.309 162.804 107.983 162.845 104.759 162.194C101.482 161.558 98.3075 160.193 95.355 158.01C97.1706 161.286 100.404 163.726 103.961 165.046C106.782 166.091 109.866 166.47 112.894 166.152L112.716 166.455C109.6 171.701 105.718 176.446 100.994 180.16C96.3011 183.86 90.7061 186.406 84.7995 186.891C78.8945 187.422 72.8574 186.163 67.3652 183.708C62.0507 181.343 57.2386 177.81 52.929 173.763C54.5272 174.207 56.1976 174.33 57.8438 174.127C59.9399 173.852 61.9626 173.11 63.6166 171.867C61.6086 172.277 59.674 172.52 57.7557 172.443C55.8505 172.383 54.0056 172.019 52.2928 171.306C50.5749 170.576 49.027 169.497 47.7466 168.138C46.3866 166.696 45.35 164.98 44.7061 163.104C44.5283 165.212 45.2509 167.409 46.4922 169.199C47.7457 171.006 49.4862 172.42 51.5115 173.277C48.2637 175.825 44.7941 178.082 41.088 179.826C37.3689 181.54 33.3969 182.707 29.3515 183.116C27.3288 183.313 25.2784 183.405 23.2557 183.193C21.2286 183.022 19.2277 182.619 17.292 181.994C16.3165 181.721 15.3868 181.283 14.457 180.903C13.5565 180.418 12.6267 180.009 11.7997 179.417C10.0744 178.331 8.51746 176.998 7.17852 175.461C5.80667 173.944 4.68277 172.2 3.75298 170.367C2.81824 168.52 2.10062 166.571 1.61447 164.559C0.580287 160.542 0.402485 156.281 0.994613 152.174C1.53944 148.05 2.92759 144.078 4.81653 140.393C6.7071 136.71 9.14249 133.314 11.8585 130.206L12.3755 129.629L11.9319 128.963C8.43455 123.717 6.48526 117.38 6.41185 111.043C6.33845 104.706 8.2127 98.4434 11.387 93.018C14.5741 87.6099 18.9955 83.0326 24.2899 79.6601C29.5 76.3552 35.4636 74.3391 41.5464 73.5055C41.473 73.6262 41.3833 73.7323 41.2952 73.8383C39.2432 76.856 38.0622 80.4023 37.7066 83.9518C37.3689 87.498 37.811 91.1063 39.1404 94.2904C39.2138 90.8322 39.5384 87.5437 40.3507 84.4216C41.1337 81.3125 42.3734 78.3861 44.1009 75.8251C45.8362 73.2689 48.0829 71.1004 50.6991 69.4569C53.4163 67.7377 56.482 66.645 59.674 66.2581C56.441 65.1978 52.7365 65.6056 49.5034 67.0003C47.1113 68.0398 44.9599 69.5626 43.1841 71.473C44.7338 61.6793 48.3812 52.2199 53.9909 44.183C59.6887 35.9976 67.4696 29.3879 76.2536 24.9608C85.0507 20.5484 94.882 18.3202 104.627 18.8209C113.558 19.3054 122.356 22.1111 130.123 26.7192C127.39 26.9313 124.718 27.7192 122.325 28.9475C119.226 30.5542 116.481 32.8444 114.577 35.7088C117.469 33.9357 120.348 32.4644 123.345 31.5101C126.327 30.5395 129.397 30.0551 132.424 30.1905C135.421 30.3275 138.417 31.13 141.179 32.5394C143.717 33.815 146.02 35.6338 148.028 37.999C147.27 38.3181 146.543 38.7087 145.859 39.1654C144.1 40.3643 142.624 41.971 141.68 43.8355C143.29 42.5469 144.927 41.4409 146.671 40.622C148.397 39.8032 150.213 39.2714 152.043 39.136C153.891 38.9896 155.749 39.2427 157.491 39.8782C159.34 40.5366 161.019 41.5981 162.407 42.9856C161.654 41.0151 160.045 39.3937 158.155 38.3465C156.237 37.3032 154.057 36.8401 151.881 37.0138C150.671 37.1035 149.475 37.4216 148.353 37.862C147.364 34.8003 145.208 32.1169 142.565 30.1905C140.364 28.6088 137.846 27.5231 135.184 27.008C141.179 19.2597 148.751 12.7708 157.374 8.43505C166.185 3.99328 176.238 2.12881 186.013 3.58384C190.898 4.19065 195.666 5.70604 200.109 7.89023C204.524 10.1331 208.569 13.1656 211.934 16.9108C218.563 24.3083 222.548 33.9651 224.395 43.9122C223.376 42.4761 222.075 41.2632 220.571 40.348C218.741 39.2567 216.704 38.5895 214.652 38.5292C216.482 39.4541 218.165 40.4703 219.642 41.728C221.118 42.971 222.372 44.4113 223.302 46.0344C224.237 47.6824 224.829 49.5022 225.044 51.3847C225.274 53.3694 225.078 55.3805 224.468 57.2832C225.871 55.7221 226.579 53.5232 226.667 51.3244C226.738 49.092 226.192 46.8833 225.088 44.9415C228.439 46.2758 231.613 48.1419 234.375 50.5365C237.237 53.0089 239.719 55.8902 241.74 59.0873C243.792 62.2845 245.343 65.803 246.465 69.4569C247.6 73.1108 248.22 76.9311 248.428 80.7514C248.723 88.878 246.966 97.034 243.659 104.402L243.645 104.463Z" fill="#141414" fill-opacity="0.2"/>
<path d="M14.0573 138.865C11.0755 143.063 9.18656 148.264 9.7477 153.418C10.3072 158.573 13.674 163.545 18.5154 165.016C21.158 165.819 24.0077 165.561 26.6503 164.773C29.2928 163.985 31.7429 162.666 34.1636 161.331C31.7471 160.599 29.4534 159.511 27.3582 158.102C24.6569 156.299 22.2362 153.873 21.0405 150.781C19.8449 147.703 20.0944 143.913 22.2215 141.411" fill="white" fill-opacity="0.2"/>
</g>
</g>
</g>
</g>
</g>
<defs>
<clipPath id="clip0_5_1547">
<rect width="249.59" height="189.22" fill="white"/>
</clipPath>
<clipPath id="clip1_5_1547">
<rect width="249.6" height="189.22" fill="white"/>
</clipPath>
<clipPath id="clip2_5_1547">
<rect width="249.6" height="189.22" fill="white"/>
</clipPath>
<clipPath id="clip3_5_1547">
<rect width="251.206" height="189.22" fill="white" transform="translate(-0.807861)"/>
</clipPath>
</defs>
</svg>
