<svg width="183" height="189" viewBox="0 0 183 189" fill="none" xmlns="http://www.w3.org/2000/svg">
<g clip-path="url(#clip0_5_1559)">
<g clip-path="url(#clip1_5_1559)">
<g clip-path="url(#clip2_5_1559)">
<g clip-path="url(#clip3_5_1559)">
<mask id="mask0_5_1559" style="mask-type:luminance" maskUnits="userSpaceOnUse" x="-1" y="0" width="250" height="189">
<path d="M-0.253418 0.0065918H248.332V188.477H-0.253418V0.0065918Z" fill="white"/>
</mask>
<g mask="url(#mask0_5_1559)">
<path d="M247.923 80.5075C248.217 88.602 246.467 96.7257 243.159 104.066C241.497 107.735 239.498 111.238 237.131 114.47C235.999 116.115 234.674 117.626 233.396 119.15C232.013 120.585 230.676 122.065 229.176 123.38C226.265 126.052 223.103 128.498 219.735 130.537C216.368 132.59 212.869 134.433 209.194 135.791C205.531 137.166 201.767 138.269 197.929 138.932C194.459 139.507 190.959 139.793 187.461 139.793C188.655 138.746 189.707 137.548 190.592 136.23C192.181 133.828 193.239 131.065 193.503 128.257C192.121 130.688 190.65 132.907 188.886 134.826C187.136 136.727 185.152 138.329 182.946 139.476C180.723 140.602 178.289 141.25 175.8 141.378C173.19 141.516 170.583 141.068 168.169 140.066C170.08 142.119 172.874 143.297 175.742 143.614C178.655 143.907 181.591 143.351 184.195 142.012L184.769 141.695C182.255 148.386 178.622 154.607 173.903 159.832C168.963 165.329 162.846 169.722 156.068 172.305C149.304 174.856 141.863 175.475 134.717 174.223C127.571 173.014 120.689 170.039 114.941 165.48L114.72 165.298C114.941 165.252 115.145 165.223 115.353 165.178C119.102 164.317 122.558 162.399 125.336 159.847C127.623 157.77 129.469 155.253 130.762 152.448C133.083 151.095 135.064 149.231 136.555 146.997C138.144 144.595 139.203 141.832 139.452 139.023C138.085 141.469 136.599 143.689 134.85 145.591C133.1 147.494 131.113 149.094 128.909 150.243C126.691 151.382 124.254 152.03 121.763 152.144C119.153 152.282 116.545 151.833 114.132 150.831C116.044 152.885 118.837 154.064 121.69 154.38C124.049 154.612 126.43 154.292 128.644 153.444C127.027 154.955 125.365 156.328 123.586 157.491C120.764 159.363 117.721 160.752 114.543 161.493C111.348 162.223 108.033 162.259 104.823 161.598C101.559 160.965 98.3976 159.605 95.4731 157.446C97.2668 160.708 100.502 163.124 104.045 164.453C106.853 165.495 109.927 165.857 112.941 165.555L112.764 165.857C109.677 171.082 105.793 175.808 101.104 179.508C96.4284 183.193 90.8686 185.729 84.974 186.212C79.0924 186.741 73.0776 185.487 67.6088 183.042C62.3007 180.67 57.5207 177.167 53.2282 173.119C54.82 173.563 56.4838 173.686 58.1235 173.482C60.2113 173.21 62.2114 172.471 63.8881 171.233C61.8897 171.656 59.9481 171.898 58.0504 171.807C56.1543 171.747 54.3151 171.384 52.6238 170.689C50.9082 169.961 49.3616 168.887 48.081 167.534C46.7228 166.102 45.6942 164.391 45.0671 162.52C44.89 164.619 45.6114 166.807 46.8462 168.59C48.0913 170.393 49.8259 171.802 51.8455 172.651C48.6107 175.189 45.1548 177.44 41.4634 179.175C37.759 180.866 33.8044 182.029 29.7604 182.452C27.7457 182.649 25.7018 182.723 23.6871 182.512C21.666 182.357 19.6713 181.957 17.7471 181.319C16.7771 181.034 15.8656 180.609 14.9233 180.233C14.0264 179.75 13.1003 179.342 12.2766 178.752C10.556 177.696 9.01246 176.336 7.66068 174.811C6.27802 173.301 5.17482 171.565 4.24872 169.738C3.29337 167.911 2.61585 165.948 2.11706 163.94C1.11205 159.911 0.902333 155.726 1.49966 151.618C2.04232 147.51 3.41035 143.554 5.30805 139.884C7.1895 136.215 9.61524 132.832 12.3204 129.736L12.8209 129.147L12.3805 128.498C8.89548 123.274 6.95391 116.946 6.8808 110.65C6.80769 104.352 8.67451 98.1002 11.8363 92.6947C12.8007 91.042 13.892 89.4667 15.1004 87.983V87.9667C17.8016 84.6039 21.0407 81.7112 24.6863 79.406C29.8774 76.1142 35.8028 74.0914 41.8761 73.2758C41.7884 73.3814 41.699 73.487 41.6259 73.6073C39.582 76.5968 38.3927 80.1452 38.0385 83.6807C37.7135 87.2128 38.1408 90.8068 39.4796 93.9783C39.5527 90.5338 39.876 87.2583 40.6705 84.1486C41.4504 81.0518 42.6852 78.1224 44.4058 75.5862C46.1343 73.0401 48.3721 70.8803 50.9779 69.2432C53.6822 67.5291 56.7373 66.4452 59.9172 66.0717C56.697 64.9994 53.0072 65.4218 49.787 66.798C47.4112 67.8298 45.2739 69.3409 43.509 71.2368C45.0525 61.4818 48.6838 52.0583 54.2713 44.0548C59.9627 35.9019 67.7111 29.3184 76.4604 24.9089C85.2096 20.4993 95.0149 18.2946 104.721 18.7771C113.617 19.2597 122.38 22.0542 130.116 26.6441C127.407 26.8609 124.768 27.6102 122.35 28.8489C119.263 30.4493 116.543 32.7304 114.632 35.5834C117.513 33.8173 120.38 32.3664 123.365 31.4014C126.335 30.42 129.393 29.9521 132.408 30.0869C135.408 30.2234 138.378 31.0244 141.128 32.4282C143.656 33.6955 145.951 35.5087 147.952 37.8499C147.2 38.1651 146.48 38.5542 145.804 39.0116C144.054 40.2058 142.569 41.7899 141.629 43.6487C143.231 42.3651 144.862 41.2619 146.597 40.4625C148.319 39.6469 150.111 39.1172 151.951 38.9824C153.792 38.8353 155.643 39.0875 157.377 39.7217C159.217 40.3797 160.889 41.4367 162.273 42.8168C161.522 40.8541 159.905 39.2229 158.037 38.2123C156.125 37.1764 153.957 36.7101 151.788 36.8686C150.583 36.9833 149.4 37.2678 148.274 37.7135C147.304 34.6785 145.158 31.9895 142.511 30.0869C140.325 28.4994 137.814 27.4168 135.159 26.9171C141.128 19.1849 148.67 12.7363 157.259 8.40314C166.052 3.97897 176.051 2.13651 185.784 3.58578C190.665 4.19019 195.401 5.69957 199.827 7.8751C204.271 10.1147 208.264 13.1551 211.605 16.8437C218.191 24.2135 222.177 33.8173 224.029 43.738C223.011 42.3115 221.716 41.1047 220.221 40.1896C218.412 39.1026 216.368 38.4381 214.325 38.378C216.148 39.2992 217.839 40.3114 219.295 41.5641C220.75 42.8022 222.014 44.2368 222.941 45.868C223.852 47.4684 224.455 49.2963 224.676 51.1972C224.906 53.174 224.71 55.1772 224.102 57.0723C225.5 55.532 226.205 53.3272 226.279 51.1533C226.319 50.0659 226.21 48.9782 225.956 47.9201C225.685 46.8283 225.269 45.7776 224.72 44.7957C228.058 46.1248 231.219 47.9818 233.984 50.3686C236.841 52.8207 239.31 55.6917 241.307 58.8839C242.871 61.3515 244.167 63.979 245.174 66.7216C245.482 67.5518 245.762 68.3675 246.012 69.2123C247.144 72.8518 247.762 76.6585 247.966 80.4783L247.923 80.5075Z" fill="white" fill-opacity="0.2"/>
<path d="M247.923 80.5077C248.217 88.6021 246.467 96.7258 243.159 104.066C241.497 107.735 239.498 111.238 237.131 114.47C235.999 116.115 234.675 117.625 233.396 119.151C232.013 120.585 230.676 122.065 229.175 123.378C226.265 126.051 223.103 128.498 219.735 130.537C216.369 132.59 212.869 134.433 209.192 135.791C205.532 137.166 201.767 138.269 197.929 138.932C194.459 139.507 190.959 139.793 187.461 139.793C188.655 138.746 189.707 137.548 190.592 136.23C192.181 133.828 193.239 131.065 193.504 128.256C192.121 130.688 190.651 132.907 188.886 134.824C187.136 136.727 185.152 138.329 182.946 139.476C180.723 140.602 178.289 141.25 175.8 141.379C173.19 141.516 170.583 141.067 168.169 140.064C170.08 142.119 172.874 143.297 175.742 143.614C178.655 143.907 181.591 143.351 184.195 142.012L184.769 141.695C182.256 148.386 178.623 154.607 173.903 159.832C168.964 165.329 162.846 169.722 156.068 172.304C149.304 174.856 141.863 175.475 134.717 174.223C127.572 173.014 120.689 170.039 114.941 165.478L114.72 165.298C114.941 165.253 115.146 165.222 115.354 165.178C119.102 164.317 122.558 162.4 125.336 159.847C127.623 157.77 129.469 155.254 130.763 152.448C133.083 151.095 135.064 149.231 136.555 146.997C138.144 144.596 139.203 141.83 139.452 139.023C138.085 141.47 136.599 143.689 134.85 145.592C133.101 147.494 131.114 149.094 128.909 150.243C126.691 151.382 124.254 152.03 121.763 152.144C119.153 152.282 116.546 151.833 114.132 150.831C116.044 152.885 118.837 154.065 121.69 154.38C124.049 154.613 126.43 154.292 128.644 153.444C127.027 154.955 125.365 156.328 123.586 157.49C120.764 159.363 117.721 160.752 114.543 161.493C111.348 162.223 108.034 162.259 104.824 161.598C101.56 160.965 98.3978 159.605 95.4716 157.446C97.2669 160.707 100.502 163.124 104.045 164.452C106.853 165.495 109.927 165.857 112.941 165.555L112.764 165.857C109.677 171.082 105.794 175.808 101.105 179.508C96.4286 183.191 90.8687 185.729 84.9741 186.212C79.0926 186.741 73.0778 185.487 67.6089 183.042C62.3009 180.67 57.5209 177.167 53.2283 173.12C54.8201 173.563 56.484 173.686 58.1237 173.482C60.2115 173.211 62.2115 172.471 63.8882 171.233C61.8898 171.656 59.9482 171.896 58.0505 171.807C56.1894 171.762 54.3514 171.383 52.6239 170.689C50.908 169.962 49.3612 168.887 48.0811 167.532C46.7227 166.101 45.694 164.39 45.0672 162.52C44.8901 164.619 45.6115 166.807 46.8463 168.59C48.0914 170.393 49.826 171.802 51.8457 172.652C48.6108 175.189 45.155 177.438 41.4636 179.175C37.7592 180.866 33.8045 182.03 29.7606 182.452C27.7459 182.649 25.702 182.723 23.6873 182.512C21.6662 182.357 19.6715 181.957 17.7472 181.32C16.7772 181.032 15.8658 180.61 14.9234 180.233C14.0266 179.748 13.1005 179.341 12.2767 178.753C10.5561 177.695 9.01261 176.337 7.66082 174.811C6.27817 173.302 5.17497 171.565 4.24886 169.737C3.29352 167.911 2.616 165.948 2.1172 163.938C1.11199 159.91 0.90227 155.725 1.4998 151.616C2.04247 147.51 3.4105 143.552 5.3082 139.884C7.18965 136.214 9.61539 132.832 12.3206 129.736L12.821 129.148L12.3807 128.498C8.89563 123.272 6.95406 116.946 6.88095 110.65C6.80783 104.352 8.67466 98.1004 11.8364 92.6948C12.8009 91.0422 13.8922 89.4668 15.1005 87.9831C12.6147 97.2847 14.2329 107.855 20.5401 115.074C31.3772 127.455 53.1845 126.701 63.2124 113.623C67.9615 126.173 84.3567 130.295 96.708 125.794C109.059 121.264 118.203 110.679 126.777 100.502C133.218 113.532 148.099 121.581 162.229 119.664C176.33 117.73 188.667 105.984 191.562 91.668C206.737 96.3034 224.206 91.9393 235.615 80.675C239.615 76.7025 242.836 71.9469 245.13 66.751C245.438 67.5828 245.718 68.3968 245.968 69.2433C247.099 72.8828 247.718 76.6879 247.923 80.5077Z" fill="white" fill-opacity="0.2"/>
<path d="M246.394 69.1085C245.301 65.4205 243.729 61.8918 241.718 58.6127C239.729 55.3339 237.267 52.3675 234.41 49.8098C231.631 47.3337 228.44 45.3548 225.043 43.86C223.485 33.6664 219.72 23.5637 213.015 15.5765C209.634 11.5601 205.488 8.22292 200.914 5.70132C196.311 3.25446 191.343 1.48674 186.195 0.672748C175.932 -1.08035 165.153 0.68737 155.743 5.20253C146.774 9.4301 139.041 15.9989 132.79 23.7457C124.395 18.5059 114.778 15.3052 104.926 14.8064C94.5162 14.293 84.0317 16.6488 74.7691 21.4353C65.5048 26.2072 57.3453 33.2586 51.3744 41.9883C45.6391 50.3525 41.9509 60.0782 40.3473 70.1044C34.2594 71.1605 28.3193 73.3507 23.0844 76.7643C17.4534 80.4508 12.7808 85.4247 9.45283 91.2748C6.15948 97.1353 4.29265 103.93 4.51361 110.739C4.74582 117.258 6.77018 123.586 10.3643 129.029C5.13102 135.383 1.01392 143.024 0.0277038 151.452C-0.234068 153.601 -0.297701 155.769 -0.162391 157.93C-0.0554515 160.092 0.274497 162.237 0.822202 164.331C1.34337 166.432 2.1084 168.464 3.10171 170.387C4.08631 172.306 5.27887 174.132 6.73301 175.703C8.17416 177.303 9.80702 178.723 11.63 179.825C12.5122 180.429 13.4822 180.866 14.4245 181.365C15.4091 181.758 16.3791 182.212 17.3929 182.483C19.4076 183.133 21.4808 183.524 23.5832 183.69C25.6726 183.887 27.775 183.857 29.8628 183.661C34.0384 183.268 38.1263 182.121 41.9639 180.384C45.6114 178.707 49.0218 176.548 52.2128 174.132C56.5801 178.299 61.4315 182.015 66.9021 184.642C72.5334 187.33 78.8114 188.824 85.1203 188.416C88.2674 188.222 91.3983 187.481 94.3537 186.319C97.2945 185.141 100.073 183.524 102.619 181.636C107.266 178.148 111.176 173.724 114.382 168.877C120.189 173.316 127.042 176.276 134.173 177.545C141.819 178.874 149.876 178.315 157.199 175.475C164.478 172.622 171.02 167.896 176.124 161.946C178.698 158.978 180.955 155.749 182.858 152.311C183.342 151.45 183.77 150.575 184.225 149.699C184.623 148.794 185.063 147.918 185.43 147.012L187.18 142.316C190.924 142.222 194.653 141.807 198.326 141.076C202.282 140.262 206.12 139.008 209.84 137.469C213.574 135.958 217.103 133.965 220.486 131.775C223.867 129.586 226.999 127.003 229.896 124.179C231.381 122.805 232.689 121.264 234.042 119.755C235.292 118.155 236.601 116.614 237.718 114.923C240.07 111.631 242.026 108.037 243.645 104.307C246.865 96.8477 248.644 88.6769 248.29 80.5093C248.114 76.6587 247.512 72.8226 246.394 69.1377V69.1085ZM243.174 104.049C241.511 107.719 239.511 111.222 237.129 114.439C235.999 116.099 234.674 117.594 233.396 119.118C232.013 120.554 230.674 122.033 229.175 123.347C226.249 126.035 223.103 128.465 219.735 130.506C216.369 132.543 212.869 134.386 209.192 135.746C205.532 137.119 201.767 138.222 197.929 138.886C194.459 139.474 190.959 139.747 187.459 139.747C188.662 138.708 189.715 137.508 190.592 136.183C192.179 133.781 193.239 131.019 193.504 128.21C192.135 130.655 190.65 132.876 188.886 134.779C187.136 136.696 185.151 138.282 182.946 139.414C180.725 140.547 178.29 141.195 175.8 141.317C173.19 141.455 170.583 141.006 168.169 140.004C170.08 142.056 172.874 143.25 175.726 143.552C178.638 143.853 181.575 143.302 184.181 141.967L184.754 141.65C182.255 148.354 178.623 154.56 173.903 159.785C168.962 165.282 162.846 169.675 156.068 172.258C149.304 174.809 141.863 175.43 134.717 174.176C127.572 172.968 120.674 169.977 114.941 165.433L114.72 165.251C114.939 165.205 115.145 165.176 115.366 165.131C119.116 164.27 122.571 162.352 125.365 159.802C127.645 157.701 129.526 155.179 130.792 152.401C133.128 151.072 135.099 149.155 136.569 146.95C138.158 144.548 139.218 141.785 139.481 138.977C138.113 141.422 136.628 143.642 134.863 145.546C133.114 147.463 131.13 149.049 128.923 150.181C126.703 151.313 124.267 151.961 121.778 152.082C119.168 152.22 116.56 151.772 114.146 150.77C116.057 152.823 118.852 154.017 121.703 154.318C124.063 154.559 126.446 154.238 128.658 153.382C127.042 154.893 125.38 156.251 123.601 157.428C120.777 159.301 117.734 160.69 114.557 161.431C111.363 162.158 108.05 162.199 104.838 161.551C101.574 160.918 98.4123 159.558 95.4715 157.384C97.2798 160.646 100.5 163.077 104.044 164.391C106.853 165.433 109.925 165.81 112.941 165.493L112.764 165.795C109.66 171.02 105.793 175.747 101.088 179.446C96.4139 183.131 90.841 185.667 84.9578 186.15C79.0762 186.68 73.0631 185.425 67.5926 182.98C62.2992 180.624 57.5062 177.105 53.2136 173.074C54.8055 173.516 56.4692 173.64 58.109 173.436C60.1967 173.163 62.2114 172.424 63.8589 171.186C61.8589 171.594 59.9319 171.836 58.0212 171.76C56.1235 171.7 54.2859 171.337 52.58 170.627C50.8689 169.899 49.3271 168.825 48.0518 167.472C46.6972 166.035 45.6647 164.326 45.0233 162.458C44.8462 164.557 45.566 166.746 46.8024 168.528C48.0509 170.328 49.7845 171.736 51.8017 172.59C48.5668 175.128 45.111 177.376 41.4196 179.113C37.7152 180.821 33.759 181.983 29.7296 182.39C27.7149 182.587 25.6726 182.678 23.6579 182.467C21.6389 182.296 19.6459 181.896 17.7179 181.273C16.7463 181.001 15.8202 180.564 14.8941 180.186C13.9972 179.703 13.0711 179.295 12.2474 178.705C10.5289 177.624 8.97812 176.297 7.64449 174.765C6.27808 173.254 5.15864 171.518 4.23253 169.691C3.3015 167.852 2.58672 165.911 2.1025 163.907C1.07241 159.906 0.895316 155.662 1.4851 151.571C2.02776 147.463 3.41042 143.507 5.29187 139.837C7.17494 136.168 9.60068 132.785 12.3059 129.69L12.8209 129.115L12.379 128.452C8.89554 123.227 6.95398 116.915 6.88086 110.603C6.80775 104.291 8.67458 98.0532 11.8363 92.6494C15.0107 87.2627 19.4146 82.7035 24.688 79.3444C29.8775 76.0526 35.8175 74.0444 41.8762 73.2142C41.8031 73.3344 41.7137 73.44 41.626 73.5456C39.582 76.5514 38.4057 80.0836 38.0515 83.619C37.7152 87.1512 38.1555 90.7452 39.4797 93.9167C39.5528 90.4722 39.8761 87.1967 40.6852 84.087C41.4651 80.9902 42.6999 78.0754 44.4205 75.5246C46.1489 72.9785 48.3868 70.8186 50.9926 69.1816C53.699 67.4692 56.7526 66.3809 59.9319 65.9955C56.7117 64.9394 53.0219 65.3456 49.8017 66.7347C47.419 67.7701 45.2761 69.2869 43.5074 71.1898C45.0509 61.4348 48.6838 52.013 54.2713 44.0079C59.9465 35.8549 67.6966 29.2714 76.4458 24.8619C85.208 20.467 95.0003 18.2476 104.707 18.7464C113.602 19.2289 122.366 22.0235 130.101 26.6134C127.38 26.8246 124.718 27.6093 122.335 28.8328C119.248 30.4331 116.514 32.7143 114.617 35.5673C117.498 33.8012 120.366 32.3357 123.35 31.3852C126.32 30.4185 129.378 29.936 132.394 30.0708C135.378 30.2073 138.363 31.0067 141.114 32.4104C143.642 33.681 145.936 35.4926 147.936 37.8485C147.181 38.1663 146.457 38.5553 145.775 39.0101C144.024 40.2043 142.553 41.8047 141.613 43.6618C143.216 42.3782 144.847 41.2767 146.584 40.461C148.303 39.6454 150.112 39.1158 151.935 38.9809C153.775 38.8351 155.626 39.0872 157.361 39.7202C159.203 40.376 160.876 41.4332 162.258 42.8153C161.507 40.8526 159.905 39.2376 158.022 38.1945C156.112 37.1553 153.941 36.6941 151.774 36.8671C150.568 36.9565 149.377 37.2733 148.259 37.712C147.275 34.6623 145.127 31.9896 142.495 30.0708C140.302 28.4954 137.794 27.414 135.143 26.9009C141.114 19.1834 148.656 12.7202 157.244 8.40164C166.021 3.97747 176.034 2.12039 185.77 3.56966C190.636 4.17407 195.385 5.68345 199.811 7.85898C204.207 10.093 208.237 13.1134 211.589 16.8438C218.191 24.212 222.161 33.8305 224 43.7381C222.986 42.3077 221.69 41.0997 220.192 40.1881C218.369 39.1011 216.339 38.4366 214.295 38.3765C216.118 39.2977 217.795 40.3099 219.265 41.5626C220.736 42.8007 221.985 44.2353 222.911 45.8519C223.843 47.4934 224.433 49.306 224.647 51.1811C224.876 53.1579 224.68 55.161 224.073 57.0562C225.47 55.5013 226.175 53.3111 226.263 51.121C226.334 48.8974 225.79 46.6975 224.69 44.7634C228.028 46.0924 231.189 47.9511 233.94 50.3362C236.791 52.7989 239.263 55.6687 241.276 58.8531C243.32 62.0376 244.865 65.5422 245.983 69.1816C247.114 72.821 247.731 76.6262 247.937 80.4313C248.231 88.5258 246.481 96.6495 243.188 103.988L243.174 104.049Z" fill="#141414" fill-opacity="0.2"/>
<path d="M14.4962 138.314C11.5261 142.496 9.6447 147.676 10.2036 152.81C10.7609 157.944 14.1144 162.897 18.9366 164.362C21.5687 165.161 24.4071 164.905 27.0392 164.12C29.6713 163.335 32.1116 162.021 34.5227 160.692C32.1158 159.963 29.8312 158.878 27.7443 157.475C25.0537 155.679 22.6426 153.263 21.4517 150.183C20.2608 147.117 20.5093 143.343 22.628 140.85" fill="white" fill-opacity="0.2"/>
</g>
</g>
</g>
</g>
</g>
<defs>
<clipPath id="clip0_5_1559">
<rect width="249.59" height="188.47" fill="white"/>
</clipPath>
<clipPath id="clip1_5_1559">
<rect width="249.6" height="188.47" fill="white"/>
</clipPath>
<clipPath id="clip2_5_1559">
<rect width="249.6" height="188.47" fill="white"/>
</clipPath>
<clipPath id="clip3_5_1559">
<rect width="250.21" height="188.47" fill="white" transform="translate(-0.310059)"/>
</clipPath>
</defs>
</svg>
