<svg width="252" height="300" viewBox="0 0 252 300" fill="none" xmlns="http://www.w3.org/2000/svg">
<g clip-path="url(#clip0_486_63)">
<path fill-rule="evenodd" clip-rule="evenodd" d="M151.82 106.866C160.997 102.29 172.674 95.554 184.365 86.325C186.83 91.444 187.1 95.911 185.83 99.518C184.93 102.06 183.234 104.271 181.004 106.03C178.589 107.931 175.573 109.315 172.239 110.063C165.913 111.488 158.527 110.656 151.82 106.866ZM153.411 153.752L165.559 160.769C140.755 174.671 134.012 200.485 126.002 225.628C117.993 200.485 111.249 174.671 86.4457 160.769L98.5937 153.752C99.7689 153.308 100.773 152.503 101.463 151.453C102.153 150.403 102.493 149.162 102.434 147.907C101.321 124.36 107.679 113.947 116.255 107.409C119.331 105.067 122.689 103.891 126.002 103.891C129.315 103.891 132.673 105.067 135.75 107.409C144.326 113.947 150.684 124.36 149.571 147.907C149.512 149.162 149.852 150.403 150.541 151.453C151.231 152.503 152.236 153.308 153.411 153.752ZM126.002 0C140.044 0.377 154.121 3.103 166.338 8.406C174.798 12.083 182.692 16.94 189.84 22.748C193.068 25.37 195.726 27.903 198.654 30.819C206.551 31.092 218.092 22.319 223.45 14.11C214.229 44.34 172.151 80.039 143.02 93.699C143.008 93.694 143 93.687 142.991 93.681C137.763 89.689 131.883 87.693 126.002 87.693C120.121 87.693 114.242 89.689 109.014 93.681C109.005 93.686 108.997 93.695 108.985 93.699C79.8527 80.039 37.7757 44.34 28.5547 14.11C33.9117 22.319 45.4527 31.092 53.3497 30.819C56.2787 27.904 58.9367 25.37 62.1637 22.748C69.3117 16.94 77.2057 12.083 85.6657 8.406C97.8837 3.103 111.961 0.377 126.002 0ZM100.184 106.866C91.0077 102.29 79.3297 95.554 67.6397 86.325C65.1747 91.444 64.9047 95.911 66.1737 99.518C67.0747 102.06 68.7707 104.271 70.9997 106.03C73.4157 107.931 76.4317 109.315 79.7657 110.063C86.0917 111.488 93.4767 110.656 100.184 106.866Z" fill="black"/>
<path fill-rule="evenodd" clip-rule="evenodd" d="M197.167 75.016C203.603 68.521 209.274 61.332 213.834 54.917L216.15 59.276C223.606 74.193 227.48 89.05 227.48 105.77L227.464 132.302L227.604 146.056C228.144 179.822 235.45 213.985 252 245.249L217.373 217.327L192.872 257.086L167.132 232.855L126 299.604L84.868 232.856L59.129 257.087L34.628 217.328L0 245.25C16.55 213.986 23.856 179.823 24.397 146.057L24.537 132.303L24.521 105.771C24.521 89.05 28.394 74.193 35.852 59.277L38.167 54.918C42.727 61.333 48.397 68.521 54.834 75.017L52.824 79.192C48.919 87.301 47.626 96.368 50.668 104.991C52.629 110.545 56.208 115.308 60.822 118.944C65.302 122.475 70.604 124.855 76.155 126.105C79.771 126.919 83.455 127.254 87.115 127.14C86.261 131.981 85.888 137.002 85.864 142.118L53.2 160.984L78.406 175.113C80.4206 176.243 82.3385 177.537 84.14 178.982C104.921 197.64 117.415 252.837 126.001 279.798C134.588 252.837 147.081 197.64 167.863 178.982C169.664 177.536 171.582 176.242 173.597 175.113L198.803 160.984L166.138 142.118C166.114 137.002 165.741 131.981 164.887 127.14C168.547 127.254 172.231 126.919 175.847 126.105C181.398 124.855 186.701 122.475 191.18 118.944C195.793 115.308 199.373 110.545 201.333 104.991C204.376 96.368 203.082 87.302 199.178 79.192L197.168 75.017L197.167 75.016Z" fill="black"/>
</g>
<defs>
<clipPath id="clip0_486_63">
<rect width="252" height="300" fill="white"/>
</clipPath>
</defs>
</svg>
