<svg width="462" height="532" viewBox="0 0 462 532" fill="none" xmlns="http://www.w3.org/2000/svg">
<path fill-rule="evenodd" clip-rule="evenodd" d="M171.63 30.0488C140.015 46.5397 114.15 60.4943 114.156 61.0619C114.17 62.5268 190.031 100.998 192.724 100.904C193.949 100.863 202.834 96.7676 212.468 91.8041L229.987 82.7811L249.12 92.6291L268.251 102.479L299.584 88.3808C346.795 67.1373 351.698 64.8093 350.93 64.0273C349.91 62.9896 332.976 53.8802 287.034 29.6602C264.83 17.9545 243.28 6.47735 239.143 4.15496C235.007 1.83257 231.057 -0.0356466 230.367 0.000516281C229.678 0.0366792 203.245 13.5585 171.63 30.0488ZM32.9695 101.949L0.0593737 118.972V193.679C0.0593737 234.769 0.491516 268.386 1.02159 268.386C1.54984 268.386 17.7417 261.358 37.0027 252.768L72.0227 237.149V158.402L89.1358 167.738C102.323 174.926 115.518 182.099 128.721 189.258L151.192 201.441L161.192 196.913C167.463 194.069 173.721 191.197 179.967 188.298C184.794 186.047 196.641 180.704 206.295 176.421C215.948 172.137 224.884 167.828 226.151 166.846C227.835 165.542 207.31 154.184 150.236 124.836C107.214 102.714 70.6345 84.6836 68.9475 84.7701C67.2606 84.8565 51.0705 92.5861 32.9695 101.949ZM356.861 106.73C334.447 116.862 316.093 125.557 316.072 126.053C316.052 126.548 328.268 133.822 343.221 142.214C358.172 150.608 370.405 157.925 370.405 158.476C370.405 159.025 357.175 165.445 341.006 172.743C324.835 180.04 283.962 198.524 250.175 213.818L136.965 265.061C108.487 277.952 82.8171 289.571 79.9213 290.885C21.7534 317.252 5.76537 324.569 3.56977 325.825C1.36192 327.089 0.861836 334.435 0.468868 371.305L0 415.279L29.4298 430.294L58.8589 445.309L99.667 426.867C122.112 416.725 140.475 407.895 140.475 407.245C140.475 406.597 136.327 403.891 131.261 401.229C126.191 398.568 115.727 392.676 108.004 388.135C100.282 383.592 92.5813 379.425 90.8907 378.872C89.2007 378.321 87.8424 377.357 87.87 376.728C87.8981 376.101 105.868 367.554 127.801 357.733C170.401 338.66 203.002 323.96 272.992 292.266C304.289 278.097 335.59 263.936 366.895 249.784C394.408 237.349 426.396 222.825 437.981 217.51L459.043 207.846L459.511 163.371L459.982 118.898L430.133 103.556C413.715 95.1194 399.682 88.2368 398.946 88.2619C398.211 88.2852 379.273 96.5947 356.861 106.73ZM451.046 267.178C446.647 269.329 437.959 273.357 431.739 276.128C425.519 278.899 413.715 284.232 405.509 287.982L390.59 294.796L390.25 333.841C390.062 355.315 389.272 372.789 388.495 372.676C386.729 372.413 358.767 358.053 330.659 342.971C310.373 332.088 309.098 331.655 304.331 334.019C301.575 335.386 285.103 342.784 267.727 350.461C250.35 358.136 235.567 364.918 234.871 365.532C234.178 366.145 269.15 385.126 312.59 407.713L391.568 448.782L425.306 431.305C443.86 421.694 459.638 412.928 460.365 411.825C462 409.346 461.86 262.926 460.223 263.124C459.575 263.202 455.444 265.026 451.046 267.178ZM264.217 439.038C258.364 441.557 252.514 444.08 246.665 446.607C229.002 454.259 232.463 454.512 211.45 444.038C197.454 437.061 191.421 434.909 188.803 435.954C186.839 436.737 169.934 444.353 151.235 452.877C132.536 461.401 116.588 468.375 115.795 468.375C107.95 468.375 120.993 476.178 171.321 501.6L230.345 531.411L255.179 519.134C268.838 512.381 296.387 498.859 316.402 489.085C336.414 479.309 352.541 471.057 352.24 470.746C351.935 470.436 335.166 461.813 314.973 451.585L278.258 432.989L264.217 439.038Z" fill="black"/>
</svg>
