<svg width="266" height="266" viewBox="0 0 266 266" fill="none" xmlns="http://www.w3.org/2000/svg">
<path d="M237.103 108.757C237.103 108.757 224.431 120.269 203.25 134.002C197.473 100.411 181.447 58.9439 149.71 8.3125C149.71 8.3125 139.331 62.6222 104.768 114.027C89.6851 90.76 83.2138 72.4933 83.2138 72.4933C-25.5386 180.884 64.6104 257.688 121.227 257.688C193.895 257.688 257.843 222.937 237.103 108.757ZM124.951 250.755C109.116 250.755 73.7708 239.716 56.6844 188.897C56.6844 188.897 62.8232 192.04 72.8065 195.676C73.2139 178.108 80.2753 155.627 98.3425 127.264C98.3425 127.264 102.873 139.442 113.43 154.953C137.623 120.681 144.888 84.4592 144.888 84.4592C167.108 118.229 178.325 145.88 182.374 168.278C197.195 159.118 206.068 151.437 206.068 151.437C205.058 173.976 200.707 191.641 194.41 205.448C204.323 203.822 210.586 202.094 210.586 202.094C182.045 242.401 153.242 250.755 124.951 250.755Z" fill="black"/>
<path d="M91.0084 182.268C91.0084 182.268 102.667 198.17 111.532 194.33C111.532 194.33 128.386 168.141 152.571 153.582C152.571 153.582 147.604 193.507 153.315 200.564C160.887 209.949 181.407 190.157 181.407 190.157C181.407 213.748 155.509 243.473 132.338 243.473C109.333 243.473 76.7192 217.887 91.0084 182.268ZM207.147 75.3029C215.879 62.6637 221.814 49.717 221.814 49.717C236.456 73.7194 227.816 88.3161 221.382 93.0833C212.749 99.4923 197.068 89.9121 207.147 75.3029ZM47.7834 71.2007C39.2382 56.5499 38.2781 38.2915 38.2781 38.2915C17.4012 69.6587 25.5558 86.7409 32.5009 91.9113C41.8192 98.8522 57.6462 88.1291 47.7834 71.2007ZM96.3534 38.6157C97.4174 28.7695 93.2902 18.5576 93.2902 18.5576C113.091 31.2924 112.854 42.3854 110.273 46.7037C106.794 52.4976 95.119 49.9913 96.3534 38.6157Z" fill="black"/>
</svg>
