<svg width="1170" height="330" viewBox="0 0 1170 330" fill="none" xmlns="http://www.w3.org/2000/svg">
<g clip-path="url(#clip0_5_1597)">
<path d="M1078.61 234.358C1037.65 228.369 998.664 235.176 958.733 236.353C953.776 238.976 948.932 242.01 943.916 244.515C938.853 247.558 951.005 249.588 948.979 255.67C986.452 261.754 1023.92 266.827 1061.4 256.685C1070.51 253.643 1085.69 251.614 1085.69 239.444C1085.69 236.387 1081.65 234.358 1078.61 234.358ZM546.924 252.612C533.246 250.656 520.511 253.424 507.806 258.175C510.106 265.69 522.388 269.656 529.707 267.823C536.798 266.824 545.911 266.824 551.987 260.727C556.04 256.667 549.964 253.627 546.924 252.612Z" fill="#5A7F08"/>
<path d="M1118.57 195.107C1121.72 194.162 1132.09 192.745 1141.68 195.107C1137.75 187.083 1122.82 179.527 1112.13 176.224C1115.13 174.806 1129.74 172.76 1139.64 173.229C1133.66 167.724 1117.08 163.707 1096.81 163.944C1080.3 152.376 1073.22 150.254 1058.74 149.661C1058.86 147.419 1067.34 142.935 1072.06 141.282C1066.51 138.683 1056.26 139.156 1046.36 141.282C1049.31 136.324 1059.56 124.979 1065.81 120.036C1051.66 121.699 1038.11 130.07 1026.91 139.038C1026.91 139.038 987.375 132.202 947.543 124.268C953.367 118.079 961.018 112.624 969.185 108.385C958.182 107.124 947.497 111.216 932.822 116.882C943.121 106.076 961.324 91.7044 982.701 82.2588C953.155 83.5195 926.436 102.088 913.549 114.363C923.922 89.4979 949.381 71.5565 964.783 56.7654C936.809 64.0045 904.12 91.5444 896.735 108.998C891.861 100.814 886.986 83.1872 884.441 76.7267C882.761 82.8743 882.698 95.9889 883.249 110.182C832.141 100.63 708.622 101.864 642.531 89.9514C633.035 88.2372 624.47 87.1191 616.533 86.4771C625.553 75.0196 636.355 64.6935 642.873 61.3363C625.756 61.2395 610.493 76.9724 602.486 84.6477C607.34 63.4154 614.407 21.5309 600.16 3.16553C601.37 16.6328 597.947 69.6599 590.785 84.242C588.3 63.2065 587.051 44.3856 572.233 31.537C577.645 50.7564 578.615 75.252 577.186 86.9826L574.841 87.2394C569.747 78.2565 564.163 74.6405 558.315 71.1876C561.129 75.7748 563.193 82.1854 564.109 88.6397C538.384 92.376 510.772 98.6734 464.013 100.654C433.886 101.928 413.603 102.556 397.453 103.774C398.45 86.474 405.736 63.2758 411.639 55.3477C396.855 62.6867 390.473 82.3382 386.868 92.1467C381.924 72.4677 370.007 34.7443 349.83 25.7278C356.658 36.3475 376.502 81.7166 376.598 96.8909C365.416 80.5588 356.253 65.5251 337.963 61.3119C352.133 76.1815 364.433 98.6133 366.951 107.762L366.495 107.856C357.094 101.179 350.146 100.514 343.016 100.161C347.003 102.49 351.116 106.352 354.505 110.743C341.704 114.237 317.384 116.792 295.453 116.792C245.983 116.792 200.012 128.349 156.187 136.867C156.057 139.574 155.343 142.243 153.861 144.379C152.864 140.453 149.183 138.041 145.555 136.301C146.068 138.094 146.021 140 145.421 141.765C144.82 143.531 143.695 145.07 142.196 146.179C141.491 142.995 139.017 140.164 137.957 137.332C137.747 136.704 137.293 136.072 137.1 135.443C135.439 139.911 134.166 144.458 134.774 149.363C129.548 144.405 125.94 135.362 119.491 133.157C120.079 135.675 122.747 150.789 122.747 154.316C115.93 137.888 101.368 128.846 100.002 128.366C101.889 134.661 111.318 150.084 106.919 164.879C98.4297 148.826 74.6221 135.369 57.6489 137.495C67.3137 142.688 92.3046 164.406 92.3046 170.541C71.8092 159.699 32.2025 160.171 24.1888 166.312C34.0899 166.312 69.2175 176.23 76.051 182.132C59.3132 179.061 37.6285 181.423 29.6107 185.672C36.6807 187.558 49.2561 193.067 53.027 196.843C46.113 197.177 28.668 199.678 24.1235 204.871C28.3653 205.204 38.1095 208.018 43.136 211.166C28.6772 216.821 -0.239562 240.442 0.703164 248.623C1.64691 256.804 35.2793 265.301 70.1704 270.966C105.062 276.633 155.977 287.648 246.502 302.758C337.026 317.869 416.856 321.638 519.949 310.933C626.187 332.967 703.499 328.761 753.803 326.821C839.298 323.524 866.288 306.528 903.734 303.068C920.254 301.537 975.086 307.473 1010.92 305.583C1046.75 303.694 1095.76 290.137 1115.67 281.743C1140.11 271.429 1164.23 266.635 1168.94 252.466C1173.66 238.297 1132.26 200.3 1118.57 195.107Z" fill="#72A314"/>
<path d="M911.084 222.673C911.084 222.673 857.287 222.271 866.138 227.761C874.989 233.25 917.466 233.084 911.093 239.8C904.721 246.517 934.293 255.127 939.603 255.659C944.912 256.192 970.334 266.695 993.196 262.45C1016.06 258.204 1034.63 265.085 1049.46 262.45C1064.28 259.814 1067.69 257.4 1065.78 252.167C1063.88 246.933 1097.32 242.852 1088.64 237.442C1079.96 232.032 1091.46 222.84 1021 224.004C950.533 225.169 911.084 222.673 911.084 222.673Z" fill="#5A7F08"/>
<path d="M1112.13 176.224C1115.13 174.806 1129.74 172.76 1139.64 173.229C1133.66 167.724 1117.08 163.708 1096.81 163.944C1080.31 152.376 1073.22 150.254 1058.74 149.662C1058.86 147.419 1067.34 142.935 1072.06 141.281C1066.51 138.683 1056.26 139.156 1046.37 141.281C1049.31 136.324 1059.56 124.98 1065.81 120.036C1051.66 121.699 1038.11 130.07 1026.91 139.039C1026.91 139.039 987.377 132.202 947.546 124.268C953.37 118.079 961.021 112.624 969.188 108.385C958.184 107.124 947.499 111.216 932.824 116.882C943.124 106.077 961.327 91.7043 982.703 82.2587C953.158 83.5194 926.439 102.088 913.551 114.363C923.924 89.4988 949.383 71.5564 964.785 56.7653C936.811 64.0044 904.123 91.5443 896.737 108.997C891.863 100.814 886.989 83.1871 884.445 76.7266C882.763 82.8742 882.7 95.9888 883.251 110.182C858.942 105.637 818.249 103.528 775.148 101.302C772.683 101.551 748.449 99.828 748.027 103.222C747.839 104.762 750.353 109.753 769.194 109.174C771.869 109.596 824.466 117.884 826.671 118.189C998.853 141.784 1088.02 172.305 1091.2 172.305C1097.57 172.657 1120.99 169.364 1127.35 170.072C1121.33 172.55 1106.29 173.676 1100.99 177.212C1110.88 181.104 1119.99 181.996 1132.8 191.015C1125.73 191.724 1107.55 193.564 1107.55 193.916C1110.02 197.456 1132.08 204.449 1134.86 205.842C1128.34 200.519 1122.36 196.527 1118.55 195.077C1121.7 194.132 1132.07 192.715 1141.66 195.077C1137.75 187.083 1122.82 179.528 1112.13 176.224ZM616.542 86.5065C625.563 75.0491 636.364 64.7229 642.882 61.3658C626.054 61.2731 611.017 76.4933 602.904 84.2848C602.658 88.0445 602.293 91.8164 601.764 95.5965C604.456 89.4509 607.502 83.7059 612.518 78.9617C613.224 85.6861 611.104 92.7612 613.578 98.7773C629.479 98.4246 645.029 101.252 660.574 97.3627C668.836 95.2173 676.568 96.7838 684.229 95.4059C668.919 93.9495 654.75 92.1955 642.54 89.9941C633.044 88.2677 624.479 87.1486 616.542 86.5065ZM590.775 84.2715C588.289 63.236 587.04 44.4151 572.223 31.5675C577.635 50.7859 578.605 75.2825 577.176 87.0131L574.831 87.2689C569.737 78.286 564.152 74.67 558.305 71.217C561.119 75.8043 563.182 82.2159 564.099 88.6692C538.374 92.4055 510.762 98.7039 464.003 100.683C433.875 101.957 413.593 102.586 397.442 103.804C398.439 86.5035 405.725 63.3053 411.629 55.3772C396.845 62.7162 390.462 82.3687 386.857 92.1762C381.914 72.4981 369.997 34.7738 349.82 25.7583C356.465 36.0722 375.402 79.2246 376.532 95.57C380.612 100.71 383.13 107.746 384.954 113.624C384.954 111.503 384.246 109.38 383.539 107.609C381.066 100.533 380.007 93.4572 379.299 86.0245C385.659 94.8708 390.263 104.425 394.14 114.685C395.907 112.564 398.736 111.855 400.854 111.855C411.819 110.441 422.762 110.085 433.716 108.671C462.268 104.981 490.834 110.933 519.045 104.678C536.54 100.802 554.378 99.4255 572.232 98.0486C570.82 93.8027 563.803 78.8424 563.803 77.4207C568.043 84.4978 577.176 87.0029 578.947 102.999C578.947 88.8455 584.953 73.9851 578.947 60.5372C587.426 70.4445 584.953 83.8924 587.781 95.57C588.841 90.6168 592.02 86.7236 592.728 82.1221C594.847 67.6174 599.794 54.8788 603.691 41.431C603.17 55.0052 603.802 68.5815 603.027 82.2994C607.831 60.4506 613.904 20.8907 600.153 3.18481C601.346 16.6622 597.937 69.6893 590.775 84.2715ZM366.227 92.3963C365.52 90.9786 358.682 79.7994 357.623 78.7558C361.198 79.0717 371.011 90.2825 373.516 92.4258C363.626 77.9038 354.543 65.1785 337.968 61.3597C352.137 76.2273 364.437 98.6611 366.955 107.809L366.499 107.903C357.098 101.225 350.151 100.56 343.021 100.208C347.008 102.536 351.12 106.399 354.51 110.79C341.708 114.284 327.379 119.394 306.857 127.139C299.702 129.783 292.362 131.896 284.896 133.459C288.338 133.267 291.776 132.834 295.215 132.405C321.717 128.512 347.157 124.62 373.66 125.329C372.248 118.252 363.413 116.127 360.234 109.759C365.882 110.111 370.832 112.59 375.427 115.414C373.597 109.782 369.407 99.4723 366.227 92.3963ZM153.856 144.408C152.86 140.482 149.179 138.071 145.551 136.33C146.059 138.118 146.011 140.019 145.411 141.779C144.811 143.538 143.689 145.073 142.195 146.179C141.491 142.995 139.016 140.163 137.956 137.332C137.746 136.703 137.292 136.072 137.099 135.443C135.438 139.911 134.165 144.458 134.773 149.362C129.547 144.405 125.939 135.363 119.49 133.157C120.078 135.675 122.746 150.789 122.746 154.316C115.929 137.888 101.366 128.846 100.001 128.367C101.888 134.661 111.317 150.084 106.918 164.879C98.4288 148.826 74.6211 135.369 57.647 137.495C67.3127 142.689 92.3026 164.406 92.3026 170.542C71.8072 159.699 32.2015 160.172 24.1878 166.313C34.089 166.313 69.2155 176.231 76.05 182.132C59.3123 179.061 37.6275 181.423 29.6098 185.672C36.6797 187.559 49.2552 193.067 53.0261 196.843C46.1121 197.177 28.666 199.679 24.1216 204.871C28.3644 205.204 38.1086 208.018 43.1351 211.166C40.4506 212.217 37.2678 213.891 33.8699 215.963C40.5872 213.76 47.7173 212.191 53.8659 208.461C49.9798 207.044 46.0927 205.629 42.2056 204.921C48.5672 201.029 55.2784 197.845 63.0526 196.075C63.7609 196.075 64.8209 195.366 65.5282 195.014C66.9397 194.661 68.3553 195.014 69.7679 195.014C65.1725 191.122 58.8037 190.769 53.8669 187.585C63.6845 184.634 74.1065 183.812 84.293 183.706H84.2563C77.8937 180.166 73.2922 174.151 66.2324 172.727C76.6615 171.729 86.4496 175.195 95.5955 180.415C96.5128 168.572 92.2731 158.125 82.8407 150.786C95.9145 150.081 100.156 165.295 107.576 173.432C107.536 168.489 108.374 163.577 110.051 158.927C112.879 152.557 110.403 145.127 107.931 138.403C117.118 142.648 119.59 153.617 123.832 162.111C124.184 155.74 127.012 149.725 125.952 143.005C131.232 147.24 131.232 154.668 136.188 159.27C136.543 157.856 137.956 156.794 138.663 156.438C154.916 149.362 171.887 146.179 188.831 140.869C190.526 140.369 192.219 139.871 193.907 139.348C181.307 138.888 168.722 138.07 156.169 136.896C156.046 139.605 155.332 142.273 153.856 144.408Z" fill="#96BA17"/>
<path d="M1014.04 278.113C973.059 280.196 928.39 279.88 886.588 282.331C835.756 285.325 791.568 304.652 739.149 308.77C650.727 315.724 478.084 289.268 438.681 271.473C445.837 280.269 451.884 292.877 468.854 303.577C400.961 303.577 317.982 293.506 250.086 285.945C163.336 274.623 33.5213 256.053 22.3614 246.923C14.8767 243.263 11.9068 235.279 14.4609 230.132C5.68383 239.252 0.351564 245.589 0.517687 248.486C0.995675 256.724 35.0928 265.181 69.9808 270.847C104.87 276.512 155.791 287.528 246.316 302.636C336.84 317.743 416.68 321.519 519.776 310.82C626.015 332.85 703.33 328.645 753.631 326.705C839.124 323.408 866.116 306.412 903.562 302.952C920.078 301.421 974.913 307.356 1010.74 305.467C1046.58 303.577 1095.59 290.019 1115.5 281.626C1139.92 271.313 1164.06 266.519 1168.77 252.349C1171.09 245.402 1166.98 242.392 1162.94 234.64C1165.57 257.955 1066.92 275.435 1014.04 278.113Z" fill="#5A7F08"/>
<path d="M690.672 329.137C645.597 329.137 588.759 325.887 519.903 311.617C469.196 316.877 422.933 318.701 378.473 317.197C336.073 315.759 294.085 311.382 246.37 303.417C192.477 294.434 153.304 287.009 121.827 281.051C100.777 277.058 84.1513 273.921 70.0379 271.628C49.4029 268.275 1.24845 259.329 0.025453 248.693C-0.971289 240.166 27.0007 217.457 41.6124 211.06C36.3658 208.192 27.8007 205.816 24.0624 205.537L22.711 205.437L23.6048 204.419C28.0005 199.408 43.3827 196.864 51.3302 196.264C46.7643 192.772 36.1803 188.117 29.4385 186.317L27.7773 185.871L29.2989 185.066C36.8937 181.041 56.6155 178.622 73.1148 180.95C62.8681 175.208 33.5549 166.978 24.1898 166.978H22.1963L23.7771 165.767C27.9006 162.613 39.6016 160.89 53.5927 161.378C68.4399 161.904 82.0916 164.779 91.3639 169.306C88.6163 162.32 66.6655 143.104 57.3504 138.101L55.4832 137.103L57.5858 136.84C65.7788 135.812 76.0683 138.346 85.8268 143.793C94.8963 148.863 102.418 155.833 106.724 163.106C109.235 152.21 104.574 141.214 101.441 133.829C100.561 131.753 99.8006 129.96 99.3878 128.579L99.0056 127.318L100.245 127.741C101.59 128.196 114.339 135.985 121.744 150.49C120.996 144.677 119.282 135.13 118.857 133.31L118.581 132.122L119.734 132.518C123.99 133.975 127.027 138.224 129.967 142.335C131.204 144.139 132.535 145.876 133.954 147.539C133.804 143.09 135.053 138.999 136.465 135.206L137.163 133.33L137.741 135.246C137.848 135.545 137.979 135.834 138.133 136.111C138.314 136.43 138.469 136.765 138.595 137.109C139.091 138.304 139.686 139.456 140.372 140.553C141.196 141.969 142.034 143.427 142.566 144.987C143.689 143.921 144.499 142.568 144.909 141.074C145.319 139.581 145.312 138.004 144.89 136.514L144.462 135.056L145.831 135.722C148.661 137.083 152.423 139.242 154.004 142.818C154.915 140.961 155.421 138.931 155.49 136.863L155.512 136.334L156.034 136.231C163.695 134.744 171.592 133.127 179.231 131.573C216.285 123.984 254.559 116.147 295.443 116.147C316.56 116.147 340.109 113.791 353.329 110.385C350.027 106.275 346.266 102.882 342.667 100.774L340.285 99.3786L343.04 99.5151C350.312 99.8749 357.083 100.677 365.888 106.648C362.642 96.8133 350.668 75.6616 337.465 61.8081L335.913 60.1774L338.107 60.684C355.472 64.676 364.522 77.9833 375.004 93.3971L375.762 94.5121C373.925 77.6806 355.917 36.487 349.253 26.1241L348.027 24.2183L350.097 25.1427C369.643 33.8759 381.423 68.5417 386.974 89.8942C390.829 79.2745 397.274 61.752 411.334 54.7759L413.859 53.5213L412.175 55.7838C406.593 63.2726 399.354 85.3926 398.168 103.072C410.158 102.19 424.132 101.628 443.319 100.856C449.658 100.6 456.518 100.324 463.977 100.007C499.905 98.4868 524.218 94.4652 545.67 90.9154C551.804 89.9003 557.611 88.9383 563.336 88.0974C562.365 81.8031 560.345 75.8114 557.734 71.5727L556.312 69.2439L558.638 70.6249C564.731 74.2246 570.189 77.917 575.183 86.5371L576.559 86.3903C577.805 75.2295 577.087 51.3484 571.576 31.7397L570.964 29.5771L572.665 31.0518C586.725 43.244 588.695 60.3476 590.977 80.15C591.034 80.6555 591.094 81.1478 591.151 81.6696C597.529 64.726 600.662 16.4227 599.48 3.25205L599.273 0.966064L600.683 2.78323C614.504 20.5778 608.745 59.5262 603.639 82.6286C612.228 74.351 626.487 60.6707 642.717 60.6707H645.634L643.185 61.9314C636.963 65.1357 626.656 74.9064 617.849 85.8848C625.72 86.5503 633.849 87.6755 642.654 89.2654C677.376 95.5261 727.324 98.1219 775.628 100.626C818.075 102.828 858.189 104.912 882.545 109.34C881.92 92.6123 882.333 81.8734 883.794 76.5228L884.329 74.567L885.073 76.4525C885.851 78.4266 886.834 81.4107 887.974 84.8636C890.336 92.0161 893.512 101.644 896.662 107.487C900.711 98.977 910.283 88.2503 922.616 78.4898C936.374 67.5908 951.68 59.4233 964.611 56.0794L967.109 55.4139L965.245 57.2045C961.847 60.4679 957.969 63.878 953.866 67.4838C940.487 79.245 924.008 93.7334 915.489 111.616C924.486 103.631 950.799 82.8946 982.667 81.534L986.24 81.3811L982.97 82.8284C963.069 91.6176 945.839 104.845 935.49 115.079C948.779 109.972 958.773 106.462 969.258 107.663L971.452 107.912L969.492 108.934C961.402 113.145 954.301 118.269 948.892 123.795C986.047 131.178 1023.05 137.628 1026.74 138.27C1040.96 126.919 1053.72 120.718 1065.74 119.307L1068.1 119.034L1066.24 120.508C1060.73 124.879 1051.59 134.727 1047.81 140.24C1058.32 138.174 1067.41 138.3 1072.35 140.612L1073.85 141.314L1072.29 141.863C1067.66 143.487 1061.24 147.053 1059.75 148.973C1073.53 149.615 1080.77 151.834 1097.03 163.209C1116.44 163.009 1133.74 166.808 1140.1 172.674L1141.47 173.934L1139.61 173.848C1131.3 173.452 1119.37 174.846 1114.3 176.157C1124.1 179.517 1138.35 186.689 1142.29 194.748L1142.93 196.048L1141.52 195.716C1133.6 193.762 1125.08 194.422 1120.7 195.256C1128.12 198.916 1140.68 209.029 1151.16 219.909C1159.3 228.369 1172.52 243.862 1169.59 252.638C1165.94 263.618 1150.96 269.123 1133.63 275.491C1127.89 277.604 1121.95 279.786 1115.94 282.317C1095.6 290.895 1046.53 304.339 1010.95 306.212C990.974 307.263 965.631 305.919 943.275 304.731C925.998 303.813 911.071 303.021 903.794 303.693C890.239 304.947 878.037 307.985 863.927 311.504C839.149 317.719 808.33 325.394 753.844 327.497L747.362 327.75C731.148 328.392 712.258 329.137 690.672 329.137ZM519.985 310.251L520.088 310.273C621.783 331.363 697.317 328.375 747.299 326.399L753.781 326.147C808.141 324.05 838.883 316.392 863.587 310.241C877.768 306.707 890.017 303.657 903.682 302.383C911.054 301.717 926.024 302.495 943.354 303.417C965.68 304.605 990.984 305.949 1010.89 304.897C1046.29 303.034 1095.17 289.647 1115.41 281.11C1121.45 278.565 1127.4 276.376 1133.16 274.26C1150.17 268.008 1164.86 262.616 1168.32 252.246C1170.29 246.334 1163.66 234.903 1150.18 220.883C1138.89 209.147 1125.2 198.33 1118.34 195.729L1116.48 195.02L1118.39 194.448C1121.54 193.507 1131.15 192.212 1140.34 194.115C1135.87 187.172 1123.01 180.292 1111.94 176.872L1110.28 176.356L1111.85 175.614C1114.8 174.217 1127.77 172.345 1137.63 172.497C1130.49 167.537 1114.58 164.423 1096.82 164.625H1096.6L1096.43 164.499C1079.95 152.945 1072.89 150.919 1058.72 150.34L1058.04 150.313L1058.09 149.628C1058.22 147.02 1065.76 143.111 1070.2 141.281C1064.99 139.617 1056.34 139.837 1046.53 141.946L1045.01 142.279L1045.8 140.948C1048.6 136.248 1057.43 126.443 1063.58 121.053C1052.43 122.93 1040.55 129.009 1027.37 139.577L1027.13 139.767L1026.83 139.717C1026.44 139.648 986.824 132.788 947.428 124.942L946.231 124.707L947.069 123.818C952.248 118.316 959.055 113.172 966.86 108.884C956.734 108.391 946.663 112.28 933.081 117.534L930.267 118.618L932.35 116.436C941.909 106.422 958.983 92.7081 979.086 83.1973C945.713 86.1916 919.164 109.982 914.031 114.872L911.705 117.085L912.941 114.124C921.091 94.5854 938.779 79.035 952.992 66.5493C956.315 63.6385 959.467 60.8572 962.341 58.1819C935.304 66.2802 904.469 92.4564 897.37 109.28L896.848 110.508L896.183 109.363C892.752 103.598 889.412 93.4745 886.727 85.3426C885.954 83.0138 885.253 80.8818 884.644 79.1512C883.618 85.0236 883.386 95.4375 883.96 110.185L883.994 111.03L883.163 110.874C858.98 106.356 818.476 104.253 775.592 102.03C727.245 99.5182 677.25 96.9275 642.448 90.6464C633.214 88.9821 624.733 87.8477 616.534 87.1792L615.277 87.0762L616.058 86.0775C624.122 75.8349 633.636 66.4759 640.262 62.1444C625.507 63.4755 612.46 76.0407 604.486 83.7324L603.005 85.1561L601.38 86.7104L601.881 84.5181C604.284 74.0085 607.274 58.2349 607.862 42.8252C608.503 26.0905 606.201 13.5487 601.018 5.52071C601.746 22.2982 598.184 70.7982 591.423 84.5609L590.426 86.6095L590.161 84.3418C589.998 82.9843 589.829 81.637 589.689 80.2998C587.536 61.6155 585.665 45.367 573.535 33.6221C578.632 53.2818 579.184 76.4667 577.901 87.0864L577.834 87.6215L577.299 87.6745C576.518 87.7581 575.738 87.8416 574.974 87.9313L574.532 87.9813L574.31 87.595C570.014 80.0297 565.339 76.2833 560.192 73.0994C562.372 77.4054 564.027 82.8905 564.844 88.5632L564.941 89.2287L564.276 89.3255C558.346 90.1867 552.315 91.1814 545.967 92.2332C524.477 95.7901 500.118 99.8219 464.114 101.345C456.648 101.66 449.791 101.938 443.448 102.19C423.847 102.978 409.713 103.548 397.573 104.466L396.805 104.522L396.849 103.754C397.796 87.2689 404.159 66.642 409.64 57.2942C397.586 64.8095 391.786 80.7921 388.234 90.5628C388.002 91.2018 387.783 91.8102 387.57 92.382L386.723 94.4509L386.191 92.3331C383.746 82.595 379.546 68.2594 373.43 55.2477C366.814 41.1751 359.475 31.8233 351.595 27.4042C359.469 41.0916 377.177 82.6317 377.251 96.904V99.1095L376.008 97.2893C375.284 96.2385 374.572 95.1867 373.865 94.1492C364.008 79.6567 355.432 67.0548 340.003 62.5704C353.512 77.4084 365.05 98.4746 367.579 107.603L367.768 108.298L366.323 108.598L366.084 108.428C358.093 102.756 352.063 101.485 345.512 101.006C349.116 103.645 352.317 106.792 355.016 110.351L355.635 111.153L354.662 111.416C341.548 114.992 317.192 117.487 295.43 117.487C254.685 117.487 216.464 125.312 179.503 132.877C172.035 134.404 164.314 135.985 156.804 137.448C156.592 140.283 155.765 142.808 154.399 144.784L153.566 146.019L153.204 144.571C152.363 141.205 149.236 139.009 146.503 137.562C146.72 139.298 146.472 141.062 145.786 142.672C145.1 144.281 143.999 145.679 142.595 146.724L141.762 147.329L141.538 146.331C141.15 144.578 140.164 142.885 139.213 141.248C138.486 140.081 137.856 138.857 137.329 137.588C137.287 137.466 137.239 137.346 137.184 137.229C135.887 140.969 134.911 144.99 135.449 149.299L135.684 151.168L134.316 149.871C132.322 147.992 130.571 145.526 128.864 143.14C126.336 139.604 123.727 135.958 120.435 134.298C121.312 138.743 123.442 151.095 123.442 154.336V157.723L122.143 154.595C116.494 140.955 105.308 132.391 101.239 129.83C101.63 130.851 102.128 132.025 102.674 133.314C106.036 141.245 111.115 153.231 107.584 165.104L107.116 166.688L106.342 165.228C98.2545 149.924 76.2243 137.229 59.8514 138.017C70.5261 144.638 92.9987 164.377 92.9987 170.574V171.695L92.0019 171.174C72.3606 160.777 37.1505 161.086 26.4952 165.787C38.4754 166.978 69.8259 175.877 76.4902 181.633L78.3706 183.257L75.9287 182.807C60.1806 179.92 40.4027 181.836 31.5186 185.536C38.5916 187.725 49.8544 192.728 53.502 196.381L54.5823 197.462L53.0536 197.532C45.7451 197.864 30.9968 200.193 25.6309 204.385C30.3354 205.111 38.8107 207.682 43.4826 210.607L44.619 211.318L43.3695 211.808C36.5788 214.47 25.8103 221.569 16.5716 229.477C6.7978 237.841 0.955949 245.154 1.36158 248.557C1.58783 250.533 4.68405 254.661 22.8863 260.104C34.9175 263.703 51.3037 267.234 70.2642 270.315C84.3939 272.61 101.029 275.757 122.093 279.743C153.562 285.698 192.73 293.113 246.605 302.102C342.498 318.108 421.674 320.477 519.886 310.28L519.985 310.251Z" fill="#232333"/>
<path d="M95.5547 180.855C96.262 180.499 96.262 181.207 96.9703 181.207C96.5117 180.934 96.0511 180.667 95.5873 180.405C95.5771 180.555 95.567 180.705 95.5547 180.855ZM86.7104 183.686H84.2756C84.9901 184.022 86.0225 183.686 86.7104 183.686ZM1070.09 160.421C1069.98 160.388 1069.87 160.358 1069.76 160.331L1070.09 160.421ZM695.563 96.4016C705.676 99.3388 716.136 98.9536 726.793 98.6468L695.563 96.4016Z" fill="#96BA17"/>
<path d="M317.031 239.428C300.987 241.424 286.927 254.375 268.953 253.643C268.029 255.68 268.421 258.201 268.421 260.727C285.638 259.728 301.841 268.837 319.057 269.852C330.197 270.85 341.337 271.881 350.454 265.797C361.593 259.711 377.797 260.727 378.81 255.653C381.847 232.332 337.287 236.387 317.031 239.428Z" fill="#5A7F08"/>
<path d="M554.658 252.782C550.534 251.252 546.265 250.142 541.917 249.472C532.787 249.375 523.724 250.905 514.912 255.506C517.169 262.316 523.042 260.274 526.209 262.316C536.145 270.491 546.535 260.956 555.569 256.185C556.465 256.185 555.11 252.782 554.658 252.782Z" fill="#6E9616"/>
<path d="M1083.18 234.068C1082.09 235.977 1082.33 238.609 1082.92 239.198C1098.11 244.268 1122.42 247.312 1132.55 236.153C1116.42 227.075 1100.3 230.043 1083.18 234.068Z" fill="#5A7F08"/>
<path d="M525.638 312.093L525.824 311.168C504.199 306.844 475.617 296.304 475.325 296.198C475.331 296.201 498.484 307.123 525.638 312.093Z" fill="#39520A"/>
<path d="M225.644 187.865C225.644 187.865 152.884 172.774 127.458 183.839C102.031 194.904 74.8218 225.685 109.012 232.744C143.203 239.804 244.285 245.886 230.697 231.922C217.108 217.959 263.11 208.258 254.648 199.764C246.186 191.272 232.02 189.089 225.644 187.865Z" fill="#96BA17"/>
<path d="M945.429 188.237C936.732 184.302 911.182 184.578 900.246 191.896C889.308 199.216 869.085 198.078 870.487 219.177C871.889 240.276 903.896 225.645 919.326 234.634C934.755 243.623 951.613 237.169 955.822 228.735C960.035 217.467 954.134 192.17 945.429 188.237Z" fill="#999999"/>
<path d="M918.904 225.94C921.923 230.046 925.881 233.842 932.413 235.422C938.944 237.002 945.994 232.684 950.522 225.169C943.027 229.243 924.518 227.94 918.904 225.94ZM923.836 218.349C928.315 221.402 944.315 228.954 957.21 219.855C956.518 210.44 954.85 200.114 952.226 197.053C949.471 201.48 942.312 216.129 923.836 218.349Z" fill="#898888"/>
<path d="M900.24 191.89C890.176 198.607 872.305 198.211 870.564 214.466C890.097 224.883 916.527 219.617 930.836 203.697C935.53 199.064 938.745 193.143 940.075 186.683C928.913 184.574 909.429 185.755 900.24 191.89Z" fill="#ADADAD"/>
<path d="M870.563 214.466C879.568 215.923 892.182 215.87 897.558 213.841C902.933 211.811 905.478 208.877 905.316 205.736C903.89 201.903 898.571 192.691 898.571 192.691C894.731 194.738 869.763 200.889 870.563 214.466Z" fill="#B5B5B5"/>
<path d="M897.561 220.381C913.817 222.46 927.575 227.624 939.632 223.794C931.115 223.075 922.954 220.051 916.023 215.048C910.271 218 904.002 219.811 897.561 220.381Z" fill="#ADADAD"/>
<path d="M892.385 219.842C892.385 219.842 904.093 222.46 916.831 215.541L915.97 214.097C904.469 220.976 892.511 219.849 892.385 219.842Z" fill="#4F4F4F"/>
<path d="M945.784 187.465C942.186 185.838 935.684 184.873 928.382 184.873C916.388 184.873 905.7 187.236 899.77 191.194C896.779 193.191 893.085 194.541 889.178 195.955C879.543 199.465 868.579 203.443 869.645 219.213C870.446 231.264 880.995 232.272 890.815 232.272C892.5 232.272 894.224 232.242 895.959 232.205C897.693 232.169 899.487 232.138 901.248 232.138C907.251 232.138 914.046 232.521 918.907 235.352C923.815 238.24 929.401 239.775 935.096 239.803C944.595 239.803 953.426 235.402 956.605 229.017C960.864 217.66 955.3 191.773 945.784 187.465ZM955.087 228.339C952.655 233.2 945.017 238.121 935.113 238.121C929.713 238.089 924.418 236.627 919.767 233.885C914.58 230.867 907.806 230.448 901.265 230.448C899.494 230.448 897.71 230.485 895.949 230.514C894.188 230.545 892.51 230.582 890.836 230.582C878.975 230.582 871.981 228.705 871.346 219.1C870.38 204.595 879.795 201.165 889.773 197.538C893.6 196.148 897.557 194.707 900.736 192.594C907.407 188.141 919.405 186.56 928.415 186.56C935.491 186.56 941.735 187.471 945.127 189.002C952.99 192.575 959.213 217.254 955.071 228.339H955.087Z" fill="#4F4F4F"/>
<path d="M945.431 188.237C936.734 184.302 911.184 184.578 900.248 191.896C899.968 192.083 899.673 192.259 899.38 192.443C902.254 201.372 908.576 211.738 922.703 218.319C934.883 219.041 947.238 208.152 952.219 196.408C950.318 192.422 948.003 189.398 945.431 188.237Z" fill="#898888"/>
<path d="M900.24 191.89C899.96 192.077 899.665 192.253 899.372 192.436C900.662 196.467 902.543 200.285 904.954 203.764C909.416 208.804 914.588 212.081 919.044 208.754C927.47 203.694 937.576 205.377 942.633 198.634C945.813 195.446 946.317 190.919 943.732 187.585C933.772 184.365 910.538 185.013 900.24 191.89Z" fill="#B5B5B5"/>
<path d="M945.783 187.465C942.185 185.838 935.683 184.873 928.381 184.873C916.387 184.873 905.699 187.236 899.769 191.194C899.5 191.378 899.221 191.547 898.934 191.717L898.373 192.049L898.572 192.681C902.423 204.629 910.42 213.508 922.337 219.067L922.646 219.147C923.049 219.17 923.447 219.18 923.843 219.18C936.587 219.18 948.372 207.606 952.99 196.72L953.135 196.367L952.976 196.035C950.86 191.597 948.378 188.639 945.783 187.465ZM922.902 217.48C911.715 212.217 904.134 203.916 900.379 192.801L900.712 192.594C907.383 188.141 919.381 186.56 928.391 186.56C935.467 186.56 941.709 187.471 945.102 189.002C947.262 189.98 949.401 192.546 951.302 196.42C946.664 206.977 935.105 218.115 922.902 217.48Z" fill="#4F4F4F"/>
<path d="M918.904 217.314C932.273 225.156 940.772 223.935 940.772 223.935C940.691 223.935 932.714 223.469 919.758 215.857L918.904 217.314Z" fill="#4F4F4F"/>
<path d="M1062.49 193.407C1053.79 189.472 1028.24 189.747 1017.31 197.067C1006.37 204.386 986.145 203.251 987.547 224.348C988.95 245.443 1020.96 230.814 1036.39 239.804C1051.82 248.793 1068.67 242.339 1072.88 233.908C1077.11 222.633 1071.2 197.336 1062.49 193.407Z" fill="#999999"/>
<path d="M1035.97 231.108C1039 235.213 1042.95 239.009 1049.48 240.589C1056.02 242.17 1063.06 237.851 1067.59 230.335C1060.09 234.411 1041.59 233.107 1035.97 231.108ZM1040.89 223.515C1045.38 226.569 1061.38 234.121 1074.27 225.022C1073.58 215.607 1071.92 205.281 1069.29 202.219C1066.53 206.648 1059.38 221.296 1040.89 223.515Z" fill="#898888"/>
<path d="M1017.31 197.056C1007.25 203.774 989.375 203.377 987.633 219.633C1007.17 230.053 1033.59 224.786 1047.9 208.863C1052.6 204.228 1055.81 198.308 1057.15 191.849C1045.98 189.744 1026.5 190.932 1017.31 197.056Z" fill="#ADADAD"/>
<path d="M987.632 219.633C996.636 221.09 1009.25 221.036 1014.63 219.007C1020 216.978 1022.55 214.047 1022.38 210.906C1020.96 207.074 1015.64 197.858 1015.64 197.858C1011.8 199.914 986.832 206.059 987.632 219.633Z" fill="#B5B5B5"/>
<path d="M1014.63 225.551C1030.88 227.627 1044.64 232.79 1056.7 228.964C1048.18 228.24 1040.02 225.213 1033.09 220.208C1027.34 223.165 1021.07 224.98 1014.63 225.551Z" fill="#ADADAD"/>
<path d="M1009.46 225.009C1009.46 225.009 1021.16 227.627 1033.9 220.707L1033.04 219.264C1021.54 226.143 1009.58 225.016 1009.46 225.009Z" fill="#4F4F4F"/>
<path d="M1062.84 192.635C1059.25 191.004 1052.75 190.04 1045.45 190.04C1033.45 190.04 1022.76 192.402 1016.83 196.361C1013.84 198.358 1010.15 199.708 1006.24 201.122C996.608 204.635 985.643 208.615 986.71 224.38C987.51 236.434 998.059 237.442 1007.88 237.442C1009.56 237.442 1011.29 237.408 1013.02 237.371C1014.76 237.336 1016.55 237.305 1018.31 237.305C1024.32 237.305 1031.11 237.688 1035.97 240.518C1040.88 243.408 1046.47 244.945 1052.16 244.973C1061.66 244.973 1070.49 240.568 1073.67 234.184C1077.93 222.83 1072.36 196.94 1062.84 192.635ZM1072.13 233.516C1069.69 238.376 1062.05 243.297 1052.15 243.297C1046.75 243.268 1041.46 241.806 1036.81 239.062C1031.62 236.044 1024.84 235.625 1018.3 235.625C1016.53 235.625 1014.75 235.662 1012.99 235.692C1011.23 235.721 1009.55 235.758 1007.87 235.758C996.012 235.758 989.019 233.882 988.385 224.277C987.418 209.775 996.834 206.342 1006.81 202.716C1010.64 201.324 1014.59 199.884 1017.77 197.772C1024.44 193.317 1036.44 191.74 1045.45 191.74C1052.53 191.74 1058.77 192.651 1062.16 194.182C1070.05 197.742 1076.28 222.421 1072.13 233.516Z" fill="#4F4F4F"/>
<path d="M1062.49 193.407C1053.79 189.472 1028.24 189.747 1017.31 197.067C1017.03 197.256 1016.73 197.432 1016.44 197.612C1019.32 206.542 1025.64 216.908 1039.76 223.488C1051.94 224.211 1064.3 213.322 1069.28 201.581C1067.39 197.585 1065.07 194.565 1062.49 193.407Z" fill="#898888"/>
<path d="M1017.31 197.056C1017.03 197.246 1016.73 197.422 1016.44 197.603C1017.73 201.633 1019.61 205.45 1022.02 208.931C1026.48 213.973 1031.66 217.247 1036.11 213.92C1044.54 208.86 1054.64 210.544 1059.71 203.8C1062.88 200.613 1063.39 196.088 1060.8 192.751C1050.84 189.531 1027.6 190.18 1017.31 197.056Z" fill="#B5B5B5"/>
<path d="M1062.86 192.635C1059.26 191.004 1052.76 190.04 1045.45 190.04C1033.45 190.04 1022.77 192.402 1016.84 196.361C1016.57 196.545 1016.29 196.714 1016 196.884L1015.44 197.216L1015.64 197.848C1019.49 209.795 1027.48 218.675 1039.4 224.234L1039.71 224.314C1040.12 224.337 1040.52 224.35 1040.91 224.35C1053.65 224.35 1065.44 212.773 1070.06 201.887L1070.2 201.534L1070.04 201.202C1067.93 196.771 1065.44 193.806 1062.86 192.635ZM1039.96 222.646C1028.78 217.388 1021.2 209.083 1017.45 197.968C1017.56 197.901 1017.66 197.829 1017.78 197.761C1024.45 193.307 1036.45 191.73 1045.46 191.73C1052.53 191.73 1058.78 192.641 1062.16 194.172C1064.33 195.15 1066.48 197.712 1068.37 201.587C1063.73 212.144 1052.17 223.285 1039.96 222.646Z" fill="#4F4F4F"/>
<path d="M1035.97 222.483C1049.34 230.325 1057.84 229.104 1057.84 229.104C1057.76 229.104 1049.78 228.635 1036.83 221.023L1035.97 222.483Z" fill="#4F4F4F"/>
<path d="M1038.96 203.88C1030.38 195.895 1009.06 192.901 998.474 192.296C989.7 185.309 969.569 179.713 953.403 196.491C937.236 213.268 934.053 237.279 937.648 245.242C941.243 253.207 953.004 250.612 959.782 254.807C966.56 259.003 973.141 260.396 986.311 256.404C999.481 252.412 1030.19 260.198 1049.33 250.612C1051.92 239.228 1047.54 211.868 1038.96 203.88Z" fill="#898888"/>
<path d="M1038.96 203.88C1030.38 195.895 1009.06 192.901 998.473 192.296C989.698 185.309 969.567 179.713 953.401 196.491C946.73 203.414 942.275 211.571 939.594 219.326C939.808 220.533 940.302 221.672 941.036 222.654C944.623 226.246 948.215 220.255 952.995 219.057C954.188 222.654 956.584 226.246 958.976 226.246C978.173 227.314 993.565 239.806 1003.46 255.236C1018.01 255.623 1036.33 257.12 1049.31 250.612C1051.92 239.228 1047.54 211.868 1038.96 203.88Z" fill="#ADADAD"/>
<path d="M1039.37 203.44C1029.07 193.859 1002.56 191.94 998.695 191.707C993.239 187.425 985.518 184.876 977.994 184.876C968.674 184.876 960.026 188.746 952.973 196.075C936.158 213.531 933.67 237.874 937.099 245.489C939.424 250.639 944.929 251.614 950.258 252.559C953.531 253.141 956.923 253.74 959.471 255.317C964.07 258.161 968.11 259.376 972.944 259.376C976.734 259.376 981.166 258.59 986.482 256.977C989.259 256.135 992.974 255.759 998.523 255.759C1001.62 255.759 1004.94 255.872 1008.45 255.992C1012.28 256.122 1016.25 256.258 1020.27 256.258C1029.17 256.258 1040.54 255.677 1049.6 251.148L1049.85 251.022L1049.91 250.746C1052.5 239.391 1048.26 211.731 1039.37 203.44ZM1048.81 250.204C1040.03 254.505 1028.96 255.061 1020.27 255.061C1016.28 255.061 1012.3 254.924 1008.49 254.795C1004.96 254.675 1001.64 254.562 998.519 254.562C992.844 254.562 989.02 254.951 986.13 255.829C980.927 257.409 976.612 258.178 972.94 258.178C968.332 258.178 964.492 257.017 960.096 254.296C957.355 252.602 953.847 251.967 950.461 251.378C945.211 250.449 940.248 249.568 938.185 244.997C934.863 237.631 937.384 213.984 953.83 196.906C960.651 189.817 969.01 186.075 977.99 186.075C986.628 186.075 994.037 189.528 998.097 192.765L998.243 192.885H998.433C1009.45 193.507 1030.29 196.617 1038.55 204.309C1046.96 212.144 1051.15 239.171 1048.81 250.204Z" fill="#4F4F4F"/>
<path d="M1038.96 203.88C1030.38 195.896 1009.06 192.901 998.471 192.296C991.221 186.52 976.211 181.713 962.095 189.681C966.158 206.342 980.232 229.806 1012.54 237.235C1026.26 238.526 1039.45 233.666 1048.3 225.851C1046.47 216.635 1043.22 207.855 1038.96 203.88Z" fill="#A3A3A3"/>
<path d="M1007.61 193.177C1001.96 194.062 996.312 195.553 991.292 198.687C986.508 201.085 980.527 193.896 973.351 193.896C980.07 190.047 989.874 195.453 996.575 190.928C988.807 185.828 975.073 182.352 962.099 189.681C965.258 202.656 974.485 219.715 993.631 230.162C1000.77 229.985 1007.74 231.343 1014.03 228.642C1016.43 227.444 1018.82 225.049 1017.62 221.452C1015.23 213.065 1009.25 211.868 1002.07 208.271C1008.05 202.283 1016.43 211.868 1018.82 207.074C1021.21 202.28 1027.19 203.477 1028.4 198.687C1028.4 198.438 1028.38 198.191 1028.35 197.945C1021.86 195.556 1014.2 194.049 1007.61 193.177Z" fill="#B5B5B5"/>
<path d="M1039.37 203.44C1029.07 193.859 1002.56 191.939 998.697 191.707C993.251 187.431 985.527 184.883 978.012 184.883C972.329 184.87 966.742 186.344 961.805 189.158L961.41 189.381L961.516 189.82C963.712 198.843 973.875 228.961 1012.48 237.831C1013.96 237.971 1015.47 238.04 1016.95 238.04C1028.67 238.04 1040.25 233.761 1048.71 226.299L1048.96 226.073L1048.89 225.741C1046.79 215.247 1043.32 207.121 1039.37 203.44ZM1016.95 236.842C1015.5 236.842 1014.03 236.776 1012.67 236.653C975.417 228.086 965.16 199.335 962.792 189.977C967.453 187.409 972.69 186.069 978.012 186.081C986.649 186.081 994.042 189.534 998.102 192.765L998.248 192.885H998.438C1009.45 193.507 1030.29 196.617 1038.55 204.309C1042.29 207.785 1045.59 215.541 1047.66 225.621C1039.43 232.761 1028.27 236.842 1016.95 236.842Z" fill="#4F4F4F"/>
<path d="M936.922 243.021C937.094 243.782 937.336 244.526 937.646 245.244C941.231 253.207 953.003 250.612 959.78 254.808C966.558 259.003 973.139 260.397 986.309 256.404C999.479 252.412 1030.19 260.198 1049.33 250.612C1050.64 244.884 1050.17 235.113 1048.3 225.798C1001.58 202.785 956.906 221.173 936.922 243.021Z" fill="#898888"/>
<path d="M942.603 237.508C943.727 239.266 945.236 240.745 947.015 241.833C954.195 244.231 961.374 243.031 967.362 238.24C972.149 234.643 975.734 240.635 978.129 245.429C981.721 252.619 991.293 251.417 996.07 246.626C1003.25 241.833 994.877 235.842 988.891 233.445C998.462 228.651 1006.83 228.651 1017.61 227.457C1022.59 226.742 1028.02 223.885 1032.09 219.417C995.445 208.327 961.793 220.77 942.603 237.508Z" fill="#999999"/>
<path d="M1048.83 225.392L1048.57 225.259C1034.18 218.172 1019.16 214.579 1003.93 214.579C973.111 214.579 948.877 229.061 936.485 242.615L936.269 242.847L936.339 243.157C936.521 243.955 936.776 244.735 937.1 245.486C939.425 250.636 944.931 251.611 950.259 252.556C953.532 253.138 956.924 253.737 959.472 255.314C964.071 258.158 968.111 259.372 972.945 259.372C976.735 259.372 981.167 258.587 986.483 256.974C989.26 256.132 992.975 255.756 998.524 255.756C1001.62 255.756 1004.94 255.869 1008.45 255.99C1012.28 256.119 1016.26 256.256 1020.27 256.256C1029.17 256.256 1040.54 255.673 1049.61 251.145L1049.85 251.019L1049.92 250.743C1051.22 245.06 1050.81 235.219 1048.88 225.678L1048.83 225.392ZM1048.81 250.204C1040.03 254.506 1028.96 255.061 1020.27 255.061C1016.28 255.061 1012.3 254.924 1008.49 254.795C1004.96 254.675 1001.64 254.562 998.521 254.562C992.846 254.562 989.022 254.951 986.131 255.829C980.928 257.409 976.613 258.178 972.942 258.178C968.333 258.178 964.493 257.017 960.097 254.296C957.357 252.602 953.848 251.967 950.462 251.378C945.213 250.449 940.249 249.568 938.186 244.997C937.935 244.412 937.731 243.808 937.575 243.191C949.868 229.883 973.672 215.777 1003.93 215.777C1018.88 215.777 1033.63 219.283 1047.76 226.203C1049.58 235.349 1049.98 244.691 1048.81 250.204Z" fill="#4F4F4F"/>
<path d="M1038.96 203.88C1038.86 203.797 1038.77 203.716 1038.68 203.637C1027.66 207.09 1015.59 213.934 1009.25 224.45C1002.04 236.39 987.421 245.23 982.334 257.49C983.672 257.162 985.002 256.8 986.321 256.405C999.485 252.412 1030.2 260.197 1049.35 250.612C1051.92 239.228 1047.54 211.868 1038.96 203.88Z" fill="#898888"/>
<path d="M1038.96 203.88C1038.87 203.797 1038.78 203.716 1038.68 203.637C1027.66 207.09 1015.59 213.934 1009.25 224.45C1003.99 233.16 994.803 240.226 988.234 248.164C991.254 248.364 994.285 248.253 997.281 247.831C998.475 246.633 999.671 245.436 1000.87 244.238C1012.83 238.25 1026 251.428 1037.97 244.238C1044.61 240.912 1047.93 233.14 1048.14 225.039C1046.26 216.113 1043.1 207.736 1038.96 203.88Z" fill="#999999"/>
<path d="M1005.19 237.442C1012.67 236.653 1026.99 241.846 1035.97 238.04C1044.95 234.234 1045.51 215.993 1038.36 207.876C1019.21 210.467 1012.3 232.661 1005.19 237.442Z" fill="#898888"/>
<path d="M1039.36 203.437L1038.82 202.964L1038.49 203.064C1025.12 207.256 1014.27 214.939 1008.72 224.141C1005.53 229.43 1000.77 234.198 996.174 238.805C990.497 244.497 984.616 250.386 981.759 257.256L981.307 258.351L982.453 258.072C983.802 257.745 985.142 257.38 986.47 256.977C989.248 256.135 992.962 255.759 998.51 255.759C1001.6 255.759 1004.93 255.872 1008.44 255.992C1012.27 256.122 1016.24 256.258 1020.25 256.258C1029.16 256.258 1040.53 255.676 1049.59 251.148L1049.84 251.022L1049.9 250.746C1052.5 239.391 1048.26 211.731 1039.36 203.437ZM1048.8 250.204C1040.03 254.504 1028.96 255.061 1020.26 255.061C1016.28 255.061 1012.29 254.924 1008.48 254.794C1004.96 254.675 1001.63 254.562 998.518 254.562C992.843 254.562 989.019 254.951 986.129 255.829C985.211 256.109 984.297 256.364 983.368 256.607C986.261 250.443 991.504 245.193 997.029 239.64C1001.68 234.982 1006.48 230.166 1009.75 224.749C1015.11 215.867 1025.59 208.424 1038.54 204.298C1046.96 212.144 1051.15 239.171 1048.8 250.204Z" fill="#4F4F4F"/>
<path d="M523.107 243.197C512.246 243.53 501.731 247.885 501.731 254.984C501.731 262.084 512.475 265.853 522.875 266.195C533.273 266.539 553.507 265.863 539.22 250.975C538.763 246.281 533.964 242.851 523.107 243.197Z" fill="#999999"/>
<path d="M523.107 243.197C512.246 243.529 501.731 247.884 501.731 254.983C501.731 262.084 541.516 264.569 527.231 249.691C533.732 247.489 533.964 242.85 523.107 243.197Z" fill="#B5B5B5"/>
<path d="M524.573 242.498C524.088 242.498 523.596 242.498 523.088 242.521C512.124 242.855 501.051 247.259 501.051 254.998C501.051 262.676 512.347 266.552 522.859 266.898C524.004 266.935 525.151 266.954 526.297 266.955C536.816 266.955 542.929 265.124 544.464 261.514C545.65 258.727 544.151 255.174 539.879 250.683C539.474 247.489 536.896 242.498 524.573 242.498ZM543.208 260.963C541.925 263.956 536.078 265.567 526.3 265.567C525.098 265.567 523.951 265.543 522.904 265.507C512.728 265.174 502.426 261.448 502.426 254.985C502.426 248.197 513.094 244.195 523.134 243.879C523.626 243.879 524.104 243.852 524.576 243.852C533.131 243.852 538.095 246.407 538.53 251.046L538.554 251.278L538.716 251.451C542.647 255.533 544.151 258.73 543.208 260.963Z" fill="#4F4F4F"/>
<path d="M520.538 250.726C520.674 250.689 534.113 247.283 539.635 252.426L540.572 251.428C534.501 245.762 520.538 250.726 520.538 250.726Z" fill="#4F4F4F"/>
<path d="M337.028 218.947C328.331 215.012 302.781 215.288 291.845 222.607C280.907 229.926 260.684 228.791 262.086 249.888C263.487 270.983 295.499 256.354 310.924 265.344C326.351 274.333 343.215 267.879 347.424 259.449C351.637 248.174 345.733 222.87 337.028 218.947Z" fill="#999999"/>
<path d="M310.502 256.648C313.526 260.753 317.48 264.553 324.011 266.129C330.543 267.707 337.593 263.392 342.125 255.879C334.626 259.951 316.121 258.648 310.502 256.648ZM315.439 249.056C319.914 252.113 335.915 259.662 348.812 250.562C348.121 241.147 346.453 230.821 343.829 227.761C341.071 232.185 333.915 246.839 315.439 249.056Z" fill="#898888"/>
<path d="M291.84 222.597C281.776 229.314 263.908 228.918 262.168 245.176C281.7 255.593 308.13 250.327 322.439 234.405C327.132 229.773 330.346 223.853 331.675 217.394C320.515 215.284 301.029 216.462 291.84 222.597Z" fill="#ADADAD"/>
<path d="M262.167 245.177C271.167 246.634 283.785 246.578 289.161 244.548C294.536 242.518 297.081 239.587 296.919 236.447C295.493 232.614 290.171 223.399 290.171 223.399C286.334 225.445 261.366 231.6 262.167 245.177Z" fill="#B5B5B5"/>
<path d="M289.16 251.091C305.416 253.167 319.17 258.331 331.231 254.505C322.714 253.783 314.554 250.76 307.622 245.759C301.87 248.71 295.6 250.521 289.16 251.091Z" fill="#ADADAD"/>
<path d="M283.992 250.549C283.992 250.549 295.7 253.167 308.439 246.251L307.574 244.804C296.069 251.688 284.112 250.556 283.992 250.549Z" fill="#4F4F4F"/>
<path d="M337.383 218.175C333.788 216.549 327.283 215.581 319.981 215.581C307.99 215.581 297.302 217.946 291.369 221.901C288.378 223.898 284.684 225.248 280.776 226.666C271.142 230.175 260.178 234.155 261.244 249.92C262.045 261.974 272.594 262.982 282.414 262.982C284.103 262.982 285.823 262.952 287.561 262.916C289.299 262.879 291.089 262.848 292.847 262.848C298.853 262.848 305.648 263.232 310.505 266.06C315.414 268.949 321 270.486 326.695 270.514C336.198 270.514 345.028 266.109 348.204 259.725C352.463 248.37 346.902 222.48 337.383 218.175ZM346.686 259.046C344.251 263.906 336.615 268.827 326.708 268.827C321.309 268.797 316.013 267.336 311.363 264.592C306.176 261.574 299.402 261.156 292.861 261.156C291.089 261.156 289.309 261.192 287.545 261.222C285.781 261.252 284.106 261.288 282.432 261.288C270.574 261.288 263.58 259.412 262.942 249.811C261.979 235.305 271.391 231.872 281.372 228.246C285.199 226.856 289.153 225.414 292.318 223.302C298.993 218.851 310.991 217.27 319.997 217.27C327.077 217.27 333.316 218.182 336.709 219.712C344.589 223.282 350.815 247.961 346.673 259.046H346.686Z" fill="#4F4F4F"/>
<path d="M337.03 218.947C328.333 215.012 302.783 215.288 291.847 222.607C291.568 222.796 291.272 222.973 290.979 223.152C293.857 232.082 300.175 242.449 314.302 249.029C326.485 249.751 338.841 238.862 343.821 227.122C341.921 223.133 339.606 220.109 337.03 218.947Z" fill="#898888"/>
<path d="M291.839 222.597C291.559 222.787 291.264 222.963 290.971 223.143C292.261 227.175 294.142 230.994 296.553 234.474C301.018 239.515 306.187 242.791 310.643 239.465C319.069 234.405 329.175 236.087 334.232 229.344C337.411 226.156 337.913 221.632 335.328 218.299C325.371 215.072 302.141 215.72 291.839 222.597Z" fill="#B5B5B5"/>
<path d="M337.382 218.175C333.787 216.549 327.282 215.581 319.98 215.581C307.989 215.581 297.301 217.946 291.368 221.901C291.102 222.085 290.822 222.254 290.537 222.424L289.972 222.756L290.171 223.388C294.026 235.335 302.019 244.218 313.939 249.775L314.249 249.854C314.647 249.877 315.049 249.891 315.441 249.891C328.186 249.891 339.974 238.313 344.588 227.427L344.734 227.075L344.578 226.742C342.465 222.311 339.98 219.346 337.382 218.175ZM314.505 248.188C303.318 242.928 295.736 234.624 291.979 223.509C292.088 223.441 292.198 223.369 292.311 223.302C298.986 218.851 310.982 217.27 319.99 217.27C327.069 217.27 333.309 218.182 336.701 219.712C338.861 220.691 341.003 223.252 342.901 227.128C338.262 237.684 326.707 248.82 314.505 248.188Z" fill="#4F4F4F"/>
<path d="M310.502 248.024C323.872 255.865 332.371 254.644 332.371 254.644C332.29 254.644 324.317 254.175 311.36 246.567L310.502 248.024Z" fill="#4F4F4F"/>
<path d="M713.438 140.047C713.438 140.047 615.047 135.04 572.986 140.047C530.924 145.054 346.892 165.374 384.063 189.9C421.234 214.425 548.6 183.782 584.986 197.451C621.373 211.121 894.746 230.293 868.819 197.451C842.891 164.609 759.633 141.754 713.438 140.047Z" fill="#96BA17"/>
<path d="M436.709 205.384C440.23 177.916 453.364 159.805 460.746 148.826C440.612 156.279 431.642 180.639 427.669 191.181C427.11 171.38 434.931 143.816 440.021 134.581C416.841 150.663 414.837 185.536 415.635 197.659C411.931 186.613 405.581 174.021 401.388 173.914C404.521 184.518 407.269 204.189 406.003 210.56C401.591 203.111 394.139 191.793 386.618 191.085C393.926 200.187 399.163 225.73 399.163 225.73L450.37 221.593C450.37 221.593 444.519 204.745 461.125 187.119C450.878 191.151 441.901 199.019 436.709 205.384Z" fill="#72A314"/>
<path d="M436.709 205.384C440.23 177.916 453.364 159.805 460.746 148.826C440.612 156.279 431.642 180.639 427.669 191.181C427.11 171.38 434.931 143.816 440.021 134.581C416.841 150.663 414.837 185.536 415.635 197.659C411.931 186.613 405.581 174.021 401.388 173.914C404.521 184.518 407.269 204.189 406.003 210.56C401.591 203.111 394.139 191.793 386.618 191.085C393.926 200.187 399.163 225.73 399.163 225.73L450.37 221.593C450.37 221.593 444.519 204.745 461.125 187.119C450.878 191.151 441.901 199.019 436.709 205.384Z" fill="#96BA17"/>
<path d="M431.661 218.033C435.182 190.562 443.664 170.169 451.046 159.2C435.345 172.601 430.983 194.588 427.009 205.111C426.451 185.313 426.371 158.747 431.461 149.508C417.121 167.504 417.537 199.977 418.334 212.1C414.629 201.056 410.414 185.602 406.221 185.486C409.354 196.088 409.503 211.642 408.237 218.006C403.825 210.557 400.417 198.93 392.892 198.224C400.201 207.323 399.16 225.704 399.16 225.704L450.368 221.565C450.368 221.565 439.129 210.563 455.734 192.954C445.488 197 436.853 211.665 431.661 218.033Z" fill="#72A314"/>
<path d="M437.478 203.65C441.093 178.782 452.403 162.091 459.948 150.959C460.376 150.327 460.787 149.716 461.184 149.126L462.104 147.762L460.562 148.331C441.781 155.284 432.518 177.011 428.172 188.354C428.362 169.161 435.482 143.926 440.486 134.841L441.575 132.844L439.718 134.131C429.585 141.164 422.388 152.376 418.325 167.457C416.021 176.187 414.89 185.186 414.963 194.215C411.487 184.92 405.777 173.498 401.391 173.389L400.664 173.369L400.87 174.071C403.69 183.605 406.338 201.514 405.673 209.003C398.457 197.123 392.228 191.088 386.656 190.565L385.407 190.446L386.191 191.425C393.344 200.324 399.62 225.378 399.67 225.631C399.464 224.633 394.71 201.677 387.833 191.846C395.454 193.82 402.975 206.511 405.537 210.837L406.245 212.031L406.514 210.67C407.78 204.296 405.152 185.363 402.131 174.62C405.899 176.103 411.54 187.165 415.123 197.835L416.421 201.708L416.155 197.632C416.039 195.882 413.684 155.477 438.535 136.324C433.319 147.363 426.608 172.787 427.129 191.201L427.203 193.893L428.298 190.988C432.069 180.984 440.761 157.918 459.33 149.964L459.061 150.363C451.751 161.149 439.518 179.201 436.173 205.321L435.937 207.16L437.11 205.723C441.734 200.067 449.795 192.785 459.12 188.546C451.731 197.13 449.512 205.371 448.983 210.919C448.366 217.378 449.798 221.599 449.858 221.775C449.604 218.174 449.666 214.557 450.043 210.966C450.602 205.208 453.034 196.461 461.499 187.488L463.127 185.762L460.921 186.63C451.263 190.429 442.715 197.665 437.478 203.65Z" fill="#39520A"/>
<path d="M659.889 268.597C663.407 241.126 676.544 223.018 683.926 212.039C663.793 219.494 654.822 243.854 650.849 254.393C650.291 234.595 658.112 207.032 663.201 197.793C640.022 213.879 638.018 248.748 638.815 260.874C635.107 249.826 628.759 237.234 624.569 237.131C627.702 247.733 630.447 267.405 629.184 273.773C624.772 266.327 617.32 255.006 609.794 254.301C617.104 263.4 622.343 288.943 622.343 288.943L673.55 284.808C673.55 284.808 667.7 267.958 684.305 250.332C674.066 254.361 665.089 262.229 659.889 268.597Z" fill="#72A314"/>
<path d="M659.889 268.597C663.407 241.126 676.544 223.018 683.926 212.039C663.793 219.494 654.822 243.854 650.849 254.393C650.291 234.595 658.112 207.032 663.201 197.793C640.022 213.879 638.018 248.748 638.815 260.874C635.107 249.826 628.759 237.234 624.569 237.131C627.702 247.733 630.447 267.405 629.184 273.773C624.772 266.327 617.32 255.006 609.794 254.301C617.104 263.4 622.343 288.943 622.343 288.943L673.55 284.808C673.55 284.808 667.7 267.958 684.305 250.332C674.066 254.361 665.089 262.229 659.889 268.597Z" fill="#96BA17"/>
<path d="M654.849 281.244C658.371 253.775 666.849 233.377 674.232 222.409C658.531 235.813 654.172 257.796 650.195 268.337C649.636 248.538 649.557 221.973 654.646 212.734C640.31 230.73 640.723 263.203 641.523 275.329C637.815 264.284 633.599 248.828 629.407 248.715C632.543 259.317 632.689 274.871 631.427 281.234C627.014 273.786 623.602 262.158 616.08 261.453C623.39 270.555 622.35 288.933 622.35 288.933L673.557 284.798C673.557 284.798 662.315 273.802 678.92 256.17C668.676 260.209 660.042 274.877 654.849 281.244Z" fill="#72A314"/>
<path d="M660.665 266.859C664.277 241.991 675.588 225.299 683.13 214.168C683.559 213.536 683.974 212.927 684.37 212.339L685.29 210.971L683.745 211.543C664.968 218.493 655.705 240.224 651.359 251.562C651.548 232.369 658.668 207.135 663.671 198.049L664.761 196.053L662.904 197.344C652.771 204.374 645.571 215.586 641.508 230.666C639.211 239.393 638.085 248.387 638.16 257.411C634.68 248.115 628.97 236.695 624.587 236.585H623.857L624.066 237.284C626.883 246.821 629.534 264.727 628.867 272.216C621.653 260.335 615.424 254.301 609.849 253.778L608.6 253.662L609.388 254.64C616.54 263.535 622.813 288.574 622.866 288.843C622.66 287.845 617.906 264.89 611.025 255.062C618.667 257.032 626.169 269.727 628.733 274.052L629.438 275.243L629.711 273.882C630.973 267.511 628.348 248.575 625.325 237.832C629.096 239.316 634.737 250.378 638.319 261.048L639.618 264.923L639.349 260.845C639.232 259.094 636.88 218.689 661.731 199.536C656.512 210.576 649.804 236 650.322 254.43L650.399 257.122L651.495 254.217C655.266 244.21 663.958 221.144 682.526 213.19L682.254 213.592C674.944 224.378 662.714 242.429 659.365 268.55L659.13 270.389L660.303 268.952C664.927 263.28 672.991 256.01 682.313 251.772C674.928 260.356 672.708 268.595 672.177 274.149C671.562 280.606 672.994 284.825 673.054 285.001C672.8 281.399 672.861 277.783 673.236 274.192C673.798 268.437 676.226 259.69 684.696 250.714L686.32 248.991L684.118 249.855C674.449 253.641 665.901 260.874 660.665 266.859Z" fill="#39520A"/>
</g>
<defs>
<clipPath id="clip0_5_1597">
<rect width="1170" height="329.19" fill="white"/>
</clipPath>
</defs>
</svg>
