<svg width="79" height="79" viewBox="0 0 79 79" fill="none" xmlns="http://www.w3.org/2000/svg">
<g clip-path="url(#clip0_5_8085)">
<g clip-path="url(#clip1_5_8085)">
<g clip-path="url(#clip2_5_8085)">
<g clip-path="url(#clip3_5_8085)">
<mask id="mask0_5_8085" style="mask-type:luminance" maskUnits="userSpaceOnUse" x="0" y="0" width="79" height="79">
<path d="M6.61523 0.749023L78.4011 6.75182L72.3983 78.5377L0.612437 72.5349L6.61523 0.749023Z" fill="white"/>
</mask>
<g mask="url(#mask0_5_8085)">
<path d="M25.0327 15.137L40.7391 16.4503C43.4099 11.5978 47.7064 7.85239 47.745 7.7889C48.4247 7.2526 48.667 6.38317 48.3979 5.55623C48.2729 5.15845 48.0326 4.80676 47.7074 4.54577C47.3822 4.28477 46.9869 4.12624 46.5715 4.09027C42.7862 3.77374 40.6129 4.94788 38.8806 5.90401C37.3236 6.79048 36.1255 7.45303 33.601 7.24193C31.0775 7.03091 30.0051 6.17851 28.6179 5.04584C27.0684 3.81527 25.1203 2.29744 21.3341 1.98083C20.9187 1.94756 20.5029 2.03825 20.1391 2.24144C19.7753 2.44462 19.48 2.75116 19.2905 3.12225C18.8878 3.89301 18.9814 4.79053 19.5635 5.43234C19.5911 5.50137 23.205 9.9073 25.0327 15.137ZM43.3419 69.7551L42.9901 73.961C42.9435 74.5187 43.1203 75.0722 43.4817 75.4995C43.8431 75.9269 44.3595 76.1932 44.9173 76.2398L70.2954 78.362C70.8532 78.4086 71.4066 78.2318 71.8339 77.8704C72.2613 77.509 72.5276 76.9926 72.5742 76.4349L72.9259 72.2289C72.9726 71.6712 72.7957 71.1178 72.4343 70.6904C72.0729 70.2631 71.5566 69.9968 70.9988 69.9501L45.6207 67.828C45.0629 67.7813 44.5095 67.9582 44.0821 68.3196C43.6548 68.681 43.3885 69.1973 43.3419 69.7551ZM73.6285 63.8161L73.9802 59.6102C74.0034 59.3339 73.972 59.0559 73.8877 58.7918C73.8034 58.5277 73.6679 58.2828 73.489 58.0711C73.31 57.8594 73.0911 57.685 72.8447 57.5579C72.5984 57.4309 72.3294 57.3536 72.0532 57.3305L46.6759 55.2084C46.3997 55.1853 46.1216 55.2168 45.8575 55.3012C45.5935 55.3856 45.3487 55.5212 45.137 55.7003C44.9254 55.8793 44.7511 56.0983 44.6242 56.3447C44.4972 56.5911 44.42 56.8602 44.397 57.1364L44.0453 61.3423C44.0222 61.6185 44.0538 61.8965 44.1381 62.1605C44.2225 62.4245 44.358 62.6692 44.5369 62.8809C44.7159 63.0925 44.9348 63.2667 45.1811 63.3938C45.4274 63.5208 45.6963 63.5981 45.9724 63.6211L71.3506 65.7433C71.9083 65.7899 72.4618 65.6131 72.8891 65.2517C73.3165 64.8903 73.5818 64.3738 73.6285 63.8161Z" fill="white"/>
<path d="M45.7058 38.2702C41.9222 33.8872 38.8426 30.1849 38.6201 24.7447L40.597 24.91C40.8737 24.9359 41.1527 24.9063 41.4179 24.823C41.683 24.7397 41.9288 24.6044 42.141 24.4249C42.3532 24.2455 42.5275 24.0255 42.6537 23.7779C42.7798 23.5303 42.8553 23.26 42.8758 22.9829C42.9016 22.7062 42.8721 22.4271 42.7888 22.162C42.7055 21.8969 42.5702 21.651 42.3907 21.4388C42.2113 21.2266 41.9913 21.0524 41.7437 20.9262C41.4961 20.8 41.2258 20.7245 40.9487 20.7041L24.1241 19.2972C23.8474 19.2713 23.5683 19.3009 23.3032 19.3842C23.0381 19.4675 22.7922 19.6028 22.58 19.7823C22.3678 19.9617 22.1936 20.1817 22.0674 20.4293C21.9412 20.6769 21.8657 20.9472 21.8453 21.2243C21.8194 21.501 21.849 21.7801 21.9323 22.0452C22.0156 22.3103 22.1509 22.5562 22.3303 22.7683C22.5098 22.9805 22.7297 23.1548 22.9773 23.281C23.2249 23.4071 23.4952 23.4827 23.7724 23.5031L25.7492 23.6684C24.6263 28.9961 20.9746 32.1355 16.5156 35.8293C10.0539 41.1749 2.7263 47.2553 1.45663 62.4389C1.07517 67.9982 5.44873 72.9394 11.1272 73.4142L38.855 75.7328C38.6623 75.0382 38.5911 74.3155 38.6443 73.5966L40.0512 56.773C40.193 55.1004 40.9924 53.5524 42.274 52.4684C43.5556 51.3845 45.2148 50.853 46.8877 50.9907L54.4206 51.6206C52.3319 45.9539 48.8672 41.9368 45.7068 38.2694L45.7058 38.2702ZM30.063 49.5848C31.7354 49.7266 33.2834 50.526 34.3672 51.8076C35.451 53.0892 35.9822 54.7484 35.8443 56.4212C35.6154 59.1592 33.6586 61.3245 31.1432 61.9909L30.935 64.4813C30.912 64.7575 30.8348 65.0265 30.7079 65.2729C30.5809 65.5192 30.4066 65.7382 30.1949 65.9171C29.9833 66.0961 29.7385 66.2316 29.4745 66.3159C29.2104 66.4002 28.9324 66.4316 28.6562 66.4084C28.3799 66.3856 28.1108 66.3085 27.8643 66.1815C27.6179 66.0546 27.3988 65.8803 27.2198 65.6687C27.0407 65.457 26.9051 65.2121 26.8207 64.948C26.7364 64.6839 26.7049 64.4058 26.7282 64.1295L26.9364 61.6391C24.5666 60.5642 22.9968 58.1031 23.2256 55.366C23.2485 55.0897 23.3256 54.8206 23.4525 54.5741C23.5795 54.3277 23.7537 54.1086 23.9654 53.9296C24.1771 53.7505 24.4219 53.6149 24.686 53.5306C24.9501 53.4462 25.2283 53.4147 25.5045 53.438C25.7808 53.461 26.0499 53.5382 26.2963 53.6652C26.5427 53.7923 26.7617 53.9666 26.9406 54.1784C27.1196 54.3901 27.2551 54.635 27.3393 54.8992C27.4236 55.1633 27.4549 55.4414 27.4316 55.7177C27.3854 56.2755 27.5625 56.8288 27.924 57.2561C28.2855 57.6834 28.8019 57.9497 29.3596 57.9966C29.9172 58.0427 30.4704 57.8657 30.8976 57.5044C31.3249 57.1431 31.5913 56.627 31.6384 56.0695C31.6848 55.5117 31.5079 54.9583 31.1466 54.5309C30.7853 54.1034 30.2691 53.8369 29.7114 53.7898C28.0387 53.6482 26.4906 52.8489 25.4065 51.5672C24.3225 50.2855 23.7912 48.6262 23.9291 46.9532C24.1581 44.2153 26.1148 42.0499 28.6302 41.3835L28.8385 38.8922C28.8615 38.6159 28.9387 38.3469 29.0658 38.1004C29.1928 37.854 29.3672 37.6351 29.5789 37.4561C29.7906 37.2771 30.0356 37.1416 30.2997 37.0574C30.5638 36.9732 30.842 36.9418 31.1182 36.9652C31.3945 36.9881 31.6634 37.0653 31.9098 37.1923C32.1562 37.3193 32.3751 37.4936 32.5541 37.7052C32.733 37.9168 32.8685 38.1617 32.9528 38.4257C33.0371 38.6897 33.0686 38.9678 33.0454 39.244L32.8371 41.7344C35.2068 42.8102 36.7767 45.2704 36.5478 48.0084C36.5248 48.2846 36.4476 48.5536 36.3207 48.8C36.1937 49.0463 36.0194 49.2653 35.8078 49.4442C35.5961 49.6232 35.3513 49.7587 35.0873 49.843C34.8232 49.9273 34.5452 49.9588 34.269 49.9355C33.9928 49.9126 33.7238 49.8354 33.4774 49.7084C33.2311 49.5814 33.0122 49.4071 32.8332 49.1955C32.6542 48.9839 32.5187 48.739 32.4344 48.475C32.3501 48.211 32.3187 47.9329 32.3419 47.6567C32.388 47.0991 32.211 46.5459 31.8497 46.1187C31.4884 45.6915 30.9723 45.425 30.4148 45.3779C29.857 45.3315 29.3036 45.5084 28.8762 45.8697C28.4487 46.231 28.1822 46.7472 28.135 47.3049C28.0889 47.8627 28.266 48.416 28.6275 48.8433C28.989 49.2706 29.5053 49.5379 30.063 49.5848Z" fill="white"/>
</g>
</g>
</g>
</g>
</g>
<defs>
<clipPath id="clip0_5_8085">
<rect width="72.9638" height="72.9638" fill="white" transform="translate(6.08008) rotate(4.78)"/>
</clipPath>
<clipPath id="clip1_5_8085">
<rect width="72.9638" height="72.9638" fill="white" transform="translate(6.08008) rotate(4.78)"/>
</clipPath>
<clipPath id="clip2_5_8085">
<rect width="72.9638" height="72.9638" fill="white" transform="translate(6.08008) rotate(4.78)"/>
</clipPath>
<clipPath id="clip3_5_8085">
<rect width="72.96" height="72.96" fill="white" transform="translate(6.08008) rotate(4.78)"/>
</clipPath>
</defs>
</svg>
