<svg width="1920" height="1390" viewBox="0 0 1920 1390" fill="none" xmlns="http://www.w3.org/2000/svg">
<rect width="1920" height="767.81" fill="url(#paint0_linear_181_498)"/>
<g clip-path="url(#clip0_181_498)">
<g clip-path="url(#clip1_181_498)">
<g clip-path="url(#clip2_181_498)">
<g clip-path="url(#clip3_181_498)">
<path d="M2154.87 1389.08V551.397C2151.07 551.397 2136.38 552.492 2134.75 552.492C2128.23 553.04 2121.16 554.683 2114.62 556.873C2104.3 560.709 2096.68 567.828 2087.97 573.854C2082.54 578.235 2075.48 582.069 2069.48 585.356C2061.87 588.642 2053.17 590.833 2045.55 593.023C2039.58 595.214 2033.59 595.761 2027.61 594.666C2021.08 594.119 2015.1 594.666 2009.11 594.119C1996.61 592.476 1985.73 585.355 1978.11 575.497C1971.04 566.185 1963.44 547.016 1948.75 554.683C1940.04 559.612 1935.69 570.566 1924.27 571.662C1910.68 573.306 1900.34 560.161 1892.18 551.397C1884.03 542.633 1872.07 534.966 1859.55 538.799C1847.04 542.085 1838.34 553.04 1831.82 563.447C1827.47 571.114 1820.94 577.14 1814.41 583.164C1809.52 587.547 1804.62 594.119 1798.1 596.857C1781.79 602.883 1764.38 596.857 1751.32 586.45C1733.93 572.757 1721.41 555.778 1717.61 533.323C1714.89 514.152 1714.34 495.53 1713.25 476.359C1712.72 467.597 1712.72 458.285 1712.17 449.521C1711.07 440.759 1710 432.543 1710 423.78C1710 415.016 1708.35 406.252 1707.27 397.488C1705.65 385.44 1702.93 373.938 1701.28 362.435C1700.2 353.125 1693.68 341.074 1687.69 333.954C1683.34 328.478 1671.38 320.261 1663.76 319.166C1650.72 316.976 1631.68 321.357 1620.79 329.024C1611 335.596 1599.04 347.647 1594.69 359.149C1591.42 366.816 1590.89 376.126 1589.25 384.345C1586.54 396.94 1587.07 410.086 1586.54 422.683C1585.45 440.211 1584.35 457.19 1582.73 474.716C1581.65 487.862 1579.46 501.554 1576.75 514.7C1575.66 519.448 1574.58 524.194 1573.48 528.94C1572.02 534.829 1570.39 540.674 1568.59 546.468C1566.41 551.397 1563.69 556.326 1561.52 561.256C1560.42 563.995 1559.34 566.733 1558.25 568.923C1556.83 571.44 1555.19 573.823 1553.35 576.044C1545.75 585.355 1534.32 591.928 1522.9 593.023C1510.39 594.119 1498.97 588.642 1490.27 580.426C1475.04 566.733 1464.17 548.659 1448.93 535.514C1438.06 526.75 1426.1 517.438 1412.5 514.7C1405.97 513.057 1398.9 514.152 1392.37 513.604C1383.67 512.509 1374.97 513.604 1366.81 515.247C1355.21 517.803 1345.24 523.281 1336.9 531.678C1328.74 539.895 1320.04 545.921 1308.62 550.302C1296.11 555.231 1281.97 557.421 1268.37 551.945C1260.21 548.659 1251.51 545.371 1244.44 539.895C1223.23 524.011 1216.7 495.53 1208.55 471.978C1201.48 451.166 1193.86 429.804 1177.55 414.468C1177.55 414.103 1177.36 413.921 1177 413.921C1166.12 403.514 1154.16 391.464 1138.39 389.273C1126.97 388.178 1114.46 388.178 1104.12 394.202C1093.25 400.226 1087.26 411.183 1078.02 418.85C1069.86 425.423 1060.07 430.352 1049.74 432.543C1033.42 435.828 1017.65 427.066 1006.23 416.111C998.614 408.99 992.631 400.776 986.649 392.012C981.21 384.345 975.772 377.223 970.334 369.555C965.438 362.983 958.913 355.316 951.841 350.385C943.14 343.814 929 355.314 923.017 361.338C916.49 367.364 911.052 373.39 908.876 382.702C906.158 393.107 902.893 404.062 897.455 413.373C890.385 423.779 879.507 425.423 868.63 421.04C856.665 416.659 847.963 413.373 835.999 418.85C827.296 422.683 817.507 428.161 810.98 435.828C807.717 439.664 805.541 443.497 804.454 448.426C799.014 467.597 798.472 487.314 794.12 506.485C791.4 516.89 787.594 522.916 779.437 529.488C772.91 534.966 765.296 539.347 756.593 541.538C745.717 545.373 734.296 545.919 722.873 542.633C715.803 540.442 709.821 536.609 703.838 532.228C697.856 527.297 692.417 522.368 684.803 521.273C672.838 519.63 665.224 525.654 656.521 531.131C651.627 533.871 647.276 537.704 643.469 542.085C638.575 548.111 635.311 554.683 631.504 561.256C628.241 566.733 621.714 570.019 616.276 572.209C603.766 577.14 588.538 577.687 578.206 567.828C566.784 556.326 558.627 535.514 555.907 519.63C551.556 499.911 548.837 480.742 547.749 459.928C547.204 448.974 546.117 438.019 546.662 427.066C547.749 396.393 556.451 367.912 566.241 338.883C567.872 333.954 568.959 327.93 570.048 322.452C571.135 312.047 572.223 300.543 571.135 290.137C569.503 270.419 562.977 243.033 539.59 239.747C514.573 235.366 486.835 251.248 477.59 274.8C471.063 290.685 467.8 308.759 466.713 326.286C466.169 343.812 464.538 362.435 467.256 379.962C470.52 398.585 479.766 416.111 484.661 434.733C488.468 450.069 492.818 465.406 493.907 481.29C495.538 518.535 485.204 556.326 449.31 573.306C438.976 577.687 424.835 576.045 414.501 571.662C400.904 565.09 387.852 553.04 380.782 539.347C374.255 526.202 367.728 515.795 357.396 504.842C347.607 495.53 334.553 489.505 320.413 492.792C315.518 493.887 312.255 497.173 308.991 501.007C304.641 505.39 300.29 509.771 297.027 515.247C294.307 520.176 289.956 524.559 286.149 528.94C276.359 538.252 266.027 544.824 252.429 545.371C239.921 545.919 232.307 539.895 222.517 533.871C209.463 525.107 196.955 515.247 182.27 510.318C169.218 505.39 151.27 504.84 143.656 518.533C139.305 526.202 136.586 533.871 130.604 540.442C125.708 546.468 118.094 552.492 110.48 554.683C94.1651 559.064 82.1998 543.181 83.2868 527.845C83.2868 521.821 83.2868 516.343 82.7425 510.318C81.1111 499.364 80.0242 488.957 78.9355 478.552C78.3928 469.788 78.3928 460.476 77.3042 451.714C76.7598 442.402 72.9529 436.924 66.9702 429.804C60.9892 421.588 53.918 417.207 43.584 419.945C32.1631 423.78 24.0048 433.09 26.7248 445.688C28.3561 450.617 29.4447 454.999 28.9004 461.024C28.3561 467.049 26.7248 473.621 25.0934 479.647C22.3734 491.695 18.0238 501.007 9.32117 510.318C6.05852 513.604 2.7942 516.343 -1.01279 519.081C-3.63769 520.977 -6.17812 522.988 -8.62675 525.107C-13.5207 528.94 -17.3277 533.871 -22.7677 537.157C-28.206 540.442 -34.1886 544.824 -40.7139 545.371C-43.9783 545.919 -47.2409 545.921 -49.9609 545.921C-57.0305 545.921 -64.6445 544.824 -70.6271 540.99C-73.8898 539.347 -76.6098 537.157 -78.7854 533.871C-80.9594 530.583 -84.2237 528.393 -87.4864 526.75C-95.6447 523.464 -101.627 527.845 -107.066 533.871C-111.417 538.799 -112.506 545.373 -114.68 551.397C-115.768 554.683 -116.313 557.421 -117.401 560.161C-119.031 563.995 -119.575 568.923 -121.207 572.209C-122.838 574.949 -125.558 578.235 -127.734 580.426C-129.908 582.616 -132.085 584.807 -134.26 586.45C-148.944 596.857 -169.068 595.214 -182.12 583.164C-187.558 578.783 -191.91 574.402 -195.717 568.376C-197.891 565.638 -201.155 562.899 -202.786 559.064C-203.875 556.326 -205.506 554.135 -208.769 552.492C-209.132 552.127 -209.494 551.945 -209.857 551.945C-217.471 548.111 -227.261 548.659 -234.875 548.659V1389.08H2154.87Z" fill="url(#paint1_linear_181_498)"/>
</g>
</g>
</g>
</g>
<defs>
<linearGradient id="paint0_linear_181_498" x1="960" y1="0" x2="960" y2="767.81" gradientUnits="userSpaceOnUse">
<stop stop-color="#C5FF9E"/>
<stop offset="0.24" stop-color="#EEFFE3"/>
<stop offset="0.510796" stop-color="#F5FFEE"/>
<stop offset="1" stop-color="#DDFFC7"/>
</linearGradient>
<linearGradient id="paint1_linear_181_498" x1="960" y1="1464.47" x2="960" y2="239.02" gradientUnits="userSpaceOnUse">
<stop stop-color="#74E926"/>
<stop offset="0.31" stop-color="#F5FFEE"/>
<stop offset="0.743" stop-color="#C1FF97"/>
</linearGradient>
<clipPath id="clip0_181_498">
<rect width="1920" height="1151.72" fill="white" transform="translate(0 237.95)"/>
</clipPath>
<clipPath id="clip1_181_498">
<rect width="1920" height="1151.72" fill="white" transform="translate(0 237.95)"/>
</clipPath>
<clipPath id="clip2_181_498">
<rect width="1920" height="1151.72" fill="white" transform="translate(0 237.95)"/>
</clipPath>
<clipPath id="clip3_181_498">
<rect width="2389.74" height="1151.72" fill="white" transform="translate(-234.868 237.95)"/>
</clipPath>
</defs>
</svg>
