<svg width="2390" height="895" viewBox="0 0 2390 895" fill="none" xmlns="http://www.w3.org/2000/svg">
<path d="M2389.74 894.5V312.377C2385.94 312.377 2371.26 313.472 2369.63 313.472C2363.11 314.02 2356.04 315.663 2349.5 317.853C2339.18 321.689 2331.56 328.808 2322.85 334.834C2317.42 339.215 2310.35 343.049 2304.36 346.336C2296.74 349.622 2288.05 351.813 2280.43 354.003C2274.45 356.194 2268.46 356.741 2262.49 355.646C2255.95 355.099 2249.98 355.646 2243.99 355.099C2231.49 353.456 2220.6 346.334 2212.99 336.477C2205.92 327.165 2198.31 307.996 2183.63 315.663C2174.92 320.592 2170.57 331.546 2159.15 332.642C2145.56 334.286 2135.22 321.141 2127.05 312.377C2118.91 303.613 2106.94 295.946 2094.43 299.779C2081.91 303.065 2073.22 314.02 2066.7 324.427C2062.35 332.094 2055.81 338.12 2049.29 344.144C2044.39 348.527 2039.5 355.099 2032.97 357.837C2016.66 363.863 1999.25 357.837 1986.19 347.43C1968.8 333.737 1956.29 316.758 1952.49 294.303C1949.77 275.132 1949.22 256.51 1948.12 237.339C1947.59 228.577 1947.59 219.265 1947.04 210.501C1945.95 201.739 1944.87 193.522 1944.87 184.76C1944.87 175.996 1943.23 167.232 1942.15 158.468C1940.52 146.42 1937.8 134.918 1936.16 123.415C1935.08 114.105 1928.56 102.054 1922.57 94.9343C1918.22 89.4578 1906.25 81.2414 1898.64 80.1461C1885.59 77.9555 1866.56 82.3367 1855.67 90.0038C1845.88 96.5756 1833.91 108.627 1829.57 120.129C1826.3 127.796 1825.77 137.106 1824.12 145.325C1821.42 157.92 1821.95 171.066 1821.42 183.663C1820.32 201.191 1819.23 218.17 1817.6 235.696C1816.52 248.842 1814.33 262.534 1811.63 275.68C1810.53 280.428 1809.45 285.174 1808.36 289.92C1806.89 295.809 1805.26 301.654 1803.46 307.448C1801.29 312.377 1798.57 317.306 1796.39 322.236C1795.3 324.975 1794.22 327.713 1793.12 329.903C1791.71 332.42 1790.07 334.803 1788.23 337.024C1780.63 346.334 1769.19 352.908 1757.77 354.003C1745.26 355.099 1733.84 349.622 1725.15 341.406C1709.91 327.713 1699.04 309.639 1683.81 296.494C1672.94 287.73 1660.97 278.418 1647.37 275.68C1640.84 274.037 1633.77 275.132 1627.25 274.584C1618.55 273.489 1609.84 274.584 1601.69 276.227C1590.08 278.783 1580.11 284.261 1571.77 292.658C1563.62 300.875 1554.91 306.901 1543.49 311.282C1530.98 316.211 1516.84 318.401 1503.25 312.925C1495.09 309.639 1486.39 306.351 1479.32 300.875C1458.11 284.991 1451.58 256.51 1443.42 232.958C1436.35 212.146 1428.74 190.784 1412.42 175.448C1412.42 175.083 1412.24 174.901 1411.88 174.901C1401 164.494 1389.04 152.444 1373.26 150.253C1361.84 149.158 1349.33 149.158 1339 155.182C1328.12 161.206 1322.14 172.163 1312.89 179.83C1304.74 186.403 1294.95 191.332 1284.61 193.523C1268.3 196.808 1252.52 188.046 1241.1 177.091C1233.49 169.97 1227.51 161.756 1221.52 152.992C1216.09 145.325 1210.65 138.203 1205.21 130.535C1200.31 123.963 1193.79 116.296 1186.72 111.365C1178.02 104.794 1163.87 116.294 1157.89 122.318C1151.36 128.344 1145.93 134.37 1143.75 143.682C1141.03 154.087 1137.77 165.042 1132.33 174.353C1125.26 184.758 1114.38 186.403 1103.51 182.02C1091.54 177.639 1082.84 174.353 1070.87 179.83C1062.17 183.663 1052.38 189.141 1045.85 196.808C1042.59 200.644 1040.42 204.477 1039.33 209.406C1033.89 228.577 1033.35 248.294 1029 267.465C1026.28 277.87 1022.47 283.896 1014.31 290.468C1007.78 295.946 1000.17 300.327 991.468 302.518C980.592 306.353 969.171 306.899 957.748 303.613C950.678 301.422 944.696 297.589 938.713 293.208C932.731 288.277 927.292 283.348 919.678 282.253C907.713 280.61 900.099 286.634 891.396 292.111C886.502 294.851 882.151 298.684 878.344 303.065C873.45 309.091 870.186 315.663 866.379 322.236C863.116 327.713 856.589 330.999 851.151 333.189C838.641 338.12 823.413 338.667 813.081 328.808C801.659 317.306 793.502 296.494 790.782 280.61C786.431 260.891 783.712 241.722 782.624 220.908C782.079 209.954 780.992 198.999 781.537 188.046C782.624 157.373 791.326 128.892 801.116 99.8631C802.747 94.9343 803.834 88.9101 804.923 83.432C806.01 73.0267 807.098 61.5228 806.01 51.1175C804.378 31.3988 797.851 4.01312 774.465 0.727233C749.448 -3.65395 721.71 12.2278 712.465 35.78C705.938 51.6651 702.675 69.7392 701.588 87.2655C701.044 104.792 699.413 123.415 702.131 140.942C705.395 159.565 714.641 177.091 719.536 195.713C723.343 211.049 727.693 226.386 728.781 242.27C730.413 279.515 720.079 317.306 684.185 334.286C673.851 338.667 659.71 337.024 649.376 332.642C635.779 326.07 622.727 314.02 615.657 300.327C609.13 287.182 602.603 276.775 592.271 265.822C582.482 256.51 569.428 250.485 555.288 253.772C550.393 254.867 547.13 258.153 543.866 261.987C539.516 266.37 535.165 270.751 531.902 276.227C529.182 281.156 524.831 285.539 521.024 289.92C511.234 299.232 500.902 305.804 487.304 306.351C474.796 306.899 467.182 300.875 457.392 294.851C444.338 286.087 431.83 276.227 417.145 271.298C404.093 266.37 386.145 265.82 378.531 279.513C374.18 287.182 371.461 294.851 365.479 301.422C360.583 307.448 352.969 313.472 345.355 315.663C329.04 320.044 317.075 304.161 318.162 288.825C318.162 282.801 318.162 277.323 317.617 271.298C315.986 260.344 314.899 249.937 313.811 239.532C313.268 230.768 313.268 221.456 312.179 212.693C311.635 203.382 307.828 197.904 301.845 190.784C295.864 182.568 288.793 178.187 278.459 180.925C267.038 184.76 258.88 194.07 261.6 206.668C263.231 211.597 264.32 215.979 263.775 222.004C263.231 228.029 261.6 234.601 259.968 240.627C257.248 252.675 252.899 261.987 244.196 271.298C240.934 274.584 237.669 277.323 233.862 280.061C231.237 281.957 228.697 283.968 226.248 286.087C221.354 289.92 217.547 294.851 212.107 298.137C206.669 301.422 200.686 305.804 194.161 306.351C190.897 306.899 187.634 306.901 184.914 306.901C177.844 306.901 170.231 305.804 164.248 301.97C160.985 300.327 158.265 298.137 156.09 294.851C153.916 291.563 150.651 289.372 147.389 287.73C139.23 284.444 133.248 288.825 127.809 294.851C123.458 299.779 122.369 306.353 120.195 312.377C119.107 315.663 118.562 318.401 117.474 321.141C115.844 324.975 115.3 329.903 113.668 333.189C112.037 335.929 109.317 339.215 107.141 341.406C104.967 343.596 102.79 345.787 100.615 347.43C85.9309 357.837 65.8074 356.194 52.7551 344.144C47.3168 339.763 42.9655 335.382 39.1585 329.356C36.9845 326.618 33.7202 323.879 32.0888 320.044C31.0002 317.306 29.3689 315.115 26.1062 313.472C25.7428 313.107 25.381 312.925 25.0175 312.925C17.4036 309.091 7.61396 309.639 0 309.639V894.5H2389.74Z" fill="url(#paint0_linear_578_9)"/>
<defs>
<linearGradient id="paint0_linear_578_9" x1="1194.87" y1="1225.45" x2="1194.87" y2="0.00029217" gradientUnits="userSpaceOnUse">
<stop stop-color="#74E926"/>
<stop offset="0.31" stop-color="#F5FFEE"/>
<stop offset="0.743" stop-color="#C1FF97"/>
</linearGradient>
</defs>
</svg>
