<svg width="179" height="489" viewBox="0 0 179 489" fill="none" xmlns="http://www.w3.org/2000/svg">
<g clip-path="url(#clip0_1_3234)">
<g clip-path="url(#clip1_1_3234)">
<g clip-path="url(#clip2_1_3234)">
<g clip-path="url(#clip3_1_3234)">
<mask id="mask0_1_3234" style="mask-type:luminance" maskUnits="userSpaceOnUse" x="0" y="-1" width="384" height="497">
<path d="M0 -0.00427246H384V495.424H0V-0.00427246Z" fill="white"/>
</mask>
<g mask="url(#mask0_1_3234)">
<path d="M169.723 299.514C169.723 299.514 194.858 307.763 187.281 330.683C187.281 330.683 184.755 353.091 191.067 364.398C196.685 374.468 203.019 386.557 195.737 397.252C186.639 410.612 156.336 428.672 116.553 430.893C75.3755 433.192 58.8669 415.244 62.7875 402.587C66.708 389.931 68.5938 381.1 64.8909 372.873C61.188 364.645 46.7623 346.941 64.584 332.783C82.4075 318.625 169.723 299.514 169.723 299.514Z" fill="#52BF2E"/>
<path d="M169.723 299.514C169.723 299.514 194.858 307.763 187.281 330.683C187.281 330.683 184.755 353.091 191.067 364.398C196.685 374.468 203.019 386.557 195.737 397.252C186.639 410.612 156.336 428.672 116.553 430.893C75.3755 433.192 58.8669 415.244 62.7875 402.587C66.708 389.931 68.5938 381.1 64.8909 372.873C61.188 364.645 46.7623 346.941 64.584 332.783C82.4075 318.625 169.723 299.514 169.723 299.514Z" fill="#52BF2E"/>
<path opacity="0.5" d="M91.7366 419.01C82.6355 418.271 71.064 411.21 72.108 404.31C74.0023 391.674 77.1395 384.426 71.5543 371.859C65.2869 357.75 67.284 351.704 70.4178 354.129C73.5515 356.557 78.2178 360.489 91.0509 365.526C103.622 370.458 88.8995 376.177 92.256 394.614C94.8789 409.019 100.833 419.749 91.7366 419.01Z" fill="white"/>
<path d="M163.663 308.985C163.663 308.985 185.107 316.023 178.641 335.572C178.641 335.572 176.486 354.688 181.869 364.336C186.66 372.927 192.065 383.24 185.853 392.365C178.09 403.763 152.241 419.169 118.296 421.065C83.1668 423.027 143.882 408.747 134.186 380.584C126.977 359.651 58.7571 349.432 73.9629 337.353C89.1686 325.273 163.663 308.985 163.663 308.985Z" fill="#469B19"/>
<path d="M109.368 433.885C79.7366 433.885 67.7726 423.039 63.8623 418.089C59.7754 412.919 58.4383 407.12 60.0977 401.761C64.0783 388.914 65.5148 381.092 62.3194 373.993C61.7983 372.832 61.0166 371.418 60.1114 369.783C55.1417 360.786 45.8931 344.039 62.82 330.594C80.9468 316.194 165.523 297.577 169.116 296.79C169.61 296.684 170.124 296.709 170.606 296.867C170.885 296.96 177.537 299.18 183.257 304.461C188.686 309.465 194.244 318.177 190.042 331.256C189.794 333.772 188.074 353.288 193.515 363.047C198.696 372.333 206.523 386.368 198.055 398.807C187.649 414.087 155.606 431.492 116.697 433.672C114.257 433.813 111.812 433.884 109.368 433.885ZM169.536 302.411C160.755 304.367 82.5668 322.053 66.3326 334.94C54.0994 344.658 58.7383 355.7 65.04 367.107C66.0017 368.848 66.8331 370.355 67.4468 371.721C71.7428 381.261 69.216 391.288 65.4651 403.393C64.3611 406.959 65.3623 410.958 68.28 414.654C75.9343 424.335 93.9171 429.354 116.385 428.111C155.775 425.91 185.133 407.829 193.392 395.691C199.443 386.804 194.798 376.869 188.592 365.744C181.927 353.799 184.368 331.323 184.476 330.371C184.497 330.183 184.538 329.994 184.598 329.814C190.622 311.627 173.35 303.879 169.536 302.411Z" fill="#232333"/>
<path d="M154.229 239.199C154.229 239.199 164.342 268.244 172.886 273.589C181.234 278.812 189.221 287.744 172.207 308.776C157.186 327.34 117.525 350.836 84.8263 347.063C56.8235 343.83 51.0412 333.195 56.5115 316.604C56.5115 316.604 59.4772 287.915 49.284 272.972C37.404 253.828 44.7909 246.699 52.4418 238.566C66.2126 223.905 124.07 192.335 147.461 199.575C164.796 204.939 150.439 228.505 154.229 239.199Z" fill="#52BF2E"/>
<path d="M149.383 243.085C149.383 243.085 158.325 268.768 165.879 273.496C173.261 278.115 180.326 286.007 165.279 304.605C155.182 317.082 132.502 332.077 109.507 337.089C102.249 338.673 120.804 313.299 114.799 289.681C110.83 274.081 83.8903 272.555 70.4555 266.596C60.0549 261.988 60.8092 254.982 64.1435 254.565C138.502 245.331 131.583 203.968 143.808 204.297C156.243 204.632 146.031 233.639 149.383 243.085Z" fill="#469B19"/>
<path d="M91.9955 350.243C89.4935 350.246 86.9934 350.106 84.5075 349.823C68.904 348.023 59.1532 343.794 54.696 336.897C51.2503 331.561 50.9366 324.733 53.7498 316.035C54.012 313.079 55.944 287.691 46.9646 274.53L46.8995 274.429C34.1623 253.904 42.1509 245.416 49.8789 237.208L50.3863 236.668C64.6663 221.466 123.684 189.294 148.301 196.917C161.793 201.092 159.482 214.172 157.627 224.68C156.718 229.823 155.779 235.137 156.89 238.287V238.3C160.678 249.174 168.778 267.735 174.391 271.245C178.305 273.692 183.645 277.758 184.827 284.763C186.038 291.933 182.63 300.359 174.413 310.523C160.454 327.747 124.437 350.243 91.9955 350.243ZM51.6446 271.46C62.2475 287.07 59.4309 315.671 59.3075 316.881C59.2871 317.079 59.2451 317.274 59.1823 317.463C56.8235 324.616 56.9023 329.992 59.4223 333.894C62.9126 339.294 71.328 342.695 85.1452 344.289C117.36 348.013 155.774 324.616 170.009 307.026C177.074 298.295 180.19 291.111 179.271 285.671C178.641 281.968 176.211 278.968 171.382 275.944C162.271 270.244 152.649 243.208 151.572 240.111C149.976 235.6 150.996 229.827 152.076 223.717C154.138 212.037 154.802 204.764 146.613 202.232C137.127 199.295 119.234 203.358 97.5206 213.38C79.5326 221.687 61.4263 233.085 54.4886 240.462L53.9778 241.005C46.5583 248.891 41.1926 254.595 51.6463 271.46H51.6446Z" fill="#232333"/>
<path d="M94.656 364.662C94.656 364.662 104.635 381.777 92.424 384.426C81.9223 386.704 54.8246 370.06 43.8583 354.733C36.1835 344.01 36.6549 336.392 44.4343 338.411C53.1137 340.665 63.1457 352.587 88.4606 359.49" fill="#52BF2E"/>
<path d="M94.656 364.662C94.656 364.662 104.635 381.777 92.424 384.426C81.9223 386.704 54.8246 370.06 43.8583 354.733C36.1835 344.01 36.6549 336.392 44.4343 338.411C53.1137 340.665 63.1457 352.587 88.4606 359.49L94.656 364.662Z" fill="#52BF2E"/>
<path d="M94.656 364.662C94.656 364.662 104.635 381.777 92.424 384.426C81.9223 386.704 54.8246 370.06 43.8583 354.733C36.1835 344.01 36.6549 336.392 44.4343 338.411C53.1137 340.665 63.1457 352.587 88.4606 359.49L94.656 364.662Z" fill="#52BF2E"/>
<path d="M94.0852 378.318C93.8914 379.055 93.5194 379.883 91.5172 380.31C88.4417 380.975 80.7669 378.849 70.5531 372.596C92.8543 370.804 48.864 354.7 43.3594 342.489C45.948 343.161 49.1263 345.191 53.1532 347.763C60.4817 352.441 70.4709 358.818 86.424 363.304C86.424 363.304 96.4732 372.381 94.0852 378.318Z" fill="#469B19"/>
<path d="M95.5868 364.131C98.9006 368.979 102.041 375.575 99.6566 381.467C97.6234 386.255 91.4194 387.455 86.8594 386.49C71.9726 383.413 55.4914 371.528 45.3703 360.465C43.1418 357.957 41.1601 355.239 39.4526 352.35C37.6868 349.197 36.1388 346.108 35.9811 342.265C35.7994 338.077 38.9674 335.228 43.1708 335.812C47.6468 336.411 51.5726 339.111 54.9926 341.24C61.7194 345.681 68.3383 349.686 75.6206 352.88C79.9251 354.903 84.3634 356.579 88.7451 358.465C89.916 358.947 89.424 360.7 88.1743 360.513C81.7046 359.528 75.3926 357.491 69.4817 354.697C63.5383 351.937 57.9274 348.452 52.5446 345.045C49.6834 343.341 43.8428 339.424 41.0931 340.696C39.7646 342.949 42.3411 347.745 43.608 349.967C48.3891 357.906 55.4434 364.197 62.9211 369.743C68.3726 373.919 93.72 390.213 96.3737 378.032C96.9394 373.744 95.2611 369.299 93.7286 365.19C93.2126 364.021 94.8428 363.114 95.5851 364.125L95.5868 364.131Z" fill="#232333"/>
<path d="M41.0863 351.608C41.7926 353.62 36.8966 364.175 22.6114 364.405C10.4914 364.6 2.316 359.6 2.57143 354.225C2.84058 348.652 15.4989 343.876 23.2629 344.144C33.2451 344.488 40.38 349.597 41.0863 351.608Z" fill="#52BF2E"/>
<path opacity="0.5" d="M11.2029 355.033C11.3486 358.187 17.3006 360.234 13.3029 359.785C9.50059 359.358 6.90345 356.747 7.17087 354.525C7.44859 352.203 11.7857 349.556 13.9646 349.761C16.2326 349.974 11.0674 352.023 11.2029 355.033Z" fill="white"/>
<path d="M35.1069 352.434C34.9491 356.188 26.2131 362.629 17.6777 360.366C23.6949 358.722 26.82 354.803 26.6469 352.722C26.5543 351.64 24.0977 349.532 17.6246 348.481C22.8703 346.16 35.2269 349.66 35.1069 352.434Z" fill="#469B19"/>
<path d="M21.9343 366.961C13.728 366.961 6.61544 364.671 2.80801 360.776C0.864014 358.78 -0.106272 356.475 0.00858507 354.104C0.402871 345.987 15.5743 341.332 23.364 341.593C33.8314 341.953 42.3 347.269 43.524 350.769C44.4394 353.377 42.1269 356.96 41.3966 357.995C39.54 360.628 33.996 366.771 22.6612 366.954C22.4189 366.959 22.1766 366.961 21.9343 366.961ZM22.536 346.683C14.8543 346.683 5.29201 351.292 5.14458 354.345C5.08801 355.518 5.8543 356.557 6.50573 357.225C8.78059 359.55 14.1926 361.974 22.5669 361.852C33.7012 361.674 38.1292 354.448 38.544 352.333C37.32 350.821 31.4126 346.977 23.1737 346.691C22.9635 346.686 22.7532 346.683 22.5429 346.683H22.536Z" fill="#232333"/>
<path d="M54.4115 322.132C56.1103 330.011 55.2463 338.997 49.9457 339.088C44.6435 339.179 36.8057 331.825 35.8475 319.293C35.0195 308.516 40.2395 305.625 42.2863 305.435C46.4383 305.053 51.7012 309.567 54.4115 322.132Z" fill="#52BF2E"/>
<path d="M52.4795 322.132C53.7995 328.249 53.1309 335.231 49.008 335.301C44.8869 335.372 38.8029 329.658 38.0572 319.924C37.4143 311.552 41.4703 309.308 43.0595 309.16C46.2875 308.86 50.376 312.369 52.4795 322.132Z" fill="#52BF2E"/>
<path opacity="0.5" d="M40.2652 312.956C40.7023 313.581 40.6937 316.396 40.848 318.411C41.4926 326.874 45.1543 331.705 44.8132 332.293C44.4703 332.883 39.2212 327.277 38.5338 320.082C38.1258 315.82 39.8263 312.33 40.2652 312.956Z" fill="white"/>
<path d="M50.496 322.655C51.2846 326.236 51.3103 333.378 49.7949 334.873C49.104 335.555 47.6452 334.641 46.7795 333.452C49.9355 327.301 45.7029 310.602 41.3966 310.933C43.7383 307.251 48.0635 312.205 50.496 322.655Z" fill="#469B19"/>
<path d="M49.8411 341.641C42.636 341.641 34.3029 332.799 33.2811 319.487C32.2954 306.632 39.2777 303.152 42.0514 302.896C44.5457 302.66 52.992 303.339 56.9314 321.599C58.1846 327.414 58.38 335.049 55.1691 339.056C53.8423 340.712 52.0526 341.605 49.992 341.639L49.8411 341.641ZM42.78 307.964C42.6943 307.964 42.612 307.964 42.528 307.976C41.4857 308.072 37.7366 310.242 38.4154 319.101C39.2949 330.599 46.2943 336.541 49.8497 336.541H49.9029C50.2766 336.541 50.6846 336.45 51.1389 335.884C52.7863 333.829 53.1052 328.271 51.8966 322.667C49.7092 312.484 45.6909 307.964 42.78 307.964Z" fill="#232333"/>
<path opacity="0.5" d="M84.7715 336.637C79.3235 339.266 58.8926 335.06 62.5938 323.361C66.3652 311.421 65.0263 297.738 63.1252 287.823C61.512 279.412 55.5069 269.564 57.1269 267.693C58.7486 265.823 64.3783 275.262 78.8486 280.346C92.9983 285.318 80.9675 296.574 80.4703 309.674C79.8909 324.74 93.0223 332.653 84.7715 336.637Z" fill="white"/>
<path d="M55.0714 248.787C55.0714 248.787 107.712 249.277 132.06 207.116C132.06 207.116 109.495 210.128 88.6097 222.26C79.3903 227.615 87.7234 230.757 85.6097 236.751C82.4006 245.836 55.0714 248.787 55.0714 248.787Z" fill="#469B19"/>
<path d="M55.0714 248.787C79.0011 244.609 102.665 236.26 120.574 219.582C124.74 215.715 128.409 211.551 132.065 207.116C130.642 210.703 128.848 214.132 126.713 217.347C111.687 240.011 81.8263 251.694 55.0714 248.78V248.787Z" fill="#232333"/>
<path d="M182.187 267.239L177.977 274.97C164.549 273.813 152.189 271.578 142.239 269.108C149.391 265.165 158.105 261.71 168.717 259.328L182.187 267.239Z" fill="#5E5E68"/>
<path d="M262.071 261.613C227.829 280.223 181.21 277.317 150.411 270.959C148.359 256.844 148.971 225.942 193.697 225.942C234.624 225.942 254.138 248.409 262.071 261.613Z" fill="#5E5E68"/>
<path d="M161.115 393.954C161.115 393.954 154.234 420.239 130.361 416.331C109.08 412.845 102.442 388.299 113.89 375.981C127.299 361.547 152.359 362.416 161.115 393.954Z" fill="#777782"/>
<path d="M161.117 393.952C161.117 393.952 154.231 420.243 130.361 416.329C118.097 414.321 110.691 405.311 108.816 395.685C107.438 388.609 109.039 381.193 113.89 375.98C122.568 366.642 136.13 363.711 147 371.37C152.913 375.525 158.033 382.832 161.117 393.952Z" fill="#60567C"/>
<path opacity="0.25" d="M161.112 393.952C161.112 393.952 154.226 420.243 130.354 416.329C118.092 414.321 110.685 405.311 108.811 395.685C112.527 401.639 119.427 409.314 128.998 405.755C142.939 400.575 125.892 382.794 146.995 371.365C152.906 375.525 158.026 382.832 161.112 393.952Z" fill="#181558"/>
<path d="M135.108 419.281C133.377 419.276 131.65 419.131 129.943 418.847C119.263 417.097 110.818 410.091 107.349 400.103C104.098 390.74 105.879 380.835 111.998 374.25C119.352 366.335 129.864 362.843 139.426 365.142C150.729 367.858 159.309 377.85 163.599 393.277C163.719 393.707 163.723 394.162 163.608 394.594C163.539 394.859 156.874 419.281 135.108 419.281ZM133.5 369.55C127.137 369.55 120.657 372.465 115.785 377.709C110.95 382.912 109.582 390.858 112.219 398.446C115.058 406.633 122.002 412.377 130.781 413.818C150.379 417.027 157.263 397.823 158.443 393.956C154.625 380.783 147.459 372.325 138.214 370.105C136.67 369.733 135.088 369.546 133.5 369.546V369.55Z" fill="#232333"/>
<path d="M145.857 389.577C145.857 389.577 172.383 413.855 208.097 413.855C223.404 413.855 235.905 411.861 245.191 409.583C267.31 404.156 284.602 386.709 288.962 364.544C289.075 363.978 289.179 363.409 289.277 362.838C290.832 353.848 290.794 344.106 289.498 333.75C288.01 321.879 282.941 305.949 275.769 289.686C272.972 283.344 269.938 277.11 266.671 270.997C266.671 270.997 241.265 223.3 193.689 228.126C166.45 230.893 151.872 277.844 151.872 277.844C149.426 283.333 147.315 289.998 145.601 297.381C145.351 298.434 145.118 299.509 144.881 300.591C138.823 329.171 138.377 367.036 145.857 389.577Z" fill="white"/>
<path opacity="0.25" d="M145.857 389.577C145.857 389.577 172.383 413.855 208.097 413.855C223.404 413.855 235.905 411.861 245.191 409.583C267.31 404.156 284.602 386.709 288.962 364.544C289.075 363.978 289.179 363.409 289.277 362.838C289.277 362.838 271.234 401.418 219.41 395.283C171.139 389.569 162.663 368.769 161.117 353.725C159.571 338.68 170.676 302.742 164.94 296.689C161.139 292.672 153.754 293.907 145.601 297.385C145.351 298.437 145.118 299.512 144.881 300.594C138.823 329.171 138.377 367.036 145.857 389.577Z" fill="#181558"/>
<path opacity="0.25" d="M249.525 408.445L248.829 408.632C248.765 408.654 248.709 408.668 248.652 408.681C239.235 411.272 225.77 413.787 208.793 413.855H208.097C172.387 413.855 145.86 389.577 145.86 389.577C142.305 378.867 140.541 364.703 140.323 349.717C140.069 333.155 141.706 315.591 144.883 300.591C145.114 299.512 145.356 298.439 145.599 297.388C153.758 293.905 161.136 292.672 164.937 296.691C170.679 302.737 159.571 338.691 161.115 353.728C161.379 356.433 161.889 359.109 162.641 361.722C166.646 375.352 179.266 390.532 219.413 395.283C221.703 395.553 223.93 395.735 226.087 395.84L249.525 408.445Z" fill="#371A45"/>
<path d="M144.878 297.107C199.334 320.819 267.78 303.479 275.77 289.688C272.974 283.346 269.938 277.112 266.671 270.999C266.671 270.999 251.657 225.942 193.695 225.942C135.732 225.942 151.867 277.845 151.867 277.845C149.067 284.118 146.715 288.44 144.878 297.107Z" fill="#777782"/>
<path d="M144.878 297.107C199.334 320.819 267.78 303.479 275.77 289.688C272.974 283.346 269.938 277.112 266.671 270.999C266.671 270.999 251.657 225.942 193.695 225.942C135.732 225.942 151.867 277.845 151.867 277.845C149.067 284.118 146.715 288.44 144.878 297.107Z" fill="#60567C"/>
<path opacity="0.25" d="M262.071 261.613C227.829 280.223 181.21 277.317 150.411 270.959C148.359 256.844 148.971 225.942 193.697 225.942C234.624 225.942 254.138 248.409 262.071 261.613Z" fill="#181558"/>
<path d="M153.154 278.413C143.179 309.765 138.843 357.121 148.524 388.701C148.65 389.051 148.704 389.423 148.683 389.794C148.662 390.165 148.566 390.528 148.401 390.861C148.236 391.196 148.006 391.494 147.723 391.737C147.439 391.982 147.11 392.167 146.754 392.283C146.398 392.4 146.022 392.444 145.649 392.415C145.089 392.37 144.554 392.158 144.115 391.807C143.675 391.456 143.351 390.982 143.184 390.445C140.186 381.061 138.814 371.456 138.06 361.88C136.586 336.841 137.745 311.079 146.217 287.245C146.964 285.328 148.054 282.38 149.007 280.551C149.52 279.457 150.053 278.361 150.585 277.287C150.707 277.046 150.895 276.846 151.126 276.709C151.358 276.572 151.625 276.504 151.894 276.513C152.163 276.522 152.424 276.608 152.646 276.761C152.868 276.913 153.042 277.126 153.147 277.374C153.285 277.707 153.288 278.079 153.154 278.413ZM270.135 398.229C293.522 370.638 289.546 335.094 278.163 303.236C274.361 292.585 270.204 282.066 266.678 270.999C267.602 272.132 268.466 273.299 269.333 274.468C278.609 287.523 284.748 302.42 289.437 317.644C297.456 344.745 296.042 381.039 270.135 398.229ZM245.225 470.639C253.166 473.766 255.955 485.576 249.775 491.751C247.473 494.067 244.251 495.702 240.835 495.119C240.131 494.986 239.508 494.581 239.102 493.991C238.902 493.7 238.763 493.372 238.691 493.027C238.618 492.681 238.615 492.325 238.682 491.979C239.222 489.633 241.476 489.851 243.398 488.826C250.922 485.481 250.57 475.977 245.225 470.637V470.639ZM262.79 470.073C268.99 473.819 272.539 484.269 268.685 490.717C267.108 493.425 264.009 495.604 260.638 495.371C259.899 495.317 259.212 494.973 258.725 494.415C258.486 494.14 258.304 493.82 258.188 493.474C258.073 493.129 258.028 492.764 258.055 492.4C258.141 491.041 259.185 490.149 260.393 489.803C261.732 489.333 262.924 488.522 263.853 487.449C267.857 483.177 266.167 474.483 262.785 470.073H262.79Z" fill="#232333"/>
<path d="M140.311 349.712C139.385 368.972 139.155 429.752 140.498 461.265C140.887 470.421 139.893 475.652 141.747 480.906C145.354 491.109 155.119 493.326 183.59 492.479C198.777 492.027 203.343 485.932 204.651 480.75C206.769 472.364 202.246 464.128 202.246 464.128C202.246 464.128 208.001 413.694 208.978 413.459C210.519 413.077 228.209 414.085 249.533 408.469L140.311 349.712Z" fill="white"/>
<path d="M249.538 408.453C238.154 411.45 227.808 412.561 220.395 413.005C213.926 413.391 209.691 413.265 208.973 413.447C207.999 413.687 202.25 464.125 202.25 464.125C202.25 464.125 206.762 472.357 204.651 480.743C203.34 485.927 198.777 492.018 183.59 492.472C155.115 493.321 145.356 491.106 141.744 480.899C139.889 475.65 140.887 470.421 140.498 461.26C139.567 439.48 139.394 403.71 139.678 377.339C139.803 365.555 140.021 355.652 140.309 349.707L249.538 408.453Z" fill="white"/>
<path opacity="0.25" d="M249.54 408.452C249.3 408.513 249.067 408.579 248.83 408.632C248.772 408.652 248.712 408.668 248.652 408.681C237.621 411.508 227.614 412.575 220.397 413.007C213.927 413.391 209.695 413.265 208.978 413.444C208.929 413.459 208.867 413.601 208.795 413.855H208.099C172.389 413.855 145.86 389.577 145.86 389.577C142.306 378.867 140.542 364.703 140.323 349.717L180.938 328.878C184.944 342.507 165.139 390.632 226.089 395.845L249.525 408.45L249.54 408.452Z" fill="#181558"/>
<path d="M220.395 413.005C213.926 413.391 209.691 413.265 208.973 413.447C207.999 413.687 202.25 464.125 202.25 464.125C202.25 464.125 206.762 472.357 204.651 480.743C203.34 485.927 198.777 492.018 183.59 492.472C155.115 493.321 145.356 491.106 141.744 480.899C139.889 475.65 140.887 470.421 140.498 461.26C139.567 439.48 139.394 403.71 139.678 377.339C145.37 384.772 164.587 404.507 211.56 410.788C214.901 411.234 217.831 411.988 220.395 413.005Z" fill="#777782"/>
<path d="M220.392 413.015C213.922 413.397 209.69 413.272 208.973 413.452C208.735 413.516 208.2 416.629 207.54 421.287C205.509 435.508 202.248 464.137 202.248 464.137C202.248 464.137 206.76 472.369 204.651 480.76C203.338 485.943 198.778 492.035 183.591 492.489C155.11 493.34 145.358 491.125 141.746 480.916C139.889 475.672 140.889 470.439 140.494 461.279C139.841 445.953 139.56 423.693 139.546 402.661C139.546 393.81 139.587 385.175 139.673 377.36C145.365 384.791 164.577 404.528 211.553 410.809C214.579 411.177 217.548 411.918 220.392 413.015Z" fill="#60567C"/>
<path opacity="0.25" d="M220.392 413.015C213.922 413.397 209.69 413.272 208.973 413.452C208.735 413.516 208.2 416.629 207.54 421.287C169.397 424.587 149.119 411.976 139.553 402.642C139.553 393.793 139.594 385.158 139.68 377.343C145.371 384.774 164.583 404.511 211.56 410.792C214.586 411.165 217.553 411.913 220.392 413.015ZM141.754 480.909C145.354 491.113 155.117 493.324 183.593 492.471C198.777 492.018 203.345 485.929 204.655 480.741C205.486 477.457 205.287 474.189 204.754 471.436C204.725 471.583 204.692 471.729 204.655 471.873C203.345 477.057 198.777 483.148 183.593 483.603C155.117 484.455 145.356 482.243 141.753 472.041C140.947 469.755 140.679 467.476 140.604 464.872H140.587C140.673 471.885 140.157 476.391 141.754 480.909Z" fill="#181558"/>
<path d="M143.126 349.845C141.945 387.563 142.109 425.524 143.379 463.225C143.786 470.303 141.866 478.816 147.026 484.424C149.494 487.036 153.653 488.267 157.963 488.937C162.3 489.596 166.85 489.779 171.406 489.837C175.867 489.873 180.626 489.808 185.095 489.613C192.038 489.176 200.033 487.333 201.912 480.128C203.085 475.472 202.058 470.411 200.086 466.053C199.707 465.311 199.33 464.607 199.455 463.796C201.046 450.292 203.199 431.452 205.159 418.161C205.474 416.3 205.647 414.596 206.21 412.717C206.331 412.357 206.515 412.019 206.753 411.721C207.077 411.251 207.878 410.802 208.351 410.718L208.599 410.67L208.845 410.631C210.905 410.423 213.147 410.475 215.143 410.319C226.663 410.14 237.996 410.044 249.543 408.441C238.738 412.729 227.014 415.636 215.326 416.135C213.388 416.116 211.45 416.124 209.511 416.161L209.577 416.152C210.41 415.981 211.227 415.333 211.509 414.567C208.877 429.369 206.931 449.286 205.039 464.415L204.723 462.771C205.077 463.396 205.296 463.967 205.577 464.579C208.279 471.057 209.307 478.926 205.817 485.351C201.057 493.66 190.579 495.184 181.869 495.289C173.563 495.445 165.422 495.639 157.094 494.427C150.768 493.544 143.69 490.986 140.491 484.906C136.721 478.222 138.043 470.517 137.765 463.341C137.004 443.793 136.791 424.276 136.761 404.768C136.778 386.336 136.793 368.017 137.517 349.564C137.787 345.927 143.189 346.071 143.133 349.83L143.126 349.845Z" fill="#232333"/>
<path d="M150.874 464.452C153.682 461.655 157.56 460.053 161.349 459.001C172.783 455.987 185.983 457.844 195.319 465.277C187.853 463.415 180.669 461.984 173.069 461.821C165.567 461.692 158.134 462.081 150.869 464.452H150.874ZM186.566 469.804C190.155 475.254 192.019 482.368 189.405 488.687C188.515 490.905 187.065 492.909 185.376 494.62L181.795 490.326C183.288 489.373 184.647 488.209 185.673 486.743C189.101 481.905 188.577 475.201 186.566 469.804ZM165.89 471.234C168.286 477.599 169.771 485.103 166.545 491.521C165.994 492.542 165.322 493.493 164.544 494.353L160.802 490.203C162.061 489.379 163.098 488.258 163.822 486.939C166.358 482.281 166.493 476.461 165.897 471.234H165.89Z" fill="#232333"/>
<path d="M168.72 259.328C120.159 270.251 111.12 303.585 111.12 303.585C111.12 303.585 99.9892 318.807 115.382 338.881C133.188 362.111 149.988 326.428 149.988 326.428L182.193 267.243L168.72 259.328Z" fill="#60567C"/>
<path opacity="0.25" d="M182.187 267.239L177.977 274.97C164.549 273.813 152.189 271.578 142.239 269.108C149.391 265.165 158.105 261.71 168.717 259.328L182.187 267.239Z" fill="#181558"/>
<path d="M128.054 349.521C122.714 349.521 117.703 346.515 113.141 340.563C97.956 320.752 106.706 305.219 108.549 302.385C109.903 298.007 121.015 267.2 168.096 256.609C168.816 256.46 169.57 256.597 170.189 256.991C170.81 257.387 171.249 258.008 171.411 258.719C171.576 259.432 171.449 260.18 171.062 260.8C170.673 261.424 170.055 261.87 169.341 262.043C145.178 267.481 131.379 278.679 124.061 287.123C116.131 296.264 113.859 304.242 113.837 304.326C113.747 304.651 113.599 304.957 113.4 305.229C113.009 305.778 103.774 319.136 117.617 337.206C121.339 342.054 125.167 344.315 128.979 343.914C137.306 343.036 145.126 330.152 147.442 325.257C147.682 324.758 148.062 324.341 148.537 324.056C149.012 323.772 149.559 323.633 150.112 323.657C150.665 323.682 151.199 323.868 151.647 324.193C152.094 324.518 152.437 324.967 152.631 325.485C152.758 325.829 152.815 326.195 152.798 326.56C152.782 326.926 152.693 327.285 152.537 327.616C152.143 328.449 142.769 348.056 129.59 349.453C129.079 349.502 128.567 349.525 128.054 349.521Z" fill="#232333"/>
<path d="M166.783 264.558C178.721 278.361 210.492 359.401 138.85 379.525C138.85 379.525 132.411 369.34 138.703 360.009C146.498 348.448 177.269 333.723 158.086 285.82C155.501 279.359 150.115 268.66 144.087 268.125C144.087 268.125 142.887 259.753 152.179 259.753C161.47 259.753 166.783 264.558 166.783 264.558Z" fill="#52BF2E"/>
<path d="M138.843 379.523C138.843 379.523 132.406 369.342 138.694 360.008C146.494 348.448 177.259 333.726 158.083 285.82C156.917 282.903 155.174 279.121 153.058 275.799C150.501 271.767 147.377 268.417 144.075 268.125C144.075 268.125 142.882 259.753 152.172 259.753C161.463 259.753 166.776 264.56 166.776 264.56C168.497 266.55 170.633 269.936 172.805 274.336C185.729 300.465 200.162 362.307 138.843 379.523Z" fill="#52BF2E"/>
<path d="M183.501 331.554C180.732 351.959 168.878 371.089 138.843 379.523C138.843 379.523 132.406 369.342 138.694 360.008C143.825 352.412 158.87 343.441 163.135 324.582C165.363 314.756 164.652 302.235 158.085 285.82C156.919 282.903 155.177 279.121 153.062 275.799C150.504 271.767 147.381 268.417 144.079 268.125C144.079 268.125 142.886 259.753 152.175 259.753C161.465 259.753 166.778 264.56 166.778 264.56C168.501 266.55 170.637 269.936 172.809 274.336C179.398 287.665 186.389 310.299 183.501 331.554Z" fill="#52BF2E"/>
<path d="M183.501 331.554C180.732 351.959 168.878 371.089 138.843 379.523C138.843 379.523 132.406 369.342 138.694 360.009C143.825 352.412 158.87 343.441 163.135 324.582C170.626 325.216 178.238 327.111 183.501 331.554ZM172.812 274.336C165.439 269.692 157.022 273.465 153.063 275.799C150.509 271.767 147.382 268.417 144.084 268.125C144.084 268.125 142.889 259.753 152.179 259.753C161.469 259.753 166.781 264.56 166.781 264.56C168.502 266.55 170.638 269.936 172.812 274.336Z" fill="#469B19"/>
<path d="M138.845 382.076C138.411 382.075 137.983 381.966 137.602 381.757C137.221 381.548 136.899 381.247 136.665 380.881C136.366 380.411 129.422 369.174 136.555 358.592C138.194 356.164 140.602 353.764 143.393 350.984C154.21 340.201 170.563 323.905 155.688 286.761C151.951 277.432 147.195 270.966 143.854 270.666C143.276 270.615 142.732 270.37 142.31 269.972C141.889 269.576 141.616 269.049 141.535 268.477C141.466 268.007 140.952 263.721 143.806 260.463C145.701 258.294 148.521 257.197 152.177 257.197C162.35 257.197 168.274 262.443 168.516 262.671C168.595 262.741 168.669 262.815 168.737 262.893C176.729 272.137 193.474 310.523 183.828 342.212C177.79 362.041 162.893 375.419 139.55 381.976C139.321 382.042 139.083 382.075 138.845 382.076ZM146.683 266.168C153.123 268.712 158.001 278.709 160.473 284.888C176.59 325.141 158.095 343.575 147.043 354.589C144.442 357.179 142.195 359.42 140.837 361.436C136.923 367.239 138.857 373.542 140.162 376.485C160.545 370.249 173.573 358.233 178.896 340.749C188.009 310.816 171.586 274.268 164.95 266.372C164.206 265.773 159.598 262.305 152.169 262.305C150.069 262.305 148.56 262.815 147.682 263.814C147.069 264.515 146.799 265.401 146.683 266.168Z" fill="#232333"/>
<path d="M178.92 345.088C174.045 348.215 169.217 349.139 161.278 348.767C159.739 350.751 150.027 362.103 133.347 363.196C126.953 363.613 117.329 362.121 110.736 354.717C103.234 346.3 99.8898 335.111 101.451 322.935C103.303 308.495 112.041 292.652 128.89 278.365L122.894 311.279C125.061 309.282 132.777 303.215 139.982 298.626C147.862 293.605 149.191 288.532 157.692 287.715C159.891 287.499 161.134 295.974 163.186 296.159C171.245 296.874 178.605 299.387 182.199 303.04C184.941 305.828 186.684 309.16 187.666 312.716C191.227 325.561 184.786 341.331 178.92 345.088Z" fill="#60567C"/>
<path opacity="0.25" d="M178.92 345.088C174.045 348.215 169.217 349.139 161.278 348.767C159.739 350.751 150.027 362.103 133.347 363.196C126.953 363.613 117.329 362.121 110.736 354.717C103.234 346.3 99.8898 335.111 101.451 322.935C102.399 327.471 103.889 332.257 105.977 332.893C110.594 334.3 114.881 325.259 115.128 324.735C114.929 325.547 109.685 346.77 126.086 351.791C139.937 356.025 153.869 350.048 151.037 340.209C151.037 340.209 161.794 343.122 170.131 341.041C180.804 338.37 187.397 323.32 187.666 312.716C191.227 325.561 184.786 341.331 178.92 345.088Z" fill="#181558"/>
<path d="M122.89 311.276C126.322 306.464 130.69 302.509 135.279 298.827C137.503 297.066 139.839 295.6 141.953 293.73C144.219 291.829 146.095 289.689 148.659 287.872C151.149 286.071 154.289 285.013 157.359 284.704C162.317 284.509 162.761 290.564 164.751 293.619C164.44 293.323 164.046 293.129 163.622 293.063C170.321 293.615 179.103 295.379 184.632 300.726C192.874 308.931 193.582 321.795 190.431 332.339C188.767 337.657 186.391 343.12 182.007 346.919C176.254 351.501 168.153 352.29 161.148 351.56C161.133 351.56 163.514 350.473 163.505 350.473C148.942 368.615 117.684 373.389 104.573 351.164C95.7446 337.401 96.9549 319.477 103.874 305.265C109.227 293.989 117.602 284.31 127.07 276.255C129.955 273.937 133.481 278.001 130.738 280.479C124.02 286.208 117.97 292.676 113.198 300.054C108.559 307.283 105.096 315.512 104.179 324.015C102.845 335.118 106.301 346.847 114.562 354.603C118.541 358.16 123.958 360.076 129.489 360.423C140.717 361.048 151.987 355.629 159.051 347.082C159.333 346.728 159.693 346.445 160.104 346.256C160.515 346.068 160.965 345.979 161.417 345.997C164.208 346.007 166.954 345.887 169.467 345.433C172.93 344.723 176.493 343.444 178.805 340.722C185.263 332.168 187.747 317.589 182.004 308.25C178.217 301.815 169.913 300.201 162.919 299.271C158.582 298.645 158.261 293.401 156.501 290.401C156.422 290.245 156.309 290.168 156.518 290.348C156.761 290.526 157.041 290.646 157.337 290.701C157.545 290.737 157.757 290.747 157.968 290.73C157.586 290.771 157.197 290.8 156.825 290.862C151.983 291.477 149.51 294.899 145.555 298.021C144.344 298.984 143.07 299.864 141.741 300.656C135.54 304.275 129.406 307.899 122.897 311.289L122.89 311.276Z" fill="#232333"/>
<path d="M150.175 300.071C154.761 298.146 161.558 295.785 166.296 294.057L167.273 298.835C162.223 299.157 155.131 299.517 150.175 300.071Z" fill="#232333"/>
<path d="M194.213 263.857C130.761 270.165 91.4966 244.751 83.6332 197.67C76.764 156.527 91.932 105.916 110.822 76.2334C117.847 65.1951 132.127 48.0146 174.965 35.8551C210.411 26.8603 200.198 7.18027 204.201 4.3277C208.975 0.921416 235.563 3.23227 233.683 28.086C248.607 28.0723 250.128 15.4688 258.89 19.0517C264.317 21.2631 271.13 32.8208 264.158 49.1597C274.077 54.1363 280.413 59.9888 280.413 59.9888C309.173 81.4346 313.635 114.22 319.546 139.074C323.751 156.745 333.509 174.69 326.393 200.96C317.349 234.349 285.523 251.481 234.057 259.043" fill="white"/>
<path d="M326.381 200.953C323.765 210.609 319.248 218.905 312.902 225.993C297.295 243.447 270.639 253.66 234.051 259.038L194.211 263.855C165.634 266.692 141.96 263.099 123.857 253.986C101.763 242.883 87.9549 223.545 83.6366 197.663C76.7623 156.522 91.9337 105.915 110.818 76.2248C117.845 65.1866 132.122 48.0094 174.965 35.85C210.41 26.8586 200.198 7.17 204.199 4.31743C208.977 0.914571 235.563 3.22371 233.685 28.0774C248.604 28.0689 250.13 15.4603 258.888 19.0449C264.314 21.2649 271.131 32.8209 264.156 49.1597C274.075 54.138 280.401 59.9888 280.401 59.9888C309.159 81.438 313.625 114.222 319.534 139.077C323.738 156.752 333.502 174.68 326.381 200.953Z" fill="white"/>
<path opacity="0.25" d="M312.905 225.999C297.297 243.452 270.643 253.665 234.053 259.043C234.053 259.043 223.275 261.579 215.373 262.413C205.562 263.452 194.215 263.86 194.215 263.86C165.638 266.697 141.962 263.103 123.859 253.991C121.493 252.093 166.781 264.558 237.566 252.639C278.434 245.757 312.891 225.731 312.905 225.999Z" fill="#181558"/>
<path d="M161.071 107.25C160.071 105.573 168.315 88.782 179.798 92.4815C182.853 93.4655 184.826 99.2066 182.415 102.177C178.191 107.389 162.065 108.925 161.071 107.25ZM293.544 101.379C294.394 100.005 286.826 84.5443 276.027 88.5952C272.777 89.8157 271.322 94.9123 274.956 97.7015C281.925 103.055 292.694 102.75 293.544 101.379ZM196.481 206.055C199.507 205.316 222.216 200.895 218.811 165.975C216.021 137.355 203.031 133.275 185.179 131.872C163.203 130.153 138.996 148.389 132.43 164.384C119.028 197.029 143.11 215.367 161.847 214.864C173.513 214.547 173.837 211.578 196.481 206.055ZM281.357 192.908C273.809 191.913 260.073 184.645 257.304 161.236C254.481 137.363 263.143 129.582 275.669 128.147C287.258 126.822 301.425 129.944 313.815 145.599C321.619 155.461 324.951 173.608 323.481 182.226C322.209 189.685 315.326 194.456 303.737 193.671C293.011 192.945 286.315 193.563 281.357 192.908Z" fill="#60567C"/>
<path d="M194.211 263.857C167.643 271.071 135.509 266.274 112.649 250.842C96.6669 240.095 85.7554 222.774 81.5863 204.239C72.5572 162.503 85.0372 112.792 106.529 76.4511C119.841 53.3237 145.406 41.1609 170.091 33.7586L173.503 32.7746C180.622 30.9609 188.438 28.3586 193.757 23.406C197.556 19.9877 199.387 15.2563 199.665 10.2163C199.956 5.89629 199.903 1.64829 205.421 0.494579C211.318 -0.734564 217.272 0.426008 222.65 2.82601C232.858 7.42029 237.6 17.6837 236.486 28.2951L233.679 25.3003C238.351 25.3586 242.393 23.7163 246.038 20.6889C248.304 18.9592 250.265 16.9346 253.371 15.9969C260.157 14.0151 266.047 20.1472 268.123 25.8506C271.257 33.7277 269.978 42.7654 266.75 50.238C266.75 50.2483 265.431 46.6723 265.431 46.6723C271.174 49.4666 278.189 54.2374 282.096 57.762C306.823 75.9146 314.949 103.928 320.868 132.309C324.219 148.94 331.809 164.682 331.711 181.976C331.38 225.935 299.925 248.339 259.486 256.197C251.096 257.826 242.589 258.778 234.046 259.043C260.458 251.733 289.013 245.437 308.925 225.755C320.407 214.297 326.179 198.023 326.088 182.013C326.143 165.316 318.576 149.756 315.381 133.523C308.055 99.7997 301.164 76.6706 271.058 56.3923C268.432 54.6513 265.706 53.0657 262.894 51.6437C262.263 51.3244 261.775 50.7782 261.53 50.1146C261.285 49.4528 261.302 48.7224 261.578 48.0729C265.068 39.9986 266.073 29.2003 259.419 22.6723C258.254 21.5769 256.445 20.91 254.95 21.342C253.505 21.7226 251.619 23.3889 249.55 25.0414C245.342 28.65 239.397 31.0106 233.69 30.87C233.302 30.8734 232.918 30.7965 232.561 30.6443C232.204 30.4921 231.883 30.2678 231.617 29.9854C231.355 29.7035 231.154 29.3698 231.028 29.0058C230.902 28.6419 230.853 28.2556 230.885 27.8717C231.166 23.6769 230.57 19.5266 228.706 16.0843C225.005 9.06429 215.983 5.54486 208.25 6.28715C207.504 6.34851 206.773 6.5321 206.086 6.83058C206.042 6.85115 206.052 6.85972 206.04 6.85801C206.137 6.79402 206.224 6.71604 206.299 6.62658C206.424 6.47915 206.433 6.42601 206.419 6.47058C206.131 7.72201 206.134 9.16886 206.011 10.7049C205.416 26.5157 192.459 34.3569 178.689 38.3169C153.353 45.4003 126.238 56.5106 112.591 80.094C104.421 93.5511 98.3469 108.196 93.7989 123.237C83.1686 159.272 77.8972 207.976 106.107 237.357C130.092 261.892 162.226 261.764 194.211 263.857Z" fill="#232333"/>
<path d="M136.102 62.6528C131.018 47.6528 108.106 26.5277 82.7949 34.8985C56.028 43.7545 43.8926 70.3705 57.5263 94.6705C68.1137 113.533 87.4457 118.098 100.858 117.963C100.858 117.963 116.191 116.154 125.949 104.826C140.589 87.8442 136.102 62.6528 136.102 62.6528Z" fill="#686779"/>
<path d="M57.528 94.6723C66.8383 111.26 82.9046 116.783 95.7686 117.786C97.5326 117.923 99.24 117.983 100.86 117.963C100.86 117.963 116.194 116.151 125.95 104.826C140.594 87.8374 136.102 62.6512 136.102 62.6512C131.021 47.6512 108.105 26.526 82.7949 34.8952C67.9423 39.8117 57.5983 50.1952 53.652 62.6152C50.4977 72.5803 51.4577 83.862 57.528 94.6723Z" fill="#60567C"/>
<path opacity="0.25" d="M57.5297 94.6723C66.8383 111.26 82.9046 116.783 95.7686 117.786C97.8686 116.569 99.3172 114.769 98.4 112.122C95.6675 104.284 79.9595 111.515 67.6732 90.9848C58.1092 75.0094 66.132 63.2717 64.044 62.9391C62.5697 62.6957 56.9435 65.0083 53.652 62.6134C50.4977 72.5803 51.4577 83.862 57.5297 94.6723Z" fill="#181558"/>
<path d="M134.765 63.0951C124.99 45.5665 104.091 30.5665 83.4172 37.8282C76.2497 40.2402 69.5812 44.214 64.4452 49.7374C52.2343 62.7797 51.8366 81.498 61.788 96.0282C70.1846 109.059 85.4572 115.712 100.839 116.569C102.561 116.667 102.609 119.211 100.869 119.355C92.6263 119.98 84.1046 118.767 76.2943 115.396C68.4909 112.071 61.5257 106.384 56.8851 99.222C44.2937 80.2997 47.0194 56.1042 64.8103 41.4608C74.6932 33.3282 87.9154 28.3705 100.803 30.5254C115.311 33.0025 129.207 43.0225 135.499 56.1505C136.405 58.076 137.054 60.1123 137.429 62.2071C137.489 62.5394 137.427 62.8822 137.254 63.1722C137.08 63.4653 136.807 63.6859 136.483 63.7939C136.16 63.9019 135.809 63.8899 135.494 63.7602C135.179 63.633 134.92 63.397 134.765 63.0951Z" fill="#232333"/>
<path d="M123.631 76.458C122.402 69.1774 113.46 51.2923 93.8263 55.0431C77.232 58.2111 69.4423 73.4494 78.1252 89.8877C85.2103 103.305 101.301 103.237 107.042 101.584C116.75 98.79 125.35 86.6477 123.631 76.458Z" fill="white"/>
<path d="M78.1269 89.8895C78.9573 91.4753 79.9761 92.9552 81.1612 94.2969C89.0606 103.275 102.01 103.038 107.04 101.586C116.743 98.7918 125.345 86.6546 123.629 76.4615C122.405 69.1792 113.46 51.2906 93.8263 55.0449C87.5572 56.2415 82.5497 59.1575 79.2086 63.2169H79.1983C73.6954 69.9009 72.7252 79.662 78.1269 89.8895Z" fill="white"/>
<path opacity="0.25" d="M81.1577 94.2986C89.0589 103.275 102.009 103.038 107.037 101.586C116.739 98.7918 125.342 86.6546 123.626 76.4615C122.402 69.1792 113.458 51.2906 93.8246 55.0449C87.5554 56.2415 82.548 59.1575 79.2051 63.2169C97.0851 51.6146 120.885 71.5518 106.663 90.1038C98.0846 101.301 87.6669 98.1455 81.1577 94.2986Z" fill="#181558"/>
<path d="M100.677 105.145C92.448 105.145 81.3926 102.088 75.6308 91.1786C71.004 82.4221 70.4537 73.4855 74.0846 66.0249C77.556 58.8798 84.3806 54.0095 93.2931 52.3089C100.869 50.8638 107.681 52.182 113.554 56.2278C122.064 62.0906 125.678 71.7249 126.398 76.0003C128.29 87.2323 119.266 100.965 107.822 104.26C105.994 104.787 103.502 105.145 100.677 105.145ZM99.024 57.3215C97.4588 57.3283 95.8988 57.4809 94.3628 57.7792C87.24 59.1386 81.84 62.9255 79.1571 68.442C76.3183 74.2775 76.8377 81.4346 80.6211 88.5952C87.288 101.223 102.787 99.9095 106.263 98.9169C114.912 96.4278 122.28 85.3278 120.864 76.9261C120.182 72.8889 116.82 65.2655 110.354 60.8186C107.03 58.5082 103.072 57.2863 99.024 57.3215ZM136.606 77.8535C138.183 91.0415 130.452 104.643 119.021 111.243C118.262 111.682 117.49 112.099 116.707 112.494C117.878 111.188 119.21 110.092 120.372 108.808C128.738 100.305 134.441 89.5741 136.606 77.8535ZM286.188 144.4C294.269 144.491 300.653 153.988 300.447 165.611C300.242 177.234 293.523 186.584 285.442 186.493C277.361 186.402 270.977 176.905 271.183 165.282C271.39 153.659 278.109 144.308 286.188 144.4Z" fill="#232333"/>
<path d="M187.625 152.012C178.79 152.111 171.811 162.489 172.037 175.201C172.262 187.912 179.611 198.131 188.448 198.033C197.285 197.937 204.262 187.556 204.039 174.844C203.815 162.133 196.462 151.912 187.625 152.012Z" fill="#232333"/>
</g>
</g>
</g>
</g>
</g>
<defs>
<clipPath id="clip0_1_3234">
<rect width="384" height="488.674" fill="white"/>
</clipPath>
<clipPath id="clip1_1_3234">
<rect width="384" height="489.42" fill="white"/>
</clipPath>
<clipPath id="clip2_1_3234">
<rect width="384" height="495.42" fill="white"/>
</clipPath>
<clipPath id="clip3_1_3234">
<rect width="384" height="495.429" fill="white" transform="translate(0 -0.00427246)"/>
</clipPath>
</defs>
</svg>
