<svg width="29" height="42" viewBox="0 0 29 42" fill="none" xmlns="http://www.w3.org/2000/svg">
<g clip-path="url(#clip0_5_12263)">
<path d="M3.8698 32.0383L4.78516 26.5932L1.47631 26.7377L1.27218 22.0621L5.58806 21.8737L6.44719 16.7914L2.49096 16.9641L2.28682 12.2886L7.2501 12.0719L8.16545 6.62675L13.92 6.3755L13.0046 11.8206L17.3205 11.6322L18.2359 6.18706L23.9904 5.93582L23.075 11.3809L26.3839 11.2365L26.588 15.912L22.2721 16.1004L21.413 21.1828L25.3692 21.01L25.5734 25.6856L20.6101 25.9023L19.6947 31.3474L13.9402 31.5986L14.8556 26.1535L10.5397 26.342L9.62432 31.7871L3.8698 32.0383ZM11.3426 21.6224L15.6585 21.434L16.5176 16.3517L12.2017 16.5401L11.3426 21.6224Z" fill="white"/>
</g>
<defs>
<clipPath id="clip0_5_12263">
<rect width="27" height="40" fill="white" transform="translate(0 1.17773) rotate(-2.5)"/>
</clipPath>
</defs>
</svg>
