<svg width="25" height="25" viewBox="0 0 25 25" fill="none" xmlns="http://www.w3.org/2000/svg">
<g clip-path="url(#clip0_5_12777)">
<g clip-path="url(#clip1_5_12777)">
<g clip-path="url(#clip2_5_12777)">
<path fill-rule="evenodd" clip-rule="evenodd" d="M19.2336 22.1823C19.5566 22.4111 19.972 22.4679 20.3432 22.3275C20.7134 22.1861 20.9865 21.8698 21.0682 21.4861C21.9384 17.3948 24.0499 7.04094 24.8422 3.31978C24.8716 3.18152 24.8629 3.0379 24.8172 2.90416C24.7715 2.77041 24.6904 2.65154 24.5826 2.56017C24.474 2.46801 24.3429 2.40643 24.2026 2.38175C24.0623 2.35708 23.918 2.37021 23.7845 2.41978C19.5826 3.97459 6.64799 8.82747 1.36049 10.7842C1.1977 10.844 1.05778 10.9533 0.960483 11.0969C0.863181 11.2404 0.813407 11.4109 0.818186 11.5842C0.824132 11.7581 0.884763 11.9256 0.99145 12.0631C1.09814 12.2005 1.24545 12.3007 1.41242 12.3496C3.78357 13.0592 6.89511 14.0457 6.89511 14.0457C6.89511 14.0457 8.34992 18.4381 9.10761 20.6717C9.20376 20.9525 9.42299 21.1727 9.71242 21.2486C10.0009 21.3236 10.3086 21.2448 10.5249 21.0419L13.6259 18.1131C13.6259 18.1131 17.2038 20.7371 19.2336 22.1823ZM8.20472 13.49L9.88742 19.0381L10.2615 15.5256L20.4634 6.32363C20.5157 6.2765 20.5482 6.21128 20.5542 6.14113C20.5603 6.07099 20.5395 6.00115 20.4961 5.94574C20.4523 5.89027 20.3895 5.85306 20.3198 5.84133C20.2502 5.8296 20.1786 5.8442 20.1191 5.88228C15.8259 8.62267 8.20569 13.4909 8.20569 13.4909L8.20472 13.49Z" fill="#100C18"/>
</g>
</g>
</g>
<defs>
<clipPath id="clip0_5_12777">
<rect width="25" height="25" fill="white"/>
</clipPath>
<clipPath id="clip1_5_12777">
<rect width="25" height="25" fill="white"/>
</clipPath>
<clipPath id="clip2_5_12777">
<rect width="25" height="21.1538" fill="white" transform="translate(0 1.92285)"/>
</clipPath>
</defs>
</svg>
