<svg width="170" height="43" viewBox="0 0 170 43" fill="none" xmlns="http://www.w3.org/2000/svg">
<g clip-path="url(#clip0_5_12760)">
<g clip-path="url(#clip1_5_12760)">
<g clip-path="url(#clip2_5_12760)">
<g clip-path="url(#clip3_5_12760)">
<g clip-path="url(#clip4_5_12760)">
<path d="M146.069 24.3049V26.3706C147.245 26.5015 148.427 26.5675 149.611 26.5682C153.284 26.5682 156.99 25.9782 160.729 24.7971L162.107 33.4552C157.679 34.6363 153.317 35.2264 149.021 35.2264C143.511 35.2264 139.526 33.9474 137.066 31.3895C134.606 28.798 133.376 24.8623 133.376 19.5824C133.376 14.3016 134.606 10.3827 137.066 7.82476C139.558 5.23324 143.543 3.93848 149.021 3.93848C151.776 3.93848 154.071 4.11836 155.908 4.47912C157.744 4.80726 159.221 5.3815 160.336 6.20086C161.483 6.98859 162.287 8.07086 162.746 9.44766C163.239 10.7918 163.484 12.4978 163.484 14.5645C163.484 16.2694 163.189 17.746 162.598 18.9924C162.041 20.2051 161.09 21.2063 159.746 21.9931C158.401 22.7798 156.614 23.3699 154.383 23.7642C152.153 24.125 149.382 24.3049 146.069 24.3049ZM146.069 15.0567V17.4673H148.479C149.922 17.4673 150.955 17.3191 151.579 17.0245C152.235 16.729 152.562 16.0401 152.562 14.9588V12.5472H150.152C148.709 12.5472 147.66 12.6955 147.004 12.99C146.38 13.2855 146.069 13.9744 146.069 15.0557V15.0567Z" fill="#141414"/>
<path d="M168.45 34.6733L10.3235 34.4726H5.88078L3.14496 30.1831C3.14496 30.1831 1.43508 30.6605 1.51909 31.6874C1.60409 32.7143 3.05799 35.4076 3.05799 35.4076H1.86008C1.86008 35.4076 0.144265 39.0152 1.51613 40.0411C2.887 41.069 24.6905 40.9178 27.5973 41.069C29.6234 41.1728 168.45 42.007 168.45 40.6855C168.45 39.3651 169.817 37.0207 168.45 34.6762V34.6733Z" fill="#72A314"/>
<path d="M27.0083 3.15599C29.6473 3.15599 31.9304 3.6057 33.8538 4.50117C35.7782 5.39762 37.2449 6.6657 38.256 8.3064C39.2661 9.94512 39.7712 11.8547 39.7712 14.0409C39.7712 16.2272 39.2671 18.0972 38.256 19.734C37.2449 21.3727 35.7782 22.6388 33.8538 23.5372C31.9304 24.4327 29.6473 24.8824 27.0073 24.8824H13.3164V17.9084H26.4618C27.8643 17.9084 28.9604 17.5655 29.7451 16.8795C30.5309 16.1936 30.9262 15.2487 30.9262 14.0429C30.9262 12.8381 30.5339 11.8517 29.7451 11.1658C28.9604 10.4798 27.8643 10.1359 26.4608 10.1359H14.0745L17.9924 6.10134V34.6752H9.27002V3.15599H27.0083ZM65.3829 10.5609H74.0193L75.5779 20.1422V34.5546H66.984V18.8395L65.3829 10.5609ZM84.4268 9.84727C86.7287 9.84727 88.6946 10.3088 90.3264 11.234C91.9553 12.1571 93.1967 13.4627 94.0555 15.142C94.9105 16.8242 95.3404 18.8128 95.3404 21.1078V34.5546H86.7465V22.368C86.7465 20.5761 86.2899 19.2012 85.3766 18.2504C84.4634 17.2976 83.1518 16.8202 81.438 16.8202C80.2569 16.8202 79.224 17.0723 78.3414 17.5763C77.4633 18.0732 76.7526 18.8197 76.2994 19.7211C75.8211 20.6433 75.5839 21.7364 75.5839 22.9995L72.9291 21.6119C73.2671 19.0648 73.9827 16.9122 75.0788 15.1627C76.1749 13.4113 77.523 12.0909 79.1242 11.1915C80.7254 10.296 82.4946 9.84727 84.4328 9.84727H84.4268ZM123.53 22.5785C123.137 25.0988 122.358 27.3128 121.192 29.2184C120.026 31.1259 118.552 32.6006 116.769 33.6512C114.985 34.7019 112.954 35.2267 110.681 35.2267C108.407 35.2267 106.248 34.7019 104.468 33.6512C102.684 32.6006 101.286 31.1161 100.276 29.1976C99.2653 27.2782 98.7602 25.0712 98.7602 22.5785C98.7602 20.0868 99.2653 17.8027 100.276 15.8971C101.286 13.9935 102.684 12.508 104.468 11.4425C106.252 10.377 108.322 9.84628 110.681 9.84628C113.04 9.84628 114.985 10.3701 116.769 11.4218C118.552 12.4724 120.035 13.9421 121.213 15.8329C122.394 17.7246 123.164 19.9712 123.53 22.5755V22.5785ZM107.479 22.5785C107.479 23.7566 107.725 24.8043 108.215 25.7304C108.681 26.628 109.389 27.3776 110.258 27.8949C111.129 28.4138 112.124 28.6718 113.25 28.6718C114.405 28.6784 115.545 28.4122 116.578 27.8949C117.628 27.367 118.56 26.6305 119.316 25.7304C120.105 24.8042 120.705 23.7338 121.086 22.5785C120.711 21.4082 120.11 20.3231 119.316 19.3851C118.557 18.4823 117.626 17.7392 116.578 17.1988C115.548 16.6694 114.407 16.3955 113.25 16.4002C112.072 16.4002 111.129 16.667 110.258 17.1988C109.39 17.7268 108.683 18.4831 108.215 19.3851C107.722 20.3082 107.479 21.3737 107.479 22.5785ZM121.676 34.5526L120.537 25.5604L122.011 22.618L120.578 18.9205L122.599 2.19727H131.53L129.043 21.9054L130.558 34.5526H121.67H121.676ZM45.1716 27.8989C45.0886 30.4123 46.6077 32.0669 47.8501 32.1884C49.0915 32.31 51.9025 30.7583 52.0566 29.6533C52.2583 28.2231 45.2596 25.172 45.1716 27.9019V27.8989ZM42.5258 15.7063C40.3514 16.7511 38.1759 20.2973 41.4356 22.5587C44.6933 24.8211 47.2344 21.5111 48.5133 19.0797C50.5375 15.224 44.6992 14.6616 42.5258 15.7063ZM45.3723 19.5116C44.5895 19.3623 43.7069 19.9366 43.8868 19.0579C44.0627 18.1812 44.8425 17.5892 45.6243 17.7374C46.4101 17.8857 46.8993 18.7209 46.7204 19.5986C46.5435 20.4762 46.1541 19.6598 45.3723 19.5106V19.5116ZM60.6743 22.9768C59.0484 20.6324 53.2862 17.7454 53.5975 22.8552C53.7952 26.0773 54.8231 30.9372 58.8537 30.5695C62.8813 30.2058 62.2991 25.3212 60.6743 22.9768ZM55.8184 24.6136C55.2066 23.9879 54.1747 24.0571 54.8992 23.3652C55.6266 22.6734 56.7109 22.621 57.3227 23.2496C57.9375 23.8752 57.8465 24.9437 57.1191 25.6365C56.3907 26.3284 56.4302 25.2412 55.8184 24.6136ZM55.6385 5.95309C54.6215 -0.303308 49.9188 -0.358657 47.8758 0.394483C45.2883 1.34727 42.6375 3.69762 44.3473 9.09611C44.3473 9.09611 48.375 4.61483 55.6385 5.95309Z" fill="#141414"/>
<path d="M73.6682 9.88765C71.9485 8.11846 69.0654 7.39201 65.2473 10.7436C65.2473 10.7436 70.4076 12.6749 71.0312 18.9382C76.1065 15.5224 75.0223 11.2842 73.6643 9.89061L73.6682 9.88765ZM35.6554 35.6604C35.5556 35.6308 35.4479 35.6031 35.3451 35.5754C31.9263 35.0081 30.1215 36.3039 29.9298 39.4647H29.7163V40.12H29.8626C29.8231 41.563 30.6029 42.2519 32.207 42.1906C32.9097 43.0169 33.7716 43.2017 34.7876 42.7471C36.1397 43.3233 37.1864 43.1049 37.9267 42.0908C39.178 41.9574 39.7947 41.3011 39.7779 40.1239M61.955 36.3296C61.8913 36.3863 61.8284 36.444 61.7663 36.5025C59.9546 38.5455 60.0672 40.291 62.1072 41.7429L62.0183 41.8852L62.4601 42.158L62.5214 42.0611C63.4702 42.6937 64.2589 42.4594 64.8895 41.3633C65.7395 41.2388 66.2228 40.7436 66.3414 39.8729C67.2942 39.2136 67.5868 38.4239 67.2151 37.5047C67.65 36.6112 67.4672 35.9253 66.6706 35.446" fill="#141414"/>
<path fill-rule="evenodd" clip-rule="evenodd" d="M68.4666 36.4808C68.353 36.0652 68.2505 35.6466 68.1592 35.2256L68.4666 36.4808Z" fill="#141414"/>
<path d="M28.1816 41.4308C27.9345 41.4278 27.7398 41.4229 27.6034 41.4149C26.8581 41.3655 24.8349 41.3211 22.2711 41.2637C12.2856 41.0443 2.45423 40.7656 1.47574 40.0184C1.13574 39.7594 0.914345 39.3344 0.837252 38.7898C0.60795 37.1897 1.66057 35.0024 1.78115 34.7573C1.8365 34.6456 1.91952 34.5833 2.00847 34.5843L2.60347 34.5922C2.1508 33.6661 1.48562 32.1905 1.4283 31.3948C1.3344 30.0576 2.84167 29.5545 3.30621 29.4329C3.39714 29.4102 3.48905 29.4566 3.55132 29.5584L6.14679 33.7145L10.465 33.7699L168.302 34.4894C168.383 34.4845 168.459 34.5408 168.514 34.6357C169.579 36.5037 169.08 38.4231 168.749 39.6902C168.627 40.1567 168.512 40.5986 168.508 40.8931C168.501 41.4634 45.144 40.1913 43.0635 40.5323C41.8379 40.732 40.1349 40.9138 37.9971 41.0661C34.009 41.3507 29.7827 41.4515 28.1825 41.4318L28.1816 41.4308ZM2.13795 35.4788C1.82464 36.1667 1.25336 37.6661 1.3858 38.5842C1.42632 38.8709 1.53405 39.0725 1.72382 39.2168C2.67266 39.9433 15.4316 40.2249 22.2839 40.3742C24.8517 40.4315 26.8809 40.476 27.632 40.5254C27.7605 40.5333 27.9483 40.5383 28.1914 40.5412C32.4582 40.5966 166.813 41.6087 167.949 40.7162C167.979 40.303 168.095 39.8612 168.224 39.3591C168.539 38.1513 168.895 36.7874 168.17 35.3839L10.4571 34.6594L6.01533 34.6031C5.94121 34.6011 5.87202 34.5556 5.81964 34.4726L3.2469 30.3521C2.57086 30.5656 1.964 31.0074 1.98475 31.2871C2.02923 31.8979 2.84661 33.6869 3.41097 34.7602C3.48227 34.9092 3.49532 35.0795 3.44754 35.2376C3.39812 35.3948 3.29731 35.4946 3.18859 35.4926L2.13696 35.4788H2.13795Z" fill="#141414"/>
</g>
</g>
</g>
</g>
</g>
<defs>
<clipPath id="clip0_5_12760">
<rect width="170" height="43" fill="white"/>
</clipPath>
<clipPath id="clip1_5_12760">
<rect width="170" height="43" fill="white"/>
</clipPath>
<clipPath id="clip2_5_12760">
<rect width="170" height="43" fill="white"/>
</clipPath>
<clipPath id="clip3_5_12760">
<rect width="170" height="43" fill="white"/>
</clipPath>
<clipPath id="clip4_5_12760">
<rect width="170" height="43.4884" fill="white" transform="translate(0 -0.244141)"/>
</clipPath>
</defs>
</svg>
