<svg width="270" height="290" viewBox="0 0 270 290" fill="none" xmlns="http://www.w3.org/2000/svg">
<path d="M209.962 147.276C224.502 145.457 232.258 128.887 231.651 126.087C231.044 123.287 221.15 137.95 213.855 139.063" fill="#6FB643"/>
<path d="M209.957 149.193C209.468 149.195 208.996 149.01 208.639 148.676C208.282 148.341 208.066 147.883 208.035 147.395C208.007 146.907 208.166 146.427 208.479 146.052C208.792 145.677 209.236 145.435 209.721 145.376C216.75 144.498 221.76 139.89 224.727 136.18C226.034 134.55 227.176 132.793 228.135 130.937C224.268 134.858 218.974 140.222 214.142 140.958C213.638 141.035 213.124 140.91 212.712 140.609C212.508 140.461 212.336 140.274 212.205 140.059C212.074 139.844 211.987 139.605 211.949 139.356C211.91 139.107 211.922 138.853 211.982 138.609C212.042 138.364 212.15 138.134 212.3 137.931C212.602 137.521 213.055 137.248 213.559 137.171C217.13 136.627 222.106 131.582 225.399 128.244C228.778 124.819 230.174 123.402 231.93 123.908C232.742 124.143 233.341 124.807 233.53 125.685C234.059 128.122 231.626 133.202 228.949 136.96C226.064 141.009 219.796 147.982 210.2 149.18C210.12 149.189 210.038 149.193 209.957 149.193Z" fill="#000072"/>
<path d="M229.897 130.884C229.897 130.884 233.621 126.585 240.084 125.345C251.227 123.206 262.203 131.666 267.168 139.145C267.168 139.145 260.627 134.835 252.473 135.539C247.772 135.948 236.254 142.349 229.897 130.884Z" fill="#4FAD32"/>
<path d="M235.867 134.775C239.836 136.942 244.603 135.673 248.433 134.653C249.927 134.255 251.217 133.911 252.318 133.816C255.578 133.533 258.598 133.997 261.097 134.687C258.006 133.46 255.029 132.318 252.316 132.546C248.096 132.9 239.523 135.403 240.446 130.991C237.198 130.184 237.773 128.539 240.084 127.566C235.993 128.351 233.446 129.956 232.088 131.159C233.168 132.787 234.412 133.98 235.867 134.775Z" fill="#438433"/>
<path d="M267.166 141.061C266.79 141.06 266.422 140.949 266.108 140.742C266.052 140.705 259.989 136.816 252.642 137.447C251.859 137.516 250.713 137.821 249.385 138.175C243.635 139.707 234.015 142.27 228.215 131.81C228.025 131.467 227.945 131.075 227.985 130.685C228.026 130.296 228.186 129.928 228.443 129.632C228.612 129.441 232.683 124.815 239.722 123.464C252.314 121.047 263.995 130.887 268.773 138.089C268.916 138.305 269.013 138.548 269.059 138.803C269.106 139.057 269.099 139.319 269.042 139.571C268.984 139.824 268.875 140.061 268.722 140.271C268.57 140.48 268.376 140.655 268.153 140.787C267.855 140.965 267.514 141.059 267.167 141.059L267.166 141.061ZM232.339 131.195C236.331 137.089 241.986 136.176 248.387 134.473C249.89 134.072 251.187 133.727 252.305 133.63C255.286 133.371 258.054 133.725 260.42 134.31C255.304 129.663 248.018 125.772 240.447 127.222C236.55 127.974 233.733 129.991 232.339 131.196V131.195Z" fill="#000072"/>
<path d="M228.652 127.69C228.652 127.69 233.72 121.953 236.137 111.926C237.697 105.458 236.199 98.4756 240.378 90.8887C240.378 90.8887 227.916 94.7751 224.126 111.554C221.62 122.646 228.647 127.69 228.647 127.69" fill="#6FB643"/>
<path d="M228.445 125.102C230.004 122.879 232.847 118.171 234.449 111.523C234.969 109.368 229.654 118.171 229.544 110.565C224.953 118.156 228.026 102.184 225.822 111.936C224.239 118.943 226.784 123.195 228.443 125.104" fill="#43A335"/>
<path d="M228.65 129.606C228.248 129.606 227.854 129.48 227.527 129.244C227.197 129.008 219.497 123.321 222.25 111.134C226.236 93.479 239.25 89.2331 239.801 89.0606C240.167 88.9469 240.559 88.9447 240.926 89.054C241.294 89.1634 241.62 89.3794 241.865 89.6747C242.108 89.9699 242.257 90.3314 242.292 90.7123C242.328 91.0932 242.248 91.4759 242.064 91.811C239.57 96.3393 239.255 100.735 238.95 104.985C238.777 107.414 238.597 109.927 238.007 112.374C235.505 122.743 230.311 128.706 230.094 128.956C229.914 129.16 229.691 129.324 229.442 129.436C229.193 129.548 228.923 129.606 228.65 129.606ZM236.567 95.0689C232.956 97.6304 228.102 102.666 226.004 111.975C224.488 118.686 226.803 122.836 228.429 124.797C230.002 122.513 232.717 117.908 234.266 111.483C234.782 109.343 234.94 107.096 235.113 104.716C235.326 101.727 235.558 98.4777 236.567 95.0689ZM258.451 133.285C257.426 132.604 256.292 132.114 255.143 131.706C253.991 131.31 252.804 131.018 251.599 130.834C250.401 130.642 249.19 130.546 247.977 130.547C247.373 130.529 246.768 130.571 246.166 130.6C245.568 130.628 244.974 130.692 244.384 130.791C243.198 131.001 242.026 131.284 240.876 131.639C239.705 131.983 238.515 132.362 237.254 132.633C235.959 132.926 234.627 133.027 233.302 132.931C231.951 132.828 230.63 132.462 229.398 131.959C229.188 131.865 229.009 131.712 228.884 131.518C228.759 131.324 228.693 131.098 228.695 130.867C228.696 130.637 228.765 130.412 228.892 130.219C229.019 130.027 229.2 129.876 229.411 129.785C229.695 129.66 230.015 129.65 230.306 129.756C230.335 129.767 230.364 129.78 230.391 129.795H230.397C231.387 130.312 232.451 130.674 233.552 130.865C234.677 131.038 235.822 131.043 236.949 130.879C239.272 130.572 241.704 129.813 244.24 129.622C244.872 129.568 245.506 129.549 246.139 129.567C246.768 129.587 247.39 129.594 248.017 129.662C249.264 129.76 250.501 129.957 251.716 130.252C252.927 130.536 254.11 130.93 255.251 131.426C256.381 131.93 257.483 132.517 258.451 133.277" fill="#000072"/>
<path d="M235.434 96.3342C234.286 98.6746 233.258 101.073 232.356 103.519C231.449 105.947 230.68 108.425 230.052 110.94C229.739 112.189 229.478 113.45 229.268 114.72C229.051 115.978 228.901 117.247 228.82 118.521C228.648 121.05 228.8 123.587 229.438 125.928L229.442 125.944C229.514 126.245 229.466 126.562 229.307 126.828C229.188 127.026 229.014 127.186 228.807 127.289C228.599 127.391 228.366 127.43 228.136 127.403C227.906 127.375 227.69 127.282 227.512 127.134C227.334 126.985 227.203 126.789 227.134 126.568C227.125 126.538 227.119 126.507 227.113 126.478C226.588 123.729 226.657 120.983 227.039 118.337C227.225 117.018 227.482 115.71 227.808 114.419C228.123 113.135 228.49 111.865 228.907 110.611C229.736 108.119 230.704 105.675 231.808 103.291C232.897 100.912 234.107 98.5914 235.434 96.3373" fill="#000072"/>
<path d="M205.644 155.075C216.831 164.028 216.802 178.581 210.209 186.102C204.512 192.603 193.471 194.086 188.795 190.267C180.614 183.585 172.911 185.103 172.911 175.38C172.911 162.528 194.096 145.833 205.644 155.074" fill="#515177"/>
<path d="M195.837 194.291C192.648 194.291 189.698 193.48 187.578 191.748C184.908 189.568 182.246 188.3 179.897 187.176C175.316 184.989 170.989 182.923 170.989 175.38C170.989 166.419 179.725 156.894 188.173 152.864C195.253 149.486 202.06 149.748 206.851 153.582C212.488 158.092 215.925 164.346 216.533 171.192C217.077 177.313 215.301 183.207 211.66 187.362C207.779 191.787 201.441 194.291 195.837 194.291ZM197.762 154.316C194.684 154.316 191.766 155.398 189.838 156.319C181.565 160.266 174.84 168.816 174.84 175.379C174.84 180.51 177.086 181.583 181.563 183.72C183.982 184.87 186.992 186.312 190.021 188.785C193.828 191.895 203.792 190.515 208.763 184.841C211.675 181.519 213.148 176.542 212.706 171.527C212.192 165.731 209.259 160.417 204.447 156.567C202.359 154.901 200.018 154.316 197.76 154.316H197.762Z" fill="#000072"/>
<path d="M175.954 201.315C185.143 202.953 211.685 215.253 208.973 239.7C207.461 253.325 195.474 261.738 190.45 263.804C201.395 272.493 196.814 283.599 183.534 285.187C171.702 286.6 153.784 281.622 152.422 250.182L175.954 201.315Z" fill="#777882"/>
<path d="M208.971 239.702C208.561 243.399 207.378 246.711 205.777 249.615C201.466 257.422 194.107 262.297 190.448 263.804C191.453 264.592 192.385 265.47 193.231 266.427C195.411 268.902 196.475 271.476 196.57 273.898C196.781 279.444 191.869 284.192 183.531 285.187C171.699 286.603 153.781 281.625 152.418 250.185L165.935 222.12L175.954 201.314C185.141 202.952 211.681 215.255 208.971 239.701" fill="#5F5F82"/>
<path d="M190.448 263.805C191.453 264.593 192.385 265.47 193.231 266.427C183.719 270.894 172.093 267.768 170.553 269.588C165.672 275.335 178.353 281.357 188.58 278.783C193.032 277.661 195.359 275.629 196.57 273.904C196.781 279.45 191.869 284.198 183.531 285.193C171.699 286.61 153.781 281.631 152.418 250.191L165.935 222.127C173.469 218.223 180.435 216.152 184.501 218.518C200.337 227.74 173.513 247.641 183.671 253.06C187.643 255.182 197.452 256.209 205.782 249.62C201.471 257.427 194.113 262.302 190.452 263.809" fill="#515177"/>
<path d="M179.999 287.312C175.092 287.312 168.37 286.175 162.484 281.197C155.154 274.997 151.122 264.588 150.501 250.264L150.481 249.785L174.854 199.173L176.297 199.431C186.529 201.25 213.736 214.238 210.889 239.911C209.476 252.65 199.589 260.882 193.821 264.24C197.78 268.234 199.331 272.834 198.097 277.163C196.578 282.488 191.22 286.199 183.764 287.089C182.514 287.238 181.257 287.312 179.999 287.312ZM154.367 250.575C155.004 263.543 158.572 272.86 164.975 278.276C171.465 283.766 179.246 283.771 183.307 283.285C189.078 282.595 193.328 279.849 194.393 276.115C195.388 272.627 193.515 268.686 189.253 265.302L186.698 263.275L189.717 262.029C193.757 260.37 205.599 252.667 207.062 239.487C208.435 227.107 201.629 218.472 195.678 213.407C189.193 207.887 181.507 204.646 177.032 203.508L154.367 250.575Z" fill="#000072"/>
<path d="M169.537 265.084C171.288 265.239 173.047 265.284 174.805 265.218C176.549 265.166 178.289 265.02 180.017 264.782C180.883 264.685 181.732 264.514 182.584 264.372C183.43 264.188 184.277 264.038 185.107 263.81C186.78 263.418 188.401 262.863 189.991 262.284L190.908 265.324C189.109 265.688 187.314 266.009 185.508 266.157C184.608 266.262 183.703 266.286 182.805 266.343C181.904 266.357 181.007 266.395 180.112 266.365C178.326 266.343 176.543 266.224 174.771 266.011C173.009 265.811 171.262 265.501 169.539 265.084M184.5 257.684C182.448 258.034 180.378 258.262 178.299 258.368C176.207 258.479 174.11 258.479 172.018 258.368C169.905 258.265 167.801 258.026 165.719 257.654L164.149 257.357L162.59 256.979L161.807 256.787L161.038 256.552L159.491 256.073L160.709 253.141L162.066 253.756L162.747 254.066L163.446 254.334L164.851 254.874L166.288 255.34C168.227 255.95 170.203 256.434 172.204 256.789C174.223 257.158 176.261 257.419 178.308 257.572C180.368 257.731 182.436 257.767 184.5 257.682" fill="#000072"/>
<path d="M120.235 199.102C111.046 200.741 84.5057 213.04 87.2171 237.487C88.7279 251.11 100.715 259.525 105.74 261.592C94.7948 270.28 99.3754 281.387 112.655 282.974C124.487 284.387 142.406 279.41 143.768 247.97L120.235 199.102Z" fill="#515177"/>
<path d="M116.192 285.1C114.934 285.1 113.676 285.026 112.426 284.877C104.972 283.985 99.6156 280.279 98.0925 274.949C96.858 270.621 98.4109 266.021 102.369 262.028C96.5971 258.669 86.7147 250.438 85.3015 237.699C82.4534 212.029 109.66 199.041 119.893 197.217L121.336 196.959L145.71 247.573L145.689 248.052C145.068 262.376 141.037 272.783 133.706 278.983C127.82 283.962 121.101 285.1 116.192 285.1ZM119.159 201.299C114.684 202.438 106.998 205.679 100.513 211.198C94.5614 216.263 87.7551 224.896 89.1283 237.278C90.5908 250.459 102.439 258.159 106.473 259.821L109.493 261.066L106.939 263.093C102.676 266.476 100.802 270.418 101.797 273.907C102.862 277.642 107.111 280.387 112.884 281.076C116.946 281.562 124.726 281.554 131.216 276.067C137.619 270.651 141.187 261.334 141.824 248.366L119.159 201.299Z" fill="#000072"/>
<path d="M126.651 262.871C126.651 262.871 116.534 264.82 105.739 261.592L126.651 262.871Z" fill="#777882"/>
<path d="M126.649 262.871C124.926 263.289 123.179 263.599 121.417 263.798C119.644 264.011 117.862 264.13 116.076 264.152C115.179 264.183 114.282 264.145 113.383 264.13C112.486 264.074 111.581 264.049 110.682 263.945C108.875 263.797 107.079 263.476 105.282 263.111L106.198 260.072C107.788 260.647 109.409 261.204 111.082 261.598C111.912 261.825 112.759 261.975 113.605 262.159C114.457 262.3 115.309 262.468 116.171 262.568C117.899 262.808 119.64 262.953 121.384 263.006C123.141 263.071 124.9 263.027 126.651 262.871" fill="#222233"/>
<path d="M111.693 255.471C111.693 255.471 124.54 257.157 136.094 252.396L111.693 255.471Z" fill="#777882"/>
<path d="M111.693 255.471C113.758 255.557 115.826 255.52 117.886 255.361C119.933 255.208 121.97 254.947 123.99 254.579C125.991 254.223 127.967 253.739 129.906 253.13L131.343 252.663L132.747 252.124L133.447 251.856L134.127 251.546L135.485 250.931L136.702 253.863L135.155 254.342L134.386 254.579L133.604 254.77L132.044 255.148L130.474 255.446C128.391 255.818 126.287 256.055 124.175 256.157C122.083 256.268 119.986 256.268 117.894 256.157C115.816 256.052 113.745 255.824 111.694 255.474" fill="#222233"/>
<path d="M149.524 149.154C175.149 164.383 212.952 221.949 168.809 249.918C143.768 265.785 89.8997 254.96 98.6708 182.134C98.6708 182.134 98.8043 158.593 113.299 147.278C127.794 135.962 149.524 149.154 149.524 149.154Z" fill="white"/>
<path d="M168.808 249.918C145.471 264.706 97.0994 256.307 97.7208 196.151C97.7793 191.465 98.0956 186.786 98.6687 182.134C98.6687 182.134 98.8043 158.591 113.297 147.278C127.789 135.965 149.522 149.153 149.522 149.153C154.195 151.93 159.274 156.119 164.186 161.276C186.214 184.398 204.9 227.049 168.804 249.918" fill="#EDEDED"/>
<path d="M164.188 161.276C149.886 189.262 112.917 194.985 97.7229 196.151C97.7814 191.465 98.0978 186.786 98.6709 182.134C98.6709 182.134 98.8065 158.591 113.299 147.278C127.791 135.965 149.524 149.153 149.524 149.153C154.197 151.93 159.277 156.119 164.188 161.276Z" fill="#515177"/>
<path d="M145.785 258.186C136.866 258.186 127.837 255.791 120.23 251.027C109.19 244.11 91.4619 225.932 96.7584 181.905C96.8066 181.529 96.9646 181.175 97.2127 180.888C97.4608 180.601 97.7879 180.394 98.1532 180.292C98.5185 180.19 98.9058 180.198 99.2666 180.315C99.6274 180.432 99.9456 180.653 100.182 180.95C100.497 181.349 100.641 181.857 100.58 182.361C96.8365 213.438 104.543 236.671 122.276 247.782C138.276 257.807 157.076 255.076 167.776 248.297C180.869 240.002 187.399 228.503 187.194 214.123C186.815 187.91 164.097 160.039 148.538 150.795C148.318 150.668 148.126 150.498 147.972 150.296C147.818 150.094 147.706 149.864 147.641 149.618C147.577 149.372 147.563 149.116 147.599 148.865C147.635 148.614 147.721 148.372 147.851 148.154C147.982 147.936 148.154 147.746 148.359 147.596C148.564 147.445 148.796 147.337 149.043 147.278C149.29 147.217 149.547 147.206 149.798 147.245C150.05 147.284 150.291 147.372 150.509 147.505C159.571 152.888 169.527 162.974 177.139 174.483C185.927 187.77 190.864 201.828 191.041 214.068C191.267 229.645 183.935 242.599 169.841 251.53C162.839 255.973 154.363 258.186 145.785 258.186Z" fill="#000072"/>
<path d="M106.87 184.713C106.736 188.95 107.999 193.642 107.999 193.642L111.858 193.687C111.858 193.687 119.62 221.952 112.556 225.719C101.397 231.671 87.0209 229.687 82.4772 215.739C78.1563 202.478 84.4009 181.822 97.8677 167.938C100.202 165.028 109.893 164.234 109.893 164.234" fill="#777882"/>
<path d="M112.557 225.719C101.398 231.671 87.0197 229.687 82.4791 215.74C79.935 207.941 81.0484 197.583 85.1402 187.549C87.9995 180.523 92.3224 173.652 97.8727 167.936C100.207 165.028 109.896 164.234 109.896 164.234L106.87 184.711C106.794 187.032 107.141 189.487 107.466 191.233C107.738 192.681 107.997 193.641 107.997 193.641L111.857 193.687C111.857 193.687 119.618 221.952 112.554 225.719" fill="#777882"/>
<path d="M113.285 225.201C113.067 225.405 112.823 225.58 112.56 225.72C101.401 231.671 87.024 229.687 82.4813 215.739C81.712 213.375 81.2745 210.769 81.1635 208.012C80.8883 201.685 82.2954 194.538 85.1434 187.548C88.0027 180.522 92.3256 173.651 97.8759 167.937C100.21 165.028 109.9 164.235 109.9 164.235L106.873 184.712C106.797 187.032 107.144 189.487 107.47 191.233C107.741 192.681 108 193.641 108 193.641L111.86 193.688C111.86 193.688 119.055 219.892 113.283 225.202" fill="#5F5F82"/>
<path d="M113.283 225.201C113.065 225.405 112.821 225.58 112.558 225.72C101.399 231.671 87.0218 229.687 82.4801 215.739C81.7098 213.375 81.2723 210.768 81.1614 208.012C83.1652 214.589 88.3672 221.337 94.4957 220.86C101.798 220.293 96.2725 214.065 102.418 204.549C105.721 199.436 113.255 219.571 113.255 219.571C113.255 219.571 113.319 222.209 113.283 225.201ZM107.472 191.233C101.551 185.433 91.8541 186.115 85.1412 187.548C88.0016 180.523 92.3235 173.651 97.8737 167.937C100.208 165.028 109.899 164.234 109.899 164.234L112.233 177.733L106.871 184.712C106.796 187.032 107.142 189.488 107.47 191.233" fill="#515177"/>
<path d="M106.87 184.713C107.104 186.204 107.459 187.674 107.934 189.107C108.165 189.819 108.414 190.522 108.682 191.214C108.95 191.899 109.241 192.609 109.538 193.225L108.018 192.049L111.878 192.096L113.081 192.111L113.396 193.26C114.057 195.752 114.646 198.262 115.161 200.789C115.688 203.314 116.129 205.856 116.482 208.411C116.832 210.975 117.085 213.566 117.116 216.21C117.137 217.554 117.069 218.898 116.91 220.233C116.73 221.592 116.463 222.986 115.783 224.401C115.419 225.164 114.912 225.85 114.289 226.422C114.116 226.573 113.935 226.714 113.747 226.845L113.447 227.028L113.299 227.115L113.186 227.174C111.695 227.963 110.138 228.62 108.533 229.139C105.945 229.987 103.242 230.432 100.518 230.457C97.7854 230.471 95.0143 230.012 92.4272 228.985C89.8246 227.956 87.4861 226.355 85.5839 224.302C83.692 222.258 82.2901 219.825 81.3411 217.284C80.8719 216.018 80.495 214.72 80.2134 213.4C79.9465 212.088 79.7586 210.762 79.6505 209.428C79.2397 204.108 79.971 198.831 81.3452 193.789C82.7184 188.746 84.7838 183.9 87.3638 179.366C89.9495 174.815 93.0944 170.605 96.7254 166.835L96.6289 166.946C97.0932 166.396 97.6479 165.93 98.2691 165.566C98.7992 165.25 99.3535 164.977 99.9268 164.748C100.993 164.325 102.09 163.981 103.207 163.72C104.287 163.46 105.376 163.244 106.473 163.071C107.562 162.896 108.635 162.756 109.772 162.654C110.192 162.616 110.61 162.745 110.934 163.014C111.259 163.283 111.463 163.67 111.504 164.09C111.532 164.403 111.467 164.717 111.316 164.993C111.165 165.269 110.936 165.493 110.656 165.638C110.472 165.736 110.269 165.796 110.061 165.814H110.034C109.045 165.904 107.991 166.041 106.979 166.197C105.966 166.353 104.949 166.556 103.964 166.795C103.002 167.02 102.058 167.314 101.139 167.677C100.72 167.842 100.315 168.041 99.9268 168.27C99.6246 168.443 99.3514 168.663 99.1175 168.921L99.0692 168.981L99.0199 169.034C95.5725 172.613 92.5866 176.609 90.1317 180.929C87.677 185.24 85.7143 189.844 84.4171 194.616C83.121 199.389 82.4483 204.33 82.8252 209.168C82.9217 210.37 83.0912 211.564 83.3305 212.747C83.5793 213.912 83.9108 215.059 84.3226 216.178C85.1535 218.398 86.3501 220.455 87.9245 222.155C89.5039 223.86 91.4455 225.189 93.6062 226.044C95.7703 226.906 98.1274 227.301 100.501 227.289C102.894 227.265 105.269 226.875 107.543 226.13C108.974 225.668 110.363 225.083 111.693 224.381L111.789 224.329L111.846 224.293L111.956 224.228C112.024 224.173 112.097 224.127 112.165 224.063C112.477 223.765 112.731 223.411 112.913 223.02C113.346 222.138 113.597 221.002 113.743 219.848C113.883 218.655 113.943 217.455 113.922 216.254C113.895 213.81 113.656 211.325 113.319 208.852C112.982 206.378 112.539 203.902 112.035 201.439C111.533 198.979 110.959 196.535 110.315 194.11L111.835 195.278L107.974 195.231H106.572L106.461 194.056C106.39 193.26 106.348 192.461 106.336 191.661C106.319 190.879 106.325 190.097 106.355 189.315C106.402 187.769 106.574 186.229 106.871 184.711" fill="#000072"/>
<path d="M141.607 47.9392C125.647 39.7576 124.264 30.2624 126.222 23.3441C128.695 14.61 134.089 4.1227 145.815 2.12301C162.523 -0.724001 177.338 10.0396 176.302 26.7889C175.684 36.7976 171.002 43.6019 166.167 48.0183C160.737 52.9769 153.434 54.0019 141.607 47.9392Z" fill="#5F5F82"/>
<path d="M159.6 16.7338C172.633 21.2806 171.924 41.8126 158.431 46.647C148.427 50.2314 126.809 35.5208 127.69 32.6245C131.079 21.4912 141.158 29.8463 151.479 34.768C160.189 38.9194 151.136 13.781 159.6 16.7338Z" fill="#515177"/>
<path opacity="0.3" d="M124.503 31.7948C126.783 22.2914 132.307 9.58561 145.621 7.31684C159.549 4.94535 172.22 11.5935 176.279 23.2455C175.182 8.55239 161.31 -0.518613 145.814 2.12401C129.75 4.86319 125.573 23.5228 124.503 31.7948Z" fill="white"/>
<path d="M123.767 31.275C123.714 28.8111 124.017 26.3606 124.526 23.9459C125.035 21.5323 125.822 19.166 126.8 16.8695C127.774 14.5445 128.991 12.3291 130.432 10.2603C131.172 9.21396 131.98 8.21665 132.849 7.27468C133.744 6.34827 134.678 5.45473 135.729 4.67724C136.767 3.88603 137.875 3.19092 139.039 2.60052C140.202 2.00419 141.415 1.51367 142.665 1.13491C143.296 0.967495 143.916 0.767218 144.558 0.655269L145.513 0.464235L146.454 0.326609C147.711 0.144389 148.979 0.0367016 150.249 0.00411186C152.8 -0.0552782 155.349 0.196497 157.839 0.753866C160.339 1.31982 162.752 2.21791 165.014 3.42423C169.517 5.86041 173.366 9.67903 175.554 14.3624C176.689 16.6784 177.373 19.1917 177.72 21.7244C178.084 24.2623 177.948 26.8371 177.65 29.3144C177.294 31.805 176.722 34.2741 175.838 36.6476C174.931 39.0122 173.75 41.2625 172.319 43.3523C169.461 47.5365 165.627 50.9659 161.353 53.5849C160.994 53.7865 160.572 53.842 160.173 53.7398C159.774 53.6377 159.43 53.3858 159.212 53.0364C158.995 52.687 158.923 52.2669 159.011 51.8652C159.099 51.4636 159.34 51.1119 159.682 50.8847L159.692 50.8786C163.626 48.4691 167.116 45.3324 169.686 41.5652C170.972 39.6835 172.035 37.6581 172.851 35.5302C173.646 33.3969 174.162 31.1651 174.487 28.9036C174.758 26.6194 174.88 24.3578 174.556 22.1301C174.252 19.9116 173.661 17.7291 172.676 15.7264C170.772 11.6818 167.429 8.39726 163.468 6.27021C161.467 5.21551 159.33 4.43907 157.119 3.96241C154.893 3.48569 152.618 3.2822 150.343 3.35644C148.071 3.45196 145.761 3.73953 143.661 4.36707C142.604 4.68956 141.58 5.10655 140.599 5.61289C139.615 6.11431 138.678 6.70458 137.802 7.37636C134.248 10.0436 131.628 13.93 129.771 18.14C127.935 22.3869 126.725 26.8998 125.347 31.4835C125.292 31.6679 125.173 31.8265 125.011 31.9305C124.85 32.0345 124.656 32.0771 124.465 32.0505C124.275 32.0248 124.1 31.9321 123.973 31.789C123.845 31.6458 123.772 31.4618 123.768 31.2699" fill="#000072"/>
<path d="M164.879 26.3011C165.045 27.287 165.09 28.2905 165.015 29.2867C164.523 35.9472 158.666 40.1582 155.929 41.1863C150.655 43.1685 142.716 40.5967 140.038 35.4553C138.126 31.7835 136.071 20.7857 146.098 15.9154C149.3 14.3625 152.519 14 155.382 14.7035H155.388C160.101 15.8641 163.833 19.9158 164.878 26.3011" fill="white"/>
<path d="M165.015 29.2867C164.523 35.9472 158.666 40.1571 155.929 41.1863C150.655 43.1685 142.716 40.5967 140.038 35.4553C138.126 31.7835 136.071 20.7857 146.098 15.9154C149.3 14.3625 152.519 14 155.382 14.7035C143.486 15.4666 143.717 28.0594 151.893 32.561C158.819 36.3714 163.407 33.1875 165.011 29.2919" fill="#EDEDED"/>
<path d="M151.981 43.7774C146.508 43.7774 140.668 40.8297 138.331 36.3373C137.184 34.1343 135.505 28.4947 137.358 22.9167C138.642 19.0509 141.302 16.1155 145.255 14.1949C149.909 11.9354 154.712 11.845 158.78 13.9412C163.022 16.1289 165.863 20.4076 166.777 25.9918C168.317 35.3586 160.59 41.4809 156.61 42.9793C155.128 43.5209 153.56 43.7912 151.981 43.7774ZM152.506 16.2727C150.705 16.2727 148.817 16.7287 146.942 17.6397C143.953 19.0909 141.958 21.2714 141.011 24.1204C139.665 28.1691 140.715 32.5906 141.746 34.5739C143.881 38.6749 150.692 41.108 155.251 39.3949C157.086 38.7047 164.234 34.2575 162.98 26.608C162.266 22.2512 160.146 18.9605 157.01 17.3439C155.617 16.63 154.072 16.2623 152.506 16.2716V16.2727Z" fill="#000072"/>
<path d="M47.137 76.1432C55.943 60.5678 51.8512 51.8768 46.3934 47.1759C39.5018 41.2375 29.2024 35.4366 18.3053 40.1909C2.78027 46.9674 -3.64195 64.0731 6.47871 77.4927C12.5271 85.5099 20.1982 88.6271 26.6728 89.6654C33.9485 90.8312 40.6121 87.6853 47.137 76.1432Z" fill="#5F5F82"/>
<path d="M14.8667 59.9485C6.49821 70.8867 18.4337 87.6422 32.374 84.2857C42.7103 81.7941 52.6287 57.6694 50.2921 55.7334C41.3104 48.2944 37.5155 60.7948 31.6119 70.558C26.6348 78.795 20.3029 52.8443 14.8667 59.9485Z" fill="#515177"/>
<path opacity="0.3" d="M52.4991 53.2911C45.3446 46.605 33.7101 39.0191 21.3402 44.4225C8.40125 50.0744 1.49221 62.5655 4.54258 74.5184C-2.66123 61.6493 3.90991 46.4766 18.3093 40.192C33.2346 33.6784 47.0362 46.9706 52.4991 53.2911Z" fill="white"/>
<path d="M51.6252 53.4987C47.9432 50.4257 44.4399 47.3219 40.5638 44.782C36.6866 42.2842 32.3514 40.4724 27.9104 40.1941C26.8071 40.1136 25.6987 40.1339 24.5991 40.2547C23.4981 40.3697 22.4115 40.5834 21.3495 40.8946C19.2481 41.519 17.1591 42.545 15.2097 43.7108C13.2704 44.8935 11.4828 46.3087 9.88649 47.9248C8.30264 49.5348 6.94728 51.3547 5.85835 53.3333C3.72515 57.2793 2.75047 61.8528 3.39546 66.2773C3.68406 68.4886 4.39171 70.6352 5.36434 72.6544C6.32567 74.6921 7.67214 76.513 9.16446 78.2724C10.6866 79.9824 12.3484 81.5631 14.1919 82.9096C16.0492 84.2379 18.0544 85.346 20.1674 86.2116C24.3989 87.9494 29.0473 88.6539 33.6599 88.5101H33.6722C34.0902 88.505 34.4938 88.6642 34.7958 88.9518C35.0216 89.1661 35.1791 89.4423 35.2488 89.7457C35.3185 90.0491 35.2973 90.3664 35.1877 90.6578C35.0781 90.9492 34.8851 91.2018 34.6327 91.3841C34.3803 91.5664 34.0798 91.6703 33.7687 91.6827C28.7536 91.8378 23.6573 91.0757 18.9554 89.1469C16.6061 88.1836 14.3768 86.9504 12.3124 85.4721C10.2634 83.9757 8.4219 82.2266 6.74779 80.3419C5.1353 78.4419 3.59574 76.3621 2.50089 74.0419C1.38756 71.7372 0.570016 69.2651 0.238275 66.7087C-0.522777 61.597 0.577205 56.3005 2.99593 51.7999C4.21674 49.5522 5.73506 47.4794 7.50987 45.6375C10.1698 42.8899 13.3112 40.6536 16.7781 39.0397L17.6439 38.6391L18.5487 38.2786C19.1454 38.0219 19.7761 37.8473 20.3943 37.6419C21.6488 37.2743 22.9336 37.02 24.2335 36.8818C25.5321 36.7372 26.8412 36.7111 28.1446 36.8038C29.4469 36.8757 30.7266 37.1119 31.9858 37.3933C33.2306 37.7025 34.4548 38.0917 35.6503 38.557C37.9972 39.4957 40.2383 40.6796 42.3365 42.089C44.4214 43.4704 46.3903 45.0079 48.1455 46.7519C49.9018 48.4979 51.5122 50.3692 52.831 52.4552C52.9079 52.5763 52.9508 52.7158 52.9553 52.8591C52.9599 53.0025 52.9258 53.1444 52.8568 53.2701C52.7877 53.3958 52.6862 53.5007 52.5628 53.5738C52.4394 53.6469 52.2986 53.6855 52.1552 53.6856C51.9633 53.6876 51.7769 53.6213 51.6293 53.4987" fill="#000072"/>
<path d="M15.7501 70.8273C16.1578 71.7414 16.6744 72.6031 17.2897 73.3939C21.3794 78.6863 28.5976 78.9924 31.4497 78.3525C36.9497 77.118 42.1579 70.6208 41.5499 64.86C41.1164 60.7415 36.7566 50.437 25.691 51.8667C22.16 52.3227 19.2698 53.7822 17.2691 55.941H17.264C13.9702 59.4916 13.0941 64.9186 15.748 70.8232" fill="white"/>
<path d="M17.2866 73.3938C21.3773 78.6852 28.5945 78.9912 31.4477 78.3524C36.9466 77.1189 42.1558 70.6207 41.5478 64.8599C41.1144 60.7414 36.7545 50.4369 25.69 51.8655C22.1569 52.3226 19.2678 53.781 17.2681 55.9399C27.6229 50.0579 34.3892 60.6962 30.0427 68.9363C26.3658 75.9142 20.7765 75.7693 17.2866 73.3938Z" fill="#EDEDED"/>
<path d="M28.886 80.5145C24.1163 80.5145 17.1282 78.5867 13.9905 71.6068C11.6694 66.4437 11.6817 61.3135 14.0111 57.1632C16.248 53.1844 20.308 50.628 25.4443 49.9645C29.8073 49.4017 33.6475 50.3959 36.856 52.9194C41.486 56.5593 43.2053 62.1917 43.4621 64.6587C44.1461 71.1723 38.5116 78.7304 31.8676 80.2197C30.8877 80.4251 29.8874 80.5237 28.886 80.5145ZM27.7223 53.6486C27.1266 53.6496 26.5299 53.6897 25.9383 53.7677C22.0396 54.271 18.9954 56.1423 17.3675 59.0355C15.6421 62.1003 15.6903 66.0124 17.5021 70.0425C20.6818 77.1159 29.1078 76.9125 31.0223 76.4832C35.7714 75.4182 40.1169 69.6533 39.6342 65.0592C39.4011 62.8377 37.8327 58.5713 34.4701 55.9266C32.5434 54.4127 30.2797 53.6486 27.7223 53.6486Z" fill="#000072"/>
<path d="M135.136 160.117C160.852 152.437 185.294 134.489 188.715 114.563C191.291 99.5458 182.483 87.5137 182.474 87.4942C182.073 86.7558 168.815 30.8621 120.467 24.3567C106.835 22.5234 95.1233 24.4429 83.9653 27.633C72.8843 31.0808 62.0447 35.8957 51.6755 44.8969C14.8996 76.8179 34.7136 130.753 34.7876 131.589C34.7876 131.611 34.084 146.485 44.5344 157.612C58.3997 172.378 88.7278 173.973 114.444 166.294L135.136 160.117Z" fill="white"/>
<path opacity="0.2" d="M47.1318 160.075C61.9359 172.533 90.2273 173.521 114.435 166.296C121.315 164.572 128.116 162.546 134.818 160.225L135.132 160.115C158.438 153.157 180.696 137.766 187.207 120.108C176.564 135.216 146.078 150.827 123.12 157.683C100.161 164.537 64.5015 168 47.1318 160.075Z" fill="#000072"/>
<path d="M135.136 160.117C139.027 158.284 142.873 156.526 146.642 154.639C150.399 152.765 154.092 150.765 157.715 148.644C161.325 146.522 164.808 144.194 168.069 141.599C169.717 140.322 171.277 138.945 172.808 137.544C174.32 136.129 175.767 134.647 177.145 133.101C178.503 131.556 179.775 129.937 180.954 128.251C182.111 126.572 183.153 124.816 184.072 122.996C184.96 121.185 185.691 119.301 186.256 117.365C186.381 116.881 186.521 116.399 186.641 115.914L186.938 114.448C187.027 113.956 187.068 113.453 187.138 112.957C187.207 112.461 187.279 111.964 187.311 111.464C187.58 107.432 187.146 103.384 186.03 99.5007C185.472 97.5482 184.766 95.6409 183.919 93.7954C183.704 93.3353 183.5 92.8711 183.261 92.4233C183.022 91.9755 182.803 91.5164 182.55 91.0819C182.298 90.6475 182.051 90.2048 181.791 89.7745C181.663 89.5588 181.525 89.3544 181.392 89.1428C181.327 89.037 181.258 88.9405 181.19 88.8398L181.094 88.6889L181.033 88.6016L180.937 88.4557C180.879 88.3577 180.825 88.2565 180.777 88.1527L180.874 88.3612C180.786 88.1712 180.712 87.9756 180.65 87.7758L180.575 87.5232L180.43 87.0302L180.141 86.0658L179.545 84.1503C179.133 82.8792 178.697 81.6157 178.239 80.3604C177.329 77.8448 176.33 75.3619 175.245 72.9163C174.153 70.475 173.006 68.0583 171.739 65.7043C171.128 64.5149 170.452 63.3626 169.796 62.1999C169.473 61.6145 169.107 61.0507 168.766 60.4827C168.424 59.9147 168.081 59.3334 167.714 58.7788C164.836 54.2844 161.603 50.0241 157.974 46.1357C157.536 45.6355 157.06 45.1723 156.591 44.7039L155.18 43.2969C154.218 42.3807 153.217 41.5108 152.238 40.6142C151.205 39.7874 150.189 38.9319 149.142 38.1246L147.528 36.9661C146.986 36.583 146.47 36.168 145.899 35.8301C141.492 32.8915 136.719 30.5429 131.702 28.8441C126.666 27.1528 121.438 26.0946 116.14 25.6941C113.485 25.4729 110.82 25.3865 108.156 25.4353C105.489 25.4938 102.825 25.6859 100.177 26.0104C94.881 26.6523 89.606 27.8221 84.4625 29.2816C79.357 30.8612 74.2956 32.7561 69.5075 35.105C67.1086 36.2777 64.7702 37.57 62.5009 38.9771C60.2401 40.3886 58.0537 41.9158 55.9503 43.5526C51.7295 46.7805 47.9305 50.5253 44.6423 54.6993C41.3776 58.8736 38.6766 63.4594 36.6087 68.3387C36.3201 68.9354 36.1167 69.5701 35.8712 70.1843L35.1646 72.0423C34.7333 73.2953 34.3553 74.5678 33.9465 75.829C33.622 77.117 33.2625 78.3946 32.9636 79.6887L32.561 81.6402C32.4275 82.2903 32.2837 82.9404 32.1933 83.5998C31.2998 88.845 30.9475 94.1888 31.0204 99.5295C31.0204 100.199 31.0625 100.865 31.0821 101.532C31.1016 102.2 31.1149 102.873 31.1673 103.535C31.2638 104.869 31.3316 106.205 31.4775 107.535C31.7147 110.201 32.0886 112.856 32.5251 115.497C32.9711 118.139 33.5169 120.764 34.1612 123.365C34.4796 124.666 34.8247 125.96 35.1882 127.248L35.7562 129.173L36.0541 130.13L36.2081 130.622L36.2862 130.871C36.3406 131.06 36.3848 131.252 36.4156 131.446L36.3848 131.242C36.3991 131.346 36.4104 131.452 36.4156 131.558V132.372C36.4217 132.622 36.4217 132.87 36.4341 133.123C36.4577 133.627 36.4823 134.131 36.5306 134.638C36.5789 135.144 36.6261 135.648 36.6878 136.153C36.7494 136.66 36.8274 137.162 36.9055 137.666C37.227 139.677 37.7066 141.661 38.3382 143.597C39.5854 147.452 41.4915 151.063 43.9717 154.268C46.451 157.453 49.5887 160.006 53.0992 162.053C54.878 163.051 56.7188 163.935 58.6104 164.699C60.5245 165.453 62.4789 166.1 64.4646 166.639C66.4622 167.166 68.4835 167.617 70.5243 167.98C72.5743 168.314 74.6346 168.613 76.7133 168.78C80.8627 169.188 85.0572 169.242 89.2435 169.081C93.4308 168.905 97.612 168.54 101.81 168.068C106.002 167.582 110.186 166.937 114.437 166.298C110.524 168.07 106.408 169.383 102.221 170.373C98.0125 171.349 93.7314 171.982 89.4201 172.266C80.799 172.808 72.0176 172.353 63.5259 170.114C61.4017 169.543 59.3111 168.854 57.2639 168.05C55.2057 167.228 53.2083 166.262 51.2864 165.159C49.3591 164.027 47.5328 162.732 45.8276 161.287C45.4096 160.913 44.9833 160.547 44.5766 160.162L43.3832 158.959C42.998 158.554 42.6498 158.115 42.2822 157.693C41.9124 157.272 41.5447 156.851 41.2068 156.405C38.5165 152.855 36.4628 148.865 35.1369 144.612L34.6675 143.026C34.5186 142.494 34.4036 141.954 34.269 141.42C34.1388 140.885 34.0237 140.346 33.9239 139.805C33.8192 139.264 33.7103 138.724 33.6353 138.177C33.5593 137.628 33.4618 137.088 33.4094 136.54C33.358 135.991 33.283 135.445 33.2481 134.893C33.2132 134.342 33.1752 133.789 33.1516 133.235C33.1413 132.956 33.1413 132.674 33.1362 132.395V131.754C33.1388 131.814 33.1527 131.874 33.1773 131.929L33.1464 131.726C33.139 131.753 33.139 131.781 33.1464 131.808L33.0745 131.572L32.9256 131.092L32.6268 130.107L32.0495 128.121C30.9494 124.138 30.0553 120.101 29.371 116.026C28.916 113.312 28.5288 110.584 28.2771 107.838C28.1251 106.469 28.0491 105.092 27.9505 103.72C27.8951 103.032 27.8899 102.342 27.855 101.652C27.8161 100.964 27.7935 100.275 27.7872 99.585C27.702 94.0676 28.0543 88.5276 28.9745 83.0595C29.0711 82.3735 29.2149 81.6936 29.3545 81.0157L29.7705 78.977C30.0807 77.6233 30.4525 76.284 30.7914 74.9375C31.2156 73.6137 31.6089 72.2795 32.0608 70.9649L32.7993 69.0114C33.0561 68.3644 33.2676 67.6988 33.5686 67.0703C35.7442 61.9214 38.5882 57.0813 42.0274 52.675C45.4741 48.2783 49.4583 44.331 53.8869 40.9254C58.2689 37.4902 62.9982 34.523 67.9977 32.0721C72.9892 29.602 78.1636 27.6414 83.4652 25.9817C88.8049 24.4482 94.2063 23.225 99.7401 22.5328C102.505 22.1826 105.286 21.97 108.073 21.897C110.862 21.8364 113.653 21.9166 116.434 22.1374C121.978 22.5482 127.556 23.6215 132.867 25.4157C138.188 27.2127 143.25 29.6988 147.926 32.8106C148.528 33.1711 149.074 33.6096 149.647 34.0102L151.349 35.2427C152.457 36.0931 153.527 36.9928 154.619 37.8668C155.65 38.8066 156.705 39.7227 157.715 40.683L159.195 42.1599C159.689 42.6519 160.188 43.1387 160.647 43.6605C164.451 47.7276 167.822 52.1666 170.812 56.8274C171.197 57.4025 171.538 58.0064 171.903 58.5939C172.269 59.1824 172.637 59.7679 172.972 60.3728C173.652 61.5755 174.353 62.7669 174.986 63.9983C176.298 66.4314 177.487 68.9241 178.613 71.4445C179.738 73.9648 180.767 76.5267 181.698 79.1249C182.168 80.4231 182.607 81.7326 183.033 83.0462L183.641 85.0274L183.929 86.0175L184.07 86.4971L184.139 86.7333C184.126 86.6948 184.104 86.6599 184.075 86.6317L184.171 86.8402C184.158 86.7678 184.13 86.6987 184.091 86.6368L184.072 86.608L184.087 86.6306L184.209 86.8104C184.288 86.9305 184.371 87.0517 184.445 87.1698C184.595 87.4091 184.751 87.6495 184.894 87.8867C185.182 88.3653 185.471 88.8439 185.728 89.3339C185.984 89.8238 186.25 90.3126 186.497 90.8067C186.743 91.3017 186.978 91.8039 187.209 92.3062C188.124 94.3208 188.884 96.4022 189.483 98.5322C190.7 102.822 191.162 107.291 190.848 111.739C190.807 112.296 190.715 112.847 190.649 113.402C190.585 113.957 190.521 114.511 190.418 115.062L190.076 116.711C189.945 117.256 189.788 117.792 189.641 118.333C189.002 120.467 188.18 122.541 187.185 124.534C186.176 126.497 185.035 128.388 183.77 130.197C182.502 131.982 181.135 133.696 179.676 135.329C178.214 136.944 176.68 138.494 175.08 139.973C173.466 141.427 171.824 142.852 170.102 144.167C166.689 146.842 163.058 149.21 159.328 151.385C151.825 155.653 143.655 158.819 135.141 160.117" fill="#000072"/>
<path d="M56.4298 44.403C57.2956 37.8709 44.2129 41.8477 43.9613 36.1475C43.7764 32.0012 57.7064 20.9275 72.0134 28.8245C71.5039 26.3999 70.8226 24.0145 69.9747 21.6865C68.2513 16.9148 67.6905 12.7552 69.6204 11.6079C73.5335 9.28369 82.8951 16.242 99.5161 20.8823C105.943 22.6766 117.929 24.6249 123.309 24.8724L92.6347 60.1468L56.4298 44.403Z" fill="white"/>
<path opacity="0.4" d="M46.3656 39.0169C49.2157 34.2206 61.3638 26.7569 73.7964 33.6228C73.2843 31.1982 72.6014 28.8129 71.7525 26.4847C70.0322 21.713 69.4725 17.5524 71.4002 16.4062C75.3134 14.0819 84.6822 21.0403 101.297 25.6816C106.01 26.9952 113.706 28.3961 119.6 29.1428L123.31 24.8733C117.93 24.6268 105.944 22.6754 99.5181 20.8842C82.8992 16.2439 73.5335 9.28557 69.6204 11.6088C67.6895 12.7581 68.2492 16.9156 69.9747 21.6863C71.4115 25.6713 72.0124 28.8254 72.0124 28.8254C57.7085 20.9273 43.7764 32.0021 43.9613 36.1453C44.027 37.6581 44.9955 38.487 46.3656 39.019" fill="white"/>
<path d="M55.6369 44.2991C55.5958 43.8585 55.5106 43.4641 55.3493 43.1755C55.2009 42.9018 54.9812 42.6732 54.7136 42.5141C54.3925 42.3256 54.0492 42.1779 53.6916 42.0745C53.2638 41.9548 52.8301 41.8568 52.3924 41.7808C51.4722 41.6185 50.4749 41.5189 49.4468 41.3638C48.4197 41.2087 47.3434 41.0351 46.1931 40.6736C45.5673 40.4816 44.9693 40.2089 44.4142 39.8622C43.7398 39.4422 43.1852 38.8553 42.8038 38.1583C42.4177 37.4292 42.2384 36.6085 42.2851 35.7848C42.3149 35.3842 42.3981 34.9878 42.5326 34.6088C42.6435 34.2843 42.7812 33.9679 42.9434 33.6649C43.5535 32.5157 44.3207 31.6478 45.1239 30.8354C45.9243 30.0475 46.7894 29.328 47.71 28.6847C49.5181 27.4138 51.4925 26.3977 53.5776 25.6652C55.6672 24.9205 57.8521 24.4764 60.0666 24.3464C64.5066 24.0712 69.0123 25.2225 72.7796 27.4348L70.442 29.1192C70.294 28.4006 70.1265 27.6862 69.9397 26.9767C69.5639 25.5318 69.1287 24.103 68.6354 22.6939L68.2502 21.599C68.121 21.2199 67.9964 20.8391 67.8764 20.4569C67.408 18.9184 67.0003 17.347 66.8503 15.6195C66.7846 14.7567 66.7651 13.8468 67.0116 12.8187C67.1473 12.2446 67.3917 11.7018 67.7316 11.2195C68.035 10.8046 68.4237 10.4593 68.8716 10.2069C69.001 10.1339 69.1335 10.0662 69.2701 10.0066C70.366 9.52798 71.4392 9.51668 72.3482 9.60295C73.212 9.6995 74.0654 9.8741 74.8984 10.1268C76.4873 10.591 77.9518 11.1713 79.402 11.7546C82.2881 12.9337 85.095 14.1498 87.94 15.2723C90.7703 16.3975 93.6397 17.4218 96.5427 18.3432C97.9857 18.7972 99.4595 19.2368 100.908 19.6127C102.354 19.9896 103.846 20.3265 105.331 20.6398C108.314 21.258 111.33 21.7993 114.352 22.2574C115.859 22.4903 117.37 22.6975 118.884 22.8787C120.392 23.0605 121.907 23.2177 123.375 23.2885H123.384C123.805 23.3096 124.202 23.4959 124.487 23.8072C124.628 23.961 124.737 24.1412 124.807 24.3375C124.878 24.5337 124.909 24.7421 124.898 24.9503C124.883 25.2646 124.774 25.5673 124.586 25.8198C124.399 26.0722 124.14 26.2629 123.843 26.3677C123.646 26.4377 123.437 26.4684 123.229 26.4581C121.615 26.3779 120.061 26.2146 118.505 26.0287C116.957 25.8436 115.412 25.632 113.871 25.394C110.793 24.9261 107.727 24.3757 104.678 23.7435C103.143 23.4233 101.616 23.0692 100.096 22.6816C98.567 22.2913 97.0737 21.8383 95.5752 21.369C92.5997 20.425 89.6591 19.3747 86.7589 18.22C83.8657 17.0759 81.0145 15.8444 78.1973 14.6931C76.7892 14.1251 75.3791 13.5736 74.0069 13.173C73.3632 12.977 72.7032 12.8388 72.0349 12.7601C71.4177 12.6944 70.8928 12.7509 70.5714 12.9008C70.5303 12.9183 70.4913 12.9378 70.4533 12.9594C70.4132 12.982 70.4183 12.9851 70.3978 12.9953C70.3648 13.0237 70.3352 13.0557 70.3095 13.0909C70.2124 13.2425 70.1428 13.4101 70.1041 13.5859C69.9849 14.0553 69.9705 14.7074 70.027 15.3678C70.14 16.7092 70.4923 18.1306 70.9206 19.5254C71.0305 19.8766 71.1445 20.2258 71.2657 20.5792L71.6447 21.6576C71.9055 22.4042 72.1541 23.154 72.3821 23.9099C72.6101 24.6658 72.8268 25.4238 73.0261 26.19C73.2253 26.9552 73.4112 27.707 73.5745 28.5348C73.6328 28.8278 73.6064 29.1313 73.4983 29.4098C73.3903 29.6883 73.2051 29.9302 72.9644 30.1072C72.7238 30.2853 72.4377 30.3919 72.1392 30.4146C71.8407 30.4373 71.5418 30.3752 71.277 30.2356L71.2359 30.215C69.5506 29.3342 67.7581 28.6758 65.9034 28.2564C64.061 27.8569 62.1713 27.7197 60.2905 27.8487C58.4045 27.9853 56.545 28.3717 54.7608 28.998C52.9746 29.6256 51.2772 30.4818 49.7107 31.5451C48.9427 32.0659 48.2196 32.6499 47.5488 33.2911C46.9017 33.9155 46.3122 34.6119 45.9466 35.2672C45.8007 35.5034 45.698 35.7622 45.6425 36.0333C45.6382 36.133 45.6448 36.2329 45.6621 36.3312C45.6792 36.4307 45.7096 36.5274 45.7524 36.6188C45.8613 36.8273 46.0246 37.0029 46.2249 37.1261C46.5371 37.3274 46.874 37.4887 47.2283 37.6047C48.0264 37.8923 48.9867 38.069 49.9726 38.2621C51.0185 38.445 52.0544 38.6808 53.0764 38.9687C53.6382 39.1289 54.1856 39.3364 54.7115 39.589C55.3103 39.8663 55.8546 40.2463 56.3199 40.7116C56.8355 41.2251 57.1857 41.8804 57.3295 42.5922C57.444 43.2307 57.4046 43.8874 57.2144 44.5076C57.1625 44.6875 57.0493 44.8436 56.8943 44.9486C56.7393 45.0537 56.5524 45.1012 56.3661 45.0828C56.1803 45.0652 56.0064 44.9837 55.874 44.8522C55.7416 44.7208 55.6589 44.5474 55.64 44.3618L55.6369 44.2991Z" fill="#000072"/>
<path d="M141.758 115.905C137.275 115.678 127.015 113.681 122.006 99.9906C116.991 86.2845 122.033 78.7325 131.385 75.7109C140.737 72.6883 154.815 74.5133 164.832 81.7819C172.636 87.4451 176.929 97.8153 174.588 103.558C170.292 114.117 146.097 116.127 141.756 115.905M84.4809 133.009C88.0982 130.362 95.5629 123.073 92.1767 108.897C88.7905 94.7043 80.4066 91.1599 70.9268 93.7625C61.4481 96.3651 50.706 105.599 46.3595 117.157C42.9712 126.161 45.1168 137.176 50.2418 140.687C59.6682 147.149 80.9776 135.571 84.4809 133.009Z" fill="#5F5F82"/>
<path d="M63.8852 120.052C64.6041 122.44 66.0173 124.561 67.9472 126.149C69.88 127.737 72.2389 128.719 74.7277 128.971C77.2166 129.223 79.7245 128.735 81.9368 127.567C84.1458 126.401 85.9597 124.607 87.1491 122.41C88.3364 120.217 88.8436 117.72 88.6062 115.237C88.3688 112.755 87.3974 110.399 85.816 108.471C84.2319 106.538 82.1109 105.117 79.7204 104.387C77.3273 103.656 74.77 103.648 72.3728 104.364C69.1622 105.321 66.4627 107.513 64.867 110.458C64.079 111.914 63.5865 113.511 63.418 115.157C63.2495 116.804 63.4083 118.467 63.8852 120.052Z" fill="#000072"/>
<path d="M83.2525 111.856C84.3258 114.587 83.425 117.547 81.2405 118.464C79.0559 119.383 76.4153 117.912 75.34 115.181C74.2657 112.449 75.1675 109.489 77.353 108.572C79.5386 107.654 82.1792 109.124 83.2525 111.856Z" fill="white"/>
<path opacity="0.3" d="M75.2015 120.131C76.8931 121.495 77.3994 123.724 76.3333 125.113C75.2652 126.501 73.0303 126.512 71.3387 125.149C69.6461 123.785 69.1398 121.556 70.2059 120.168C71.273 118.78 73.5099 118.766 75.2015 120.131Z" fill="white"/>
<path d="M152.466 94.7186C153.002 97.1526 152.802 99.6911 151.89 102.011C150.976 104.334 149.394 106.333 147.342 107.756C145.287 109.182 142.856 109.968 140.354 110.017C137.853 110.066 135.394 109.375 133.284 108.031C131.178 106.69 129.518 104.754 128.513 102.469C127.509 100.186 127.208 97.6559 127.648 95.2012C128.087 92.7465 129.249 90.4786 130.983 88.6866C132.72 86.889 134.951 85.6454 137.393 85.1125C140.67 84.3964 144.098 85.0055 146.928 86.8071C148.327 87.6962 149.536 88.8529 150.487 90.2108C151.437 91.5687 152.11 93.0999 152.466 94.7186Z" fill="#000072"/>
<path d="M131.539 96.9279C131.934 99.8345 134.165 101.985 136.522 101.731C138.88 101.478 140.472 98.9132 140.082 96.0067C139.692 93.1001 137.456 90.9484 135.098 91.2031C132.74 91.4578 131.149 94.0193 131.539 96.9279Z" fill="white"/>
<path opacity="0.35" d="M142.616 100.262C141.802 102.273 142.447 104.466 144.059 105.16C145.67 105.854 147.628 104.786 148.442 102.776C149.256 100.765 148.611 98.5722 146.999 97.8769C145.388 97.1826 143.428 98.2508 142.616 100.262Z" fill="white"/>
<path d="M135.826 56.4195C135.961 55.1224 125.022 46.4571 118.607 53.1638C116.674 55.1819 117.408 59.4083 121.031 60.1858C127.972 61.6719 135.693 57.7177 135.83 56.4195M56.8253 80.006C55.9934 78.9974 60.3409 65.7689 69.4068 67.8518C72.1367 68.4783 73.8581 72.4099 71.2617 75.0432C66.2887 80.0882 57.6552 81.0146 56.8253 80.006Z" fill="#000072"/>
<path d="M111.585 121.792L111.764 121.766L111.746 121.712L111.585 121.792ZM111.408 121.813L111.425 121.867L111.584 121.789L111.408 121.813Z" fill="#512717"/>
<path d="M96.9094 122.586C98.0084 123.373 100.333 126.558 103.627 127.257C107.446 128.068 110.546 125.498 111.559 122.864C111.998 121.727 111.859 120.278 111.622 119.486C111.859 120.277 112.546 121.563 113.54 122.273C115.842 123.917 119.851 124.365 122.591 121.596C124.955 119.201 125.136 115.274 125.62 114.014C125.62 114.014 117.965 105.802 108.36 108.669C98.755 111.538 96.9125 122.586 96.9125 122.586" fill="white"/>
<path opacity="0.2" d="M107.981 117.034C107.981 117.034 109.802 121.836 107.033 123.62C103.294 126.032 98.6462 121.533 98.6462 121.533C98.6462 121.533 105.53 122.521 104.437 117.593C104.659 114.321 107.981 117.034 107.981 117.034ZM113.299 115.447C113.299 115.447 114.433 120.454 117.731 120.427C122.185 120.392 123.581 114.089 123.581 114.089C123.581 114.089 118.38 118.687 116.568 113.971C114.574 111.36 113.297 115.447 113.297 115.447" fill="#000072"/>
<path d="M96.9084 122.586C97.4126 122.767 97.8635 123.066 98.3082 123.325L99.5962 124.136C100.441 124.657 101.27 125.134 102.097 125.465C102.873 125.795 103.701 125.984 104.544 126.021C105.34 126.053 106.133 125.909 106.868 125.599C107.601 125.278 108.261 124.811 108.807 124.226C109.344 123.659 109.76 122.989 110.031 122.256C110.211 121.746 110.215 120.877 110.056 120.19C110.038 120.112 110.018 120.035 109.995 119.959L109.883 119.597L109.661 118.874L109.218 117.429L112.488 116.453L112.915 117.904L113.129 118.629L113.236 118.991C113.259 119.069 113.282 119.135 113.313 119.218C113.556 119.882 114.042 120.605 114.473 120.933C115.105 121.4 115.825 121.732 116.59 121.909C117.37 122.1 118.18 122.13 118.972 121.995C119.756 121.85 120.499 121.536 121.149 121.074C121.823 120.608 122.376 120.008 122.892 119.27C123.407 118.531 123.833 117.682 124.248 116.779L124.871 115.394C125.094 114.93 125.305 114.437 125.623 114.01C125.607 114.534 125.638 115.036 125.649 115.557C125.658 116.076 125.649 116.595 125.603 117.121C125.53 118.212 125.286 119.285 124.88 120.3C124.663 120.839 124.387 121.353 124.057 121.832C123.881 122.077 123.694 122.313 123.496 122.54C123.286 122.753 123.082 122.976 122.851 123.172C121.915 123.976 120.803 124.548 119.605 124.843C118.413 125.14 117.17 125.176 115.962 124.95C115.66 124.906 115.368 124.816 115.07 124.747C114.781 124.651 114.483 124.571 114.204 124.444C113.618 124.214 113.061 123.915 112.544 123.556C111.993 123.152 111.51 122.663 111.113 122.106C110.734 121.591 110.421 121.03 110.179 120.438C110.115 120.279 110.057 120.117 110.005 119.953L109.895 119.591L109.673 118.869L109.227 117.424C109.123 117.101 109.118 116.753 109.213 116.427C109.308 116.101 109.498 115.811 109.76 115.594C109.934 115.45 110.135 115.342 110.351 115.275C110.567 115.21 110.795 115.187 111.02 115.21C111.359 115.243 111.68 115.377 111.942 115.594C112.204 115.811 112.395 116.102 112.49 116.429L112.496 116.447L112.925 117.897L113.138 118.623L113.245 118.986C113.292 119.149 113.341 119.326 113.37 119.485C113.497 120.113 113.546 120.753 113.514 121.39C113.49 122.072 113.357 122.746 113.119 123.386C112.887 123.971 112.587 124.526 112.225 125.041C112.059 125.3 111.852 125.527 111.665 125.77C111.455 125.992 111.261 126.226 111.031 126.429C110.147 127.284 109.088 127.938 107.927 128.345C106.761 128.754 105.515 128.885 104.29 128.728C103.99 128.687 103.693 128.621 103.4 128.555C103.112 128.468 102.818 128.38 102.535 128.268C102.26 128.156 101.993 128.028 101.735 127.885L101.35 127.674L100.993 127.436C100.092 126.81 99.2948 126.047 98.6307 125.174C98.3109 124.76 98.011 124.331 97.7321 123.888C97.4568 123.449 97.2062 123.008 96.9053 122.576" fill="#000072"/>
<path d="M101.414 114.821C104.255 118.667 111.61 119.119 111.61 119.119C111.61 119.119 117.498 114.713 117.747 109.946C117.922 106.536 109.983 108.359 108.503 108.797C107.024 109.234 99.3877 112.066 101.418 114.817" fill="#000072"/>
<path opacity="0.5" d="M105.458 111.249C106.425 112.145 109.164 111.306 109.164 111.306C109.164 111.306 111.914 110.508 112.227 109.228C112.45 108.314 109.183 109.151 108.572 109.334C107.96 109.517 104.769 110.607 105.46 111.249" fill="white"/>
<path d="M112.193 283.385C127.959 290.904 144.649 288.885 149.468 278.868C149.468 278.868 151.793 271.223 154.578 265.238C158.063 257.747 163.096 250.541 165.494 245.556C170.313 235.539 161.433 221.322 145.668 213.801C129.904 206.28 113.212 208.301 108.393 218.318C105.994 223.305 103.509 231.729 99.8313 239.123C96.8929 245.035 92.3667 251.63 92.3667 251.63C87.5477 261.647 96.4266 275.863 112.193 283.385Z" fill="#6FB643"/>
<path d="M154.679 254.377C156.087 251.987 144.059 255.829 132.41 247.186C126.599 242.875 129.266 258.361 126.037 263.724C121.661 270.99 110.856 276.696 115.869 279.926C120.881 283.156 141.066 285.85 144.579 277.11C147.918 268.806 149.571 263.051 154.68 254.377" fill="#43A335"/>
<path d="M131.035 289.848C124.709 289.848 117.867 288.219 111.359 285.112C103.409 281.319 96.8612 275.755 92.9234 269.456C88.8183 262.881 88.0038 256.258 90.6279 250.802L90.7748 250.549C90.819 250.485 95.261 243.992 98.1029 238.274C100.145 234.168 101.837 229.668 103.332 225.7C104.485 222.629 105.578 219.727 106.654 217.49C109.278 212.032 114.973 208.516 122.69 207.582C130.091 206.686 138.543 208.281 146.496 212.074C154.448 215.867 160.995 221.427 164.931 227.731C169.035 234.303 169.851 240.928 167.226 246.383C166.151 248.62 164.565 251.282 162.887 254.103C160.716 257.75 158.255 261.884 156.321 266.043C153.627 271.832 151.329 279.347 151.306 279.422L151.2 279.694C148.576 285.154 142.882 288.67 135.164 289.604C133.794 289.768 132.415 289.849 131.035 289.848ZM113.027 281.656C120.326 285.138 128.025 286.61 134.706 285.8C141.009 285.034 145.61 282.328 147.675 278.164C148.024 277.034 150.207 270.082 152.836 264.432C154.856 260.098 157.365 255.875 159.584 252.149C161.219 249.404 162.757 246.811 163.763 244.728C168.115 235.681 159.627 222.582 144.839 215.529C137.541 212.047 129.844 210.575 123.16 211.385C116.795 212.156 112.167 214.912 110.131 219.143C109.127 221.227 108.065 224.051 106.941 227.041C105.416 231.096 103.686 235.691 101.554 239.972C98.7797 245.553 94.7064 251.603 94.0409 252.581C89.8279 261.623 98.3062 274.634 113.023 281.654L113.027 281.656Z" fill="#000072"/>
<path d="M132.151 241.899C152.218 251.451 163.832 249.012 165.495 245.555C167.226 241.96 173.42 224.549 177.556 214.026C184.535 196.269 199.411 175.053 202.911 167.781C203.295 156.924 202.113 136.702 186.427 129.077C170.631 121.684 154.063 133.438 145.809 140.543C142.31 147.817 135.035 172.656 125.512 189.201C119.868 199.005 110.127 214.724 108.398 218.319C106.734 221.777 112.104 232.318 132.158 241.902" fill="#6FB643"/>
<path d="M132.149 241.9C152.218 251.452 163.831 249.013 165.495 245.555C167.221 241.96 173.418 224.549 177.554 214.027C184.533 196.269 199.409 175.057 202.91 167.781C203.295 156.924 202.111 136.7 186.426 129.079C170.627 121.687 154.061 133.439 145.806 140.545C144.074 144.149 141.411 152.061 138.013 161.138C134.55 170.387 130.318 180.848 125.509 189.196C124.111 191.613 122.698 194.02 121.268 196.418C115.926 205.391 109.736 215.519 108.394 218.315C106.73 221.773 112.1 232.312 132.153 241.897" fill="#6FB643"/>
<path d="M202.909 167.782C199.411 175.061 184.531 196.27 177.552 214.026C173.415 224.549 167.222 241.96 165.492 245.555C163.832 249.013 152.219 251.453 132.149 241.901C123.78 237.902 117.966 233.737 114.161 229.988C108.839 224.753 107.42 220.333 108.39 218.317C109.736 215.522 115.922 205.395 121.265 196.421C121.947 195.276 122.626 194.128 123.302 192.979C124.081 191.654 124.822 190.383 125.504 189.198C130.312 180.852 134.545 170.392 138.008 161.141C141.411 152.061 144.069 144.147 145.801 140.547C154.054 133.438 170.624 121.688 186.419 129.079C202.107 136.704 203.29 156.927 202.904 167.784" fill="#6FB643"/>
<path d="M130.083 213.82C128.467 223.186 123.149 229.469 114.157 229.989C108.835 224.753 107.417 220.334 108.386 218.319C109.732 215.523 115.918 205.395 121.261 196.422C121.943 195.276 122.622 194.128 123.298 192.979C129.392 196.556 131.699 204.439 130.081 213.82" fill="#43A335"/>
<path opacity="0.5" d="M140.793 194.024C146.835 181.326 152.414 181.189 151.08 175.346C150.31 171.994 144.646 170.541 141.81 162.168C140.859 159.363 135.461 181.692 129.28 189.535C126.998 192.43 136.658 202.711 140.793 194.027M94.6438 259.071C95.8937 264.773 100.18 269.534 103.523 268.448C107.534 267.144 104.559 264.042 110.8 251.436C112.577 247.848 118.693 242.816 117.437 238.838C116.401 235.557 112.492 235.526 108.989 229.412C106.701 225.421 105.517 237.466 102.841 244.441C99.2697 253.744 93.4894 253.806 94.6438 259.071Z" fill="white"/>
<path d="M186.85 181.233C181.713 182.115 172.845 181.864 165.71 177.159C157.281 171.599 159.006 192.178 155.137 203.156C149.607 218.841 132.167 231.842 132.903 235.106C133.774 238.973 156.674 247.173 161.211 241.305C165.747 235.436 170.156 215.651 177.006 202.745C183.208 191.05 191.986 180.352 186.85 181.233Z" fill="#43A335"/>
<path d="M156.488 250.553C150.396 250.553 141.914 248.671 131.321 243.627C110.439 233.647 104.329 222.335 106.659 217.491C107.69 215.349 111.237 209.434 115.343 202.585C118.341 197.584 121.443 192.413 123.839 188.248C130.131 177.32 135.456 162.649 139.345 151.936C141.318 146.501 142.876 142.208 144.075 139.717L144.25 139.356L144.553 139.095C155.446 129.716 171.696 120.066 187.248 127.344C202.717 134.864 205.347 153.52 204.835 167.85L204.821 168.249L204.647 168.61C203.448 171.099 201.066 175.001 198.048 179.939C192.102 189.67 183.959 202.997 179.349 214.726C177.593 219.197 175.49 224.841 173.455 230.301C170.666 237.781 168.261 244.241 167.232 246.384C166.081 248.771 162.413 250.553 156.488 250.553ZM132.981 240.17C153.1 249.749 162.923 246.466 163.763 244.727C164.717 242.744 167.211 236.053 169.85 228.967C171.891 223.492 174 217.831 175.768 213.33C180.5 201.29 188.744 187.798 194.763 177.947C197.468 173.521 199.821 169.669 201.005 167.306C201.416 154.169 199.036 137.336 185.588 130.798C172.07 124.477 157.403 133.176 147.379 141.727C146.274 144.122 144.735 148.366 142.966 153.238C139.029 164.082 133.635 178.935 127.18 190.152C124.765 194.347 121.656 199.532 118.649 204.548C114.76 211.034 111.086 217.162 110.132 219.144C109.295 220.884 112.883 230.563 132.985 240.17H132.981Z" fill="#000072"/>
<path d="M165.632 172.298C181.399 179.818 198.088 177.798 202.908 167.781C202.908 167.781 205.233 160.136 208.017 154.15C211.502 146.659 216.535 139.454 218.933 134.468C223.753 124.451 214.874 110.234 199.107 102.714C183.342 95.1931 166.651 97.2143 161.832 107.231C159.434 112.218 156.948 120.641 153.27 128.036C150.332 133.948 145.806 140.544 145.806 140.544C140.988 150.561 149.866 164.776 165.632 172.298Z" fill="#6FB643"/>
<path opacity="0.5" d="M147.512 147.746C147.949 152.961 152.836 156.723 154.424 156.063C157.456 154.8 155.637 148.167 160.99 141.876C163.587 138.825 168.871 136.787 167.615 132.814C166.579 129.534 163.094 129.454 160.179 121.691C158.563 117.387 157.582 128.357 153.764 135.906C152.183 139.032 147.061 142.376 147.512 147.746Z" fill="white"/>
<path d="M209.193 145.062C200.772 155.368 200.565 165.942 198.261 167.849C192.531 172.599 175.427 171.872 166.983 165.381C160.392 160.313 175.448 158.437 175.969 145.222C176.355 135.357 185.438 153.193 209.193 145.062Z" fill="#43A335"/>
<path d="M181.66 138.982C197.429 146.503 214.118 144.481 218.935 134.467C223.753 124.453 214.877 110.233 199.108 102.714C183.341 95.1963 166.652 97.2134 161.833 107.229C157.015 117.244 165.893 131.462 181.66 138.982Z" fill="#E1ECCE"/>
<path d="M213.258 136.965C214.561 135.914 215.616 134.589 216.348 133.085C218.343 128.939 217.618 123.737 214.308 118.437C210.845 112.881 205.014 107.959 197.896 104.564C186.294 99.0304 173.632 98.8969 167.104 104.241C165.801 105.291 164.746 106.616 164.014 108.121C162.019 112.265 162.744 117.468 166.053 122.768C169.517 128.323 175.349 133.246 182.465 136.641C194.068 142.176 206.731 142.309 213.258 136.965Z" fill="#E1ECCE"/>
<path d="M180.514 135.65C181.152 135.991 181.802 136.319 182.464 136.634C194.066 142.169 206.731 142.302 213.256 136.96C214.558 135.909 215.614 134.585 216.348 133.082C218.343 128.935 217.617 123.73 214.308 118.426C212.635 115.752 210.418 113.22 207.766 110.936C209.453 112.627 210.948 114.499 212.225 116.518C215.622 121.957 216.366 127.293 214.318 131.55C213.567 133.094 212.485 134.453 211.148 135.53C204.632 140.866 192.153 140.879 180.517 135.646" fill="#BFDAA7"/>
<path d="M184.48 178.76C178.154 178.76 171.311 177.131 164.805 174.024C156.853 170.231 150.306 164.671 146.371 158.368C142.267 151.794 141.451 145.171 144.075 139.715L144.222 139.462C144.266 139.398 148.707 132.905 151.551 127.186C153.591 123.081 155.285 118.582 156.777 114.613C157.931 111.541 159.025 108.639 160.101 106.404C162.726 100.944 168.421 97.4291 176.136 96.4945C183.536 95.5978 191.991 97.1929 199.944 100.987C207.898 104.78 214.442 110.34 218.379 116.643C222.482 123.217 223.298 129.84 220.672 135.295C219.597 137.532 218.011 140.197 216.333 143.017C214.163 146.663 211.702 150.798 209.767 154.955C207.074 160.746 204.775 168.26 204.754 168.334L204.647 168.607C202.023 174.067 196.328 177.582 188.612 178.517C187.24 178.681 185.861 178.762 184.48 178.76ZM147.486 141.5C143.273 150.544 151.75 163.554 166.468 170.574C173.766 174.056 181.465 175.526 188.147 174.717C194.45 173.951 199.05 171.245 201.116 167.082C201.465 165.953 203.648 158.999 206.276 153.349C208.296 149.016 210.805 144.794 213.023 141.069C214.658 138.323 216.197 135.729 217.203 133.645C219.24 129.412 218.497 124.094 215.111 118.671C211.556 112.98 205.58 107.928 198.277 104.446C183.491 97.3942 167.92 99.0159 163.568 108.063C162.565 110.147 161.502 112.972 160.378 115.961C158.853 120.016 157.123 124.611 154.991 128.892C152.225 134.467 148.152 140.518 147.486 141.495V141.5Z" fill="#000072"/>
<path d="M168.073 129.247C170.248 130.837 172.383 132.343 174.596 133.719C176.796 135.091 179.059 136.36 181.377 137.521C183.699 138.681 186.074 139.731 188.494 140.668C190.929 141.611 193.41 142.435 195.981 143.254C193.287 143.421 190.569 143.084 187.933 142.455C182.641 141.155 177.708 138.685 173.496 135.228C171.418 133.494 169.532 131.516 168.076 129.248M206.11 143.042C207.183 142.513 208.225 142.023 209.222 141.49C210.199 140.97 211.145 140.395 212.055 139.765C212.927 139.165 213.751 138.496 214.519 137.767C215.255 137.057 215.916 136.273 216.491 135.427C217.611 133.749 218.277 131.81 218.425 129.798C218.604 127.787 218.255 125.722 217.629 123.725C216.947 121.699 216.005 119.769 214.827 117.985C213.633 116.154 212.261 114.445 210.732 112.883C209.191 111.295 207.517 109.84 205.731 108.534C200.329 104.56 194.11 101.841 187.525 100.574C185.356 100.161 183.154 99.9442 180.947 99.9247C179.855 99.9132 178.764 99.9536 177.676 100.046C177.136 100.108 176.594 100.149 176.062 100.237C175.526 100.305 174.996 100.406 174.469 100.507C172.371 100.947 170.333 101.618 168.519 102.63C167.621 103.132 166.773 103.718 165.986 104.381C165.225 105.053 164.543 105.811 163.957 106.64C162.769 108.286 161.993 110.232 161.629 112.34C161.264 114.447 161.324 116.707 161.593 119.045C160.309 116.99 159.577 114.639 159.467 112.219C159.359 109.667 160.007 107.141 161.33 104.956C161.995 103.854 162.804 102.846 163.735 101.956C164.659 101.078 165.678 100.303 166.773 99.6464C168.95 98.3503 171.331 97.506 173.743 97.012C176.137 96.5324 178.58 96.338 181.019 96.4327C183.425 96.5128 185.819 96.8073 188.172 97.3129C192.86 98.2979 197.357 99.973 201.574 102.164C205.777 104.378 209.743 107.105 213.164 110.482C214.867 112.172 216.46 114 217.808 116.029C218.492 117.043 219.111 118.099 219.663 119.19C220.216 120.298 220.686 121.445 221.069 122.623C221.454 123.821 221.727 125.053 221.884 126.301C222.04 127.573 222.05 128.858 221.913 130.133C221.667 132.704 220.656 135.208 219.128 137.283C218.369 138.317 217.467 139.237 216.448 140.016C215.449 140.773 214.357 141.398 213.198 141.876C210.958 142.815 208.529 143.213 206.106 143.038" fill="#000072"/>
<path d="M184.445 131.428C194.215 136.089 204.149 136.538 209.137 133.03C210.252 132.248 211.119 131.272 211.683 130.097C214.779 123.662 207.602 113.826 195.655 108.127C183.709 102.427 171.511 103.025 168.42 109.46C167.854 110.635 167.633 111.92 167.717 113.272C168.102 119.342 174.674 126.768 184.445 131.428Z" fill="#E1ECCE"/>
<path d="M184.444 131.427C194.212 136.089 204.148 136.536 209.135 133.031C210.249 132.246 211.116 131.273 211.684 130.097C214.778 123.661 207.601 113.824 195.655 108.128C195.538 108.073 195.419 108.014 195.299 107.961C183.467 102.443 171.481 103.089 168.42 109.461C168.008 110.327 167.767 111.264 167.712 112.221C167.69 112.571 167.69 112.923 167.712 113.274C168.097 119.346 174.67 126.77 184.442 131.429" fill="#E1ECCE"/>
<path d="M184.445 131.427C194.213 136.089 204.149 136.536 209.136 133.031C210.25 132.247 211.117 131.273 211.685 130.096C214.779 123.66 207.602 113.824 195.656 108.127C195.539 108.072 195.42 108.013 195.3 107.961C206.479 116.83 200.084 125.538 196.57 127.1C185.618 131.966 172.425 120.722 167.712 112.22C167.69 112.571 167.69 112.923 167.712 113.274C168.097 119.346 174.67 126.77 184.442 131.429" fill="#BFDAA7"/>
<path d="M200.186 137.252C195.143 137.252 189.303 135.87 183.612 133.155C173.394 128.282 166.234 120.34 165.794 113.394C165.69 111.676 165.987 110.076 166.683 108.633C170.292 101.132 183.383 100.149 196.485 106.398C209.587 112.648 217.026 123.423 213.415 130.918C212.719 132.367 211.651 133.601 210.24 134.591C207.714 136.374 204.201 137.252 200.186 137.252ZM179.822 106.122C175.128 106.122 171.485 107.518 170.153 110.288C169.744 111.136 169.57 112.102 169.636 113.162C169.984 118.67 176.419 125.471 185.275 129.699C194.138 133.929 203.492 134.654 208.025 131.466C208.891 130.857 209.539 130.118 209.95 129.268C212.537 123.89 205.611 114.997 194.825 109.854C189.592 107.359 184.24 106.122 179.822 106.122Z" fill="#000072"/>
<path d="M192.409 114.872C190.422 114.08 188.382 113.428 186.305 112.921C184.251 112.416 182.156 112.097 180.045 111.97C177.955 111.852 175.865 111.939 173.879 112.326C171.894 112.712 170.036 113.462 168.635 114.569L169.309 113.174C169.457 114.944 170.161 116.768 171.183 118.442C172.204 120.116 173.529 121.67 174.984 123.084C177.905 125.926 181.429 128.19 185.136 129.997C188.874 131.743 192.852 133.056 196.907 133.541C198.927 133.784 200.964 133.828 202.923 133.581C204.881 133.334 206.742 132.728 208.219 131.733L208.271 131.698C208.622 131.474 209.045 131.395 209.452 131.478C209.86 131.561 210.219 131.799 210.453 132.143C210.687 132.485 210.777 132.906 210.703 133.315C210.629 133.723 210.398 134.086 210.059 134.325C207.973 135.734 205.629 136.419 203.341 136.727C201.04 137.015 198.756 136.959 196.521 136.692C192.044 136.151 187.775 134.733 183.759 132.86C179.774 130.919 175.99 128.495 172.761 125.359C171.151 123.793 169.672 122.057 168.459 120.091C167.267 118.121 166.333 115.876 166.128 113.373L166.051 112.428L166.799 111.979C168.961 110.678 171.304 110.141 173.568 109.967C175.843 109.812 178.074 110.005 180.24 110.398C182.391 110.795 184.499 111.387 186.541 112.164C188.558 112.929 190.519 113.834 192.409 114.874" fill="#000072"/>
<path d="M110.012 193.26C116.626 188.585 128.057 192.068 128.133 202.922C128.199 212.125 123.158 227.806 109.254 227.45C94.2174 227.067 100.495 199.987 110.012 193.26Z" fill="#5F5F82"/>
<path d="M128.137 202.923C128.204 212.126 123.161 227.807 109.257 227.45C104.337 227.324 101.701 224.34 100.708 220.142C102.044 221.162 103.763 221.771 105.924 221.825C119.826 222.182 124.874 206.499 124.802 197.294C124.8 196.225 124.671 195.16 124.418 194.121C126.621 196.085 128.107 199.028 128.135 202.923" fill="#515177"/>
<path d="M109.73 229.371C109.558 229.371 109.384 229.371 109.209 229.365C104.191 229.237 100.605 226.473 99.1082 221.584C96.3002 212.411 101.335 197.048 108.903 191.7C112.916 188.864 118.433 188.521 122.958 190.828C127.435 193.11 130.023 197.514 130.062 202.91C130.109 209.626 127.635 218.867 122 224.372C118.602 227.69 114.472 229.371 109.73 229.371ZM116.618 193.151C114.644 193.151 112.695 193.715 111.135 194.822C105.038 199.132 100.517 213.032 102.793 220.468C103.81 223.791 105.943 225.448 109.313 225.534C113.206 225.631 116.56 224.322 119.309 221.636C124.139 216.914 126.26 208.842 126.217 202.935C126.181 197.571 123.062 195.181 121.208 194.236C119.785 193.518 118.212 193.146 116.618 193.151Z" fill="#000072"/>
<path d="M114.23 198.818C115.694 198.802 117.157 198.915 118.602 199.155C120.084 199.387 121.533 199.786 122.924 200.344C124.335 200.919 125.713 201.729 126.889 202.885C127.483 203.48 127.998 204.149 128.422 204.875C128.837 205.631 129.153 206.435 129.365 207.27L126.219 207.779C126.18 207.193 126.072 206.614 125.895 206.054C125.69 205.481 125.413 204.936 125.071 204.432C124.358 203.404 123.349 202.492 122.185 201.751C120.996 201 119.725 200.387 118.397 199.923C117.041 199.432 115.645 199.062 114.225 198.817M109.085 210.031C110.63 209.96 112.178 210.054 113.703 210.309C115.263 210.557 116.788 210.993 118.242 211.609C119.758 212.247 121.152 213.14 122.365 214.25C123.619 215.415 124.632 216.814 125.347 218.369L122.355 219.464C122.014 218.159 121.418 216.935 120.604 215.861C119.779 214.761 118.703 213.808 117.491 213.009C116.245 212.207 114.907 211.559 113.506 211.08C112.075 210.575 110.594 210.224 109.089 210.032" fill="#000072"/>
<path d="M206.517 156.217C204.008 154.206 195.256 151.109 189.295 160.953C182.617 171.98 182.079 186.522 190.854 189.282C206.58 194.23 217.288 164.835 206.517 156.217Z" fill="#5F5F82"/>
<path d="M190.856 189.28C187.082 188.095 185.035 184.731 184.45 180.408C185.49 181.796 186.943 182.819 188.6 183.331C200.927 187.21 210.169 169.998 208.409 158.221C215.83 168.63 205.523 193.898 190.856 189.28Z" fill="#515177"/>
<path d="M194.326 191.743C192.951 191.74 191.585 191.526 190.274 191.109C187.107 190.112 184.752 187.791 183.465 184.396C181.021 177.953 182.702 168.134 187.648 159.965C190.896 154.6 194.889 152.888 197.667 152.397C202.285 151.581 206.163 153.476 207.723 154.724C214.574 160.205 213.843 172.452 209.179 181.126C205.518 187.939 200.064 191.743 194.326 191.743ZM199.906 156.034C199.38 156.034 198.856 156.079 198.34 156.17C195.44 156.682 192.953 158.624 190.943 161.942C186.642 169.047 185.047 177.724 187.064 183.044C187.93 185.333 189.402 186.817 191.434 187.456C199.357 189.947 204.42 181.857 205.788 179.315C209.625 172.176 210.535 161.882 205.313 157.708C204.372 156.957 202.304 156.034 199.906 156.034Z" fill="#000072"/>
<path d="M188.538 159.557C190.057 158.907 191.555 158.772 192.98 158.805C194.374 158.852 195.759 159.071 197.099 159.462C198.415 159.827 199.677 160.366 200.851 161.065C201.433 161.415 201.971 161.835 202.451 162.315C202.924 162.793 203.317 163.382 203.446 164.029C203.187 163.422 202.716 162.969 202.195 162.617C201.668 162.269 201.099 161.987 200.503 161.778C199.312 161.363 198.072 161.109 196.815 161.022C195.589 160.92 194.355 160.973 193.142 161.18C191.971 161.384 190.849 161.771 190.056 162.351L188.538 159.557ZM186.138 171.006C187.159 173.009 188.998 174.765 191.147 176.052C192.237 176.707 193.399 177.234 194.61 177.622C195.831 177.997 197.117 178.257 198.428 178.101C197.172 178.518 195.785 178.53 194.448 178.398C193.093 178.249 191.76 177.945 190.476 177.49C189.156 177.031 187.896 176.415 186.724 175.655C185.493 174.863 184.395 173.881 183.471 172.746L186.138 171.006ZM88.3919 197.093L89.4066 196.303L89.9171 195.907C90.0896 195.778 90.2766 195.671 90.4553 195.549L91.5481 194.845L92.7025 194.231C94.2775 193.43 95.9484 192.834 97.6745 192.457C99.4253 192.091 101.21 191.914 102.999 191.928C103.89 191.928 104.78 191.974 105.645 192.025L106.288 192.065L106.903 192.095C107.116 192.11 107.274 192.095 107.46 192.1H107.589L107.673 192.083C107.727 192.075 107.781 192.068 107.835 192.064L108.173 195.219L107.691 195.207L107.454 195.196C107.381 195.19 107.327 195.179 107.262 195.169C107.022 195.131 106.752 195.099 106.542 195.051L105.885 194.915L105.259 194.777C104.447 194.594 103.629 194.434 102.808 194.299C101.185 194.031 99.5376 193.939 97.8943 194.024C96.2304 194.126 94.5871 194.441 93.0055 194.96L91.8089 195.376L90.6504 195.891C90.4573 195.981 90.257 196.059 90.0732 196.159L89.5145 196.467L88.3909 197.093H88.3919ZM187.952 269.3C188.761 270.267 189.499 271.291 190.159 272.364C190.842 273.46 191.418 274.618 191.88 275.824C192.335 277.055 192.672 278.39 192.632 279.857C192.603 281.436 192.021 282.955 190.987 284.149L188.759 281.885C189.521 281.321 190.054 280.5 190.26 279.574C190.519 278.566 190.507 277.394 190.338 276.227C190.152 275.029 189.851 273.852 189.439 272.712C189.027 271.54 188.53 270.401 187.952 269.302M180.69 269.696C181.394 270.941 182.012 272.232 182.538 273.562C183.085 274.913 183.509 276.31 183.804 277.737C184.092 279.189 184.226 280.724 183.953 282.334C183.81 283.174 183.526 283.984 183.112 284.729C182.667 285.518 182.074 286.215 181.367 286.78L179.571 284.16C180.476 283.695 181.206 282.872 181.641 281.729C182.076 280.586 182.233 279.257 182.218 277.903C182.203 276.55 182.034 275.159 181.774 273.785C181.506 272.399 181.144 271.033 180.69 269.696Z" fill="#000072"/>
<path d="M197.475 64.7788C195.391 61.3936 194.485 57.4143 194.898 53.4606C195.927 43.4796 204.888 36.2204 214.912 37.2433C224.937 38.2673 232.227 47.1914 231.199 57.1724C230.17 67.1544 221.209 74.4137 211.184 73.3897C208.491 73.1175 205.892 72.2492 203.576 70.8477L195.132 72.7324L197.475 64.7788Z" fill="white"/>
<path opacity="0.5" d="M214.556 40.7198C205.191 39.7616 196.76 46.0359 194.849 55.0032C194.847 54.3561 194.879 53.7091 194.946 53.0641C195.975 43.0831 204.935 35.8228 214.959 36.8468C224.984 37.8708 232.274 46.7939 231.246 56.7759C231.179 57.4229 231.078 58.0648 230.942 58.7016C230.902 49.532 223.923 41.677 214.556 40.7198Z" fill="white"/>
<path d="M213.071 75.0884C212.389 75.0885 211.707 75.0538 211.028 74.9847C208.317 74.714 205.691 73.8845 203.317 72.5485L195.491 74.2966C195.218 74.3574 194.934 74.3465 194.667 74.2647C194.4 74.183 194.158 74.0333 193.967 73.8303C193.776 73.6271 193.642 73.3777 193.577 73.1068C193.513 72.8358 193.52 72.5528 193.599 72.2856L195.747 64.9934C193.731 61.4469 192.878 57.3572 193.308 53.3003C194.427 42.4587 204.195 34.5452 215.083 35.6554C220.315 36.1883 225.122 38.7728 228.452 42.8428C230.097 44.8531 231.327 47.1686 232.074 49.6561C232.82 52.1437 233.068 54.7542 232.802 57.3377C231.749 67.4943 223.108 75.0884 213.071 75.0884ZM203.578 69.2465C203.873 69.2465 204.161 69.3266 204.412 69.4786C206.523 70.7597 208.894 71.5521 211.351 71.7977C220.474 72.7313 228.666 66.0944 229.605 57.006C229.827 54.8403 229.619 52.6521 228.993 50.567C228.367 48.4819 227.336 46.541 225.957 44.8558C223.166 41.4444 219.136 39.278 214.75 38.8311C205.624 37.8965 197.435 44.5313 196.496 53.6218C196.115 57.2274 196.941 60.8577 198.846 63.9427C198.963 64.1329 199.038 64.3453 199.068 64.5665C199.097 64.7876 199.08 65.0125 199.018 65.2266L197.441 70.5776L203.228 69.2855C203.343 69.2598 203.46 69.2465 203.578 69.2465Z" fill="#000072"/>
<path opacity="0.3" d="M197.374 64.6043C200.065 66.8753 203.281 68.4373 206.73 69.148C210.181 69.8587 213.755 69.6975 217.128 68.6786C220.497 67.6604 223.558 65.8152 226.032 63.3112C228.501 60.8117 230.303 57.7321 231.271 54.3552C231.321 55.295 231.297 56.2368 231.201 57.1714C230.171 67.1545 221.21 74.4127 211.186 73.3887C208.493 73.1168 205.894 72.2485 203.578 70.8467L195.133 72.7324L197.477 64.7819L197.374 64.6043Z" fill="#000072"/>
<path d="M207.215 50.2151C208.794 48.6437 211.352 48.9252 212.932 50.4966L213.179 50.742L213.424 50.4966C215.004 48.9252 217.56 48.6427 219.143 50.2151C219.519 50.588 219.817 51.0315 220.02 51.5201C220.224 52.0087 220.329 52.5328 220.329 53.0622C220.329 53.5915 220.224 54.1156 220.02 54.6042C219.817 55.0928 219.519 55.5363 219.143 55.9092L218.897 56.1536L213.935 61.0969C213.734 61.2958 213.463 61.4074 213.181 61.4074C212.898 61.4074 212.628 61.2958 212.427 61.0969L207.463 56.1536L207.217 55.9092C206.841 55.5361 206.543 55.0925 206.34 54.604C206.136 54.1154 206.031 53.5914 206.031 53.0622C206.031 52.5329 206.135 52.0088 206.339 51.5201C206.542 51.0313 206.84 50.5886 207.215 50.2151Z" fill="#FF0068"/>
</svg>
