<svg width="281" height="358" viewBox="0 0 281 358" fill="none" xmlns="http://www.w3.org/2000/svg">
<g clip-path="url(#clip0_5_2068)">
<g clip-path="url(#clip1_5_2068)">
<g clip-path="url(#clip2_5_2068)">
<path d="M74.239 43.9305C74.239 43.9305 59.6615 32.7177 58.1467 8.86255C62.1693 9.87174 79.4941 29.4799 74.239 43.9305Z" fill="#76930A"/>
<path d="M74.239 43.9305C74.239 43.9305 63.9034 27.9875 58.1467 8.86255C62.1693 9.87174 79.4941 29.4799 74.239 43.9305Z" fill="#81A70F"/>
<path d="M58.1458 8.86353C61.2921 9.65342 72.6146 21.8592 74.8401 34.0598C70.9901 24.7497 65.6873 15.6558 58.1925 9.01785C58.1711 8.96708 58.162 8.9082 58.1458 8.86353Z" fill="#B3CA6F"/>
<path d="M74.4827 44.7601L73.9294 44.3357C73.7822 44.223 59.1448 32.7057 57.6381 8.89725L57.5945 8.19873L58.2717 8.36422C60.6596 8.96324 67.2031 15.3981 71.6216 23.7356C74.4624 29.0973 77.3083 36.9851 74.7183 44.1032L74.4827 44.7601ZM58.7143 9.6648C60.2708 29.8354 71.3699 40.7426 73.9974 43.0575C76.032 36.4734 73.37 29.2202 70.7191 24.2179C66.7919 16.8083 61.1815 11.075 58.7143 9.6648Z" fill="#3B4A05"/>
<path d="M58.5885 38.8277C58.5885 38.8277 52.3648 20.9526 27.4609 18.3921C28.726 27.9276 47.2833 33.6102 58.5865 38.8267L58.5885 38.8277Z" fill="#76930A"/>
<path d="M58.5885 38.8277C58.5885 38.8277 52.3648 20.9526 27.4609 18.3921C28.726 27.9276 46.2914 26.0098 58.5865 38.8267L58.5885 38.8277Z" fill="#81A70F"/>
<path d="M54.6349 32.1563C46.8934 25.89 38.2574 21.5811 28.731 18.5515C42.6708 20.3181 50.525 26.9479 54.6349 32.1563Z" fill="#B3CA6F"/>
<path d="M59.4676 39.7942L58.3782 39.2967C56.2583 38.319 53.9079 37.3322 51.4093 36.2885C40.4493 31.6994 28.0273 26.5011 26.9674 18.4651L26.8821 17.8235L27.5248 17.8895C52.454 20.446 59.0036 38.4774 59.0727 38.6591L59.4676 39.7942ZM28.0933 18.9748C29.6701 26.0737 41.4088 30.9897 51.8012 35.3402C53.8419 36.194 55.7882 37.0083 57.5965 37.8154C55.6928 33.8721 48.1289 21.2927 28.0923 18.9748H28.0933Z" fill="#3B4A05"/>
<path d="M122.52 52.1198C122.52 52.1198 122.143 39.0125 120.257 30.9531C122.52 36.2438 124.532 45.1894 126.292 47.0789C124.532 49.2232 122.52 52.1198 122.52 52.1198Z" fill="#9BB801"/>
<path d="M122.052 53.6834L122.007 52.1331C122.007 52.0031 121.608 38.9902 119.757 31.0629L120.723 30.7461C121.673 32.9655 122.566 35.7819 123.43 38.5069C124.561 42.0523 125.719 45.7104 126.661 46.7348L126.968 47.0658L126.683 47.3978C124.956 49.4994 122.956 52.3757 122.936 52.4051L122.052 53.6834ZM121.795 36.7485C122.529 42.165 122.85 47.9409 122.968 50.602C123.826 49.4043 124.715 48.2286 125.633 47.0759C124.622 45.6495 123.611 42.4625 122.458 38.8237C122.243 38.1333 122.017 37.4429 121.795 36.7485Z" fill="#5F6600"/>
<path d="M90.0004 56.9911C90.0004 56.9911 74.4929 42.6695 52.8755 38.386C57.025 37.0022 77.1418 41.0735 93.1082 56.9911C92.08 57.1709 91.0285 57.1709 90.0004 56.9911Z" fill="#9BB801"/>
<path d="M91.5121 57.6328C90.9672 57.6397 90.423 57.592 89.8877 57.4907L89.7526 57.4612L89.6511 57.3668C89.4968 57.2246 73.9924 43.099 52.7658 38.8886L50.8723 38.513L52.7069 37.9018C53.2603 37.717 54.0319 37.6226 54.9873 37.6226C61.3196 37.6226 79.0546 42.2675 93.4604 56.6266L94.1661 57.3323L93.1863 57.4978C92.633 57.5891 92.0725 57.6338 91.5121 57.6328ZM90.2308 56.5221C90.6542 56.5881 91.0837 56.6195 91.5121 56.6185C91.6644 56.6185 91.8167 56.6185 91.969 56.6074C79.0962 44.1843 63.8395 39.446 56.7041 38.7475C75.3559 43.5488 88.8713 55.2987 90.2308 56.5221Z" fill="#5F6600"/>
<path d="M110.577 59.4277C110.577 59.4277 92.4726 71.6467 85.8093 85.2535C90.5873 80.0806 100.89 67.7429 117.87 61.5669C115.57 59.5648 110.577 59.4277 110.577 59.4277Z" fill="#7B8C00"/>
<path d="M110.577 59.4277C110.577 59.4277 92.4726 71.6467 85.8093 85.2535C90.5873 80.0806 98.5907 66.6941 115.562 60.5212C113.349 59.8034 110.577 59.4277 110.577 59.4277Z" fill="#9BB801"/>
<path d="M83.8182 88.1574L85.3512 85.0283C91.9983 71.4539 110.109 59.1253 110.292 59.0116L110.429 58.9182H110.594C110.806 58.9182 115.797 59.0837 118.21 61.1843L118.873 61.7529L118.057 62.0504C102.485 67.7146 92.6572 78.5101 87.3777 84.3115C86.9523 84.7795 86.5584 85.21 86.1949 85.6039L83.8182 88.1574ZM110.725 59.9437C109.219 60.9853 95.8148 70.4305 88.5494 81.5113C94.0938 75.5384 103.226 66.607 116.788 61.4371C114.723 60.2218 111.485 59.9853 110.725 59.9437Z" fill="#5F6600"/>
<path d="M164.465 181.635C164.465 181.635 181.061 158.74 186.868 154.566C189.153 145.854 199.21 115.364 212.033 109.822C217.315 120.405 222.092 126.326 222.092 126.326C213.054 143.58 207.507 172.471 191.414 185.872C177.59 183.651 164.465 181.635 164.465 181.635Z" fill="#F4FFEC"/>
<path d="M191.567 186.413L191.34 186.377C182.362 184.938 173.38 183.527 164.393 182.141L163.565 182.013L164.062 181.335C164.735 180.406 180.501 158.698 186.428 154.26C189.295 143.432 199.298 114.775 211.84 109.353L212.284 109.16L212.499 109.592C217.694 119.997 222.451 125.945 222.498 126.004L222.71 126.266L222.554 126.564C219.635 132.137 217.09 138.898 214.405 146.053C208.93 160.618 202.724 177.126 191.751 186.265L191.567 186.413ZM165.378 181.257C174.013 182.591 182.644 183.949 191.271 185.33C201.928 176.333 208.045 160.059 213.445 145.693C216.093 138.631 218.61 131.951 221.493 126.382C220.529 125.131 216.347 119.51 211.804 110.491C199.824 116.255 189.916 144.966 187.363 154.695L187.317 154.873L187.168 154.98C182.052 158.661 168.176 177.436 165.378 181.257Z" fill="#181618"/>
<path d="M214.888 275.453C214.888 275.453 236.347 255.295 269.707 257.815C271.383 242.865 269.707 232.953 269.707 232.953C256.793 230.266 232.491 231.644 222.768 235.322C218.744 248.072 214.888 275.453 214.888 275.453Z" fill="#5F5F82"/>
<path d="M214.183 276.816L214.385 275.382C214.422 275.108 218.292 247.811 222.282 235.167L222.358 234.93L222.59 234.845C228.607 232.566 240.678 231.038 252.629 231.038C259.417 231.038 265.363 231.528 269.812 232.454L270.153 232.525L270.211 232.868C270.227 232.967 271.88 243.024 270.211 257.871L270.156 258.362L269.66 258.326C267.756 258.181 265.847 258.108 263.937 258.109C234.448 258.109 215.427 275.65 215.228 275.826L214.183 276.816ZM223.181 235.714C219.753 246.743 216.42 268.543 215.592 274.174C220 270.524 237.979 257.085 263.946 257.085C265.703 257.085 267.488 257.146 269.253 257.268C270.649 244.351 269.523 235.229 269.253 233.378C264.914 232.512 259.175 232.051 252.626 232.051C240.942 232.061 229.169 233.525 223.181 235.714Z" fill="#000072"/>
<path d="M236.393 355.245C236.393 355.245 254.035 274.118 239.828 211.115C228.964 165.137 213.07 131.538 188.29 103.167C169.795 82.1041 131.323 65.4819 107.181 60.6877C98.1296 59.177 81.5348 54.3879 42.8098 65.9794C47.7542 62.8533 73.4389 49.3693 120.046 58.4185C154.996 65.3072 214.89 82.1051 249.76 167.135C266.356 211.621 272.892 272.264 268.118 355.247C257.805 356.758 236.393 355.245 236.393 355.245Z" fill="#7B8C00"/>
<path d="M269.634 306.063C269.615 321.518 269.109 337.912 268.115 355.245C257.802 356.758 246.989 355.769 246.989 355.769C246.989 355.769 250.29 335.549 252.023 307.524C257.706 306.288 263.967 303.614 269.634 306.063Z" fill="#9BB801"/>
<path d="M260.774 355.948C263.232 355.828 265.682 355.593 268.118 355.244C269.111 337.891 269.617 321.497 269.638 306.062C269.606 306.047 269.575 306.038 269.543 306.025C265.598 321.735 268.11 342.087 260.774 355.948Z" fill="#F4FF8A"/>
<path d="M120.046 58.4175C143.122 62.9649 177.069 71.8456 207.51 101.823C205.495 104.891 203.46 108.382 200.315 110.119C197.669 106.78 194.944 103.504 192.144 100.294C173.648 79.2237 132.971 63.698 108.837 58.9109C99.7784 57.3981 72.2866 53.0385 42.8098 65.9793C47.7542 62.8522 73.4328 49.3672 120.046 58.4175ZM245.095 156.489C246.728 160.002 248.283 163.551 249.757 167.133C252.875 175.557 255.543 184.141 257.747 192.848C255.03 197.056 249.371 197.981 244.438 199.058C241.414 187.685 237.633 176.526 233.12 165.658C238.535 164.94 242.396 161.1 245.095 156.489Z" fill="#9BB801"/>
<path d="M249.755 167.133C248.587 164.282 247.363 161.454 246.085 158.65C248.833 169.988 250.59 181.608 257.255 190.977C255.04 182.558 252.54 174.61 249.755 167.133Z" fill="#F4FF8A"/>
<path d="M266.043 238.459C268.285 257.334 269.49 278.052 269.624 300.807C263.947 302.107 258.078 302.94 252.347 301.803C253.361 282.253 253.507 259.532 251.308 237.442C256.098 235.534 261.398 236.765 266.043 238.459Z" fill="#9BB801"/>
<path d="M266.044 238.46C265.66 238.321 265.273 238.186 264.885 238.057C264.223 259.5 269.796 283.001 263.329 302.096C266.505 301.911 266.504 301.526 269.62 300.814C269.491 278.053 268.286 257.335 266.044 238.46Z" fill="#F4FF8A"/>
<path d="M236.358 355.756L235.77 355.714L235.896 355.137C236.07 354.326 253.35 273.388 239.332 211.234C228.389 164.919 212.528 131.695 187.908 103.505C170.415 83.5804 133.077 66.3429 107.1 61.1914C106.334 61.0634 105.515 60.9111 104.633 60.7497C100.469 59.9801 94.7661 58.9252 86.7128 58.9252C74.2198 58.9252 59.9073 61.3903 42.9561 66.4637L39.3955 67.5298L42.5409 65.5398C45.3705 63.7509 60.9398 54.8235 89.6206 54.8235C99.3247 54.8235 109.594 55.8621 120.146 57.91C138.118 61.4523 161.756 67.5095 185.213 83.0413C213.097 101.499 234.973 129.725 250.239 166.949C267.276 212.625 273.292 274.223 268.625 355.271L268.601 355.687L268.19 355.748C265.124 356.195 260.792 356.425 255.309 356.425C246 356.43 236.453 355.763 236.358 355.756ZM249.289 167.327C212.297 77.1212 145.204 63.8971 119.947 58.9181C109.462 56.8825 99.2587 55.8591 89.6196 55.8591C67.9697 55.8591 53.9049 60.971 47.2061 64.1824C62.2912 59.9689 75.2543 57.915 86.7138 57.915C94.8595 57.915 100.621 58.976 104.818 59.7517C105.694 59.9172 106.508 60.0634 107.284 60.1943C133.442 65.3804 171.037 82.757 188.675 102.832C213.411 131.156 229.342 164.514 240.33 211.002C253.773 270.602 238.556 347.336 237.02 354.774C239.23 354.916 247.36 355.404 255.316 355.404C260.506 355.404 264.647 355.2 267.637 354.797C272.25 274.1 266.241 212.772 249.289 167.327Z" fill="#5F6600"/>
<path d="M269.64 304.849C269.64 304.849 264.838 302.499 252.941 304.849C245.23 306.363 240.62 306.615 240.704 301.155C240.788 296.284 242.883 296.116 246.07 296.956C249.257 297.795 266.061 298.666 269.64 298.22C272.382 297.879 273.436 302.583 269.64 304.849Z" fill="#AA8555"/>
<path d="M252.282 297.714C258.517 298.212 267.183 298.525 269.642 298.212C272.383 297.88 273.438 302.575 269.642 304.848C269.642 304.848 264.84 302.497 252.942 304.848C252.557 304.924 252.181 304.998 251.811 305.066C252.354 302.74 252.315 300.189 252.282 297.714Z" fill="#C6A26D"/>
<path d="M245.819 306.296C243.732 306.296 242.327 305.859 241.401 304.92C240.574 304.067 240.172 302.832 240.196 301.147C240.235 298.962 240.638 296.056 243.698 296.056C244.36 296.056 245.142 296.181 246.202 296.461C248.706 297.125 260.212 297.83 266.42 297.83C267.474 297.846 268.528 297.807 269.578 297.714C270.969 297.536 272.084 298.392 272.479 299.834C272.94 301.508 272.314 303.845 269.902 305.289L269.664 305.43L269.415 305.309C269.397 305.309 267.297 304.313 262.562 304.313C259.723 304.313 256.521 304.662 253.044 305.349C250.539 305.843 247.932 306.296 245.819 306.296ZM243.698 297.086C242.445 297.086 241.278 297.583 241.215 301.171C241.193 302.567 241.493 303.56 242.128 304.209C242.839 304.931 244.045 305.283 245.817 305.283C247.848 305.283 250.51 304.813 252.842 304.355C256.387 303.657 259.657 303.301 262.561 303.301C266.646 303.301 268.864 304 269.592 304.284C271.372 303.111 271.838 301.364 271.493 300.111C271.232 299.159 270.56 298.628 269.702 298.734C268.61 298.835 267.515 298.877 266.418 298.858C260.078 298.858 248.575 298.152 245.938 297.457C244.981 297.198 244.268 297.086 243.698 297.086Z" fill="#55432B"/>
<path d="M243.957 237.359C243.957 237.359 250.503 232.427 265.627 235.06C267.359 235.424 269.306 231.69 264.965 230.123C260.624 228.558 250.194 227.425 243.262 231.136C241.018 232.344 240.797 237.727 243.957 237.359Z" fill="#AA8555"/>
<path d="M249.928 229.034C255.722 228.123 261.89 229.018 264.974 230.131C269.312 231.697 267.365 235.439 265.636 235.067C259.231 233.952 254.378 234.194 250.888 234.844C250.999 232.87 250.755 230.829 249.928 229.034Z" fill="#C6A26D"/>
<path d="M243.665 237.897C242.436 237.897 241.539 237.127 241.206 235.788C240.775 234.068 241.42 231.553 243.027 230.691C246.954 228.587 251.679 228.147 254.947 228.147C259.391 228.147 263.127 228.924 265.14 229.649C268.274 230.781 268.172 232.857 268.066 233.466C267.857 234.663 266.89 235.602 265.864 235.602C265.747 235.603 265.631 235.591 265.518 235.565C262.768 235.074 259.982 234.819 257.189 234.803C248.348 234.803 244.3 237.746 244.259 237.776L244.15 237.859L244.011 237.875C243.896 237.888 243.78 237.895 243.665 237.897ZM254.953 229.168C251.797 229.168 247.251 229.589 243.507 231.593C242.368 232.203 241.865 234.217 242.197 235.541C242.347 236.15 242.726 236.868 243.665 236.868H243.777C244.546 236.344 248.744 233.777 257.188 233.777C260.045 233.794 262.895 234.056 265.707 234.56C265.758 234.572 265.81 234.579 265.862 234.579C266.389 234.579 266.938 233.987 267.059 233.288C267.253 232.176 266.428 231.201 264.793 230.61C262.867 229.913 259.266 229.168 254.953 229.168Z" fill="#55432B"/>
<path d="M230.536 178.436C230.536 178.436 243.642 170.01 250.85 170.121C252.964 169.98 253.449 166.693 249.37 166.194C245.293 165.697 230.662 170.176 228.357 172.255C226.687 173.949 225.272 179.019 230.536 178.436Z" fill="#AA8555"/>
<path d="M234.69 169.383C239.934 167.573 246.776 165.879 249.369 166.194C253.448 166.692 252.962 169.98 250.848 170.121C246.807 170.058 240.914 172.681 236.51 174.998C236.746 172.703 235.821 170.998 234.69 169.383Z" fill="#C6A26D"/>
<path d="M229.746 178.994C227.718 178.994 226.9 178.053 226.57 177.265C225.83 175.488 226.943 172.963 227.995 171.896C230.406 169.721 243.906 165.645 248.655 165.645C248.915 165.643 249.175 165.657 249.433 165.686C252.082 166.018 252.988 167.442 252.957 168.57C252.925 169.698 252.054 170.561 250.883 170.63H250.708C243.704 170.63 230.941 178.785 230.814 178.868L230.713 178.931L230.594 178.944C230.312 178.977 230.029 178.993 229.746 178.994ZM248.655 166.667C243.827 166.667 230.751 170.786 228.698 172.639C227.751 173.604 227.013 175.676 227.512 176.875C227.817 177.605 228.567 177.976 229.746 177.976C229.94 177.976 230.148 177.966 230.365 177.945C231.689 177.1 243.667 169.613 250.708 169.613H250.857C251.139 169.606 251.407 169.491 251.607 169.293C251.808 169.095 251.925 168.828 251.936 168.546C251.956 167.848 251.274 166.947 249.309 166.708C249.092 166.68 248.873 166.666 248.655 166.667Z" fill="#55432B"/>
<path d="M219.883 115.47C219.883 115.47 212.432 114.919 203.657 123.11C201.735 125.192 204.405 129.979 206.717 127.776C209.03 125.572 218.396 118.354 221.318 117.268C222.542 116.877 221.701 115.371 219.883 115.47Z" fill="#AA8555"/>
<path d="M205.455 128.857C204.424 128.857 203.437 128.058 202.875 126.771C202.232 125.299 202.39 123.728 203.279 122.767C211.044 115.515 217.714 114.955 219.573 114.955H219.881C221.358 114.884 222.269 115.695 222.386 116.448C222.477 117.03 222.116 117.543 221.468 117.75C218.654 118.797 209.288 126.014 207.065 128.139C206.643 128.58 206.065 128.837 205.455 128.857ZM219.573 115.978C218.316 115.978 211.658 116.34 204 123.487C203.283 124.267 203.444 125.526 203.808 126.36C204.192 127.244 204.856 127.836 205.455 127.836C205.8 127.816 206.123 127.664 206.358 127.409C208.689 125.186 218.132 117.909 221.135 116.791C221.229 116.761 221.392 116.698 221.379 116.612C221.34 116.373 220.799 115.934 219.906 115.983H219.843C219.753 115.976 219.663 115.973 219.573 115.975V115.978Z" fill="#55432B"/>
<path d="M140.129 68.4973C140.129 68.4973 142.281 65.6139 142.628 63.9052C142.974 62.1965 147.458 63.6351 146.182 65.0149C144.906 66.3957 142.98 68.9969 142.728 70.2609C142.477 71.5259 142.397 74.0408 139.795 73.19C137.191 72.1178 138.805 69.9614 140.129 68.4973Z" fill="#AA8555"/>
<path d="M142.62 63.9062C142.973 62.1985 147.451 63.6351 146.174 65.0159C145.133 66.1429 143.658 68.0861 143.013 69.4486L140.126 68.4841C140.234 68.347 142.278 65.5723 142.62 63.9062Z" fill="#C6A26D"/>
<path d="M140.737 73.8734C140.36 73.866 139.985 73.7991 139.629 73.6754C138.66 73.2744 138.104 72.7109 137.941 71.987C137.65 70.6844 138.751 69.2549 139.744 68.1543C139.744 68.1543 141.795 65.3775 142.122 63.8028C142.274 63.0596 142.95 62.6169 143.944 62.6169C145.031 62.6169 146.44 63.1591 146.822 64.0363C146.917 64.2586 146.942 64.5043 146.895 64.7413C146.848 64.9783 146.73 65.1955 146.557 65.3643C145.152 66.8872 143.438 69.3158 143.23 70.3615C143.203 70.4955 143.178 70.6428 143.152 70.7991C142.953 71.9525 142.634 73.8734 140.737 73.8734ZM143.934 63.6393C143.66 63.6393 143.186 63.6871 143.12 64.0099C142.75 65.8141 140.624 68.6822 140.531 68.8C140.06 69.3239 138.723 70.8072 138.938 71.7596C139.022 72.1393 139.374 72.4611 139.983 72.7139C140.227 72.7952 140.48 72.8398 140.737 72.8459C141.693 72.8459 141.928 71.8855 142.136 70.6285C142.165 70.462 142.191 70.2966 142.222 70.1575C142.501 68.7533 144.524 66.0506 145.8 64.6648C145.92 64.5379 145.895 64.483 145.879 64.4434C145.721 64.083 144.792 63.6393 143.934 63.6393Z" fill="#55432B"/>
<path d="M168.412 283.18C168.412 283.18 158.852 288.044 166.898 300.894C172.56 309.385 187.263 309.135 193.058 300.189C198.852 291.244 198.088 285.446 193.686 283.931C189.286 282.414 168.412 283.18 168.412 283.18Z" fill="#E5DCE5"/>
<path d="M179.507 307.597C174.025 307.597 169.151 305.198 166.472 301.18C163.527 296.476 162.541 292.277 163.535 288.687C164.238 286.168 165.903 284.026 168.171 282.724L168.272 282.675H168.384C168.437 282.675 173.682 282.486 179.388 282.486C187.098 282.486 191.961 282.818 193.839 283.457C195.538 284.042 196.739 285.223 197.307 286.872C198.419 290.097 197.059 294.928 193.472 300.477C190.594 304.931 185.37 307.597 179.507 307.597ZM168.549 283.688C168.028 283.988 165.431 285.633 164.513 288.976C163.609 292.275 164.555 296.194 167.328 300.623C169.812 304.344 174.366 306.575 179.507 306.575C185.024 306.575 189.926 304.086 192.624 299.912C196.033 294.637 197.358 290.124 196.35 287.202C195.881 285.84 194.928 284.906 193.514 284.42C191.768 283.821 186.891 283.504 179.394 283.504C174.184 283.504 169.366 283.661 168.549 283.688Z" fill="#000072"/>
<path d="M154.19 83.287C154.19 83.287 150.292 54.8144 184.454 55.9444C181.824 57.5313 178.863 60.0735 178.863 60.0735C182.091 59.2106 190.013 58.506 194.196 64.5916C192.791 65.0718 190.766 65.9196 190.766 65.9196C193.721 67.3247 198.761 70.8538 198.771 74.3495C197.573 74.4631 196.379 74.6057 195.188 74.7769C198.117 77.2745 200.294 82.7672 195.263 91.4885C190.872 99.1031 186.144 101.631 177.663 98.4127C169.182 95.1943 154.19 83.287 154.19 83.287Z" fill="#5F5F82"/>
<path d="M184.454 55.9434C181.824 57.5313 178.863 60.0735 178.863 60.0735C182.091 59.2106 190.013 58.5059 194.196 64.5916C192.791 65.0718 190.766 65.9196 190.766 65.9196C193.366 67.1582 197.581 70.0396 198.563 73.0956C191.232 70.1756 186.951 70.5432 178.424 70.5432C178.934 69.0091 182.598 65.1743 184.128 64.6647C179.028 64.153 170.056 67.6882 165.99 74.8683C161.973 82.5986 162.448 84.6475 165.407 91.4763C159.395 87.4212 154.19 83.29 154.19 83.29C154.19 83.29 150.292 54.8134 184.454 55.9434Z" fill="#5F5F82"/>
<path d="M177.613 57.6329C177.613 57.6329 159.915 57.4664 156.224 75.779C160.015 67.4293 165.624 58.9111 177.613 57.6329Z" fill="#F2FFEA"/>
<path d="M184.071 100.285C182.121 100.285 179.964 99.828 177.483 98.8868C169.028 95.6765 154.488 84.1754 153.871 83.686L153.705 83.5581L153.677 83.355C153.614 82.8981 152.23 72.0854 159.306 63.9529C164.246 58.2765 172.055 55.3992 182.495 55.3992C183.137 55.3992 183.791 55.4114 184.462 55.4327L186.185 55.4885L184.709 56.382C183.343 57.2357 182.028 58.169 180.772 59.177C181.65 59.0577 182.535 58.998 183.421 58.9984C186.868 58.9984 191.609 59.9192 194.622 64.3073L195.005 64.8626L194.367 65.0799C193.57 65.3593 192.78 65.6572 191.997 65.9734C194.958 67.6019 199.281 70.8548 199.281 74.3474V74.8165L198.816 74.8581C197.921 74.9383 196.98 75.0541 196.289 75.1424C198.19 77.2542 201.056 82.4666 195.704 91.7443C192.252 97.7304 188.771 100.285 184.071 100.285ZM154.675 83.0179C156.331 84.3216 170.012 94.9628 177.845 97.9294C180.208 98.8269 182.245 99.2564 184.071 99.2564C188.359 99.2564 191.573 96.8542 194.821 91.2214C200.598 81.2097 196.312 76.3952 194.858 75.1576L194.002 74.4266L195.115 74.2611C195.133 74.2611 196.667 74.0327 198.227 73.8753C197.793 70.8721 193.38 67.7166 190.548 66.3703L189.513 65.8728L190.569 65.4322C190.64 65.4018 192.084 64.8017 193.385 64.3266C190.613 60.7751 186.474 60.0136 183.421 60.0136C181.931 60.0097 180.447 60.1935 179.003 60.5609L176.84 61.1416L178.539 59.6796C178.641 59.5933 180.617 57.8998 182.781 56.4145C172.516 56.385 164.877 59.1242 160.1 64.6108C153.829 71.8021 154.522 81.5052 154.675 83.0179Z" fill="#000072"/>
<path d="M165.611 86.9856C165.611 86.9856 163.306 77.1434 171.389 73.9423C178.751 71.5188 186.566 74.9931 183.407 84.6129C180.248 94.2347 175.46 94.6825 175.46 94.6825L165.611 86.9856Z" fill="#5F5F82"/>
<path d="M172.177 78.8471C175.167 75.851 180.655 75.0083 183.862 78.4095C184.306 80.0685 184.222 82.1356 183.411 84.6058C180.25 94.2277 175.464 94.6744 175.464 94.6744L171.257 91.393C169.411 86.9237 168.341 82.3082 172.177 78.8471Z" fill="#75759A"/>
<path d="M175.31 95.2024L165.154 87.2771L165.112 87.1106C165.091 87.0081 162.812 76.7994 171.202 73.4672C172.705 72.9596 174.281 72.6956 175.867 72.6875C179.069 72.6875 181.765 73.8754 183.261 75.9486C184.369 77.4796 185.376 80.2625 183.891 84.7755C180.665 94.6014 175.72 95.172 175.512 95.1923L175.31 95.2024ZM166.07 86.6974L175.594 94.1303C176.467 93.911 180.271 92.514 182.92 84.4486C183.991 81.1946 183.821 78.4604 182.436 76.5395C181.132 74.7363 178.738 73.7008 175.867 73.7008C174.399 73.7097 172.941 73.953 171.55 74.4216C164.563 77.1943 165.826 85.406 166.07 86.6974Z" fill="#000072"/>
<path d="M77.2626 130.384C77.2626 130.384 50.4388 118.551 40.2961 149.886C42.812 148.122 46.332 146.444 46.332 146.444C44.2375 149.045 40.3824 156.016 44.2375 162.317C45.2426 161.224 46.8356 159.716 46.8356 159.716C46.9199 162.989 48.0935 169.036 51.2795 170.466C51.8686 169.415 52.483 168.379 53.1222 167.358C54.2106 171.053 58.3408 175.274 68.3352 174.203C77.0606 173.269 81.2862 169.961 81.7878 160.89C82.2893 151.821 77.2626 130.384 77.2626 130.384Z" fill="#5F5F82"/>
<path d="M40.2952 149.886C50.4399 118.551 77.2627 130.384 77.2627 130.384C77.2627 130.384 78.3673 135.095 79.4892 141.033C74.4067 138.739 68.6927 138.106 63.5147 140.701C57.9032 143.768 54.8442 148.88 54.8442 155.526C53.3121 153.993 52.8024 151.948 52.2918 149.903C49.3454 156.232 48.4844 163.951 51.4288 170.192C51.378 170.283 51.3272 170.373 51.2785 170.464C48.0936 169.035 46.9179 162.988 46.8356 159.716C46.8356 159.716 45.2416 161.225 44.2375 162.319C40.3815 156.015 44.2375 149.046 46.332 146.445C46.332 146.444 42.8121 148.122 40.2952 149.886Z" fill="#75759A"/>
<path d="M65.3086 174.881C57.0299 174.881 54.0318 170.798 53.0064 168.512C52.646 169.106 52.1576 169.923 51.722 170.712L51.4936 171.121L51.0682 170.93C47.8843 169.504 46.669 164.23 46.3877 160.855C45.7808 161.443 45.1877 162.046 44.609 162.662L44.1521 163.159L43.7998 162.584C40.5834 157.33 42.5073 151.443 44.7369 147.827C43.3064 148.571 41.9209 149.398 40.5874 150.305L39.3386 151.18L39.8097 149.726C45.7055 131.512 57.2117 127.682 65.8264 127.682C72.3242 127.682 77.2503 129.825 77.4636 129.916L77.6961 130.019L77.756 130.265C77.961 131.144 82.7948 151.875 82.2943 160.917C81.7968 169.823 77.9011 173.691 68.3859 174.708C67.364 174.821 66.3367 174.879 65.3086 174.881ZM53.2876 166.129L53.6084 167.211C54.1953 169.202 56.5172 173.857 65.3065 173.861C66.2983 173.858 67.2893 173.803 68.2752 173.695C77.2849 172.73 80.8089 169.252 81.2739 160.862C81.7369 152.497 77.3813 133.203 76.8189 130.759C73.3069 129.422 69.5832 128.726 65.8254 128.706C57.7741 128.706 47.0842 132.209 41.2535 148.641C42.8245 147.673 44.4447 146.787 46.1075 145.987L48.131 145.022L46.7238 146.769C44.3978 149.66 41.3854 155.904 44.3328 161.472C45.2902 160.477 46.4243 159.4 46.4852 159.349L47.3137 158.559L47.3411 159.705C47.4223 162.846 48.5097 168.167 51.0753 169.784C51.85 168.419 52.6774 167.105 52.6855 167.089L53.2876 166.129Z" fill="#000072"/>
<path d="M76.2534 145.217C76.2534 145.217 68.2072 139.12 62.0028 145.217C56.8076 150.978 56.8076 159.55 66.866 160.545C76.9234 161.541 79.2718 157.355 79.2718 157.355L76.2534 145.217Z" fill="#5F5F82"/>
<path d="M61.4718 149.903C65.138 146.229 71.4054 144.841 76.6402 146.772L79.2708 157.362C79.2708 157.362 76.9234 161.56 66.865 160.545C62.4495 160.102 59.9733 158.203 59.0229 155.724C59.4768 153.394 60.1601 151.223 61.4718 149.903Z" fill="#75759A"/>
<path d="M69.8399 161.22C68.8855 161.22 67.8662 161.167 66.8143 161.055C61.411 160.514 59.3378 157.962 58.5499 155.911C57.2991 152.658 58.5052 148.32 61.6262 144.861C63.5756 142.943 65.8661 141.983 68.456 141.983C72.7984 141.983 76.4027 144.68 76.56 144.803L76.7062 144.912L79.815 157.426L79.7155 157.604C79.6333 157.758 77.6078 161.22 69.8399 161.22ZM68.454 143.017C66.1361 143.017 64.0913 143.88 62.3603 145.581C59.5175 148.733 58.3865 152.658 59.5002 155.557C60.482 158.105 63.0456 159.658 66.9159 160.045C67.9332 160.145 68.916 160.197 69.8389 160.197C76.0829 160.197 78.2505 157.886 78.7196 157.264L75.8037 145.523C75.1102 145.042 71.9913 143.017 68.454 143.017Z" fill="#000072"/>
<path d="M137.766 188.776C137.766 188.776 121.685 191.57 132.08 213.945C138.784 227.578 142.137 235.306 142.137 238.832C142.137 242.357 142.137 274.359 166.024 284.943C183.375 292.502 210.534 283.684 222.352 263.777C231.655 246.643 229.895 217.413 204.749 202.798C192.176 192.973 163.32 173.239 137.766 188.776Z" fill="#5F5F82"/>
<path d="M159.812 207.129C160.322 207.641 163.564 211.631 171.023 214.098C163.372 216.655 147.771 219.004 141.563 216.872C135.289 214.715 133.402 203.07 139.523 198.981C144.625 195.402 149.726 193.868 153.806 191.823C158.675 189.656 163.408 187.199 167.142 183.848C173.625 185.054 179.836 187.457 185.443 190.292C179.713 191.993 174.056 193.91 168.603 197.446C164.009 200.512 159.812 204.091 159.812 207.129Z" fill="#75759A"/>
<path d="M179.874 288.141C174.707 288.141 169.982 287.223 165.828 285.414C143.373 275.467 141.62 247.245 141.62 238.833C141.62 235.237 137.793 226.721 131.616 214.17C127.728 205.807 127.025 199.151 129.515 194.373C132.005 189.595 136.8 188.447 137.575 188.291C143.86 184.467 151.082 182.464 158.438 182.503C172.475 182.503 188.154 189.188 205.034 202.376C219.693 210.908 225.05 223.323 226.964 232.239C229.282 243.058 227.729 254.94 222.795 264.025C214.232 278.455 196.986 288.141 179.874 288.141ZM158.442 183.524C151.242 183.487 144.175 185.457 138.033 189.214L137.95 189.263L137.858 189.28C137.806 189.28 132.832 190.217 130.419 194.861C128.093 199.34 128.806 205.688 132.543 213.729C140.003 228.896 142.642 235.463 142.642 238.833C142.642 247.089 144.344 274.781 166.227 284.476C170.25 286.23 174.836 287.117 179.866 287.118C196.632 287.118 213.527 277.634 221.909 263.517C230.251 248.153 230.494 218.356 204.491 203.242L204.433 203.202C187.73 190.146 172.25 183.524 158.442 183.524Z" fill="#000072"/>
<path d="M204.748 202.799C203.368 201.72 201.97 200.665 200.553 199.635C195.851 205.24 184.445 212.516 167.129 216.155C143.95 220.818 141.498 227.873 142.083 238.018C142.116 238.288 142.134 238.56 142.136 238.833C142.136 242.362 142.136 274.361 166.023 284.944C183.374 292.503 210.533 283.685 222.351 263.778C231.654 246.65 229.894 217.414 204.748 202.799Z" fill="#E5DCE5"/>
<path d="M187.48 241.92C183.398 252.145 186.458 263.901 177.788 271.57C170.645 278.726 159.931 273.103 155.34 265.432C147.928 253.199 141.267 234.619 149.357 222.131C153.153 219.808 158.804 217.817 167.128 216.148C184.445 212.51 195.851 205.234 200.552 199.629C201.969 200.659 203.368 201.714 204.748 202.793C211.493 206.713 216.552 211.686 220.17 217.194C207.863 223.578 193.206 228.052 187.48 241.92Z" fill="white"/>
<path d="M179.875 288.141C174.707 288.141 169.982 287.224 165.829 285.414C143.373 275.468 141.621 247.245 141.621 238.833C141.62 238.58 141.603 238.329 141.572 238.078C140.91 226.723 144.674 220.161 167.024 215.654C184.408 212.004 195.539 204.816 200.16 199.306L200.464 198.941L200.85 199.221C202.225 200.216 203.63 201.281 205.033 202.374C219.692 210.906 225.049 223.32 226.963 232.236C229.281 243.055 227.729 254.937 222.794 264.022C214.233 278.456 196.986 288.141 179.875 288.141ZM200.635 200.326C195.733 205.914 184.503 213.029 167.236 216.656C143.543 221.425 142.07 228.817 142.597 237.988C142.63 238.268 142.647 238.55 142.648 238.833C142.648 247.09 144.349 274.781 166.233 284.477C170.255 286.23 174.841 287.118 179.872 287.12C196.639 287.12 213.533 277.635 221.915 263.517C230.257 248.153 230.499 218.356 204.496 203.243L204.438 203.203C203.185 202.225 201.917 201.266 200.635 200.326Z" fill="#000072"/>
<path d="M158.692 206.332C158.692 206.332 177.003 219.347 197.119 211.619C207.012 207.083 223.941 190.936 224.948 166.589C236.683 162.4 245.232 159.21 244.227 151.27C243.222 143.332 237.877 131.677 228.888 130.398C224.676 129.917 208.939 140.646 207.848 150.141C206.508 158.332 192.551 170.126 190.54 177.922C183.255 175.486 171.5 175.451 154.995 183.017L158.692 206.332Z" fill="#5F5F82"/>
<path d="M155.606 191.001C162.519 187.775 168.92 183.802 172.351 177.288C180.085 175.853 186.127 176.445 190.536 177.918C192.548 170.121 206.505 158.329 207.844 150.138C208.936 140.646 224.673 129.917 228.884 130.395C237.872 131.677 243.217 143.336 244.224 151.267C245.23 159.2 233.83 160.061 222.095 164.253C221.088 188.599 206.214 199.104 196.323 203.639C182.369 208.999 168.747 208.099 161.708 207.045C160.047 206.81 160.333 206.766 158.705 206.36L155.606 191.001Z" fill="#5F5F82"/>
<path d="M183.507 214.61C169.304 214.61 158.672 206.315 158.672 206.315C158.856 206.441 177.303 218.673 196.929 211.127C207.028 206.496 223.449 190.286 224.431 166.552L224.444 166.206L224.775 166.092C237.121 161.683 244.643 158.612 243.719 151.326C242.738 143.585 237.464 132.129 228.818 130.897C224.755 130.429 209.419 140.953 208.359 150.186C207.628 154.652 203.358 160.051 199.227 165.27C195.654 169.783 191.962 174.449 191.036 178.045L190.9 178.575L190.383 178.408C185.175 176.67 173.682 175.016 155.208 183.485L154.785 182.554C172.186 174.577 183.583 175.216 190.199 177.275C191.358 173.587 194.797 169.24 198.428 164.65C202.477 159.533 206.666 154.241 207.35 150.06C208.487 140.139 224.549 129.388 228.947 129.896C238.661 131.28 243.783 143.706 244.736 151.212C245.801 159.613 236.85 162.889 225.445 166.961C224.302 190.962 207.629 207.369 197.336 212.087C192.922 213.775 188.233 214.63 183.507 214.61Z" fill="#000072"/>
<path d="M181.832 99.3446C175.225 92.7311 161.577 72.8153 137.989 77.8298C122.41 81.1396 111.815 87.215 107.074 90.4436C107.25 88.4994 108.03 87.1744 107.181 87.2699C106.05 87.3958 104.164 87.3958 101.523 91.0487C101.523 91.0487 101.271 86.8912 101.523 86.0109C98.1278 87.144 97.8811 89.2852 98.2699 93.3108C90.9853 86.6323 84.9271 94.0672 85.0529 96.7323C85.0529 96.7323 90.3324 92.5534 93.226 95.4531C94.3509 96.58 94.7053 97.9537 94.7154 99.2137C88.8426 104.225 83.5975 109.928 79.0942 116.198C64.9554 135.775 77.5855 156.348 80.939 165.081C84.2915 173.814 82.1127 190.951 99.5461 196.326C125.029 204.054 145.27 191.077 151.557 187.298C160.735 187.267 170.289 180.2 173.451 173.029C179.448 168.805 199.495 155.526 202.781 129.053C204.955 110.91 188.439 105.962 181.832 99.3446Z" fill="#CCCCE3"/>
<path d="M142.408 179.593C142.918 181.127 139.98 184.2 138.961 184.711C134.106 187.785 126.584 184.305 123.968 181.662C108.322 165.854 133.888 146.232 122.146 132.429C119.093 128.857 105.196 125.175 103.162 120.575C98.6608 110.737 103.824 99.4035 91.8645 90.6243C93.7722 90.5015 95.9612 91.1949 98.274 93.3169C97.8811 89.2862 98.1318 87.1439 101.527 86.017C101.275 86.8982 101.527 91.0558 101.527 91.0558C104.168 87.4059 106.054 87.4059 107.184 87.2759C108.034 87.1815 107.254 88.5054 107.079 90.4497C111.819 87.215 122.414 81.1396 137.993 77.8297C161.581 72.8163 175.228 92.7311 181.836 99.3436C188.443 105.957 204.959 110.91 202.791 129.06C199.505 155.533 179.458 168.812 173.462 173.036C172.37 175.511 170.52 177.971 168.183 180.137C159.817 187.285 149.916 185.237 142.408 179.593Z" fill="white"/>
<path d="M115.679 199.258C110.166 199.249 104.685 198.429 99.411 196.824C85.9565 192.676 83.9239 181.672 82.2893 172.832C81.7694 170.024 81.2801 167.372 80.4689 165.272C80.0292 164.129 79.4353 162.784 78.7449 161.238C74.3772 151.414 66.2468 133.126 78.6891 115.905C83.1676 109.666 88.3761 103.985 94.2036 98.9833C94.1407 97.7051 93.6909 96.6401 92.8634 95.8136C92.5739 95.5235 92.2276 95.2963 91.8463 95.146C91.4649 94.9958 91.0567 94.9258 90.6471 94.9405C88.1637 94.9405 85.396 97.1132 85.3696 97.1345L84.5889 97.7498L84.5432 96.7548C84.4924 95.6451 85.2935 94.0206 86.5382 92.7119C87.4784 91.7413 89.4653 90.0956 92.2797 90.0956C94.1011 90.0956 95.9012 90.7809 97.6586 92.1342C97.4535 88.999 97.881 86.6893 101.361 85.5247L102.28 85.2202L102.013 86.1502C101.891 86.5847 101.909 88.2071 101.965 89.6569C104.179 87.0629 105.877 86.8883 106.932 86.7827L107.116 86.7624C107.258 86.7343 107.406 86.7455 107.542 86.7947C107.678 86.8438 107.799 86.9292 107.891 87.0416C108.189 87.4162 108.069 87.934 107.891 88.7198C107.84 88.9406 107.791 89.162 107.745 89.3838C112.293 86.4273 122.714 80.558 137.878 77.3344C140.35 76.8021 142.871 76.5299 145.399 76.5222C161.873 76.5222 172.726 88.5706 179.208 95.7679C180.343 97.0289 181.324 98.1173 182.188 98.9833C183.776 100.572 185.996 102.097 188.349 103.709C195.749 108.793 204.96 115.117 203.288 129.12C200.075 155.011 180.701 168.582 174.335 173.041L173.862 173.373C170.739 180.286 161.445 187.711 151.702 187.806L151.206 188.109C145.698 191.45 132.792 199.258 115.679 199.258ZM90.6491 93.9242C91.193 93.9096 91.734 94.0062 92.2393 94.208C92.7445 94.4098 93.2032 94.7126 93.5873 95.0979C94.6595 96.171 95.2118 97.5548 95.2331 99.2138V99.4544L95.0504 99.6098C89.209 104.594 83.9921 110.267 79.5135 116.504C67.4154 133.249 75.0909 150.515 79.679 160.821C80.3744 162.385 80.9755 163.737 81.4242 164.906C82.2629 167.092 82.7614 169.789 83.2893 172.645C84.8732 181.215 86.8448 191.88 99.7054 195.844C104.882 197.422 110.264 198.227 115.676 198.234C132.505 198.234 145.239 190.532 150.678 187.241L151.42 186.793H151.56C160.711 186.764 170.029 179.548 172.99 172.831L173.048 172.701L173.754 172.204C180.029 167.807 199.122 154.433 202.28 128.997C203.879 115.61 194.948 109.479 187.774 104.554C185.385 102.911 183.125 101.362 181.471 99.7062C180.587 98.8229 179.598 97.7234 178.453 96.4533C172.084 89.3808 161.423 77.5395 145.403 77.5395C142.946 77.5472 140.496 77.8112 138.093 78.3274C121.916 81.7702 111.214 88.2427 107.365 90.8661L106.47 91.4723L106.568 90.3961C106.633 89.7534 106.743 89.1168 106.899 88.4894C106.953 88.2569 107.015 87.9919 107.043 87.798C105.95 87.9076 104.302 88.0761 101.936 91.3484L101.108 92.5089L101.021 91.0824C100.987 90.5281 100.856 88.2163 100.927 86.7938C98.6932 87.8091 98.4171 89.5148 98.7846 93.2642L98.9125 94.5912L97.9317 93.6927C96.0697 91.9819 94.1691 91.1159 92.2868 91.1159C89.846 91.1159 88.1038 92.5607 87.2845 93.4237C86.6754 94.0504 86.1827 94.7807 85.8296 95.5801C86.9616 94.8796 88.8328 93.9242 90.6491 93.9242Z" fill="#000072"/>
<path d="M153.279 96.5274C153.279 96.5274 144.766 96.1954 139.673 99.2981C137.03 100.604 143.44 89.2539 153.279 96.5274Z" fill="#202020"/>
<path d="M139.314 99.9153C139.204 99.9174 139.096 99.8951 138.996 99.85C138.897 99.8048 138.808 99.738 138.738 99.6544C138.62 99.5011 138.558 99.3117 138.564 99.1183C138.564 97.6908 141.768 93.5647 146.718 93.5647C148.98 93.5647 151.288 94.4216 153.582 96.1141L154.919 97.1091L153.263 97.0431C153.263 97.0431 152.992 97.0329 152.531 97.0329C150.617 97.0329 144.054 97.2289 139.948 99.7407C139.754 99.8497 139.536 99.9097 139.314 99.9153ZM146.718 94.5861C143.573 94.5861 141.489 96.4613 140.738 97.2664C140.336 97.6837 139.997 98.1566 139.73 98.6706C143.448 96.5354 148.713 96.0897 151.577 96.0166C149.936 95.0663 148.306 94.5861 146.718 94.5861Z" fill="#0C0C0C"/>
<path d="M169.195 110.08C169.195 110.08 149.107 102.435 140.843 115.301C135.283 124.958 143.951 133.958 157.435 136.645C167.802 138.496 177.102 148.144 184.516 136.371C191.931 124.599 179.953 110.636 169.195 110.08Z" fill="#000072"/>
<path d="M168.201 109.588C168.201 109.588 149.043 102.298 141.163 114.565C135.864 123.772 144.127 132.355 156.984 134.916C166.871 136.684 175.739 145.882 182.812 134.656C189.884 123.429 178.457 110.119 168.201 109.588Z" fill="#5F5F82"/>
<path d="M140.423 117.893C140.64 117.38 140.886 116.882 141.163 116.399C147.229 106.961 159.96 109.099 165.512 110.593C156.591 110.18 146.896 111.548 140.423 117.893Z" fill="#F2FFEA"/>
<path d="M175.644 142.627C172.514 142.627 169.262 141.311 165.819 139.917C163.075 138.812 160.241 137.666 157.344 137.153C148.682 135.427 142.064 131.18 139.628 125.805C138.069 122.356 138.335 118.638 140.401 115.051C143.7 109.908 149.121 107.32 156.534 107.32C162.957 107.32 168.557 109.311 169.302 109.58C175.506 109.936 182.091 114.557 185.337 120.828C188.12 126.208 187.986 131.829 184.947 136.648C182.367 140.73 179.413 142.627 175.644 142.627ZM156.529 108.337C149.488 108.337 144.351 110.774 141.266 115.577C139.385 118.847 139.133 122.241 140.553 125.377C142.852 130.458 149.197 134.484 157.529 136.144C160.524 136.679 163.41 137.846 166.199 138.976C169.549 140.33 172.713 141.612 175.636 141.612C179.022 141.612 181.703 139.861 184.081 136.099C186.915 131.598 187.038 126.339 184.429 121.292C181.326 115.295 175.051 110.897 169.167 110.591L169.013 110.559C168.952 110.536 163.089 108.337 156.529 108.337Z" fill="#000072"/>
<path d="M154.706 132.456C156.523 133.265 158.54 133.515 160.499 133.175C162.459 132.835 164.273 131.92 165.711 130.547C167.152 129.172 168.153 127.401 168.589 125.458C169.026 123.516 168.877 121.487 168.163 119.628C167.448 117.77 166.199 116.166 164.574 115.017C162.95 113.87 161.021 113.231 159.034 113.181C157.046 113.132 155.088 113.674 153.409 114.739C151.728 115.805 150.401 117.345 149.595 119.165C148.515 121.607 148.446 124.378 149.405 126.871C150.362 129.362 152.269 131.371 154.706 132.456Z" fill="black"/>
<path d="M155.215 132.682C156.932 133.446 158.837 133.683 160.688 133.363C162.54 133.042 164.254 132.178 165.614 130.881C166.977 129.584 167.925 127.911 168.338 126.075C168.751 124.239 168.61 122.321 167.934 120.565C167.259 118.81 166.079 117.293 164.544 116.208C163.009 115.123 161.187 114.519 159.309 114.472C157.431 114.425 155.581 114.937 153.994 115.943C152.673 116.78 151.578 117.93 150.808 119.291C150.037 120.652 149.614 122.182 149.576 123.746C149.529 125.626 150.039 127.478 151.042 129.068C152.046 130.658 153.498 131.916 155.215 132.682Z" fill="#DDDBDB"/>
<path d="M149.7 122.479C150.01 120.519 150.927 118.704 152.321 117.291C153.715 115.878 155.516 114.936 157.472 114.598C158.769 114.376 160.099 114.426 161.376 114.746C162.653 115.066 163.849 115.649 164.889 116.457C165.929 117.267 166.79 118.283 167.417 119.443C168.044 120.602 168.423 121.879 168.53 123.193C168.639 124.507 168.473 125.83 168.043 127.076C162.129 130.683 153.538 128.028 149.7 122.479Z" fill="white"/>
<path d="M159.061 134.014C156.903 134.014 154.802 133.316 153.074 132.024C151.344 130.73 150.078 128.912 149.465 126.841C148.85 124.768 148.92 122.553 149.665 120.524C150.408 118.496 151.787 116.762 153.596 115.581C155.403 114.401 157.543 113.838 159.697 113.976C161.85 114.114 163.902 114.945 165.544 116.346C167.187 117.749 168.334 119.644 168.815 121.751C169.296 123.858 169.084 126.064 168.212 128.041C167.436 129.823 166.156 131.338 164.528 132.4C162.903 133.462 161.002 134.023 159.061 134.014ZM159.072 114.976C156.849 114.974 154.704 115.797 153.053 117.286C151.4 118.777 150.356 120.826 150.123 123.039C149.89 125.253 150.483 127.475 151.789 129.277C153.091 131.079 155.016 132.334 157.191 132.797C159.365 133.261 161.635 132.9 163.559 131.786C165.484 130.672 166.929 128.883 167.614 126.767C168.3 124.648 168.179 122.351 167.275 120.316C166.371 118.284 164.747 116.658 162.715 115.753C161.568 115.242 160.327 114.977 159.072 114.976Z" fill="black"/>
<path d="M156.378 130.888C157.541 131.406 158.831 131.567 160.085 131.349C161.339 131.132 162.5 130.547 163.42 129.668C164.342 128.788 164.982 127.656 165.262 126.413C165.541 125.17 165.446 123.872 164.99 122.683C164.534 121.494 163.736 120.467 162.696 119.733C161.656 118.998 160.421 118.589 159.148 118.557C157.877 118.526 156.624 118.873 155.55 119.554C154.292 120.352 153.349 121.562 152.883 122.977C152.416 124.392 152.454 125.924 152.989 127.315C153.601 128.908 154.82 130.193 156.378 130.888Z" fill="#000072"/>
<path d="M158.982 131.954C157.235 131.952 155.552 131.292 154.27 130.105C152.988 128.918 152.201 127.291 152.066 125.549C151.971 124.349 152.189 123.144 152.699 122.053C153.209 120.961 153.992 120.021 154.973 119.322C155.993 118.6 157.189 118.166 158.435 118.067C159.68 117.967 160.93 118.207 162.051 118.759C163.173 119.313 164.124 120.16 164.805 121.21C165.486 122.259 165.871 123.473 165.919 124.724C165.956 125.659 165.804 126.591 165.472 127.466C165.141 128.34 164.636 129.139 163.988 129.814C163.34 130.489 162.563 131.026 161.703 131.394C160.843 131.762 159.917 131.952 158.982 131.954ZM158.982 119.063C157.625 119.063 156.309 119.53 155.255 120.385C154.2 121.243 153.471 122.436 153.189 123.766C152.907 125.097 153.09 126.483 153.707 127.695C154.324 128.905 155.338 129.868 156.579 130.421C157.575 130.864 158.675 131.022 159.756 130.879C160.837 130.736 161.858 130.296 162.705 129.609C163.493 128.969 164.103 128.138 164.479 127.195C164.854 126.252 164.981 125.228 164.848 124.222C164.715 123.215 164.327 122.26 163.72 121.447C163.112 120.633 162.307 119.989 161.38 119.575C160.627 119.24 159.813 119.068 158.989 119.069L158.982 119.063Z" fill="#003B80" fill-opacity="0.1"/>
<path d="M173.585 173.899L172.687 173.415C174.225 170.55 172.763 166.816 172.748 166.778C172.746 166.78 175.347 170.618 173.585 173.899Z" fill="#736E73"/>
<path d="M89.9627 137.792C89.9627 137.792 93.1091 129.853 98.0058 126.452C100.27 124.562 87.3148 125.821 89.9627 137.792Z" fill="#202020"/>
<path d="M89.8155 139.527L89.4581 137.901C88.4246 133.221 89.7759 130.281 91.0927 128.64C93.0969 126.136 96.0148 125.229 97.485 125.229C98.1733 125.229 98.5957 125.428 98.7368 125.819C98.8241 126.059 98.8241 126.432 98.3286 126.845C93.5761 130.144 90.4561 137.901 90.4297 137.982L89.8155 139.527ZM97.4037 126.254C96.1488 126.287 93.6188 127.122 91.8887 129.283C90.4612 131.062 89.8886 133.325 90.1779 136.023C91.3425 133.564 93.8919 128.857 97.4098 126.253L97.4037 126.254Z" fill="#0C0C0C"/>
<path d="M95.8677 157.866C95.8677 157.866 97.0434 136.363 112.13 134.011C123.194 132.836 127.888 144.427 124.878 157.866C122.356 168.112 127.381 180.543 113.639 182.557C99.8974 184.572 92.0137 167.944 95.8677 157.866Z" fill="#75759A"/>
<path d="M97.5113 156.547C97.5113 156.547 98.621 136.228 112.878 134.005C123.331 132.895 127.767 143.848 124.916 156.547C122.54 166.229 127.292 177.975 114.303 179.879C101.315 181.784 93.8695 166.069 97.5113 156.547Z" fill="#5F5F82"/>
<path d="M109.457 135.708C110.302 135.416 111.171 135.199 112.053 135.061C122.509 133.951 126.945 144.904 124.094 157.601C123.806 158.805 123.605 160.028 123.493 161.261C123.131 160.428 122.925 159.535 122.885 158.628C124.33 141.196 119.568 137.241 109.457 135.708Z" fill="#F2FFEA"/>
<path d="M111.374 183.238C106.187 183.238 101.523 180.604 98.2435 175.826C94.4981 170.368 93.3437 163.118 95.3601 157.754C95.4667 156.278 97.2079 135.819 112.048 133.506C112.578 133.448 113.111 133.419 113.644 133.418C117.299 133.418 120.401 134.883 122.614 137.657C126.189 142.136 127.217 149.729 125.364 157.976C124.659 160.854 124.557 163.916 124.455 166.877C124.202 174.428 123.959 181.561 113.708 183.063C112.936 183.179 112.155 183.237 111.374 183.238ZM113.644 134.44C113.154 134.44 112.666 134.467 112.178 134.519C97.7034 136.777 96.3855 157.681 96.3744 157.89L96.3409 158.046C94.4017 163.117 95.5033 170.028 99.0842 175.244C102.624 180.404 107.859 182.884 113.561 182.046C122.97 180.666 123.185 174.248 123.436 166.836C123.536 163.823 123.643 160.697 124.371 157.736C126.154 149.797 125.198 142.525 121.819 138.289C119.804 135.772 116.979 134.44 113.644 134.44Z" fill="#000072"/>
<path d="M122.147 153.59C122.147 155.6 121.552 157.563 120.44 159.233C119.327 160.902 117.744 162.203 115.891 162.972C114.039 163.741 112.001 163.942 110.034 163.55C108.068 163.158 106.262 162.19 104.847 160.77C103.428 159.349 102.463 157.539 102.072 155.57C101.681 153.6 101.882 151.559 102.651 149.704C103.417 147.849 104.716 146.263 106.384 145.146C108.333 143.842 110.675 143.255 113.008 143.486C115.342 143.716 117.523 144.75 119.18 146.41C121.08 148.316 122.147 150.898 122.147 153.59Z" fill="#000072"/>
<path d="M122.149 154.227C122.15 156.109 121.593 157.949 120.549 159.515C119.508 161.079 118.025 162.298 116.29 163.019C114.554 163.739 112.644 163.929 110.8 163.562C108.957 163.196 107.264 162.289 105.937 160.958C104.608 159.626 103.703 157.93 103.336 156.084C102.97 154.238 103.159 152.325 103.879 150.586C104.598 148.848 105.815 147.362 107.378 146.316C109.204 145.093 111.398 144.543 113.585 144.759C115.772 144.975 117.816 145.944 119.367 147.5C121.149 149.285 122.149 151.705 122.149 154.227Z" fill="#DDDBDB"/>
<path d="M104.294 149.713C104.954 148.484 105.875 147.416 106.994 146.583C108.112 145.75 109.4 145.174 110.766 144.895C112.826 144.474 114.967 144.751 116.853 145.681C118.739 146.611 120.262 148.141 121.183 150.031C121.796 151.285 122.126 152.659 122.15 154.055C122.174 155.451 121.891 156.835 121.322 158.109C120.753 159.383 119.91 160.516 118.854 161.427C111.464 162.411 104.823 157.18 104.294 149.713Z" fill="white"/>
<path d="M112.654 164.257C110.675 164.257 108.74 163.668 107.096 162.566C105.449 161.464 104.167 159.898 103.41 158.067C102.653 156.234 102.455 154.219 102.841 152.275C103.227 150.33 104.18 148.543 105.579 147.139C106.977 145.738 108.76 144.783 110.701 144.396C112.642 144.009 114.654 144.207 116.483 144.964C118.313 145.724 119.876 147.009 120.975 148.657C122.074 150.307 122.661 152.245 122.662 154.228C122.66 156.885 121.605 159.434 119.728 161.316C118.8 162.246 117.697 162.985 116.484 163.49C115.27 163.994 113.969 164.255 112.654 164.257ZM112.654 145.224C110.876 145.226 109.138 145.755 107.66 146.744C106.182 147.734 105.031 149.14 104.352 150.784C103.672 152.429 103.494 154.239 103.841 155.986C104.188 157.732 105.044 159.337 106.301 160.598C107.557 161.856 109.158 162.713 110.902 163.06C112.645 163.408 114.453 163.23 116.095 162.549C117.738 161.866 119.141 160.712 120.128 159.231C121.115 157.749 121.642 156.008 121.642 154.228C121.639 151.842 120.691 149.553 119.006 147.864C118.173 147.028 117.183 146.365 116.093 145.912C115.003 145.459 113.835 145.225 112.654 145.224Z" fill="#000072"/>
<path d="M113.643 161.005C117.195 160.992 120.063 158.096 120.05 154.538C120.036 150.979 117.147 148.104 113.595 148.117C110.044 148.13 107.176 151.026 107.189 154.584C107.202 158.143 110.092 161.018 113.643 161.005Z" fill="#000072"/>
<path opacity="0.2" d="M113.614 161.521C112.24 161.519 110.897 161.111 109.755 160.346C108.613 159.582 107.723 158.496 107.198 157.226C106.673 155.954 106.536 154.556 106.804 153.206C107.072 151.857 107.733 150.617 108.705 149.643C109.676 148.671 110.914 148.008 112.261 147.74C113.27 147.54 114.31 147.566 115.307 147.817C116.304 148.068 117.233 148.538 118.027 149.191C118.82 149.845 119.458 150.667 119.896 151.597C120.333 152.528 120.558 153.544 120.554 154.572C120.549 156.414 119.816 158.179 118.515 159.482C117.216 160.784 115.453 161.517 113.614 161.521ZM113.614 148.633C112.442 148.632 111.297 148.98 110.323 149.632C109.349 150.284 108.591 151.21 108.145 152.294C107.81 153.103 107.658 153.977 107.701 154.852C107.743 155.727 107.979 156.582 108.391 157.355C108.803 158.129 109.381 158.801 110.084 159.325C110.786 159.848 111.596 160.21 112.454 160.384C113.603 160.612 114.793 160.495 115.875 160.047C116.957 159.599 117.882 158.84 118.533 157.867C119.13 156.974 119.473 155.936 119.527 154.864C119.58 153.792 119.342 152.725 118.837 151.777C118.332 150.83 117.58 150.037 116.66 149.483C115.74 148.929 114.687 148.635 113.614 148.633Z" fill="#003B80"/>
<path d="M151.821 187.785C148.333 187.785 146.146 184.112 146.146 184.112C146.175 184.14 148.991 186.99 152.226 186.746L152.302 187.767C152.14 187.78 151.979 187.785 151.821 187.785Z" fill="#736E73"/>
<path d="M164.361 167.337C163.809 163.302 163.951 155.991 163.951 155.991L150.311 161.67L139.88 171.681C139.88 171.681 146.605 174.516 150.064 176.659C151.967 177.837 157.633 179.419 161.087 177.038C164.768 174.495 164.609 169.151 164.361 167.337Z" fill="#470000"/>
<path d="M143.118 168.569L139.872 171.681C139.872 171.681 146.597 174.516 150.056 176.658C151.742 177.703 156.378 179.057 159.814 177.698C154.623 177.524 150.484 172.504 145.732 169.328C145.19 168.787 144.216 168.535 143.118 168.569Z" fill="#650000"/>
<path d="M149.398 176.263C149.629 176.398 149.852 176.529 150.061 176.658C151.963 177.837 157.63 179.418 161.084 177.037C162.867 175.807 163.749 173.918 164.156 172.092C156.079 169.436 151.348 173.753 149.398 176.263Z" fill="#FE6969"/>
<path d="M161.128 171.387C154.88 170.548 151.09 174.085 149.395 176.264C149.625 176.398 149.848 176.529 150.058 176.658C150.898 177.138 151.8 177.502 152.738 177.741C157.016 178.773 161.251 176.069 161.128 171.387Z" fill="#FE8C8C"/>
<path d="M156.517 178.795C153.895 178.795 151.149 177.942 149.791 177.101C149.577 176.969 149.361 176.839 149.144 176.713L148.637 176.419L148.998 175.956C150.51 174.014 153.856 170.757 159.281 170.757C160.994 170.774 162.694 171.064 164.316 171.615L164.755 171.759L164.655 172.214C164.131 174.559 163.027 176.328 161.373 177.469C160.087 178.34 158.454 178.795 156.517 178.795ZM150.167 176.14L150.332 176.238C151.54 176.985 154.117 177.78 156.523 177.78C158.255 177.78 159.695 177.393 160.8 176.631C162.124 175.715 163.051 174.308 163.552 172.452C162.17 172.024 160.733 171.8 159.286 171.788C154.684 171.77 151.698 174.315 150.162 176.126L150.167 176.14Z" fill="#7F3535"/>
<path d="M156.518 178.795C153.896 178.795 151.15 177.942 149.792 177.101C146.408 175.006 139.747 172.19 139.679 172.162L138.964 171.86L150.032 161.242L164.481 155.225L164.464 156.008C164.464 156.08 164.332 163.325 164.87 167.274C164.971 168.003 165.718 174.472 161.372 177.468C160.088 178.341 158.455 178.795 156.518 178.795ZM140.789 171.525C142.62 172.316 147.506 174.483 150.328 176.232C151.536 176.978 154.113 177.773 156.518 177.773C158.25 177.773 159.689 177.386 160.794 176.625C164.634 173.97 163.948 168.079 163.858 167.414C163.408 164.121 163.413 158.772 163.435 156.768L150.593 162.105L140.789 171.525Z" fill="#736E73"/>
<path d="M237.022 242.192C237.022 242.192 251.27 226.738 260.826 224.723C270.383 222.707 274.9 220.354 276.082 214.812C277.263 209.268 274.572 192.471 263.167 191.125C258.977 190.296 259.719 195.134 254.954 197.342C248.249 200.449 202.98 211.367 196.113 232.618C188.233 245.891 179.7 272.555 196.799 284.46C200.351 286.583 226.126 279.485 237.022 242.192Z" fill="#75759A"/>
<path d="M238.08 235.425C238.08 235.425 250.488 223.829 260.044 221.821C269.601 219.813 274.905 220.362 276.081 214.82C277.256 209.277 274.571 192.479 263.167 191.133C258.976 190.304 259.718 195.142 254.953 197.35C248.248 200.458 202.979 211.376 196.112 232.626C188.232 245.899 184.765 262.718 199.646 273.064C206.52 276.817 227.183 272.718 238.08 235.425Z" fill="#5F5F82"/>
<path d="M198.57 285.306C197.682 285.306 197.002 285.168 196.546 284.895C188.865 279.548 185.431 270.599 186.59 258.995C187.44 250.483 190.828 240.545 195.654 232.401C201.429 214.71 232.889 204.275 248.015 199.26C251.127 198.227 253.584 197.411 254.748 196.874C256.784 195.929 257.749 194.473 258.602 193.187C259.515 191.812 260.378 190.513 262.277 190.513C262.611 190.516 262.944 190.553 263.271 190.621C266.809 191.036 269.82 192.927 272.191 196.233C276.33 202.023 277.415 210.953 276.579 214.913C275.279 221.051 269.855 223.334 260.928 225.219C252.001 227.103 238.636 241.208 237.478 242.453C232.148 260.604 223.437 270.947 217.061 276.429C209.921 282.567 202.628 285.306 198.57 285.306ZM262.276 191.537C260.922 191.537 260.305 192.468 259.449 193.755C258.569 195.082 257.473 196.741 255.175 197.801C253.958 198.365 251.6 199.147 248.337 200.23C233.351 205.207 202.174 215.54 196.603 232.77L196.559 232.874C187.981 247.319 181.051 272.857 197.097 284.037C197.234 284.116 197.651 284.286 198.568 284.286C206.595 284.286 227.298 273.65 236.533 242.045L236.567 241.929L236.648 241.841C237.234 241.205 251.118 226.246 260.722 224.217C270.776 222.097 274.525 219.694 275.584 214.7C276.383 210.921 275.342 202.382 271.367 196.83C269.172 193.766 266.4 192.02 263.116 191.63C262.837 191.572 262.553 191.543 262.269 191.542L262.276 191.537Z" fill="#000072"/>
<path d="M236.872 244.409L235.904 244.097C235.937 243.99 239.315 233.354 239.315 224.47C239.315 224.47 241.074 231.271 236.872 244.409Z" fill="#000072"/>
<path d="M196.324 182.403C194.445 179.284 188.231 177.795 188.17 177.779L188.402 176.783C194.746 178.148 196.324 182.403 196.324 182.403Z" fill="#181618"/>
<path d="M207.018 108.751C207.018 108.751 202.051 112.088 202.238 114.105C202.429 115.68 207.834 116.562 207.834 116.562L207.018 108.751Z" fill="#AAA9A9"/>
<path d="M207.018 108.751C207.018 108.751 202.051 112.088 202.238 114.105C202.429 115.68 207.52 113.558 207.52 113.558L207.018 108.751Z" fill="#CECCCC"/>
<path d="M208.405 117.174L207.742 117.066C206.384 116.846 201.939 115.981 201.721 114.167C201.515 111.946 205.86 108.912 206.723 108.327L207.424 107.854L208.405 117.174ZM206.594 109.669C204.752 111.026 202.643 113.013 202.741 114.057C202.817 114.684 205.058 115.502 207.25 115.936L206.594 109.669Z" fill="#000072"/>
<path d="M208.585 117.948C208.585 117.948 205.065 120.405 205.315 122.988C205.441 124.058 211.162 122.988 211.162 122.988L208.585 117.948Z" fill="#AAA9A9"/>
<path d="M208.585 117.948C208.585 117.948 205.065 120.405 205.315 122.988C205.441 124.058 210.031 120.774 210.031 120.774L208.585 117.948Z" fill="#CECCCC"/>
<path d="M206.884 123.975C206.295 123.975 204.916 123.975 204.807 123.047C204.528 120.189 208.136 117.635 208.283 117.528L208.762 117.196L211.916 123.365L211.245 123.491C211.154 123.51 208.644 123.975 206.884 123.975ZM205.813 122.831C205.917 122.873 206.201 122.952 206.884 122.952C208.059 122.918 209.231 122.8 210.39 122.599L208.403 118.727C207.532 119.448 205.73 121.141 205.813 122.831Z" fill="#000072"/>
<path d="M212.226 123.869C212.226 123.869 210.026 127.145 210.026 128.594C210.026 130.042 216.672 127.266 216.672 127.266L212.226 123.869Z" fill="#AAA9A9"/>
<path d="M212.226 123.869C212.226 123.869 210.026 127.145 210.026 128.594C210.026 130.042 214.297 125.62 214.297 125.62L212.226 123.869Z" fill="#CECCCC"/>
<path d="M210.767 129.521C209.608 129.521 209.519 128.809 209.519 128.59C209.519 127.031 211.573 123.929 211.807 123.581L212.11 123.131L217.688 127.399L216.871 127.731C216.698 127.815 212.58 129.521 210.767 129.521ZM210.544 128.482C210.617 128.495 210.692 128.5 210.767 128.5C211.855 128.5 214.201 127.684 215.65 127.127L212.358 124.607C211.59 125.824 210.624 127.605 210.544 128.486V128.482Z" fill="#000072"/>
<path d="M218.138 127.776C218.138 127.776 216.064 129.918 215.749 132.247C215.561 133.318 222.359 129.332 222.359 129.332L218.138 127.776Z" fill="#AAA9A9"/>
<path d="M218.14 127.776C218.14 127.776 216.066 129.918 215.751 132.247C215.563 133.318 219.679 128.341 219.679 128.341L218.14 127.776Z" fill="#CECCCC"/>
<path d="M215.954 132.942C215.847 132.948 215.74 132.93 215.641 132.888C215.542 132.846 215.454 132.783 215.383 132.702C215.321 132.627 215.276 132.54 215.253 132.446C215.229 132.352 215.227 132.254 215.247 132.159C215.579 129.71 217.682 127.514 217.772 127.419L218.004 127.181L223.55 129.227L222.618 129.775C221.712 130.303 217.151 132.942 215.954 132.942ZM218.291 128.375C217.822 128.921 216.727 130.313 216.353 131.832C217.26 131.535 219.241 130.525 221.163 129.435L218.291 128.375Z" fill="#000072"/>
<path d="M268.118 230.77C268.118 230.77 260.005 231.268 259.316 233.227C258.876 234.677 265.664 235.999 265.664 235.999L268.118 230.77Z" fill="#AAA9A9"/>
<path d="M268.119 230.77C268.119 230.77 260.006 231.268 259.317 233.227C258.877 234.677 266.682 233.393 266.682 233.393L268.119 230.77Z" fill="#CECCCC"/>
<path d="M265.956 236.576L265.566 236.501C264.607 236.314 259.782 235.31 258.945 233.913C258.866 233.792 258.814 233.655 258.793 233.512C258.773 233.369 258.784 233.223 258.825 233.084C259.599 230.9 266.673 230.355 268.085 230.263L268.942 230.211L265.956 236.576ZM267.28 231.344C263.777 231.648 260.123 232.467 259.791 233.398C259.919 233.87 262.524 234.826 265.369 235.418L267.28 231.344Z" fill="#000072"/>
<path d="M264.218 238.77C264.218 238.77 258.561 240.097 257.992 240.595C257.425 241.093 262.312 244.817 263.704 245.13C263.969 242.929 264.218 238.77 264.218 238.77Z" fill="#AAA9A9"/>
<path d="M264.217 238.77C264.217 238.77 258.56 240.097 257.992 240.595C257.424 241.093 262.396 242.348 263.787 242.663C264.05 240.46 264.217 238.77 264.217 238.77Z" fill="#CECCCC"/>
<path d="M264.145 245.756L263.594 245.631C262.176 245.313 257.761 242.059 257.467 240.905C257.431 240.783 257.43 240.654 257.464 240.532C257.497 240.41 257.565 240.3 257.658 240.214C258.257 239.682 262.365 238.68 264.103 238.273L264.765 238.108L264.725 238.793C264.725 238.836 264.469 242.99 264.209 245.185L264.145 245.756ZM258.58 240.856C259.216 241.687 261.859 243.731 263.269 244.422C263.434 242.788 263.6 240.543 263.663 239.427C261.536 239.939 259.357 240.536 258.58 240.856Z" fill="#000072"/>
<path d="M263.704 246.77C263.704 246.77 258.972 248.66 257.948 249.102C257.176 249.544 263.211 254.393 264.782 254.015C264.343 251.054 263.704 246.77 263.704 246.77Z" fill="#AAA9A9"/>
<path d="M263.705 246.77C263.705 246.77 258.973 248.66 257.949 249.102C257.177 249.544 262.74 251.218 264.311 250.839L263.705 246.77Z" fill="#CECCCC"/>
<path d="M264.591 254.549C262.68 254.549 257.71 250.606 257.398 249.431C257.353 249.287 257.358 249.133 257.413 248.992C257.467 248.852 257.567 248.734 257.697 248.658L257.748 248.631C258.766 248.194 263.321 246.373 263.517 246.295L264.116 246.056L265.357 254.403L264.902 254.513C264.8 254.536 264.696 254.548 264.591 254.549ZM258.526 249.414C259.281 250.433 262.624 253.004 264.186 253.456L263.294 247.483C262.149 247.945 259.647 248.948 258.526 249.414Z" fill="#000072"/>
<path d="M265.097 254.897C265.097 254.897 261.076 256.472 260.129 256.849C259.184 257.226 266.037 260.756 268.115 260.125C267.171 258.046 265.097 254.897 265.097 254.897Z" fill="#AAA9A9"/>
<path d="M265.095 254.897C265.095 254.897 261.074 256.472 260.128 256.849C259.183 257.226 264.496 258.354 266.57 257.724C265.624 255.646 265.095 254.897 265.095 254.897Z" fill="#CECCCC"/>
<path d="M267.516 260.712C265.273 260.712 259.756 258.2 259.541 257.08C259.512 256.935 259.536 256.784 259.609 256.654C259.682 256.525 259.799 256.426 259.939 256.376C260.884 255.997 264.905 254.419 264.905 254.419L265.289 254.27L265.518 254.615C265.602 254.745 267.623 257.823 268.573 259.914L268.814 260.445L268.258 260.611C268.017 260.681 267.767 260.715 267.516 260.712ZM260.855 257.111C261.981 257.922 265.431 259.579 267.334 259.684C266.552 258.145 265.381 256.282 264.892 255.525C264.036 255.861 261.965 256.671 260.855 257.111Z" fill="#000072"/>
<path d="M120.51 59.2583C120.51 59.2583 119.671 62.4503 117.575 62.2808C115.479 62.1122 115.011 59.243 116.21 57.7384C117.408 56.2337 120.326 52.8833 122.187 50.3563C123.862 48.0769 143.894 23.6452 184.127 30.9542C174.321 30.4496 135.596 27.3418 120.51 59.2583Z" fill="#7B8C00"/>
<path d="M120.512 59.2573C120.512 59.2573 119.674 62.4504 117.578 62.2809C115.482 62.1123 117.072 59.5619 118.27 58.0573C119.469 56.5526 121.325 53.7139 123.184 51.1848C124.859 48.9055 143.896 23.6452 184.13 30.9533C174.324 30.4487 135.598 27.3409 120.512 59.2573Z" fill="#9BB801"/>
<path d="M117.733 62.8006H117.533C117.051 62.7619 116.59 62.5882 116.202 62.2995C115.814 62.0107 115.516 61.6186 115.341 61.1681C115.087 60.5562 114.996 59.8888 115.078 59.2314C115.161 58.574 115.412 57.9492 115.809 57.4186C116.199 56.9211 116.769 56.246 117.425 55.4591C118.806 53.8001 120.525 51.7482 121.773 50.0507C122.403 49.1948 137.566 29.082 169.527 29.082C174.455 29.0983 179.371 29.5552 184.217 30.4486L184.1 31.4608L183.154 31.4131C181.119 31.3004 178.333 31.1491 174.958 31.1491C148.419 31.1491 129.76 40.9375 120.985 59.436C120.866 59.8705 119.951 62.8006 117.733 62.8006ZM169.527 30.1054C138.069 30.1054 122.746 50.4538 122.594 50.6578C121.327 52.3747 119.596 54.454 118.208 56.118C117.557 56.8978 116.993 57.5729 116.606 58.0593C116.325 58.4446 116.146 58.8955 116.089 59.3691C116.031 59.8427 116.095 60.3232 116.275 60.765C116.378 61.0433 116.559 61.2862 116.796 61.4648C117.033 61.6435 117.316 61.7505 117.612 61.7732C119.25 61.9051 120.005 59.1558 120.013 59.1294L120.046 59.039C128.697 40.7385 146.752 30.7857 172.364 30.1582C171.419 30.1231 170.473 30.1055 169.527 30.1054Z" fill="#5F6600"/>
<path d="M136.855 39.52C136.855 39.52 136.413 43.7416 144.333 50.1663C152.255 56.593 165.955 62.5751 172.937 59.9942C174.384 59.3648 157.539 41.4724 136.855 39.52Z" fill="#76930A"/>
<path d="M136.855 39.52C136.855 39.52 138.482 41.8684 146.402 48.2941C154.324 54.7188 165.954 62.5751 172.936 59.9932C174.383 59.3637 157.538 41.4724 136.855 39.52Z" fill="#81A70F"/>
<path d="M169.032 61.1202C161.232 61.1202 150.322 55.6803 144.014 50.5633C135.968 44.038 136.328 39.65 136.346 39.4672L136.399 38.9697L136.895 39.0164C156.298 40.8409 173.07 56.8875 173.514 59.6947C173.551 59.8476 173.533 60.0086 173.463 60.1497C173.394 60.2908 173.277 60.4029 173.133 60.4663C171.815 60.9263 170.426 61.1466 169.032 61.1202ZM137.399 40.0977C137.59 41.3739 138.669 44.9223 144.654 49.7774C150.826 54.7838 161.467 60.1059 169.032 60.1059C170.186 60.1247 171.335 59.9655 172.44 59.6338C171.233 56.8946 155.909 42.1191 137.399 40.0977Z" fill="#3B4A05"/>
<path d="M138.405 40.4439C138.405 40.4439 142.637 44.9792 160.24 48.3408C174.071 50.7755 180.692 49.347 180.692 48.3408C180.692 47.3336 171.565 39.2154 156.783 37.0437C147.792 35.7401 134.166 37.0011 138.405 40.4439Z" fill="#76930A"/>
<path d="M138.405 40.4441C138.405 40.4441 143.244 41.4005 160.847 44.757C174.677 47.1927 180.692 49.3441 180.692 48.3369C180.692 47.3298 171.565 39.2126 156.783 37.0409C147.792 35.7403 134.166 37.0013 138.405 40.4441Z" fill="#81A70F"/>
<path d="M139.895 38.1646C139.687 38.0023 139.456 37.8723 139.21 37.7788C142.604 36.4508 150.739 36.1675 156.785 37.0437C171.568 39.2134 180.694 47.3296 180.694 48.3398C180.694 48.5723 180.363 48.6352 179.701 48.5652C168.539 39.8967 153.511 35.4883 139.895 38.1646Z" fill="#B3CA6F"/>
<path d="M173.586 50.1938C169.814 50.1938 165.17 49.7258 160.153 48.8435C143.101 45.5875 138.478 41.2461 138.059 40.8218C137.03 39.974 137.012 39.2399 137.179 38.7729C138.102 36.1616 147.398 36.0296 149.251 36.0296C151.793 36.0209 154.331 36.1905 156.849 36.5373C171.477 38.6846 181.187 46.748 181.187 48.3399C181.187 48.9643 180.502 49.407 179.035 49.736C177.683 50.0344 175.798 50.1938 173.586 50.1938ZM149.248 37.052C142.749 37.052 138.486 38.1008 138.135 39.114C138.027 39.4217 138.456 39.8308 138.725 40.0471L138.775 40.0968C138.815 40.1375 143.193 44.5661 160.334 47.8374C165.285 48.7105 169.871 49.1643 173.58 49.1643C177.98 49.1643 179.705 48.5511 180.116 48.2821C179.224 46.9185 170.549 39.574 156.702 37.5434C154.232 37.2044 151.742 37.0402 149.249 37.052H149.248Z" fill="#3B4A05"/>
<path d="M160.846 43.5811C160.738 43.5334 150.173 38.8438 138.494 40.9516L138.314 39.9454C150.314 37.7757 160.846 43.5811 160.846 43.5811Z" fill="#3B4A05"/>
<path d="M180.27 30.4973C180.27 30.4973 181.857 46.3256 193.889 59.4278C202.23 67.743 203.844 66.3775 204.077 65.2231C204.495 63.1275 196.197 35.922 180.27 30.4973Z" fill="#76930A"/>
<path d="M180.27 30.4973C180.27 30.4973 184.119 44.0189 196.149 57.1221C204.492 65.4373 203.844 66.3775 204.077 65.2231C204.495 63.1275 196.197 35.922 180.27 30.4973Z" fill="#81A70F"/>
<path d="M203.026 66.6007C201.239 66.6007 198.133 64.3732 193.535 59.7892C181.514 46.6961 179.793 30.7094 179.771 30.549L179.69 29.7571L180.443 30.0139C189.019 32.9339 195.138 41.8816 198.762 48.8728C202.625 56.325 204.846 63.9986 204.583 65.3225C204.528 65.6905 204.338 66.0249 204.05 66.2611C203.762 66.4974 203.398 66.6177 203.026 66.6007ZM180.896 31.2638C181.419 34.6609 184.042 47.9398 194.269 59.0754C199.939 64.7265 202.189 65.5733 203.024 65.5743C203.09 65.5821 203.158 65.5764 203.222 65.5574C203.287 65.5384 203.347 65.5065 203.399 65.4638C203.45 65.421 203.493 65.3681 203.524 65.3084C203.555 65.2487 203.573 65.1834 203.578 65.1164C203.945 63.2868 196.217 37.2641 180.896 31.2688V31.2638Z" fill="#3B4A05"/>
<path d="M181.519 30.8162C181.519 30.8162 196.445 53.1332 225.109 50.0609C229.642 49.6842 201.301 26.0576 181.519 30.8162Z" fill="#76930A"/>
<path d="M181.519 30.8162C181.519 30.8162 202.976 49.3675 225.109 50.0609C229.642 49.6842 201.301 26.0576 181.519 30.8162Z" fill="#81A70F"/>
<path d="M225.112 50.0658H224.978C213.72 39.9556 199.794 33.3522 185.22 30.2576C204.627 28.8504 229.363 49.7074 225.112 50.0658Z" fill="#B3CA6F"/>
<path d="M219.766 50.865C194.619 50.865 181.242 31.2985 181.109 31.0995L180.702 30.4903L181.414 30.3248C183.291 29.8852 185.212 29.6684 187.14 29.6791C197.305 29.6791 207.804 35.1129 213.156 38.3527C220.11 42.5559 226.038 47.7065 226.116 49.5979C226.135 50.0122 225.896 50.5188 225.168 50.5797C223.374 50.7709 221.57 50.8661 219.766 50.865ZM182.396 31.1391C184.88 34.4387 197.692 49.8365 219.757 49.8365C221.527 49.8342 223.295 49.7386 225.055 49.5502H225.067C225.017 49.3644 224.801 48.8548 223.84 47.8039C219.237 42.7681 202.132 30.6893 187.122 30.6893C185.536 30.6831 183.953 30.8337 182.396 31.1391Z" fill="#3B4A05"/>
<path d="M182.776 30.88L183.452 30.1155C187.259 33.5025 204.657 39.7251 204.833 39.7881C204.833 39.7881 186.739 34.3969 182.776 30.88Z" fill="#3B4A05"/>
<path d="M122.19 38.1342C122.19 38.1342 130.402 32.1003 135.683 30.1825C140.965 28.2636 153.62 20.1179 153.62 18.2701C153.62 16.4223 148.508 10.4595 135.852 16.5908C125.289 21.6317 121.266 33.1298 122.19 38.1342Z" fill="#76930A"/>
<path d="M122.19 38.1342C122.19 38.1342 129.655 28.3955 134.938 26.4787C140.221 24.5629 153.622 20.1179 153.622 18.2701C153.622 16.4223 148.508 10.4595 135.852 16.5908C125.289 21.6317 121.266 33.1298 122.19 38.1342Z" fill="#81A70F"/>
<path d="M130.148 20.4177C131.855 18.874 133.776 17.5855 135.852 16.5921C147.077 11.1532 152.365 15.2275 153.416 17.5089C146.375 13.001 137.185 16.9413 130.148 20.4177Z" fill="#B3CA6F"/>
<path d="M121.832 39.0278L121.684 38.2278C120.771 33.2742 124.756 21.3192 135.629 16.1301C139.398 14.3046 142.839 13.3777 145.851 13.3777C151.747 13.3777 154.13 16.8297 154.13 18.2703C154.13 20.6989 140.619 28.9339 135.855 30.6629C130.702 32.5341 122.57 38.4867 122.488 38.5466L121.832 39.0278ZM145.851 14.3991C142.992 14.3991 139.703 15.2925 136.072 17.054C126.221 21.7487 122.264 32.1351 122.59 37.2145C124.704 35.7078 131.064 31.3157 135.503 29.7024C141.151 27.6546 152.92 19.7577 153.108 18.2632C153.108 17.4815 151.221 14.3991 145.851 14.3991Z" fill="#3B4A05"/>
<path d="M122.673 38.2814L121.697 37.988C125.413 25.5883 143.076 19.5859 143.076 19.5859C142.909 19.654 126.246 26.3599 122.673 38.2814Z" fill="#3B4A05"/>
<path d="M122.056 36.1615C122.056 36.1615 129.561 7.51835 107.264 0.632695C104.415 0.300697 107.516 12.812 111.706 20.7901C115.897 28.7683 120.948 32.9634 122.056 36.1615Z" fill="#76930A"/>
<path d="M122.059 36.1615C122.059 36.1615 129.564 7.52032 107.267 0.632635C104.418 0.300637 109.657 11.6079 113.848 19.586C118.04 27.5641 120.951 32.9644 122.059 36.1615Z" fill="#81A70F"/>
<path d="M107.605 0.743408C118.442 4.24411 122.084 12.9512 123.011 20.8531C120.008 12.6263 114.873 5.92339 107.605 0.743408Z" fill="#B3CA6F"/>
<path d="M122.128 37.914L121.587 36.3281C121.117 34.9717 119.836 33.3523 118.214 31.2994C116.156 28.6973 113.594 25.4585 111.26 21.0288C107.679 14.2163 104.52 3.32023 106.057 0.767805C106.179 0.54467 106.366 0.363737 106.593 0.248835C106.82 0.133933 107.076 0.0904505 107.328 0.124115L107.417 0.144421C116.744 3.02478 122.318 10.2079 123.532 20.9212C124.444 28.944 122.574 36.2175 122.553 36.2906L122.128 37.914ZM107.171 1.13838C107.086 1.13838 107.015 1.15666 106.929 1.30388C105.84 3.11413 108.273 13.1543 112.161 20.5608C114.444 24.9062 116.972 28.1043 119.005 30.673C120.191 32.1746 121.202 33.4518 121.879 34.6093C122.362 32.136 123.173 26.7723 122.515 21.0187C121.328 10.6222 116.167 3.93854 107.182 1.13838H107.171Z" fill="#3B4A05"/>
<path d="M120.826 34.7493C118.85 17.8936 111.255 10.1429 111.179 10.0698C111.179 10.0698 119.816 17.3931 121.84 34.6336L120.826 34.7493Z" fill="#3B4A05"/>
<path d="M120.261 36.5413C120.261 36.5413 86.3199 25.424 82.4141 13.8853C81.6598 11.4252 94.2676 11.7836 104.921 19.1109C114.161 25.5986 119.316 32.4274 120.261 36.5413Z" fill="#76930A"/>
<path d="M120.261 36.5413C120.261 36.5413 91.8634 21.4227 82.4141 13.8853C81.6598 11.4252 94.2676 11.7836 104.921 19.1109C114.161 25.5986 119.316 32.4274 120.261 36.5413Z" fill="#81A70F"/>
<path d="M104.919 19.1109C107.244 20.7366 109.46 22.5134 111.552 24.43C102.234 20.2825 93.6706 14.4122 83.405 12.7968C86.5463 11.8374 96.356 13.2212 104.919 19.1119V19.1109Z" fill="#B3CA6F"/>
<path d="M120.956 37.3068L120.093 37.0276C118.702 36.5697 85.8631 25.697 81.9288 14.0517C81.8708 13.8777 81.8555 13.6923 81.8843 13.5112C81.9131 13.33 81.9851 13.1585 82.0943 13.0111C82.7086 12.1816 84.462 12.0039 85.8245 12.0039C90.6268 12.0039 98.4891 14.071 105.204 18.6885C115.303 25.7813 119.893 32.6741 120.752 36.4256L120.956 37.3068ZM85.8214 13.0283C83.8701 13.0283 83.0731 13.3999 82.9106 13.6202C82.8967 13.6362 82.8879 13.6559 82.8854 13.6769C82.8829 13.6979 82.8867 13.7192 82.8964 13.738C86.3179 23.8391 114.045 33.8579 119.492 35.7392C118.101 31.7837 113.163 25.5224 104.627 19.5282C98.0932 15.0457 90.4755 13.0283 85.8214 13.0283Z" fill="#3B4A05"/>
<path d="M119.872 36.8743C110.565 26.0493 100.925 22.0156 100.831 21.978C100.831 21.978 111.184 25.1985 120.647 36.2072L119.872 36.8743Z" fill="#3B4A05"/>
<path d="M71.977 43.9304C71.977 43.9304 56.8899 63.6351 39.7956 57.121C37.9061 56.0245 51.2327 44.6848 71.977 43.9304Z" fill="#76930A"/>
<path d="M71.976 43.9304C71.976 43.9304 55.0887 58.4419 39.7904 57.121C37.9051 56.0245 51.2307 44.6848 71.976 43.9304Z" fill="#81A70F"/>
<path d="M46.9178 58.9527C44.4226 58.9512 41.9487 58.4925 39.6189 57.5993L39.5448 57.5638C39.1854 57.3547 39.0371 56.9577 39.1508 56.5018C39.8656 53.6093 53.043 44.1103 71.9618 43.4168L73.0451 43.3762L72.3831 44.2382C71.9262 44.8433 60.9612 58.9537 46.9167 58.9537L46.9178 58.9527ZM40.1377 56.7059C42.3066 57.5152 44.6028 57.9302 46.9178 57.9313C58.4849 57.9313 68.1981 47.6059 70.8612 44.493C52.2967 45.5296 40.5509 55.0002 40.1377 56.7059Z" fill="#3B4A05"/>
<path d="M55.5801 51.6549C55.6684 51.6153 64.411 47.5836 71.7241 43.4849L72.2216 44.3773C64.873 48.4963 55.5801 51.6549 55.5801 51.6549Z" fill="#3B4A05"/>
<path d="M57.6421 38.1333C57.6421 38.1333 37.0227 31.9523 22.4382 45.9409C20.1751 48.7248 47.4588 50.8589 57.6421 38.1333Z" fill="#76930A"/>
<path d="M57.6472 38.1333C57.6472 38.1333 37.0288 31.9523 22.4443 45.9409C20.1802 48.7248 50.0174 44.2108 57.6472 38.1333Z" fill="#81A70F"/>
<path d="M30.8946 48.5692C27.1564 48.5692 22.5551 48.0717 21.8931 46.6696C21.8134 46.4985 21.7854 46.3077 21.8126 46.1208C21.8399 45.9339 21.9211 45.7591 22.0464 45.6178L22.0901 45.5711C30.1109 37.8783 39.9459 36.262 46.7818 36.262C53.1101 36.262 57.6037 37.59 57.7936 37.6438L58.5175 37.8631L58.0444 38.454C52.0745 45.9041 40.1063 48.5692 30.8946 48.5692ZM22.8363 46.2696C23.1673 46.7245 25.8172 47.5448 30.8926 47.5448C39.6098 47.5448 50.8328 45.1366 56.7357 38.4205C53.4723 37.6582 50.132 37.2746 46.7808 37.2772C40.1429 37.2772 30.6053 38.8448 22.8363 46.2696Z" fill="#3B4A05"/>
<path d="M40.2078 41.9913C40.2078 41.9913 46.534 37.6297 57.6422 37.6226V38.6449C46.803 38.6531 40.2707 41.9578 40.2078 41.9913Z" fill="#3B4A05"/>
<path d="M56.8036 61.4431C56.8036 61.4431 47.2011 66.1033 42.8049 84.6241C40.0403 97.7304 42.8049 103.522 42.8049 103.522C45.4456 101.506 58.3844 89.9564 56.8036 61.4431Z" fill="#76930A"/>
<path d="M56.8085 61.4431C56.8085 61.4431 50.062 65.0677 45.6577 83.5885C42.892 96.6958 42.8098 103.522 42.8098 103.522C45.4496 101.506 58.3893 89.9564 56.8085 61.4431Z" fill="#81A70F"/>
<path d="M42.62 104.303L42.3489 103.736C42.2332 103.493 39.5345 97.6319 42.3103 84.5124C46.7177 65.9632 56.1862 61.1761 56.5842 60.9822L57.3152 61.4137C58.9193 90.3371 45.7714 101.904 43.1185 103.929L42.62 104.303ZM56.3405 62.3092C54.0907 63.8016 46.9035 69.5786 43.3053 84.7368C41.1133 95.115 42.4585 100.878 43.0413 102.676C46.4669 99.8229 57.5447 88.4903 56.3415 62.3163L56.3405 62.3092Z" fill="#3B4A05"/>
<path d="M56.8108 61.4431C56.8108 61.4431 43.1105 81.3407 54.6299 105.538C57.8991 102.263 68.2926 79.3304 56.8108 61.4431Z" fill="#76930A"/>
<path d="M56.8066 61.4431C56.8066 61.4431 47.5269 81.8503 54.6258 105.538C57.895 102.263 68.2885 79.3304 56.8066 61.4431Z" fill="#81A70F"/>
<path d="M54.4776 106.412L54.1669 105.759C42.6485 81.5752 56.2483 61.3548 56.3874 61.1538L56.8219 60.5212L57.2361 61.167C63.472 70.8802 63.14 81.7011 61.7511 89.066C60.2343 97.1476 56.8493 104.035 54.9883 105.899L54.4776 106.412ZM56.8046 62.4046C54.634 66.018 45.205 83.7316 54.7578 104.612C58.5956 99.697 66.6407 78.6583 56.8046 62.4046Z" fill="#3B4A05"/>
<path d="M53.502 88.9137C53.5202 88.8376 55.363 81.0707 54.9924 77.9009C54.6076 74.5535 57.2006 63.4809 57.3103 63.0098L58.3032 63.2453C58.2748 63.358 55.6412 74.6134 56.0036 77.7852C56.3965 81.1336 53.502 88.9137 53.502 88.9137Z" fill="#3B4A05"/>
<path d="M43.9197 65.6474C43.9197 65.6474 32.4957 65.2677 17.037 76.0804C5.34295 85.0017 1.0686 94.1434 1.0686 94.6815C1.0686 95.2185 23.8252 90.797 43.9197 65.6474Z" fill="#76930A"/>
<path d="M43.9197 65.6475C43.9197 65.6475 34.9345 66.8881 19.4717 77.7009C7.77561 86.6232 1.06763 94.1424 1.06763 94.6805C1.06763 95.2186 23.8252 90.7971 43.9197 65.6475Z" fill="#81A70F"/>
<path d="M1.23408 95.2267C0.571099 95.2267 0.556885 94.7292 0.556885 94.6744C0.556885 93.7251 5.21602 84.4556 16.7253 75.6744C31.3748 65.4312 42.5541 65.1357 43.7724 65.1357H43.9379L44.3187 65.9662C25.2973 89.7716 3.81899 95.2267 1.23408 95.2267ZM42.8201 66.1937C39.6748 66.4008 29.8214 67.7623 17.3233 76.4978C7.37147 84.0962 2.81285 91.8986 1.7935 94.1566C5.93789 93.584 25.2364 87.7228 42.8211 66.1957L42.8201 66.1937Z" fill="#3B4A05"/>
<path d="M22.0564 77.3973C22.1833 77.3262 34.8043 70.1543 38.4979 65.8789L39.2685 66.5419C35.4561 70.9574 22.0564 77.3973 22.0564 77.3973Z" fill="#3B4A05"/>
<path d="M89.5992 80.1824C89.5992 80.1824 78.5935 109.654 93.9345 128.972C96.1986 131.996 101.396 114.357 97.3722 102.095C93.3497 89.8326 92.7202 81.2819 89.5992 80.1824Z" fill="#76930A"/>
<path d="M89.6002 80.1824C89.6002 80.1824 84.1664 109.458 93.9355 128.972C96.1995 131.996 101.397 114.357 97.3732 102.095C93.3496 89.8326 92.7212 81.2819 89.6002 80.1824Z" fill="#81A70F"/>
<path d="M94.5073 129.827C94.3124 129.82 94.1218 129.767 93.9518 129.672C93.7818 129.577 93.6373 129.442 93.5306 129.278C78.1957 109.969 89.0146 80.299 89.1242 80.0045L89.3009 79.5334L89.772 79.6999C92.0391 80.499 93.0026 84.2454 94.6007 90.4508C95.416 93.6286 96.4343 97.5842 97.8638 101.936C101.08 111.741 98.5258 125.267 95.9317 128.866C95.4616 129.511 94.9956 129.827 94.5073 129.827ZM89.8877 80.9102C88.5039 85.0241 80.4943 111.224 94.3347 128.653C94.4159 128.762 94.4768 128.804 94.5012 128.804C94.5723 128.804 94.7895 128.691 95.0972 128.263C97.2049 125.348 100.135 112.161 96.8851 102.254C95.4545 97.8715 94.4332 93.8987 93.6057 90.6995C92.3285 85.7216 91.3721 82.0057 89.8887 80.9112L89.8877 80.9102Z" fill="#3B4A05"/>
<path d="M89.0958 80.0979L90.104 80.2634C89.3892 84.6088 91.6573 107.543 91.6797 107.776C91.6797 107.776 88.3597 84.5743 89.0958 80.0979Z" fill="#3B4A05"/>
<path d="M85.8093 85.2546C85.8093 85.2546 68.0438 109.5 73.2411 129.315C78.7693 125.78 84.395 115.834 85.8093 85.2546Z" fill="#76930A"/>
<path d="M85.8042 85.2546C85.8042 85.2546 73.8259 108.617 73.2371 129.315C78.7653 125.78 84.391 115.834 85.8042 85.2546Z" fill="#81A70F"/>
<path d="M72.9243 130.123L72.7446 129.445C67.5494 109.623 85.2174 85.1948 85.3971 84.9522L86.3911 83.5886L86.321 85.277C85.1626 110.437 80.9684 124.982 73.5152 129.74L72.9243 130.123ZM85.2123 87.0274C81.5979 92.4795 69.7272 112.03 73.5579 128.477C80.1725 123.629 83.9899 110.046 85.2123 87.0274Z" fill="#3B4A05"/>
<path d="M90.3129 78.1497C90.3129 78.1497 67.7026 84.9602 60.3245 113.012C59.1518 117.044 83.5877 98.8899 90.3129 78.1497Z" fill="#76930A"/>
<path d="M90.3129 78.1497C90.3129 78.1497 71.6754 88.9137 60.3245 113.012C59.1518 117.044 83.5877 98.8899 90.3129 78.1497Z" fill="#81A70F"/>
<path d="M60.6567 114.092C60.521 114.1 60.3855 114.074 60.2617 114.018C60.1379 113.962 60.0296 113.877 59.946 113.77C59.7795 113.541 59.7419 113.239 59.8475 112.872C67.1971 84.876 89.9385 77.7304 90.1669 77.6603L91.101 77.3801L90.7994 78.3081C84.6925 97.1416 64.064 114.092 60.6567 114.092ZM89.4917 78.9883C85.123 80.6849 67.2164 88.9869 60.8496 113.043C64.0863 112.355 83.1736 96.9061 89.4917 78.9883Z" fill="#3B4A05"/>
<path d="M73.4319 96.111C73.4319 96.111 79.148 83.6677 90.0704 77.6958L90.5669 78.5933C79.8962 84.418 73.4949 95.9953 73.4319 96.111Z" fill="#3B4A05"/>
<path d="M279.597 245.132C279.597 254.091 274.55 261.342 269.875 261.342C265.2 261.342 262.667 254.086 262.667 245.132C262.667 236.178 266.457 228.921 271.133 228.921C275.81 228.921 279.597 236.18 279.597 245.132Z" fill="#75759A"/>
<path d="M269.101 255.211C264.493 247.826 262.809 236.692 268.523 229.709C269.3 229.206 270.204 228.933 271.13 228.921C275.806 228.921 279.594 236.18 279.594 245.132C279.594 250.9 277.5 255.96 274.758 258.834C272.329 258.543 270.193 257.401 269.101 255.211Z" fill="#5F5F82"/>
<path d="M269.877 261.853C265.189 261.853 262.159 255.291 262.159 245.131C262.159 235.756 266.101 228.411 271.136 228.411C276.171 228.411 280.111 235.756 280.111 245.131C280.111 254.702 274.709 261.853 269.877 261.853ZM271.136 229.432C266.748 229.432 263.188 236.475 263.188 245.131C263.188 254.524 265.879 260.832 269.885 260.832C274.145 260.832 279.098 253.972 279.098 245.131C279.09 236.475 275.521 229.432 271.136 229.432Z" fill="#000072"/>
<path d="M224.295 111.417C228.6 118.152 228.674 125.801 224.46 128.506C220.247 131.209 213.349 127.938 209.044 121.206C204.74 114.473 204.665 106.822 208.879 104.118C213.092 101.413 219.99 104.682 224.295 111.417Z" fill="#75759A"/>
<path d="M206.552 106.932C207.03 105.78 207.842 104.798 208.883 104.111C213.093 101.409 219.993 104.677 224.298 111.411C227.61 116.589 228.408 122.301 226.689 125.896C216.034 127.827 206.035 117.641 206.552 106.932Z" fill="#5F5F82"/>
<path d="M221.072 129.961C216.802 129.961 211.915 126.631 208.622 121.476C206.488 118.14 205.295 114.474 205.263 111.152C205.229 107.741 206.423 105.091 208.607 103.686C209.703 102.993 210.979 102.634 212.276 102.656C216.545 102.656 221.433 105.987 224.726 111.14C226.861 114.479 228.053 118.145 228.085 121.468C228.118 124.875 226.927 127.528 224.741 128.933C223.644 129.625 222.369 129.982 221.072 129.961ZM212.276 103.678C211.174 103.658 210.09 103.959 209.156 104.545C207.274 105.755 206.254 108.098 206.282 111.14C206.313 114.273 207.441 117.748 209.479 120.929C212.544 125.722 217.201 128.943 221.068 128.943C222.171 128.962 223.255 128.66 224.188 128.074C226.071 126.866 227.09 124.524 227.061 121.481C227.029 118.347 225.901 114.875 223.863 111.693C220.803 106.9 216.146 103.678 212.276 103.678Z" fill="#000072"/>
<path d="M165.657 146.863C165.657 146.863 169.834 154.196 163.404 161.262C158.672 166.669 150.589 162.109 150.589 162.109C150.589 162.109 151.748 171.178 144.901 173.32C135.849 176.343 130.624 169.296 130.624 169.296L165.657 146.863Z" fill="#E5DCE5"/>
<path d="M165.66 146.863C165.66 146.863 169.837 154.196 163.407 161.262C158.675 166.669 149.847 159.744 149.847 159.744C149.847 159.744 151.226 168.606 144.374 170.749C135.323 173.771 130.632 169.296 130.632 169.296L165.66 146.863Z" fill="white"/>
<path d="M140.311 174.608C133.823 174.608 130.624 169.299 130.624 169.299C130.844 169.562 136.139 175.712 144.74 172.837C151.106 170.846 150.096 162.262 150.085 162.175L149.957 161.167L150.841 161.665C150.917 161.709 158.622 165.953 163.021 160.927C169.148 154.189 165.562 146.631 165.525 146.554C165.525 146.554 170.369 154.37 163.782 161.609C159.748 166.219 153.401 163.965 151.159 162.956C151.24 165.391 150.899 171.983 145.053 173.811C143.526 174.332 141.924 174.601 140.311 174.608Z" fill="#736E73"/>
<path d="M153.735 140.578C149.155 135.92 145.63 142.52 144.132 144.778C142.829 146.733 139.092 149.169 136.78 149.569C134.111 150.03 126.66 150.583 129.052 156.667C131.536 162.382 139.996 165.242 148.92 160.217C157.148 154.592 157.94 145.171 153.735 140.578Z" fill="#E5DCE5"/>
<path d="M152.729 140.434C148.555 136.19 145.342 142.204 143.974 144.258C142.787 146.043 139.381 148.261 137.273 148.627C134.842 149.044 128.053 149.548 130.232 155.097C132.495 160.304 140.205 162.909 148.337 158.332C155.84 153.203 156.56 144.618 152.729 140.434Z" fill="#181818"/>
<path d="M133.405 156.548C131.476 155.387 130.132 152.769 130.921 150.676C132.605 149.184 135.776 148.885 137.28 148.627C139.388 148.261 142.793 146.043 143.981 144.258C145.349 142.204 148.562 136.19 152.736 140.434C155.781 143.76 155.946 149.867 152.116 154.807C149.068 159.104 139.579 159.881 133.405 156.548Z" fill="#5F5F82"/>
<path d="M148.495 142.627C144.65 146.478 142.405 151.133 134.864 150.707C135.761 150.529 136.591 150.425 137.172 150.324C139.279 149.959 142.685 147.74 143.872 145.957C145.241 143.901 148.453 137.886 152.625 142.132C153.774 143.383 153.963 144.715 154.233 146.544C152.79 143.171 150.584 140.958 148.495 142.627Z" fill="#F2FFEA"/>
<path d="M139.96 161.209C135.258 161.209 131.35 158.946 129.771 155.302C129.145 153.713 129.15 152.364 129.771 151.27C131.034 149.071 134.458 148.548 136.507 148.235C136.757 148.196 136.986 148.162 137.187 148.127C139.164 147.785 142.435 145.655 143.548 143.98C143.66 143.813 143.786 143.613 143.923 143.399C145.106 141.545 147.086 138.443 149.789 138.443C150.913 138.443 152.026 138.994 153.09 140.079C154.943 142.099 155.791 145.045 155.431 148.172C154.958 152.264 152.476 156.12 148.624 158.753C145.755 160.364 142.774 161.209 139.96 161.209ZM149.796 139.475C147.643 139.475 145.858 142.282 144.787 143.954C144.648 144.177 144.519 144.378 144.403 144.551C143.149 146.438 139.602 148.753 137.365 149.137C137.16 149.174 136.925 149.208 136.667 149.248C134.801 149.534 131.682 150.012 130.664 151.785C130.191 152.615 130.208 153.63 130.713 154.912C132.126 158.161 135.67 160.19 139.96 160.19C142.608 160.19 145.424 159.396 148.092 157.89C151.665 155.448 153.985 151.856 154.423 148.059C154.754 145.226 153.998 142.584 152.359 140.788C151.494 139.909 150.629 139.464 149.787 139.464L149.796 139.475Z" fill="#0C0C0C"/>
<path d="M43.9176 65.6475C43.9176 65.6475 20.6818 86.2608 22.1905 108.814C38.2828 104.783 43.9176 65.6475 43.9176 65.6475Z" fill="#76930A"/>
<path d="M43.9195 65.6475C43.9195 65.6475 26.1216 89.7605 22.1904 108.814C38.2827 104.783 43.9195 65.6475 43.9195 65.6475Z" fill="#81A70F"/>
<path d="M21.7194 109.458L21.6787 108.849C20.17 86.3054 43.3429 65.4809 43.5774 65.2677L44.6191 64.3418L44.4211 65.7226C44.1886 67.3328 38.5497 105.243 22.3113 109.309L21.7183 109.458H21.7194ZM43.1723 67.0526C38.6746 71.4183 21.7843 89.1462 22.6615 108.15C36.0633 103.971 41.9631 74.0875 43.1723 67.0526Z" fill="#3B4A05"/>
<path d="M31.7494 94.711C31.7494 94.711 31.5971 83.7612 43.0698 67.9441L43.8983 68.5461C32.5921 84.1196 31.7544 94.6065 31.7494 94.711Z" fill="#3B4A05"/>
<path d="M155.853 173.502C156.094 173.889 155.398 174.768 154.293 175.467C153.189 176.165 152.098 176.417 151.854 176.031C151.611 175.644 152.308 174.763 153.413 174.067C154.517 173.369 155.613 173.117 155.853 173.502Z" fill="#FEBABA"/>
<path d="M257.371 199.635C257.371 199.635 206.462 209.156 198.43 232.603C214.349 216.124 229.998 207.684 257.371 199.635Z" fill="#F2FFEA"/>
<path d="M194.621 288.141C194.621 288.141 183.397 294.659 167.753 287.63C168.944 292.187 186.969 304.371 194.621 288.141Z" fill="white"/>
<path d="M275.611 255.467C275.611 255.467 283.083 235.639 269.651 230.77C271.274 232.714 279.054 237.704 275.611 255.467ZM226.335 121.902C226.335 121.902 223.53 103.474 209.075 105.344C212.052 105.684 221.575 108.131 226.335 121.902Z" fill="#F2FFEA"/>
<path d="M275.142 212.272C275.142 212.272 275.82 194.974 262.301 192.248C265.11 193.441 274.037 196.849 275.142 212.272Z" fill="#8F8D8F"/>
<path d="M243.258 152.205C243.258 152.205 242 134.94 228.464 131.444C231.61 132.948 239.772 136.442 243.258 152.205ZM219.679 137.122C206.697 147.092 212.606 150.67 202.985 163.745C198.828 169.395 194.035 174.341 193.139 176.784C195.9 173.42 202.123 167.507 204.795 164.257C211.588 155.991 210.439 145.877 219.679 137.122Z" fill="#F2FFEA"/>
<path opacity="0.2" d="M109.457 155.746C109.458 156.454 109.668 157.147 110.061 157.736C110.454 158.325 111.012 158.786 111.666 159.059C112.319 159.33 113.039 159.402 113.733 159.263C114.428 159.125 115.065 158.783 115.565 158.282C116.065 157.78 116.405 157.142 116.543 156.447C116.68 155.753 116.609 155.033 116.339 154.379C116.068 153.724 115.61 153.165 115.022 152.77C114.434 152.376 113.742 152.164 113.034 152.162C112.086 152.162 111.176 152.54 110.506 153.212C109.835 153.884 109.458 154.796 109.457 155.746Z" fill="white"/>
<path d="M112.523 153.805C112.524 154.188 112.638 154.562 112.85 154.881C113.063 155.2 113.365 155.449 113.718 155.598C113.983 155.708 114.269 155.759 114.555 155.745C114.842 155.731 115.122 155.654 115.375 155.519C115.628 155.384 115.847 155.194 116.018 154.963C116.188 154.732 116.305 154.467 116.36 154.185C116.435 153.809 116.397 153.419 116.252 153.064C116.106 152.709 115.859 152.406 115.54 152.192C115.222 151.978 114.847 151.864 114.464 151.863C114.209 151.862 113.957 151.912 113.721 152.009C113.486 152.107 113.272 152.25 113.091 152.43C112.728 152.795 112.524 153.289 112.523 153.805ZM109.442 154.985C109.439 155.175 109.507 155.359 109.633 155.501C109.759 155.643 109.934 155.732 110.123 155.751C110.312 155.769 110.501 155.716 110.652 155.602C110.804 155.488 110.907 155.32 110.941 155.134C110.962 155.024 110.959 154.91 110.932 154.802C110.905 154.693 110.854 154.592 110.783 154.506C110.712 154.419 110.623 154.349 110.522 154.301C110.421 154.253 110.31 154.228 110.198 154.228C110.099 154.228 110 154.247 109.909 154.285C109.817 154.323 109.733 154.379 109.663 154.45C109.593 154.52 109.537 154.603 109.499 154.695C109.461 154.787 109.442 154.886 109.442 154.985Z" fill="white"/>
<path opacity="0.2" d="M155.562 125.889C155.562 126.597 155.772 127.29 156.165 127.879C156.558 128.468 157.116 128.928 157.769 129.2C158.258 129.403 158.786 129.495 159.315 129.469C159.844 129.443 160.36 129.3 160.827 129.05C161.293 128.8 161.699 128.45 162.013 128.024C162.328 127.599 162.544 127.108 162.646 126.589C162.749 126.07 162.736 125.534 162.607 125.021C162.479 124.508 162.238 124.029 161.903 123.62C161.567 123.21 161.146 122.88 160.668 122.653C160.19 122.426 159.667 122.308 159.138 122.306C158.668 122.307 158.203 122.399 157.769 122.579C157.335 122.76 156.941 123.024 156.609 123.356C155.938 124.029 155.562 124.94 155.562 125.889Z" fill="white"/>
<path d="M161.932 125.32C162.296 124.955 162.5 124.462 162.5 123.947C162.5 123.433 162.296 122.94 161.932 122.575C161.753 122.395 161.539 122.252 161.304 122.154C161.069 122.057 160.817 122.006 160.562 122.006C160.308 122.006 160.055 122.057 159.82 122.154C159.585 122.252 159.372 122.395 159.192 122.575C158.829 122.94 158.625 123.433 158.625 123.947C158.625 124.462 158.829 124.955 159.192 125.32C159.372 125.5 159.585 125.643 159.82 125.741C160.055 125.838 160.308 125.889 160.562 125.889C160.817 125.889 161.069 125.838 161.304 125.741C161.539 125.643 161.753 125.5 161.932 125.32ZM155.546 125.132C155.546 125.282 155.589 125.429 155.672 125.554C155.754 125.679 155.872 125.777 156.01 125.835C156.113 125.879 156.225 125.899 156.337 125.894C156.449 125.889 156.559 125.859 156.658 125.807C156.757 125.754 156.843 125.68 156.91 125.59C156.977 125.5 157.023 125.396 157.045 125.286C157.074 125.139 157.059 124.987 157.002 124.848C156.945 124.709 156.848 124.591 156.724 124.506C156.578 124.41 156.404 124.366 156.23 124.383C156.056 124.399 155.894 124.476 155.77 124.599C155.627 124.74 155.547 124.932 155.546 125.132Z" fill="white"/>
<path d="M70.9913 130.123C70.9913 130.123 52.706 125.196 43.5278 145.644C51.5212 135.249 56.9621 129.853 70.9913 130.123Z" fill="#F2FFEA"/>
</g>
</g>
</g>
<defs>
<clipPath id="clip0_5_2068">
<rect width="280.8" height="357.37" fill="white"/>
</clipPath>
<clipPath id="clip1_5_2068">
<rect width="280.8" height="357.37" fill="white"/>
</clipPath>
<clipPath id="clip2_5_2068">
<rect width="281.234" height="357.38" fill="white" transform="translate(-0.216797 -0.00488281)"/>
</clipPath>
</defs>
</svg>
