<svg width="214" height="266" viewBox="0 0 214 266" fill="none" xmlns="http://www.w3.org/2000/svg">
<path d="M106.885 213.165C165.582 213.165 213.165 165.582 213.165 106.885C213.165 48.1884 165.582 0.60405 106.885 0.60405C48.1873 0.60405 0.604004 48.1884 0.604004 106.885C0.604004 165.582 48.1873 213.165 106.885 213.165Z" fill="#F5F2EB"/>
<mask id="mask0_392_7" style="mask-type:luminance" maskUnits="userSpaceOnUse" x="0" y="0" width="214" height="214">
<path d="M106.885 213.165C165.582 213.165 213.165 165.582 213.165 106.885C213.165 48.1884 165.582 0.60405 106.885 0.60405C48.1873 0.60405 0.604004 48.1884 0.604004 106.885C0.604004 165.582 48.1873 213.165 106.885 213.165Z" fill="white"/>
</mask>
<g mask="url(#mask0_392_7)">
<path d="M61.0165 -11.6667L-208.961 258.334M71.7648 -11.6667L-198.236 258.334M82.4923 -11.6667L-187.485 258.334M93.2406 -11.6667L-176.762 258.334M103.964 -11.6667L-166.037 258.334M114.712 -11.6667L-155.289 258.334M125.436 -11.6667L-144.565 258.334M136.187 -11.6667L-133.814 258.334M146.912 -11.6667L-123.09 258.334M157.634 -11.6667L-112.342 258.334M168.384 -11.6667L-101.618 258.334M179.11 -11.6667L-90.8662 258.334M189.859 -11.6667L-80.1427 258.334M200.583 -11.6667L-69.4191 258.334M211.33 -11.6667L-58.6718 258.334M222.055 -11.6667L-47.9472 258.334M232.806 -11.6667L-37.196 258.334M243.53 -11.6667L-26.4714 258.334M254.253 -11.6667L-15.7241 258.334M265.002 -11.6667L-4.9996 258.334M275.729 -11.6667L5.75165 258.334M286.477 -11.6667L16.4762 258.334M297.201 -11.6667L27.1998 258.334M307.948 -11.6667L37.9471 258.334M318.673 -11.6667L48.6716 258.334M329.424 -11.6667L59.4229 258.334M340.149 -11.6667L70.1474 258.334M350.871 -11.6667L80.8947 258.334M361.62 -11.6667L91.6183 258.334M372.347 -11.6667L102.37 258.334M383.095 -11.6667L113.094 258.334M393.82 -11.6667L123.819 258.334" stroke="black" stroke-width="1.20809" stroke-miterlimit="10"/>
</g>
<path d="M106.885 213.165C165.582 213.165 213.165 165.582 213.165 106.885C213.165 48.1884 165.582 0.60405 106.885 0.60405C48.1873 0.60405 0.604004 48.1884 0.604004 106.885C0.604004 165.582 48.1873 213.165 106.885 213.165Z" stroke="black" stroke-width="1.20809" stroke-linecap="round" stroke-linejoin="round"/>
<path d="M106.886 202.176C155.071 202.176 194.133 163.115 194.133 114.929C194.133 66.7438 155.071 27.6824 106.886 27.6824C58.7006 27.6824 19.6392 66.7438 19.6392 114.929C19.6392 163.115 58.7006 202.176 106.886 202.176Z" fill="black" stroke="black" stroke-width="1.20809" stroke-linecap="round" stroke-linejoin="round"/>
<path d="M106.886 194.132C155.071 194.132 194.133 155.07 194.133 106.886C194.133 58.7004 155.071 19.639 106.886 19.639C58.7006 19.639 19.6392 58.7004 19.6392 106.886C19.6392 155.07 58.7006 194.132 106.886 194.132Z" fill="white" stroke="black" stroke-width="1.20809" stroke-linecap="round" stroke-linejoin="round"/>
<g clip-path="url(#clip0_392_7)">
<g clip-path="url(#clip1_392_7)">
<g clip-path="url(#clip2_392_7)">
<g clip-path="url(#clip3_392_7)">
<mask id="mask1_392_7" style="mask-type:luminance" maskUnits="userSpaceOnUse" x="20" y="37" width="173" height="229">
<path d="M20.9668 37.693H192.947V265.78H20.9668V37.693Z" fill="white"/>
</mask>
<g mask="url(#mask1_392_7)">
<path opacity="0.2" d="M112.337 265.78C145.817 265.78 172.958 260.214 172.958 253.35C172.958 246.484 145.817 240.918 112.338 240.918C78.857 240.918 51.717 246.484 51.717 253.35C51.717 260.214 78.8582 265.78 112.337 265.78Z" fill="#000072"/>
<path d="M76.4734 164.151L75.0342 170.325L69.6369 193.498L69.6125 193.612C68.1032 193.265 66.6018 192.885 65.1093 192.471L64.78 192.38C25.9369 181.561 18.9101 156.069 25.0648 147.835C26.9847 145.261 29.3143 143.877 31.6293 143.2C33.8033 142.569 36.1133 142.582 38.2805 143.235C40.8494 144.012 43.1213 145.552 44.795 147.65C50.613 154.874 61.6819 159.546 69.0685 162.016C73.4046 163.464 76.4734 164.151 76.4734 164.151Z" fill="#60547B"/>
<path opacity="0.3" d="M69.1822 171.285C65.8438 180.574 64.7827 192.381 64.7827 192.381C25.9359 181.561 18.9091 156.07 25.0638 147.835C25.9994 164.894 41.8069 175.832 52.1452 181.194C56.2995 183.349 61.4236 181.635 63.391 177.359C64.9156 174.048 66.7208 171.872 68.0747 170.562C68.1559 170.479 68.2571 170.419 68.3683 170.388C68.4795 170.356 68.597 170.354 68.7095 170.381C68.8219 170.408 68.9254 170.464 69.0099 170.542C69.0945 170.621 69.1572 170.721 69.1919 170.831C69.2402 170.979 69.2368 171.139 69.1822 171.285Z" fill="#000072"/>
<path d="M69.609 195.341C69.4797 195.341 69.3516 195.327 69.2248 195.297C35.1593 187.407 25.4882 169.974 22.9121 162.847C20.6227 156.517 20.9155 150.513 23.6952 146.791C25.6419 144.182 28.1496 142.414 31.1489 141.538C36.523 139.967 42.3995 141.938 46.1197 146.558C54.8614 157.414 76.6211 162.41 76.8395 162.46C77.0618 162.509 77.2721 162.602 77.4575 162.734C77.643 162.866 77.7999 163.035 77.9189 163.229C78.0401 163.422 78.1215 163.638 78.1586 163.864C78.1957 164.089 78.1876 164.32 78.1348 164.542L71.2739 194.006C71.1864 194.384 70.9742 194.722 70.6713 194.966C70.3707 195.208 69.9952 195.341 69.609 195.341ZM34.8776 144.467C33.9393 144.466 33.0058 144.599 32.1051 144.862C29.8316 145.524 27.9227 146.875 26.431 148.873C24.3843 151.613 24.2697 156.514 26.1297 161.661C27.6385 165.834 31.122 172.113 39.1539 178.331C46.699 184.172 56.508 188.607 68.3356 191.531L74.4171 165.422C68.9101 163.985 51.5669 158.801 43.4656 148.741C41.2542 145.999 38.0793 144.467 34.8776 144.467Z" fill="#000072"/>
<path d="M158.458 226.276C155.714 236.215 148.018 244.04 138.17 246.811C132.047 248.531 123.727 249.84 112.592 249.84C101.457 249.84 93.1373 248.531 87.0119 246.811C77.1639 244.04 69.4663 236.215 66.7244 226.276C63.4397 214.406 63.5824 202.267 64.7765 192.384C66.2987 179.736 69.5492 170.78 69.5492 170.78V159.69H155.21L155.634 170.78C155.634 170.78 158.884 179.736 160.406 192.384C161.601 202.267 161.743 214.408 158.458 226.276Z" fill="white"/>
<path d="M160.407 192.387C150.698 194.399 140.873 195.809 130.99 196.607C101.579 199.014 79.069 195.443 69.6321 193.496C68.1153 193.188 66.6057 192.846 65.1045 192.469L64.7764 192.377C65.532 186.068 66.8089 179.832 68.5941 173.733C69.0795 172.097 69.3418 170.402 69.3723 168.695C69.3869 168.221 69.3784 167.746 69.354 167.272L69.06 162.011L68.9332 159.684H155.206L155.215 159.951L155.557 168.833L155.632 170.774C155.632 170.774 158.885 179.736 160.407 192.387Z" fill="#60547B"/>
<path opacity="0.3" d="M158.462 216.395C155.716 226.336 148.021 234.16 138.174 236.931C132.051 238.65 123.729 239.96 112.594 239.96C101.46 239.96 93.1398 238.65 87.0156 236.931C77.1664 234.16 69.47 226.336 66.7269 216.395C65.1974 210.866 64.4167 205.28 64.1338 199.888C63.7178 208.104 64.2338 217.266 66.7269 226.276C69.4737 236.215 77.1677 244.04 87.0156 246.811C93.1386 248.531 101.46 249.839 112.594 249.839C123.73 249.839 132.049 248.531 138.174 246.811C148.021 244.04 155.72 236.215 158.462 226.276C160.955 217.266 161.472 208.108 161.054 199.89C160.772 205.281 159.992 210.866 158.462 216.395Z" fill="#000072"/>
<path d="M156.099 170.61C157.242 172.736 158.091 174.956 158.836 177.218C159.579 179.477 160.188 181.779 160.661 184.11C161.594 188.782 162.231 193.507 162.57 198.259C163.237 207.762 162.654 217.454 160.151 226.775C158.836 231.599 156.391 236.04 153.017 239.73C149.657 243.407 145.463 246.222 140.788 247.939C138.413 248.78 136.136 249.321 133.787 249.82C131.439 250.32 129.101 250.677 126.747 250.969C122.036 251.547 117.307 251.789 112.591 251.804C107.874 251.795 103.145 251.568 98.4321 250.999C96.0683 250.72 93.7171 250.342 91.3846 249.866C89.0464 249.383 86.7558 248.836 84.3749 247.999C79.6781 246.29 75.4639 243.471 72.0911 239.783C68.7128 236.083 66.2588 231.635 64.9302 226.804C62.4103 217.471 61.8138 207.764 62.47 198.248C62.6274 195.862 62.8798 193.491 63.197 191.128C63.5141 188.766 63.8861 186.411 64.385 184.081C64.8838 181.752 65.5166 179.455 66.2804 177.199C66.6646 176.072 67.0793 174.955 67.5538 173.858C68.0112 172.75 68.5345 171.669 69.1187 170.623C69.173 170.528 69.2587 170.454 69.3612 170.416C69.4636 170.377 69.5763 170.376 69.6798 170.412C69.7843 170.448 69.8726 170.52 69.9291 170.615C69.9856 170.71 70.0066 170.822 69.9884 170.931V170.943C69.2602 175.592 68.443 180.161 67.6746 184.725C66.8866 189.284 66.2475 193.872 65.9828 198.482C65.4193 207.689 66.0828 216.99 68.5284 225.789C69.7365 230.023 71.9219 233.914 74.9087 237.148C77.8666 240.377 81.5617 242.842 85.6788 244.334C87.6938 245.045 89.9527 245.586 92.1604 246.044C94.3899 246.496 96.6373 246.854 98.8968 247.117C103.427 247.657 108.008 247.872 112.598 247.876C117.188 247.879 121.77 247.678 126.303 247.146C128.564 246.888 130.813 246.535 133.045 246.089C135.253 245.636 137.516 245.101 139.537 244.393C143.669 242.907 147.381 240.444 150.355 237.214C153.354 233.969 155.55 230.065 156.766 225.817C159.234 217.01 159.912 207.691 159.359 198.475C159.087 193.858 158.49 189.257 157.663 184.699L156.42 177.849C156.002 175.564 155.567 173.262 155.177 170.954V170.937C155.157 170.82 155.178 170.7 155.238 170.598C155.298 170.495 155.392 170.417 155.504 170.377C155.616 170.339 155.737 170.342 155.847 170.385C155.957 170.428 156.048 170.51 156.103 170.614L156.099 170.61Z" fill="#000072"/>
<path d="M64.4898 207.67C64.4898 207.67 74.4159 206.16 81.7622 217.97C85.9666 224.728 85.5678 232.731 84.4066 238.46C83.9521 240.694 82.9664 242.785 81.5329 244.558C80.1056 246.324 78.2711 247.717 76.1869 248.617L64.7887 253.55C57.8119 256.57 49.613 254.911 44.5572 249.195C41.7446 246.017 39.1356 241.305 38.6697 234.228C37.1572 211.221 64.4898 207.67 64.4898 207.67Z" fill="#60547B"/>
<path d="M54.7369 249.091C60.8221 248.827 65.468 241.865 65.113 233.542C64.7593 225.218 59.5389 218.684 53.4526 218.949C47.3686 219.212 42.7227 226.173 43.0777 234.497C43.4314 242.821 48.6518 249.354 54.7369 249.091Z" fill="white"/>
<path opacity="0.3" d="M81.7646 217.969C78.8909 213.349 75.6233 210.773 72.7094 209.345C73.4148 210.205 74.0626 211.111 74.6487 212.056C78.3811 218.059 78.0273 225.165 76.9967 230.254C76.5927 232.238 75.717 234.096 74.4438 235.67C73.1764 237.238 71.5474 238.475 69.6967 239.275L59.573 243.657C53.3769 246.338 46.0952 244.865 41.6042 239.789C40.5048 238.546 39.5645 237.17 38.8049 235.694C39.5099 241.966 41.9457 246.246 44.5596 249.2C49.6153 254.916 57.813 256.575 64.791 253.555L76.1892 248.622C78.2734 247.722 80.1079 246.329 81.5353 244.563C82.9681 242.79 83.9533 240.698 84.4077 238.464C85.5701 232.729 85.9689 224.728 81.7646 217.969Z" fill="#000072"/>
<path opacity="0.6" d="M40.1371 237.192C38.6246 214.184 65.9548 210.633 65.9548 210.633C65.9548 210.633 75.8821 209.124 83.2284 220.935C83.2931 221.037 83.3467 221.143 83.4102 221.248C82.9563 220.11 82.4045 219.013 81.7611 217.97C74.416 206.16 64.4899 207.67 64.4899 207.67C64.4899 207.67 37.1561 211.221 38.6698 234.228C38.9905 239.099 40.3261 242.848 42.0435 245.747C41.0641 243.368 40.3603 240.549 40.1371 237.192Z" fill="white"/>
<path d="M57.6217 256.774C52.2245 256.774 46.9858 254.532 43.2815 250.351C39.5053 246.084 37.3805 240.699 36.9634 234.345C36.2986 224.227 40.8665 216.087 50.1766 210.817C56.9435 206.984 63.8032 206.021 64.2594 205.96C64.9571 205.859 75.4637 204.59 83.215 217.054C87.7548 224.354 87.2828 232.915 86.0862 238.811C85.5762 241.317 84.4705 243.664 82.8625 245.653C81.2614 247.636 79.2029 249.199 76.8639 250.21L65.4657 255.143C62.99 256.217 60.3203 256.772 57.6217 256.774ZM64.7119 209.384C64.6473 209.392 58.0498 210.294 51.7719 213.875C43.6364 218.516 39.8041 225.327 40.3822 234.114C40.7457 239.678 42.5826 244.365 45.8368 248.044C50.3619 253.161 57.7095 254.735 64.1155 251.962L75.5137 247.028C77.3427 246.238 78.9528 245.015 80.206 243.466C81.4641 241.911 82.3296 240.075 82.7296 238.114C83.7993 232.837 84.2493 225.217 80.3133 218.889C73.7024 208.261 65.0973 209.329 64.7375 209.38H64.7131L64.7119 209.384Z" fill="#000072"/>
<path d="M160.694 207.67C160.694 207.67 150.769 206.16 143.421 217.97C139.217 224.728 139.616 232.731 140.777 238.46C141.232 240.694 142.217 242.785 143.651 244.558C145.078 246.324 146.914 247.717 148.999 248.617L160.397 253.55C167.374 256.57 175.572 254.911 180.627 249.195C183.44 246.017 186.049 241.305 186.514 234.228C188.027 211.221 160.694 207.67 160.694 207.67Z" fill="#60547B"/>
<path d="M182.073 234.471C182.427 226.148 177.781 219.186 171.696 218.922C165.61 218.659 160.391 225.193 160.036 233.516C159.683 241.839 164.328 248.8 170.414 249.065C176.499 249.328 181.718 242.794 182.073 234.471Z" fill="white"/>
<path opacity="0.3" d="M143.421 217.969C146.295 213.349 149.563 210.773 152.477 209.345C151.771 210.205 151.123 211.111 150.537 212.056C146.804 218.059 147.157 225.165 148.189 230.254C148.593 232.238 149.468 234.096 150.741 235.67C152.009 237.238 153.638 238.475 155.489 239.275L165.613 243.657C171.81 246.338 179.091 244.865 183.581 239.789C184.681 238.545 185.621 237.169 186.38 235.692C185.675 241.965 183.24 246.244 180.626 249.198C175.571 254.913 167.373 256.572 160.395 253.554L148.997 248.617C146.912 247.717 145.078 246.324 143.651 244.558C142.217 242.785 141.232 240.694 140.777 238.46C139.615 232.729 139.218 224.728 143.421 217.969Z" fill="#000072"/>
<path opacity="0.6" d="M185.044 237.192C186.555 214.184 159.225 210.633 159.225 210.633C159.225 210.633 149.299 209.124 141.953 220.935C141.889 221.037 141.836 221.143 141.771 221.248C142.225 220.11 142.777 219.013 143.42 217.97C150.765 206.16 160.692 207.67 160.692 207.67C160.692 207.67 188.026 211.221 186.511 234.228C186.192 239.099 184.856 242.848 183.139 245.747C184.117 243.368 184.825 240.549 185.044 237.192Z" fill="white"/>
<path d="M167.568 256.774C164.869 256.771 162.199 256.215 159.724 255.139L148.326 250.207C145.987 249.196 143.928 247.632 142.327 245.65C140.719 243.661 139.613 241.314 139.104 238.807C137.907 232.911 137.435 224.35 141.975 217.051C149.726 204.586 160.234 205.856 160.93 205.957C161.384 206.018 168.245 206.98 175.013 210.813C184.322 216.087 188.891 224.223 188.226 234.342C187.808 240.695 185.681 246.08 181.908 250.347C178.206 254.532 172.964 256.774 167.568 256.774ZM159.496 209.329C157.021 209.329 150.282 210.196 144.876 218.889C140.94 225.221 141.389 232.835 142.46 238.114C142.86 240.075 143.725 241.91 144.983 243.466C146.236 245.016 147.846 246.238 149.675 247.029L161.074 251.962C167.481 254.734 174.827 253.16 179.352 248.044C182.606 244.365 184.443 239.678 184.806 234.114C185.387 225.294 181.526 218.47 173.335 213.829C167.053 210.271 160.542 209.392 160.478 209.385H160.449C160.133 209.345 159.814 209.326 159.496 209.329Z" fill="#000072"/>
<path d="M166.202 205.469C159.747 218.672 145.091 234.463 131.83 225.307C122.502 218.861 126.071 205.794 130.989 196.611C133.065 192.743 135.375 189.567 137.063 187.862C142.766 182.107 143.345 173.245 143.345 173.245L143.059 171.985L141.254 164.036L155.217 159.96L160.965 158.285C163.393 160.182 165.359 162.208 166.945 164.332C176.97 177.775 171.336 194.956 166.202 205.469Z" fill="#60547B"/>
<path opacity="0.6" d="M143.025 175.542C143.025 175.542 146.082 183.605 139.263 190.028C139.263 190.028 128.581 204.479 128.127 217.783C128.127 217.783 124.49 206.314 134.491 189.34C134.491 189.34 142.925 182.845 143.025 175.542Z" fill="white"/>
<path opacity="0.3" d="M160.968 158.28L157.376 159.328C169.938 171.411 164.515 188.426 159.607 198.467C153.974 209.988 141.189 223.762 129.624 215.774C128.038 214.68 126.883 213.366 126.078 211.903C125.715 217.155 127.143 222.068 131.834 225.306C145.092 234.463 159.744 218.675 166.197 205.469C172.152 193.297 178.764 172.191 160.968 158.28Z" fill="#000072"/>
<path d="M143.702 173.271C143.975 174.976 143.894 176.67 143.636 178.353C143.366 180.049 142.878 181.702 142.182 183.272C141.469 184.871 140.55 186.37 139.447 187.73C138.904 188.363 138.347 188.984 137.776 189.592C137.291 190.155 136.807 190.739 136.353 191.363C134.519 193.84 132.932 196.577 131.585 199.392C130.263 202.218 129.158 205.155 128.518 208.142C127.881 211.115 127.658 214.176 128.319 216.929C128.931 219.65 130.55 222.038 132.85 223.614C134.009 224.421 135.28 225.049 136.621 225.479C137.939 225.893 139.32 226.07 140.7 226.003C143.475 225.884 146.24 224.773 148.762 223.206C151.286 221.64 153.602 219.576 155.701 217.316C157.805 215.021 159.7 212.543 161.363 209.912C162.204 208.599 162.99 207.252 163.72 205.875C164.446 204.483 165.125 203.066 165.755 201.628C167.032 198.76 168.093 195.802 168.932 192.778C169.742 189.765 170.327 186.701 170.501 183.628C170.676 180.557 170.47 177.488 169.749 174.551C169.413 173.074 168.889 171.656 168.3 170.27C167.712 168.886 166.936 167.582 166.124 166.312C164.397 163.797 162.308 161.551 159.924 159.646L159.914 159.639C159.567 159.351 159.345 158.94 159.295 158.492C159.245 158.043 159.371 157.593 159.647 157.236C159.92 156.88 160.323 156.646 160.768 156.586C161.213 156.525 161.664 156.643 162.022 156.913C164.696 158.968 167.131 161.409 169.124 164.223C170.077 165.658 170.971 167.143 171.676 168.726C172.38 170.31 172.992 171.937 173.403 173.615C174.272 176.965 174.547 180.433 174.39 183.836C174.233 187.238 173.656 190.593 172.791 193.836C171.912 197.061 170.795 200.215 169.45 203.274C168.787 204.804 168.073 206.31 167.309 207.791C166.536 209.277 165.695 210.728 164.791 212.138C162.991 214.97 160.944 217.637 158.673 220.106C156.377 222.568 153.833 224.852 150.885 226.676C149.399 227.608 147.819 228.379 146.169 228.975C144.469 229.588 142.685 229.94 140.879 230.018C139.042 230.091 137.207 229.841 135.456 229.279C133.734 228.714 132.106 227.894 130.626 226.847C127.553 224.697 125.402 221.47 124.601 217.806C124.208 216.053 124.062 214.253 124.164 212.459C124.262 210.726 124.51 209.003 124.907 207.314C125.292 205.658 125.787 204.029 126.389 202.439C126.977 200.865 127.642 199.321 128.383 197.813C129.874 194.812 131.585 191.947 133.635 189.257C134.143 188.583 134.698 187.928 135.277 187.28C135.94 186.589 136.368 186.124 136.868 185.563C137.813 184.44 138.584 183.161 139.307 181.84C140.746 179.186 141.866 176.274 143.002 173.222L143.011 173.199C143.04 173.124 143.092 173.061 143.16 173.019C143.227 172.977 143.307 172.958 143.386 172.966C143.465 172.974 143.54 173.009 143.598 173.064C143.656 173.118 143.695 173.191 143.708 173.269L143.702 173.271Z" fill="#000072"/>
<path opacity="0.3" d="M166.948 164.329C163.34 166.117 159.493 167.604 155.564 168.838C151.459 170.12 147.285 171.17 143.063 171.985C126.936 175.157 112.699 174.944 112.699 174.944C112.699 174.944 93.8984 175.226 75.0342 170.326C73.1343 169.839 71.2491 169.297 69.3808 168.7C55.3541 164.204 42.3434 156.488 38.2805 143.235C40.8494 144.012 43.1213 145.552 44.795 147.65C50.6131 154.874 61.682 159.546 69.0674 162.016L68.9417 159.69H155.215L155.223 159.957L160.971 158.283C163.395 160.183 165.364 162.2 166.948 164.329Z" fill="#000072"/>
<path d="M82.8074 63.8986C82.8074 77.4143 71.952 88.3722 58.5595 88.3722C55.3696 88.3694 52.2118 87.7345 49.2687 86.5041C46.3256 85.2737 43.6555 83.4723 41.4127 81.2039C36.8574 76.597 34.3038 70.3787 34.3066 63.8998C34.3066 50.3793 45.1633 39.4213 58.5607 39.4213C61.7442 39.4213 64.8983 40.0556 67.8403 41.2851C70.7867 42.5179 73.4604 44.3211 75.7075 46.5908C77.9627 48.8684 79.7488 51.5667 80.9645 54.5324C82.183 57.5051 82.809 60.6871 82.8074 63.8998V63.8986Z" fill="#60547B"/>
<path opacity="0.3" d="M82.8112 63.8986C82.8112 77.4143 71.9545 88.371 58.5633 88.371C52.6912 88.3745 47.0207 86.2291 42.6216 82.3395C47.5602 69.2739 56.8191 54.3409 74.133 45.1321C76.8575 47.4336 79.0445 50.3042 80.5401 53.542C82.0405 56.7887 82.8155 60.3232 82.8112 63.8998V63.8986Z" fill="#000072"/>
<path opacity="0.6" d="M57.091 43.8672C60.741 43.8657 64.3436 44.6949 67.6256 46.292C70.9176 47.8943 73.8047 50.2201 76.071 53.0956C78.3454 55.9816 79.9434 59.341 80.7474 62.9265C81.5536 66.5173 81.5463 70.2448 80.7266 73.832C82.3662 70.1032 83.0572 66.0266 82.738 61.9658C82.4188 57.9051 81.0992 53.9865 78.897 50.5598C76.7025 47.1483 73.69 44.3396 70.1334 42.3889C66.5883 40.4454 62.6109 39.4261 58.568 39.425C47.0417 39.425 37.406 47.5361 34.9312 58.4111C38.705 49.8426 47.2052 43.8672 57.091 43.8672Z" fill="white"/>
<path d="M58.5596 90.1006C44.2437 90.1006 32.5967 78.3461 32.5967 63.8962C32.5967 49.4474 44.245 37.693 58.5596 37.693C72.8754 37.693 84.5237 49.4486 84.5237 63.8962C84.5237 78.3449 72.8754 90.1006 58.5596 90.1006ZM58.5596 41.1509C46.1331 41.1509 36.0229 51.355 36.0229 63.8962C36.0229 76.4385 46.1343 86.6439 58.5596 86.6439C70.986 86.6439 81.0975 76.4397 81.0975 63.8962C81.0975 51.3538 70.9873 41.1509 58.5596 41.1509Z" fill="#000072"/>
<path d="M142.581 63.8986C142.581 77.4143 153.437 88.3722 166.829 88.3722C170.019 88.3693 173.177 87.7344 176.12 86.504C179.063 85.2736 181.733 83.4722 183.976 81.2039C188.531 76.597 191.085 70.3787 191.082 63.8998C191.082 50.3793 180.225 39.4213 166.829 39.4213C163.644 39.4213 160.49 40.0556 157.548 41.2851C154.602 42.518 151.928 44.3211 149.681 46.5908C147.426 48.8687 145.641 51.5669 144.425 54.5324C143.206 57.505 142.58 60.687 142.581 63.8998V63.8986Z" fill="#60547B"/>
<path opacity="0.3" d="M142.581 63.8986C142.581 77.4143 153.436 88.371 166.829 88.371C172.701 88.3741 178.371 86.2288 182.77 82.3395C177.831 69.2739 168.575 54.3409 151.259 45.1321C148.535 47.4337 146.348 50.3043 144.852 53.542C143.352 56.7887 142.577 60.3233 142.581 63.8998V63.8986Z" fill="#000072"/>
<path opacity="0.6" d="M168.296 43.8672C164.649 43.8672 161.05 44.6966 157.765 46.2957C154.474 47.899 151.589 50.2252 149.323 53.1005C147.05 55.9859 145.452 59.3444 144.648 62.9289C143.842 66.5197 143.849 70.2453 144.668 73.8332C143.029 70.1043 142.338 66.0277 142.657 61.9669C142.977 57.9062 144.296 53.9877 146.499 50.561C148.693 47.149 151.706 44.3398 155.263 42.3889C158.808 40.4455 162.785 39.4262 166.828 39.425C178.354 39.425 187.991 47.5361 190.464 58.4111C186.686 49.8426 178.187 43.8672 168.296 43.8672Z" fill="white"/>
<path d="M166.834 90.1006C152.518 90.1006 140.871 78.3461 140.871 63.8962C140.871 49.4474 152.518 37.693 166.834 37.693C181.15 37.693 192.798 49.4486 192.798 63.8962C192.798 78.3449 181.15 90.1006 166.834 90.1006ZM166.834 41.1509C154.407 41.1509 144.297 51.355 144.297 63.8962C144.297 76.4385 154.407 86.6439 166.834 86.6439C179.26 86.6439 189.37 76.4397 189.37 63.8962C189.37 51.3538 179.26 41.1509 166.834 41.1509Z" fill="#000072"/>
<path d="M183.23 108.372C183.23 108.372 181.727 41.54 112.695 41.54C43.6644 41.54 42.1593 108.372 42.1593 108.372C13.5484 171.485 112.695 169.999 112.695 169.999C112.695 169.999 211.843 171.485 183.23 108.372Z" fill="white"/>
<path d="M113.19 170.235H112.689C112.56 170.235 98.8274 170.405 83.2662 167.462C68.8785 164.741 49.9375 158.729 41.4031 145.533C35.035 135.685 35.2143 123.161 41.9325 108.317C41.9654 107.308 42.6472 90.9727 51.3389 74.8468C56.5862 65.111 63.6813 57.3524 72.4291 51.788C83.3602 44.8357 96.9051 41.3107 112.693 41.3107C128.482 41.3107 142.031 44.8357 152.96 51.788C161.706 57.3524 168.801 65.111 174.051 74.8468C182.74 90.9714 183.423 107.307 183.457 108.317C190.176 123.163 190.354 135.681 183.986 145.531C175.451 158.727 156.51 164.74 142.125 167.459C128.231 170.092 115.799 170.235 113.19 170.235ZM112.689 169.776C112.833 169.776 126.526 169.946 142.046 167.01C156.343 164.304 175.158 158.34 183.604 145.279C189.887 135.563 189.694 123.178 183.022 108.468L183.002 108.377C183.002 108.21 182.522 91.5191 173.639 75.0505C165.451 59.8674 148.233 41.7693 112.693 41.7693C77.153 41.7693 59.9331 59.8674 51.7451 75.0505C42.8656 91.5191 42.3887 108.21 42.3813 108.377L42.3618 108.468C35.6924 123.178 35.4985 135.563 41.7812 145.279C50.2253 158.34 69.0419 164.304 83.3382 167.01C98.8591 169.943 112.553 169.775 112.689 169.774V169.776Z" fill="#000072"/>
<path d="M85.1959 119.132C85.1959 119.132 88.9623 106.691 96.3489 98.0409C100.348 93.3609 101.022 86.5292 97.6467 81.3698C95.5 78.0888 91.7372 75.4652 85.1922 75.4652C67.7466 75.4652 55.4165 97.6591 55.0676 111.33C54.7188 125 62.7445 131.423 68.2113 131.908C73.6769 132.392 82.288 130.755 85.1959 119.132ZM140.199 119.132C140.199 119.132 136.432 106.691 129.046 98.0409C125.045 93.3609 124.371 86.5292 127.748 81.3698C129.895 78.0888 133.656 75.4652 140.201 75.4652C157.648 75.4652 169.977 97.6591 170.325 111.33C170.674 125 162.65 131.423 157.184 131.908C151.717 132.392 143.106 130.755 140.199 119.132Z" fill="#60547B"/>
<path opacity="0.3" d="M112.693 170.004C112.693 170.004 15.8926 171.452 41.1932 110.602C27.7226 161.049 112.693 159.963 112.693 159.963C112.693 159.963 199.137 160.916 183.451 108.873C211.316 171.478 112.693 170.004 112.693 170.004Z" fill="#000072"/>
<path opacity="0.3" d="M129.635 116.639C129.535 116.51 129.4 116.412 129.247 116.357C129.093 116.301 128.927 116.29 128.768 116.326C128.608 116.362 128.461 116.443 128.346 116.559C128.23 116.676 128.151 116.824 128.116 116.984C127.602 119.297 126.167 123.126 122.328 123.063C116.833 122.972 117.749 114.568 117.749 114.568H107.626C107.626 114.568 108.541 122.976 103.046 123.063C99.2067 123.124 97.7735 119.297 97.2588 116.983C97.2226 116.824 97.1422 116.677 97.0268 116.561C96.9114 116.445 96.7657 116.364 96.6063 116.327C96.4473 116.291 96.2813 116.301 96.1278 116.356C95.9743 116.411 95.8399 116.509 95.7403 116.638C94.4145 118.336 92.6751 121.446 93.9741 125C95.9379 130.371 102.702 131.467 102.702 131.467L112.689 124.912L122.674 131.464C122.674 131.464 129.434 130.367 131.401 124.997C132.696 121.447 130.957 118.338 129.635 116.639Z" fill="#000072"/>
<path d="M122.864 106.802C119.165 104.664 112.697 104.783 112.697 104.783C112.697 104.783 106.229 104.662 102.528 106.802C101.297 107.514 100.801 109.061 101.318 110.394C102.41 113.186 105.343 117.875 112.697 117.875C120.05 117.875 122.981 113.186 124.074 110.394C124.596 109.061 124.096 107.516 122.864 106.802Z" fill="#000072"/>
<path d="M114.641 115.562C114.668 115.81 114.677 115.959 114.69 116.15L114.713 116.687C114.721 117.04 114.725 117.393 114.713 117.744C114.685 118.452 114.615 119.155 114.506 119.854C114.271 121.259 113.854 122.686 113.13 124.032C112.756 124.716 112.308 125.356 111.793 125.941C111.263 126.534 110.654 127.052 109.983 127.479C109.321 127.897 108.61 128.232 107.867 128.476C107.152 128.702 106.415 128.85 105.669 128.916C104.261 129.03 102.845 128.952 101.458 128.684C100.743 128.546 100.045 128.335 99.3737 128.052C98.667 127.765 98.0039 127.381 97.4039 126.91C96.178 125.955 95.2352 124.549 94.9327 123.074C94.781 122.358 94.7526 121.621 94.8486 120.895C94.935 120.186 95.1569 119.501 95.5023 118.876C95.5448 118.801 95.6088 118.741 95.686 118.703C95.7632 118.665 95.8501 118.651 95.9353 118.663C96.0207 118.675 96.1003 118.713 96.1634 118.772C96.2266 118.831 96.2704 118.908 96.289 118.992L96.3012 119.047C96.5744 120.257 96.8843 121.383 97.3234 122.308C97.7625 123.234 98.3235 123.988 99.1334 124.492C99.5469 124.754 99.9945 124.955 100.464 125.091C100.962 125.242 101.473 125.347 101.99 125.402C103.067 125.527 104.156 125.508 105.228 125.345C105.72 125.264 106.203 125.137 106.671 124.967C107.993 124.458 109.067 123.459 109.672 122.178C110.123 121.239 110.428 120.239 110.58 119.207C110.668 118.665 110.727 118.117 110.752 117.569C110.765 117.294 110.777 117.02 110.777 116.743V116.337L110.761 115.984L110.756 115.863C110.732 115.35 110.906 114.846 111.243 114.461C111.578 114.075 112.051 113.837 112.56 113.798C113.069 113.759 113.573 113.922 113.963 114.251C114.353 114.58 114.602 115.052 114.654 115.563H114.642L114.641 115.562Z" fill="#000072"/>
<path d="M114.643 115.983L114.629 116.337V116.743C114.629 117.017 114.641 117.293 114.653 117.569C114.68 118.117 114.737 118.664 114.824 119.205C114.976 120.237 115.283 121.239 115.734 122.177C116.338 123.458 117.413 124.457 118.734 124.966C119.203 125.137 119.686 125.263 120.177 125.344C121.249 125.508 122.337 125.527 123.414 125.4C123.932 125.345 124.443 125.241 124.941 125.091C125.408 124.954 125.853 124.752 126.264 124.49C127.074 123.987 127.635 123.234 128.074 122.307C128.514 121.38 128.823 120.256 129.095 119.047L129.107 118.993C129.126 118.909 129.17 118.833 129.233 118.775C129.296 118.716 129.376 118.677 129.461 118.664C129.546 118.651 129.633 118.664 129.71 118.702C129.788 118.74 129.852 118.8 129.895 118.875C130.24 119.5 130.462 120.185 130.547 120.894C130.645 121.619 130.617 122.357 130.466 123.073C130.162 124.548 129.219 125.954 127.993 126.909C127.393 127.38 126.73 127.764 126.023 128.051C125.352 128.333 124.653 128.545 123.938 128.683C122.552 128.951 121.135 129.029 119.727 128.914C118.981 128.848 118.245 128.701 117.53 128.475C116.787 128.231 116.076 127.896 115.414 127.479C114.743 127.051 114.134 126.533 113.604 125.939C113.089 125.355 112.641 124.714 112.267 124.031C111.54 122.685 111.125 121.258 110.893 119.853C110.782 119.154 110.712 118.45 110.684 117.743C110.67 117.391 110.67 117.038 110.684 116.685L110.707 116.149C110.72 115.957 110.728 115.807 110.755 115.562C110.808 115.053 111.055 114.584 111.447 114.255C111.836 113.926 112.338 113.763 112.846 113.801C113.353 113.839 113.826 114.075 114.162 114.458C114.498 114.842 114.675 115.343 114.653 115.855L114.643 115.983Z" fill="#000072"/>
<path d="M112.697 118.367C112.697 118.9 112.677 119.414 112.648 119.898C112.611 119.389 112.593 118.878 112.593 118.367H112.697Z" fill="#222A66"/>
<path d="M112.419 119.914C112.383 119.399 112.365 118.883 112.365 118.367V118.138H112.922V118.367C112.922 118.855 112.905 119.36 112.872 119.912L112.419 119.914Z" fill="#000072"/>
<path d="M112.693 143.89H112.644C106.846 143.89 103.637 141.259 101.873 138.078C99.1725 133.197 99.8726 127.014 99.8726 127.014C99.8726 127.014 111.794 131 112.644 119.046C113.492 130.999 125.412 127.014 125.412 127.014C125.412 127.014 127.336 143.85 112.693 143.89Z" fill="#000072"/>
<path d="M112.695 131.908C105.053 131.908 101.876 138.079 101.876 138.079C103.643 141.259 106.852 143.89 112.649 143.89H112.747C118.546 143.89 121.755 141.259 123.519 138.078C123.517 138.078 120.339 131.908 112.695 131.908Z" fill="#FF4379"/>
<path d="M112.648 145.617C108.145 145.617 104.581 144.169 102.057 141.312C97.2124 135.825 98.1357 127.182 98.176 126.815C98.2052 126.561 98.2904 126.316 98.4253 126.098C98.5603 125.88 98.7417 125.695 98.9566 125.555C99.1709 125.417 99.4135 125.329 99.6664 125.298C99.9193 125.266 100.176 125.292 100.418 125.372C100.463 125.386 105.35 126.958 108.376 124.741C109.863 123.651 110.718 121.738 110.931 119.044C110.901 118.584 110.887 118.122 110.888 117.66C110.898 117.197 111.088 116.754 111.417 116.428C111.745 116.105 112.187 115.923 112.648 115.923C113.109 115.923 113.551 116.105 113.879 116.428C114.208 116.754 114.398 117.197 114.408 117.66C114.408 118.136 114.395 118.597 114.365 119.043C114.576 121.739 115.433 123.651 116.921 124.739C119.947 126.958 124.829 125.382 124.882 125.37C125.123 125.29 125.38 125.266 125.632 125.298C125.885 125.331 126.127 125.419 126.34 125.558C126.555 125.696 126.737 125.881 126.872 126.098C127.006 126.315 127.091 126.56 127.12 126.814C127.161 127.182 128.083 135.828 123.239 141.312C120.714 144.169 117.152 145.617 112.648 145.617ZM101.512 129.16C101.545 131.675 102.012 136.073 104.625 139.021C106.47 141.104 109.17 142.159 112.649 142.159C116.127 142.159 118.826 141.104 120.671 139.022C123.284 136.074 123.751 131.676 123.781 129.16C121.488 129.533 117.816 129.658 114.924 127.551C114.012 126.884 113.24 126.045 112.652 125.081C112.063 126.045 111.29 126.884 110.378 127.551C107.481 129.658 103.809 129.538 101.513 129.161L101.512 129.16Z" fill="#000072"/>
<path d="M112.688 108.424C115.94 108.424 118.576 107.991 118.576 107.457C118.576 106.923 115.94 106.489 112.688 106.489C109.436 106.489 106.799 106.922 106.799 107.457C106.799 107.991 109.436 108.424 112.688 108.424Z" fill="white"/>
<path d="M112.687 108.655C112.061 108.655 106.571 108.621 106.571 107.461C106.571 106.302 112.06 106.263 112.687 106.263C113.311 106.263 118.801 106.297 118.801 107.462C118.801 108.626 113.313 108.655 112.687 108.655ZM107.038 107.461C107.268 107.724 109.122 108.195 112.686 108.195C116.251 108.195 118.105 107.719 118.335 107.461C118.105 107.199 116.252 106.722 112.687 106.722C109.12 106.722 107.271 107.194 107.038 107.457V107.461Z" fill="#000072"/>
<path d="M113.181 171.735H112.699C112.02 171.743 98.387 171.847 82.9966 168.937C61.6577 164.9 47.2467 157.302 40.165 146.351C33.5396 136.106 33.6396 123.194 40.4627 107.971C40.5724 105.352 41.5653 89.8554 50.0387 74.132C55.4054 64.1669 62.6749 56.2266 71.6349 50.5195C82.8076 43.4135 96.6221 39.8104 112.697 39.8104C128.771 39.8104 142.585 43.4135 153.755 50.5195C162.718 56.2217 169.987 64.1669 175.357 74.1296C183.831 89.853 184.823 105.351 184.932 107.968C191.751 123.191 191.856 136.103 185.231 146.349C178.149 157.3 163.738 164.898 142.398 168.934C128.381 171.585 115.817 171.735 113.181 171.735ZM112.699 168.273H112.724C113.255 168.283 166.641 168.778 182.366 144.454C188.351 135.198 188.119 123.3 181.677 109.089C181.58 108.875 181.528 108.644 181.523 108.41C181.523 108.246 181.034 91.8216 172.29 75.6701C160.654 54.1702 140.601 43.2683 112.699 43.2683C84.7957 43.2683 64.7448 54.1714 53.1062 75.6713C44.3621 91.8265 43.8766 108.25 43.873 108.411C43.8676 108.646 43.8149 108.877 43.7181 109.09C37.2768 123.3 37.045 135.2 43.0289 144.455C58.756 168.781 112.141 168.284 112.671 168.275L112.699 168.273Z" fill="#000072"/>
<path d="M87.246 100.095C87.8595 94.0537 84.8138 88.7894 80.4424 88.3368C76.0721 87.8855 72.0312 92.4168 71.4189 98.458C70.8054 104.501 73.851 109.765 78.2225 110.216C82.5927 110.667 86.6337 106.137 87.246 100.095Z" fill="#000072"/>
<path d="M82.6026 94.944C82.7953 93.0376 81.5951 91.352 79.9204 91.1788C78.2457 91.0056 76.7308 92.4107 76.5381 94.3159C76.3442 96.2223 77.5444 97.908 79.2203 98.0812C80.895 98.2544 82.4086 96.8492 82.6026 94.944Z" fill="white"/>
<path opacity="0.3" d="M76.6285 102.023C76.1923 101.979 75.7527 102.065 75.3661 102.272C74.9782 102.479 74.6599 102.797 74.4513 103.187C74.2435 103.577 74.1547 104.019 74.1959 104.458C74.2371 104.898 74.4065 105.316 74.6831 105.66C74.9612 106.004 75.3319 106.257 75.7515 106.386C76.1708 106.517 76.6195 106.519 77.04 106.392C77.4604 106.266 77.8333 106.016 78.1105 105.675C78.3198 105.42 78.4705 105.122 78.5516 104.802C78.6327 104.482 78.6423 104.148 78.5798 103.824C78.5173 103.499 78.3841 103.193 78.1898 102.926C77.9955 102.659 77.7448 102.438 77.4555 102.279C77.1995 102.14 76.9184 102.053 76.6285 102.023Z" fill="white"/>
<path d="M146.356 110.209C150.726 109.758 153.772 104.493 153.16 98.4507C152.546 92.4095 148.505 87.8782 144.135 88.3307C139.763 88.782 136.718 94.0463 137.331 100.089C137.944 106.13 141.984 110.661 146.356 110.209Z" fill="#000072"/>
<path d="M145.361 98.0714C147.035 97.8982 148.237 96.2126 148.043 94.3074C147.85 92.4009 146.335 90.9958 144.66 91.169C142.986 91.3422 141.784 93.0279 141.978 94.9343C142.172 96.8395 143.686 98.2446 145.361 98.0714Z" fill="white"/>
<path opacity="0.3" d="M147.945 102.023C148.381 101.978 148.821 102.065 149.208 102.272C149.498 102.429 149.75 102.648 149.946 102.913C150.143 103.178 150.278 103.484 150.343 103.807C150.408 104.131 150.401 104.464 150.323 104.785C150.245 105.105 150.097 105.405 149.89 105.662C149.685 105.919 149.425 106.127 149.129 106.27C148.833 106.413 148.508 106.488 148.18 106.489C147.851 106.491 147.526 106.418 147.229 106.277C146.932 106.136 146.67 105.931 146.463 105.675C146.136 105.275 145.956 104.775 145.954 104.258C145.951 103.741 146.127 103.238 146.451 102.836C146.822 102.378 147.359 102.086 147.945 102.023Z" fill="white"/>
</g>
</g>
</g>
</g>
</g>
<defs>
<clipPath id="clip0_392_7">
<rect width="171.98" height="227.64" fill="white" transform="translate(20.9668 37.502)"/>
</clipPath>
<clipPath id="clip1_392_7">
<rect width="171.98" height="227.92" fill="white" transform="translate(20.9668 37.502)"/>
</clipPath>
<clipPath id="clip2_392_7">
<rect width="171.98" height="227.92" fill="white" transform="translate(20.9668 37.502)"/>
</clipPath>
<clipPath id="clip3_392_7">
<rect width="171.98" height="229.307" fill="white" transform="translate(20.9668 36.8087)"/>
</clipPath>
</defs>
</svg>
