<svg width="24" height="23" viewBox="0 0 24 23" fill="none" xmlns="http://www.w3.org/2000/svg">
<g clip-path="url(#clip0_5_12797)">
<g clip-path="url(#clip1_5_12797)">
<g clip-path="url(#clip2_5_12797)">
<path d="M19.2671 17.6534C17.8578 18.5971 16.2623 19.0857 14.5775 19.3151C13.7241 19.4323 12.861 19.4803 12.0076 19.558C10.2508 19.4975 8.52471 19.2854 6.87543 18.6969C5.25303 18.1209 3.83895 17.2675 2.89143 15.8303C2.19543 14.7955 1.94199 13.6444 2.01399 12.4223C2.10039 10.9382 2.48439 9.52314 3.24279 8.2233C4.84599 5.47866 7.26807 3.87258 10.5388 3.4617C12.0004 3.26878 13.4855 3.36005 14.9126 3.7305C17.4105 4.3881 19.2988 5.81178 20.5996 7.94202C21.4729 9.35621 21.9534 10.9776 21.9916 12.6393C22.0406 14.7916 21.0796 16.4409 19.2671 17.6534Z" fill="white"/>
<path d="M21.5768 7.68659C21.5487 7.70953 21.5296 7.74168 21.5229 7.77735C21.5163 7.81303 21.5224 7.84991 21.5404 7.88147C22.0559 8.82995 22.4351 9.81203 22.6386 10.8555C22.941 12.4443 22.9775 14.0168 22.2584 15.5307C21.5989 16.917 20.5237 17.9307 19.173 18.692C17.7455 19.4975 16.1874 19.9304 14.5554 20.1599C12.9879 20.3813 11.3981 20.3975 9.82644 20.2079C7.75284 19.9602 5.78292 19.4111 4.07604 18.2072C2.0562 16.7826 1.06164 14.8645 1.17012 12.4491C1.23732 10.8815 1.6674 9.34451 2.4306 7.95539C2.5074 7.81619 2.52564 7.72979 2.38068 7.60883C1.18356 6.59123 0.93588 5.24915 1.69428 3.87251C2.2002 2.94611 2.93268 2.25299 4.0482 2.04563C4.87476 1.89011 5.60628 2.14931 6.25236 2.62547C6.55572 2.85107 6.79956 3.14963 7.08372 3.40499C7.13844 3.45683 7.26516 3.49139 7.32372 3.46547C9.14388 2.69459 11.0504 2.43539 13.0252 2.59187C14.2712 2.68595 15.4828 2.94611 16.6204 3.45683C16.7884 3.53075 16.87 3.51731 16.9909 3.37043C17.6015 2.62163 18.3637 2.08403 19.3852 2.01491C20.3663 1.95059 21.1381 2.37971 21.7573 3.06707C22.5023 3.89459 22.9045 4.84307 22.7106 5.95475C22.6021 6.56531 22.268 7.06835 21.8024 7.49171C21.7352 7.55699 21.6584 7.62227 21.5768 7.68659ZM12.0037 19.5618C12.862 19.485 13.725 19.4322 14.5746 19.3199C16.2594 19.0904 17.854 18.597 19.2632 17.6571C21.0796 16.4456 22.0376 14.7915 21.9877 12.644C21.9537 10.9817 21.4729 9.35919 20.5957 7.94675C19.2959 5.81171 17.4037 4.38803 14.9087 3.72947C13.4806 3.35784 11.9942 3.26527 10.5311 3.45683C7.26516 3.86867 4.83828 5.46995 3.23988 8.21843C2.48052 9.52211 2.09652 10.9381 2.01492 12.4232C1.94772 13.6443 2.19636 14.7954 2.88756 15.8389C3.83604 17.276 5.24916 18.1295 6.87156 18.7055C8.52084 19.2939 10.2412 19.5051 12.0037 19.5618Z" fill="#141414"/>
<path d="M7.83069 7.95923C5.49501 8.18483 3.93309 10.5445 4.66845 12.6872C4.98045 13.6011 5.78493 14.1637 6.71997 14.1416C6.87741 14.1243 7.04541 14.1291 7.19901 14.0898C8.91549 13.6357 10.0675 12.5874 10.4918 10.9381C10.9757 9.05075 9.57021 7.79123 7.83069 7.95923ZM8.03901 11.3797C7.55997 11.3797 7.16733 10.8469 7.16733 10.1931C7.16733 9.54035 7.55517 9.00755 8.03901 9.00755C8.52189 9.00755 8.91069 9.53939 8.91069 10.1941C8.91069 10.8469 8.51709 11.3797 8.03901 11.3797ZM19.4659 11.0466C19.2307 9.47891 18.1152 8.30579 16.5705 8.00723C14.5641 7.61747 13.0694 9.02003 13.5437 10.9256C13.9449 12.5394 15.0749 13.5829 16.7241 14.0591C17.4057 14.2587 18.0969 14.1551 18.6614 13.6962C19.2989 13.1759 19.5254 12.4789 19.5379 11.6955C19.511 11.4843 19.4976 11.2635 19.4659 11.0466ZM15.8697 11.3797C15.3907 11.3797 14.9981 10.8469 14.9981 10.1931C14.9981 9.54035 15.3869 9.00659 15.8697 9.00659C16.3536 9.00659 16.7424 9.53939 16.7424 10.1931C16.7424 10.8469 16.3536 11.3797 15.8697 11.3797Z" fill="#141414"/>
<path d="M12.0846 15.0813C11.5105 15.5748 10.8596 15.8781 10.1012 15.9473C9.53193 15.9991 8.98953 15.882 8.46537 15.6881C8.41484 15.6722 8.368 15.6464 8.32759 15.6122C8.28718 15.5779 8.25402 15.536 8.23005 15.4888C8.20608 15.4415 8.19179 15.39 8.18802 15.3372C8.18425 15.2844 8.19107 15.2313 8.20809 15.1812C8.20809 15.1764 8.21289 15.1716 8.21289 15.1716C8.29353 14.9556 8.52393 14.8557 8.77257 14.9383C9.25257 15.0938 9.72585 15.1937 10.2414 15.1073C10.7559 15.0209 11.1764 14.7828 11.5422 14.4497C11.7188 14.2893 11.6958 14.1809 11.4922 14.0465C11.1754 13.8305 10.8375 13.6394 10.561 13.3802C9.96969 12.8167 10.1962 12.0679 11.0094 11.8865C11.7132 11.7306 12.4425 11.7306 13.1463 11.8865C13.9719 12.0689 14.1985 12.8301 13.5841 13.3975C13.3134 13.6481 12.9831 13.8391 12.6721 14.0465C12.4551 14.1933 12.4369 14.2893 12.6308 14.4621C13.345 15.1034 14.1716 15.2973 15.1153 15.0285C15.1969 15.0074 15.2737 14.9777 15.3553 14.9517C15.626 14.8653 15.8612 14.9517 15.9466 15.1629C16.0369 15.3837 15.9284 15.6093 15.6625 15.7044C14.9578 15.9559 14.2436 16.0509 13.5025 15.8522C12.9745 15.7082 12.5185 15.4452 12.0846 15.0813Z" fill="#141414"/>
</g>
</g>
</g>
<defs>
<clipPath id="clip0_5_12797">
<rect width="24" height="22.98" fill="white"/>
</clipPath>
<clipPath id="clip1_5_12797">
<rect width="24" height="22.98" fill="white"/>
</clipPath>
<clipPath id="clip2_5_12797">
<rect width="24" height="22.98" fill="white"/>
</clipPath>
</defs>
</svg>
