<svg width="67" height="56" viewBox="0 0 67 56" fill="none" xmlns="http://www.w3.org/2000/svg">
<g clip-path="url(#clip0_5_12646)">
<g clip-path="url(#clip1_5_12646)">
<g clip-path="url(#clip2_5_12646)">
<mask id="mask0_5_12646" style="mask-type:luminance" maskUnits="userSpaceOnUse" x="0" y="0" width="67" height="56">
<path d="M0.5271 0.282715H66.5418V55.4592H0.5271V0.282715Z" fill="white"/>
</mask>
<g mask="url(#mask0_5_12646)">
<path opacity="0.3" d="M55.467 50.9555C54.0088 51.6619 52.452 52.2492 50.8628 52.7369C49.2012 53.2433 47.5132 53.6584 45.8062 53.9803C39.2836 55.2336 33.5245 55.1499 33.5245 55.1499C33.5245 55.1499 25.921 55.2612 18.2919 53.3251C17.5233 53.1329 16.7603 52.9187 16.004 52.6827C10.3307 50.9062 5.06827 47.8567 3.42578 42.6199C4.45918 42.924 5.37696 43.5324 6.05947 44.3658C8.41235 47.2202 12.8895 49.0657 15.8769 50.0421L15.8257 49.1228H50.7199L50.7238 49.2282L53.0481 48.5671C53.9572 49.252 54.7704 50.0556 55.4661 50.9564L55.467 50.9555Z" fill="#000072"/>
<path d="M21.437 11.2717C21.437 16.612 17.0465 20.9414 11.6304 20.9414C9.02921 20.9414 6.53445 19.9226 4.69392 18.1097C3.78566 17.2173 3.06392 16.1532 2.57067 14.9792C2.07743 13.8053 1.82253 12.5451 1.8208 11.2717C1.8208 5.92948 6.21127 1.6001 11.6304 1.6001C12.9182 1.6001 14.1931 1.84938 15.3844 2.33611C16.5716 2.82051 17.6525 3.53283 18.5659 4.43282C19.4745 5.3283 20.1969 6.39487 20.6912 7.57098C21.1838 8.74348 21.438 10.0017 21.437 11.2717Z" fill="#60547B"/>
<path opacity="0.3" d="M21.436 11.2718C21.436 16.6121 17.0446 20.9414 11.6284 20.9414C9.26283 20.9463 6.97437 20.1003 5.18066 18.558C7.17786 13.3951 10.922 7.49612 17.9254 3.85645C19.0229 4.76002 19.9077 5.89441 20.5168 7.17886C21.1237 8.45974 21.437 9.85787 21.436 11.2718Z" fill="#000072"/>
<path opacity="0.6" d="M11.0333 3.35588C12.5083 3.35588 13.9655 3.683 15.2947 4.31457C16.6201 4.94316 17.7873 5.86178 18.7097 7.00246C19.627 8.13709 20.2739 9.46567 20.6015 10.8875C20.9276 12.3055 20.9249 13.7793 20.5936 15.1962C21.2567 13.7257 21.5366 12.1113 21.4072 10.5035C21.2778 8.89572 20.7433 7.34686 19.8536 6.0014C18.9589 4.64697 17.7404 3.53719 16.3085 2.77259C14.8696 2.00329 13.263 1.60089 11.6314 1.60107C6.96894 1.60107 3.07112 4.80624 2.07104 9.1031C3.59628 5.71665 7.03496 3.35588 11.0333 3.35588Z" fill="white"/>
<path d="M11.6285 21.6252C5.83886 21.6252 1.12817 16.9805 1.12817 11.2697C1.12817 5.56094 5.83788 0.91626 11.6285 0.91626C17.419 0.91626 22.1307 5.56192 22.1307 11.2707C22.1307 16.9795 17.419 21.6252 11.6285 21.6252ZM11.6285 2.28385C6.60345 2.28385 2.51448 6.31469 2.51448 11.2697C2.51448 16.2258 6.60345 20.2586 11.6285 20.2586C16.6554 20.2586 20.7444 16.2267 20.7444 11.2707C20.7444 6.31469 16.6554 2.28286 11.6285 2.28286V2.28385Z" fill="#000072"/>
<path d="M45.6123 11.2717C45.6123 16.612 50.0028 20.9414 55.4199 20.9414C58.0211 20.9414 60.5159 19.9226 62.3544 18.1097C63.263 17.2174 63.9851 16.1534 64.4787 14.9795C64.9723 13.8056 65.2275 12.5452 65.2295 11.2717C65.2295 5.92948 60.8381 1.6001 55.4199 1.6001C54.1312 1.6001 52.8562 1.84938 51.666 2.33611C50.4784 2.82045 49.3972 3.53276 48.4835 4.43282C47.5748 5.3283 46.8525 6.39487 46.3582 7.57098C45.8658 8.74265 45.6122 10.0008 45.6123 11.2717Z" fill="#60547B"/>
<path opacity="0.3" d="M45.6123 11.2718C45.6123 16.6121 50.0028 20.9414 55.4199 20.9414C57.7855 20.9463 60.074 20.1003 61.8677 18.558C59.8695 13.3951 56.1264 7.49612 49.1219 3.85645C48.0245 4.76002 47.1397 5.89441 46.5306 7.17886C45.9246 8.45813 45.611 9.85623 45.6123 11.2718Z" fill="#000072"/>
<path opacity="0.6" d="M56.014 3.35588C54.5402 3.35539 53.0849 3.68322 51.7536 4.31556C50.4284 4.94458 49.2616 5.86354 48.3396 7.00443C47.4225 8.13879 46.7755 9.46701 46.4478 10.8885C46.1222 12.3062 46.1253 13.7797 46.4567 15.1962C45.7936 13.7257 45.5137 12.1113 45.6431 10.5035C45.7725 8.89572 46.3069 7.34686 47.1966 6.0014C48.0916 4.64685 49.3105 3.53705 50.7427 2.77259C52.1817 2.00332 53.7882 1.60093 55.4199 1.60107C60.0823 1.60107 63.9801 4.80624 64.9802 9.1031C64.197 7.38405 62.9345 5.92745 61.3442 4.90804C59.7538 3.88863 57.9031 3.34969 56.014 3.35588Z" fill="white"/>
<path d="M55.4209 21.6252C49.6304 21.6252 44.9197 16.9805 44.9197 11.2697C44.9197 5.56094 49.6304 0.91626 55.4209 0.91626C61.2105 0.91626 65.9222 5.56192 65.9222 11.2707C65.9222 16.9795 61.2115 21.6252 55.4209 21.6252ZM55.4209 2.28385C50.395 2.28385 46.305 6.31469 46.305 11.2697C46.305 16.2258 50.394 20.2586 55.4209 20.2586C60.4459 20.2586 64.5359 16.2267 64.5359 11.2707C64.5359 6.31469 60.4469 2.28286 55.4209 2.28286V2.28385Z" fill="#000072"/>
<path d="M62.0538 28.8444C62.0538 28.8444 61.4449 2.43652 33.5246 2.43652C5.60337 2.43652 4.99445 28.8444 4.99445 28.8444C-6.57783 53.7822 33.5246 53.1959 33.5246 53.1959C33.5246 53.1959 73.6261 53.7832 62.0538 28.8444Z" fill="white"/>
<path d="M33.7247 53.2886H33.5218C33.4696 53.2886 27.9155 53.3566 21.6214 52.193C15.8022 51.119 8.1406 48.7425 4.68912 43.5283C2.11356 39.6364 2.18647 34.6882 4.90292 28.8228C4.91672 28.4237 5.1926 21.9691 8.70813 15.5972C10.8305 11.7506 13.6996 8.68533 17.2388 6.48615C21.6588 3.73915 27.1381 2.34595 33.5237 2.34595C39.9094 2.34595 45.3896 3.73915 49.8107 6.48615C53.3479 8.68533 56.217 11.7506 58.3403 15.5972C61.8559 21.9681 62.1318 28.4237 62.1456 28.8228C64.863 34.6892 64.9349 39.6354 62.3594 43.5263C58.9069 48.7415 51.2452 51.117 45.4271 52.192C39.808 53.2324 34.78 53.2886 33.7247 53.2886ZM33.5218 53.1073C33.5809 53.1073 39.1182 53.1743 45.3956 52.0136C51.1792 50.9456 58.7887 48.5888 62.2047 43.4278C64.7467 39.5891 64.6679 34.6951 61.9692 28.8829L61.9613 28.8464C61.9613 28.7804 61.7672 22.1858 58.1738 15.678C54.8632 9.67851 47.8982 2.52724 33.5237 2.52724C19.1483 2.52724 12.1842 9.67851 8.87169 15.678C5.28029 22.1848 5.08816 28.7804 5.0852 28.8464L5.07732 28.8829C2.37959 34.6951 2.30076 39.5891 4.84184 43.4278C8.25785 48.5888 15.8673 50.9456 21.651 52.0146C27.9283 53.1733 33.4666 53.1073 33.5228 53.1063L33.5218 53.1073Z" fill="#000072"/>
<path d="M22.4008 33.096C22.4008 33.096 23.924 28.1794 26.9124 24.7624C28.5303 22.913 28.8022 20.2133 27.4366 18.1747C26.5695 16.8781 25.0472 15.8416 22.3998 15.8416C15.3431 15.8416 10.3565 24.6107 10.2156 30.013C10.0747 35.4154 13.3203 37.9525 15.5313 38.1447C17.7423 38.3358 21.2253 37.6885 22.4008 33.096ZM44.6507 33.096C44.6507 33.096 43.1274 28.1794 40.14 24.7624C38.5221 22.913 38.2482 20.2133 39.6148 18.1747C40.4819 16.8781 42.0042 15.8416 44.6516 15.8416C51.7083 15.8416 56.6949 24.6107 56.8358 30.013C56.9767 35.4154 53.7321 37.9525 51.5201 38.1447C49.3091 38.3358 45.8261 37.6885 44.6507 33.096Z" fill="#60547B"/>
<path opacity="0.3" d="M33.5236 53.198C33.5236 53.198 -5.62904 53.7694 4.60422 29.7253C-0.844453 49.6588 33.5226 49.2302 33.5226 49.2302C33.5226 49.2302 68.4868 49.6066 62.1424 29.0415C73.4122 53.7793 33.5236 53.198 33.5236 53.198Z" fill="#000072"/>
<path opacity="0.3" d="M40.3774 32.1108C40.3365 32.059 40.2817 32.0199 40.2194 31.9981C40.1572 31.9763 40.09 31.9726 40.0257 31.9876C39.9619 32.002 39.9034 32.0341 39.8569 32.08C39.8104 32.126 39.7778 32.1841 39.7626 32.2477C39.5537 33.1611 38.9744 34.6745 37.4215 34.6499C35.1987 34.6134 35.5692 31.293 35.5692 31.293H31.4753C31.4753 31.293 31.8458 34.6154 29.6229 34.6499C28.0691 34.6745 27.4898 33.1621 27.2819 32.2477C27.2675 32.1836 27.235 32.1249 27.1882 32.0788C27.1413 32.0326 27.0822 32.001 27.0178 31.9876C26.9537 31.9736 26.8869 31.9776 26.825 31.9994C26.763 32.0211 26.7083 32.0597 26.6671 32.1108C26.1311 32.7808 25.4276 34.0104 25.9537 35.4154C26.7469 37.5368 29.483 37.9703 29.483 37.9703L33.5227 35.38L37.5615 37.9693C37.5615 37.9693 40.2956 37.5358 41.0908 35.4135C41.615 34.0104 40.9124 32.7817 40.3774 32.1108Z" fill="#000072"/>
<path d="M37.6392 28.2236C36.1435 27.3792 33.5275 27.4255 33.5275 27.4255C33.5275 27.4255 30.9106 27.3782 29.4139 28.2236C29.1751 28.3615 28.9942 28.581 28.9044 28.8417C28.8146 29.1024 28.822 29.3868 28.9252 29.6424C29.3666 30.746 30.5529 32.5983 33.5265 32.5983C36.5021 32.5983 37.6864 30.746 38.1288 29.6424C38.2322 29.3867 38.2395 29.1021 38.1495 28.8414C38.0595 28.5806 37.8783 28.3612 37.6392 28.2236Z" fill="#000072"/>
<path d="M34.3119 31.6851C34.3217 31.7836 34.3257 31.8427 34.3316 31.9176L34.3405 32.1294C34.3444 32.2693 34.3454 32.4093 34.3405 32.5482C34.3296 32.827 34.3011 33.1059 34.2567 33.3817C34.1652 33.9592 33.977 34.5172 33.7 35.0321C33.5486 35.3032 33.3671 35.5563 33.1591 35.7868C32.944 36.022 32.6977 36.2266 32.427 36.3948C32.1585 36.5602 31.8711 36.6925 31.5708 36.7889C31.2821 36.8776 30.9846 36.9367 30.6821 36.9613C30.113 37.0068 29.5405 36.9764 28.9795 36.8707C28.6905 36.8163 28.4079 36.7324 28.1361 36.6204C27.8511 36.5074 27.5832 36.3556 27.34 36.1691C26.8443 35.7918 26.463 35.2361 26.3399 34.6538C26.2787 34.3708 26.2674 34.0794 26.3064 33.7926C26.3409 33.5118 26.4305 33.2408 26.5704 32.9945C26.5878 32.9645 26.6138 32.9403 26.6451 32.9254C26.6764 32.9104 26.7115 32.9053 26.7458 32.9108C26.7799 32.9157 26.8117 32.9307 26.8372 32.9539C26.8626 32.9771 26.8806 33.0074 26.8887 33.0408L26.8936 33.0625C27.004 33.5404 27.1301 33.9847 27.3074 34.3513C27.4848 34.7168 27.7114 35.0144 28.0385 35.2134C28.206 35.3178 28.3873 35.3967 28.5775 35.4499C28.7792 35.51 28.986 35.5516 29.1953 35.574C29.6308 35.6233 30.0702 35.6154 30.5037 35.5514C30.7028 35.5188 30.8979 35.4686 31.088 35.4016C31.6186 35.2035 32.0528 34.8091 32.3009 34.3C32.4832 33.9286 32.6073 33.5335 32.6694 33.1256C32.7049 32.9118 32.7285 32.695 32.7384 32.4782C32.7433 32.3698 32.7482 32.2615 32.7482 32.1531V31.9915L32.7423 31.8526L32.7403 31.8043C32.7306 31.601 32.8014 31.402 32.9374 31.2506C33.0744 31.0973 33.2655 31.003 33.4705 30.9876C33.6755 30.9722 33.8786 31.0367 34.037 31.1678C34.1946 31.2972 34.295 31.4833 34.3168 31.6861L34.3119 31.6851Z" fill="#000072"/>
<path d="M34.3128 31.8526L34.3069 31.9905V32.1521C34.3064 32.4782 34.3328 32.8038 34.3857 33.1256C34.4478 33.5325 34.5719 33.9286 34.7542 34.299C35.0005 34.8065 35.434 35.2016 35.9671 35.4016C36.1572 35.4686 36.3523 35.5188 36.5514 35.5514C36.9849 35.6154 37.4253 35.6223 37.8608 35.573C38.0697 35.5514 38.2766 35.51 38.4786 35.4509C38.6668 35.3967 38.8471 35.3169 39.0136 35.2144C39.3407 35.0144 39.5673 34.7168 39.7457 34.3503C39.923 33.9847 40.0482 33.5404 40.1585 33.0625L40.1634 33.0408C40.1716 33.0072 40.1897 32.9769 40.2152 32.9536C40.2408 32.9304 40.2727 32.9153 40.307 32.9103C40.3412 32.9053 40.3761 32.9107 40.4072 32.9257C40.4383 32.9407 40.4643 32.9647 40.4817 32.9945C40.6216 33.2408 40.7113 33.5118 40.7458 33.7926C40.7852 34.0783 40.7733 34.37 40.7123 34.6538C40.5901 35.2361 40.2078 35.7918 39.7122 36.1691C39.4689 36.3556 39.201 36.5075 38.9161 36.6204C38.6442 36.732 38.3616 36.8156 38.0727 36.8697C37.511 36.9761 36.9396 37.0076 36.3691 36.9613C36.0675 36.9353 35.7696 36.8772 35.4803 36.7879C35.1804 36.6915 34.8932 36.5592 34.6251 36.3938C34.3541 36.2257 34.1074 36.0211 33.892 35.7859C33.6846 35.5555 33.5035 35.3027 33.3521 35.0321C33.0745 34.5174 32.8863 33.9594 32.7954 33.3817C32.7508 33.1055 32.7228 32.8268 32.7117 32.5472C32.7058 32.408 32.7058 32.2686 32.7117 32.1294L32.7215 31.9176C32.7255 31.8417 32.7294 31.7826 32.7402 31.6851C32.7623 31.483 32.8628 31.2976 33.0201 31.1688C33.1784 31.0388 33.3807 30.9747 33.585 30.9897C33.7894 31.0047 33.9801 31.0978 34.1177 31.2496C34.254 31.4002 34.3255 31.5984 34.3167 31.8013L34.3128 31.8526Z" fill="#000072"/>
<path d="M33.5275 32.7944C33.5275 33.0043 33.5186 33.2083 33.5068 33.3994C33.4918 33.1981 33.4842 32.9963 33.4841 32.7944H33.5275Z" fill="#222A66"/>
<path d="M33.4143 33.4054C33.3999 33.2021 33.3926 32.9983 33.3926 32.7945V32.7029H33.6172V32.7935C33.6172 32.9866 33.6113 33.1867 33.5975 33.4044L33.4143 33.4054Z" fill="#000072"/>
<path d="M33.5266 42.878H33.5069C31.1619 42.878 29.8633 41.8395 29.15 40.5823C28.0583 38.6541 28.341 36.2105 28.341 36.2105C28.341 36.2105 33.1631 37.785 33.5069 33.0615C33.8498 37.785 38.6699 36.2105 38.6699 36.2105C38.6699 36.2105 39.4483 42.8622 33.5266 42.878Z" fill="#000072"/>
<path d="M33.5266 38.1445C30.4357 38.1445 29.1509 40.5821 29.1509 40.5821C29.8642 41.8394 31.1628 42.8789 33.5078 42.8789H33.5473C35.8923 42.8789 37.1909 41.8394 37.9042 40.5831C37.9032 40.5831 36.6174 38.1445 33.5266 38.1445Z" fill="#FF4379"/>
<path d="M33.508 43.5617C31.6852 43.5617 30.2447 42.9893 29.224 41.8601C27.2632 39.6925 27.6376 36.2775 27.6544 36.1316C27.6661 36.0303 27.7006 35.933 27.7552 35.8468C27.8097 35.7607 27.8831 35.6879 27.9697 35.6341C28.0567 35.579 28.1549 35.544 28.2571 35.5313C28.3593 35.5187 28.463 35.5289 28.5608 35.5612C28.5786 35.5671 30.5561 36.1878 31.7798 35.3119C32.3808 34.8823 32.7277 34.1256 32.8134 33.0615C32.8014 32.8794 32.7955 32.6971 32.7956 32.5146C32.7999 32.3305 32.8767 32.1556 33.0095 32.0279C33.1432 31.8994 33.3215 31.8276 33.507 31.8276C33.6925 31.8276 33.8708 31.8994 34.0046 32.0279C34.1386 32.156 34.2155 32.3314 34.2194 32.5146C34.2194 32.7018 34.2135 32.8841 34.2026 33.0615C34.2874 34.1256 34.6342 34.8823 35.2352 35.3119C36.459 36.1888 38.4345 35.5661 38.4562 35.5612C38.6032 35.514 38.7616 35.5166 38.907 35.5686C39.0523 35.6206 39.1765 35.7191 39.2602 35.8489C39.3143 35.9345 39.3486 36.0311 39.3607 36.1316C39.3774 36.2775 39.7508 39.6925 37.7911 41.8601C36.7703 42.9893 35.3288 43.5617 33.508 43.5617ZM29.0032 37.0588C29.017 38.052 29.2052 39.79 30.2625 40.9556C31.0083 41.7784 32.101 42.1951 33.508 42.1951C34.914 42.1951 36.0057 41.7784 36.7526 40.9556C37.8088 39.791 37.998 38.053 38.0108 37.0588C37.0827 37.2066 35.5968 37.2559 34.4283 36.4223C34.0608 36.1606 33.7485 35.8292 33.509 35.4469C33.2706 35.8282 32.9572 36.1602 32.5897 36.4223C31.4172 37.2559 29.9324 37.2076 29.0032 37.0588Z" fill="#000072"/>
<path d="M33.5226 28.8652C34.8379 28.8652 35.904 28.6937 35.904 28.4829C35.904 28.272 34.8379 28.1006 33.5226 28.1006C32.2072 28.1006 31.1401 28.272 31.1401 28.4829C31.1401 28.6937 32.2072 28.8652 33.5226 28.8652Z" fill="white"/>
<path d="M33.5217 28.9559C33.2685 28.9559 31.0486 28.9431 31.0486 28.4849C31.0486 28.0267 33.2685 28.012 33.5217 28.012C33.7749 28.012 35.9948 28.0248 35.9948 28.4849C35.9948 28.945 33.7749 28.9559 33.5217 28.9559ZM31.2368 28.4849C31.3304 28.5893 32.0802 28.7746 33.5227 28.7746C34.9632 28.7746 35.714 28.5874 35.8066 28.4849C35.714 28.3805 34.9641 28.1923 33.5217 28.1923C32.0802 28.1923 31.3314 28.3795 31.2368 28.4829V28.4849Z" fill="#000072"/>
<path d="M33.7217 53.8816H33.5266C33.2517 53.8846 27.738 53.926 21.5129 52.7761C12.8818 51.18 7.05375 48.1787 4.1895 43.8513C1.5095 39.8037 1.5499 34.7009 4.3097 28.6857C4.35404 27.6511 4.75506 21.5275 8.18191 15.3153C10.3535 11.377 13.2936 8.24084 16.9175 5.98451C21.4371 3.17643 27.0237 1.75366 33.5256 1.75366C40.0276 1.75366 45.6152 3.17741 50.1328 5.98451C53.7587 8.23788 56.6978 11.377 58.8694 15.3143C62.2972 21.5265 62.6992 27.6501 62.7426 28.6847C65.5014 34.6999 65.5438 39.8028 62.8638 43.8503C59.9995 48.1778 54.1705 51.1809 45.5393 52.7751C39.87 53.8225 34.7878 53.8816 33.7217 53.8816ZM33.5266 52.514H33.5365C33.7523 52.518 55.345 52.7131 61.7051 43.1015C64.1249 39.4441 64.0313 34.7433 61.4262 29.1281C61.3869 29.0437 61.3655 28.9521 61.3632 28.8591C61.3632 28.7941 61.1661 22.3049 57.6289 15.9222C52.9231 7.42699 44.8122 3.12027 33.5266 3.12027C22.2411 3.12027 14.1301 7.42699 9.42338 15.9232C5.88618 22.3069 5.6901 28.796 5.68912 28.8601C5.68668 28.9528 5.66521 29.044 5.62606 29.1281C3.02094 34.7433 2.92635 39.4441 5.34722 43.1025C11.7083 52.7141 33.3 52.518 33.5158 52.514H33.5266Z" fill="#000072"/>
<path d="M23.2314 25.5743C23.4797 23.1869 22.2481 21.107 20.4794 20.9286C18.7118 20.7493 17.0782 22.5406 16.8299 24.927C16.5816 27.3143 17.8132 29.3943 19.5818 29.5736C21.3495 29.751 22.9841 27.9626 23.2314 25.5743Z" fill="#000072"/>
<path d="M21.3532 23.5385C21.4321 22.7848 20.9463 22.1197 20.2694 22.0507C19.5915 21.9817 18.9787 22.5374 18.8999 23.2902C18.823 24.044 19.3078 24.709 19.9857 24.778C20.6625 24.847 21.2754 24.2913 21.3532 23.5385Z" fill="white"/>
<path opacity="0.3" d="M18.9385 26.3358C18.7624 26.3182 18.5849 26.3524 18.4281 26.4344C18.2719 26.5157 18.1433 26.6416 18.0586 26.796C17.9745 26.9495 17.9385 27.1248 17.9552 27.2991C17.9718 27.4733 18.0405 27.6386 18.1522 27.7734C18.2646 27.9101 18.415 28.0104 18.5844 28.0618C18.7538 28.1132 18.9346 28.1133 19.104 28.0621C19.2732 28.0121 19.424 27.9134 19.5375 27.7783C19.6219 27.6779 19.6827 27.5599 19.7155 27.4329C19.7482 27.3059 19.752 27.1732 19.7267 27.0446C19.7014 26.9159 19.6475 26.7946 19.5691 26.6895C19.4906 26.5844 19.3896 26.4982 19.2735 26.4373C19.1695 26.382 19.0557 26.3475 18.9385 26.3358Z" fill="white"/>
<path d="M47.1404 29.5707C48.908 29.3923 50.1406 27.3114 49.8923 24.925C49.644 22.5376 48.0104 20.7474 46.2418 20.9247C44.4742 21.104 43.2425 23.184 43.4898 25.5714C43.7381 27.9587 45.3718 29.749 47.1404 29.5707Z" fill="#000072"/>
<path d="M46.7375 24.7742C47.4144 24.7052 47.9002 24.0401 47.8214 23.2864C47.7435 22.5336 47.1317 21.9789 46.4538 22.0469C45.7769 22.1159 45.2911 22.7809 45.37 23.5347C45.4478 24.2875 46.0597 24.8432 46.7375 24.7742Z" fill="white"/>
<path opacity="0.3" d="M47.7838 26.3359C47.9593 26.3186 48.1359 26.3528 48.2922 26.4344C48.4485 26.5159 48.5776 26.6413 48.6637 26.7951C48.7481 26.9487 48.7844 27.1242 48.7677 27.2987C48.751 27.4732 48.6821 27.6386 48.5701 27.7735C48.4577 27.9102 48.3073 28.0105 48.1379 28.0619C47.9685 28.1133 47.7877 28.1134 47.6183 28.0622C47.449 28.0122 47.2983 27.9135 47.1848 27.7784C47.1002 27.6781 47.0393 27.5601 47.0064 27.4331C46.9736 27.306 46.9697 27.1733 46.995 27.0445C47.0204 26.9158 47.0743 26.7944 47.1529 26.6893C47.2314 26.5843 47.3326 26.4982 47.4488 26.4374C47.5528 26.3821 47.6666 26.3476 47.7838 26.3359Z" fill="white"/>
</g>
</g>
</g>
</g>
<defs>
<clipPath id="clip0_5_12646">
<rect width="67" height="55.98" fill="white"/>
</clipPath>
<clipPath id="clip1_5_12646">
<rect width="67" height="55.98" fill="white"/>
</clipPath>
<clipPath id="clip2_5_12646">
<rect width="67" height="55.98" fill="white"/>
</clipPath>
</defs>
</svg>
