<svg width="141" height="182" viewBox="0 0 141 182" fill="none" xmlns="http://www.w3.org/2000/svg">
<g clip-path="url(#clip0_5_1778)">
<g clip-path="url(#clip1_5_1778)">
<g clip-path="url(#clip2_5_1778)">
<g clip-path="url(#clip3_5_1778)">
<mask id="mask0_5_1778" style="mask-type:luminance" maskUnits="userSpaceOnUse" x="0" y="0" width="141" height="182">
<path d="M0.307373 0H140.694V181.5H0.307373V0Z" fill="white"/>
</mask>
<g mask="url(#mask0_5_1778)">
<path d="M62.3584 109.728C62.3584 109.728 71.5477 112.751 68.7771 121.147C68.7771 121.147 67.8546 129.355 70.1619 133.499C72.2156 137.188 74.5319 141.616 71.8686 145.535C68.5434 150.429 57.4649 157.046 42.9199 157.859C27.8664 158.701 21.8308 152.125 23.2637 147.489C24.6977 142.853 25.3866 139.618 24.0328 136.603C22.6791 133.589 17.4056 127.103 23.9215 121.917C30.4365 116.73 62.3584 109.728 62.3584 109.728Z" fill="#52BF2E"/>
<path d="M62.3584 109.728C62.3584 109.728 71.5477 112.751 68.7771 121.147C68.7771 121.147 67.8546 129.355 70.1619 133.499C72.2156 137.188 74.5319 141.616 71.8686 145.535C68.5434 150.429 57.4649 157.046 42.9199 157.859C27.8664 158.701 21.8308 152.125 23.2637 147.489C24.6977 142.853 25.3866 139.618 24.0328 136.603C22.6791 133.589 17.4056 127.103 23.9215 121.917C30.4365 116.73 62.3584 109.728 62.3584 109.728Z" fill="#52BF2E"/>
<path opacity="0.5" d="M33.847 153.506C30.5198 153.235 26.2892 150.648 26.6712 148.12C27.3631 143.491 28.5103 140.836 26.4686 136.231C24.1773 131.063 24.9073 128.848 26.0525 129.736C27.1987 130.626 28.9044 132.066 33.5963 133.912C38.1919 135.719 32.8091 137.814 34.0365 144.568C34.9951 149.845 37.1731 153.776 33.847 153.506Z" fill="white"/>
<path d="M60.1424 113.198C60.1424 113.198 67.982 115.776 65.6185 122.938C65.6185 122.938 64.8303 129.941 66.7987 133.476C68.5506 136.623 70.527 140.401 68.2558 143.744C65.4179 147.92 55.9669 153.564 43.5577 154.258C30.7143 154.977 52.9115 149.746 49.3657 139.428C46.7305 131.76 21.7897 128.016 27.3491 123.591C32.9084 119.165 60.1424 113.198 60.1424 113.198Z" fill="#469B19"/>
<path d="M40.2937 158.955C29.4609 158.955 25.0868 154.981 23.6579 153.168C22.1638 151.274 21.6744 149.15 22.2811 147.187C23.7361 142.48 24.2605 139.614 23.0933 137.013C22.9028 136.588 22.617 136.07 22.2861 135.471C20.4691 132.175 17.0878 126.04 23.2768 121.114C29.9031 115.838 60.8233 109.018 62.1369 108.731C62.3174 108.691 62.5059 108.7 62.6814 108.759C62.7837 108.793 65.2154 109.606 67.3071 111.54C69.2916 113.374 71.3232 116.566 69.788 121.356C69.6967 122.279 69.068 129.428 71.0565 133.003C72.9517 136.406 75.8126 141.547 72.717 146.104C68.9125 151.702 57.1973 158.078 42.9731 158.877C42.0405 158.93 41.1481 158.956 40.2937 158.955ZM62.2903 110.789C59.0805 111.506 30.4947 117.985 24.5604 122.706C20.088 126.267 21.7847 130.312 24.0871 134.491C24.439 135.129 24.7439 135.681 24.9675 136.181C26.5378 139.676 25.6143 143.349 24.2435 147.784C23.8394 149.091 24.2054 150.556 25.2723 151.91C28.07 155.455 34.6451 157.294 42.8588 156.839C57.2594 156.033 67.992 149.409 71.0113 144.962C73.2244 141.706 71.5258 138.067 69.2565 133.991C66.8198 129.615 67.7122 121.381 67.7524 121.032C67.7599 120.963 67.7747 120.894 67.7965 120.828C69.9995 114.166 63.6852 111.327 62.2903 110.789Z" fill="#232333"/>
<path d="M56.6939 87.6314C56.6939 87.6314 60.3911 98.2727 63.5147 100.23C66.5661 102.144 69.4871 105.416 63.267 113.122C57.7749 119.922 43.2749 128.53 31.321 127.147C21.0828 125.963 18.969 122.067 20.9695 115.989C20.9695 115.989 22.0535 105.48 18.3272 100.004C13.9842 92.9911 16.6847 90.379 19.4804 87.3997C24.5152 82.029 45.6685 70.4631 54.2201 73.1154C60.5575 75.0808 55.3081 83.7146 56.6939 87.6314Z" fill="#52BF2E"/>
<path d="M54.92 89.0553C54.92 89.0553 58.189 98.4653 60.9516 100.196C63.65 101.889 66.2321 104.781 60.732 111.593C57.0398 116.164 48.749 121.657 40.3418 123.494C37.6885 124.075 44.4712 114.778 42.2772 106.126C40.8262 100.411 30.977 99.8521 26.0655 97.6691C22.263 95.9804 22.5388 93.4143 23.7571 93.2619C50.942 89.8776 48.4141 74.7249 52.8834 74.8452C57.4289 74.9685 53.6956 85.5948 54.921 89.0563L54.92 89.0553Z" fill="#469B19"/>
<path d="M33.9411 128.314C33.0265 128.315 32.113 128.263 31.2035 128.159C25.4998 127.5 21.934 125.951 20.3055 123.424C19.045 121.469 18.9317 118.967 19.9595 115.781C20.0558 114.698 20.7617 105.397 17.4787 100.576L17.4546 100.539C12.7978 93.0194 15.7199 89.9098 18.5446 86.9025L18.7291 86.705C23.9515 81.1356 45.527 69.3512 54.5278 72.1419C59.4604 73.6711 58.615 78.4633 57.9372 82.3139C57.6042 84.1971 57.2613 86.1444 57.6674 87.2976V87.3026C59.0522 91.2866 62.0134 98.0863 64.065 99.3719C65.497 100.269 67.4484 101.758 67.8816 104.325C68.3238 106.952 67.0773 110.038 64.0741 113.762C58.97 120.071 45.8027 128.314 33.9431 128.314H33.9411ZM19.1904 99.4511C23.0661 105.17 22.0363 115.648 21.9911 116.091C21.9836 116.164 21.9682 116.235 21.945 116.305C21.0826 118.925 21.1117 120.894 22.0333 122.323C23.3088 124.302 26.3852 125.548 31.4372 126.133C43.2146 127.496 57.2583 118.925 62.4626 112.481C65.0457 109.282 66.1849 106.65 65.849 104.657C65.6183 103.301 64.7309 102.202 62.964 101.094C59.6338 99.0059 56.1161 89.1006 55.7221 87.9665C55.1385 86.3139 55.5115 84.1991 55.9066 81.9599C56.6606 77.6821 56.9033 75.0168 53.9091 74.0882C50.4415 73.0133 43.8995 74.5024 35.9616 78.1735C29.3855 81.2169 22.7653 85.3924 20.2293 88.0948L20.0428 88.2944C17.3303 91.1823 15.3689 93.2721 19.1904 99.4511Z" fill="#232333"/>
<path d="M34.9138 133.595C34.9138 133.595 38.5619 139.865 34.0976 140.836C30.257 141.67 20.3507 135.574 16.3417 129.958C13.5359 126.029 13.7084 123.239 16.5522 123.979C19.726 124.804 23.3941 129.172 32.6486 131.7" fill="#52BF2E"/>
<path d="M34.9138 133.595C34.9138 133.595 38.5619 139.865 34.0976 140.836C30.257 141.67 20.3507 135.574 16.3417 129.958C13.5359 126.029 13.7084 123.239 16.5522 123.979C19.726 124.804 23.3941 129.172 32.6486 131.7L34.9138 133.595Z" fill="#52BF2E"/>
<path d="M34.9138 133.595C34.9138 133.595 38.5619 139.865 34.0976 140.836C30.257 141.67 20.3507 135.574 16.3417 129.958C13.5359 126.029 13.7084 123.239 16.5522 123.979C19.726 124.804 23.3941 129.172 32.6486 131.7L34.9138 133.595Z" fill="#52BF2E"/>
<path d="M34.7043 138.598C34.6341 138.869 34.4967 139.171 33.7657 139.328C32.6416 139.571 29.8349 138.793 26.1016 136.502C34.254 135.845 18.1717 129.946 16.1592 125.473C17.1058 125.718 18.268 126.462 19.739 127.404C22.4194 129.118 26.0715 131.454 31.9036 133.098C31.9036 133.098 35.5777 136.424 34.7043 138.598Z" fill="#469B19"/>
<path d="M35.2508 133.401C36.4621 135.177 37.6103 137.593 36.7389 139.752C35.9958 141.506 33.7276 141.945 32.06 141.592C26.618 140.465 20.5924 136.111 16.8922 132.058C16.077 131.139 15.3523 130.143 14.7282 129.085C14.0834 127.931 13.5169 126.798 13.4597 125.391C13.3935 123.856 14.5517 122.812 16.088 123.026C17.7245 123.246 19.1594 124.234 20.4099 125.015C22.8697 126.642 25.2893 128.109 27.9507 129.279C29.525 130.02 31.1475 130.634 32.7499 131.325C33.1771 131.501 32.9986 132.144 32.5413 132.076C30.1758 131.715 27.8684 130.968 25.7075 129.944C23.5345 128.934 21.4828 127.657 19.5154 126.409C18.4695 125.785 16.3336 124.35 15.3289 124.816C14.8425 125.641 15.7851 127.398 16.2484 128.212C17.9952 131.12 20.5753 133.426 23.3079 135.457C25.3024 136.986 34.5689 142.956 35.5386 138.494C35.7461 136.922 35.1324 135.295 34.5709 133.789C34.3824 133.36 34.979 133.029 35.2508 133.4V133.401Z" fill="#232333"/>
<path d="M15.331 128.813C15.5887 129.55 13.7988 133.417 8.57638 133.501C4.14417 133.573 1.15594 131.741 1.24919 129.772C1.34847 127.73 5.97622 125.98 8.81403 126.078C12.4641 126.205 15.0713 128.076 15.331 128.813Z" fill="#52BF2E"/>
<path opacity="0.5" d="M4.40373 130.067C4.45788 131.222 6.63388 131.973 5.17285 131.808C3.78202 131.652 2.83341 130.695 2.93067 129.882C3.03195 129.03 4.61832 128.061 5.41452 128.136C6.2438 128.214 4.35359 128.965 4.40373 130.067Z" fill="white"/>
<path d="M13.1419 129.116C13.0837 130.491 9.88989 132.851 6.7693 132.022C8.96936 131.419 10.1125 129.984 10.0483 129.221C10.0152 128.825 9.11676 128.053 6.75024 127.668C8.66753 126.817 13.186 128.1 13.1419 129.116Z" fill="#469B19"/>
<path d="M8.32557 134.438C5.32631 134.438 2.72515 133.598 1.33431 132.171C0.622352 131.44 0.268377 130.596 0.310493 129.727C0.453888 126.753 6.00017 125.049 8.84902 125.144C12.6756 125.276 15.7721 127.224 16.2193 128.505C16.5542 129.461 15.7079 130.773 15.4412 131.152C14.7623 132.117 12.7357 134.367 8.59231 134.435C8.50206 134.437 8.41582 134.438 8.32557 134.438ZM8.54618 127.008C5.73744 127.008 2.24181 128.698 2.18867 129.816C2.16661 130.245 2.44738 130.626 2.68604 130.871C3.51733 131.722 5.49578 132.61 8.55721 132.565C12.6284 132.5 14.2469 129.854 14.3983 129.079C13.9511 128.524 11.7911 127.116 8.77983 127.011C8.70462 127.01 8.6264 127.008 8.54919 127.008H8.54618Z" fill="#232333"/>
<path d="M20.2013 118.014C20.823 120.9 20.5071 124.193 18.5688 124.226C16.6305 124.259 13.7656 121.565 13.4146 116.974C13.1118 113.025 15.02 111.967 15.7691 111.897C17.2863 111.757 19.2106 113.411 20.2013 118.014Z" fill="#52BF2E"/>
<path d="M19.4953 118.014C19.9766 120.255 19.7329 122.813 18.2258 122.838C16.7186 122.864 14.4955 120.772 14.2217 117.206C13.9871 114.138 15.4702 113.316 16.0508 113.262C17.231 113.153 18.7251 114.438 19.4953 118.014Z" fill="#52BF2E"/>
<path opacity="0.5" d="M15.0251 114.653C15.1856 114.882 15.1825 115.913 15.2387 116.651C15.4744 119.752 16.813 121.521 16.6877 121.737C16.5624 121.953 14.6431 119.899 14.3924 117.264C14.243 115.702 14.8647 114.424 15.0251 114.653Z" fill="white"/>
<path d="M18.7693 118.207C19.0571 119.518 19.0671 122.135 18.5126 122.682C18.2599 122.933 17.7264 122.597 17.4096 122.162C18.5647 119.908 17.0165 113.791 15.4421 113.912C16.2985 112.562 17.8789 114.378 18.7693 118.207Z" fill="#469B19"/>
<path d="M18.5266 125.162C15.8923 125.162 12.8459 121.922 12.4729 117.045C12.1119 112.336 14.665 111.061 15.6787 110.968C16.5913 110.88 19.6788 111.129 21.1187 117.82C21.577 119.949 21.6482 122.746 20.474 124.214C19.9896 124.821 19.3348 125.149 18.5817 125.161L18.5266 125.162ZM15.9455 112.824C15.9144 112.824 15.8833 112.824 15.8532 112.828C15.4722 112.864 14.1014 113.658 14.3491 116.904C14.67 121.116 17.23 123.294 18.5306 123.294H18.5497C18.686 123.294 18.8354 123.26 19.0009 123.053C19.6026 122.3 19.7199 120.263 19.2777 118.211C18.4785 114.48 17.0094 112.824 15.9455 112.824Z" fill="#232333"/>
<path opacity="0.5" d="M31.2979 123.328C29.3064 124.291 21.8369 122.751 23.1896 118.464C24.5684 114.091 24.079 109.077 23.3841 105.445C22.7945 102.364 20.5994 98.756 21.1911 98.0711C21.7837 97.3852 23.8424 100.844 29.133 102.706C34.3052 104.528 29.9071 108.651 29.7246 113.45C29.514 118.97 34.3142 121.869 31.2979 123.328Z" fill="white"/>
<path d="M20.4409 91.1442C20.4409 91.1442 39.6859 91.3247 48.5875 75.8782C48.5875 75.8782 40.3377 76.9812 32.7017 81.4265C29.3314 83.3889 32.3778 84.54 31.6057 86.7351C30.4324 90.0643 20.4409 91.1442 20.4409 91.1442Z" fill="#469B19"/>
<path d="M20.4409 91.1442C29.189 89.614 37.8409 86.5556 44.3869 80.4448C45.9111 79.0289 47.2528 77.5026 48.5885 75.8782C48.0687 77.1922 47.4133 78.4484 46.6331 79.6265C41.1389 87.9294 30.2219 92.2092 20.4409 91.1422V91.1442Z" fill="#232333"/>
<path d="M88.5154 93.5066L89.0799 101.056L90.0145 113.55L90.0486 114.013C108.462 113.383 124.06 108.066 133.242 98.1274C134.696 96.5561 135.995 94.8486 137.122 93.0283C137.62 92.2281 138.053 91.3898 138.417 90.5214C143.051 79.5291 134.106 68.947 122.409 78.9876C121.277 79.9596 120.114 80.8947 118.921 81.7914C114.377 85.2128 109.177 88.2311 103.326 90.363C98.5626 92.1055 93.5761 93.1639 88.5154 93.5066Z" fill="#60567C"/>
<path d="M103.423 90.3298C99.4255 94.4753 94.3776 97.1677 88.9135 98.8152L88.5144 93.5066C93.5748 93.1639 98.5612 92.1066 103.325 90.3659L103.423 90.3298Z" fill="#777782"/>
<path opacity="0.25" d="M103.423 90.3298C99.4255 94.4753 94.3776 97.1677 88.9135 98.8152L88.5144 93.5066C93.5748 93.1639 98.5612 92.1066 103.325 90.3659L103.423 90.3298Z" fill="#181558"/>
<path d="M66.915 97.9048L65.3758 100.737C60.4663 100.313 55.9468 99.4942 52.3098 98.5887C54.925 97.1447 58.1108 95.8792 61.9895 95.0068L66.915 97.9048Z" fill="#5E5E68"/>
<path d="M96.1165 95.8442C83.598 102.661 66.555 101.597 55.295 99.2666C54.545 94.0963 54.7686 82.7751 71.1206 82.7751C86.0818 82.7751 93.2165 91.0068 96.1165 95.8442Z" fill="#5E5E68"/>
<path opacity="0.25" d="M90.0157 113.55L90.0497 114.013C108.462 113.383 124.06 108.066 133.242 98.1274C134.696 96.556 135.996 94.8485 137.123 93.0284C137.62 92.2282 138.053 91.3899 138.418 90.5215C138.303 90.6809 120.917 111.017 98.5482 104.444C94.7457 108.577 92.0422 110.958 90.0157 113.55Z" fill="#181558"/>
<path d="M131.856 90.9246C132.257 90.5277 132.576 90.0551 132.793 89.5343C133.01 89.0134 133.122 88.4546 133.122 87.8903C133.122 87.3259 133.01 86.7671 132.793 86.2463C132.576 85.7254 132.257 85.2529 131.856 84.8559C131.043 84.051 129.945 83.5994 128.801 83.5994C127.657 83.5994 126.559 84.051 125.746 84.8559C125.345 85.253 125.027 85.7256 124.81 86.2464C124.593 86.7673 124.481 87.326 124.481 87.8903C124.481 88.4546 124.593 89.0133 124.81 89.5341C125.027 90.0549 125.345 90.5275 125.746 90.9246C126.559 91.7296 127.657 92.1811 128.801 92.1811C129.945 92.1811 131.043 91.7296 131.856 90.9246ZM127.304 82.7311C128.213 82.7311 128.949 82 128.949 81.0986C128.949 80.1961 128.213 79.4661 127.304 79.4661C126.397 79.4661 125.66 80.1971 125.66 81.0986C125.66 82.001 126.397 82.7311 127.304 82.7311ZM135.522 87.6185C136.431 87.6185 137.167 86.8865 137.167 85.986C137.167 85.0835 136.431 84.3525 135.522 84.3525C134.615 84.3525 133.879 85.0845 133.879 85.986C133.879 86.8875 134.615 87.6185 135.522 87.6185ZM133.457 83.419C133.69 83.2802 133.893 83.0967 134.054 82.8792C134.215 82.6616 134.332 82.4143 134.397 82.1515C134.462 81.8886 134.474 81.6155 134.433 81.3479C134.392 81.0802 134.298 80.8234 134.157 80.5922C133.87 80.1246 133.41 79.7895 132.877 79.6595C132.344 79.5296 131.781 79.6154 131.31 79.8983C131.078 80.0372 130.876 80.2207 130.715 80.4383C130.554 80.6559 130.437 80.9033 130.372 81.1661C130.307 81.4288 130.295 81.7019 130.336 81.9695C130.377 82.2371 130.471 82.4938 130.612 82.725C130.899 83.1925 131.359 83.5277 131.892 83.6576C132.425 83.7876 132.987 83.7018 133.457 83.419Z" fill="white"/>
<path d="M90.0498 115.036C89.7808 115.036 89.5225 114.931 89.3298 114.743C89.1859 114.603 89.0864 114.424 89.044 114.228C89.0016 114.032 89.018 113.828 89.0913 113.641C89.1646 113.454 89.2915 113.293 89.4559 113.178C89.6204 113.064 89.8151 113 90.0157 112.995C112.13 112.235 128.55 104.959 136.248 92.4988C140.084 86.2897 138.844 80.1488 135.729 77.5226C132.56 74.8482 127.831 75.6845 123.081 79.7617C112.656 88.7094 101.05 93.6761 88.5858 94.5254C88.3144 94.5439 88.0466 94.4545 87.8407 94.2767C87.6872 94.1444 87.5767 93.9692 87.5234 93.7737C87.4701 93.5781 87.4764 93.3711 87.5414 93.1792C87.6065 92.9872 87.7274 92.8191 87.8886 92.6962C88.0498 92.5734 88.244 92.5015 88.4464 92.4898C100.455 91.6715 111.656 86.8693 121.737 78.2175C127.321 73.4243 133.049 72.583 137.06 75.9663C139.147 77.7281 140.425 80.4356 140.656 83.5943C140.899 86.9114 139.979 90.3589 137.999 93.5638C133.903 100.193 127.489 105.435 118.935 109.142C110.784 112.674 101.077 114.657 90.0849 115.033L90.0498 115.036Z" fill="#232333"/>
<path d="M76.3882 129.697C76.5657 136.475 77.1042 140.544 77.3037 145.055C77.8582 152.814 75.9891 170.175 77.0901 175.975C77.5915 178.618 80.5466 180.472 92.2739 180.472C98.0368 180.472 100.985 180.704 101.993 176.661C103.163 171.963 98.2123 169.88 98.2123 169.88C98.2123 169.88 104.255 151.354 105.506 136.509" fill="#686779"/>
<path d="M104.703 143.059C102.644 156.287 98.2103 169.883 98.2103 169.883C98.2103 169.883 101.861 171.418 102.153 174.826C102.202 175.443 102.148 176.064 101.993 176.664C100.986 180.706 98.0368 180.475 92.2729 180.475C80.5446 180.475 77.5905 178.621 77.0891 175.977C75.9891 170.176 77.8552 152.815 77.3037 145.057C77.1031 140.564 76.5707 136.511 76.3882 129.787V129.699L105.506 136.511C105.315 138.703 105.047 140.887 104.703 143.059Z" fill="#686779"/>
<path d="M104.703 143.059C102.644 156.287 98.2103 169.883 98.2103 169.883C98.2103 169.883 101.861 171.418 102.153 174.826C102.202 175.443 102.148 176.064 101.993 176.664C100.986 180.706 98.0368 180.475 92.2729 180.475C80.5446 180.475 77.5905 178.621 77.0891 175.977C75.9891 170.176 77.8552 152.815 77.3037 145.057C77.1031 140.564 76.5707 136.511 76.3882 129.787V129.699L105.506 136.511C105.315 138.703 105.047 140.887 104.703 143.059Z" fill="#60567C"/>
<path d="M59.2097 144.327C59.2097 144.327 56.6948 153.956 47.9667 152.524C40.1853 151.248 37.7596 142.255 41.9451 137.742C46.8476 132.454 56.0089 132.773 59.2097 144.327Z" fill="#777782"/>
<path d="M59.2108 144.326C59.2108 144.326 56.6939 153.957 47.9668 152.523C43.4835 151.788 40.775 148.487 40.0901 144.96C39.5857 142.368 40.1713 139.651 41.9452 137.741C45.118 134.321 50.0756 133.246 54.0496 136.053C56.2105 137.575 58.0827 140.251 59.2108 144.326Z" fill="#60567C"/>
<path opacity="0.25" d="M59.2098 144.326C59.2098 144.326 56.6929 153.957 47.9648 152.523C43.4825 151.788 40.774 148.487 40.0891 144.96C41.4469 147.141 43.9698 149.954 47.4694 148.649C52.5655 146.751 46.3333 140.238 54.0486 136.051C56.2095 137.575 58.0817 140.251 59.2098 144.326Z" fill="#181558"/>
<path d="M49.7016 153.605C49.0689 153.603 48.4374 153.55 47.8134 153.446C43.9086 152.805 40.8211 150.238 39.5536 146.579C38.3643 143.149 39.0151 139.52 41.2523 137.108C43.9407 134.208 47.7843 132.929 51.2799 133.771C55.4123 134.766 58.5489 138.426 60.1173 144.078C60.1613 144.236 60.1626 144.402 60.1213 144.56C60.0952 144.659 57.6585 153.605 49.7016 153.605ZM49.114 135.386C46.7875 135.386 44.418 136.454 42.6361 138.375C40.8692 140.282 40.3699 143.193 41.3325 145.972C42.3714 148.971 44.9094 151.076 48.1192 151.603C55.2839 152.779 57.8009 145.744 58.2321 144.327C56.8362 139.501 54.217 136.403 50.8367 135.59C50.2722 135.453 49.6936 135.385 49.1129 135.385L49.114 135.386Z" fill="#232333"/>
<path opacity="0.25" d="M81.8292 157.46C80.4925 159.751 77.402 175.034 84.3842 176.345C93.8904 178.13 100.044 176.536 102.153 174.824C102.202 175.441 102.148 176.062 101.993 176.662C100.986 180.704 98.0368 180.473 92.2729 180.473C80.5446 180.473 77.5905 178.619 77.0891 175.975C75.9891 170.174 77.8552 152.813 77.3037 145.055C77.1031 140.562 76.5707 136.509 76.3882 129.785V129.697L105.506 136.509C105.315 138.7 105.048 140.884 104.703 143.057C98.5532 153.912 84.4985 152.88 81.8292 157.46Z" fill="#181558"/>
<path d="M77.4119 129.67C77.5092 134.832 78.0748 140.01 78.3345 145.177C78.6052 150.404 78.2272 155.634 78.0327 160.833C77.8883 165.75 77.4511 170.655 78.0507 175.522C78.147 176.351 78.526 177.012 79.2801 177.515C82.8098 179.797 92.2057 179.477 96.5978 179.397C98.8921 179.277 100.478 178.793 100.993 176.398C101.681 173.966 99.954 171.803 97.8041 170.821C97.569 170.721 97.3795 170.537 97.2729 170.305C97.1662 170.073 97.1501 169.809 97.2275 169.566C98.083 166.863 98.8807 164.142 99.6201 161.405C100.851 156.957 101.863 152.461 102.774 147.944C103.273 145.583 103.838 143.029 104.259 140.659C104.534 139.259 104.738 137.851 104.992 136.445C105.089 135.872 106.014 135.883 106.012 136.552C105.961 139.379 105.694 142.334 105.314 145.146C104.957 147.997 104.363 150.806 103.695 153.598C102.397 159.195 100.923 164.713 99.1829 170.196L98.6063 168.942C98.7608 169.01 98.855 169.057 98.9723 169.114C101.555 170.395 103.628 173.153 103.129 176.138C102.902 177.663 102.294 179.235 101 180.197C98.9573 181.647 96.3682 181.435 94.0508 181.494C91.4817 181.482 88.692 181.501 86.133 181.271C82.6383 180.902 76.9657 180.45 76.0823 176.202C75.7815 174.544 75.7363 172.843 75.7083 171.173C75.6661 164.217 76.2427 157.321 76.3601 150.401C76.5024 143.472 75.4596 136.651 75.3533 129.722C75.3533 128.396 77.3227 128.297 77.4089 129.669L77.4119 129.67Z" fill="#232333"/>
<path d="M87.1477 169.494C89.8781 168.605 92.7551 168.255 95.619 168.462C96.5947 168.52 97.5644 168.702 98.5381 168.914C99.8617 169.244 99.4406 171.169 98.0949 170.919C97.1984 170.593 96.322 170.192 95.3663 169.972C94.9913 169.858 94.4328 169.755 94.0447 169.67C91.7785 169.261 89.442 169.173 87.1477 169.494Z" fill="#232333"/>
<path d="M53.6315 142.723C53.6315 142.723 63.3302 151.618 76.3872 151.618C81.9826 151.618 86.5522 150.887 89.9475 150.052C98.0348 148.064 104.356 141.672 105.95 133.552C105.991 133.344 106.03 133.136 106.065 132.927C106.634 129.634 106.619 126.064 106.146 122.271C105.602 117.922 103.749 112.086 101.127 106.127C100.105 103.804 98.995 101.521 97.8002 99.2816C97.8002 99.2816 88.5126 81.8075 71.1187 83.5753C61.1612 84.5881 55.8305 101.79 55.8305 101.79C54.9371 103.801 54.166 106.243 53.5382 108.947C53.4477 109.338 53.3601 109.73 53.2755 110.122C51.0604 120.593 50.897 134.466 53.6315 142.723Z" fill="white"/>
<path opacity="0.25" d="M53.6315 142.722C53.6315 142.722 63.3302 151.618 76.3872 151.618C81.9826 151.618 86.5522 150.887 89.9475 150.052C98.0348 148.064 104.356 141.672 105.95 133.552C105.991 133.344 106.03 133.136 106.065 132.927C106.065 132.927 99.4688 147.061 80.5226 144.813C62.875 142.72 59.7764 135.1 59.2109 129.588C58.6463 124.077 62.7065 110.911 60.6087 108.693C59.2189 107.222 56.5194 107.674 53.5392 108.948C53.447 109.334 53.3617 109.727 53.2755 110.124C51.0604 120.593 50.897 134.465 53.6315 142.722Z" fill="#181558"/>
<path opacity="0.25" d="M91.5287 149.635L91.275 149.704C91.2536 149.711 91.2318 149.717 91.2098 149.722C87.7673 150.671 82.8448 151.592 76.6387 151.618H76.384C63.328 151.618 53.6313 142.723 53.6313 142.723C52.3307 138.799 51.6859 133.61 51.6057 128.12C51.5135 122.052 52.1121 115.619 53.2733 110.122C53.3585 109.727 53.4468 109.334 53.535 108.949C56.5182 107.674 59.2157 107.222 60.6045 108.694C62.7043 110.909 58.6441 124.081 59.2077 129.59C59.3039 130.581 59.4904 131.561 59.7652 132.518C61.2292 137.512 65.8439 143.073 80.5204 144.813C81.3587 144.912 82.1719 144.979 82.9611 145.018L91.5287 149.635Z" fill="#371A45"/>
<path d="M53.2734 108.847C73.1823 117.534 98.2052 111.181 101.126 106.128C100.104 103.805 98.9946 101.521 97.8001 99.2816C97.8001 99.2816 92.311 82.7761 71.1206 82.7761C49.9302 82.7761 55.8285 101.791 55.8285 101.791C54.8057 104.088 53.9453 105.671 53.2734 108.847Z" fill="#777782"/>
<path d="M53.2734 108.847C73.1823 117.534 98.2052 111.181 101.126 106.128C100.104 103.805 98.9946 101.521 97.8001 99.2816C97.8001 99.2816 92.311 82.7761 71.1206 82.7761C49.9302 82.7761 55.8285 101.791 55.8285 101.791C54.8057 104.088 53.9453 105.671 53.2734 108.847Z" fill="#60567C"/>
<path opacity="0.25" d="M96.1165 95.8442C83.598 102.661 66.555 101.597 55.295 99.2666C54.545 94.0963 54.7686 82.7751 71.1206 82.7751C86.0818 82.7751 93.2165 91.0068 96.1165 95.8442Z" fill="#181558"/>
<path d="M56.2998 101.998C52.6518 113.484 51.0674 130.832 54.6062 142.401C54.6523 142.53 54.672 142.666 54.6643 142.803C54.6565 142.939 54.6214 143.072 54.5611 143.195C54.5008 143.317 54.4164 143.426 54.313 143.515C54.2096 143.605 54.0894 143.672 53.9594 143.714C53.8294 143.757 53.692 143.774 53.5554 143.763C53.4188 143.752 53.2858 143.714 53.1642 143.651C53.0427 143.588 52.935 143.502 52.8473 143.397C52.7596 143.292 52.6939 143.171 52.6538 143.04C51.5578 139.603 51.0564 136.084 50.7806 132.575C50.2422 123.403 50.6653 113.965 53.7629 105.233C54.0356 104.532 54.4347 103.451 54.7827 102.781C54.9702 102.38 55.1647 101.979 55.3593 101.585C55.414 101.46 55.5161 101.363 55.6429 101.313C55.7698 101.264 55.911 101.267 56.0356 101.322C56.1602 101.376 56.2579 101.478 56.3073 101.605C56.3567 101.732 56.3536 101.873 56.2988 101.998H56.2998ZM99.0667 145.893C107.616 135.784 106.162 122.763 102.001 111.091C100.611 107.19 99.0917 103.337 97.8022 99.2815C98.1401 99.6966 98.455 100.124 98.7728 100.553C102.164 105.335 104.408 110.793 106.122 116.371C109.054 126.299 108.538 139.595 99.0667 145.893ZM89.9566 172.419C92.8606 173.565 93.8804 177.892 91.6211 180.154C90.7788 181.003 89.6016 181.601 88.3521 181.388C88.0946 181.339 87.8668 181.191 87.7184 180.975C87.6454 180.868 87.5942 180.748 87.5679 180.621C87.5416 180.495 87.5406 180.364 87.565 180.238C87.7625 179.378 88.5878 179.457 89.2897 179.082C92.0403 177.857 91.9119 174.375 89.9566 172.419ZM96.3793 172.212C98.6455 173.585 99.9431 177.413 98.5352 179.775C97.9576 180.768 96.8245 181.565 95.5921 181.48C95.3213 181.46 95.0706 181.335 94.8932 181.13C94.8056 181.029 94.7389 180.912 94.6969 180.785C94.6549 180.659 94.6385 180.525 94.6485 180.392C94.6796 179.894 95.0616 179.568 95.5028 179.44C95.9923 179.268 96.4282 178.971 96.7673 178.578C98.2314 177.014 97.6137 173.828 96.3772 172.212H96.3793Z" fill="#232333"/>
<path d="M51.6037 128.118C51.2648 135.173 51.1805 157.441 51.6719 168.986C51.8143 172.34 51.4503 174.256 52.1292 176.181C53.4478 179.919 57.0166 180.731 67.4263 180.421C72.9776 180.255 74.6472 178.022 75.1255 176.124C75.8996 173.052 74.2461 170.034 74.2461 170.034C74.2461 170.034 76.3499 151.558 76.7079 151.471C77.2704 151.332 83.7382 151.701 91.5337 149.643L51.6037 128.118Z" fill="white"/>
<path d="M91.5357 149.638C87.3743 150.736 83.5919 151.143 80.8814 151.306C78.5159 151.447 76.9686 151.401 76.7059 151.468C76.3499 151.556 74.2471 170.033 74.2471 170.033C74.2471 170.033 75.8967 173.05 75.1255 176.121C74.6462 178.02 72.9776 180.253 67.4253 180.418C57.0156 180.73 53.4468 179.919 52.1272 176.178C51.4493 174.256 51.8143 172.34 51.6719 168.984C51.331 161.005 51.2678 147.9 51.3711 138.24C51.4172 133.923 51.4974 130.294 51.6027 128.116L91.5357 149.638Z" fill="white"/>
<path opacity="0.25" d="M91.5369 149.637C91.4497 149.66 91.3644 149.684 91.2772 149.704C91.2561 149.711 91.2347 149.717 91.213 149.722C87.1799 150.757 83.5218 151.149 80.8826 151.306C78.517 151.446 76.9698 151.401 76.7081 151.466C76.69 151.471 76.6679 151.524 76.6409 151.618H76.3872C63.3312 151.618 53.6335 142.723 53.6335 142.723C52.3329 138.8 51.6881 133.61 51.6079 128.12L66.4568 120.486C67.9209 125.479 60.6809 143.109 82.9633 145.019L91.5319 149.636L91.5369 149.637Z" fill="#181558"/>
<path d="M80.8814 151.306C78.5159 151.447 76.9686 151.401 76.7059 151.468C76.3499 151.556 74.2471 170.034 74.2471 170.034C74.2471 170.034 75.8967 173.05 75.1255 176.121C74.6462 178.021 72.9776 180.253 67.4253 180.418C57.0156 180.73 53.4468 179.919 52.1272 176.179C51.4493 174.256 51.8143 172.34 51.6719 168.984C51.331 161.005 51.2678 147.901 51.3711 138.24C53.4528 140.962 60.4782 148.192 77.6515 150.494C78.8729 150.657 79.9438 150.934 80.8814 151.306Z" fill="#777782"/>
<path d="M80.8826 151.309C78.5171 151.449 76.9708 151.404 76.7081 151.469C76.6208 151.492 76.4253 152.633 76.1846 154.34C75.4426 159.55 74.2493 170.038 74.2493 170.038C74.2493 170.038 75.8988 173.054 75.1277 176.127C74.6484 178.026 72.9818 180.259 67.4285 180.425C57.0168 180.736 53.45 179.925 52.1304 176.185C51.4515 174.264 51.8175 172.347 51.6731 168.991C51.4344 163.376 51.3322 155.221 51.3271 147.515C51.3271 144.273 51.3422 141.11 51.3733 138.247C53.454 140.969 60.4784 148.2 77.6517 150.502C78.7587 150.636 79.8437 150.908 80.8826 151.309Z" fill="#60567C"/>
<path opacity="0.25" d="M80.8806 151.309C78.515 151.449 76.9678 151.404 76.7061 151.469C76.6188 151.492 76.4233 152.634 76.1826 154.34C62.2372 155.549 54.8238 150.929 51.3271 147.509C51.3271 144.268 51.3422 141.104 51.3733 138.241C53.454 140.963 60.4784 148.193 77.6517 150.495C78.7577 150.632 79.8427 150.906 80.8806 151.309ZM52.1304 176.182C53.448 179.92 57.0168 180.73 67.4275 180.417C72.9788 180.252 74.6484 178.021 75.1277 176.12C75.4305 174.918 75.3584 173.721 75.1638 172.712C75.1528 172.764 75.1418 172.819 75.1277 172.872C74.6484 174.772 72.9788 177.003 67.4265 177.169C57.0168 177.481 53.448 176.671 52.1304 172.934C51.8356 172.096 51.7393 171.261 51.7102 170.307H51.7052C51.7353 172.876 51.5468 174.527 52.1304 176.182Z" fill="#181558"/>
<path d="M52.6316 128.167C52.1994 141.985 52.2596 155.893 52.7239 169.705C52.8723 172.298 52.1703 175.415 54.0575 177.47C54.96 178.427 56.4802 178.878 58.0556 179.124C59.6409 179.365 61.3045 179.432 62.9701 179.453C64.6384 179.468 66.3069 179.441 67.9739 179.371C70.5129 179.211 73.4359 178.536 74.1228 175.897C74.552 174.191 74.176 172.337 73.455 170.74C73.3166 170.468 73.1792 170.21 73.2243 169.913C73.8059 164.967 74.5941 158.065 75.3101 153.195C75.4254 152.513 75.4886 151.889 75.6941 151.201C75.7383 151.068 75.8054 150.945 75.8927 150.836C76.011 150.664 76.3038 150.499 76.4763 150.469L76.5676 150.451L76.6578 150.437C77.4099 150.36 78.2301 150.379 78.9601 150.321C83.1717 150.256 87.3142 150.221 91.5368 149.634C87.5859 151.205 83.3001 152.27 79.0263 152.452C78.3177 152.445 77.609 152.448 76.9005 152.462L76.9255 152.459C77.2294 152.396 77.5282 152.158 77.6315 151.879C76.6688 157.301 75.9579 164.598 75.265 170.14L75.1506 169.537C75.28 169.767 75.3602 169.975 75.4625 170.2C76.4502 172.574 76.8263 175.455 75.5508 177.81C73.81 180.854 69.9794 181.413 66.7956 181.45C63.7593 181.508 60.7831 181.578 57.7377 181.135C55.4253 180.811 52.8372 179.875 51.668 177.646C50.2902 175.198 50.7725 172.376 50.6712 169.747C50.3934 162.585 50.3152 155.435 50.3042 148.289C50.3102 141.536 50.3162 134.825 50.581 128.064C50.6792 126.731 52.6537 126.784 52.6336 128.161L52.6316 128.167Z" fill="#232333"/>
<path d="M55.4644 170.154C56.4912 169.128 57.9091 168.542 59.2949 168.156C63.4734 167.052 68.2997 167.733 71.7131 170.456C68.9836 169.774 66.3564 169.249 63.5787 169.19C60.8352 169.142 58.1187 169.284 55.4634 170.154H55.4644ZM68.5153 172.114C69.8279 174.111 70.5088 176.717 69.5542 179.032C69.2283 179.844 68.6978 180.578 68.0801 181.205L66.7715 179.632C67.317 179.283 67.8144 178.857 68.1894 178.319C69.4429 176.547 69.2504 174.091 68.5153 172.114ZM60.9545 172.638C61.8299 174.969 62.3734 177.719 61.1942 180.07C60.9936 180.443 60.7469 180.792 60.4622 181.107L59.0944 179.587C59.5557 179.284 59.9347 178.874 60.1974 178.391C61.125 176.685 61.1751 174.553 60.9565 172.638H60.9545Z" fill="#232333"/>
<path d="M61.9885 95.0068C44.2356 99.0079 40.9315 111.221 40.9315 111.221C40.9315 111.221 36.8613 116.797 42.4898 124.15C48.9987 132.661 55.1406 119.589 55.1406 119.589L66.9141 97.9058L61.9885 95.0068Z" fill="#60567C"/>
<path opacity="0.25" d="M66.915 97.9048L65.3758 100.737C60.4663 100.313 55.9468 99.4942 52.3098 98.5887C54.925 97.1447 58.1108 95.8792 61.9895 95.0068L66.915 97.9048Z" fill="#181558"/>
<path d="M47.1215 128.049C45.1691 128.049 43.3371 126.947 41.6695 124.767C36.1182 117.509 39.317 111.819 39.9908 110.78C40.4862 109.177 44.5484 97.8897 61.7608 94.01C62.0245 93.9548 62.2993 94.006 62.5259 94.1504C62.7516 94.2947 62.9115 94.5219 62.9711 94.783C63.0308 95.0441 62.9854 95.3182 62.8448 95.5462C62.7034 95.7738 62.4768 95.9373 62.2151 96.0005C53.3817 97.9929 48.3368 102.095 45.6615 105.189C42.7635 108.538 41.9312 111.461 41.9242 111.491C41.8911 111.61 41.8368 111.722 41.7637 111.822C41.6213 112.024 38.245 116.916 43.306 123.536C44.6667 125.313 46.0666 126.141 47.4604 125.994C50.5038 125.672 53.3627 120.952 54.209 119.159C54.2956 118.976 54.4346 118.822 54.6084 118.717C54.7823 118.612 54.9833 118.561 55.1862 118.57C55.389 118.579 55.5847 118.647 55.7486 118.767C55.9125 118.887 56.0372 119.053 56.1072 119.243C56.2005 119.497 56.1875 119.778 56.0721 120.024C55.9287 120.328 52.5023 127.511 47.683 128.024C47.4964 128.042 47.309 128.05 47.1215 128.049Z" fill="#232333"/>
<path d="M61.2804 96.922C65.6454 101.979 77.2604 131.668 51.0693 139.04C51.0693 139.04 48.7148 135.309 51.0151 131.891C53.865 127.656 65.1139 122.261 58.1016 104.711C57.156 102.345 55.1876 98.4241 52.9835 98.2286C52.9835 98.2286 52.5453 95.1621 55.9417 95.1621C59.339 95.1621 61.2804 96.922 61.2804 96.922Z" fill="#52BF2E"/>
<path d="M51.0684 139.039C51.0684 139.039 48.7159 135.31 51.0142 131.89C53.8661 127.656 65.1131 122.262 58.1027 104.711C57.6766 103.642 57.0398 102.257 56.2657 101.04C55.3311 99.5632 54.189 98.3359 52.9826 98.2286C52.9826 98.2286 52.5454 95.1621 55.9418 95.1621C59.3382 95.1621 61.2805 96.923 61.2805 96.923C61.9102 97.652 62.6914 98.8924 63.4846 100.505C68.2096 110.077 73.4861 132.733 51.0684 139.039Z" fill="#52BF2E"/>
<path d="M67.3953 121.467C66.3826 128.941 62.0486 135.949 51.0684 139.039C51.0684 139.039 48.7159 135.31 51.0142 131.89C52.8894 129.108 58.3905 125.821 59.9488 118.912C60.7641 115.313 60.5044 110.725 58.1038 104.711C57.6776 103.642 57.0408 102.257 56.2667 101.04C55.3321 99.5632 54.19 98.3359 52.9836 98.2286C52.9836 98.2286 52.5464 95.1621 55.9428 95.1621C59.3392 95.1621 61.2815 96.923 61.2815 96.923C61.9112 97.652 62.6924 98.8924 63.4866 100.505C65.8952 105.387 68.4513 113.679 67.3953 121.467Z" fill="#52BF2E"/>
<path d="M67.3953 121.467C66.3826 128.941 62.0486 135.949 51.0684 139.039C51.0684 139.039 48.7159 135.31 51.0142 131.89C52.8894 129.108 58.3905 125.821 59.9488 118.912C62.6884 119.144 65.471 119.838 67.3953 121.467ZM63.4846 100.505C60.7891 98.8031 57.7127 100.185 56.2647 101.04C55.3311 99.5632 54.189 98.3359 52.9826 98.2286C52.9826 98.2286 52.5454 95.1621 55.9418 95.1621C59.3382 95.1621 61.2805 96.923 61.2805 96.923C61.9102 97.652 62.6914 98.8924 63.4846 100.505Z" fill="#469B19"/>
<path d="M51.0693 139.975C50.9103 139.975 50.7538 139.935 50.6144 139.858C50.475 139.781 50.3573 139.671 50.2721 139.536C50.1618 139.365 47.6238 135.249 50.232 131.372C50.8307 130.482 51.7121 129.603 52.7319 128.584C56.6868 124.634 62.6643 118.664 57.2273 105.056C55.8605 101.638 54.1217 99.2705 52.9004 99.1602C52.6889 99.1411 52.49 99.0514 52.3358 98.9055C52.1822 98.7603 52.0825 98.5672 52.053 98.358C52.0269 98.1855 51.8394 96.6162 52.8823 95.4219C53.5742 94.6277 54.6071 94.2256 55.9437 94.2256C59.662 94.2256 61.8279 96.1479 61.9162 96.2311C61.9449 96.2562 61.9717 96.2833 61.9964 96.3123C64.9195 99.6987 71.0413 113.761 67.5146 125.37C65.3075 132.634 59.8605 137.536 51.327 139.939C51.2432 139.963 51.1565 139.975 51.0693 139.975ZM53.9342 97.5116C56.2887 98.4442 58.0716 102.106 58.9761 104.371C64.8683 119.116 58.1067 125.87 54.0656 129.905C53.1149 130.854 52.2937 131.675 51.7973 132.413C50.3664 134.54 51.0733 136.849 51.5506 137.927C59.0022 135.642 63.7653 131.241 65.7116 124.835C69.0428 113.869 63.0393 100.48 60.6126 97.5868C60.3419 97.3672 58.6572 96.0967 55.9397 96.0967C55.1726 96.0967 54.6211 96.2833 54.3002 96.6503C54.0756 96.907 53.9773 97.2319 53.9342 97.5126V97.5116Z" fill="#232333"/>
<path d="M65.7198 126.424C63.9378 127.569 62.172 127.908 59.27 127.772C58.7074 128.499 55.1567 132.657 49.0589 133.058C46.7214 133.211 43.2027 132.665 40.7921 129.952C38.0505 126.868 36.8272 122.769 37.3977 118.309C38.0746 113.018 41.2684 107.214 47.4294 101.98L45.2373 114.038C46.0295 113.307 48.8503 111.084 51.4845 109.403C54.3655 107.563 54.8508 105.705 57.9594 105.405C58.7636 105.326 59.2168 108.432 59.9679 108.499C62.914 108.761 65.6034 109.681 66.9181 111.02C67.9208 112.042 68.5576 113.262 68.9176 114.565C70.2191 119.271 67.8657 125.048 65.7198 126.424Z" fill="#60567C"/>
<path opacity="0.25" d="M65.7198 126.424C63.9378 127.571 62.172 127.908 59.27 127.772C58.7074 128.499 55.1567 132.658 49.0589 133.058C46.7214 133.211 43.2027 132.665 40.7921 129.952C38.0505 126.869 36.8272 122.769 37.3977 118.309C37.7447 119.971 38.2902 121.724 39.0523 121.957C40.7399 122.472 42.3073 119.16 42.3985 118.968C42.3253 119.266 40.408 127.041 46.4045 128.88C51.4685 130.431 56.5615 128.241 55.5257 124.637C55.5257 124.637 59.4585 125.704 62.5059 124.941C66.4087 123.963 68.8183 118.449 68.9176 114.565C70.2191 119.271 67.8657 125.048 65.7198 126.424Z" fill="#181558"/>
<path d="M45.2333 114.037C46.4888 112.274 48.0852 110.825 49.7628 109.477C50.575 108.831 51.4304 108.294 52.2025 107.609C53.0318 106.912 53.7167 106.128 54.6543 105.462C55.5648 104.803 56.7129 104.416 57.836 104.302C59.648 104.231 59.8105 106.449 60.5375 107.568C60.4241 107.46 60.2803 107.389 60.1253 107.365C62.5741 107.566 65.7849 108.213 67.8065 110.172C70.8198 113.178 71.0785 117.89 69.9263 121.753C69.3177 123.702 68.4493 125.703 66.8459 127.095C64.7431 128.774 61.7819 129.062 59.2198 128.795C59.2148 128.795 60.0852 128.397 60.0822 128.397C54.7576 135.043 43.3301 136.792 38.5369 128.649C35.31 123.607 35.7522 117.041 38.2812 111.835C40.2386 107.704 43.3 104.158 46.7615 101.207C47.8164 100.357 49.105 101.848 48.1022 102.754C45.6464 104.853 43.4354 107.223 41.6906 109.926C39.9939 112.574 38.7284 115.588 38.3925 118.704C37.9051 122.771 39.1686 127.068 42.1899 129.91C43.6439 131.213 45.6244 131.914 47.646 132.042C51.7513 132.271 55.8716 130.286 58.4537 127.154C58.5564 127.024 58.6883 126.921 58.8387 126.852C58.9891 126.783 59.1538 126.75 59.3191 126.757C60.3389 126.761 61.3427 126.717 62.2612 126.551C63.5277 126.291 64.8303 125.822 65.6756 124.824C68.0361 121.69 68.9446 116.35 66.8448 112.929C65.461 110.572 62.4247 109.98 59.8676 109.639C58.2823 109.409 58.1649 107.489 57.5212 106.389C57.4921 106.332 57.451 106.304 57.5282 106.37C57.6164 106.435 57.7187 106.479 57.827 106.499C57.9031 106.513 57.9806 106.516 58.0576 106.51C57.9173 106.525 57.7759 106.536 57.6405 106.558C55.8706 106.784 54.9651 108.038 53.5191 109.181C53.0779 109.534 52.6116 109.856 52.1253 110.146C49.8591 111.472 47.6159 112.8 45.2363 114.042L45.2333 114.037Z" fill="#232333"/>
<path d="M55.2087 109.933C56.8854 109.227 59.3702 108.362 61.103 107.729L61.459 109.48C59.6139 109.597 57.0207 109.729 55.2087 109.933Z" fill="#232333"/>
<path d="M90.0528 91.9233C90.0528 91.9233 101.129 105.007 106.065 121.683C106.065 121.683 103.282 97.9599 94.2664 90.5234C87.4497 84.8989 90.0528 91.9233 90.0528 91.9233Z" fill="#52BF2E"/>
<path d="M106.065 121.682C102.946 111.146 97.3768 102.043 93.7007 96.7697C91.5528 93.6953 90.0527 91.9224 90.0527 91.9224C90.0527 91.9224 87.4495 84.901 94.2683 90.5235C95.622 91.6416 96.8363 93.1257 97.9213 94.8434C104.056 104.553 106.065 121.682 106.065 121.682Z" fill="#52BF2E"/>
<path d="M97.9213 94.8434C96.1434 94.6028 94.4638 96.0116 93.6997 96.7697C91.5528 93.6953 90.0527 91.9224 90.0527 91.9224C90.0527 91.9224 87.4495 84.901 94.2683 90.5235C95.622 91.6416 96.8363 93.1257 97.9213 94.8434Z" fill="#469B19"/>
<path d="M106.065 122.462C105.896 122.462 105.732 122.407 105.597 122.307C105.462 122.206 105.363 122.064 105.315 121.903C100.485 105.586 89.5654 92.554 89.4551 92.4236C89.3974 92.3556 89.3516 92.2783 89.3197 92.195C89.0309 91.4098 88.1826 88.7766 89.5083 87.846C90.5311 87.128 92.1556 87.7698 94.7708 89.9267C103.921 97.4755 106.731 120.615 106.846 121.596C106.859 121.706 106.848 121.817 106.815 121.922C106.782 122.027 106.726 122.124 106.652 122.206C106.578 122.288 106.487 122.354 106.386 122.398C106.285 122.442 106.175 122.464 106.065 122.462ZM90.7457 91.5331C91.6311 92.6081 98.6434 101.306 103.742 113.063C102.098 105.616 98.9954 95.4349 93.766 91.121C91.3433 89.1235 90.5391 89.1055 90.4127 89.1195C90.2433 89.4033 90.4027 90.5484 90.7457 91.5331Z" fill="#232333"/>
<path d="M90.531 19.0245C92.2146 13.4753 100.339 5.47722 109.685 8.25487C119.568 11.19 124.312 20.7974 119.613 29.8534C115.964 36.8827 108.954 38.7739 104.05 38.8782C104.05 38.8782 98.4267 38.3909 94.7285 34.3558C89.1853 28.3021 90.531 19.0245 90.531 19.0245Z" fill="#686779"/>
<path d="M119.615 29.8492C116.408 36.0292 110.599 38.2353 105.911 38.7497C105.268 38.8209 104.642 38.864 104.052 38.873C104.052 38.873 98.4278 38.3847 94.7316 34.3516C89.1844 28.2989 90.5311 19.0244 90.5311 19.0244C92.2137 13.4751 100.343 5.47604 109.689 8.24969C115.169 9.87817 119.076 13.5603 120.657 18.0647C121.93 21.6797 121.708 25.8211 119.615 29.8492Z" fill="#60567C"/>
<path opacity="0.25" d="M119.615 29.8494C116.407 36.0294 110.599 38.2355 105.911 38.7509C105.129 38.3298 104.579 37.687 104.884 36.7063C105.79 33.8053 111.615 36.2731 115.866 28.615C119.174 22.6566 116.106 18.45 116.863 18.3026C117.398 18.1973 119.48 18.9795 120.656 18.0649C121.929 21.6799 121.708 25.8223 119.615 29.8494Z" fill="#181558"/>
<path d="M90.0398 18.878C91.0365 13.0369 97.3369 7.95794 103.055 6.85691C107.739 5.92133 112.627 7.58692 116.333 10.4498C120.079 13.3247 122.506 17.8973 122.465 22.6324C122.504 28.8625 118.735 35.0646 112.997 37.6537C110.183 38.9774 107.083 39.5169 104.064 39.3845C103.43 39.3424 103.411 38.4289 104.042 38.3647C109.655 37.8734 115.157 35.2642 118.074 30.3968C121.997 24.2348 120.91 16.5847 115.016 12.1204C107.322 6.38761 99.0606 8.39615 93.3078 15.6802C92.4299 16.7651 91.6639 17.9359 91.0215 19.1748C90.7758 19.6963 89.9526 19.4506 90.0368 18.88L90.0398 18.878Z" fill="#232333"/>
<path d="M95.2501 23.9381C95.6131 21.2557 98.6705 14.6094 105.891 15.7556C111.992 16.7242 115.016 22.2154 112.034 28.3342C109.602 33.328 103.721 33.4874 101.604 32.9469C98.0238 32.0354 94.7397 27.6874 95.2501 23.9381Z" fill="white"/>
<path d="M112.034 28.334C111.749 28.9236 111.394 29.4768 110.977 29.9816C108.195 33.3609 103.461 33.419 101.605 32.9467C98.0277 32.0342 94.7386 27.6883 95.25 23.9369C95.614 21.2555 98.6714 14.6092 105.892 15.7544C108.197 16.1214 110.061 17.1302 111.329 18.5802H111.332C113.42 20.9647 113.888 24.5276 112.034 28.334Z" fill="white"/>
<path opacity="0.25" d="M110.977 29.9816C108.195 33.3609 103.461 33.419 101.605 32.9467C98.0277 32.0342 94.7386 27.6883 95.25 23.9369C95.614 21.2555 98.6714 14.6092 105.892 15.7544C108.197 16.1214 110.061 17.1302 111.329 18.5802C104.661 14.536 96.1956 22.1099 101.609 28.7402C104.874 32.7412 108.644 31.4657 110.977 29.9816Z" fill="#181558"/>
<path d="M103.594 34.1843C102.716 34.1843 101.939 34.0871 101.344 33.9356C97.1243 32.8607 93.6658 27.9351 94.2273 23.8007C94.4419 22.2274 95.6492 18.6586 98.6916 16.4144C100.79 14.8671 103.265 14.3046 106.05 14.7478C109.326 15.2672 111.876 16.9739 113.228 19.549C114.641 22.2414 114.544 25.5175 112.955 28.7784C110.899 33.0101 106.635 34.1843 103.594 34.1843ZM96.2679 24.0745C95.8468 27.168 98.6686 31.146 101.858 31.9592C103.141 32.2861 108.82 32.5889 111.109 27.892C112.407 25.2267 112.514 22.5994 111.409 20.4956C110.364 18.5061 108.346 17.1815 105.728 16.7653C103.512 16.4134 101.559 16.8466 99.921 18.0549C97.6086 19.7576 96.4685 22.5874 96.2659 24.0745H96.2679ZM90.5231 24.5979C91.4507 28.8647 93.6598 32.7273 96.8155 35.7456C97.2557 36.2039 97.754 36.589 98.1993 37.0542C97.9088 36.9172 97.622 36.7727 97.3389 36.621C93.0862 34.3358 90.103 29.4433 90.5251 24.5979H90.5231Z" fill="#232333"/>
<path d="M71.31 96.6665C48.1131 98.9768 33.7586 89.6662 30.8837 72.4176C28.3728 57.3461 33.918 38.805 40.8241 27.9291C43.3911 23.886 48.6125 17.5916 64.2737 13.1373C77.2324 9.84226 73.4991 2.6324 74.9621 1.58752C76.7069 0.339083 86.4277 1.18642 85.7398 10.2915C91.1968 10.2855 91.7524 5.66877 94.9552 6.98138C96.9397 7.79161 99.4305 12.0253 96.8825 18.0118C100.507 19.8348 102.824 21.9787 102.824 21.9787C113.339 29.8353 114.97 41.8464 117.131 50.9515C118.669 57.4254 122.236 63.9995 119.634 73.624C116.328 85.8547 104.693 92.132 85.8772 94.9026" fill="white"/>
<path d="M119.63 73.6209C118.674 77.1576 117.022 80.197 114.703 82.7942C108.996 89.1878 99.2511 92.9301 85.8752 94.9005L71.3101 96.6654C60.8623 97.7043 52.2075 96.3876 45.5892 93.0494C37.512 88.9812 32.4631 81.8967 30.8847 72.4156C28.3708 57.3441 33.9191 38.803 40.8221 27.926C43.3912 23.8829 48.6106 17.5895 64.2737 13.1353C77.2314 9.8412 73.4991 2.62833 74.9612 1.58345C76.708 0.336018 86.4277 1.18235 85.7409 10.2874C91.1959 10.2844 91.7534 5.6647 94.9562 6.97832C96.9387 7.79156 99.4306 12.0252 96.8815 18.0107C100.508 19.8357 102.82 21.9786 102.82 21.9786C113.334 29.8363 114.966 41.8464 117.127 50.9525C118.664 57.4273 122.233 63.9954 119.63 73.6209Z" fill="white"/>
<path opacity="0.25" d="M114.703 82.7961C108.997 89.1897 99.2521 92.932 85.8752 94.9015C85.8752 94.9015 81.9344 95.831 79.0464 96.1369C75.4595 96.5169 71.3101 96.6663 71.3101 96.6663C60.8633 97.7062 52.2075 96.3896 45.5892 93.0504C44.7239 92.3555 61.2815 96.922 87.1598 92.556C102.101 90.0351 114.698 82.6989 114.703 82.7961Z" fill="#181558"/>
<path d="M59.1908 39.2923C58.8258 38.6776 61.8391 32.5267 66.0366 33.8824C67.1537 34.2434 67.8757 36.3452 66.9943 37.4342C65.45 39.3435 59.5538 39.906 59.1908 39.2923ZM107.625 37.1424C107.936 36.639 105.169 30.9754 101.222 32.4585C100.033 32.9057 99.5008 34.7729 100.829 35.7947C103.378 37.7561 107.314 37.6448 107.625 37.1424ZM72.1405 75.4901C73.2475 75.2193 81.5494 73.5988 80.305 60.8066C79.2841 50.3217 74.5361 48.8266 68.0091 48.3132C59.9749 47.6824 51.1246 54.3649 48.725 60.224C43.8255 72.1829 52.6287 78.9004 59.4786 78.7169C63.7443 78.6006 63.8617 77.5136 72.1405 75.4901ZM103.169 70.6728C100.409 70.3088 95.3875 67.6464 94.3747 59.0708C93.3429 50.3247 96.5096 47.4739 101.089 46.9474C105.326 46.4621 110.505 47.6062 115.035 53.342C117.887 56.954 119.106 63.6023 118.568 66.76C118.104 69.4925 115.587 71.2403 111.35 70.9526C107.429 70.6868 104.981 70.9124 103.169 70.6728Z" fill="#60567C"/>
<path d="M96.3891 18.9062C94.2362 17.6066 91.8546 16.4815 89.3879 15.928C88.7621 15.7957 88.8965 14.8671 89.5343 14.9172C91.5819 15.0977 93.5503 15.6483 95.4686 16.3432C96.1104 16.5808 96.7251 16.8215 97.3769 17.1193C97.507 17.1765 97.6239 17.26 97.7202 17.3646C97.8165 17.4692 97.8901 17.5926 97.9364 17.727C98.0058 17.9294 98.0094 18.1486 97.9467 18.3531C97.884 18.5577 97.7583 18.7373 97.5874 18.8661C97.4167 18.9966 97.2095 19.0707 96.9947 19.0779C96.7799 19.085 96.5682 19.025 96.3891 18.9062Z" fill="#232333"/>
<path d="M80.8926 73.0131C81.8953 75.1089 83.3092 76.3152 85.6326 76.4957C88.1526 76.6913 89.6086 74.6225 90.4008 73.1044C90.8841 74.3297 92.3531 75.2042 93.763 74.9695C96.6229 74.4942 97.0381 70.5814 97.0381 70.5814C97.0381 70.5814 94.3837 66.6676 88.6038 67.5631C82.8229 68.4596 80.8926 73.0131 80.8926 73.0131Z" fill="white"/>
<path d="M80.8926 73.0131C81.8953 75.1089 83.3092 76.3152 85.6326 76.4957C88.1526 76.6913 89.6086 74.6225 90.4008 73.1044C90.8841 74.3297 92.3531 75.2042 93.763 74.9695C96.6229 74.4942 97.0381 70.5814 97.0381 70.5814C97.0381 70.5814 94.3837 66.6676 88.6038 67.5631C82.8229 68.4596 80.8926 73.0131 80.8926 73.0131Z" fill="white"/>
<path opacity="0.25" d="M86.7847 74.8934C88.1515 74.5855 89.5052 71.868 89.0931 70.6196C88.7872 69.688 87.0945 69.1525 87.1758 69.9197C87.7383 75.2714 82.3455 73.4574 82.3455 73.4574C82.3455 73.4574 84.8032 75.3396 86.7847 74.8934ZM93.8903 73.4484C92.1695 74.04 91.1728 71.2543 90.882 69.9738C90.6654 69.0172 91.3854 68.6301 91.635 69.3601C93.3889 74.4622 96.1405 70.7309 96.1405 70.7309C96.1405 70.7309 95.5518 72.8758 93.8903 73.4484Z" fill="#181558"/>
<path d="M81.2385 72.8489C82.2032 74.5556 83.7053 75.7438 85.6978 75.7599C87.579 75.79 88.9157 74.3801 89.6998 72.7446L90.4539 71.2545L91.1338 72.8168C91.6522 73.9238 93.1173 74.5836 94.2875 74.0773C94.8851 73.8366 95.3945 73.3162 95.7876 72.6784C96.1817 72.0406 96.4755 71.2615 96.66 70.5104C96.7703 70.0692 97.4382 70.1625 97.4201 70.6167C97.3279 72.4387 96.6179 74.4312 94.8931 75.3307C92.9899 76.3585 90.4429 75.431 89.6667 73.3833L91.1007 73.4585C90.1009 75.431 88.0894 77.629 85.5885 77.2249C84.4554 77.1146 83.2741 76.7025 82.3817 75.9324C81.4892 75.1632 80.9207 74.1675 80.5446 73.1708C80.5103 73.0806 80.5116 72.9807 80.5481 72.8914C80.5845 72.802 80.6535 72.7299 80.7412 72.6894C80.8285 72.6486 80.9279 72.6416 81.0201 72.6698C81.1123 72.6979 81.1909 72.7592 81.2405 72.8418L81.2385 72.8489Z" fill="#232333"/>
<path d="M90.1679 69.4383C90.922 69.3 90.547 71.4128 91.2579 72.9911C91.5337 73.5998 88.8613 74.4141 89.3356 73.3341C90.3865 70.9435 89.098 69.6349 90.1679 69.4383Z" fill="#232333"/>
<path d="M85.1744 66.9355C85.2827 69.6089 89.2226 71.1511 90.0679 71.1341C90.9142 71.1181 94.8731 69.0544 94.4951 66.6818C94.2514 65.1576 91.5038 64.7806 90.2303 64.8067C88.5908 64.8387 85.1122 65.3832 85.1744 66.9355Z" fill="#232333"/>
<path opacity="0.5" d="M87.9671 66.5775C87.9932 67.3557 89.3268 67.6435 90.3005 67.5994C91.2752 67.5542 92.5848 67.1411 92.5587 66.3649C92.5447 65.9638 90.2504 66.0711 90.2504 66.0711C90.2504 66.0711 87.9541 66.1774 87.9671 66.5775Z" fill="white"/>
<path d="M71.311 96.6654C61.5983 99.3087 49.8499 97.5508 41.4929 91.8972C35.6498 87.9604 31.6588 81.6149 30.1346 74.8242C26.8355 59.5351 31.3971 41.3219 39.2547 28.0092C44.1201 19.5359 53.4659 15.0806 62.4917 12.3691L63.7392 12.0082C66.3413 11.3443 69.1992 10.3907 71.1436 8.5757C72.5324 7.32425 73.2012 5.59047 73.3035 3.74439C73.4098 2.16203 73.3908 0.605741 75.4083 0.182575C77.5643 -0.267665 79.7403 0.157506 81.7057 1.03693C85.439 2.71956 87.1717 6.47992 86.7646 10.3676L85.7388 9.27061C87.4465 9.29167 88.9246 8.69001 90.2572 7.58096C91.0855 6.94721 91.8025 6.20617 92.9386 5.86222C95.4195 5.13522 97.5724 7.38241 98.3315 9.47217C99.4766 12.3571 99.0093 15.6692 97.8301 18.4068C97.8301 18.4098 97.3468 17.0992 97.3468 17.1002C99.4466 18.123 102.012 19.8708 103.44 21.1624C112.479 27.8127 115.451 38.076 117.615 48.4736C118.84 54.5654 121.614 60.3333 121.579 66.6677C121.457 82.7721 109.958 90.9807 95.1738 93.8596C92.1073 94.4563 88.9968 94.8042 85.8732 94.9025C95.5298 92.2241 105.969 89.9178 113.248 82.7069C117.446 78.5093 119.556 72.5469 119.523 66.6828C119.543 60.5649 116.776 54.8642 115.608 48.9178C112.931 36.5638 110.411 28.0905 99.4034 20.66C98.4438 20.0226 97.4477 19.4421 96.4202 18.9212C96.1887 18.8051 96.01 18.6052 95.9206 18.3621C95.8312 18.119 95.8377 17.851 95.9389 17.6126C97.2144 14.6544 97.5814 10.6995 95.1497 8.30696C94.7235 7.90585 94.0617 7.66118 93.5152 7.82062C92.9878 7.96 92.2979 8.57068 91.5408 9.17535C90.0025 10.498 87.8295 11.3614 85.7428 11.3112C85.5294 11.313 85.3209 11.2481 85.1463 11.1254C84.9717 11.0028 84.8398 10.8287 84.7691 10.6273C84.7228 10.4942 84.7051 10.3527 84.717 10.2122C84.8203 8.67597 84.6017 7.15478 83.9208 5.89431C82.5671 3.32222 79.27 2.03267 76.4422 2.30442C76.1694 2.32748 75.9017 2.39467 75.651 2.50497C75.635 2.51199 75.639 2.515 75.635 2.514C75.6703 2.49021 75.702 2.46151 75.7292 2.42876C75.7743 2.37562 75.7774 2.35556 75.7733 2.37161C75.667 2.82987 75.669 3.36033 75.6229 3.92288C75.4063 9.71584 70.6693 12.5888 65.6354 14.0387C56.3729 16.6339 46.4596 20.7041 41.4698 29.3429C38.4836 34.2735 36.2635 39.6393 34.5999 45.1495C30.7142 58.3508 28.7869 76.194 39.0993 86.9576C47.8685 95.9454 59.6168 95.8993 71.311 96.6654Z" fill="#232333"/>
<path d="M50.0645 22.9534C48.2044 17.4613 39.8293 9.72093 30.5758 12.7884C20.7899 16.0323 16.3537 25.7822 21.3384 34.6857C25.2091 41.5947 32.2755 43.2673 37.179 43.2192C37.179 43.2192 42.7845 42.5554 46.3523 38.4059C51.7051 32.1848 50.0645 22.9554 50.0645 22.9554V22.9534Z" fill="#686779"/>
<path d="M21.3384 34.6847C24.7427 40.7614 30.6159 42.785 35.3189 43.152C35.9637 43.2021 36.5874 43.2242 37.18 43.2162C37.18 43.2162 42.7855 42.5534 46.3533 38.4039C51.706 32.1808 50.0635 22.9534 50.0635 22.9534C48.2064 17.4582 39.8293 9.7189 30.5758 12.7853C25.1459 14.5863 21.3634 18.3908 19.9215 22.9403C18.7683 26.5904 19.1193 30.7238 21.3384 34.6847Z" fill="#60567C"/>
<path opacity="0.25" d="M21.3383 34.6845C24.7427 40.7613 30.6159 42.7849 35.3188 43.1519C36.087 42.7066 36.6164 42.0468 36.2805 41.0772C35.2817 38.2052 29.5389 40.8545 25.0476 33.3338C21.5509 27.4807 24.484 23.1808 23.7209 23.0585C23.1814 22.9703 21.1237 23.8176 19.9204 22.9402C18.7673 26.5902 19.1192 30.7236 21.3383 34.6845Z" fill="#181558"/>
<path d="M49.5753 23.1157C46.0024 16.695 38.3614 11.1989 30.8036 13.8602C28.1824 14.7427 25.7446 16.1987 23.8675 18.2222C19.4032 23.0004 19.2578 29.8583 22.8948 35.181C25.9652 39.9541 31.5486 42.3918 37.1731 42.7057C37.8019 42.7418 37.8199 43.6744 37.1831 43.7265C34.1698 43.9561 31.0543 43.5119 28.1994 42.2765C25.3465 41.0582 22.8005 38.9754 21.1039 36.3512C16.5012 29.4191 17.4969 20.5547 24.0008 15.1899C27.6138 12.2117 32.4481 10.3947 37.1591 11.1839C42.4637 12.0914 47.5437 15.7635 49.844 20.5717C50.1749 21.2777 50.4126 22.0237 50.549 22.7908C50.5716 22.913 50.5491 23.0392 50.4857 23.146C50.4222 23.2528 50.3221 23.3329 50.204 23.3714C50.0859 23.4107 49.9577 23.4065 49.8425 23.3596C49.7272 23.3127 49.6325 23.2262 49.5753 23.1157Z" fill="#232333"/>
<path d="M45.506 28.0122C45.0567 25.3449 41.7877 18.7918 34.6099 20.1666C28.5432 21.3268 25.6954 26.9092 28.8691 32.9318C31.4603 37.8473 37.3425 37.8223 39.4412 37.2166C42.991 36.1928 46.1347 31.7455 45.506 28.0122Z" fill="white"/>
<path d="M28.8713 32.9318C29.1731 33.5134 29.5461 34.0549 29.9793 34.5472C32.8673 37.8363 37.6023 37.7491 39.4404 37.2176C42.9882 36.1928 46.1328 31.7475 45.5051 28.0122C45.0579 25.3449 41.7879 18.7918 34.6101 20.1666C32.3178 20.6058 30.4877 21.6738 29.2654 23.1609H29.2624C27.2498 25.6096 26.8958 29.1855 28.8713 32.9318Z" fill="white"/>
<path opacity="0.25" d="M29.9791 34.5472C32.8671 37.8363 37.6021 37.7491 39.4412 37.2176C42.9879 36.1928 46.1326 31.7475 45.5059 28.0122C45.0576 25.3449 41.7876 18.7918 34.6099 20.1666C32.3185 20.6058 30.4885 21.6738 29.2651 23.1609C35.8021 18.9102 44.5031 26.2143 39.3038 33.011C36.1682 37.1133 32.3587 35.9561 29.9791 34.5472Z" fill="#181558"/>
<path d="M37.1129 38.5223C34.1046 38.5223 30.0635 37.4022 27.9577 33.4052C26.2651 30.1964 26.0645 26.9233 27.3912 24.1898C28.6606 21.5726 31.1555 19.7877 34.4145 19.166C37.1831 18.6355 39.674 19.1188 41.8209 20.5999C44.9325 22.7488 46.2531 26.2776 46.5168 27.8439C47.2087 31.9592 43.9097 36.9901 39.7251 38.1974C39.0573 38.3899 38.1458 38.5223 37.1129 38.5223ZM36.5093 21.001C35.9377 21.004 35.3661 21.0602 34.8046 21.1695C32.2014 21.6669 30.227 23.0547 29.2463 25.0753C28.2074 27.2131 28.3979 29.8354 29.7807 32.4586C32.2174 37.0843 37.8841 36.603 39.1566 36.239C42.3173 35.3275 45.0117 31.2613 44.4933 28.1838C44.2436 26.7047 43.0152 23.9121 40.6507 22.2826C39.4364 21.4365 37.9892 20.9887 36.5093 21.001ZM50.2471 28.5228C50.8237 33.3551 47.9969 38.3368 43.8194 40.7555C43.5386 40.9149 43.2579 41.0713 42.9721 41.2137C43.4003 40.7354 43.8876 40.3343 44.3128 39.864C47.3702 36.7484 49.4559 32.8166 50.2471 28.5228ZM104.935 52.9029C107.89 52.936 110.223 56.4156 110.148 60.6733C110.073 64.9311 107.616 68.3565 104.662 68.3224C101.708 68.2893 99.3735 64.8097 99.4497 60.552C99.5249 56.2943 101.981 52.8688 104.935 52.9029Z" fill="#232333"/>
<path d="M104.94 54.6908C105.826 55.1811 106.063 56.6602 105.469 57.9939C104.874 59.3275 103.674 60.0094 102.788 59.5201C101.9 59.0287 101.665 57.5496 102.258 56.216C102.853 54.8823 104.053 54.1994 104.94 54.6908Z" fill="white"/>
<path d="M107.033 64.0997C107.437 64.4728 107.4 65.269 106.951 65.8756C106.502 66.4823 105.811 66.6778 105.408 66.3018C105.004 65.9258 105.041 65.1316 105.489 64.5259C105.938 63.9192 106.629 63.7257 107.033 64.0997Z" fill="#B199C5"/>
<path d="M68.9004 55.6904C65.6695 55.7265 63.1184 59.529 63.2007 64.1859C63.2839 68.8427 65.9703 72.586 69.2012 72.5509C72.4321 72.5158 74.9831 68.7123 74.9009 64.0555C74.8187 59.3987 72.1313 55.6543 68.9004 55.6904Z" fill="#232333"/>
<path d="M68.9023 57.6459C67.9327 58.1813 67.674 59.7988 68.3257 61.2548C68.9775 62.7108 70.2871 63.4609 71.2568 62.9234C72.2265 62.3859 72.4862 60.7705 71.8344 59.3135C71.1826 57.8575 69.869 57.1094 68.9023 57.6459Z" fill="white"/>
<path d="M66.605 67.9321C66.1638 68.3402 66.2009 69.2116 66.6943 69.8805C67.1877 70.5483 67.9407 70.7549 68.3819 70.3468C68.8232 69.9376 68.7861 69.0672 68.2917 68.3984C67.7983 67.7296 67.0453 67.524 66.605 67.9321Z" fill="#B199C5"/>
</g>
</g>
</g>
</g>
</g>
<defs>
<clipPath id="clip0_5_1778">
<rect width="140.39" height="181.5" fill="white"/>
</clipPath>
<clipPath id="clip1_5_1778">
<rect width="140.39" height="181.5" fill="white"/>
</clipPath>
<clipPath id="clip2_5_1778">
<rect width="140.39" height="181.5" fill="white"/>
</clipPath>
<clipPath id="clip3_5_1778">
<rect width="141.389" height="181.5" fill="white" transform="translate(-0.499756)"/>
</clipPath>
</defs>
</svg>
