<svg width="449" height="415" viewBox="0 0 449 415" fill="none" xmlns="http://www.w3.org/2000/svg">
<path d="M224.501 214.611V15.5V0.5V199.611V214.611Z" fill="#567A0F" stroke="#567A0F"/>
<path d="M224.501 0.5C229.193 0.499999 233.883 0.631029 238.566 0.892899V15.8929C233.883 15.631 229.193 15.5 224.501 15.5V0.5Z" fill="#567A0F"/>
<path d="M224.501 199.611V214.611M224.501 0.5C229.193 0.499999 233.883 0.631029 238.566 0.892899V15.8929C233.883 15.631 229.193 15.5 224.501 15.5V0.5Z" stroke="#567A0F"/>
<path d="M224.501 199.611V0.5C229.193 0.499999 233.883 0.631029 238.566 0.892899L224.501 199.611Z" fill="#72A314" stroke="#040404"/>
<path d="M238.566 15.8928L224.501 214.611V199.611L238.566 0.892822V15.8928Z" fill="#567A0F" stroke="#567A0F"/>
<path d="M224.501 15.5V214.611V199.611V0.5V15.5Z" fill="#53476E" stroke="#53476E"/>
<path d="M224.501 214.611L238.566 15.8928V0.892822L224.501 199.611V214.611Z" fill="#53476E" stroke="#53476E"/>
<path d="M238.566 0.892899C245.005 1.25299 251.424 1.86019 257.804 2.7128V17.7128C251.424 16.8602 245.005 16.253 238.566 15.8929V0.892899ZM257.804 2.7128C264.184 3.5654 270.519 4.66263 276.793 6.0014V21.0014C270.519 19.6626 264.184 18.5654 257.804 17.7128V2.7128ZM276.793 6.0014C283.066 7.34021 289.272 8.91931 295.392 10.7343V25.7343C289.272 23.9193 283.066 22.3402 276.793 21.0014V6.0014ZM295.392 10.7343C301.512 12.5493 307.541 14.5984 313.462 16.876V31.876C307.541 29.5984 301.512 27.5493 295.392 25.7343V10.7343ZM313.462 16.876C319.383 19.1536 325.191 21.6575 330.869 24.3807V39.3807C325.191 36.6575 319.383 34.1536 313.462 31.876V16.876ZM330.869 24.3807C336.547 27.104 342.09 30.044 347.482 33.1926V48.1926C342.09 45.044 336.547 42.104 330.869 39.3807V24.3807ZM347.482 33.1926C352.874 36.3412 358.111 39.6954 363.178 43.2458V58.2458C358.111 54.6954 352.874 51.3412 347.482 48.1926V33.1926ZM363.178 43.2458C368.245 46.7962 373.136 50.5395 377.84 54.4653V69.4653C373.136 65.5395 368.245 61.7962 363.178 58.2458V43.2458ZM377.84 54.4653C382.543 58.3911 387.053 62.4957 391.357 66.7676V81.7676C387.053 77.4957 382.543 73.3911 377.84 69.4653V54.4653ZM391.357 66.7676C395.662 71.0395 399.757 75.4747 403.63 80.0608V95.0608C399.757 90.4747 395.662 86.0395 391.357 81.7676V66.7676ZM403.63 80.0608C407.504 84.6469 411.153 89.3796 414.567 94.2457V109.246C411.153 104.38 407.504 99.6469 403.63 95.0608V80.0608ZM414.567 94.2457C417.981 99.1118 421.157 104.107 424.086 109.216V124.216C421.157 119.107 417.981 114.112 414.567 109.246V94.2457ZM424.086 109.216C427.016 114.326 429.695 119.546 432.117 124.862V139.862C429.695 134.546 427.016 129.326 424.086 124.216V109.216ZM432.117 124.862C434.539 130.177 436.702 135.583 438.599 141.064V156.064C436.702 150.583 434.539 145.177 432.117 139.862V124.862ZM438.599 141.064C440.496 146.546 442.125 152.097 443.483 157.704V172.704C442.125 167.097 440.496 161.546 438.599 156.064V141.064ZM443.483 157.704C444.841 163.31 445.926 168.966 446.735 174.656V189.656C445.926 183.966 444.841 178.31 443.483 172.704V157.704ZM446.735 174.656C447.543 180.346 448.075 186.064 448.328 191.794V206.794C448.075 201.064 447.543 195.346 446.735 189.656V174.656ZM448.328 191.794V206.794C448.582 212.524 448.556 218.262 448.252 223.99V208.99C448.556 203.262 448.582 197.524 448.328 191.794ZM448.252 208.99V223.99C447.948 229.719 447.366 235.433 446.507 241.117V226.117C447.366 220.433 447.948 214.719 448.252 208.99ZM446.507 226.117V241.117C445.648 246.801 444.514 252.449 443.106 258.046V243.046C444.514 237.449 445.648 231.801 446.507 226.117ZM443.106 243.046V258.046C441.699 263.643 440.02 269.183 438.075 274.651V259.651C440.02 254.183 441.699 248.643 443.106 243.046ZM438.075 259.651V274.651C436.129 280.119 433.919 285.509 431.45 290.808V275.808C433.919 270.509 436.129 265.119 438.075 259.651ZM431.45 275.808V290.808C428.981 296.106 426.256 301.307 423.282 306.396V291.396C426.256 286.307 428.981 281.106 431.45 275.808ZM423.282 291.396V306.396C420.308 311.485 417.087 316.458 413.63 321.3V306.3C417.087 301.458 420.308 296.485 423.282 291.396ZM413.63 306.3V321.3C410.173 326.142 406.483 330.849 402.569 335.408V320.408C406.483 315.849 410.173 311.142 413.63 306.3ZM402.569 320.408V335.408C398.654 339.967 394.52 344.374 390.178 348.615V333.615C394.52 329.374 398.654 324.967 402.569 320.408ZM390.178 333.615V348.615C385.836 352.857 381.29 356.93 376.552 360.823V345.823C381.29 341.93 385.836 337.857 390.178 333.615ZM376.552 345.823V360.823C371.815 364.716 366.89 368.425 361.792 371.94V356.94C366.89 353.425 371.815 349.716 376.552 345.823ZM361.792 356.94V371.94C356.694 375.455 351.428 378.772 346.008 381.883V366.883C351.428 363.772 356.694 360.455 361.792 356.94ZM346.008 366.883V381.883C340.588 384.994 335.019 387.895 329.317 390.579V375.579C335.019 372.895 340.588 369.994 346.008 366.883ZM329.317 375.579V390.579C323.615 393.262 317.786 395.726 311.845 397.962V382.962C317.786 380.726 323.615 378.262 329.317 375.579ZM311.845 382.962V397.962C305.904 400.198 299.857 402.205 293.721 403.977V388.977C299.857 387.205 305.904 385.198 311.845 382.962ZM293.721 388.977V403.977C287.585 405.749 281.366 407.285 275.081 408.58V393.58C281.366 392.285 287.585 390.749 293.721 388.977ZM275.081 393.58V408.58C268.795 409.875 262.45 410.928 256.063 411.736V396.736C262.45 395.928 268.795 394.875 275.081 393.58ZM256.063 396.736V411.736C249.676 412.544 243.252 413.106 236.81 413.421V398.421C243.252 398.106 249.676 397.544 256.063 396.736ZM236.81 398.421V413.421C230.368 413.737 223.914 413.804 217.465 413.624V398.624C223.914 398.804 230.368 398.737 236.81 398.421ZM217.465 398.624V413.624C211.016 413.444 204.58 413.016 198.173 412.342V397.342C204.58 398.016 211.016 398.444 217.465 398.624ZM198.173 397.342V412.342C191.766 411.668 185.394 410.748 179.077 409.585V394.585C185.394 395.748 191.766 396.668 198.173 397.342ZM179.077 394.585V409.585C172.759 408.422 166.501 407.017 160.319 405.374V390.374C166.501 392.017 172.759 393.422 179.077 394.585ZM160.319 390.374V405.374C154.138 403.731 148.04 401.851 142.041 399.74V384.74C148.04 386.851 154.138 388.731 160.319 390.374ZM142.041 384.74V399.74C136.042 397.629 130.149 395.288 124.378 392.725V377.725C130.149 380.288 136.042 382.629 142.041 384.74ZM124.378 377.725V392.725C118.606 390.162 112.962 387.378 107.461 384.381V369.381C112.962 372.378 118.606 375.162 124.378 377.725ZM107.461 369.381V384.381C101.96 381.385 96.6075 378.178 91.4179 374.771V359.771C96.6075 363.178 101.96 366.385 107.461 369.381ZM91.4179 359.771V374.771C86.2283 371.364 81.2066 367.759 76.3671 363.966V348.966C81.2066 352.759 86.2283 356.364 91.4179 359.771ZM76.3671 348.966V363.966C71.5276 360.174 66.8747 356.197 62.4214 352.048V337.048C66.8747 341.197 71.5276 345.174 76.3671 348.966ZM62.4214 337.048V352.048C57.9681 347.898 53.7185 343.58 49.6846 339.104V324.104C53.7185 328.58 57.9681 332.898 62.4214 337.048ZM49.6846 324.104V339.104C45.6507 334.628 41.8362 330 38.2518 325.231V310.231C41.8362 315 45.6507 319.628 49.6846 324.104ZM38.2518 310.231V325.231C34.6674 320.463 31.3164 315.559 28.2083 310.534V295.534C31.3164 300.559 34.6674 305.463 38.2518 310.231ZM28.2083 295.534V310.534C25.1002 305.508 22.2377 300.366 19.629 295.12V280.12C22.2377 285.366 25.1002 290.508 28.2083 295.534ZM19.629 280.12V295.12C17.0203 289.875 14.6677 284.532 12.5779 279.107V264.107C14.6677 269.532 17.0203 274.875 19.629 280.12ZM12.5779 264.107V279.107C10.488 273.681 8.66288 268.178 7.1075 262.612V247.612C8.66288 253.178 10.488 258.681 12.5779 264.107ZM7.1075 247.612V262.612C5.55216 257.046 4.26806 251.423 3.25879 245.759V230.759C4.26806 236.423 5.55216 242.046 7.1075 247.612ZM3.25879 230.759V245.759C2.24953 240.095 1.51605 234.394 1.0604 228.674V213.674C1.51605 219.394 2.24953 225.095 3.25879 230.759ZM1.0604 213.674C0.604712 207.953 0.427281 202.218 0.5286 196.484V211.484C0.427281 217.218 0.604712 222.953 1.0604 228.674V213.674ZM0.5286 196.484C0.629963 190.749 1.00998 185.022 1.66759 179.317V194.317C1.00998 200.022 0.629963 205.749 0.5286 211.484V196.484ZM1.66759 179.317C2.32518 173.612 3.25976 167.935 4.46869 162.301V177.301C3.25976 182.935 2.32518 188.612 1.66759 194.317V179.317ZM4.46869 162.301C5.67761 156.668 7.15976 151.084 8.911 145.564V160.564C7.15976 166.084 5.67761 171.668 4.46869 177.301V162.301ZM8.911 145.564C10.6623 140.045 12.681 134.595 14.9615 129.23V144.23C12.681 149.595 10.6623 155.045 8.911 160.564V145.564ZM14.9615 129.23C17.242 123.866 19.7823 118.591 22.5751 113.421V128.421C19.7823 133.591 17.242 138.866 14.9615 144.23V129.23ZM22.5751 113.421C25.3679 108.252 28.4106 103.192 31.6948 98.2553V113.255C28.4106 118.192 25.3679 123.252 22.5751 128.421V113.421ZM31.6948 98.2553C34.979 93.3191 38.5016 88.5112 42.2527 83.8453V98.8453C38.5016 103.511 34.979 108.319 31.6948 113.255V98.2553ZM42.2527 83.8453C46.0038 79.1794 49.98 74.6596 54.1701 70.2988V85.2988C49.98 89.6596 46.0038 94.1794 42.2527 98.8453V83.8453ZM54.1701 70.2988C58.3602 65.938 62.7602 61.7401 67.358 57.7169V72.7169C62.7602 76.7401 58.3602 80.938 54.1701 85.2988V70.2988ZM67.358 57.7169C71.9557 53.6937 76.7469 49.849 81.718 46.1934V61.1934C76.7469 64.849 71.9557 68.6937 67.358 72.7169V57.7169ZM81.718 46.1934C86.6891 42.5378 91.8356 39.0749 97.1431 35.8142V50.8142C91.8356 54.0749 86.6891 57.5378 81.718 61.1934V46.1934ZM97.1431 35.8142C102.451 32.5536 107.914 29.4983 113.518 26.6569V41.6569C107.914 44.4983 102.451 47.5536 97.1431 50.8142V35.8142ZM113.518 26.6569C119.122 23.8155 124.862 21.1907 130.721 18.7897V33.7897C124.862 36.1907 119.122 38.8155 113.518 41.6569V26.6569ZM130.721 18.7897C136.58 16.3887 142.553 14.2139 148.624 12.2713V27.2713C142.553 29.2139 136.58 31.3887 130.721 33.7897V18.7897ZM148.624 12.2713C154.694 10.3287 160.856 8.62009 167.092 7.1503V22.1503C160.856 23.6201 154.694 25.3287 148.624 27.2713V12.2713ZM167.092 7.1503C173.328 5.68051 179.633 4.4509 185.989 3.4649V18.4649C179.633 19.4509 173.328 20.6805 167.092 22.1503V7.1503ZM185.989 3.4649C192.345 2.47891 198.745 1.73744 205.173 1.2426V16.2426C198.745 16.7374 192.345 17.4789 185.989 18.4649V3.4649ZM205.173 1.2426C211.601 0.747762 218.049 0.499998 224.501 0.5V15.5C218.049 15.5 211.601 15.7478 205.173 16.2426V1.2426Z" fill="#53476E"/>
<path d="M257.804 2.7128C251.424 1.86019 245.005 1.25299 238.566 0.892899V15.8929C245.005 16.253 251.424 16.8602 257.804 17.7128M257.804 2.7128V17.7128M257.804 2.7128C264.184 3.5654 270.519 4.66263 276.793 6.0014M257.804 17.7128C264.184 18.5654 270.519 19.6626 276.793 21.0014M276.793 6.0014V21.0014M276.793 6.0014C283.066 7.34021 289.272 8.91931 295.392 10.7343M276.793 21.0014C283.066 22.3402 289.272 23.9193 295.392 25.7343M295.392 10.7343V25.7343M295.392 10.7343C301.512 12.5493 307.541 14.5984 313.462 16.876M295.392 25.7343C301.512 27.5493 307.541 29.5984 313.462 31.876M313.462 16.876V31.876M313.462 16.876C319.383 19.1536 325.191 21.6575 330.869 24.3807M313.462 31.876C319.383 34.1536 325.191 36.6575 330.869 39.3807M330.869 24.3807V39.3807M330.869 24.3807C336.547 27.104 342.09 30.044 347.482 33.1926M330.869 39.3807C336.547 42.104 342.09 45.044 347.482 48.1926M347.482 33.1926V48.1926M347.482 33.1926C352.874 36.3412 358.111 39.6954 363.178 43.2458M347.482 48.1926C352.874 51.3412 358.111 54.6954 363.178 58.2458M363.178 43.2458V58.2458M363.178 43.2458C368.245 46.7962 373.136 50.5395 377.84 54.4653M363.178 58.2458C368.245 61.7962 373.136 65.5395 377.84 69.4653M377.84 54.4653V69.4653M377.84 54.4653C382.543 58.3911 387.053 62.4957 391.357 66.7676M377.84 69.4653C382.543 73.3911 387.053 77.4957 391.357 81.7676M391.357 66.7676V81.7676M391.357 66.7676C395.662 71.0395 399.757 75.4747 403.63 80.0608M391.357 81.7676C395.662 86.0395 399.757 90.4747 403.63 95.0608M403.63 80.0608V95.0608M403.63 80.0608C407.504 84.6469 411.153 89.3796 414.567 94.2457M403.63 95.0608C407.504 99.6469 411.153 104.38 414.567 109.246M414.567 94.2457V109.246M414.567 94.2457C417.981 99.1118 421.157 104.107 424.086 109.216M414.567 109.246C417.981 114.112 421.157 119.107 424.086 124.216M424.086 109.216V124.216M424.086 109.216C427.016 114.326 429.695 119.546 432.117 124.862M424.086 124.216C427.016 129.326 429.695 134.546 432.117 139.862M432.117 124.862V139.862M432.117 124.862C434.539 130.177 436.702 135.583 438.599 141.064M432.117 139.862C434.539 145.177 436.702 150.583 438.599 156.064M438.599 141.064V156.064M438.599 141.064C440.496 146.546 442.125 152.097 443.483 157.704M438.599 156.064C440.496 161.546 442.125 167.097 443.483 172.704M443.483 157.704V172.704M443.483 157.704C444.841 163.31 445.926 168.966 446.735 174.656M443.483 172.704C444.841 178.31 445.926 183.966 446.735 189.656M446.735 174.656V189.656M446.735 174.656C447.543 180.346 448.075 186.064 448.328 191.794M446.735 189.656C447.543 195.346 448.075 201.064 448.328 206.794M448.328 191.794V206.794M448.328 191.794C448.582 197.524 448.556 203.262 448.252 208.99M448.328 206.794C448.582 212.524 448.556 218.262 448.252 223.99M448.252 223.99V208.99M448.252 223.99C447.948 229.719 447.366 235.433 446.507 241.117M448.252 208.99C447.948 214.719 447.366 220.433 446.507 226.117M446.507 241.117V226.117M446.507 241.117C445.648 246.801 444.514 252.449 443.106 258.046M446.507 226.117C445.648 231.801 444.514 237.449 443.106 243.046M443.106 258.046V243.046M443.106 258.046C441.699 263.643 440.02 269.183 438.075 274.651M443.106 243.046C441.699 248.643 440.02 254.183 438.075 259.651M438.075 274.651V259.651M438.075 274.651C436.129 280.119 433.919 285.509 431.45 290.808M438.075 259.651C436.129 265.119 433.919 270.509 431.45 275.808M431.45 290.808V275.808M431.45 290.808C428.981 296.106 426.256 301.307 423.282 306.396M431.45 275.808C428.981 281.106 426.256 286.307 423.282 291.396M423.282 306.396V291.396M423.282 306.396C420.308 311.485 417.087 316.458 413.63 321.3M423.282 291.396C420.308 296.485 417.087 301.458 413.63 306.3M413.63 321.3V306.3M413.63 321.3C410.173 326.142 406.483 330.849 402.569 335.408M413.63 306.3C410.173 311.142 406.483 315.849 402.569 320.408M402.569 335.408V320.408M402.569 335.408C398.654 339.967 394.52 344.374 390.178 348.615M402.569 320.408C398.654 324.967 394.52 329.374 390.178 333.615M390.178 348.615V333.615M390.178 348.615C385.836 352.857 381.29 356.93 376.552 360.823M390.178 333.615C385.836 337.857 381.29 341.93 376.552 345.823M376.552 360.823V345.823M376.552 360.823C371.815 364.716 366.89 368.425 361.792 371.94M376.552 345.823C371.815 349.716 366.89 353.425 361.792 356.94M361.792 371.94V356.94M361.792 371.94C356.694 375.455 351.428 378.772 346.008 381.883M361.792 356.94C356.694 360.455 351.428 363.772 346.008 366.883M346.008 381.883V366.883M346.008 381.883C340.588 384.994 335.019 387.895 329.317 390.579M346.008 366.883C340.588 369.994 335.019 372.895 329.317 375.579M329.317 390.579V375.579M329.317 390.579C323.615 393.262 317.786 395.726 311.845 397.962M329.317 375.579C323.615 378.262 317.786 380.726 311.845 382.962M311.845 397.962V382.962M311.845 397.962C305.904 400.198 299.857 402.205 293.721 403.977M311.845 382.962C305.904 385.198 299.857 387.205 293.721 388.977M293.721 403.977V388.977M293.721 403.977C287.585 405.749 281.366 407.285 275.081 408.58M293.721 388.977C287.585 390.749 281.366 392.285 275.081 393.58M275.081 408.58V393.58M275.081 408.58C268.795 409.875 262.45 410.928 256.063 411.736M275.081 393.58C268.795 394.875 262.45 395.928 256.063 396.736M256.063 411.736V396.736M256.063 411.736C249.676 412.544 243.252 413.106 236.81 413.421M256.063 396.736C249.676 397.544 243.252 398.106 236.81 398.421M236.81 413.421V398.421M236.81 413.421C230.368 413.737 223.914 413.804 217.465 413.624M236.81 398.421C230.368 398.737 223.914 398.804 217.465 398.624M217.465 413.624V398.624M217.465 413.624C211.016 413.444 204.58 413.016 198.173 412.342M217.465 398.624C211.016 398.444 204.58 398.016 198.173 397.342M198.173 412.342V397.342M198.173 412.342C191.766 411.668 185.394 410.748 179.077 409.585M198.173 397.342C191.766 396.668 185.394 395.748 179.077 394.585M179.077 409.585V394.585M179.077 409.585C172.759 408.422 166.501 407.017 160.319 405.374M179.077 394.585C172.759 393.422 166.501 392.017 160.319 390.374M160.319 405.374V390.374M160.319 405.374C154.138 403.731 148.04 401.851 142.041 399.74M160.319 390.374C154.138 388.731 148.04 386.851 142.041 384.74M142.041 399.74V384.74M142.041 399.74C136.042 397.629 130.149 395.288 124.378 392.725M142.041 384.74C136.042 382.629 130.149 380.288 124.378 377.725M124.378 392.725V377.725M124.378 392.725C118.606 390.162 112.962 387.378 107.461 384.381M124.378 377.725C118.606 375.162 112.962 372.378 107.461 369.381M107.461 384.381V369.381M107.461 384.381C101.96 381.385 96.6075 378.178 91.4179 374.771M107.461 369.381C101.96 366.385 96.6075 363.178 91.4179 359.771M91.4179 374.771V359.771M91.4179 374.771C86.2283 371.364 81.2066 367.759 76.3671 363.966M91.4179 359.771C86.2283 356.364 81.2066 352.759 76.3671 348.966M76.3671 363.966V348.966M76.3671 363.966C71.5276 360.174 66.8747 356.197 62.4214 352.048M76.3671 348.966C71.5276 345.174 66.8747 341.197 62.4214 337.048M62.4214 352.048V337.048M62.4214 352.048C57.9681 347.898 53.7185 343.58 49.6846 339.104M62.4214 337.048C57.9681 332.898 53.7185 328.58 49.6846 324.104M49.6846 339.104V324.104M49.6846 339.104C45.6507 334.628 41.8362 330 38.2518 325.231M49.6846 324.104C45.6507 319.628 41.8362 315 38.2518 310.231M38.2518 325.231V310.231M38.2518 325.231C34.6674 320.463 31.3164 315.559 28.2083 310.534M38.2518 310.231C34.6674 305.463 31.3164 300.559 28.2083 295.534M28.2083 310.534V295.534M28.2083 310.534C25.1002 305.508 22.2377 300.366 19.629 295.12M28.2083 295.534C25.1002 290.508 22.2377 285.366 19.629 280.12M19.629 295.12V280.12M19.629 295.12C17.0203 289.875 14.6677 284.532 12.5779 279.107M19.629 280.12C17.0203 274.875 14.6677 269.532 12.5779 264.107M12.5779 279.107V264.107M12.5779 279.107C10.488 273.681 8.66288 268.178 7.1075 262.612M12.5779 264.107C10.488 258.681 8.66288 253.178 7.1075 247.612M7.1075 262.612V247.612M7.1075 262.612C5.55216 257.046 4.26806 251.423 3.25879 245.759M7.1075 247.612C5.55216 242.046 4.26806 236.423 3.25879 230.759M3.25879 245.759V230.759M3.25879 245.759C2.24953 240.095 1.51605 234.394 1.0604 228.674M3.25879 230.759C2.24953 225.095 1.51605 219.394 1.0604 213.674M1.0604 228.674V213.674M1.0604 228.674C0.604712 222.953 0.427281 217.218 0.5286 211.484M1.0604 213.674C0.604712 207.953 0.427281 202.218 0.5286 196.484M0.5286 196.484V211.484M0.5286 196.484C0.629963 190.749 1.00998 185.022 1.66759 179.317M0.5286 211.484C0.629963 205.749 1.00998 200.022 1.66759 194.317M1.66759 179.317V194.317M1.66759 179.317C2.32518 173.612 3.25976 167.935 4.46869 162.301M1.66759 194.317C2.32518 188.612 3.25976 182.935 4.46869 177.301M4.46869 162.301V177.301M4.46869 162.301C5.67761 156.668 7.15976 151.084 8.911 145.564M4.46869 177.301C5.67761 171.668 7.15976 166.084 8.911 160.564M8.911 145.564V160.564M8.911 145.564C10.6623 140.045 12.681 134.595 14.9615 129.23M8.911 160.564C10.6623 155.045 12.681 149.595 14.9615 144.23M14.9615 129.23V144.23M14.9615 129.23C17.242 123.866 19.7823 118.591 22.5751 113.421M14.9615 144.23C17.242 138.866 19.7823 133.591 22.5751 128.421M22.5751 113.421V128.421M22.5751 113.421C25.3679 108.252 28.4106 103.192 31.6948 98.2553M22.5751 128.421C25.3679 123.252 28.4106 118.192 31.6948 113.255M31.6948 98.2553V113.255M31.6948 98.2553C34.979 93.3191 38.5016 88.5112 42.2527 83.8453M31.6948 113.255C34.979 108.319 38.5016 103.511 42.2527 98.8453M42.2527 83.8453V98.8453M42.2527 83.8453C46.0038 79.1794 49.98 74.6596 54.1701 70.2988M42.2527 98.8453C46.0038 94.1794 49.98 89.6596 54.1701 85.2988M54.1701 70.2988V85.2988M54.1701 70.2988C58.3602 65.938 62.7602 61.7401 67.358 57.7169M54.1701 85.2988C58.3602 80.938 62.7602 76.7401 67.358 72.7169M67.358 57.7169V72.7169M67.358 57.7169C71.9557 53.6937 76.7469 49.849 81.718 46.1934M67.358 72.7169C71.9557 68.6937 76.7469 64.849 81.718 61.1934M81.718 46.1934V61.1934M81.718 46.1934C86.6891 42.5378 91.8356 39.0749 97.1431 35.8142M81.718 61.1934C86.6891 57.5378 91.8356 54.0749 97.1431 50.8142M97.1431 35.8142V50.8142M97.1431 35.8142C102.451 32.5536 107.914 29.4983 113.518 26.6569M97.1431 50.8142C102.451 47.5536 107.914 44.4983 113.518 41.6569M113.518 26.6569V41.6569M113.518 26.6569C119.122 23.8155 124.862 21.1907 130.721 18.7897M113.518 41.6569C119.122 38.8155 124.862 36.1907 130.721 33.7897M130.721 18.7897V33.7897M130.721 18.7897C136.58 16.3887 142.553 14.2139 148.624 12.2713M130.721 33.7897C136.58 31.3887 142.553 29.2139 148.624 27.2713M148.624 12.2713V27.2713M148.624 12.2713C154.694 10.3287 160.856 8.62009 167.092 7.1503M148.624 27.2713C154.694 25.3287 160.856 23.6201 167.092 22.1503M167.092 7.1503V22.1503M167.092 7.1503C173.328 5.68051 179.633 4.4509 185.989 3.4649M167.092 22.1503C173.328 20.6805 179.633 19.4509 185.989 18.4649M185.989 3.4649V18.4649M185.989 3.4649C192.345 2.47891 198.745 1.73744 205.173 1.2426M185.989 18.4649C192.345 17.4789 198.745 16.7374 205.173 16.2426M205.173 1.2426V16.2426M205.173 1.2426C211.601 0.747762 218.049 0.499998 224.501 0.5V15.5C218.049 15.5 211.601 15.7478 205.173 16.2426M224.501 199.611V214.611" stroke="#53476E"/>
<path d="M224.501 199.611L238.566 0.892899C297.249 4.17448 352.128 27.8348 391.358 66.7673C430.588 105.7 451.023 156.783 448.253 208.991C445.484 261.199 419.731 310.345 376.553 345.823C333.375 381.301 276.235 400.266 217.465 398.624C158.695 396.983 103.007 374.866 62.4207 337.048C21.8344 299.23 -0.395909 248.743 0.527668 196.484C1.45125 144.224 25.4546 94.3827 67.3573 57.7166C109.26 21.0504 165.702 0.499776 224.501 0.5V199.611Z" fill="#6F5F93" stroke="#040404"/>
<path d="M238.566 0.892822L224.501 199.611L0.527668 196.484C-0.395909 248.743 21.8344 299.23 62.4207 337.048C103.007 374.866 158.695 396.982 217.465 398.624C276.235 400.266 333.375 381.301 376.553 345.823C419.731 310.345 445.484 261.199 448.253 208.991C451.023 156.783 430.588 105.7 391.358 66.7673C352.128 27.8347 297.249 4.1744 238.566 0.892822Z" fill="#993535" stroke="#040404"/>
</svg>
