<svg width="647" height="341" viewBox="0 0 647 341" fill="none" xmlns="http://www.w3.org/2000/svg">
<g clip-path="url(#clip0_161_145)">
<g clip-path="url(#clip1_161_145)">
<g clip-path="url(#clip2_161_145)">
<g style="mix-blend-mode:multiply" opacity="0.33">
<path d="M640.583 130.361C638.413 127.594 634.81 125.882 630.68 125.673C589.475 123.573 553.067 119.88 511.534 117.78C500.147 122.159 489.269 124.369 476.579 125.384C459.987 126.718 443.396 123.793 428.019 119.224C394.766 118.737 360.806 118.487 326.21 118.487C287.105 118.487 250.409 118.805 216.947 119.303C211.841 119.611 206.805 119.114 202.266 117.84C201.5 118.427 200.744 119.014 200.017 119.582C99.9702 121.283 32.8875 124.448 26.4977 124.926C14.385 125.822 8.97064 133.545 6.75114 179.04C5.39754 206.739 5.81556 243.457 7.86586 274.848C11.7276 334.138 17.7392 334.924 26.856 336.108C69.564 341.662 183.664 342.477 247.881 342.477C330.997 342.477 425.182 341.173 499.809 338.954C630.123 335.092 632.342 331.609 636.035 325.826C641.32 317.565 643.838 255.062 644.664 228.567C647.481 139.2 642.464 132.799 640.573 130.38L640.583 130.361Z" fill="#462900"/>
<path d="M640.583 130.361C638.413 127.594 634.81 125.882 630.68 125.673C589.475 123.573 553.067 119.88 511.534 117.78C500.147 122.159 489.269 124.369 476.579 125.384C459.987 126.718 443.396 123.793 428.019 119.224C394.766 118.737 360.806 118.487 326.21 118.487C287.105 118.487 250.409 118.805 216.947 119.303C211.841 119.611 206.805 119.114 202.266 117.84C201.5 118.427 200.744 119.014 200.017 119.582C99.9702 121.283 32.8875 124.448 26.4977 124.926C14.385 125.822 8.97064 133.545 6.75114 179.04C5.39754 206.739 5.81556 243.457 7.86586 274.848C11.7276 334.138 17.7392 334.924 26.856 336.108C69.564 341.662 183.664 342.477 247.881 342.477C330.997 342.477 425.182 341.173 499.809 338.954C630.123 335.092 632.342 331.609 636.035 325.826C641.32 317.565 643.838 255.062 644.664 228.567C647.481 139.2 642.464 132.799 640.573 130.38L640.583 130.361Z" stroke="#4A2E00" stroke-width="2.87639"/>
</g>
<g style="mix-blend-mode:multiply" opacity="0.5">
<path d="M553.573 -1.88393C571.02 28.8507 572.682 111.878 572.792 130.4C572.792 132.739 570.234 134.65 567.059 134.66C566.272 134.66 565.536 134.531 564.859 134.322C565.038 135.407 565.675 136.392 566.74 137.059C567.755 137.696 569.069 138.084 570.502 138.084C573.687 138.074 576.245 136.153 576.245 133.824C576.126 114.436 574.334 24.4117 554.508 -2.42139L553.582 -1.88393H553.573Z" fill="#B06E0E"/>
</g>
<path d="M545.323 2.23652C558.878 20.7589 564.432 90.2801 564.701 133.854C564.711 135.148 565.507 136.292 566.731 137.059C567.746 137.696 569.06 138.084 570.493 138.084C573.678 138.074 576.236 136.153 576.236 133.824C576.117 114.436 574.325 24.4216 554.529 -2.4314C551.56 -0.691954 548.489 0.866849 545.332 2.23652H545.323Z" fill="#B06E0E" stroke="#8C5700" stroke-width="2.87639"/>
<path d="M549.193 0.445024C569.368 32.4337 566.71 122.159 566.671 123.125C566.671 123.463 566.85 123.753 567.168 123.952C567.407 124.101 567.726 124.201 568.084 124.201C568.87 124.201 569.547 123.732 569.557 123.136C569.676 119.173 572.274 31.3399 551.602 -0.798096C550.806 -0.37012 549.999 0.047903 549.183 0.44602H549.193V0.445024Z" fill="#C08B3E"/>
<g style="mix-blend-mode:multiply" opacity="0.49">
<path d="M575.031 111.43C574.922 111.36 574.832 111.281 574.753 111.181C574.703 111.122 570.005 105.379 563.177 103.08C562.51 102.861 562.222 102.273 562.52 101.796C562.829 101.308 563.605 101.089 564.272 101.318C571.866 103.876 576.813 109.937 577.022 110.196C577.4 110.654 577.191 111.251 576.564 111.53C576.066 111.749 575.449 111.689 575.031 111.43ZM574.277 101.299C574.167 101.229 574.078 101.15 573.998 101.05C573.948 101 569.26 95.2576 562.423 92.9684C561.756 92.7495 561.467 92.1722 561.766 91.6745C562.064 91.1869 562.851 90.9679 563.518 91.1968C571.122 93.7547 576.058 99.8061 576.267 100.065C576.636 100.523 576.437 101.12 575.8 101.399C575.302 101.618 574.685 101.568 574.267 101.309L574.277 101.299ZM574.088 91.9721C573.979 91.9082 573.885 91.8237 573.809 91.7233C573.759 91.6636 569.071 85.9208 562.244 83.6316C561.577 83.4126 561.288 82.8354 561.587 82.3477C561.895 81.86 562.672 81.641 563.338 81.8699C570.933 84.4079 575.879 90.4792 576.088 90.738C576.466 91.2058 576.257 91.8029 575.63 92.0717C575.133 92.2906 574.516 92.2409 574.098 91.9721H574.088ZM573.014 81.8799C572.904 81.8102 572.815 81.7306 572.735 81.631C572.685 81.5713 567.988 75.8285 561.15 73.5393C560.493 73.3204 560.194 72.7431 560.503 72.2554C560.801 71.7577 561.588 71.5487 562.255 71.7677C569.849 74.3157 574.805 80.3869 575.004 80.6357C575.373 81.1035 575.173 81.7007 574.546 81.9695C574.049 82.1884 573.432 82.1386 573.014 81.8699V81.8799ZM572.136 72.1161C572.026 72.0464 571.937 71.9668 571.857 71.8672C571.807 71.8175 567.11 66.0647 560.292 63.7755C559.625 63.5565 559.336 62.9693 559.635 62.4916C559.934 62.0039 560.72 61.7849 561.387 62.0039C568.981 64.5419 573.927 70.6231 574.136 70.8719C574.515 71.3298 574.306 71.9269 573.679 72.2056C573.181 72.4246 572.564 72.3748 572.146 72.1161H572.136ZM570.206 61.6953C570.097 61.6257 569.997 61.546 569.917 61.4465C569.868 61.3868 565.369 55.7734 558.71 53.5738C558.044 53.3548 557.745 52.7775 558.044 52.2898C558.342 51.8021 559.128 51.5832 559.795 51.8021C567.25 54.2605 572.008 60.2124 572.207 60.4711C572.575 60.9389 572.356 61.5261 571.729 61.8048C571.231 62.0138 570.624 61.9641 570.206 61.7053V61.6953ZM569.648 51.4538C569.549 51.3975 569.461 51.3232 569.389 51.2348C569.339 51.1851 564.502 45.6711 557.764 43.5611C557.087 43.3521 556.779 42.7848 557.067 42.2871C557.356 41.7895 558.132 41.5606 558.799 41.7696C566.313 44.1284 571.409 49.9409 571.618 50.1898C572.007 50.6476 571.827 51.2448 571.21 51.5334C570.703 51.7623 570.076 51.7225 569.638 51.4538H569.648ZM566.95 41.1326C566.851 41.0729 566.771 40.9933 566.692 40.9136C566.642 40.8639 561.815 35.35 555.057 33.23C554.39 33.021 554.071 32.4437 554.36 31.956C554.649 31.4584 555.425 31.2294 556.092 31.4385C563.606 33.8072 568.702 39.6198 568.921 39.8686C569.309 40.3264 569.13 40.9236 568.513 41.2122C568.015 41.4511 567.378 41.4013 566.95 41.1326ZM566.353 32.0655C566.254 32.0092 566.166 31.9349 566.094 31.8465C566.045 31.7868 561.218 26.2828 554.459 24.1629C553.783 23.9539 553.474 23.3766 553.763 22.8889C554.051 22.4012 554.828 22.1623 555.495 22.3813C563.029 24.7501 568.115 30.5626 568.324 30.8114C568.712 31.2693 568.533 31.8664 567.916 32.1551C567.418 32.3939 566.781 32.3442 566.343 32.0754L566.353 32.0655ZM562.115 22.024C562.016 21.9643 561.936 21.8946 561.856 21.805C561.807 21.7453 556.97 16.2413 550.222 14.1214C549.545 13.9124 549.236 13.3351 549.525 12.8474C549.804 12.3497 550.59 12.1208 551.257 12.3298C558.771 14.6887 563.867 20.5012 564.086 20.75C564.474 21.2078 564.295 21.805 563.678 22.0937C563.17 22.3325 562.543 22.2828 562.105 22.014L562.115 22.024ZM560.012 11.8312C559.913 11.7749 559.825 11.7007 559.753 11.6122C559.704 11.5625 554.867 6.04855 548.109 3.92858C547.442 3.71956 547.133 3.14229 547.412 2.64465C547.7 2.147 548.477 1.91808 549.154 2.1271C556.668 4.48594 561.774 10.3184 561.983 10.5572C562.371 11.0151 562.192 11.6122 561.575 11.9009C561.077 12.1397 560.44 12.09 560.012 11.8212V11.8312Z" fill="#8C5700"/>
</g>
<g style="mix-blend-mode:multiply" opacity="0.5">
<path d="M91.4296 -1.88393C73.9821 28.8507 72.32 111.878 72.2105 130.4C72.2105 132.739 74.7684 134.65 77.9434 134.66C78.7297 134.66 79.4662 134.531 80.143 134.322C79.9738 135.407 79.3268 136.392 78.2619 137.059C77.2467 137.696 75.9329 138.084 74.4997 138.084C71.3147 138.074 68.7568 136.153 68.7568 133.824C68.8763 114.436 70.6678 24.4117 90.494 -2.42139L91.4196 -1.88393H91.4296Z" fill="#B06E0E"/>
</g>
<path d="M99.6784 2.23652C86.1325 20.7589 80.5688 90.2801 80.3001 133.854C80.3001 135.148 79.5039 136.292 78.2697 137.059C77.2545 137.696 75.9407 138.084 74.5075 138.084C71.3226 138.074 68.7646 136.153 68.7646 133.824C68.8841 114.436 70.6756 24.4216 90.472 -2.4314C93.3981 -0.719494 96.4636 0.843116 99.6685 2.23652H99.6784Z" fill="#B06E0E" stroke="#8C5700" stroke-width="2.87639"/>
<path d="M95.8049 0.445024C75.6403 32.4337 78.2878 122.159 78.3276 123.125C78.3276 123.463 78.1484 123.753 77.82 123.952C77.5811 124.101 77.2626 124.201 76.9143 124.201C76.128 124.201 75.4512 123.732 75.4412 123.136C75.3118 119.173 72.7241 31.3399 93.3963 -0.798096C94.1925 -0.37012 94.9888 0.047903 95.8049 0.44602V0.445024Z" fill="#C08B3E"/>
<g style="mix-blend-mode:multiply" opacity="0.49">
<path d="M69.9789 111.43C70.0884 111.36 70.178 111.281 70.2576 111.181C70.3074 111.122 75.0052 105.379 81.8329 103.08C82.4997 102.861 82.7883 102.273 82.4897 101.796C82.1912 101.308 81.4049 101.089 80.738 101.318C73.144 103.876 68.1974 109.937 67.9883 110.196C67.6101 110.654 67.8191 111.251 68.4462 111.53C68.9438 111.749 69.5609 111.689 69.9789 111.43ZM70.7254 101.299C70.8349 101.229 70.9245 101.15 71.0041 101.05C71.0538 101 75.7417 95.2576 82.5793 92.9684C83.2462 92.7495 83.5348 92.1722 83.2362 91.6745C82.9376 91.1869 82.1514 90.9679 81.4845 91.1968C73.8904 93.7547 68.9339 99.8061 68.7348 100.065C68.3566 100.523 68.5656 101.12 69.1926 101.399C69.6903 101.618 70.3074 101.568 70.7254 101.309V101.299ZM70.9235 91.9721C71.0329 91.9025 71.1225 91.8228 71.2021 91.7233C71.2519 91.6636 75.9397 85.9208 82.7674 83.6316C83.4343 83.4126 83.7229 82.8354 83.4243 82.3477C83.1257 81.86 82.3395 81.641 81.6726 81.8699C74.0686 84.4079 69.1319 90.4792 68.9229 90.738C68.5547 91.2058 68.7637 91.8029 69.3907 92.0717C69.8884 92.2906 70.5054 92.2409 70.9235 91.9721ZM71.9914 81.8799C72.1009 81.8102 72.2004 81.7306 72.2701 81.631C72.3199 81.5713 77.0176 75.8285 83.8553 73.5393C84.5221 73.3204 84.8108 72.7431 84.5122 72.2554C84.2036 71.7577 83.4273 71.5487 82.7605 71.7677C75.1664 74.3157 70.2098 80.3869 70.0108 80.6357C69.6326 81.1035 69.8416 81.7007 70.4686 81.9695C70.9663 82.1884 71.5833 82.1386 72.0014 81.8699L71.9914 81.8799ZM72.8683 72.1161C72.9777 72.0464 73.0673 71.9668 73.1469 71.8672C73.1967 71.8175 77.8945 66.0647 84.7122 63.7755C85.3791 63.5565 85.6677 62.9693 85.3691 62.4916C85.0606 62.0039 84.2843 61.7849 83.6174 62.0039C76.0233 64.5419 71.0767 70.6231 70.8677 70.8719C70.4995 71.3298 70.7085 71.9269 71.3256 72.2056C71.8232 72.4246 72.4403 72.3748 72.8583 72.1161H72.8683ZM74.7971 61.6953C74.9066 61.6257 75.0062 61.546 75.0858 61.4465C75.1256 61.3868 79.6343 55.7734 86.2828 53.5738C86.9497 53.3548 87.2482 52.7775 86.9497 52.2898C86.6511 51.8021 85.8648 51.5832 85.2079 51.8021C77.7532 54.2605 72.9957 60.2124 72.7966 60.4711C72.4283 60.9389 72.6473 61.5261 73.2743 61.8048C73.772 62.0138 74.3791 61.9641 74.7971 61.7053V61.6953ZM75.3635 51.4538C75.463 51.3941 75.5526 51.3244 75.6222 51.2348C75.672 51.1851 80.4992 45.6711 87.2473 43.5611C87.9241 43.3521 88.2326 42.7848 87.944 42.2871C87.6553 41.7895 86.879 41.5606 86.2121 41.7696C78.6977 44.1284 73.6018 49.9409 73.3828 50.1898C72.9947 50.6476 73.1738 51.2448 73.7909 51.5334C74.2885 51.7623 74.9255 51.7225 75.3535 51.4538H75.3635ZM78.0507 41.1326C78.1503 41.0729 78.2399 40.9933 78.3095 40.9136C78.3593 40.8639 83.1865 35.35 89.9445 33.23C90.6113 33.021 90.9298 32.4437 90.6412 31.956C90.3526 31.4584 89.5762 31.2294 88.9094 31.4385C81.3949 33.8072 76.299 39.6198 76.0801 39.8686C75.6919 40.3264 75.8711 40.9236 76.4782 41.2122C76.9758 41.4511 77.6228 41.4013 78.0507 41.1326ZM78.6499 32.0655C78.7494 32.0058 78.839 31.9361 78.9087 31.8465C78.9585 31.7868 83.7856 26.2828 90.5437 24.1629C91.2205 23.9539 91.529 23.3766 91.2404 22.8889C90.9517 22.4012 90.1754 22.1623 89.5086 22.3813C81.9841 24.7501 76.8882 30.5626 76.6792 30.8114C76.2811 31.2693 76.4702 31.8664 77.0873 32.1551C77.585 32.3939 78.2219 32.3442 78.6499 32.0754V32.0655ZM82.8978 22.024C82.9974 21.9643 83.0869 21.8946 83.1566 21.805C83.2064 21.7453 88.0335 16.2413 94.7916 14.1214C95.4584 13.9124 95.7769 13.3351 95.4883 12.8474C95.1996 12.3497 94.4233 12.1208 93.7465 12.3298C86.2221 14.6887 81.1362 20.5012 80.9172 20.75C80.5191 21.2078 80.7082 21.805 81.3153 22.0937C81.8229 22.3325 82.4499 22.2828 82.8879 22.014L82.8978 22.024ZM84.9889 11.8312C85.0885 11.7715 85.178 11.7018 85.2477 11.6122C85.2975 11.5625 90.1346 6.04855 96.8926 3.92858C97.5595 3.71956 97.878 3.14229 97.5893 2.64465C97.3007 2.147 96.5244 1.91808 95.8575 2.1271C88.3431 4.48594 83.2372 10.3184 83.0282 10.5572C82.6301 11.0151 82.8192 11.6122 83.4263 11.9009C83.924 12.1397 84.561 12.09 84.9989 11.8212L84.9889 11.8312Z" fill="#8C5700"/>
</g>
<path d="M318.686 128.62C170.477 128.62 57.1229 133.148 30.25 134.492C22.5166 157.483 24.0294 283.159 32.36 307.922C65.6426 311.365 139.185 313.246 241.262 313.246C410.203 313.246 573.859 308.31 604.802 303.95C609.669 279.715 613.143 161.385 609.898 135.199C520.312 130.839 422.395 128.63 318.686 128.63V128.62Z" fill="#EFEFEF"/>
<path d="M629.525 123.234C627.385 120.527 623.822 118.865 619.742 118.656C527.408 113.998 426.127 111.639 318.686 111.639C153.706 111.639 31.076 117.262 22.3772 117.899C10.3939 118.775 5.02923 126.31 2.81968 170.7C1.48599 197.742 1.91397 233.562 3.93441 264.197C7.76628 322.054 13.7082 322.82 22.7156 323.975C64.9458 329.399 177.762 330.215 241.262 330.215C323.443 330.215 416.563 328.921 490.354 326.762C619.194 322.989 621.394 319.585 625.057 313.952C630.272 305.89 632.75 244.889 633.576 219.041C636.353 131.834 631.397 125.583 629.525 123.234ZM604.802 303.939C573.859 308.299 410.203 313.236 241.262 313.236C139.185 313.236 65.6425 311.354 32.36 307.911C24.0294 283.148 22.5165 157.472 30.2499 134.481C57.1328 133.137 170.487 128.609 318.686 128.609C422.395 128.609 520.312 130.818 609.898 135.178C613.143 161.364 609.669 279.694 604.802 303.93V303.939Z" fill="#B06E0E" stroke="#8C5700" stroke-width="2.87639"/>
<g style="mix-blend-mode:multiply" opacity="0.5">
<path d="M605.34 130.022C518.172 128.091 417.19 124.249 317.79 124.249C182.988 124.249 75.2372 127.863 35.4354 129.605C31.086 129.794 25.373 130.809 23.3625 136.672C17.7491 169.626 18.9335 271.742 25.383 305.711C26.428 312.728 33.634 313.037 37.5056 313.346C75.0282 316.402 146.291 318.292 239.649 318.292C395.89 318.292 551.196 313.036 600.085 308.627C604.534 308.229 611.162 308.04 611.74 300.555C615.731 267.353 618.07 172.193 615.93 138.621C615.93 133.545 614.855 130.251 605.33 130.032L605.34 130.022ZM604.802 303.95C573.859 308.31 410.203 313.245 241.262 313.245C139.185 313.245 65.6426 311.365 32.36 307.922C24.0294 283.158 22.5165 157.483 30.25 134.492C57.1328 133.148 170.487 128.619 318.686 128.619C422.395 128.619 520.312 130.828 609.898 135.188C613.143 161.374 609.669 279.704 604.802 303.94V303.95Z" fill="#B06E0E"/>
</g>
<g style="mix-blend-mode:multiply" opacity="0.5">
<path d="M629.525 123.234C627.385 120.527 623.822 118.865 619.742 118.656C527.408 113.998 426.127 111.639 318.686 111.639C153.706 111.639 31.076 117.262 22.3772 117.899C10.3939 118.775 5.02923 126.31 2.81968 170.7C1.48599 197.742 1.91397 233.562 3.93441 264.197C7.76628 322.054 13.7082 322.82 22.7156 323.975C64.9458 329.399 177.762 330.215 241.262 330.215C323.443 330.215 416.563 328.921 490.354 326.762C619.194 322.989 621.394 319.585 625.057 313.952C630.272 305.89 632.75 244.889 633.576 219.041C636.353 131.834 631.397 125.583 629.525 123.234ZM626.778 217.787C625.972 242.53 623.554 300.934 618.448 308.647C614.885 314.042 612.725 317.296 486.85 320.899C414.761 322.969 323.782 324.204 243.471 324.204C181.445 324.204 69.2654 322.96 28.0205 317.774C19.2121 316.659 13.3996 315.933 9.67724 260.545C7.69661 231.213 7.28854 196.926 8.58242 171.038C10.7422 128.539 15.9774 121.333 27.6821 120.487C36.1918 119.88 157.956 114.963 319.143 114.963C424.107 114.963 523.069 117.223 613.292 121.682C617.263 121.871 620.747 123.473 622.837 126.061C624.658 128.31 629.505 134.292 626.788 217.767L626.778 217.787Z" fill="#B06E0E"/>
</g>
<path d="M304.342 321.646H304.303C168.077 321.646 47.2883 318.362 37.833 317.267C19.8282 315.197 14.3839 314.569 13.8564 228.387C13.3289 142.782 18.2556 131.804 24.2871 126.957C29.164 123.035 54.2951 122.468 147.803 120.388C175.353 119.771 208.764 119.024 249.153 118.029C279.251 117.282 311.538 116.904 345.129 116.904C483.973 116.904 605.727 123.294 612.943 123.882C623.821 124.778 624.797 131.148 624.797 149.143C624.797 167.138 620.039 291.211 619.502 299.472C618.934 308.22 609.021 311.574 608.593 311.714C530.503 319.934 400.07 321.636 304.332 321.636L304.342 321.646ZM248.716 121.383C208.297 121.751 174.925 123.125 147.365 123.742C59.5204 125.703 29.9304 126.359 25.8696 129.624C20.4751 133.963 16.1953 143.649 16.7228 228.378C17.2404 312.749 22.5553 313.355 38.2709 315.166C47.3878 316.211 170.754 319.526 304.303 319.526H304.342C400 319.526 530.264 317.824 607.817 309.702C607.787 309.662 616.148 306.806 616.635 299.381C617.173 291.11 621.93 166.68 621.93 149.143C621.93 130.312 619.92 127.872 612.087 127.225C604.901 126.628 501.649 119.084 248.716 121.373V121.383Z" fill="#C08B3E"/>
<g style="mix-blend-mode:multiply" opacity="0.49">
<path d="M8.86001 308.887C8.54152 308.887 8.23298 308.807 7.9742 308.638C7.42679 308.28 7.38698 307.662 7.87467 307.264C8.25289 306.945 17.31 299.561 29.2137 296.207C29.8905 296.018 30.6569 296.267 30.9256 296.764C31.1944 297.262 30.846 297.829 30.1692 298.028C18.8627 301.223 9.93493 308.488 9.84535 308.568C9.58658 308.777 9.21832 308.887 8.86001 308.887ZM13.6673 320.909C13.3587 320.909 13.0402 320.83 12.7914 320.66C12.244 320.292 12.2042 319.685 12.6919 319.287C13.0701 318.968 22.1372 311.603 34.031 308.229C34.7177 308.04 35.4741 308.289 35.7429 308.787C36.0016 309.284 35.6632 309.852 34.9864 310.041C23.6799 313.245 14.7521 320.511 14.6626 320.581C14.4038 320.79 14.0355 320.899 13.6772 320.899L13.6673 320.909ZM5.78456 294.683C5.46607 294.683 5.15753 294.604 4.9087 294.434C4.36129 294.076 4.31153 293.469 4.79922 293.061C5.18739 292.742 14.4038 285.168 26.5165 281.725C27.1933 281.535 27.9696 281.774 28.2284 282.282C28.4971 282.79 28.1587 283.347 27.472 283.546C15.9564 286.83 6.86943 294.285 6.77985 294.365C6.52108 294.584 6.15282 294.693 5.79451 294.693L5.78456 294.683ZM5.00624 279.336C4.6977 279.336 4.37921 279.256 4.13038 279.087C3.58297 278.729 3.53321 278.122 4.0209 277.714C4.40907 277.395 13.6354 269.831 25.7581 266.377C26.4349 266.178 27.2013 266.437 27.47 266.935C27.7387 267.432 27.4003 267.999 26.7136 268.189C15.1781 271.473 6.09111 278.928 5.99158 278.997C5.73281 279.216 5.3745 279.326 5.00624 279.326V279.336ZM5.00624 265.999C4.6977 265.999 4.37921 265.919 4.13038 265.75C3.58297 265.392 3.53321 264.775 4.0209 264.377C4.40907 264.058 13.6354 256.494 25.7581 253.04C26.4349 252.841 27.2013 253.1 27.47 253.598C27.7387 254.095 27.4003 254.663 26.7136 254.862C15.1781 258.136 6.09111 265.601 5.99158 265.68C5.73281 265.889 5.3745 266.009 5.00624 266.009V265.999ZM3.84374 251.508C3.5352 251.508 3.21671 251.429 2.96788 251.26C2.42047 250.901 2.37071 250.294 2.8584 249.886C3.24656 249.568 12.463 241.993 24.5856 238.55C25.2624 238.351 26.0388 238.6 26.2975 239.107C26.5563 239.605 26.2179 240.172 25.5411 240.371C14.0156 243.656 4.92861 251.11 4.83903 251.19C4.58026 251.409 4.212 251.518 3.85369 251.518L3.84374 251.508ZM3.45558 236.728C3.14704 236.728 2.82854 236.649 2.57972 236.48C2.03231 236.121 1.98254 235.504 2.47024 235.106C2.8584 234.788 12.0947 227.223 24.2074 223.77C24.8842 223.571 25.6506 223.819 25.9193 224.327C26.1781 224.835 25.8397 225.392 25.1629 225.591C13.6374 228.885 4.53049 236.34 4.45087 236.41C4.19209 236.629 3.82383 236.738 3.45558 236.738V236.728ZM3.45558 221.967C3.14704 221.967 2.82854 221.888 2.57972 221.718C2.03231 221.36 1.98254 220.743 2.47024 220.345C2.8584 220.026 12.0947 212.462 24.2074 209.008C24.8942 208.809 25.6506 209.068 25.9193 209.566C26.1781 210.063 25.8397 210.631 25.1629 210.82C13.6374 214.104 4.53049 221.559 4.45087 221.639C4.19209 221.858 3.82383 221.967 3.45558 221.967ZM2.6892 208.043C2.38066 208.043 2.06217 207.963 1.81334 207.794C1.26593 207.436 1.21617 206.819 1.70386 206.421C2.09203 206.102 11.3084 198.538 23.4311 195.084C24.1079 194.885 24.8743 195.134 25.143 195.642C25.4117 196.139 25.0733 196.707 24.3866 196.896C12.8511 200.19 3.77407 207.635 3.68449 207.715C3.42572 207.934 3.05746 208.043 2.69915 208.043H2.6892ZM2.30104 194.409C1.9925 194.409 1.68396 194.329 1.42518 194.16C0.877769 193.801 0.828005 193.193 1.3157 192.785C1.70386 192.467 10.9203 184.904 23.0529 181.45C23.7396 181.251 24.4961 181.51 24.7648 182.007C25.0335 182.515 24.6852 183.072 24.0084 183.271C12.463 186.556 3.38591 194.01 3.29633 194.09C3.03755 194.309 2.67925 194.419 2.31099 194.419L2.30104 194.409ZM3.07836 180.493C2.75987 180.493 2.45133 180.414 2.2025 180.255C1.65509 179.896 1.60533 179.279 2.09302 178.881C2.48119 178.563 11.7075 170.988 23.8203 167.535C24.4971 167.336 25.2734 167.584 25.5322 168.092C25.7909 168.59 25.4625 169.157 24.7757 169.356C13.2702 172.631 4.16323 180.105 4.0637 180.185C3.80492 180.404 3.43667 180.513 3.07836 180.513V180.493ZM4.2329 166.002C3.92436 166.002 3.60587 165.922 3.35704 165.763C2.80963 165.405 2.75987 164.788 3.24756 164.39C3.62577 164.071 12.8422 156.507 24.9748 153.053C25.6516 152.854 26.418 153.113 26.6867 153.611C26.9455 154.108 26.6071 154.675 25.9303 154.875C14.3849 158.159 5.31777 165.614 5.21824 165.693C4.95946 165.912 4.5912 166.022 4.2329 166.022V166.002ZM5.78655 151.233C5.47801 151.233 5.17942 151.153 4.9306 151.004C4.37324 150.656 4.31352 150.038 4.78131 149.63C5.17942 149.282 14.7143 141.15 27.2749 137.428C27.9517 137.229 28.7181 137.468 28.9968 137.966C29.2655 138.463 28.937 139.03 28.2603 139.23C16.3167 142.773 6.88137 150.805 6.7918 150.894C6.53302 151.113 6.15481 151.233 5.78655 151.233ZM605.518 301.292C605.16 301.292 604.791 301.183 604.533 300.964C604.045 300.565 604.095 299.948 604.642 299.59C605.08 299.301 615.491 292.553 629.136 289.478C629.833 289.319 630.569 289.607 630.788 290.125C630.997 290.642 630.609 291.18 629.912 291.339C616.814 294.285 606.513 300.974 606.404 301.043C606.155 301.212 605.836 301.292 605.528 301.292H605.518ZM607.798 286.413C607.46 286.413 607.111 286.313 606.853 286.114C606.345 285.726 606.365 285.119 606.882 284.74C607.281 284.452 616.885 277.685 629.486 274.599C630.172 274.43 630.929 274.709 631.158 275.216C631.387 275.724 631.008 276.28 630.322 276.449C618.308 279.396 608.813 286.074 608.714 286.144C608.455 286.323 608.126 286.413 607.798 286.413ZM609.111 273.056C608.792 273.056 608.464 272.976 608.205 272.797C607.668 272.429 607.638 271.811 608.135 271.423C608.524 271.115 617.73 263.909 629.813 260.624C630.5 260.435 631.256 260.694 631.515 261.202C631.764 261.709 631.415 262.267 630.729 262.456C619.233 265.591 610.156 272.687 610.066 272.767C609.808 272.976 609.459 273.075 609.101 273.075L609.111 273.056ZM608.87 258.922C608.552 258.922 608.223 258.833 607.964 258.664C607.427 258.295 607.397 257.678 607.895 257.29C608.293 256.982 617.768 249.577 630.209 246.203C630.896 246.013 631.652 246.272 631.911 246.78C632.17 247.287 631.811 247.845 631.125 248.034C619.261 251.259 609.925 258.554 609.826 258.634C609.567 258.843 609.208 258.942 608.86 258.942L608.87 258.922ZM610.105 245.606C609.797 245.606 609.468 245.527 609.219 245.358C608.682 244.999 608.642 244.382 609.13 243.984C609.538 243.656 619.162 235.902 631.812 232.369C632.489 232.18 633.256 232.429 633.514 232.936C633.773 233.434 633.425 234.001 632.748 234.19C620.705 237.554 611.18 245.218 611.091 245.298C610.832 245.507 610.473 245.615 610.105 245.615V245.606ZM612.524 230.248C612.215 230.248 611.897 230.168 611.648 230.009C611.1 229.651 611.051 229.034 611.538 228.636C611.927 228.317 621.143 220.753 633.266 217.289C633.942 217.1 634.709 217.349 634.978 217.847C635.236 218.354 634.898 218.912 634.221 219.111C622.686 222.405 613.609 229.85 613.509 229.93C613.25 230.149 612.892 230.258 612.524 230.258V230.248ZM612.524 215.479C612.215 215.479 611.897 215.399 611.648 215.23C611.1 214.872 611.051 214.255 611.538 213.857C611.927 213.538 621.143 205.973 633.266 202.519C633.942 202.33 634.709 202.57 634.978 203.078C635.236 203.585 634.898 204.143 634.221 204.342C622.706 207.616 613.609 215.081 613.519 215.16C613.26 215.369 612.902 215.489 612.534 215.489L612.524 215.479ZM611.746 201.554C611.438 201.554 611.119 201.474 610.871 201.305C610.323 200.947 610.273 200.34 610.761 199.931C611.149 199.613 620.366 192.049 632.488 188.595C633.165 188.396 633.941 188.645 634.2 189.152C634.459 189.65 634.131 190.217 633.444 190.406C621.908 193.701 612.831 201.156 612.742 201.225C612.483 201.444 612.115 201.554 611.746 201.554ZM611.369 187.918C611.051 187.918 610.742 187.839 610.493 187.679C609.946 187.321 609.896 186.704 610.384 186.306C610.772 185.987 619.988 178.423 632.111 174.969C632.798 174.78 633.554 175.019 633.823 175.527C634.082 176.025 633.743 176.592 633.067 176.791C621.531 180.075 612.454 187.53 612.354 187.61C612.096 187.829 611.727 187.938 611.369 187.938V187.918ZM612.128 174.005C611.819 174.005 611.501 173.925 611.252 173.756C610.704 173.398 610.655 172.781 611.142 172.383C611.53 172.064 620.747 164.5 632.869 161.046C633.546 160.847 634.313 161.096 634.581 161.604C634.84 162.101 634.502 162.669 633.825 162.858C622.319 166.132 613.212 173.597 613.123 173.677C612.864 173.896 612.496 174.005 612.138 174.005H612.128ZM612.085 158.05C611.776 158.05 611.458 157.97 611.209 157.801C610.671 157.442 610.612 156.825 611.099 156.427C611.488 156.109 620.724 148.544 632.837 145.091C633.513 144.902 634.28 145.141 634.549 145.648C634.807 146.146 634.469 146.713 633.792 146.912C622.267 150.197 613.16 157.651 613.07 157.731C612.811 157.94 612.453 158.059 612.085 158.059V158.05ZM610.843 143.27C610.544 143.27 610.234 143.191 609.986 143.032C609.428 142.683 609.37 142.076 609.837 141.658C610.236 141.31 619.79 133.178 632.341 129.466C633.018 129.267 633.793 129.506 634.062 130.003C634.331 130.501 634.003 131.068 633.326 131.267C621.363 134.8 611.938 142.842 611.838 142.922C611.579 143.151 611.211 143.26 610.833 143.26L610.843 143.27ZM34.7078 134.192C34.4092 134.192 34.1106 134.123 33.8618 133.973C33.3044 133.625 33.2148 133.018 33.6826 132.6C34.2101 132.132 46.9498 120.945 70.6279 116.367C71.3345 116.227 72.0511 116.536 72.2402 117.063C72.4293 117.581 72.0014 118.118 71.2947 118.248C48.4826 122.657 35.8424 133.725 35.7229 133.834C35.4642 134.073 35.086 134.182 34.7078 134.182V134.192ZM64.038 133.326C63.7394 133.326 63.4408 133.257 63.202 133.108C62.6347 132.769 62.565 132.152 63.0228 131.734C63.5503 131.256 76.3 120.079 99.9581 115.501C100.665 115.361 101.391 115.67 101.57 116.197C101.76 116.715 101.332 117.252 100.625 117.382C77.783 121.801 65.1826 132.859 65.0632 132.968C64.8044 133.207 64.4262 133.317 64.038 133.317V133.326ZM93.3613 132.481C93.0627 132.481 92.7641 132.412 92.5253 132.263C91.958 131.924 91.8783 131.307 92.3461 130.889C92.8736 130.411 105.623 119.223 129.281 114.655C129.988 114.515 130.715 114.825 130.894 115.352C131.073 115.87 130.655 116.398 129.948 116.537C107.146 120.936 94.5059 132.014 94.3765 132.133C94.1177 132.362 93.7395 132.481 93.3613 132.481ZM122.672 131.625C122.373 131.625 122.075 131.555 121.836 131.396C121.268 131.057 121.189 130.45 121.656 130.032C122.184 129.554 134.934 118.367 158.602 113.799C159.308 113.659 160.025 113.978 160.214 114.496C160.403 115.013 159.975 115.551 159.269 115.68C136.466 120.089 123.816 131.157 123.697 131.266C123.438 131.505 123.06 131.615 122.672 131.615V131.625ZM152.002 130.769C151.703 130.769 151.405 130.699 151.166 130.54C150.599 130.201 150.519 129.584 150.987 129.166C151.524 128.688 164.254 117.511 187.932 112.933C188.649 112.794 189.365 113.112 189.544 113.63C189.733 114.147 189.306 114.685 188.599 114.814C165.747 119.233 153.147 130.291 153.027 130.4C152.758 130.639 152.39 130.759 152.002 130.759V130.769ZM181.314 129.914C181.016 129.914 180.717 129.844 180.468 129.695C179.901 129.356 179.821 128.739 180.289 128.331C180.817 127.853 193.566 116.666 217.224 112.098C217.931 111.959 218.648 112.267 218.837 112.795C219.026 113.312 218.598 113.85 217.891 113.979C195.099 118.388 182.449 129.456 182.32 129.565C182.061 129.804 181.673 129.914 181.304 129.914H181.314ZM210.665 129.694C210.367 129.694 210.068 129.624 209.829 129.475C209.262 129.136 209.182 128.519 209.65 128.101C210.178 127.623 222.918 116.446 246.596 111.878C247.302 111.739 248.019 112.047 248.208 112.575C248.397 113.092 247.969 113.63 247.262 113.759C224.41 118.178 211.81 129.236 211.691 129.345C211.432 129.574 211.044 129.694 210.665 129.694ZM240.721 129.495C240.423 129.495 240.124 129.415 239.875 129.266C239.318 128.927 239.228 128.31 239.696 127.892C240.224 127.414 252.973 116.237 276.641 111.659C277.348 111.52 278.075 111.838 278.254 112.356C278.443 112.873 278.015 113.411 277.308 113.55C254.456 117.969 241.856 129.027 241.737 129.136C241.478 129.375 241.1 129.495 240.721 129.495ZM271.608 129.027C271.32 129.027 271.01 128.957 270.771 128.808C270.204 128.469 270.124 127.853 270.592 127.435C271.12 126.958 283.86 115.779 307.528 111.201C308.235 111.062 308.952 111.38 309.141 111.898C309.32 112.415 308.902 112.954 308.195 113.083C285.393 117.492 272.752 128.56 272.632 128.669C272.374 128.908 271.996 129.018 271.608 129.018V129.027ZM300.929 129.116C300.63 129.116 300.331 129.047 300.083 128.887C299.515 128.549 299.436 127.932 299.903 127.524C300.431 127.046 313.171 115.869 336.849 111.291C337.555 111.151 338.272 111.46 338.461 111.987C338.65 112.505 338.222 113.042 337.516 113.172C314.664 117.591 302.063 128.649 301.944 128.758C301.685 128.997 301.307 129.116 300.929 129.116ZM330.251 129.038C329.952 129.038 329.654 128.967 329.405 128.818C328.838 128.479 328.758 127.862 329.226 127.444C329.753 126.967 342.503 115.789 366.161 111.211C366.868 111.072 367.584 111.391 367.773 111.909C367.962 112.426 367.534 112.964 366.828 113.093C344.026 117.502 331.385 128.569 331.256 128.688C330.997 128.927 330.619 129.038 330.241 129.038H330.251ZM360.375 129.116C360.087 129.116 359.778 129.047 359.539 128.887C358.972 128.549 358.892 127.932 359.36 127.524C359.898 127.046 372.627 115.869 396.305 111.291C397.012 111.151 397.739 111.46 397.918 111.987C398.107 112.505 397.679 113.042 396.972 113.172C374.16 117.581 361.52 128.649 361.391 128.758C361.132 128.987 360.754 129.106 360.365 129.106L360.375 129.116ZM389.698 129.694C389.399 129.694 389.1 129.624 388.862 129.475C388.294 129.136 388.215 128.519 388.682 128.101C389.21 127.623 401.96 116.446 425.628 111.878C426.334 111.739 427.051 112.047 427.24 112.575C427.419 113.092 427.001 113.63 426.295 113.759C403.482 118.168 390.842 129.236 390.713 129.345C390.454 129.574 390.076 129.694 389.698 129.694ZM419.019 129.992C418.72 129.992 418.422 129.913 418.173 129.773C417.616 129.425 417.536 128.818 417.994 128.4C418.521 127.932 431.271 116.745 454.939 112.167C455.646 112.027 456.372 112.346 456.551 112.863C456.741 113.381 456.313 113.918 455.616 114.048C432.804 118.457 420.164 129.524 420.044 129.634C419.785 129.873 419.407 129.992 419.029 129.992H419.019ZM448.948 130.649C448.65 130.649 448.351 130.579 448.112 130.43C447.545 130.092 447.465 129.475 447.933 129.057C448.461 128.579 461.2 117.392 484.888 112.823C485.595 112.684 486.312 113.004 486.501 113.521C486.68 114.039 486.262 114.566 485.555 114.706C462.693 119.125 450.093 130.182 449.974 130.292C449.715 130.531 449.337 130.649 448.958 130.649H448.948ZM477.95 131.226C477.652 131.226 477.353 131.157 477.104 130.997C476.537 130.659 476.467 130.042 476.925 129.634C477.463 129.156 490.202 117.979 513.88 113.401C514.587 113.261 515.304 113.58 515.493 114.097C515.682 114.615 515.254 115.152 514.547 115.282C491.735 119.691 479.095 130.759 478.965 130.868C478.707 131.097 478.328 131.226 477.95 131.226ZM507.484 131.993C507.185 131.993 506.886 131.923 506.638 131.774C506.08 131.435 505.991 130.818 506.458 130.4C506.986 129.923 519.736 118.745 543.404 114.167C544.11 114.028 544.827 114.346 545.016 114.864C545.205 115.381 544.777 115.909 544.07 116.048C521.258 120.457 508.618 131.525 508.499 131.634C508.24 131.863 507.862 131.983 507.484 131.983V131.993ZM536.476 132.958C536.178 132.958 535.879 132.889 535.64 132.739C535.073 132.401 534.993 131.784 535.461 131.366C535.989 130.898 548.738 119.711 572.416 115.142C573.123 115.003 573.85 115.312 574.029 115.839C574.208 116.357 573.79 116.884 573.083 117.024C550.221 121.443 537.621 132.5 537.492 132.61C537.233 132.839 536.855 132.968 536.476 132.968V132.958ZM565.487 134.313C565.189 134.313 564.89 134.243 564.651 134.084C564.084 133.745 564.004 133.128 564.472 132.72C565 132.243 577.739 121.065 601.407 116.487C602.114 116.348 602.841 116.666 603.02 117.184C603.209 117.701 602.781 118.239 602.074 118.378C579.222 122.797 566.632 133.855 566.502 133.964C566.244 134.193 565.865 134.323 565.477 134.323L565.487 134.313ZM597.155 134.999C596.887 134.999 596.608 134.939 596.369 134.809C595.782 134.491 595.652 133.884 596.09 133.446C596.508 133.028 606.611 123.075 625.392 118.994C626.099 118.845 626.825 119.135 627.034 119.652C627.243 120.17 626.835 120.707 626.138 120.866C608.203 124.758 598.32 134.501 598.22 134.6C597.962 134.859 597.563 134.999 597.155 134.999ZM6.74999 135.038C6.4315 135.038 6.10305 134.949 5.84428 134.78C5.31677 134.411 5.28691 133.794 5.77461 133.406C6.33197 132.968 19.649 122.557 37.1263 117.81C37.8031 117.631 38.5695 117.88 38.8283 118.387C39.0771 118.895 38.7287 119.452 38.042 119.641C21.1519 124.229 7.84482 134.63 7.70547 134.73C7.4467 134.939 7.08839 135.038 6.74004 135.038H6.74999ZM32.0284 325.776C31.7298 325.776 31.4313 325.697 31.1824 325.557C30.6251 325.219 30.5454 324.602 31.0033 324.184C31.491 323.746 43.2653 313.425 65.1219 309.205C65.8286 309.065 66.5551 309.374 66.7343 309.901C66.9234 310.419 66.4954 310.956 65.7887 311.086C44.798 315.137 33.1531 325.318 33.0337 325.428C32.7749 325.657 32.3967 325.776 32.0185 325.776H32.0284ZM62.7949 326.334C62.4963 326.334 62.1977 326.264 61.9589 326.115C61.3915 325.766 61.3119 325.159 61.7797 324.741C62.2176 324.353 72.6284 315.206 91.9868 311.464C92.6935 311.325 93.42 311.643 93.5992 312.161C93.7883 312.678 93.3603 313.206 92.6537 313.345C74.1512 316.918 63.9196 325.886 63.8101 325.985C63.5513 326.214 63.1731 326.334 62.7949 326.334ZM93.3583 326.951C93.0598 326.951 92.7711 326.881 92.5223 326.732C91.955 326.393 91.8754 325.777 92.3332 325.359C92.7711 324.961 103.272 315.644 122.75 311.832C123.457 311.693 124.184 312.001 124.363 312.529C124.552 313.046 124.134 313.585 123.427 313.724C104.765 317.367 94.4741 326.504 94.3745 326.593C94.1158 326.832 93.7375 326.951 93.3494 326.951H93.3583ZM125.539 328.534C125.26 328.534 124.982 328.474 124.753 328.335C124.166 328.017 124.056 327.409 124.484 326.972C124.912 326.554 135.164 316.64 154.194 312.59C154.89 312.44 155.627 312.739 155.826 313.256C156.035 313.774 155.627 314.311 154.92 314.461C136.776 318.322 126.694 328.046 126.594 328.146C126.335 328.395 125.937 328.534 125.529 328.534H125.539ZM150.917 330.017C150.618 330.017 150.32 329.946 150.081 329.787C149.514 329.449 149.434 328.832 149.902 328.424C150.429 327.946 163.179 316.779 186.847 312.2C187.554 312.061 188.28 312.37 188.46 312.897C188.649 313.415 188.221 313.942 187.514 314.081C164.662 318.501 152.062 329.548 151.942 329.658C151.683 329.897 151.305 330.017 150.927 330.017H150.917ZM180.26 329.858C179.962 329.858 179.663 329.788 179.414 329.639C178.847 329.301 178.767 328.683 179.235 328.265C179.773 327.788 192.512 316.601 216.19 312.032C216.897 311.893 217.614 312.201 217.803 312.729C217.992 313.246 217.564 313.784 216.857 313.913C194.005 318.332 181.405 329.4 181.275 329.51C181.017 329.738 180.639 329.868 180.26 329.868V329.858ZM211.721 329.888C211.424 329.892 211.13 329.812 210.875 329.658C210.308 329.319 210.229 328.702 210.696 328.294C211.224 327.817 223.974 316.629 247.642 312.061C248.348 311.932 249.065 312.241 249.254 312.759C249.443 313.276 249.025 313.814 248.318 313.943C225.506 318.342 212.866 329.419 212.737 329.528C212.478 329.767 212.1 329.888 211.721 329.888ZM242.833 330.216C242.535 330.216 242.236 330.147 241.997 329.997C241.43 329.659 241.35 329.042 241.818 328.624C242.346 328.146 255.085 316.959 278.763 312.391C279.47 312.251 280.197 312.56 280.376 313.087C280.565 313.605 280.137 314.142 279.43 314.282C256.578 318.691 243.988 329.758 243.858 329.868C243.6 330.097 243.221 330.216 242.833 330.216ZM274.772 330.266C274.474 330.266 274.175 330.195 273.936 330.046C273.369 329.708 273.289 329.091 273.757 328.672C274.285 328.205 287.034 317.008 310.702 312.449C311.409 312.31 312.136 312.618 312.315 313.146C312.504 313.663 312.076 314.202 311.379 314.341C288.567 318.74 275.927 329.807 275.797 329.927C275.539 330.155 275.16 330.275 274.782 330.275L274.772 330.266ZM306.852 330.534C306.553 330.534 306.254 330.465 306.016 330.316C305.448 329.977 305.369 329.36 305.836 328.942C306.364 328.474 319.114 317.287 342.782 312.709C343.488 312.58 344.205 312.888 344.394 313.406C344.583 313.923 344.165 314.461 343.448 314.59C320.597 319.009 307.996 330.067 307.877 330.176C307.618 330.405 307.24 330.524 306.861 330.524L306.852 330.534ZM340.361 329.24C340.062 329.24 339.764 329.17 339.525 329.021C338.958 328.682 338.878 328.065 339.346 327.657C339.873 327.18 352.623 315.992 376.301 311.434C377.008 311.295 377.724 311.613 377.913 312.131C378.093 312.658 377.675 313.186 376.968 313.315C354.096 317.724 341.506 328.782 341.376 328.891C341.117 329.13 340.739 329.24 340.351 329.24H340.361ZM370.489 329.32C370.19 329.32 369.891 329.25 369.652 329.1C369.095 328.762 369.016 328.145 369.473 327.727C370.011 327.259 382.751 316.072 406.429 311.494C407.135 311.354 407.852 311.673 408.041 312.19C408.22 312.708 407.802 313.246 407.095 313.386C384.283 317.795 371.633 328.862 371.514 328.971C371.255 329.2 370.877 329.32 370.489 329.32ZM403.344 329.131C403.056 329.131 402.747 329.052 402.508 328.902C401.941 328.564 401.871 327.947 402.329 327.529C402.856 327.051 415.606 315.864 439.294 311.296C440.001 311.156 440.717 311.474 440.906 311.991C441.086 312.509 440.668 313.046 439.961 313.176C417.139 317.585 404.499 328.654 404.369 328.773C404.111 329.012 403.732 329.131 403.344 329.131ZM433.37 328.126C433.072 328.126 432.784 328.056 432.535 327.897C431.978 327.559 431.888 326.942 432.356 326.534C432.883 326.056 445.633 314.879 469.311 310.3C470.018 310.161 470.734 310.47 470.923 310.997C471.113 311.515 470.685 312.042 469.978 312.181C447.156 316.591 434.515 327.658 434.385 327.768C434.127 327.997 433.748 328.126 433.37 328.126ZM464.714 326.703C464.415 326.703 464.117 326.633 463.878 326.474C463.31 326.135 463.231 325.518 463.699 325.1C464.226 324.623 476.966 313.446 500.644 308.867C501.351 308.738 502.067 309.045 502.256 309.563C502.435 310.08 502.017 310.618 501.311 310.747C478.499 315.156 465.858 326.225 465.729 326.335C465.47 326.563 465.092 326.693 464.704 326.693L464.714 326.703ZM492.652 325.985C492.353 325.985 492.055 325.917 491.816 325.767C491.248 325.429 491.169 324.811 491.637 324.393C492.164 323.915 504.904 312.729 528.592 308.161C529.298 308.021 530.025 308.34 530.204 308.857C530.393 309.375 529.965 309.902 529.259 310.042C506.397 314.451 493.796 325.517 493.667 325.627C493.408 325.866 493.03 325.985 492.652 325.985ZM523.955 326.753C523.666 326.753 523.387 326.682 523.138 326.543C522.561 326.214 522.462 325.597 522.91 325.179C523.487 324.632 537.401 311.754 563.239 306.488C563.945 306.349 564.672 306.648 564.871 307.165C565.06 307.683 564.652 308.22 563.955 308.37C538.984 313.465 525.139 326.255 525 326.394C524.741 326.633 524.353 326.763 523.955 326.763V326.753ZM552.239 325.379C551.92 325.379 551.592 325.299 551.343 325.12C550.806 324.751 550.776 324.134 551.263 323.746C551.93 323.208 568.004 310.599 597.863 305.443C598.58 305.324 599.286 305.652 599.446 306.17C599.615 306.697 599.177 307.215 598.46 307.334C569.438 312.351 553.364 324.941 553.204 325.061C552.945 325.27 552.587 325.369 552.229 325.369L552.239 325.379ZM587.603 323.09C587.294 323.09 586.976 323.01 586.727 322.841C586.179 322.483 586.13 321.876 586.617 321.468C587.214 320.97 601.666 309.126 628.559 304.289C629.275 304.159 629.982 304.478 630.151 305.005C630.331 305.523 629.893 306.05 629.186 306.18C603.149 310.868 588.747 322.642 588.598 322.761C588.339 322.98 587.971 323.09 587.603 323.09Z" fill="#8C5700"/>
</g>
<g style="mix-blend-mode:multiply">
<path d="M609.898 135.189C520.312 130.829 422.395 128.62 318.686 128.62C170.477 128.62 57.1229 133.148 30.25 134.492C22.5166 157.483 24.0294 283.159 32.36 307.922C65.6426 311.365 139.185 313.246 241.262 313.246C410.203 313.246 573.859 308.31 604.802 303.95C609.669 279.715 613.143 161.385 609.898 135.199V135.189ZM438.579 294.226C250.14 304.976 53.3905 308.687 40.4717 232.677C31.1955 177.955 56.4063 151.571 118.761 139.857C155.06 133.029 429.273 133.019 538.088 146.694C646.903 160.38 627.007 283.487 438.569 294.236L438.579 294.226Z" fill="#EFEFEF"/>
</g>
<g style="mix-blend-mode:overlay" opacity="0.4">
<path d="M73.6357 197.991C73.6357 197.991 73.6357 141.001 310.922 143.479C548.21 145.958 639.629 213.08 530.514 235.892C421.4 258.694 44.7623 245.068 73.6357 197.991Z" fill="white"/>
</g>
</g>
</g>
</g>
<defs>
<clipPath id="clip0_161_145">
<rect width="646.94" height="340.8" fill="white"/>
</clipPath>
<clipPath id="clip1_161_145">
<rect width="646.94" height="340.46" fill="white"/>
</clipPath>
<clipPath id="clip2_161_145">
<rect width="646.94" height="349.348" fill="white" transform="translate(0 -4.44885)"/>
</clipPath>
</defs>
</svg>
