<svg width="647" height="320" viewBox="0 0 647 320" fill="none" xmlns="http://www.w3.org/2000/svg">
<g clip-path="url(#clip0_163_10800)">
<g clip-path="url(#clip1_163_10800)">
<g clip-path="url(#clip2_163_10800)">
<g clip-path="url(#clip3_163_10800)">
<g style="mix-blend-mode:multiply" opacity="0.33">
<path d="M642.33 104.07C640.147 101.286 636.522 99.5635 632.376 99.3532C578.847 96.6192 533.39 91.2212 474.473 90.0395C440.273 61.4174 366.925 3.10161 339.575 4.81413C320.156 6.09601 234.38 65.7838 199.028 93.2042C98.3699 94.9167 30.8606 98.0914 24.4311 98.5721C12.2432 99.4834 6.7952 107.255 4.56191 153.022C3.19991 180.893 3.62053 217.838 5.68356 249.424C9.56928 309.082 15.6182 309.873 24.7917 311.065C67.7649 316.653 182.574 317.475 247.189 317.475C330.822 317.475 425.591 316.162 500.682 313.919C631.805 310.033 634.038 306.528 637.753 300.709C643.071 292.397 645.605 229.495 646.436 202.845C649.26 112.923 644.223 106.474 642.32 104.05L642.33 104.07ZM329.48 16.982C346.966 15.8604 403.97 57.6418 447.183 93.1541C407.785 92.4631 367.336 92.1126 326.015 92.1126C284.694 92.1126 249.452 92.443 215.693 92.9338C266.878 53.6359 318.724 17.6931 329.48 16.982Z" fill="#462900"/>
<path d="M642.33 104.07C640.147 101.286 636.522 99.5635 632.376 99.3532C578.847 96.6192 533.39 91.2212 474.473 90.0395C440.273 61.4174 366.925 3.10161 339.575 4.81413C320.156 6.09601 234.38 65.7838 199.028 93.2042C98.3699 94.9167 30.8606 98.0914 24.4311 98.5721C12.2432 99.4834 6.7952 107.255 4.56191 153.022C3.19991 180.893 3.62053 217.838 5.68356 249.424C9.56928 309.082 15.6182 309.873 24.7917 311.065C67.7649 316.653 182.574 317.475 247.189 317.475C330.822 317.475 425.591 316.162 500.682 313.919C631.805 310.033 634.038 306.528 637.753 300.709C643.071 292.397 645.605 229.495 646.436 202.845C649.26 112.923 644.223 106.474 642.32 104.05L642.33 104.07ZM329.48 16.982C346.966 15.8604 403.97 57.6418 447.183 93.1541C407.785 92.4631 367.336 92.1126 326.015 92.1126C284.694 92.1126 249.452 92.443 215.693 92.9338C266.878 53.6359 318.724 17.6931 329.48 16.982Z" stroke="#4A2E00" stroke-width="2.89426"/>
</g>
<g style="mix-blend-mode:multiply" opacity="0.5">
<path d="M468.826 98.8023C450.329 82.969 358.554 6.01579 323.803 3.46204C361.929 12.6556 445.592 82.7987 463.168 97.8409C465.241 99.6335 464.98 102.327 462.547 103.86C461.946 104.24 461.265 104.491 460.574 104.661C461.666 105.402 463.028 105.853 464.44 105.853C465.852 105.853 467.124 105.512 468.225 104.831C470.659 103.289 470.919 100.595 468.846 98.8123L468.826 98.8023Z" fill="#B06E0E"/>
</g>
<path d="M464.43 105.853C462.807 105.853 461.185 105.352 460.033 104.371C417.451 67.9269 342.34 10.6326 321.9 11.9145C309.612 12.7056 243.254 59.2842 186.21 103.84C184.007 105.562 180.332 105.632 177.998 104.02C175.675 102.398 175.575 99.6936 177.768 97.9811C197.647 82.4583 298.015 4.89415 320.878 3.41197C353.076 1.41904 449.778 82.4983 468.826 98.8023C470.899 100.585 470.639 103.279 468.205 104.821C467.104 105.512 465.762 105.843 464.42 105.843L464.43 105.853Z" fill="#B06E0E" stroke="#8C5700" stroke-width="2.89426"/>
<g style="mix-blend-mode:multiply" opacity="0.5">
<path d="M180.533 102.878C179.802 103.449 178.91 103.77 177.959 103.97C177.979 103.98 177.989 104 177.999 104.02C180.332 105.632 183.998 105.562 186.211 103.84C243.255 59.2842 309.613 12.7057 321.901 11.9145C322.181 11.9045 322.532 11.9345 322.832 11.9345C320.258 11.2035 318.035 10.8429 316.232 10.9431C303.944 11.7443 237.597 58.3128 180.533 102.878Z" fill="#B06E0E"/>
</g>
<path d="M453.141 95.5876C452.71 95.5876 452.31 95.4574 452.019 95.197C451.138 94.3958 363.309 15.0791 321.828 7.49799C309.369 5.29475 237.764 57.5616 192.688 93.3042C192.137 93.7349 191.236 93.7549 190.655 93.3443C190.074 92.9337 190.034 92.2527 190.595 91.812C202.182 82.6185 304.392 2.01993 322.519 5.3949C364.921 13.1463 450.617 90.5201 454.253 93.815C454.763 94.2656 454.663 94.9466 454.062 95.3372C453.792 95.5075 453.451 95.5876 453.141 95.5876Z" fill="#C08B3E"/>
<g style="mix-blend-mode:multiply" opacity="0.49">
<path d="M200.793 80.9261C200.233 80.9261 199.722 80.6657 199.532 80.2551C199.301 79.7443 199.672 79.1935 200.373 79.0233C200.763 78.9231 210.007 76.6998 218.159 78.3623C218.87 78.5125 219.281 79.0433 219.09 79.564C218.9 80.0848 218.159 80.3853 217.448 80.2451C210.077 78.7328 201.304 80.856 201.224 80.876C201.084 80.916 200.944 80.9261 200.804 80.9261H200.793ZM210.448 73.6453C209.887 73.6453 209.366 73.385 209.186 72.9744C208.956 72.4636 209.336 71.9028 210.027 71.7325C210.418 71.6324 219.671 69.4091 227.813 71.0716C228.524 71.2218 228.935 71.7626 228.745 72.2833C228.544 72.8041 227.813 73.1046 227.102 72.9643C219.731 71.4521 210.958 73.5752 210.868 73.5853C210.728 73.6153 210.588 73.6353 210.448 73.6353V73.6453ZM218.949 66.7151C218.388 66.7151 217.878 66.4548 217.687 66.0442C217.457 65.5334 217.828 64.9726 218.529 64.8023C218.919 64.7022 228.153 62.4789 236.295 64.1414C237.006 64.2816 237.416 64.8224 237.216 65.3431C237.016 65.8639 236.285 66.1744 235.574 66.0241C228.233 64.5219 219.45 66.635 219.36 66.6551C219.22 66.6851 219.079 66.7051 218.939 66.7051L218.949 66.7151ZM230.434 59.9552C229.873 59.9552 229.363 59.6948 229.172 59.2842C228.942 58.7735 229.322 58.2227 230.013 58.0424C230.404 57.9523 239.648 55.719 247.79 57.3814C248.501 57.5316 248.911 58.0724 248.711 58.5932C248.521 59.114 247.78 59.4144 247.079 59.2742C239.708 57.762 230.945 59.8851 230.855 59.9051C230.715 59.9452 230.574 59.9552 230.434 59.9552ZM240.089 52.6745C239.528 52.6745 239.008 52.4141 238.827 52.0035C238.587 51.4927 238.968 50.9319 239.669 50.7617C240.059 50.6715 249.293 48.4383 257.445 50.1007C258.156 50.2509 258.566 50.7817 258.366 51.3125C258.166 51.8333 257.435 52.1337 256.734 51.9935C249.363 50.4813 240.6 52.5944 240.52 52.6244C240.38 52.6545 240.24 52.6745 240.099 52.6745H240.089ZM249.041 45.7343C248.491 45.7343 247.97 45.4839 247.78 45.0733C247.539 44.5626 247.91 44.0117 248.611 43.8315C248.991 43.7413 258.005 41.5081 265.946 43.1705C266.647 43.3207 267.058 43.8615 266.858 44.3823C266.657 44.9031 265.926 45.2035 265.215 45.0633C258.065 43.5511 249.552 45.6642 249.472 45.6842C249.332 45.7243 249.182 45.7343 249.041 45.7343ZM260.258 38.6338C259.687 38.6338 259.156 38.3634 258.986 37.9328C258.776 37.412 259.176 36.8712 259.877 36.711C260.258 36.6209 269.391 34.658 277.313 36.4306C278.014 36.5908 278.405 37.1316 278.204 37.6524C277.994 38.1732 277.243 38.4636 276.542 38.3033C269.381 36.701 260.729 38.5637 260.639 38.5838C260.508 38.6138 260.378 38.6238 260.258 38.6238V38.6338ZM269.983 31.7838C269.412 31.7838 268.882 31.5134 268.711 31.0827C268.501 30.572 268.902 30.0212 269.603 29.8609C269.983 29.7808 279.117 27.8079 287.038 29.5805C287.739 29.7408 288.14 30.2916 287.92 30.8023C287.709 31.3231 286.968 31.6135 286.267 31.4533C279.127 29.8609 270.444 31.7237 270.364 31.7337C270.234 31.7637 270.103 31.7737 269.983 31.7737V31.7838ZM278.558 25.2441C277.987 25.2441 277.456 24.9637 277.286 24.5431C277.076 24.0223 277.476 23.4815 278.177 23.3213C278.568 23.2412 287.701 21.2683 295.623 23.0409C296.324 23.2011 296.725 23.7419 296.504 24.2627C296.294 24.7835 295.553 25.0739 294.842 24.9137C287.681 23.3113 279.019 25.174 278.928 25.2041C278.798 25.2341 278.668 25.2441 278.548 25.2441H278.558ZM290.826 19.686C290.255 19.686 289.724 19.4156 289.554 18.9849C289.344 18.4642 289.744 17.9234 290.445 17.7631C290.826 17.683 299.959 15.7101 307.881 17.4827C308.582 17.643 308.983 18.1938 308.762 18.7045C308.552 19.2253 307.811 19.5157 307.1 19.3555C299.949 17.7631 291.287 19.6259 291.196 19.6359C291.066 19.6659 290.946 19.6759 290.816 19.6759L290.826 19.686ZM301.58 12.9961C301.009 12.9961 300.478 12.7257 300.308 12.3051C300.098 11.7843 300.498 11.2335 301.199 11.0833C301.58 10.9932 310.723 9.02027 318.635 10.7929C319.336 10.9531 319.736 11.4939 319.516 12.0147C319.306 12.5354 318.565 12.8259 317.854 12.6656C310.723 11.0633 302.04 12.936 301.96 12.9561C301.83 12.9861 301.71 12.9961 301.58 12.9961ZM448.055 82.238C447.915 82.238 447.765 82.218 447.625 82.1879C447.534 82.1679 438.842 80.0247 431.581 81.557C430.87 81.7072 430.139 81.3967 429.939 80.886C429.738 80.3652 430.149 79.8244 430.85 79.6742C438.932 77.9817 448.095 80.2451 448.486 80.3452C449.177 80.5154 449.547 81.0763 449.317 81.587C449.127 81.9976 448.616 82.248 448.055 82.248V82.238ZM438.492 74.8371C438.352 74.8371 438.212 74.8171 438.062 74.787C437.971 74.767 429.299 72.6339 422.028 74.1561C421.327 74.3063 420.586 74.0059 420.386 73.4851C420.185 72.9643 420.596 72.4235 421.297 72.2733C429.379 70.5808 438.532 72.8342 438.923 72.9343C439.614 73.1046 439.994 73.6654 439.754 74.1761C439.564 74.5867 439.043 74.8371 438.492 74.8371ZM430.078 67.7867C429.938 67.7867 429.787 67.7667 429.647 67.7366C429.567 67.7166 420.874 65.5735 413.614 67.1057C412.913 67.2559 412.171 66.9555 411.971 66.4347C411.771 65.914 412.181 65.3732 412.883 65.2229C420.954 63.5204 430.118 65.7938 430.508 65.8939C431.199 66.0742 431.57 66.625 431.34 67.1358C431.149 67.5464 430.629 67.7967 430.078 67.7967V67.7867ZM420.316 60.5761C420.176 60.5761 420.026 60.5561 419.886 60.526C419.796 60.506 411.103 58.3629 403.842 59.8851C403.141 60.0353 402.4 59.7349 402.2 59.2141C402 58.6933 402.4 58.1525 403.111 58.0023C411.183 56.2998 420.357 58.5732 420.747 58.6633C421.448 58.8436 421.819 59.3944 421.578 59.9051C421.388 60.3157 420.877 60.5661 420.316 60.5661V60.5761ZM410.991 53.5157C410.851 53.5157 410.71 53.4957 410.56 53.4657C410.47 53.4456 401.777 51.3025 394.526 52.8347C393.825 52.9849 393.084 52.6845 392.884 52.1637C392.684 51.643 393.094 51.1022 393.795 50.952C401.857 49.2494 411.031 51.5228 411.421 51.6229C412.112 51.7932 412.483 52.354 412.243 52.8648C412.052 53.2654 411.542 53.5257 410.981 53.5257L410.991 53.5157ZM400.274 46.4754C400.124 46.4754 399.984 46.4553 399.833 46.4153C399.743 46.3953 391.321 44.2621 384.28 45.7743C383.579 45.9346 382.838 45.6341 382.628 45.1134C382.418 44.5926 382.828 44.0518 383.529 43.9016C391.411 42.2091 400.344 44.4824 400.715 44.5726C401.406 44.7528 401.766 45.3137 401.526 45.8244C401.336 46.225 400.825 46.4854 400.274 46.4854V46.4754ZM390.771 38.8942C390.641 38.8942 390.511 38.8842 390.38 38.8542C390.29 38.8341 381.708 36.9413 374.667 38.5637C373.966 38.724 373.215 38.4335 372.995 37.9228C372.774 37.402 373.165 36.8612 373.866 36.691C381.708 34.8783 390.761 36.8913 391.152 36.9714C391.853 37.1316 392.243 37.6824 392.033 38.1932C391.863 38.6138 391.332 38.8842 390.761 38.8842L390.771 38.8942ZM379.555 32.2845C379.425 32.2845 379.295 32.2745 379.165 32.2444C379.085 32.2244 370.502 30.3316 363.442 31.944C362.741 32.1042 361.99 31.8138 361.779 31.3031C361.559 30.7823 361.95 30.2315 362.651 30.0712C370.502 28.2686 379.565 30.2815 379.946 30.3617C380.647 30.5219 381.038 31.0727 380.827 31.5835C380.657 32.0041 380.126 32.2745 379.555 32.2745V32.2845ZM371.063 25.6247C370.933 25.6247 370.803 25.6047 370.672 25.5846C370.582 25.5646 362.01 23.6718 354.948 25.2942C354.247 25.4544 353.497 25.164 353.287 24.6533C353.077 24.1425 353.457 23.5817 354.158 23.4315C362.02 21.6188 371.073 23.6318 371.454 23.7219C372.155 23.8821 372.545 24.4229 372.335 24.9437C372.165 25.3643 371.634 25.6347 371.063 25.6347V25.6247ZM358.913 19.9764C358.783 19.9764 358.653 19.9664 358.523 19.9363C358.442 19.9163 349.86 18.0235 342.809 19.6459C342.108 19.8061 341.357 19.5257 341.147 19.005C340.927 18.4842 341.317 17.9334 342.018 17.7731C349.87 15.9705 358.923 17.9734 359.314 18.0636C360.015 18.2238 360.405 18.7646 360.195 19.2854C360.015 19.706 359.494 19.9764 358.923 19.9764H358.913ZM348.269 13.1764C348.139 13.1764 348.009 13.1664 347.879 13.1363C347.799 13.1163 339.206 11.2235 332.146 12.8459C331.445 13.0061 330.704 12.7157 330.483 12.205C330.263 11.6842 330.654 11.1334 331.365 10.9731C339.206 9.17049 348.279 11.1734 348.66 11.2636C349.361 11.4238 349.762 11.9746 349.541 12.4854C349.371 12.906 348.84 13.1764 348.269 13.1764ZM313.246 7.14751C312.675 7.14751 312.144 6.87712 311.974 6.44648C311.764 5.92572 312.164 5.38492 312.865 5.22469C313.246 5.14457 322.389 3.16165 330.311 4.93426C331.022 5.09449 331.413 5.63529 331.202 6.15606C330.992 6.67682 330.241 6.96725 329.54 6.80701C322.389 5.20466 313.717 7.07741 313.637 7.09744C313.506 7.12748 313.376 7.1375 313.246 7.1375V7.14751Z" fill="#8C5700"/>
</g>
<path d="M319.006 22.1496L341.64 16.952L339.316 9.65125L319.006 14.7187V22.1496Z" fill="#997F23" stroke="#9E742B" stroke-width="2.89426" stroke-linecap="round" stroke-linejoin="round"/>
<path d="M354.72 12.265C354.72 18.0035 348.871 22.6503 341.631 22.6503C334.39 22.6503 328.571 18.0035 328.571 12.265C328.571 6.5266 334.44 1.87976 341.631 1.87976C348.821 1.87976 354.72 6.5266 354.72 12.265Z" fill="#997F23" stroke="#7E5D1E" stroke-width="2.89426" stroke-linecap="round" stroke-linejoin="round"/>
<path opacity="0.5" d="M352.866 9.65125C352.866 12.4954 349.922 14.8188 346.337 14.8188C342.751 14.8188 339.806 12.5054 339.806 9.65125C339.806 6.79705 342.741 4.48364 346.337 4.48364C349.932 4.48364 352.866 6.78703 352.866 9.65125Z" fill="white"/>
<path d="M318.445 102.318C169.315 102.318 55.2574 106.874 28.2176 108.226C20.4362 131.36 21.9584 257.816 30.3407 282.733C63.83 286.198 137.829 288.091 240.54 288.091C410.53 288.091 575.212 283.123 606.338 278.727C611.235 254.341 614.741 135.276 611.466 108.927C521.323 104.541 422.798 102.318 318.445 102.318Z" fill="#EFEFEF"/>
<path d="M631.204 96.9096C629.051 94.1856 625.465 92.5031 621.359 92.3028C528.453 87.6159 426.533 85.2424 318.434 85.2424C152.43 85.2424 29.048 90.9008 20.2851 91.5417C8.22734 92.423 2.8294 100.004 0.606126 144.67C-0.735849 171.87 -0.295201 207.923 1.72778 238.748C5.58345 296.964 11.5622 297.735 20.6256 298.897C63.1181 304.345 176.635 305.166 240.529 305.166C323.221 305.166 416.929 303.864 491.168 301.691C620.809 297.895 623.022 294.47 626.707 288.802C631.955 280.69 634.449 219.3 635.28 193.301C638.084 105.552 633.087 99.2631 631.204 96.8996V96.9096ZM606.327 278.727C575.202 283.114 410.519 288.091 240.529 288.091C137.828 288.091 63.8191 286.198 30.3299 282.733C21.9475 257.816 20.4253 131.36 28.2067 108.226C55.2465 106.874 169.304 102.318 318.434 102.318C422.787 102.318 521.312 104.541 611.455 108.927C614.72 135.276 611.214 254.341 606.327 278.727Z" fill="#B06E0E" stroke="#8C5700" stroke-width="2.89426"/>
<g style="mix-blend-mode:multiply" opacity="0.5">
<path d="M606.872 103.73C519.163 101.787 417.553 97.921 317.536 97.921C181.897 97.921 73.4772 101.556 33.4283 103.309C29.0518 103.499 23.3034 104.521 21.2804 110.419C15.6221 143.578 16.8238 246.329 23.3134 280.51C24.3649 287.56 31.6156 287.88 35.5113 288.191C73.2669 291.265 144.972 293.168 238.901 293.168C396.112 293.168 552.392 287.88 601.574 283.444C606.051 283.043 612.721 282.853 613.311 275.322C617.327 241.913 619.681 146.172 617.528 112.382C617.528 107.275 616.436 103.95 606.862 103.74L606.872 103.73ZM606.331 278.727C575.205 283.113 410.523 288.091 240.533 288.091C137.832 288.091 63.823 286.198 30.3337 282.733C21.9514 257.816 20.4291 131.36 28.2106 108.226C55.2504 106.874 169.308 102.317 318.438 102.317C422.791 102.317 521.316 104.541 611.459 108.927C614.724 135.276 611.218 254.341 606.331 278.727Z" fill="#B06E0E"/>
</g>
<g style="mix-blend-mode:multiply" opacity="0.5">
<path d="M631.204 96.9096C629.051 94.1856 625.465 92.5031 621.359 92.3028C528.453 87.6159 426.533 85.2424 318.434 85.2424C152.43 85.2424 29.048 90.9008 20.2851 91.5417C8.22734 92.423 2.8294 100.004 0.606126 144.67C-0.735849 171.87 -0.295201 207.923 1.72778 238.748C5.58345 296.964 11.5622 297.735 20.6256 298.897C63.1181 304.345 176.635 305.166 240.529 305.166C323.221 305.166 416.929 303.864 491.168 301.691C620.809 297.895 623.022 294.47 626.707 288.802C631.955 280.69 634.449 219.3 635.28 193.301C638.084 105.552 633.087 99.2631 631.204 96.8996V96.9096ZM628.44 192.05C627.629 216.946 625.195 275.713 620.058 283.474C616.472 288.902 614.299 292.177 487.643 295.812C415.106 297.895 323.561 299.127 242.752 299.127C180.341 299.127 67.4745 297.885 25.9634 292.658C17.0904 291.536 11.2518 290.805 7.50628 235.073C5.51335 205.559 5.10274 171.069 6.40466 145.02C8.57785 102.257 13.8456 95.0068 25.6129 94.1555C34.1755 93.5446 156.696 88.5974 318.884 88.5974C424.5 88.5974 524.076 90.8707 614.86 95.3573C618.856 95.5576 622.361 97.16 624.464 99.7738C626.297 102.037 631.174 108.056 628.44 192.05Z" fill="#B06E0E"/>
</g>
<path d="M304.005 296.543H303.965C166.893 296.543 45.3547 293.238 35.8407 292.137C17.724 290.044 12.2459 289.423 11.7152 202.705C11.1744 116.568 16.1417 105.522 22.2106 100.645C27.1178 96.6992 52.405 96.1284 146.493 94.0353C174.214 93.4144 207.834 92.6633 248.473 91.6618C278.758 90.9107 311.236 90.5302 345.046 90.5302C484.751 90.5302 607.261 96.9596 614.522 97.5505C625.468 98.4518 626.45 104.871 626.45 122.968C626.45 141.064 621.662 265.918 621.122 274.23C620.551 283.033 610.576 286.408 610.146 286.549C531.57 294.821 400.327 296.533 303.985 296.533L304.005 296.543ZM248.043 95.0368C207.373 95.4073 173.784 96.7894 146.053 97.4103C57.6628 99.3832 27.889 100.044 23.8029 103.329C18.385 107.695 14.0686 117.44 14.5994 202.695C15.1202 287.58 20.468 288.201 36.2813 290.024C45.4648 291.075 169.587 294.41 303.965 294.41H304.005C400.257 294.41 531.33 292.698 609.364 284.526C609.334 284.485 617.747 281.611 618.237 274.14C618.778 265.828 623.565 140.614 623.565 122.978C623.565 104.03 621.542 101.566 613.661 100.925C606.44 100.325 502.527 92.7334 248.043 95.0368Z" fill="#C08B3E"/>
<g style="mix-blend-mode:multiply" opacity="0.49">
<path d="M6.68478 283.705C6.37432 283.705 6.05385 283.625 5.80348 283.455C5.25267 283.094 5.21261 282.473 5.70334 282.072C6.0839 281.752 15.2073 274.331 27.1749 270.946C27.8559 270.755 28.6271 271.006 28.8975 271.506C29.1578 272.007 28.8173 272.578 28.1263 272.768C16.7496 275.983 7.76637 283.294 7.67624 283.374C7.41585 283.584 7.05532 283.694 6.68478 283.694V283.705ZM11.5339 295.802C11.2235 295.802 10.903 295.722 10.6526 295.552C10.1018 295.191 10.0617 294.57 10.5425 294.17C10.923 293.849 20.0464 286.428 32.014 283.043C32.695 282.843 33.4662 283.104 33.7366 283.604C33.997 284.105 33.6565 284.676 32.9755 284.866C21.5987 288.091 12.6255 295.392 12.5354 295.472C12.275 295.692 11.9045 295.802 11.5439 295.802H11.5339ZM3.59223 269.413C3.28177 269.413 2.9613 269.333 2.71093 269.163C2.16012 268.802 2.11005 268.182 2.60077 267.781C2.99135 267.45 12.265 259.839 24.4529 256.364C25.1339 256.164 25.9051 256.424 26.1755 256.925C26.4358 257.436 26.0953 257.997 25.4143 258.187C13.8273 261.492 4.68384 269.003 4.58369 269.073C4.32331 269.293 3.95276 269.403 3.59223 269.403V269.413ZM2.81008 253.971C2.49962 253.971 2.17915 253.891 1.92878 253.72C1.37797 253.36 1.3279 252.739 1.81862 252.338C2.2092 252.018 11.4828 244.407 23.6908 240.941C24.3818 240.741 25.1429 241.002 25.4133 241.502C25.6737 242.003 25.3332 242.574 24.6522 242.774C13.0451 246.079 3.90169 253.57 3.80154 253.65C3.54115 253.87 3.17061 253.981 2.81008 253.981V253.971ZM2.81008 240.551C2.49962 240.551 2.17915 240.471 1.92878 240.301C1.37797 239.94 1.3279 239.319 1.81862 238.918C2.2092 238.598 11.4828 230.987 23.6908 227.512C24.3818 227.321 25.1429 227.572 25.4133 228.073C25.6737 228.573 25.3332 229.144 24.6522 229.334C13.0451 232.639 3.90169 240.14 3.80154 240.22C3.54115 240.441 3.17061 240.551 2.81008 240.551ZM1.64837 225.969C1.3279 225.969 1.01744 225.889 0.767074 225.719C0.216264 225.359 0.16619 224.738 0.656912 224.337C1.04749 224.017 10.3211 216.395 22.5191 212.93C23.2001 212.74 23.9712 212.98 24.2416 213.491C24.502 213.992 24.1615 214.563 23.4805 214.753C11.8734 218.058 2.73998 225.569 2.64984 225.639C2.38946 225.849 2.01892 225.969 1.65838 225.969H1.64837ZM1.24878 211.108C0.938326 211.108 0.617854 211.027 0.367486 210.857C-0.183324 210.497 -0.233398 209.876 0.257324 209.475C0.647898 209.155 9.94157 201.543 22.1295 198.068C22.8205 197.878 23.5917 198.128 23.852 198.629C24.1124 199.13 23.7719 199.701 23.0909 199.901C11.4939 203.206 2.34039 210.707 2.25026 210.787C1.98987 211.007 1.61933 211.118 1.2588 211.118L1.24878 211.108ZM1.24878 196.246C0.938326 196.246 0.617854 196.166 0.367486 196.005C-0.183324 195.645 -0.233398 195.024 0.257324 194.623C0.647898 194.303 9.94157 186.692 22.1295 183.217C22.8205 183.026 23.5917 183.277 23.852 183.777C24.1124 184.288 23.7719 184.849 23.0909 185.049C11.4939 188.354 2.34039 195.855 2.25026 195.935C1.98987 196.146 1.61933 196.266 1.2588 196.266L1.24878 196.246ZM0.478649 182.235C0.168193 182.235 -0.152279 182.155 -0.402647 181.985C-0.953457 181.624 -1.00353 181.013 -0.512809 180.603C-0.122235 180.282 9.15141 172.671 21.3494 169.196C22.0304 169.006 22.8015 169.246 23.0719 169.757C23.3423 170.257 23.0018 170.828 22.3108 171.029C10.7037 174.333 1.57026 181.835 1.48012 181.915C1.21974 182.135 0.849195 182.245 0.478649 182.245V182.235ZM0.0870733 168.515C-0.223383 168.515 -0.543855 168.435 -0.794223 168.265C-1.34503 167.904 -1.39511 167.283 -0.904385 166.882C-0.513811 166.562 8.75983 158.951 20.9678 155.476C21.6488 155.275 22.4199 155.536 22.6903 156.037C22.9607 156.537 22.6202 157.108 21.9292 157.308C10.3221 160.613 1.17868 168.114 1.08855 168.194C0.828164 168.415 0.457618 168.525 0.0870733 168.525V168.515ZM0.877236 154.514C0.566779 154.514 0.246308 154.434 -0.00406057 154.264C-0.554871 153.903 -0.604945 153.282 -0.114223 152.882C0.276352 152.561 9.56001 144.94 21.7479 141.465C22.4289 141.265 23.2101 141.515 23.4705 142.026C23.7309 142.527 23.4004 143.098 22.7094 143.288C11.1323 146.593 1.96884 154.104 1.86869 154.174C1.60831 154.394 1.23777 154.504 0.877236 154.504V154.514ZM2.03894 139.933C1.72849 139.933 1.40802 139.853 1.15765 139.682C0.606838 139.322 0.556764 138.701 1.04749 138.3C1.43806 137.98 10.7017 130.369 22.9197 126.894C23.6007 126.703 24.3718 126.954 24.6322 127.454C24.8926 127.955 24.5521 128.526 23.8711 128.716C12.254 132.021 3.13055 139.522 3.04042 139.602C2.78003 139.823 2.40949 139.933 2.04896 139.933H2.03894ZM3.59423 125.071C3.28378 125.071 2.98333 124.991 2.73297 124.831C2.17214 124.48 2.11205 123.869 2.58274 123.449C2.98333 123.108 12.5774 114.916 25.2261 111.171C25.9071 110.97 26.6782 111.211 26.9586 111.711C27.239 112.212 26.9085 112.783 26.2275 112.983C14.1998 116.538 4.71588 124.63 4.61574 124.71C4.35535 124.941 3.97479 125.051 3.60425 125.051L3.59423 125.071ZM607.05 276.063C606.679 276.063 606.319 275.953 606.059 275.733C605.568 275.332 605.618 274.711 606.169 274.351C606.609 274.06 617.075 267.26 630.815 264.176C631.516 264.015 632.257 264.306 632.477 264.827C632.698 265.347 632.297 265.888 631.596 266.048C618.417 269.013 608.041 275.743 607.941 275.813C607.691 275.983 607.37 276.063 607.06 276.063H607.05ZM609.343 261.101C608.993 261.101 608.652 261.001 608.392 260.801C607.881 260.41 607.901 259.789 608.432 259.419C608.833 259.128 618.497 252.318 631.175 249.214C631.877 249.043 632.628 249.324 632.858 249.835C633.088 250.345 632.708 250.906 632.017 251.076C619.929 254.041 610.375 260.761 610.275 260.831C610.014 261.011 609.684 261.101 609.353 261.101H609.343ZM610.663 247.661C610.343 247.661 610.012 247.571 609.762 247.391C609.221 247.02 609.191 246.399 609.692 246.009C610.082 245.698 619.346 238.448 631.504 235.133C632.195 234.943 632.956 235.203 633.217 235.714C633.477 236.215 633.126 236.785 632.435 236.976C620.868 240.12 611.735 247.271 611.645 247.341C611.384 247.551 611.024 247.651 610.673 247.651L610.663 247.661ZM610.435 233.43C610.105 233.43 609.774 233.34 609.524 233.17C608.983 232.799 608.963 232.179 609.454 231.788C609.854 231.478 619.388 224.027 631.907 220.622C632.598 220.441 633.359 220.692 633.609 221.202C633.869 221.713 633.519 222.274 632.828 222.464C620.89 225.709 611.497 233.05 611.396 233.13C611.136 233.34 610.776 233.44 610.425 233.44L610.435 233.43ZM611.666 220.031C611.345 220.031 611.025 219.951 610.775 219.78C610.234 219.42 610.194 218.799 610.684 218.398C611.095 218.068 620.779 210.276 633.508 206.711C634.189 206.521 634.96 206.771 635.22 207.282C635.481 207.783 635.14 208.354 634.449 208.544C622.331 211.939 612.747 219.64 612.657 219.71C612.397 219.931 612.036 220.031 611.676 220.031H611.666ZM614.099 204.578C613.789 204.578 613.468 204.498 613.218 204.328C612.667 203.967 612.617 203.346 613.108 202.946C613.498 202.625 622.772 195.014 634.97 191.539C635.651 191.338 636.422 191.589 636.693 192.1C636.963 192.6 636.623 193.171 635.932 193.361C624.324 196.666 615.191 204.167 615.101 204.247C614.84 204.458 614.47 204.578 614.109 204.578H614.099ZM614.099 189.716C613.789 189.716 613.468 189.636 613.218 189.466C612.667 189.105 612.617 188.484 613.108 188.084C613.498 187.763 622.772 180.152 634.97 176.677C635.651 176.477 636.422 176.727 636.693 177.238C636.953 177.738 636.613 178.309 635.932 178.51C624.344 181.804 615.191 189.316 615.101 189.396C614.84 189.616 614.47 189.726 614.109 189.726L614.099 189.716ZM613.329 175.705C613.019 175.705 612.698 175.625 612.448 175.455C611.897 175.095 611.847 174.484 612.338 174.073C612.728 173.753 621.992 166.141 634.2 162.666C634.881 162.466 635.652 162.716 635.922 163.227C636.193 163.728 635.852 164.299 635.161 164.489C623.554 167.804 614.411 175.295 614.331 175.375C614.07 175.595 613.7 175.705 613.329 175.705ZM612.938 161.985C612.617 161.985 612.307 161.905 612.056 161.735C611.506 161.374 611.455 160.753 611.946 160.353C612.337 160.032 621.61 152.421 633.808 148.946C634.499 148.756 635.271 148.996 635.531 149.507C635.791 150.008 635.451 150.579 634.77 150.769C623.163 154.084 614.019 161.585 613.929 161.655C613.669 161.875 613.298 161.985 612.928 161.985H612.938ZM613.709 147.985C613.398 147.985 613.078 147.905 612.828 147.734C612.277 147.374 612.227 146.753 612.717 146.352C613.108 146.032 622.392 138.421 634.579 134.946C635.26 134.745 636.032 134.996 636.302 135.506C636.562 136.007 636.232 136.578 635.541 136.778C623.964 140.073 614.8 147.584 614.71 147.664C614.45 147.885 614.079 147.995 613.719 147.995L613.709 147.985ZM613.662 131.931C613.351 131.931 613.031 131.851 612.78 131.681C612.24 131.32 612.19 130.709 612.67 130.299C613.061 129.978 622.355 122.367 634.542 118.892C635.223 118.692 635.995 118.942 636.265 119.453C636.525 119.953 636.185 120.524 635.504 120.725C623.907 124.029 614.743 131.531 614.663 131.611C614.393 131.831 614.032 131.941 613.662 131.941V131.931ZM612.408 117.059C612.097 117.059 611.797 116.979 611.547 116.819C610.986 116.468 610.926 115.847 611.396 115.437C611.797 115.086 621.411 106.904 634.05 103.169C634.731 102.968 635.502 103.209 635.782 103.72C636.053 104.22 635.722 104.791 635.041 104.991C623.003 108.547 613.52 116.639 613.419 116.719C613.159 116.939 612.788 117.059 612.408 117.059ZM32.7031 107.926C32.4026 107.926 32.1022 107.856 31.8518 107.705C31.291 107.365 31.2008 106.744 31.6715 106.333C32.2023 105.853 45.0312 94.6062 68.8462 89.9994C69.5573 89.8592 70.2783 90.1797 70.4686 90.7004C70.6589 91.2212 70.2283 91.762 69.5172 91.8922C46.5634 96.3287 33.8548 107.465 33.7246 107.585C33.4642 107.816 33.0836 107.936 32.7031 107.936V107.926ZM62.2085 107.064C61.918 107.064 61.6176 106.994 61.3672 106.844C60.7964 106.504 60.7263 105.883 61.187 105.462C61.7177 104.991 74.5466 93.7349 98.3516 89.1281C99.0627 88.9979 99.7938 89.2984 99.984 89.8291C100.164 90.3599 99.7437 90.8907 99.0326 91.0309C76.0488 95.4674 63.3702 106.604 63.25 106.704C62.9896 106.944 62.6091 107.064 62.2185 107.064H62.2085ZM91.7129 106.203C91.4124 106.203 91.122 106.133 90.8716 105.983C90.3008 105.642 90.2307 105.021 90.6914 104.601C91.2221 104.13 104.051 92.8636 127.856 88.2668C128.567 88.1367 129.298 88.4471 129.478 88.9679C129.669 89.4886 129.238 90.0294 128.527 90.1596C105.583 94.5962 92.8646 105.733 92.7344 105.843C92.474 106.083 92.0934 106.193 91.7129 106.193V106.203ZM121.205 105.342C120.905 105.342 120.604 105.272 120.364 105.122C119.793 104.781 119.713 104.16 120.184 103.74C120.715 103.259 133.533 92.0124 157.358 87.4056C158.069 87.2654 158.801 87.5858 158.981 88.1066C159.171 88.6274 158.74 89.1682 158.029 89.3084C135.076 93.7349 122.357 104.881 122.237 104.991C121.976 105.222 121.596 105.342 121.205 105.342ZM150.718 104.481C150.417 104.481 150.117 104.411 149.876 104.26C149.306 103.92 149.225 103.299 149.696 102.878C150.227 102.398 163.056 91.1511 186.871 86.5543C187.582 86.4141 188.313 86.7346 188.493 87.2554C188.684 87.7761 188.253 88.3069 187.542 88.4471C164.548 92.8937 151.869 104.02 151.749 104.13C151.489 104.361 151.108 104.491 150.728 104.491L150.718 104.481ZM180.223 103.629C179.923 103.629 179.622 103.559 179.372 103.409C178.811 103.069 178.731 102.448 179.202 102.037C179.732 101.556 192.561 90.3099 216.366 85.7031C217.077 85.5629 217.798 85.8733 217.989 86.4041C218.169 86.9249 217.748 87.4657 217.037 87.6059C194.103 92.0324 181.375 103.169 181.245 103.289C180.984 103.519 180.604 103.639 180.223 103.639V103.629ZM209.754 103.399C209.453 103.399 209.153 103.329 208.912 103.179C208.341 102.828 208.261 102.217 208.732 101.797C209.263 101.316 222.092 90.0695 245.907 85.4627C246.618 85.3325 247.339 85.643 247.529 86.1638C247.719 86.6845 247.289 87.2253 246.578 87.3655C223.584 91.8121 210.905 102.928 210.785 103.049C210.525 103.289 210.144 103.409 209.754 103.409V103.399ZM239.99 103.199C239.69 103.199 239.398 103.129 239.148 102.978C238.577 102.628 238.497 102.017 238.967 101.596C239.508 101.116 252.327 89.8592 276.142 85.2624C276.853 85.1222 277.584 85.4427 277.765 85.9635C277.955 86.4942 277.525 87.025 276.814 87.1652C253.82 91.6118 241.141 102.738 241.021 102.848C240.76 103.079 240.371 103.209 239.99 103.209V103.199ZM271.067 102.728C270.766 102.728 270.466 102.658 270.226 102.508C269.655 102.167 269.575 101.546 270.045 101.126C270.586 100.655 283.395 89.3985 307.21 84.8017C307.921 84.6615 308.652 84.972 308.832 85.4928C309.023 86.0135 308.592 86.5543 307.881 86.6845C284.927 91.121 272.218 102.257 272.088 102.368C271.828 102.608 271.447 102.728 271.067 102.728ZM300.567 102.818C300.277 102.818 299.966 102.748 299.726 102.598C299.155 102.257 299.075 101.637 299.546 101.216C300.076 100.735 312.895 89.4886 336.72 84.8819C337.441 84.7517 338.162 85.0621 338.343 85.5829C338.533 86.1037 338.102 86.6445 337.391 86.7747C314.397 91.2212 301.719 102.348 301.599 102.458C301.338 102.698 300.958 102.818 300.567 102.818ZM330.075 102.738C329.774 102.738 329.474 102.658 329.223 102.508C328.662 102.167 328.572 101.546 329.043 101.136C329.574 100.655 342.403 89.3985 366.208 84.8017C366.919 84.6615 367.65 84.972 367.83 85.4928C368.02 86.0135 367.59 86.5543 366.879 86.6845C343.935 91.121 331.216 102.257 331.096 102.368C330.826 102.608 330.455 102.728 330.065 102.728L330.075 102.738ZM360.387 102.818C360.087 102.818 359.786 102.748 359.536 102.598C358.965 102.257 358.885 101.637 359.356 101.216C359.886 100.735 372.705 89.4886 396.53 84.8819C397.241 84.7517 397.972 85.0621 398.153 85.5829C398.343 86.1037 397.912 86.6445 397.201 86.7747C374.248 91.2112 361.529 102.348 361.399 102.458C361.138 102.688 360.758 102.808 360.377 102.808L360.387 102.818ZM389.902 103.399C389.601 103.399 389.301 103.329 389.06 103.179C388.489 102.838 388.409 102.217 388.88 101.797C389.411 101.316 402.23 90.0695 426.055 85.4627C426.766 85.3225 427.497 85.643 427.677 86.1638C427.857 86.6845 427.437 87.2253 426.726 87.3655C403.772 91.802 391.053 102.938 390.923 103.049C390.663 103.289 390.282 103.409 389.892 103.409L389.902 103.399ZM419.394 103.7C419.093 103.7 418.793 103.629 418.553 103.469C417.982 103.129 417.902 102.508 418.372 102.097C418.903 101.616 431.722 90.3599 455.547 85.7632C456.248 85.623 456.989 85.9434 457.17 86.4642C457.36 86.985 456.929 87.5258 456.218 87.6559C433.264 92.0925 420.546 103.229 420.425 103.349C420.165 103.579 419.785 103.7 419.394 103.7ZM449.507 104.361C449.207 104.361 448.906 104.29 448.656 104.14C448.085 103.8 448.005 103.18 448.476 102.759C449.006 102.278 461.825 91.0319 485.66 86.4251C486.371 86.2849 487.103 86.5954 487.283 87.1262C487.473 87.6469 487.042 88.1777 486.331 88.3179C463.328 92.7645 450.649 103.89 450.529 104C450.268 104.23 449.888 104.361 449.507 104.361ZM478.693 104.941C478.393 104.941 478.092 104.871 477.852 104.711C477.291 104.371 477.201 103.75 477.672 103.329C478.202 102.848 491.031 91.6017 514.846 86.995C515.557 86.8548 516.278 87.1752 516.469 87.696C516.649 88.2168 516.228 88.7576 515.517 88.8878C492.564 93.3243 479.845 104.461 479.715 104.571C479.454 104.801 479.074 104.931 478.683 104.931L478.693 104.941ZM508.404 105.713C508.103 105.713 507.813 105.642 507.563 105.482C507.002 105.142 506.922 104.521 507.382 104.11C507.913 103.639 520.732 92.3829 544.557 87.7761C545.268 87.6359 545.999 87.9564 546.179 88.4772C546.37 88.9979 545.939 89.5387 545.228 89.6689C522.274 94.1054 509.556 105.242 509.435 105.352C509.175 105.582 508.784 105.702 508.404 105.702V105.713ZM537.58 106.684C537.289 106.684 536.989 106.614 536.739 106.454C536.168 106.113 536.088 105.492 536.558 105.072C537.089 104.591 549.918 93.3443 573.743 88.7375C574.454 88.6073 575.185 88.9178 575.365 89.4386C575.546 89.9593 575.125 90.5001 574.414 90.6403C551.41 95.0869 538.732 106.213 538.601 106.323C538.341 106.554 537.96 106.684 537.57 106.684H537.58ZM566.771 108.036C566.47 108.036 566.17 107.966 565.93 107.816C565.359 107.475 565.279 106.854 565.749 106.434C566.28 105.963 579.099 94.7063 602.914 90.1096C603.625 89.9693 604.356 90.2798 604.536 90.8106C604.727 91.3314 604.296 91.8721 603.585 92.0023C580.591 96.4489 567.922 107.575 567.792 107.685C567.532 107.916 567.151 108.036 566.771 108.036ZM598.636 108.737C598.365 108.737 598.085 108.677 597.854 108.547C597.264 108.226 597.133 107.615 597.564 107.175C597.985 106.754 608.15 96.7293 627.047 92.6333C627.748 92.483 628.49 92.7835 628.7 93.2942C628.91 93.815 628.51 94.3558 627.799 94.516C609.752 98.4318 599.807 108.236 599.707 108.336C599.447 108.597 599.046 108.737 598.636 108.737ZM4.56366 108.777C4.24319 108.777 3.92272 108.697 3.66233 108.517C3.13155 108.146 3.09149 107.525 3.60224 107.135C4.16307 106.694 17.5628 96.2185 35.1487 91.4515C35.8397 91.2613 36.6008 91.5216 36.8512 92.0324C37.1015 92.5431 36.761 93.104 36.06 93.2842C19.055 97.891 5.67529 108.366 5.53509 108.467C5.27471 108.677 4.91417 108.777 4.56366 108.777ZM30.0011 300.699C29.7006 300.699 29.4002 300.629 29.1598 300.469C28.589 300.129 28.5089 299.508 28.9796 299.087C29.4803 298.646 41.3177 288.261 63.3101 284.015C64.0211 283.875 64.7422 284.195 64.9325 284.716C65.1127 285.237 64.6921 285.777 63.9811 285.908C42.85 289.994 31.1428 300.239 31.0226 300.339C30.7622 300.569 30.3816 300.699 29.9911 300.699H30.0011ZM60.9566 301.26C60.6562 301.26 60.3557 301.19 60.1154 301.04C59.5445 300.699 59.4644 300.078 59.9351 299.658C60.3758 299.267 70.8512 290.054 90.3298 286.288C91.0409 286.158 91.7619 286.468 91.9522 286.989C92.1425 287.52 91.7219 288.051 91.0008 288.191C72.3834 291.786 62.0783 300.81 61.9781 300.9C61.7177 301.13 61.3272 301.26 60.9466 301.26H60.9566ZM91.7109 301.891C91.4204 301.891 91.12 301.822 90.8696 301.672C90.2988 301.331 90.2187 300.71 90.6794 300.29C91.12 299.889 101.686 290.515 121.284 286.68C121.995 286.54 122.726 286.849 122.907 287.37C123.097 287.891 122.676 288.431 121.965 288.572C103.188 292.237 92.8325 301.43 92.7324 301.521C92.472 301.761 92.0914 301.882 91.7008 301.882L91.7109 301.891ZM124.101 303.483C123.82 303.483 123.54 303.423 123.299 303.283C122.708 302.963 122.598 302.342 123.029 301.911C123.46 301.491 133.775 291.516 152.923 287.44C153.624 287.29 154.365 287.59 154.565 288.111C154.766 288.632 154.365 289.172 153.654 289.323C135.397 293.208 125.252 302.993 125.152 303.093C124.892 303.353 124.491 303.483 124.091 303.483H124.101ZM149.626 304.966C149.326 304.966 149.035 304.896 148.785 304.735C148.214 304.395 148.134 303.774 148.605 303.353C149.135 302.883 161.954 291.636 185.769 287.029C186.48 286.889 187.211 287.21 187.392 287.73C187.572 288.251 187.151 288.792 186.44 288.922C163.446 293.369 150.768 304.485 150.648 304.595C150.387 304.825 150.007 304.946 149.616 304.946L149.626 304.966ZM179.149 304.805C178.849 304.805 178.549 304.725 178.308 304.585C177.737 304.245 177.657 303.624 178.128 303.203C178.669 302.732 191.488 291.466 215.303 286.869C216.014 286.729 216.735 287.039 216.925 287.57C217.115 288.091 216.685 288.632 215.974 288.772C192.98 293.208 180.301 304.345 180.171 304.455C179.911 304.685 179.53 304.815 179.149 304.815V304.805ZM210.816 304.835C210.516 304.835 210.215 304.766 209.965 304.606C209.394 304.266 209.314 303.645 209.785 303.234C210.315 302.753 223.144 291.497 246.969 286.9C247.68 286.76 248.411 287.08 248.592 287.601C248.772 288.122 248.351 288.663 247.64 288.793C224.686 293.219 211.968 304.366 211.838 304.476C211.577 304.716 211.197 304.835 210.816 304.835ZM242.112 305.166C241.812 305.166 241.511 305.086 241.261 304.936C240.69 304.585 240.62 303.974 241.081 303.554C241.611 303.073 254.43 291.816 278.255 287.22C278.966 287.079 279.697 287.4 279.878 287.921C280.068 288.451 279.637 288.982 278.926 289.122C255.932 293.559 243.264 304.695 243.134 304.805C242.873 305.046 242.493 305.166 242.112 305.166ZM274.25 305.216C273.95 305.216 273.65 305.146 273.409 304.996C272.838 304.655 272.758 304.034 273.229 303.614C273.76 303.133 286.579 291.876 310.404 287.28C311.115 287.139 311.846 287.46 312.026 287.981C312.206 288.501 311.786 289.042 311.075 289.172C288.121 293.599 275.402 304.745 275.272 304.856C275.012 305.096 274.631 305.216 274.25 305.216ZM306.529 305.496C306.238 305.496 305.928 305.416 305.688 305.266C305.117 304.926 305.037 304.305 305.507 303.884C306.038 303.403 318.857 292.157 342.672 287.56C343.383 287.42 344.114 287.73 344.294 288.261C344.485 288.782 344.054 289.323 343.353 289.463C320.359 293.909 307.681 305.026 307.56 305.146C307.3 305.376 306.919 305.506 306.529 305.506V305.496ZM340.247 304.185C339.946 304.185 339.646 304.114 339.405 303.954C338.834 303.614 338.754 302.993 339.225 302.572C339.756 302.101 352.585 290.845 376.41 286.248C377.121 286.108 377.842 286.418 378.032 286.949C378.222 287.47 377.792 288.011 377.081 288.151C354.067 292.587 341.398 303.714 341.268 303.824C341.008 304.064 340.627 304.185 340.236 304.185H340.247ZM370.563 304.265C370.263 304.265 369.962 304.195 369.712 304.044C369.151 303.704 369.061 303.083 369.532 302.662C370.062 302.192 382.891 290.935 406.716 286.328C407.427 286.188 408.148 286.498 408.339 287.029C408.519 287.55 408.098 288.091 407.387 288.231C384.434 292.668 371.705 303.804 371.585 303.914C371.324 304.144 370.944 304.265 370.563 304.265ZM403.619 304.064C403.318 304.064 403.018 303.994 402.767 303.844C402.197 303.504 402.117 302.883 402.587 302.462C403.128 301.991 415.947 290.725 439.782 286.118C440.493 285.988 441.214 286.298 441.404 286.819C441.595 287.34 441.164 287.87 440.453 288.021C417.479 292.457 404.77 303.594 404.64 303.704C404.38 303.934 403.999 304.054 403.619 304.054V304.064ZM433.836 303.064C433.536 303.064 433.235 302.993 432.985 302.843C432.424 302.492 432.334 301.881 432.805 301.461C433.335 300.98 446.164 289.733 469.989 285.126C470.7 284.986 471.432 285.308 471.612 285.828C471.802 286.349 471.371 286.89 470.66 287.02C447.697 291.457 434.978 302.593 434.848 302.703C434.587 302.934 434.207 303.053 433.826 303.053L433.836 303.064ZM465.371 301.631C465.07 301.631 464.77 301.561 464.519 301.41C463.948 301.07 463.868 300.449 464.339 300.028C464.87 299.548 477.689 288.301 501.514 283.694C502.225 283.554 502.956 283.875 503.136 284.395C503.326 284.916 502.896 285.457 502.185 285.597C479.231 290.034 466.512 301.17 466.382 301.28C466.122 301.511 465.741 301.631 465.361 301.631H465.371ZM493.484 300.91C493.184 300.91 492.883 300.84 492.643 300.679C492.072 300.339 491.992 299.718 492.462 299.307C492.993 298.827 505.822 287.57 529.647 282.973C530.348 282.833 531.079 283.154 531.27 283.674C531.46 284.205 531.029 284.736 530.318 284.876C507.304 289.313 494.636 300.449 494.505 300.559C494.245 300.79 493.864 300.92 493.474 300.92L493.484 300.91ZM524.98 301.681C524.7 301.681 524.409 301.611 524.159 301.471C523.578 301.14 523.478 300.519 523.929 300.099C524.51 299.548 538.51 286.599 564.508 281.291C565.209 281.151 565.951 281.451 566.151 281.972C566.341 282.493 565.93 283.033 565.219 283.174C540.103 288.301 526.162 301.18 526.022 301.3C525.761 301.551 525.371 301.681 524.97 301.681H524.98ZM553.44 300.299C553.12 300.299 552.799 300.219 552.539 300.038C551.998 299.668 551.968 299.057 552.459 298.656C553.13 298.116 569.303 285.427 599.348 280.239C600.069 280.109 600.78 280.44 600.95 280.97C601.12 281.501 600.68 282.022 599.959 282.152C570.746 287.2 554.572 299.858 554.412 299.988C554.151 300.199 553.801 300.299 553.43 300.299H553.44ZM589.032 297.995C588.711 297.995 588.401 297.915 588.15 297.755C587.599 297.395 587.549 296.784 588.04 296.373C588.641 295.862 603.182 283.955 630.232 279.088C630.953 278.957 631.664 279.278 631.845 279.809C632.025 280.339 631.584 280.86 630.873 280.99C604.664 285.697 590.173 297.555 590.033 297.675C589.773 297.895 589.412 298.005 589.042 298.005L589.032 297.995Z" fill="#8C5700"/>
</g>
<g style="mix-blend-mode:multiply">
<path d="M611.459 108.927C521.316 104.541 422.79 102.318 318.438 102.318C169.308 102.318 55.2506 106.874 28.2108 108.226C20.4293 131.36 21.9516 257.816 30.3339 282.733C63.8232 286.198 137.821 288.091 240.532 288.091C410.522 288.091 575.206 283.123 606.331 278.727C611.229 254.341 614.734 135.276 611.459 108.927ZM439.074 268.953C249.465 279.769 51.494 283.504 38.4949 207.022C29.1512 151.961 54.5285 125.411 117.271 113.624C153.795 106.754 429.711 106.734 539.203 120.504C648.694 134.265 628.673 258.147 439.064 268.963L439.074 268.953Z" fill="#EFEFEF"/>
</g>
<g style="mix-blend-mode:overlay" opacity="0.4">
<path d="M61.2081 165.721C61.2081 165.721 61.2081 120.494 313.569 122.457C565.931 124.42 663.144 177.698 547.103 195.795C431.062 213.892 30.5029 203.076 61.2081 165.721Z" fill="white"/>
</g>
</g>
</g>
</g>
</g>
<defs>
<clipPath id="clip0_163_10800">
<rect width="646.94" height="319.8" fill="white"/>
</clipPath>
<clipPath id="clip1_163_10800">
<rect width="646.94" height="319.8" fill="white"/>
</clipPath>
<clipPath id="clip2_163_10800">
<rect width="646.94" height="319.47" fill="white"/>
</clipPath>
<clipPath id="clip3_163_10800">
<rect width="650.958" height="319.47" fill="white" transform="translate(-2.00879)"/>
</clipPath>
</defs>
</svg>
