<svg width="77" height="77" viewBox="0 0 77 77" fill="none" xmlns="http://www.w3.org/2000/svg">
<g clip-path="url(#clip0_5_8104)">
<g clip-path="url(#clip1_5_8104)">
<g clip-path="url(#clip2_5_8104)">
<mask id="mask0_5_8104" style="mask-type:luminance" maskUnits="userSpaceOnUse" x="0" y="0" width="76" height="76">
<path d="M0.663574 4.79176L71.8237 0.676233L75.9392 71.8363L4.7791 75.9519L0.663574 4.79176Z" fill="white"/>
</mask>
<g mask="url(#mask0_5_8104)">
<path d="M21.695 52.6507C27.8886 52.2925 32.6195 46.9817 32.2612 40.7873C31.903 34.5937 26.5914 29.8628 20.3978 30.221C14.2033 30.5793 9.47336 35.8909 9.83157 42.0845C10.1898 48.279 15.5005 53.009 21.695 52.6507ZM54.9136 24.1757C61.1072 23.8174 65.8381 18.5058 65.4799 12.3122C65.1216 6.11773 59.81 1.38778 53.6164 1.74599C47.4228 2.10419 42.692 7.41494 43.0502 13.6094C43.4084 19.803 48.7201 24.5339 54.9136 24.1757Z" fill="white"/>
<path fill-rule="evenodd" clip-rule="evenodd" d="M69.8753 53.0808C69.8561 52.4333 70.0905 51.8039 70.5284 51.3266C70.9664 50.8493 71.5734 50.5618 72.2201 50.5253C72.8669 50.4888 73.5023 50.7063 73.9912 51.1313C74.48 51.5563 74.7836 52.1554 74.8374 52.801L75.4028 62.7328C75.686 67.7517 71.8518 72.0557 66.8297 72.3461L48.6278 73.3988C47.9772 73.4241 47.3426 73.1931 46.8605 72.7554C46.3783 72.3178 46.0872 71.7084 46.0496 71.0584C46.012 70.4083 46.231 69.7695 46.6594 69.2791C47.0879 68.7888 47.6916 68.4862 48.3408 68.4363L66.5427 67.3836C67.6389 67.3202 68.6651 66.8242 69.3959 66.0046C70.1266 65.1851 70.5021 64.1089 70.4399 63.0126L69.8753 53.0808ZM6.74154 23.5454C6.7789 24.2036 6.55325 24.8497 6.11423 25.3416C5.6752 25.8334 5.05877 26.1307 4.40054 26.1681C3.74231 26.2055 3.0962 25.9798 2.60434 25.5408C2.11249 25.1018 1.81518 24.4853 1.77782 23.8271L1.21412 13.8952C0.927378 8.87554 4.76416 4.57056 9.78628 4.28011L34.5874 2.84575C35.2348 2.82567 35.8645 3.05912 36.3424 3.49638C36.8204 3.93365 37.1087 4.54019 37.1461 5.18688C37.1835 5.83356 36.967 6.4693 36.5427 6.95875C36.1184 7.4482 35.5198 7.75268 34.8743 7.80738L10.0732 9.24175C8.97687 9.30516 7.95053 9.80126 7.21977 10.621C6.489 11.4408 6.1136 12.5172 6.17607 13.6136L6.74154 23.5454ZM32.3556 50.5804C37.066 53.6342 40.3133 58.8129 40.662 64.841C40.811 67.4179 39.3167 69.7587 36.4191 71.4766C33.2196 73.3743 28.131 74.5842 22.9799 74.8822C17.8253 75.1803 12.6321 74.5649 9.23508 73.0487C6.15788 71.6765 4.4037 69.5235 4.25467 66.9467C3.90609 60.9194 6.53472 55.4 10.8617 51.8235C12.3081 53.245 14.0364 54.3476 15.9352 55.06C17.834 55.7725 19.861 56.079 21.8856 55.9598C26.1401 55.7137 29.8678 53.6596 32.3556 50.5804ZM65.5778 22.1052C70.2881 25.1581 73.5355 30.3376 73.8842 36.3658C74.0332 38.9427 72.5389 41.2826 69.6413 43.0013C66.4417 44.8981 61.3532 46.109 56.1995 46.4071C51.0484 46.705 45.8551 46.0888 42.4572 44.5726C39.3809 43.2003 37.6268 41.0482 37.4777 38.4705C37.1291 32.4432 39.7569 26.9239 44.0847 23.3482C45.5306 24.7695 47.2583 25.8719 49.1565 26.5842C51.0547 27.2966 53.0811 27.603 55.1051 27.4838C59.3622 27.2376 63.0873 25.1837 65.5778 22.1052Z" fill="white"/>
</g>
</g>
</g>
</g>
<defs>
<clipPath id="clip0_5_8104">
<rect width="72.1706" height="72.1706" fill="white" transform="translate(0 4.16701) rotate(-3.31)"/>
</clipPath>
<clipPath id="clip1_5_8104">
<rect width="72.1706" height="72.1706" fill="white" transform="translate(0 4.16701) rotate(-3.31)"/>
</clipPath>
<clipPath id="clip2_5_8104">
<rect width="72.17" height="72.17" fill="white" transform="translate(0 4.16701) rotate(-3.31)"/>
</clipPath>
</defs>
</svg>
