<svg id="Layer_1" enable-background="new 0 0 68 68" height="512" viewBox="0 0 68 68" width="512" xmlns="http://www.w3.org/2000/svg"><g><g><path d="m28.9896 63.6988c-.08 1.93 2.26 2.95 3.64 1.58l6.76-6.76c3.89-3.89 5.93-9.06 5.95-14.29-5.21 4.03-10.88 7.78-16 10.54z"/><path d="m4.2196 38.9288 8.9301-.35c2.7599-5.13 6.5099-10.79 10.54-16-5.22.02-10.39 2.04-14.29 5.94l-6.77 6.77c-1.3701 1.3701-.3401 3.71 1.5899 3.64z"/><path d="m33.6196 14.2088c-7.73 7.73-16.6 20.1-20.85 29.67-.53 1.21-.26 2.62.68 3.56l7.03 7.03c.94.94 2.35 1.21 3.56.68 9.57-4.25 21.94-13.13 29.67-20.85 3.8-3.81 6.67-8.61 8.69-13.83l-14.95-14.94c-4.78 1.83-9.73 4.58-13.83 8.68zm16.72 13.14c-2.75 2.75-7.1801 2.59-9.77 0-2.7-2.7-2.7-7.0699 0-9.77s7.07-2.7 9.77 0c2.69 2.69 2.7 7.0701 0 9.77z"/><path d="m63.6418 1.9258c-2.977.231-8.309.902-14.113 2.85l3.08 3.08c.3584.3584 10.8293 10.8293 10.531 10.531 1.95-5.803 2.62-11.135 2.851-14.112.104-1.3421-1.0061-2.453-2.349-2.349z"/><path d="m9.7593 58.9491 4.3799-4.3799c.3906-.3906.3906-1.0234 0-1.4141s-1.0234-.3906-1.4141 0l-4.3799 4.3799c-.3906.3906-.3906 1.0234 0 1.4141.3907.3907 1.0235.3907 1.4141 0z"/><path d="m8.5845 51.6957c-.3906-.3906-1.0234-.3906-1.4141 0l-4.665 4.6641c-.3906.3901-.3906 1.0234 0 1.4141.3906.3906 1.0234.3906 1.4141 0l4.665-4.6641c.3907-.3901.3907-1.0235 0-1.4141z"/><path d="m14.5416 58.3539-6.021 6.02c-.3906.3901-.3906 1.0234 0 1.4141.3906.3906 1.0234.3906 1.4141 0l6.021-6.02c.3906-.3901.3906-1.0234 0-1.4141-.3907-.3906-1.0235-.3906-1.4141 0z"/></g></g></svg>