<svg width="199" height="483" viewBox="0 0 199 483" fill="none" xmlns="http://www.w3.org/2000/svg">
<g clip-path="url(#clip0_5_1894)">
<g clip-path="url(#clip1_5_1894)">
<g clip-path="url(#clip2_5_1894)">
<g clip-path="url(#clip3_5_1894)">
<mask id="mask0_5_1894" style="mask-type:luminance" maskUnits="userSpaceOnUse" x="0" y="0" width="199" height="482">
<path d="M0.362549 0.150391H198.84V481.308H0.362549V0.150391Z" fill="white"/>
</mask>
<g mask="url(#mask0_5_1894)">
<path d="M144.975 258.454L146.667 257.989C146.607 257.773 140.438 235.652 119.715 225.679L118.961 227.275C138.939 236.891 144.915 258.24 144.975 258.454ZM82.1461 251.447C82.3165 251.326 99.2422 239.305 110.331 225.681L108.974 224.56C98.0363 237.996 81.3071 249.876 81.1387 249.996L82.1461 251.447ZM114.08 169.242C134.163 162.861 146.761 177.705 146.887 177.847L148.235 176.715C148.103 176.557 134.793 160.796 113.553 167.536L114.08 169.242Z" fill="#5F6600"/>
<path d="M114.744 168.426L116.476 168.708C122.391 131.728 151.647 117.889 151.952 117.753L151.22 116.141C150.919 116.282 120.805 130.519 114.744 168.426ZM105.984 119.349L107.721 119.593C110.897 96.5744 123.607 83.3957 123.724 83.2644L122.476 82.0214C122.352 82.1557 109.236 95.7645 105.984 119.349ZM94.9612 85.1419L96.7074 85.3404C98.9819 65.0536 111.003 53.7825 111.12 53.6712L109.938 52.363C109.424 52.8342 97.3139 64.1624 94.9612 85.1419ZM73.4445 158.124C73.6089 157.855 89.887 131.046 101.67 122.437L100.648 121.001C88.5819 129.821 72.6275 156.089 71.9529 157.203L73.4445 158.124Z" fill="#5F6600"/>
<path d="M50.7276 116.342C51.0424 116.252 82.3677 107.55 100.528 121.624L101.595 120.221C82.7396 105.605 51.5666 114.264 50.2485 114.628L50.7276 116.342ZM86.6099 63.2161L88.0865 62.2608C71.8825 36.8327 37.1921 22.7648 36.8512 22.6255L36.2107 24.2714C36.5415 24.4068 70.7137 38.2751 86.6099 63.2161Z" fill="#5F6600"/>
<path d="M26.9304 67.6728C38.376 67.0754 60.9232 58.7263 65.3889 40.2188C51.6198 40.729 31.4824 56.3466 26.9304 67.6728Z" fill="#548E00"/>
<path d="M26.9304 67.6728C38.376 67.0754 60.9232 58.7263 65.3889 40.2188C48.7609 42.4642 32.4397 63.3975 26.9304 67.6728Z" fill="#68B702"/>
<path d="M26.9304 67.6728C38.376 67.0754 60.9232 58.7263 65.3889 40.2188C61.1046 51.7645 45.2876 65.5036 26.9304 67.6728Z" fill="#9BE533"/>
<path d="M26.5807 67.5295C31.1607 56.1381 51.1788 40.3612 65.379 39.8359L65.8782 39.8188L65.7579 40.307C61.0646 59.7999 37.1411 67.5225 26.9526 68.0588L26.3591 68.0889L26.5807 67.5295ZM27.5219 67.2539C37.7636 66.473 60.1083 58.9639 64.8989 40.6258C51.4625 41.4778 32.3074 56.4659 27.5219 67.2539Z" fill="#3A5B00"/>
<path d="M34.4365 62.4102C34.4365 62.4102 38.4913 61.1191 43.5244 57.9224C49.8316 53.9208 58.7891 47.6477 65.6627 40.4835L65.1163 39.9502C58.2879 47.0493 49.3925 53.2883 43.1214 57.2749C38.1043 60.4605 34.4736 62.3932 34.4365 62.4102Z" fill="#3A5B00"/>
<path d="M11.9966 56.1792C17.996 43.7854 38.1625 27.8381 57.1683 34.0901C48.2067 49.5042 24.3894 55.1036 11.9966 56.1792Z" fill="#548E00"/>
<path d="M11.9966 56.1792C17.996 43.7854 38.1625 27.8381 57.1683 34.0901C49.2472 42.5013 20.2073 54.426 11.9966 56.1792Z" fill="#68B702"/>
<path d="M11.9966 56.1792C17.996 43.7854 38.1625 27.8381 57.1683 34.0901C39.0346 31.7856 20.3176 44.6555 11.9966 56.1792Z" fill="#9BE533"/>
<path d="M11.9956 56.5862L11.3149 56.6433L11.6097 56.0368C16.1907 46.5711 28.7328 35.1967 42.9521 32.7498C47.9581 31.8887 52.7997 32.2095 57.3397 33.7021L57.7797 33.8485L57.5472 34.2615C48.9415 49.0631 27.5079 54.1914 18.6937 55.708C16.4739 56.0921 14.2393 56.385 11.9956 56.5862ZM43.0373 33.5507C29.4365 35.8924 17.4086 46.5841 12.6963 55.7101C14.6779 55.5142 16.6516 55.2457 18.6135 54.9051C27.2142 53.4256 47.9932 48.4736 56.5558 34.3366C52.2735 33.0074 47.7326 32.7448 43.0383 33.5517L43.0373 33.5507Z" fill="#3A5B00"/>
<path d="M17.7012 52.4742C21.211 49.8629 24.8747 47.4651 28.6726 45.2939C35.7316 41.2061 46.4193 36.0317 57.1952 34.494L57.1451 33.687C46.2188 35.2608 35.4118 40.4894 28.2806 44.6053C21.6427 48.4365 17.7012 52.4742 17.7012 52.4742Z" fill="#3A5B00"/>
<path d="M134.149 237.719C143.652 245.464 149.642 277.469 135.741 297.456C118.698 276.376 127.321 241.647 134.149 237.719Z" fill="#548E00"/>
<path d="M134.149 237.719C143.651 245.464 149.641 277.469 135.74 297.456C124.655 283.35 128.916 245.064 134.149 237.719Z" fill="#68B702"/>
<path d="M134.149 237.719C143.653 245.464 149.643 277.469 135.741 297.456C144.402 281.902 144.627 254.465 134.149 237.719Z" fill="#9BE533"/>
<path d="M135.407 297.737C122.566 281.863 125.32 260.288 126.469 254.066C128.001 245.754 131.003 239.033 133.937 237.345L134.2 237.195L134.432 237.383C143.84 245.06 150.435 277.131 136.109 297.72L135.777 298.2L135.407 297.737ZM127.322 254.218C126.203 260.297 123.531 281.183 135.712 296.716C149.219 276.66 143.099 246.045 134.108 238.263C131.511 240.063 128.752 246.522 127.322 254.218Z" fill="#3A5B00"/>
<path d="M135.557 287.113C135.557 287.113 137.394 280.528 137.544 270.7C137.725 258.942 136.729 247.813 134.585 237.627L133.73 237.81C135.865 247.92 136.852 258.993 136.673 270.688C136.517 280.451 135.568 287.047 135.557 287.113Z" fill="#3A5B00"/>
<path d="M137.638 170.087C147.144 177.832 153.131 209.839 139.232 229.826C122.183 208.754 130.814 174.018 137.638 170.087Z" fill="#548E00"/>
<path d="M137.639 170.087C147.145 177.832 153.132 209.839 139.233 229.826C128.144 215.72 132.402 177.434 137.639 170.087Z" fill="#68B702"/>
<path d="M137.639 170.087C147.145 177.832 153.131 209.839 139.233 229.826C147.888 214.272 148.111 186.835 137.639 170.087Z" fill="#9BE533"/>
<path d="M138.891 230.109C126.052 214.233 128.815 192.659 129.952 186.427C131.486 178.114 134.486 171.393 137.42 169.704L137.681 169.554L137.913 169.743C147.323 177.417 153.916 209.49 139.59 230.083L139.258 230.56L138.891 230.109ZM130.816 186.586C129.696 192.668 127.022 213.554 139.205 229.086C152.713 209.041 146.591 178.415 137.602 170.634C135.002 172.435 132.229 178.892 130.816 186.586Z" fill="#3A5B00"/>
<path d="M139.04 219.483C139.04 219.483 140.876 212.898 141.027 203.07C141.207 191.312 140.209 180.183 138.065 169.995L137.212 170.179C139.345 180.291 140.331 191.363 140.152 203.055C140.001 212.82 139.055 219.416 139.04 219.483Z" fill="#3A5B00"/>
<path d="M184.591 269.733C178.036 250.788 148.921 232.17 134.251 237.392C143.39 251.877 164.373 275.537 184.591 269.733Z" fill="#548E00"/>
<path d="M184.591 269.733C178.036 250.788 148.921 232.17 134.251 237.392C146.983 248.603 169.904 269.782 184.591 269.733Z" fill="#68B702"/>
<path d="M184.591 269.733C178.036 250.788 148.921 232.17 134.251 237.392C149.42 235.932 178.153 254.218 184.591 269.733Z" fill="#9BE533"/>
<path d="M133.879 237.629L133.582 237.161L134.102 236.975C138.355 235.47 143.984 235.828 150.378 238.036C163.608 242.603 180.181 255.652 185.003 269.587L185.157 270.03L184.709 270.156C179.739 271.584 174.409 271.338 168.866 269.425C154.795 264.57 141.566 249.816 133.879 237.629ZM150.095 238.873C144.152 236.823 138.925 236.397 134.924 237.634C142.574 249.599 155.487 263.868 169.143 268.588C174.345 270.383 179.344 270.666 184.008 269.431C179.087 255.922 162.989 243.323 150.095 238.873Z" fill="#3A5B00"/>
<path d="M177.125 264.591C177.125 264.591 173.567 258.918 166.456 253.189C159.344 247.46 147.943 240.036 134.236 237.27L134.063 238.13C147.596 240.855 158.845 248.192 165.903 253.867C172.962 259.541 177.081 264.543 177.125 264.591Z" fill="#3A5B00"/>
<path d="M195.259 181.505C182.7 165.942 149.038 158.429 137.008 168.381C150.491 178.866 178.21 193.91 195.259 181.505Z" fill="#548E00"/>
<path d="M195.259 181.505C182.7 165.942 149.038 158.429 137.008 168.381C152.766 174.556 181.467 186.601 195.259 181.505Z" fill="#68B702"/>
<path d="M195.259 181.505C182.7 165.942 149.038 158.429 137.008 168.381C150.777 161.8 183.969 169.134 195.259 181.505Z" fill="#9BE533"/>
<path d="M136.738 168.734L136.311 168.394L136.738 168.041C140.226 165.156 145.642 163.572 152.401 163.45C166.386 163.204 186.371 169.789 195.61 181.233L195.905 181.597L195.527 181.87C191.336 184.918 186.239 186.517 180.378 186.62C165.503 186.883 148.083 177.552 136.738 168.734ZM152.406 164.337C146.126 164.447 141.067 165.843 137.721 168.379C148.956 177.004 165.906 185.992 180.354 185.736C185.853 185.637 190.649 184.189 194.62 181.434C185.422 170.414 166.032 164.096 152.406 164.337Z" fill="#3A5B00"/>
<path d="M186.504 179.243C186.504 179.243 181.246 175.128 172.625 172.189C164.002 169.251 150.774 166.179 136.961 168.285L137.091 169.16C150.734 167.078 163.79 170.115 172.345 173.032C180.899 175.95 186.451 179.209 186.504 179.243Z" fill="#3A5B00"/>
<path d="M185.554 151.182C167.26 143.285 133.99 152.398 127.919 166.841C144.689 169.808 176.171 170.145 185.554 151.182Z" fill="#548E00"/>
<path d="M185.554 151.182C167.26 143.285 133.99 152.398 127.919 166.841C144.717 164.924 175.686 162.142 185.554 151.182Z" fill="#68B702"/>
<path d="M185.554 151.182C167.26 143.285 133.99 152.398 127.919 166.841C137.079 154.562 169.852 145.511 185.554 151.182Z" fill="#9BE533"/>
<path d="M127.845 167.275L127.301 167.179L127.514 166.667C129.275 162.483 133.339 158.539 139.272 155.266C151.54 148.495 172.272 144.965 185.727 150.774L186.154 150.958L185.941 151.388C183.634 156.05 179.857 159.852 174.717 162.687C161.675 169.888 141.955 169.771 127.845 167.275ZM139.698 156.044C134.188 159.084 130.35 162.689 128.558 166.502C142.478 168.868 161.63 168.895 174.31 161.904C179.131 159.241 182.712 155.713 184.954 151.406C171.732 145.963 151.647 149.451 139.698 156.044Z" fill="#3A5B00"/>
<path d="M176.756 153.273C176.756 153.273 170.21 152.092 161.216 153.537C152.222 154.983 139.097 158.438 127.833 166.774L128.354 167.489C139.484 159.253 152.435 155.829 161.353 154.397C170.269 152.967 176.692 153.269 176.756 153.273Z" fill="#3A5B00"/>
<path d="M163.768 310.559C167.037 295.008 163.781 269.885 144.764 255.132C135.485 272.269 151.587 300.9 163.768 310.559Z" fill="#548E00"/>
<path d="M163.768 310.559C167.037 295.008 163.781 269.885 144.765 255.132C141.876 271.293 154.262 302.716 163.768 310.559Z" fill="#68B702"/>
<path d="M163.768 310.559C167.037 295.008 163.781 269.885 144.765 255.132C158.841 268.911 165.806 292.398 163.768 310.559Z" fill="#9BE533"/>
<path d="M163.495 310.908C151.622 301.489 134.938 272.359 144.381 254.918L144.626 254.465L145.034 254.781C163.291 268.947 167.766 293.672 164.197 310.652L164.049 311.347L163.495 310.908ZM163.482 309.757C166.702 293.192 162.274 269.591 144.907 255.806C136.358 272.62 151.957 300.141 163.482 309.757Z" fill="#3A5B00"/>
<path d="M160.395 299.372C160.384 299.317 159.193 293.508 156.464 284.767C153.345 274.725 149.476 264.931 144.89 255.468L144.104 255.856C148.668 265.28 152.519 275.032 155.625 285.032C158.336 293.728 160.395 299.372 160.395 299.372Z" fill="#3A5B00"/>
<path d="M176.107 225.887C176.177 209.989 167.929 186.057 146.34 175.504C140.702 194.184 162.234 218.92 176.107 225.887Z" fill="#548E00"/>
<path d="M176.107 225.887C176.178 209.989 167.929 186.057 146.339 175.504C146.762 191.919 165.22 220.154 176.107 225.887Z" fill="#68B702"/>
<path d="M176.107 225.887C176.178 209.989 167.929 186.057 146.339 175.504C162.895 186.115 174.447 207.686 176.107 225.887Z" fill="#9BE533"/>
<path d="M175.911 226.282C162.387 219.491 140.184 194.384 145.92 175.375L146.069 174.88L146.529 175.095C167.263 185.226 176.615 208.522 176.547 225.865V226.578L175.911 226.282ZM175.666 225.16C175.485 208.287 166.395 186.078 146.614 176.126C141.628 194.347 162.445 218.104 175.666 225.16Z" fill="#3A5B00"/>
<path d="M170.547 215.626C170.524 215.572 168.187 210.129 163.756 202.128C158.682 192.934 152.922 184.136 146.525 175.808L145.83 176.341C152.2 184.635 157.936 193.397 162.99 202.552C167.398 210.518 170.547 215.626 170.547 215.626Z" fill="#3A5B00"/>
<path d="M198.014 114.516C186.784 108.333 166.647 105.035 150.857 116.503C161.906 127.765 187.726 121.815 198.014 114.516Z" fill="#68B702"/>
<path d="M198.014 114.516C186.784 108.333 166.647 105.035 150.857 116.503C159.047 109.677 181.577 108.218 198.014 114.516Z" fill="#9BE533"/>
<path d="M150.541 116.815L150.18 116.445L150.607 116.144C167.144 104.143 186.107 109.312 191.524 111.182C193.839 111.972 196.083 112.958 198.231 114.129L198.849 114.468L198.273 114.879C190.342 120.507 171.544 126.119 158.304 121.548C155.175 120.473 152.568 118.881 150.541 116.815ZM191.23 112.019C185.957 110.2 167.628 105.196 151.541 116.557C153.417 118.35 155.784 119.745 158.583 120.711C171.232 125.079 189.077 119.942 197.17 114.563C195.257 113.567 193.271 112.716 191.23 112.019Z" fill="#3A5B00"/>
<path d="M151.268 117.278C159.588 115.896 168.001 115.148 176.434 115.041C183.764 114.938 188.482 115.355 188.528 115.359C188.528 115.359 183.803 114.053 176.422 114.157C167.945 114.263 159.488 115.015 151.124 116.404L151.268 117.278Z" fill="#3A5B00"/>
<path d="M151.19 117.512C161.157 117.446 180.271 130.824 185.726 142.761C172.057 142.72 153.369 126.216 151.19 117.512Z" fill="#68B702"/>
<path d="M151.19 117.512C161.157 117.446 180.271 130.824 185.726 142.761C176.849 129.249 159.339 120.064 151.19 117.512Z" fill="#9BE533"/>
<path d="M150.763 117.611L150.627 117.067H151.185C152.997 117.057 155.133 117.47 157.532 118.298C167.56 121.759 181.446 132.341 186.123 142.575L186.412 143.202H185.724C183.365 143.202 180.763 142.706 177.992 141.749C165.501 137.44 152.581 124.88 150.763 117.611ZM157.248 119.128C155.199 118.42 153.362 118.029 151.775 117.958C154.025 124.956 166.561 136.863 178.275 140.905C180.445 141.687 182.715 142.155 185.017 142.293C180.209 132.612 166.696 122.397 157.248 119.137V119.128Z" fill="#3A5B00"/>
<path d="M113.988 96.6084C126.347 79.7077 159.748 78.2923 172.216 82.1335C163.085 92.3912 121.878 100.762 113.988 96.6084Z" fill="#68B702"/>
<path d="M113.988 96.6084C126.347 79.7077 159.748 78.2923 172.216 82.1335C158.408 79.9633 123.462 84.0511 113.988 96.6084Z" fill="#9BE533"/>
<path d="M113.787 96.9993L113.333 96.7608L113.637 96.3458C126.522 78.7224 160.63 78.0989 172.347 81.7166L173.006 81.9211L172.546 82.4373C163.354 92.7641 124.291 100.7 114.659 97.3782C114.359 97.2739 114.067 97.1472 113.787 96.9993ZM114.67 96.434C114.757 96.4681 114.849 96.5031 114.942 96.5342C123.83 99.6006 161.655 92.0945 171.402 82.3581C159.374 79.0582 127.306 79.8972 114.67 96.434Z" fill="#3A5B00"/>
<path d="M114.756 93.8417C119.688 86.8559 124.087 67.2367 114.692 56.1941C108.942 63.5668 108.419 89.9884 114.756 93.8417Z" fill="#68B702"/>
<path d="M114.757 93.8417C119.687 86.8559 124.087 67.2367 114.692 56.1941C119.368 65.7932 119.521 80.9988 114.757 93.8417Z" fill="#9BE533"/>
<path d="M114.53 94.2208C112.182 92.7984 111.033 88.8278 110.475 85.7464C108.785 76.419 110.108 61.3597 114.349 55.9257L114.679 55.4946L115.027 55.9046C124.59 67.1417 120.103 87.0265 115.116 94.0915L114.88 94.4273L114.53 94.2208ZM111.329 85.588C112.02 89.3972 113.186 92.0827 114.636 93.2264C119.331 86.1554 123.361 67.697 114.704 56.915C110.868 62.5155 109.724 76.6856 111.337 85.588H111.329Z" fill="#3A5B00"/>
<path d="M104.377 60.7611C109.307 53.7763 113.707 34.1541 104.312 23.1145C98.5616 30.4842 98.0373 56.9088 104.377 60.7611Z" fill="#68B702"/>
<path d="M104.376 60.7611C109.308 53.7763 113.707 34.1541 104.312 23.1145C108.987 32.7136 109.143 47.9102 104.376 60.7611Z" fill="#9BE533"/>
<path d="M104.147 61.14C101.799 59.7176 100.65 55.747 100.092 52.6656C98.4002 43.3382 99.7234 28.2789 103.964 22.8449L104.294 22.4138L104.641 22.8238C114.207 34.0608 109.717 53.9457 104.731 61.0127L104.488 61.3535L104.147 61.14ZM100.946 52.5072C101.637 56.3164 102.803 58.9998 104.253 60.1456C108.948 53.0746 112.978 34.6162 104.321 23.8342C100.485 29.4347 99.3415 43.6068 100.954 52.5072H100.946Z" fill="#3A5B00"/>
<path d="M38.382 23.5065C31.34 18.693 11.788 14.7054 1.05615 24.4248C8.49405 30.0543 34.7031 29.9831 38.382 23.5055V23.5065Z" fill="#548E00"/>
<path d="M38.382 23.5065C31.34 18.693 11.788 14.7054 1.05615 24.4248C6.29676 26.7674 32.5289 27.4721 38.382 23.5055V23.5065Z" fill="#68B702"/>
<path d="M38.382 23.5065C31.34 18.693 11.788 14.7054 1.05615 24.4248C7.97279 19.8317 19.5897 17.3297 38.382 23.5055V23.5065Z" fill="#9BE533"/>
<path d="M0.789576 24.7797L0.362549 24.4609L0.759504 24.1C8.94019 16.6882 22.6903 16.8536 32.6863 20.3049C35.053 21.1219 37.1069 22.1012 38.6276 23.1397L38.9624 23.3703L38.7619 23.7251C35.5061 29.4589 15.4859 30.4844 4.88242 26.8276C3.18133 26.2332 1.80502 25.5475 0.789576 24.7797ZM32.4036 21.1409C22.8186 17.8329 9.72608 17.5944 1.76492 24.3887C2.82869 25.0586 3.97105 25.5946 5.16611 25.9846C15.0389 29.3918 34.1057 28.65 37.7746 23.6349C36.0865 22.5994 34.2842 21.7618 32.4036 21.1409Z" fill="#3A5B00"/>
<path d="M121.619 84.3479C123.852 73.8566 139.058 51.3515 162.847 50.9946C155.776 67.2708 137.682 86.497 121.619 84.3479Z" fill="#548E00"/>
<path d="M121.619 84.3479C123.852 73.8566 139.058 51.3515 162.847 50.9946C155.776 67.2708 129.209 84.3419 121.619 84.3479Z" fill="#68B702"/>
<path d="M121.619 84.3479C123.852 73.8566 139.058 51.3515 162.847 50.9946C141.67 57.7449 129.491 66.3095 121.619 84.3479Z" fill="#9BE533"/>
<path d="M121.187 84.2526C123.265 74.4931 138.202 50.9324 162.838 50.5515H163.521L163.245 51.182C156.496 66.7004 138.255 87.0223 121.558 84.7869L121.087 84.7217L121.187 84.2526ZM122.153 83.9669C138.067 85.669 155.378 66.4879 162.16 51.4547C138.817 52.2366 124.53 74.2365 122.153 83.9669Z" fill="#3A5B00"/>
<path d="M121.956 84.6276C131.273 73.15 155.399 57.0613 155.64 56.9009C155.64 56.9009 130.675 72.4864 121.287 84.0662L121.956 84.6276Z" fill="#3A5B00"/>
<path d="M107.562 55.7041C109.792 45.2139 125.007 22.7188 148.789 22.3589C141.72 38.618 123.623 57.8543 107.562 55.7041Z" fill="#548E00"/>
<path d="M107.562 55.7041C109.792 45.2139 125.007 22.7188 148.789 22.3589C141.72 38.618 116.377 55.3753 107.562 55.7041Z" fill="#68B702"/>
<path d="M107.562 55.7041C109.792 45.2139 125.007 22.7188 148.789 22.3589C126.431 29.3728 113.978 38.4055 107.562 55.7041Z" fill="#9BE533"/>
<path d="M107.133 55.6107C109.21 45.8483 124.144 22.2876 148.783 21.9097H149.465L149.19 22.5241C142.443 38.0545 124.202 58.3734 107.505 56.138L107.033 56.0759L107.133 55.6107ZM108.101 55.3231C124.014 57.0272 141.323 37.846 148.106 22.8108C124.761 23.5997 110.477 45.5926 108.101 55.3231Z" fill="#3A5B00"/>
<path d="M107.904 55.9838C117.217 44.5092 141.344 28.4195 141.587 28.2571C141.587 28.2571 116.621 43.8446 107.234 55.4244L107.904 55.9838Z" fill="#3A5B00"/>
<path d="M98.2479 479.377C102.682 457.219 109.094 395.979 112.303 388.356C111.626 379.998 114.97 339.225 116.784 331.91C116.118 326.102 117.829 291.897 119.107 284.541C118.192 277.155 118.468 231.321 119.345 226.477C118.267 221.91 114.298 179.045 114.437 170.373C112.578 163.919 107.581 128.976 106.702 121.092C104.782 107.644 91.0085 63.6069 81.229 48.6951C86.1559 62.8672 99.7285 110.322 101.073 120.922C102.326 131.799 106.134 163.397 106.007 171.046C108.353 183.238 110.756 218.986 110.047 226.535C110.987 238.462 110.319 275.945 109.621 284.226C110.835 294.311 107.701 323.163 105.861 331.724C106.958 339.428 101.237 377.673 98.288 387.724C97.1914 403.245 83.9435 463.21 83.743 476.55C83.9044 479.725 93.686 482.79 98.2479 479.377Z" fill="#7B8C00"/>
<path d="M98.2479 479.377C102.682 457.219 109.094 395.978 112.303 388.356C111.626 379.998 114.97 339.225 116.784 331.91C116.118 326.102 117.829 291.897 119.107 284.541C118.192 277.155 118.468 231.321 119.345 226.477C118.267 221.91 114.298 179.045 114.437 170.373C112.578 163.919 107.581 128.976 106.702 121.092C104.782 107.644 91.0085 63.6069 81.229 48.6951C86.1408 62.8672 101.717 111.244 103.073 121.84C104.325 132.719 108.529 163.412 108.406 171.066C110.754 183.26 114.065 219.622 113.357 227.171C114.296 239.098 112.858 276.356 112.168 284.637C113.382 294.722 111.741 323.7 109.911 332.265C111.006 339.972 105.593 379.448 102.644 389.49C101.547 405.011 90.6777 462.203 90.4813 475.541C90.6216 478.734 93.686 482.79 98.2479 479.377Z" fill="#9BB801"/>
<path d="M98.2479 479.377C102.682 457.219 109.094 395.979 112.303 388.356C111.626 379.998 114.97 339.225 116.784 331.91C116.118 326.102 117.829 291.897 119.107 284.541C118.192 277.155 118.468 231.321 119.345 226.477C118.267 221.91 114.298 179.045 114.437 170.373C112.578 163.919 107.581 128.976 106.702 121.092C104.782 107.644 91.0085 63.6069 81.229 48.6951C88.9145 64.0781 103.445 108.554 104.933 121.498C106.188 132.375 112.401 163.664 112.271 171.322C112.885 185.858 116.303 218.138 117.392 227.47C116.005 240.611 116.288 274.21 117.241 284.723C116.519 296.202 113.978 324.67 114.584 333.064C112.023 344.466 111.987 379.766 109.036 389.817C104.058 412.328 98.8434 463.999 98.6449 477.337C98.8023 480.504 93.686 482.79 98.2479 479.377Z" fill="#F4FF8A"/>
<path d="M83.304 476.546C83.4103 469.447 87.2044 449.158 90.8722 429.544C94.1972 411.762 97.3378 394.967 97.852 387.696L97.8691 387.604C100.682 378.018 106.522 339.486 105.429 331.79V331.633C107.315 322.783 110.362 294.107 109.18 284.286V284.196C109.88 275.78 110.542 238.588 109.607 226.498C110.313 218.915 107.94 183.44 105.557 171.135V171.045C105.672 164.242 102.591 137.838 101.113 125.147L100.628 120.978C99.2454 110.12 85.5424 62.4824 80.797 48.8416L79.6282 45.4785L81.5779 48.4517C91.2291 63.1641 105.184 107.5 107.125 121.053C108.008 128.995 113.003 163.863 114.845 170.26L114.862 170.391C114.735 178.898 118.637 221.591 119.77 226.384V226.565C118.868 231.581 118.684 277.602 119.539 284.497V284.63C118.231 292.16 116.552 326.15 117.22 331.871V332.027C115.313 339.737 112.099 380.255 112.754 388.328V388.438L112.712 388.539C110.971 392.676 108.267 412.848 105.405 434.224C103.084 451.558 100.682 469.484 98.684 479.474L98.6499 479.642L98.5156 479.742C95.7309 481.825 91.1479 481.606 87.8469 480.463C85.0733 479.502 83.3792 478.049 83.304 476.546ZM104.528 434.094C107.377 412.833 110.076 392.743 111.856 388.285C111.235 379.951 114.416 339.787 116.336 331.881C115.697 325.909 117.357 292.185 118.662 284.529C117.809 277.43 118.001 231.958 118.893 226.487C117.737 221.279 113.879 179.073 113.986 170.433C112.12 163.844 107.138 129.076 106.257 121.157C104.46 108.633 92.3277 69.6136 82.9261 52.4272C88.4865 69.6036 100.223 110.837 101.503 120.87L101.987 125.044C103.577 138.694 106.539 164.079 106.439 171.013C108.817 183.399 111.19 218.967 110.477 226.515C111.423 238.53 110.763 275.713 110.063 284.234C111.237 294.148 108.205 322.786 106.308 331.756C107.375 339.815 101.68 377.686 98.7231 387.818C98.1958 395.165 95.0573 411.951 91.7343 429.719C88.0725 449.296 84.2874 469.541 84.1811 476.542C84.2343 477.593 85.8151 478.833 88.1156 479.626C91.1529 480.674 95.3089 480.917 97.849 479.13C99.8368 469.131 102.222 451.318 104.528 434.094Z" fill="#5F6600"/>
<path d="M112.213 385.971C108.861 387.555 102.08 386.603 99.0241 384.895C96.8309 384.734 95.1538 389.614 97.9746 390.896C100.795 392.179 108.259 392.957 111.193 392.188C114.127 391.418 115.036 387.084 112.213 385.971Z" fill="#74843C"/>
<path d="M102.65 386.192C105.894 386.945 109.881 387.074 112.214 385.977C115.037 387.091 114.134 391.409 111.193 392.186C109.403 392.659 105.928 392.553 102.848 392.106C102.223 391.774 101.648 391.354 101.141 390.858C100.679 389.103 101.391 387.442 102.65 386.192Z" fill="#8BA050"/>
<path d="M110.476 386.521C111.074 386.409 111.657 386.227 112.213 385.979C115.036 387.093 114.132 391.411 111.192 392.187C111.103 392.212 110.992 392.227 110.894 392.246C111.273 391.324 111.433 390.328 111.36 389.334C111.287 388.34 110.985 387.377 110.476 386.521Z" fill="#BACC76"/>
<path d="M97.7957 391.299C96.3683 390.654 95.7388 389.055 96.1979 387.24C96.5647 385.777 97.6654 384.349 99.0567 384.443H99.155L99.2382 384.49C99.7841 384.788 100.355 385.037 100.945 385.235C104.286 386.39 109.341 386.825 112.024 385.556L112.194 385.475L112.37 385.545C113.697 386.07 114.437 387.266 114.35 388.771C114.301 389.649 113.981 390.49 113.434 391.178C112.889 391.863 112.143 392.36 111.3 392.599C108.437 393.358 101.698 392.672 98.5515 391.589C98.2942 391.507 98.0419 391.41 97.7957 391.299ZM98.9084 385.331C98.1435 385.331 97.3567 386.235 97.0489 387.457C96.7712 388.554 96.9186 389.929 98.1586 390.492C98.3811 390.594 98.6097 390.684 98.8412 390.761C102.149 391.904 108.555 392.42 111.085 391.75C112.634 391.34 113.413 389.897 113.481 388.739C113.509 388.238 113.438 387.042 112.22 386.465C108.608 388.028 101.944 386.977 98.9084 385.331Z" fill="#4F5924"/>
<path d="M116.683 330.549C113.893 331.914 108.752 331.287 106.228 329.859C104.408 329.738 103.432 333.798 105.765 334.865C108.098 335.932 113.447 336.392 115.887 335.715C118.328 335.037 118.382 331.135 116.683 330.549Z" fill="#74843C"/>
<path d="M109.2 330.923C111.729 331.483 114.762 331.488 116.681 330.549C118.389 331.135 118.324 335.035 115.885 335.713C114.679 336.048 112.756 336.104 110.841 335.944C109.431 334.621 108.767 332.815 109.2 330.923Z" fill="#8BA050"/>
<path d="M115.178 331.051C115.693 330.941 116.194 330.773 116.671 330.549C118.378 331.135 118.314 335.035 115.875 335.713C115.65 335.772 115.423 335.82 115.193 335.856C115.957 334.266 115.839 332.597 115.178 331.051Z" fill="#BACC76"/>
<path d="M105.581 335.267C104.065 334.572 103.732 332.873 104.075 331.496C104.402 330.185 105.277 329.344 106.254 329.418H106.354L106.44 329.465C106.885 329.711 107.351 329.917 107.833 330.078C110.331 330.938 114.215 331.257 116.492 330.144L116.654 330.065L116.824 330.123C117.755 330.444 118.331 331.52 118.288 332.866C118.252 334.09 117.63 335.682 116.003 336.134C113.726 336.766 108.992 336.471 106.258 335.527C106.028 335.452 105.802 335.365 105.581 335.267ZM106.111 330.3C105.532 330.328 105.095 331.035 104.927 331.711C104.67 332.73 104.888 333.978 105.944 334.463C108.257 335.538 113.489 335.921 115.76 335.287C116.929 334.962 117.375 333.767 117.403 332.845C117.428 332.012 117.136 331.298 116.677 331.035C113.664 332.387 108.605 331.664 106.111 330.3Z" fill="#4F5924"/>
<path d="M119.211 281.388C116.651 282.833 112.035 282.388 109.808 281.063C108.575 281.311 107.711 285.151 109.778 286.123C111.846 287.096 116.48 287.401 118.739 286.326C120.38 285.411 120.73 281.911 119.211 281.388Z" fill="#74843C"/>
<path d="M112.835 282.083C115.02 282.466 117.552 282.33 119.221 281.388C120.732 281.91 120.382 285.413 118.756 286.336C117.499 286.934 115.518 287.104 113.635 286.981C112.722 285.375 112.323 283.633 112.835 282.083Z" fill="#8BA050"/>
<path d="M118.025 281.883C118.44 281.761 118.841 281.595 119.22 281.388C120.732 281.91 120.381 285.413 118.755 286.336C118.477 286.464 118.187 286.567 117.891 286.646C118.604 285.15 118.76 283.32 118.025 281.883Z" fill="#BACC76"/>
<path d="M109.612 286.525C108.308 285.908 108.001 284.393 108.148 283.178C108.28 282.079 108.836 280.812 109.742 280.629L109.906 280.596L110.05 280.682C112.014 281.855 116.504 282.419 119.011 281.003L119.18 280.906L119.365 280.971C120.068 281.214 120.522 281.93 120.611 282.939C120.726 284.256 120.185 286.026 118.945 286.726C116.745 287.771 112.591 287.586 110.237 286.781C110.024 286.707 109.815 286.621 109.612 286.525ZM109.789 281.55C109.481 281.748 109.121 282.432 109.021 283.286C108.965 283.716 108.878 285.202 109.983 285.726C111.98 286.668 116.453 286.934 118.55 285.94C119.404 285.461 119.83 284.05 119.743 283.019C119.72 282.745 119.622 282.139 119.242 281.885C116.472 283.295 112.025 282.771 109.78 281.55H109.789Z" fill="#4F5924"/>
<path d="M119.086 223.853C116.562 225.358 112.259 224.861 109.998 223.594C108.771 223.874 108.005 227.731 110.098 228.654C112.192 229.576 116.831 229.758 119.061 228.624C120.672 227.669 120.612 224.334 119.086 223.853Z" fill="#74843C"/>
<path d="M113.024 224.598C115.105 224.96 117.46 224.814 119.084 223.852C120.61 224.334 120.669 227.669 119.067 228.624C117.96 229.183 116.265 229.422 114.586 229.411C113.21 228.144 112.454 226.276 113.024 224.598Z" fill="#8BA050"/>
<path d="M117.394 224.514C117.987 224.378 118.557 224.155 119.084 223.852C120.61 224.334 120.67 227.669 119.067 228.624C118.756 228.775 118.433 228.9 118.101 228.994C118.523 227.628 118.341 226.13 117.394 224.514Z" fill="#BACC76"/>
<path d="M109.921 229.06C108.604 228.478 108.258 226.969 108.373 225.751C108.479 224.648 109.001 223.368 109.899 223.17L110.063 223.134L110.209 223.215C110.595 223.427 110.998 223.604 111.415 223.744C113.548 224.482 116.796 224.713 118.861 223.478L119.074 223.383L119.266 223.448C120.036 223.714 120.562 224.538 120.675 225.653C120.796 226.845 120.416 228.344 119.272 229.026C117.064 230.145 112.761 230.062 110.388 229.24C110.23 229.187 110.074 229.127 109.921 229.06ZM111.131 224.575C110.733 224.44 110.346 224.276 109.972 224.084C109.668 224.3 109.332 224.979 109.246 225.835C109.206 226.278 109.154 227.757 110.273 228.249C112.287 229.137 116.755 229.299 118.844 228.249C119.622 227.785 119.883 226.625 119.794 225.743C119.726 225.082 119.473 224.57 119.111 224.351C116.802 225.606 113.388 225.353 111.131 224.575Z" fill="#4F5924"/>
<path d="M114.292 168.182C111.995 169.903 107.974 170.145 105.775 169.083C104.639 169.464 104.346 172.394 106.363 173.132C108.379 173.869 112.397 173.603 114.441 172.284C115.899 171.2 115.751 168.53 114.292 168.182Z" fill="#74843C"/>
<path d="M108.506 169.691C110.509 169.796 112.773 169.317 114.294 168.186C115.753 168.533 115.901 171.197 114.443 172.287C113.187 173.098 111.183 173.509 109.359 173.535C108.584 172.338 108.228 170.904 108.506 169.691Z" fill="#8BA050"/>
<path d="M113.384 168.732C113.703 168.576 114.007 168.391 114.293 168.182C115.753 168.53 115.9 171.193 114.443 172.284C114.133 172.48 113.805 172.646 113.463 172.779C114.093 171.341 114.278 169.965 113.384 168.732Z" fill="#BACC76"/>
<path d="M106.214 173.544C104.889 173.06 104.433 171.823 104.446 170.804C104.46 169.756 104.938 168.895 105.641 168.653L105.807 168.597L105.967 168.676C106.129 168.751 106.302 168.822 106.483 168.891C108.498 169.586 111.956 169.375 114.032 167.816L114.197 167.693L114.395 167.74C115.178 167.927 115.72 168.623 115.866 169.573C116.011 170.524 115.716 171.877 114.679 172.647C112.509 174.046 108.391 174.289 106.296 173.565L106.214 173.544ZM105.787 169.571C105.549 169.756 105.331 170.216 105.325 170.817C105.325 171.159 105.393 172.303 106.513 172.711L106.439 173.156L106.579 172.724C108.451 173.37 112.27 173.156 114.181 171.916C114.899 171.382 115.108 170.41 114.999 169.704C114.984 169.493 114.918 169.288 114.806 169.107C114.695 168.927 114.541 168.776 114.359 168.668C111.86 170.399 107.967 170.511 105.787 169.573V169.571Z" fill="#4F5924"/>
<path d="M106.851 119.472C105.245 120.674 102.426 120.847 100.888 120.102C100.092 120.369 99.8872 122.422 101.3 122.938C102.712 123.454 105.524 123.267 106.956 122.344C107.976 121.584 107.873 119.715 106.851 119.472Z" fill="#74843C"/>
<path d="M102.719 120.522C104.139 120.612 105.765 120.281 106.85 119.472C107.871 119.715 107.973 121.584 106.954 122.344C105.993 122.962 104.423 123.241 103.059 123.204C102.657 122.371 102.537 121.429 102.719 120.522Z" fill="#8BA050"/>
<path d="M101.149 123.353C100.741 123.197 100.393 122.915 100.156 122.548C99.9175 122.179 99.8014 121.745 99.8241 121.307C99.8341 120.518 100.206 119.863 100.75 119.683L100.917 119.625L101.076 119.702C102.418 120.347 105.045 120.272 106.587 119.114L106.752 118.992L106.95 119.039C107.557 119.186 107.971 119.715 108.081 120.434C108.148 120.859 108.101 121.294 107.944 121.695C107.788 122.096 107.529 122.448 107.192 122.716C105.617 123.732 102.734 123.901 101.217 123.375L101.149 123.353ZM100.921 120.599C100.773 120.81 100.698 121.063 100.707 121.32C100.707 121.535 100.75 122.264 101.454 122.521L101.356 122.951L101.499 122.534C102.779 122.974 105.399 122.821 106.699 121.984C106.901 121.813 107.055 121.592 107.146 121.343C107.238 121.095 107.263 120.826 107.22 120.565C107.209 120.45 107.176 120.339 107.122 120.237C107.068 120.135 106.995 120.045 106.906 119.972C105.131 121.141 102.488 121.232 100.921 120.599Z" fill="#4F5924"/>
<path d="M107.251 290.445C112.69 278.228 116.063 250.364 99.4881 235.939C92.7319 250.526 98.0687 279.728 107.251 290.445Z" fill="#548E00"/>
<path d="M107.247 290.445C112.686 278.228 116.06 250.364 99.4851 235.939C92.9934 254.42 105.79 282.46 107.247 290.445Z" fill="#68B702"/>
<path d="M107.25 290.445C112.69 278.228 116.063 250.364 99.4878 235.939C109.039 246.497 114.733 270.21 107.25 290.445Z" fill="#9BE533"/>
<path d="M106.918 290.733C97.6806 279.952 92.1202 250.794 99.0869 235.751L99.3325 235.222L99.7726 235.603C117.229 250.797 112.491 279.751 107.65 290.626L107.368 291.271L106.918 290.733ZM107.131 289.611C111.742 278.557 115.88 251.342 99.6433 236.665C93.4133 251.087 98.6218 278.933 107.129 289.611H107.131Z" fill="#3A5B00"/>
<path d="M105.833 279.856C105.833 279.856 106.652 274.971 106.046 268.025C105.284 259.353 103.601 246.726 99.9052 235.785L99.0732 236.072C102.741 246.921 104.407 259.477 105.172 268.104C105.771 275.012 105.833 279.818 105.833 279.856Z" fill="#3A5B00"/>
<path d="M88.0245 201.296C93.4616 189.079 96.8367 161.216 80.2618 146.789C73.5056 161.385 78.8434 190.587 88.0245 201.296Z" fill="#548E00"/>
<path d="M88.0244 201.296C93.4615 189.079 96.8366 161.216 80.2618 146.789C73.7621 165.28 86.5649 193.317 88.0244 201.296Z" fill="#68B702"/>
<path d="M88.0244 201.296C93.4615 189.079 96.8366 161.216 80.2617 146.789C89.8127 157.356 95.5084 181.075 88.0244 201.296Z" fill="#9BE533"/>
<path d="M87.6967 201.595C78.4594 190.811 72.8991 161.657 79.8648 146.611L80.1104 146.082L80.5505 146.464C98.0065 161.655 93.2671 190.611 88.4284 201.486L88.1447 202.131L87.6967 201.595ZM87.9092 200.47C92.5203 189.417 96.6582 162.199 80.4222 147.525C74.1922 161.95 79.3997 189.794 87.9072 200.47H87.9092Z" fill="#3A5B00"/>
<path d="M86.6111 190.716C86.6111 190.716 87.4331 185.828 86.8236 178.883C86.0618 170.211 84.3787 157.586 80.6808 146.647L79.8508 146.93C83.5197 157.78 85.1857 170.337 85.9495 178.961C86.553 185.871 86.6111 190.669 86.6111 190.716Z" fill="#3A5B00"/>
<path d="M38.0632 155.887C50.5693 151.369 72.8429 134.521 71.6651 112.477C56.5517 117.674 39.3674 141.787 38.0632 155.887Z" fill="#548E00"/>
<path d="M38.0632 155.887C50.5693 151.369 72.8429 134.521 71.6651 112.477C53.9525 120.563 42.7635 149.293 38.0632 155.887Z" fill="#68B702"/>
<path d="M38.0632 155.887C50.5693 151.369 72.8429 134.521 71.6651 112.477C70.7328 126.735 57.7185 147.299 38.0632 155.887Z" fill="#9BE533"/>
<path d="M37.6252 155.846C38.9374 141.663 55.9373 117.418 71.5218 112.057L72.0731 111.867L72.1022 112.453C73.3381 135.669 49.3414 152.287 38.2096 156.304L37.5691 156.539L37.6252 155.846ZM38.5775 155.224C49.6722 150.922 72.0039 135.06 71.2531 113.093C56.6199 118.558 40.3197 141.639 38.5775 155.224Z" fill="#3A5B00"/>
<path d="M44.6531 147.514C44.6531 147.514 48.7179 144.717 53.2558 139.475C58.9294 132.911 66.7984 122.936 72.057 112.672L71.2751 112.265C66.0586 122.45 58.2388 132.368 52.5952 138.894C48.0793 144.122 44.6892 147.488 44.6531 147.514Z" fill="#3A5B00"/>
<path d="M47.0459 237.071C57.882 227.799 82.9804 222.169 97.2567 238.008C82.434 248.778 58.6258 242.28 47.0459 237.071Z" fill="#548E00"/>
<path d="M47.0459 237.071C57.882 227.799 82.9804 222.169 97.2567 238.008C86.4507 242.351 55.1755 239.487 47.0459 237.071Z" fill="#68B702"/>
<path d="M47.0459 237.071C57.882 227.799 82.9804 222.169 97.2567 238.008C82.024 226.532 59.5811 229.837 47.0459 237.071Z" fill="#9BE533"/>
<path d="M46.8786 237.476L46.239 237.19L46.7703 236.736C55.0452 229.653 71.3083 224.706 85.1175 229.475C89.9104 231.108 94.2045 233.942 97.5896 237.708L97.9203 238.076L97.5214 238.366C83.2892 248.71 61.8235 242.948 53.2569 239.99C51.0934 239.251 48.965 238.412 46.8786 237.476ZM84.8369 230.312C71.6201 225.751 56.1308 230.278 47.886 236.955C49.7439 237.759 51.6314 238.493 53.5446 239.154C61.9027 242.039 82.7047 247.641 96.6082 237.936C93.3715 234.46 89.3232 231.84 84.8258 230.312H84.8369Z" fill="#3A5B00"/>
<path d="M53.7881 236.28C53.8412 236.28 59.2182 235.144 66.7844 234.703C74.9059 234.233 86.7674 234.488 97.1013 238.421L97.412 237.593C86.9268 233.623 74.94 233.343 66.7362 233.822C59.0989 234.265 53.7881 236.28 53.7881 236.28Z" fill="#3A5B00"/>
<path d="M33.1375 166.188C39.2522 153.252 59.8537 137.743 79.3135 146.286C70.1766 162.239 45.8129 166.151 33.1375 166.188Z" fill="#548E00"/>
<path d="M33.1375 166.188C39.2522 153.252 59.8537 137.743 79.3135 146.286C71.2271 154.714 41.5457 165.032 33.1375 166.188Z" fill="#68B702"/>
<path d="M33.1375 166.188C39.2522 153.252 59.8537 137.743 79.3135 146.286C60.7499 142.119 41.6269 154.409 33.1375 166.188Z" fill="#9BE533"/>
<path d="M33.1354 166.63H32.4397L32.7404 165.985C37.4077 156.107 50.2185 144.874 64.7645 143.512C69.7929 143.018 74.8636 143.83 79.4869 145.868L79.938 146.064L79.6944 146.494C70.9203 161.813 48.9975 165.426 39.9788 166.273C37.6101 166.508 35.3076 166.624 33.1354 166.63ZM64.8457 144.407C50.9352 145.708 38.6466 156.24 33.8441 165.74C35.7787 165.712 37.8106 165.599 39.8976 165.406C48.6948 164.582 69.9469 161.104 78.681 146.496C74.3143 144.662 69.5594 143.944 64.8457 144.407Z" fill="#3A5B00"/>
<path d="M38.9634 162.678C39.0085 162.646 43.4542 159.398 50.1743 155.867C57.3907 152.081 68.311 147.415 79.3385 146.727L79.2854 145.845C68.1085 146.557 57.0599 151.257 49.7714 155.082C42.9851 158.643 38.9634 162.678 38.9634 162.678Z" fill="#3A5B00"/>
<path d="M22.6743 93.1902C36.0916 88.4568 61.5198 92.287 69.2073 112.233C51.5378 116.925 31.6299 102.241 22.6753 93.1902H22.6743Z" fill="#548E00"/>
<path d="M22.6743 93.1902C36.0916 88.4568 61.5198 92.287 69.2073 112.233C57.5763 112.377 29.4015 98.3877 22.6753 93.1902H22.6743Z" fill="#68B702"/>
<path d="M22.6743 93.1902C36.0916 88.4568 61.5198 92.287 69.2073 112.233C59.0739 96.0129 36.9497 90.9738 22.6753 93.1902H22.6743Z" fill="#9BE533"/>
<path d="M22.3645 93.502L21.8713 93.0028L22.5309 92.7723C32.7726 89.1586 49.7043 90.4216 60.9042 99.8713C64.7986 103.13 67.7971 107.329 69.6162 112.07L69.7936 112.532L69.3175 112.657C52.3507 117.162 34.3674 104.015 27.4237 98.1522C25.6675 96.6795 23.9793 95.1285 22.3645 93.502ZM60.3459 100.554C49.6341 91.5182 33.5645 90.1329 23.4932 93.3817C24.9385 94.8058 26.4389 96.1728 27.9911 97.4796C34.7664 103.197 52.1863 115.957 68.6188 111.929C66.8374 107.514 63.994 103.607 60.3409 100.554H60.3459Z" fill="#3A5B00"/>
<path d="M29.249 94.8914C29.3022 94.8914 34.7222 95.7945 41.9396 98.1191C49.6882 100.616 60.6656 105.153 68.9135 112.56L69.4979 111.899C61.1227 104.4 50.0361 99.8002 42.2092 97.2711C34.9287 94.9325 29.249 94.8914 29.249 94.8914Z" fill="#3A5B00"/>
<path d="M35.7837 0.71875C49.7413 3.42927 69.8136 19.6272 66.5096 40.7681C48.8912 35.8623 39.0054 13.0825 35.7837 0.71875Z" fill="#548E00"/>
<path d="M35.7837 0.71875C49.7413 3.42927 69.8136 19.6272 66.5096 40.7681C56.3792 35.0022 39.0014 8.62076 35.7837 0.71875Z" fill="#68B702"/>
<path d="M35.7837 0.71875C49.7413 3.42927 69.8136 19.6272 66.5096 40.7681C65.834 21.608 49.226 6.03955 35.7837 0.71875Z" fill="#9BE533"/>
<path d="M35.3548 0.831002L35.1733 0.151367L35.86 0.284688C46.5156 2.35367 60.5223 12.0259 65.4893 25.8853C67.2277 30.6665 67.7247 35.8106 66.9338 40.8362L66.8576 41.3244L66.3834 41.1941C49.4727 36.4868 40.4751 16.0065 37.4037 7.42086C36.6228 5.2558 35.9398 3.05699 35.3548 0.831002ZM64.6653 26.182C59.9149 12.9311 46.7111 3.59365 36.3863 1.29813C36.9251 3.26161 37.54 5.20342 38.2297 7.11913C41.2339 15.4963 49.9308 35.3551 66.1438 40.2037C66.8032 35.4793 66.2962 30.6654 64.6673 26.182H64.6653Z" fill="#3A5B00"/>
<path d="M40.6123 5.5293C40.6544 5.56338 44.8946 9.08585 49.9729 14.7545C55.425 20.8421 62.6534 30.327 66.0866 40.9114L66.9236 40.6358C63.4242 29.9079 56.1327 20.3129 50.6254 14.1621C45.4981 8.43328 40.6123 5.5293 40.6123 5.5293Z" fill="#3A5B00"/>
<path d="M3.26343 123.85C12.0977 112.625 35.6243 102.168 52.6903 114.89C40.2404 128.368 15.6292 126.681 3.26443 123.85H3.26343Z" fill="#548E00"/>
<path d="M3.26343 123.85C12.0977 112.625 35.6243 102.168 52.6903 114.89C42.9349 121.269 11.7057 124.623 3.26443 123.85H3.26343Z" fill="#68B702"/>
<path d="M3.26343 123.85C12.0977 112.625 35.6243 102.168 52.6903 114.89C35.5291 106.64 14.1576 114.29 3.26443 123.85H3.26343Z" fill="#9BE533"/>
<path d="M3.1672 124.28L2.49658 124.126L2.92361 123.574C9.66783 115.004 24.6499 106.954 39.1287 108.912C44.1434 109.568 48.9046 111.505 52.954 114.535L53.3479 114.83L53.0151 115.191C41.0664 128.137 18.89 126.709 9.91343 125.494C7.64756 125.191 5.39653 124.786 3.1672 124.28ZM39.0134 109.787C25.1681 107.914 10.8487 115.402 4.05934 123.57C5.94889 123.981 7.95471 124.332 10.0337 124.614C18.7818 125.799 40.2765 127.195 52.0318 114.951C48.1864 112.177 43.7117 110.403 39.0104 109.789L39.0134 109.787Z" fill="#3A5B00"/>
<path d="M9.7251 121.748C9.77522 121.726 14.8314 119.565 22.165 117.643C30.039 115.584 41.7221 113.504 52.6183 115.327L52.7626 114.453C41.71 112.622 29.8996 114.705 21.9455 116.787C14.5427 118.726 9.7251 121.748 9.7251 121.748Z" fill="#3A5B00"/>
<path d="M34.9297 265.619C42.1851 253.297 64.0969 239.735 82.7076 250.025C72.1603 265.077 47.548 266.745 34.9297 265.619Z" fill="#548E00"/>
<path d="M34.9297 265.619C42.1851 253.297 64.0969 239.735 82.7076 250.025C71.3132 257.107 45.2806 266.231 34.9297 265.619Z" fill="#68B702"/>
<path d="M34.9297 265.619C42.1851 253.297 64.0969 239.735 82.7076 250.025C61.9076 244.459 45.5723 253.91 34.9297 265.619Z" fill="#9BE533"/>
<path d="M34.5398 265.405C41.1156 254.218 60.4692 241.424 78.2439 247.549C79.8578 248.107 81.4216 248.804 82.9172 249.631L83.3432 249.87L83.0595 250.276C70.2056 268.635 38.4642 266.372 34.8856 266.056L34.1899 265.994L34.5398 265.405ZM77.9472 248.409C60.9433 242.539 42.4288 254.475 35.6655 265.253C41.4454 265.684 69.9179 266.848 82.0461 250.195C80.7287 249.488 79.3583 248.885 77.9472 248.392V248.409Z" fill="#3A5B00"/>
<path d="M41.0344 262.661C41.0815 262.631 45.8039 259.802 52.8178 256.902C60.3429 253.792 71.635 250.152 82.6896 250.47L82.7137 249.584C71.5138 249.261 60.0953 252.942 52.489 256.085C45.4069 259.01 41.0344 262.661 41.0344 262.661Z" fill="#3A5B00"/>
<path d="M46.5977 197.762C44.5578 183.579 53.1434 159.144 74.0337 155.352C75.2235 173.734 57.121 190.631 46.5977 197.762Z" fill="#548E00"/>
<path d="M46.5977 197.762C44.5578 183.579 53.1434 159.144 74.0337 155.352C69.595 168.071 55.036 191.667 46.5977 197.762Z" fill="#68B702"/>
<path d="M46.5977 197.762C44.5578 183.579 53.1434 159.144 74.0337 155.352C54.3924 164.197 47.583 181.898 46.5977 197.762Z" fill="#9BE533"/>
<path d="M46.1638 197.822C44.3173 184.947 51.3823 162.746 69.0228 156.257C70.6254 155.669 72.2758 155.221 73.9556 154.917L74.4378 154.829L74.4699 155.322C75.9234 177.749 49.8226 196.108 46.8424 198.132L46.264 198.524L46.1638 197.822ZM69.3215 157.09C52.4369 163.3 45.4811 184.319 46.9396 196.994C51.6981 193.661 74.5721 176.525 73.6118 155.885C72.1529 156.176 70.7186 156.579 69.3215 157.09Z" fill="#3A5B00"/>
<path d="M49.5127 191.579C49.5317 191.527 51.4323 186.334 55.0831 179.635C58.9965 172.445 65.5082 162.457 74.2993 155.703L73.7661 154.998C64.8556 161.846 58.2688 171.944 54.3153 179.209C50.6344 185.97 49.5127 191.579 49.5127 191.579Z" fill="#3A5B00"/>
<path d="M22.7363 159.234C20.6944 145.053 29.284 120.623 50.1723 116.826C51.3601 135.208 33.2616 152.103 22.7363 159.234Z" fill="#548E00"/>
<path d="M22.7363 159.234C20.6944 145.053 29.284 120.623 50.1723 116.826C45.7336 129.545 31.1746 153.142 22.7363 159.234Z" fill="#68B702"/>
<path d="M22.7363 159.234C20.6944 145.053 29.284 120.623 50.1723 116.826C30.53 125.672 23.7236 143.373 22.7363 159.234Z" fill="#9BE533"/>
<path d="M22.3034 159.296C20.449 146.438 27.523 124.22 45.1734 117.731C46.7764 117.144 48.4267 116.695 50.1063 116.389L50.5905 116.303L50.6205 116.796C52.063 139.223 25.9692 157.582 22.9821 159.6L22.4037 159.992L22.3034 159.296ZM45.4611 118.564C28.5765 124.775 21.6208 145.793 23.0803 158.462C27.8387 155.129 50.7208 137.992 49.7625 117.353C48.2998 117.645 46.861 118.049 45.4611 118.564Z" fill="#3A5B00"/>
<path d="M25.6504 153.053C25.6694 153.002 27.571 147.809 31.2218 141.11C35.1432 133.92 41.6469 123.931 50.438 117.181L49.9047 116.475C40.9933 123.323 34.4075 133.421 30.4529 140.686C26.7731 147.445 25.6504 153.053 25.6504 153.053Z" fill="#3A5B00"/>
<path d="M72.3507 296.897C81.7393 289.091 103.12 262.3 97.2587 238.008C84.6714 248.48 67.1121 274.801 72.3507 296.897Z" fill="#548E00"/>
<path d="M72.3518 296.897C81.7404 289.091 103.121 262.3 97.2598 238.008C88.0115 246.126 71.4046 280.74 72.3518 296.897Z" fill="#68B702"/>
<path d="M72.3528 296.897C81.7414 289.091 103.121 262.3 97.2597 238.008C99.9953 256.126 84.7135 284.869 72.3528 296.897Z" fill="#9BE533"/>
<path d="M71.9246 296.998C66.7221 275.07 83.7922 248.624 96.9789 237.666L97.5182 237.216L97.6846 237.902C103.475 261.902 82.905 288.696 72.6303 297.236L72.089 297.686L71.9246 296.998ZM72.6193 296.089C82.8188 287.269 102.036 261.807 96.9909 238.81C84.2192 249.773 68.0964 274.969 72.6193 296.089Z" fill="#3A5B00"/>
<path d="M85.311 272.934C89.5121 264.772 95.0685 252.1 97.6868 238.098L96.8337 237.932C94.2325 251.83 88.7122 264.417 84.5391 272.527C80.2498 280.864 76.563 286.118 76.5269 286.168C76.5198 286.159 80.9946 281.324 85.311 272.934Z" fill="#3A5B00"/>
</g>
</g>
</g>
</g>
</g>
<defs>
<clipPath id="clip0_5_1894">
<rect width="198.89" height="482.16" fill="white"/>
</clipPath>
<clipPath id="clip1_5_1894">
<rect width="198.9" height="482.16" fill="white"/>
</clipPath>
<clipPath id="clip2_5_1894">
<rect width="198.9" height="482.16" fill="white"/>
</clipPath>
<clipPath id="clip3_5_1894">
<rect width="199.48" height="482.16" fill="white" transform="translate(-0.294922)"/>
</clipPath>
</defs>
</svg>
