<svg width="78" height="78" viewBox="0 0 78 78" fill="none" xmlns="http://www.w3.org/2000/svg">
<g clip-path="url(#clip0_5_8066)">
<g clip-path="url(#clip1_5_8066)">
<g clip-path="url(#clip2_5_8066)">
<mask id="mask0_5_8066" style="mask-type:luminance" maskUnits="userSpaceOnUse" x="0" y="0" width="77" height="77">
<path d="M0.449247 8.4846L68.7204 0.271539L76.9344 68.5426L8.66236 76.7566L0.449247 8.4846Z" fill="white"/>
</mask>
<g mask="url(#mask0_5_8066)">
<path d="M14.5584 18.9485L7.99349 19.7385C6.37784 19.9351 4.90607 20.7643 3.90086 22.0443C2.89565 23.3244 2.43904 24.9508 2.63113 26.567C2.72003 27.2371 2.92011 27.8877 3.22313 28.492L14.5584 18.9485ZM64.3172 25.3301L62.8511 13.1393L57.4571 13.7875L62.7727 25.5148L64.3172 25.3301ZM9.46051 31.9293L10.76 31.7732L45.2242 14.0999C45.433 13.9927 45.6682 13.9476 45.9019 13.9701C46.1356 13.9925 46.3579 14.0816 46.5425 14.2266L47.3435 14.8554C47.828 15.238 48.3836 15.5206 48.9781 15.687C49.5726 15.8533 50.1942 15.9001 50.8069 15.8245C51.3319 15.7614 51.8383 16.0419 52.0643 16.519L56.6635 26.2506L60.2172 25.8235L51.3456 6.25224L4.91775 30.6413C5.55209 31.1459 6.28025 31.5195 7.06004 31.7406C7.83984 31.9617 8.65575 32.0258 9.46051 31.9293Z" fill="white"/>
<path d="M45.8237 16.7856L45.642 16.6429L17.7861 30.9263L54.0904 26.559L50.1948 18.3147C48.6077 18.3083 47.0687 17.7699 45.8237 16.7856ZM39.6532 9.61788L35.4768 4.54806L12.5243 23.8698L39.6532 9.61788ZM45.0146 49.9121C44.7448 47.6493 45.3836 45.3719 46.7908 43.5796C48.1981 41.7872 50.2588 40.6262 52.5209 40.3514L65.9298 38.7378L64.6104 27.767L11.4877 34.158L11.3639 34.2212L11.3389 34.1762L9.75283 34.3662C9.46048 34.4014 9.16654 34.4218 8.87213 34.4274C8.76704 34.429 8.66586 34.4183 8.56158 34.418C8.37512 34.4134 8.18899 34.4143 8.00367 34.3975C7.87837 34.3882 7.7625 34.3654 7.64058 34.3504C7.47828 34.3294 7.3163 34.3139 7.15628 34.2844C7.02917 34.2604 6.90122 34.2225 6.76914 34.1931C6.63427 34.164 6.47681 34.1306 6.33467 34.0889C6.19259 34.048 6.07597 33.9973 5.93935 33.9543C5.80594 33.9106 5.67343 33.8642 5.54189 33.8152C5.4124 33.7671 5.28071 33.6977 5.14969 33.6395C5.01866 33.5813 4.89921 33.5298 4.77915 33.4681C4.65903 33.4055 4.53137 33.3256 4.4089 33.2548C4.28741 33.1848 4.17193 33.1219 4.05966 33.0504C3.9463 32.9762 3.82833 32.8874 3.71158 32.8032C3.59487 32.7199 3.49101 32.6488 3.38457 32.5658C3.37184 32.5554 3.35737 32.547 3.34557 32.5365L7.90631 70.4527C8.10241 72.0686 8.9315 73.5407 10.2117 74.546C11.4918 75.5513 13.1185 76.0077 14.7348 75.8151L69.5969 69.2147L67.9833 55.8049L54.5744 57.4184C52.3116 57.6882 50.0342 57.0493 48.2419 55.6418C46.4497 54.2344 45.289 52.1743 45.0146 49.9121ZM57.2145 32.3668L61.3931 31.865L61.6862 34.3022L57.5086 34.8049L57.2145 32.3668ZM47.4628 33.5405L52.3382 32.9532L52.6314 35.3914L47.7561 35.9787L47.4628 33.5405ZM17.4345 71.7788L14.2986 72.1567C13.6216 72.2362 12.9376 72.2356 12.2607 72.155L12.5468 69.7213C13.0314 69.7768 13.5209 69.7756 14.0053 69.7176L17.1385 69.3408L17.4336 71.7789L17.4345 71.7788ZM13.6219 40.0856L10.4869 40.4625C9.80956 40.542 9.12525 40.5414 8.44807 40.4609L8.73414 38.0271C9.21908 38.0831 9.70892 38.0822 10.1936 38.0243L13.3268 37.6475L13.6219 40.0856ZM27.1881 70.6068L22.3119 71.1942L22.0187 68.756L26.895 68.1696L27.1881 70.6068ZM23.3746 38.9127L18.4982 39.4992L18.205 37.061L23.0813 36.4746L23.3746 38.9127ZM36.9408 69.434L32.0645 70.0213L31.7713 67.5832L36.6476 66.9958L36.9408 69.434ZM33.1271 37.7389L28.2508 38.3254L27.9576 35.8872L32.8339 35.3008L33.1271 37.7389ZM46.6924 68.2602L41.8162 68.8476L41.523 66.4094L46.3993 65.823L46.6924 68.2602ZM42.8798 36.566L38.0035 37.1525L37.7102 34.7134L42.5865 34.127L42.8797 36.5651L42.8798 36.566ZM61.0282 64.0628L65.2058 63.561L65.4999 65.9982L61.3214 66.5009L61.0282 64.0628ZM56.4451 67.0874L51.5688 67.6747L51.2756 65.2366L56.1519 64.6501L56.4451 67.0874ZM72.9511 35.42C72.9126 35.0997 72.8113 34.7902 72.6531 34.5091C72.495 34.228 72.283 33.9807 72.0292 33.7816C71.7755 33.5824 71.485 33.4351 71.1744 33.3482C70.8638 33.2613 70.5391 33.2365 70.2188 33.2751L67.7816 33.5692L68.3681 38.4455L70.8053 38.1523C71.1255 38.1138 71.4351 38.0125 71.7162 37.8544C71.9973 37.6962 72.2445 37.4842 72.4437 37.2305C72.6429 36.9767 72.7901 36.6863 72.877 36.3756C72.9639 36.065 72.9897 35.7402 72.9511 35.42Z" fill="white"/>
<path d="M72.9435 39.9819C72.6331 40.1549 72.305 40.2938 71.9648 40.3962C71.6836 40.4875 71.3942 40.5514 71.1005 40.5904L52.8143 42.7896C51.2061 42.9942 49.7442 43.8265 48.7474 45.1049C47.7506 46.3833 47.2999 48.004 47.4936 49.6135C47.6872 51.223 48.5096 52.6905 49.7812 53.696C51.0529 54.7014 52.6705 55.1631 54.2813 54.9803L72.5665 52.7803C73.2131 52.7025 73.8023 52.371 74.2046 51.8588C74.6068 51.3466 74.7891 50.6956 74.7114 50.0489L73.4603 39.6419C73.307 39.7563 73.1476 39.8617 72.9821 39.9573L72.9434 39.981L72.9435 39.9819ZM53.9881 52.5422C53.5044 52.6072 53.0127 52.5755 52.5414 52.4488C52.0701 52.3222 51.6287 52.1031 51.2427 51.8044C50.8568 51.5058 50.5341 51.1334 50.2933 50.7089C50.0526 50.2844 49.8985 49.8163 49.8402 49.3318C49.7819 48.8473 49.8204 48.356 49.9535 47.8865C50.0867 47.417 50.3118 46.9787 50.6158 46.5969C50.9198 46.2152 51.2966 45.8976 51.7243 45.6627C52.1521 45.4279 52.6223 45.2803 53.1075 45.2287C54.0702 45.1262 55.0345 45.4069 55.7919 46.01C56.5492 46.613 57.0387 47.49 57.1544 48.4512C57.2701 49.4124 57.0028 50.3805 56.4102 51.1461C55.8177 51.9116 54.9475 52.4132 53.9881 52.5422Z" fill="white"/>
<path d="M54.7653 48.7384C54.787 48.8998 54.7765 49.0639 54.7343 49.2211C54.6921 49.3784 54.6191 49.5256 54.5194 49.6544C54.4198 49.7832 54.2956 49.8909 54.1539 49.9712C54.0123 50.0515 53.8562 50.1029 53.6945 50.1223C53.5329 50.1418 53.369 50.1289 53.2123 50.0844C53.0557 50.0399 52.9095 49.9648 52.7822 49.8633C52.6549 49.7618 52.549 49.636 52.4707 49.4933C52.3924 49.3505 52.3433 49.1936 52.3262 49.0317C52.2873 48.7081 52.3785 48.3824 52.5798 48.1261C52.7811 47.8698 53.076 47.7039 53.3995 47.665C53.7231 47.6261 54.0489 47.7174 54.3052 47.9187C54.5615 48.12 54.7273 48.4148 54.7662 48.7384L54.7653 48.7384Z" fill="white"/>
</g>
</g>
</g>
</g>
<defs>
<clipPath id="clip0_5_8066">
<rect width="73.4114" height="73.4114" fill="white" transform="translate(0 4.39213) rotate(-3.43)"/>
</clipPath>
<clipPath id="clip1_5_8066">
<rect width="73.4114" height="73.4114" fill="white" transform="translate(0 4.39213) rotate(-3.43)"/>
</clipPath>
<clipPath id="clip2_5_8066">
<rect width="73.41" height="73.41" fill="white" transform="translate(0 4.39213) rotate(-3.43)"/>
</clipPath>
</defs>
</svg>
