<svg width="18" height="18" viewBox="0 0 18 18" fill="none" xmlns="http://www.w3.org/2000/svg">
<g clip-path="url(#clip0_5_11888)">
<g clip-path="url(#clip1_5_11888)">
<path d="M11.8362 13.121C11.8362 13.121 13.1773 16.7499 10.573 17.7754C7.96768 18.801 4.88904 15.8821 5.67793 12.5688C1.88929 15.251 -3.00577 10.7543 2.83595 7.59877C-0.952684 4.44321 0.62608 -0.290123 5.44126 3.73321C5.44126 3.73321 7.57323 -0.842345 9.94089 -0.211234C12.3095 0.419877 11.283 5.07432 11.283 5.07432C11.283 5.07432 13.415 0.656543 16.5725 3.33877C19.73 6.02099 14.6782 8.22988 14.6782 8.22988C14.6782 8.22988 21.3088 15.3299 11.8362 13.121Z" fill="#FDFFFD"/>
<path d="M6.0744 8.38863C6.22665 7.65888 6.65973 7.01825 7.28016 6.605C7.90059 6.19175 8.65863 6.03901 9.39069 6.17974C10.1175 6.38399 10.7406 6.85479 11.1356 7.49819C11.5306 8.14159 11.6685 8.91028 11.5217 9.65085C11.4469 10.01 11.3014 10.3507 11.0935 10.653C10.8856 10.9553 10.6196 11.2131 10.3109 11.4114C10.0023 11.6097 9.65717 11.7445 9.29583 11.808C8.93448 11.8714 8.56411 11.8622 8.20637 11.7809C7.47523 11.6114 6.8408 11.1596 6.44156 10.5241C6.04232 9.88852 5.9097 9.12086 6.0744 8.38863Z" fill="#FDE6BE"/>
</g>
</g>
<defs>
<clipPath id="clip0_5_11888">
<rect width="17.75" height="17.75" fill="white"/>
</clipPath>
<clipPath id="clip1_5_11888">
<rect width="17.75" height="18.7361" fill="white" transform="translate(0 -0.493164)"/>
</clipPath>
</defs>
</svg>
